<?xml version="1.0" encoding="utf-8"?>
<!-- Generator: Adobe Illustrator 24.2.1, SVG Export Plug-In . SVG Version: 6.00 Build 0)  -->
<svg version="1.1" id="Layer_1" xmlns="http://www.w3.org/2000/svg" xmlns:xlink="http://www.w3.org/1999/xlink" x="0px" y="0px"
	 viewBox="0 0 500 500" style="enable-background:new 0 0 500 500;" xml:space="preserve">
<style type="text/css">
	.st0{fill:none;stroke:#000000;stroke-width:1.0383;stroke-miterlimit:10;}
	.st1{fill:none;stroke:#000000;stroke-width:1.0934;stroke-miterlimit:10;}
	.st2{enable-background:new    ;}
</style>
<g>
	<g>
		<line class="st0" x1="45.8" y1="250" x2="454.2" y2="250"/>
		<g>
			<polygon points="46.6,252.6 42.1,250 46.6,247.4 			"/>
		</g>
		<g>
			<polygon points="453.4,252.6 457.9,250 453.4,247.4 			"/>
		</g>
	</g>
</g>
<g>
	<g>
		<line class="st1" x1="250" y1="23.4" x2="250" y2="476.6"/>
		<g>
			<polygon points="247.3,24.2 250,19.5 252.7,24.2 			"/>
		</g>
		<g>
			<polygon points="247.3,475.8 250,480.5 252.7,475.8 			"/>
		</g>
	</g>
</g>
<g class="st2">
	<path d="M233.2,13.7h-3.1l1.9-8.9h-2.5l0.5-2.5h8l-0.6,2.5H235L233.2,13.7z"/>
	<path d="M244.8,13.7h-2.4l0.1-1h-0.1c-0.3,0.4-0.6,0.7-0.9,0.9c-0.3,0.2-0.7,0.3-1.1,0.3c-0.8,0-1.4-0.3-1.9-0.9
		c-0.4-0.6-0.6-1.4-0.6-2.5c0-0.9,0.2-1.9,0.6-2.9c0.4-1,0.9-1.7,1.4-2.2c0.6-0.5,1.2-0.7,1.9-0.7c0.4,0,0.8,0.1,1.2,0.3
		c0.3,0.2,0.6,0.5,0.9,1h0.1l0.4-1.1h2.4L244.8,13.7z M241.5,11.4c0.3,0,0.5-0.2,0.7-0.5c0.2-0.3,0.4-0.7,0.6-1.2s0.2-1,0.2-1.5
		c0-0.3-0.1-0.6-0.2-0.8c-0.1-0.2-0.3-0.3-0.5-0.3c-0.4,0-0.8,0.3-1.1,1s-0.5,1.4-0.5,2.2C240.8,11.1,241.1,11.4,241.5,11.4z"/>
	<path d="M253.8,10.6c0,1-0.3,1.8-1,2.4s-1.7,0.8-2.9,0.8c-1.2,0-2.1-0.2-2.8-0.5v-2.4c0.5,0.3,0.9,0.4,1.3,0.5
		c0.4,0.1,0.8,0.2,1.2,0.2c0.4,0,0.6,0,0.8-0.1s0.3-0.2,0.3-0.4c0-0.2-0.1-0.3-0.2-0.5s-0.5-0.4-1-0.7c-0.6-0.3-1-0.6-1.2-1
		c-0.3-0.4-0.4-0.9-0.4-1.4c0-0.9,0.3-1.6,0.9-2.1c0.6-0.5,1.5-0.7,2.7-0.7c0.6,0,1.1,0.1,1.6,0.2s0.9,0.3,1.4,0.6l-0.9,2
		c-0.3-0.2-0.7-0.4-1.1-0.5s-0.7-0.2-0.9-0.2c-0.4,0-0.6,0.2-0.6,0.5c0,0.2,0.1,0.3,0.2,0.4s0.4,0.3,0.8,0.4
		C253.2,8.7,253.8,9.6,253.8,10.6z"/>
	<path d="M259.3,11.4c0.3,0,0.8-0.1,1.4-0.4v2.3c-0.7,0.3-1.6,0.5-2.7,0.5c-0.8,0-1.4-0.2-1.8-0.5s-0.6-0.9-0.6-1.6
		c0-0.4,0.1-0.9,0.2-1.5l0.7-3.1h-1.2l0.3-1.5l1.7-0.7l1.1-1.9h2L260,4.9h2.2l-0.5,2.3h-2.3l-0.7,3c-0.1,0.4-0.1,0.7-0.1,0.8
		C258.8,11.3,258.9,11.4,259.3,11.4z"/>
	<path d="M262.8,4.9h3l0.3,4.4l0,0.5v0.7h0.1c0.2-0.7,0.3-1.1,0.4-1.3s0.7-1.6,1.9-4.3h3.2l-5.2,10c-0.5,1-1.1,1.7-1.7,2.1
		s-1.5,0.6-2.4,0.6c-0.5,0-0.9,0-1.2-0.1V15c0.2,0.1,0.5,0.1,0.9,0.1c0.5,0,0.8-0.1,1.1-0.3s0.5-0.5,0.8-0.9l0.2-0.3L262.8,4.9z"/>
</g>
<g class="st2">
	<path d="M10.1,254.4H7l1-4.7H5.3l-1,4.7H1.3L3.7,243h3.1l-0.9,4.2h2.7l0.9-4.2h3.1L10.1,254.4z"/>
	<path d="M20.1,254.4h-2.4l0.1-1h-0.1c-0.3,0.4-0.6,0.7-0.9,0.9c-0.3,0.2-0.7,0.3-1.1,0.3c-0.8,0-1.4-0.3-1.9-0.9
		c-0.4-0.6-0.6-1.4-0.6-2.5c0-0.9,0.2-1.9,0.6-2.9c0.4-1,0.9-1.7,1.4-2.2c0.6-0.5,1.2-0.7,1.9-0.7c0.4,0,0.8,0.1,1.2,0.3
		c0.3,0.2,0.6,0.5,0.9,1h0.1l0.4-1.1H22L20.1,254.4z M16.8,252.1c0.3,0,0.5-0.2,0.7-0.5c0.2-0.3,0.4-0.7,0.6-1.2s0.2-1,0.2-1.5
		c0-0.3-0.1-0.6-0.2-0.8c-0.1-0.2-0.3-0.3-0.5-0.3c-0.4,0-0.8,0.3-1.1,1s-0.5,1.4-0.5,2.2C16.2,251.7,16.4,252.1,16.8,252.1z"/>
	<path d="M29.2,245.4c0.3,0,0.5,0,0.6,0.1l-0.7,3c-0.3-0.1-0.6-0.2-1-0.2c-0.5,0-1,0.2-1.3,0.6s-0.6,0.9-0.7,1.7l-0.8,3.9h-3
		l1.9-8.9h2.4l-0.1,1.5h0.1c0.3-0.6,0.7-1,1.1-1.3C28,245.5,28.5,245.4,29.2,245.4z"/>
	<path d="M33.7,245.4c0.4,0,0.7,0.1,1,0.2s0.6,0.5,0.9,0.9h0.1l0-0.3c0-0.7,0.1-1.3,0.2-1.7l0.5-2.4h3.1l-2.6,12.2h-2.4l0.1-1h-0.1
		c-0.3,0.4-0.6,0.7-0.9,0.9s-0.7,0.2-1.2,0.2c-0.8,0-1.4-0.3-1.9-0.9c-0.4-0.6-0.6-1.4-0.6-2.5c0-0.9,0.2-1.9,0.6-2.8
		c0.4-1,0.9-1.7,1.4-2.2C32.4,245.6,33,245.4,33.7,245.4z M33.5,252.1c0.3,0,0.5-0.2,0.7-0.5c0.2-0.3,0.4-0.7,0.6-1.2s0.2-1,0.2-1.5
		c0-0.8-0.2-1.1-0.6-1.1c-0.3,0-0.5,0.2-0.8,0.5c-0.2,0.3-0.4,0.7-0.6,1.2c-0.2,0.5-0.2,1-0.2,1.5C32.9,251.7,33.1,252.1,33.5,252.1
		z"/>
</g>
<g class="st2">
	<path d="M469.8,254.4H463l2.4-11.4h6.8l-0.5,2.5H468l-0.4,1.8h3.5l-0.6,2.5H467l-0.4,2.2h3.7L469.8,254.4z"/>
	<path d="M479.4,254.4H477l0.1-1H477c-0.3,0.4-0.6,0.7-0.9,0.9s-0.7,0.3-1.1,0.3c-0.8,0-1.4-0.3-1.9-0.9s-0.6-1.4-0.6-2.5
		c0-0.9,0.2-1.9,0.6-2.9s0.9-1.7,1.4-2.2s1.2-0.7,1.9-0.7c0.4,0,0.8,0.1,1.2,0.3s0.6,0.5,0.9,1h0.1l0.4-1.1h2.4L479.4,254.4z
		 M476.2,252.1c0.3,0,0.5-0.2,0.7-0.5s0.4-0.7,0.6-1.2s0.2-1,0.2-1.5c0-0.3-0.1-0.6-0.2-0.8s-0.3-0.3-0.5-0.3c-0.4,0-0.8,0.3-1.1,1
		s-0.5,1.4-0.5,2.2C475.5,251.7,475.7,252.1,476.2,252.1z"/>
	<path d="M488.4,251.3c0,1-0.3,1.8-1,2.4s-1.7,0.8-2.9,0.8c-1.2,0-2.1-0.2-2.8-0.5v-2.4c0.5,0.3,0.9,0.4,1.3,0.5s0.8,0.2,1.2,0.2
		c0.4,0,0.6,0,0.8-0.1s0.3-0.2,0.3-0.4c0-0.2-0.1-0.3-0.2-0.5s-0.5-0.4-1-0.7c-0.6-0.3-1-0.6-1.2-1s-0.4-0.9-0.4-1.4
		c0-0.9,0.3-1.6,0.9-2.1s1.5-0.7,2.7-0.7c0.6,0,1.1,0.1,1.6,0.2s0.9,0.3,1.4,0.6l-0.9,2c-0.3-0.2-0.7-0.4-1.1-0.5s-0.7-0.2-0.9-0.2
		c-0.4,0-0.6,0.2-0.6,0.5c0,0.2,0.1,0.3,0.2,0.4s0.4,0.3,0.8,0.4C487.8,249.4,488.4,250.2,488.4,251.3z"/>
	<path d="M490.1,245.5h3l0.3,4.4l0,0.5v0.7h0.1c0.2-0.7,0.3-1.1,0.4-1.3s0.7-1.6,1.9-4.3h3.2l-5.2,10c-0.5,1-1.1,1.7-1.7,2.1
		s-1.5,0.6-2.4,0.6c-0.5,0-0.9,0-1.2-0.1v-2.4c0.2,0.1,0.5,0.1,0.9,0.1c0.5,0,0.8-0.1,1.1-0.3s0.5-0.5,0.8-0.9l0.2-0.3L490.1,245.5z
		"/>
</g>
<g class="st2">
	<path d="M229.8,483.6l-1.6,7.3c-0.3,1.5-0.9,2.5-1.8,3.2c-0.9,0.7-2,1.1-3.5,1.1c-0.7,0-1.3-0.1-1.8-0.4c-0.5-0.3-0.9-0.7-1.2-1.2
		s-0.4-1.1-0.4-1.7c0-0.3,0-0.7,0.1-1l1.6-7.2h3.1l-1.5,7.1c-0.1,0.4-0.1,0.7-0.1,0.9c0,0.7,0.3,1,0.9,1c0.5,0,0.9-0.2,1.2-0.5
		c0.3-0.3,0.5-0.9,0.6-1.5l1.5-7H229.8z"/>
	<path d="M235.8,489.1c0-0.2-0.1-0.4-0.2-0.5c-0.1-0.1-0.3-0.2-0.4-0.2c-0.3,0-0.6,0.2-0.8,0.6c-0.3,0.4-0.5,0.9-0.6,1.7l-0.9,4.3
		h-3l1.9-8.9h2.4l-0.1,1.2h0.1c0.3-0.5,0.6-0.9,1-1.1c0.4-0.2,0.9-0.3,1.4-0.3c0.7,0,1.3,0.2,1.7,0.7c0.4,0.4,0.6,1.1,0.6,1.8
		c0,0.6-0.1,1.1-0.2,1.8l-1,4.7h-3l1-4.8C235.7,489.8,235.8,489.5,235.8,489.1z"/>
	<path d="M244,492.8c0.3,0,0.8-0.1,1.4-0.4v2.3c-0.7,0.3-1.6,0.5-2.7,0.5c-0.8,0-1.4-0.2-1.8-0.5s-0.6-0.9-0.6-1.6
		c0-0.4,0.1-0.9,0.2-1.5l0.7-3.1h-1.2l0.3-1.5l1.7-0.7l1.1-1.9h2l-0.4,1.8h2.2l-0.5,2.3h-2.3l-0.7,3c-0.1,0.4-0.1,0.7-0.1,0.8
		C243.5,492.6,243.7,492.8,244,492.8z"/>
	<path d="M254.6,495.1h-2.4l0.1-1h-0.1c-0.3,0.4-0.6,0.7-0.9,0.9s-0.7,0.3-1.1,0.3c-0.8,0-1.4-0.3-1.9-0.9c-0.4-0.6-0.6-1.4-0.6-2.5
		c0-0.9,0.2-1.9,0.6-2.9c0.4-1,0.9-1.7,1.4-2.2s1.2-0.7,1.9-0.7c0.4,0,0.8,0.1,1.2,0.3s0.6,0.5,0.9,1h0.1l0.4-1.1h2.4L254.6,495.1z
		 M251.3,492.8c0.3,0,0.5-0.2,0.7-0.5s0.4-0.7,0.6-1.2s0.2-1,0.2-1.5c0-0.3-0.1-0.6-0.2-0.8s-0.3-0.3-0.5-0.3c-0.4,0-0.8,0.3-1.1,1
		s-0.5,1.4-0.5,2.2C250.7,492.4,250.9,492.8,251.3,492.8z"/>
	<path d="M263.6,492c0,1-0.3,1.8-1,2.4s-1.7,0.8-2.9,0.8c-1.2,0-2.1-0.2-2.8-0.5v-2.4c0.5,0.3,0.9,0.4,1.3,0.5s0.8,0.2,1.2,0.2
		c0.4,0,0.6,0,0.8-0.1s0.3-0.2,0.3-0.4c0-0.2-0.1-0.3-0.2-0.5s-0.5-0.4-1-0.7c-0.6-0.3-1-0.6-1.2-1s-0.4-0.9-0.4-1.4
		c0-0.9,0.3-1.6,0.9-2.1s1.5-0.7,2.7-0.7c0.6,0,1.1,0.1,1.6,0.2s0.9,0.3,1.4,0.6l-0.9,2c-0.3-0.2-0.7-0.4-1.1-0.5s-0.7-0.2-0.9-0.2
		c-0.4,0-0.6,0.2-0.6,0.5c0,0.2,0.1,0.3,0.2,0.4s0.4,0.3,0.8,0.4C263,490.1,263.6,490.9,263.6,492z"/>
	<path d="M269.1,492.8c0.3,0,0.8-0.1,1.4-0.4v2.3c-0.7,0.3-1.6,0.5-2.7,0.5c-0.8,0-1.4-0.2-1.8-0.5s-0.6-0.9-0.6-1.6
		c0-0.4,0.1-0.9,0.2-1.5l0.7-3.1h-1.2l0.3-1.5l1.7-0.7l1.1-1.9h2l-0.4,1.8h2.2l-0.5,2.3h-2.3l-0.7,3c-0.1,0.4-0.1,0.7-0.1,0.8
		C268.6,492.6,268.8,492.8,269.1,492.8z"/>
	<path d="M272.6,486.2h3l0.3,4.4l0,0.5v0.7h0.1c0.2-0.7,0.3-1.1,0.4-1.3s0.7-1.6,1.9-4.3h3.2l-5.2,10c-0.5,1-1.1,1.7-1.7,2.1
		s-1.5,0.6-2.4,0.6c-0.5,0-0.9,0-1.2-0.1v-2.4c0.2,0.1,0.5,0.1,0.9,0.1c0.5,0,0.8-0.1,1.1-0.3s0.5-0.5,0.8-0.9l0.2-0.3L272.6,486.2z
		"/>
</g>
</svg>
