<?xml version="1.0" encoding="utf-8"?>
<!-- Generator: Adobe Illustrator 24.2.3, SVG Export Plug-In . SVG Version: 6.00 Build 0)  -->
<svg version="1.1"
	 id="svg2" inkscape:export-filename="C:\Documents and Settings\Elembis\My Documents\Images\Shartak\Shartak.com\banana.png" inkscape:export-xdpi="25.797226" inkscape:export-ydpi="25.797226" inkscape:version="0.44" sodipodi:docbase="C:\Documents and Settings\Elembis\My Documents\Images\Shartak\Shartak.com" sodipodi:docname="bananas3.svg" sodipodi:version="0.32" xmlns:cc="http://web.resource.org/cc/" xmlns:dc="http://purl.org/dc/elements/1.1/" xmlns:inkscape="http://www.inkscape.org/namespaces/inkscape" xmlns:rdf="http://www.w3.org/1999/02/22-rdf-syntax-ns#" xmlns:sodipodi="http://sodipodi.sourceforge.net/DTD/sodipodi-0.dtd" xmlns:svg="http://www.w3.org/2000/svg"
	 xmlns="http://www.w3.org/2000/svg" xmlns:xlink="http://www.w3.org/1999/xlink" x="0px" y="0px" viewBox="0 0 100 100"
	 style="enable-background:new 0 0 100 100;" xml:space="preserve">
<style type="text/css">
	.st0{fill-rule:evenodd;clip-rule:evenodd;fill:#FFC701;}
	.st1{opacity:0.7;fill-rule:evenodd;clip-rule:evenodd;enable-background:new    ;}
	.st2{opacity:0.4;fill-rule:evenodd;clip-rule:evenodd;fill:#FFFFFF;enable-background:new    ;}
	.st3{opacity:0.4;fill-rule:evenodd;clip-rule:evenodd;enable-background:new    ;}
	.st4{opacity:0.6;fill-rule:evenodd;clip-rule:evenodd;enable-background:new    ;}
	.st5{fill-rule:evenodd;clip-rule:evenodd;fill:#884A13;}
	.st6{opacity:0.3;fill-rule:evenodd;clip-rule:evenodd;fill:#FFFFFF;enable-background:new    ;}
</style>
<sodipodi:namedview  bordercolor="#666666" borderopacity="1.0" gridtolerance="10000" guidetolerance="10" id="base" inkscape:current-layer="layer1" inkscape:cx="257.85399" inkscape:cy="231.60006" inkscape:document-units="px" inkscape:pageopacity="0.0" inkscape:pageshadow="2" inkscape:window-height="721" inkscape:window-width="1024" inkscape:window-x="-4" inkscape:window-y="-4" inkscape:zoom="1" objecttolerance="10" pagecolor="#ffffff">
	</sodipodi:namedview>
<g id="layer1" transform="translate(-66.38047,-391.3222)" inkscape:groupmode="layer" inkscape:label="Layer 1">
	<g id="g9893" inkscape:transform-center-x="88.0002" inkscape:transform-center-y="113.00018">
		<path id="path17976" sodipodi:nodetypes="csccccc" class="st0" d="M135.7,410.2c0,0,5.5,8.8,4,12.1c-1.5,3.2-10.1,32-10.1,32
			l5.6,2.1l14.4-27.4l-9-21L135.7,410.2z"/>
		<path id="path18863" sodipodi:nodetypes="csccccc" class="st1" d="M135.7,410.2c0,0,5.5,8.8,4,12.1c-1.5,3.2-10.1,32-10.1,32
			l5.6,2.1l14.4-27.4l-9-21L135.7,410.2z"/>
	</g>
	<g id="g2783">
		<path id="path6424" class="st0" d="M131.7,404.7l-1.2,11.7c0,0-4,3.6-5.6,6.3s-6.1,12-23,19.6s-21.2,5.3-24.8,7.1
			s-8.6,5.2-9.4,6.9c-0.8,1.7,2.4,3.8,2.4,3.8s10.4,8.1,30,3.3c19.6-4.8,35.2-24.7,35.2-24.7l0.3-33.8L131.7,404.7z"/>
		<path id="path1895" class="st2" d="M131.6,405.6l-1.1,10.8c0,0-4,3.6-5.6,6.3c-1.6,2.7-6.1,12-23,19.5
			c-16.9,7.5-21.2,5.3-24.8,7.1c-3.6,1.8-8.6,5.2-9.4,6.9c0,0.1-0.1,0.2-0.1,0.2c2.8-2.1,7.4-4.4,10.8-5.5
			c6.7-2.1,14.2-1.4,28.1-9.4c19.8-11.3,18.8-18.8,21.2-21C131.3,417.5,137.8,412.1,131.6,405.6z"/>
		<path id="path9086" class="st3" d="M79.5,464c5,1.1,11.9,1.6,20.7-0.6c2.1-0.5,4.2-1.2,6.2-2l5.5-4.5
			C102.5,463.8,86.8,464.2,79.5,464z"/>
	</g>
	<g id="g9941">
		
			<path id="path12644" inkscape:transform-center-x="126" inkscape:transform-center-y="181" sodipodi:nodetypes="cssssssssc" class="st0" d="
			M136.3,410.1c0,0,8,6.9,8.2,9.6c0.2,2.7,1.4,18.3-6.3,28.5S103.7,472,102.4,471c-1.3-0.9,6.4,12,25,8.4s33.2-25.2,35-30.6
			c2.2-6.9,4.8-22.9-2.2-30.1c-7.1-7.2-7.6-3.6-10.3-5.3c-2.7-1.6-6.7-5.4-7.7-7.2C141.1,404.3,136.4,410,136.3,410.1z"/>
		<path id="path8981" class="st4" d="M144.7,423.7c0.1,6-0.6,16.8-6.5,24.6c-7.7,10.2-34.5,23.7-35.8,22.7c-0.3-0.2-0.1,0.4,0.7,1.4
			l0,0l0.9,0.9c0,0,0,0-0.1,0c0,0,0.1,0.1,0.1,0.1c0.1,0.1,0.1,0.1,0.2,0.2c0.1,0.1,0.3,0.2,0.4,0.4c0,0,0.1,0.1,0.1,0.1
			c0.1,0.1,0.2,0.2,0.3,0.2c0.1,0.1,0.2,0.2,0.3,0.3c0.1,0.1,0.2,0.1,0.3,0.2c0.1,0.1,0.2,0.2,0.3,0.3c0.1,0,0.1,0.1,0.2,0.1
			c0.4,0.3,0.8,0.6,1.2,0.8c0,0,0,0,0,0c0,0,0,0,0,0c0.1,0.1,0.2,0.1,0.3,0.2c0,0,0,0,0,0c0.1,0.1,0.2,0.2,0.4,0.2
			c0.1,0.1,0.3,0.2,0.4,0.2c0,0,0,0,0,0c0.1,0.1,0.3,0.2,0.4,0.2c0,0,0,0,0,0c8-0.6,27.9-18.2,34.2-31.2
			C147.6,436.9,146.1,428.3,144.7,423.7z"/>
		<path id="path17089" class="st3" d="M140.6,406.1c-0.3,0.1-0.5,0.3-0.8,0.5c2.6,2.5,15.3,14.8,16.4,17.8
			c1.2,3.4,2.3,17.6-3.3,26.9c-3.8,6.3-13,17.9-16.8,21c-2.4,1.9-7.3,5.5-11.6,7.5c0.9-0.1,1.9-0.2,2.9-0.4
			c18.6-3.6,33.2-25.2,35-30.6c2.2-6.9,4.8-22.9-2.2-30.1c-7.1-7.2-7.6-3.6-10.3-5.3c-2.7-1.6-6.7-5.4-7.7-7.2
			C141.8,405.7,141.2,405.7,140.6,406.1z"/>
	</g>
	<g id="g9903">
		<path id="path1933" sodipodi:nodetypes="cssccccc" class="st0" d="M137.9,411.3c0,0-1.4,4.6,0.9,7s8.7,7.9,3,21.2
			s-27.3,42.4-54.8,37.7c-8.9-3.4-7.9-9.2-7.9-9.2s2.9-2.1,4.3-2.7c1.3-1.3,9-4.8,16.1-8.2c9.2-5.1,28.4-30.6,30.8-37.7
			c0,0,2.1-10.5,1.6-11.8c-0.5-1.3,5.6,0.3,6.4,1.3C139,409.9,137.8,411.1,137.9,411.3z"/>
		<path id="path7201" sodipodi:nodetypes="cssccccsscc" class="st2" d="M132,407.2c-0.1,0.1-0.2,0.2-0.1,0.4
			c0.5,1.3-1.6,11.8-1.6,11.8c-2.5,7.2-21.6,32.6-30.8,37.7c-7.1,3.4-14.8,6.9-16.1,8.2c-1.3,0.5-4.3,2.7-4.3,2.7s0,0.1,0,0.3
			c2-0.4,5.5-1.4,10.7-4c11.9-6,16.5-9.2,24.6-18.6c8.5-9.9,19.9-22.9,18.7-38.6C132.6,407.1,132.2,407.1,132,407.2z"/>
		<path id="path4646" class="st3" d="M138.5,417.9c1.1,5.1,2.1,19.7-14.3,37.2c-20.1,21.4-28.7,19.8-37.8,21.8
			c0.2,0.1,0.4,0.2,0.7,0.3c27.4,4.6,49-24.5,54.8-37.7c5.7-13.2-0.7-18.7-3-21.2C138.7,418.2,138.6,418.1,138.5,417.9z"/>
	</g>
	<g id="g9946">
		<path id="path23294" sodipodi:nodetypes="czsssz" class="st5" d="M133.3,402.1c-1,0.2-2.9,4.4-2.4,5.2c0.5,0.8,5,1.9,7.2,1.5
			c0.7-0.2,4-2.3,3.8-3.1c-0.2-0.7-1.6-3.4-2.6-3.7C138.5,401.8,134.5,401.8,133.3,402.1z"/>
		<path id="path22407" sodipodi:nodetypes="czsssz" class="st5" d="M133.3,402.1c-1,0.2-2.9,4.4-2.4,5.2c0.5,0.8,5,1.9,7.2,1.5
			c0.7-0.2,4-2.3,3.8-3.1c-0.2-0.7-1.6-3.4-2.6-3.7C138.5,401.8,134.5,401.8,133.3,402.1z"/>
		<path id="path25958" class="st6" d="M133.1,402.2c-1.1,0.7-2.6,4.4-2.2,5.1c0.2,0.3,1,0.7,2.1,1c-0.7-1.3-1-3.6,1.4-6.4
			c-0.5,0-0.9,0.1-1.2,0.2C133.2,402.1,133.2,402.2,133.1,402.2z"/>
		<path id="path26854" class="st3" d="M139.4,402.1c1.6,2.9-0.3,5.4-1.7,6.8c0.2,0,0.3,0,0.5-0.1c0.7-0.2,4-2.3,3.8-3.1
			S140.4,402.4,139.4,402.1C139.4,402.1,139.4,402.1,139.4,402.1z"/>
	</g>
</g>
</svg>
