<svg version="1.1" id="prefix__svg2" xmlns="http://www.w3.org/2000/svg" x="0" y="0" viewBox="0 0 100 100" xml:space="preserve"><style>.prefix__st0{fill-rule:evenodd;clip-rule:evenodd;fill:#ffc701}.prefix__st2{opacity:.4;fill:#fff;enable-background:new}.prefix__st2,.prefix__st3,.prefix__st5{fill-rule:evenodd;clip-rule:evenodd}.prefix__st3{opacity:.4;enable-background:new}.prefix__st5{fill:#884a13}</style><g id="prefix__layer1" transform="translate(-66.38 -391.322)"><g id="prefix__g9893"><path id="prefix__path17976" class="prefix__st0" d="M135.7 410.2s5.5 8.8 4 12.1c-1.5 3.2-10.1 32-10.1 32l5.6 2.1 14.4-27.4-9-21-4.9 2.2z"/><path id="prefix__path18863" d="M135.7 410.2s5.5 8.8 4 12.1c-1.5 3.2-10.1 32-10.1 32l5.6 2.1 14.4-27.4-9-21-4.9 2.2z" opacity=".7" fill-rule="evenodd" clip-rule="evenodd"/></g><g id="prefix__g2783"><path id="prefix__path6424" class="prefix__st0" d="M131.7 404.7l-1.2 11.7s-4 3.6-5.6 6.3-6.1 12-23 19.6-21.2 5.3-24.8 7.1-8.6 5.2-9.4 6.9c-.8 1.7 2.4 3.8 2.4 3.8s10.4 8.1 30 3.3 35.2-24.7 35.2-24.7l.3-33.8-3.9-.2z"/><path id="prefix__path1895" class="prefix__st2" d="M131.6 405.6l-1.1 10.8s-4 3.6-5.6 6.3c-1.6 2.7-6.1 12-23 19.5s-21.2 5.3-24.8 7.1c-3.6 1.8-8.6 5.2-9.4 6.9 0 .1-.1.2-.1.2 2.8-2.1 7.4-4.4 10.8-5.5 6.7-2.1 14.2-1.4 28.1-9.4 19.8-11.3 18.8-18.8 21.2-21 3.6-3 10.1-8.4 3.9-14.9z"/><path id="prefix__path9086" class="prefix__st3" d="M79.5 464c5 1.1 11.9 1.6 20.7-.6 2.1-.5 4.2-1.2 6.2-2l5.5-4.5c-9.4 6.9-25.1 7.3-32.4 7.1z"/></g><g id="prefix__g9941"><path id="prefix__path12644" class="prefix__st0" d="M136.3 410.1s8 6.9 8.2 9.6c.2 2.7 1.4 18.3-6.3 28.5S103.7 472 102.4 471c-1.3-.9 6.4 12 25 8.4s33.2-25.2 35-30.6c2.2-6.9 4.8-22.9-2.2-30.1-7.1-7.2-7.6-3.6-10.3-5.3-2.7-1.6-6.7-5.4-7.7-7.2-1.1-1.9-5.8 3.8-5.9 3.9z"/><path id="prefix__path8981" d="M144.7 423.7c.1 6-.6 16.8-6.5 24.6-7.7 10.2-34.5 23.7-35.8 22.7-.3-.2-.1.4.7 1.4l.9.9h-.1l.1.1.2.2c.1.1.3.2.4.4l.1.1c.1.1.2.2.3.2l.3.3c.1.1.2.1.3.2l.3.3c.1 0 .1.1.2.1.4.3.8.6 1.2.8.1.1.2.1.3.2.1.1.2.2.4.2.1.1.3.2.4.2.1.1.3.2.4.2 8-.6 27.9-18.2 34.2-31.2 4.6-8.7 3.1-17.3 1.7-21.9z" opacity=".6" fill-rule="evenodd" clip-rule="evenodd"/><path id="prefix__path17089" class="prefix__st3" d="M140.6 406.1c-.3.1-.5.3-.8.5 2.6 2.5 15.3 14.8 16.4 17.8 1.2 3.4 2.3 17.6-3.3 26.9-3.8 6.3-13 17.9-16.8 21-2.4 1.9-7.3 5.5-11.6 7.5.9-.1 1.9-.2 2.9-.4 18.6-3.6 33.2-25.2 35-30.6 2.2-6.9 4.8-22.9-2.2-30.1-7.1-7.2-7.6-3.6-10.3-5.3-2.7-1.6-6.7-5.4-7.7-7.2-.4-.5-1-.5-1.6-.1z"/></g><g id="prefix__g9903"><path id="prefix__path1933" class="prefix__st0" d="M137.9 411.3s-1.4 4.6.9 7 8.7 7.9 3 21.2-27.3 42.4-54.8 37.7c-8.9-3.4-7.9-9.2-7.9-9.2s2.9-2.1 4.3-2.7c1.3-1.3 9-4.8 16.1-8.2 9.2-5.1 28.4-30.6 30.8-37.7 0 0 2.1-10.5 1.6-11.8-.5-1.3 5.6.3 6.4 1.3.7 1-.5 2.2-.4 2.4z"/><path id="prefix__path7201" class="prefix__st2" d="M132 407.2c-.1.1-.2.2-.1.4.5 1.3-1.6 11.8-1.6 11.8-2.5 7.2-21.6 32.6-30.8 37.7-7.1 3.4-14.8 6.9-16.1 8.2-1.3.5-4.3 2.7-4.3 2.7v.3c2-.4 5.5-1.4 10.7-4 11.9-6 16.5-9.2 24.6-18.6 8.5-9.9 19.9-22.9 18.7-38.6-.5 0-.9 0-1.1.1z"/><path id="prefix__path4646" class="prefix__st3" d="M138.5 417.9c1.1 5.1 2.1 19.7-14.3 37.2-20.1 21.4-28.7 19.8-37.8 21.8.2.1.4.2.7.3 27.4 4.6 49-24.5 54.8-37.7 5.7-13.2-.7-18.7-3-21.2-.2-.1-.3-.2-.4-.4z"/></g><g id="prefix__g9946"><path id="prefix__path23294" class="prefix__st5" d="M133.3 402.1c-1 .2-2.9 4.4-2.4 5.2.5.8 5 1.9 7.2 1.5.7-.2 4-2.3 3.8-3.1-.2-.7-1.6-3.4-2.6-3.7-.8-.2-4.8-.2-6 .1z"/><path id="prefix__path22407" class="prefix__st5" d="M133.3 402.1c-1 .2-2.9 4.4-2.4 5.2.5.8 5 1.9 7.2 1.5.7-.2 4-2.3 3.8-3.1-.2-.7-1.6-3.4-2.6-3.7-.8-.2-4.8-.2-6 .1z"/><path id="prefix__path25958" d="M133.1 402.2c-1.1.7-2.6 4.4-2.2 5.1.2.3 1 .7 2.1 1-.7-1.3-1-3.6 1.4-6.4-.5 0-.9.1-1.2.2 0 0 0 .1-.1.1z" opacity=".3" fill-rule="evenodd" clip-rule="evenodd" fill="#fff"/><path id="prefix__path26854" class="prefix__st3" d="M139.4 402.1c1.6 2.9-.3 5.4-1.7 6.8.2 0 .3 0 .5-.1.7-.2 4-2.3 3.8-3.1s-1.6-3.3-2.6-3.6z"/></g></g></svg>