<?xml version="1.0" encoding="utf-8"?>
<!-- Generator: Adobe Illustrator 24.3.0, SVG Export Plug-In . SVG Version: 6.00 Build 0)  -->
<svg version="1.1" id="Layer_1" xmlns="http://www.w3.org/2000/svg" xmlns:xlink="http://www.w3.org/1999/xlink" x="0px" y="0px"
	 viewBox="0 0 100 100" style="enable-background:new 0 0 100 100;" xml:space="preserve">
<style type="text/css">
	.st0{fill:#203153;}
	.st1{fill:#61759F;}
	.st2{fill:#334871;}
	.st3{fill:#829ECD;}
	.st4{fill:#485B81;}
	.st5{fill:#546791;}
	.st6{fill:#98B4E0;}
	.st7{fill:#A7C2EF;}
	.st8{fill:#6C88B2;}
	.st9{fill:#3F5279;}
	.st10{fill:#283C65;}
	.st11{fill:#C1D9F7;}
</style>
<g id="Layer_2_1_">
	<path class="st0" d="M93,51.4c-0.9,54.3-84.1,54.3-85,0"/>
</g>
<g id="Layer_3">
	<path class="st1" d="M8,51.4c0.9-54.3,84.1-54.3,85,0"/>
</g>
<g id="svg2" inkscape:export-filename="C:\Documents and Settings\Elembis\My Documents\Images\Shartak\Shartak.com\banana.png" inkscape:export-xdpi="25.797226" inkscape:export-ydpi="25.797226" inkscape:version="0.44" sodipodi:docbase="C:\Documents and Settings\Elembis\My Documents\Images\Shartak\Shartak.com" sodipodi:docname="bananas3.svg" sodipodi:version="0.32" xmlns:cc="http://web.resource.org/cc/" xmlns:dc="http://purl.org/dc/elements/1.1/" xmlns:inkscape="http://www.inkscape.org/namespaces/inkscape" xmlns:rdf="http://www.w3.org/1999/02/22-rdf-syntax-ns#" xmlns:sodipodi="http://sodipodi.sourceforge.net/DTD/sodipodi-0.dtd" xmlns:svg="http://www.w3.org/2000/svg">
	
		<sodipodi:namedview  bordercolor="#666666" borderopacity="1.0" gridtolerance="10000" guidetolerance="10" id="base" inkscape:current-layer="layer1" inkscape:cx="257.85399" inkscape:cy="231.60006" inkscape:document-units="px" inkscape:pageopacity="0.0" inkscape:pageshadow="2" inkscape:window-height="721" inkscape:window-width="1024" inkscape:window-x="-4" inkscape:window-y="-4" inkscape:zoom="1" objecttolerance="10" pagecolor="#ffffff">
		</sodipodi:namedview>
	<g id="VzrErQ_1_">
		<g>
			<path class="st2" d="M91.3,60.7c-0.1,1.3-0.6,2.6-1.1,3.8c-1.7-0.6-2.1-0.2-2.2,1.9c-3.2-0.5-2.9,4-4.8,2.7
				c-0.4-0.2-1.2-0.3-1.5,0.2c-0.7,1.2,2.6,1.2,0.8,2.4c-1.8,1-1.7,4-4.1,4.1c-0.1,0-0.3,0.3-0.4,0.5c-2.1,1.1-0.5-0.9-0.9-1.2
				c-3.6,0.5-1.8,2.5-5.9,2.9c-0.4,0.1-0.5-1.9-1-2.4c-0.1,1.7-1,4.7-2.8,2.5c-0.4,0.5,0.2,0.9,0,1.3c-0.1,0.3-0.4,0.9-0.7,0.4
				c-0.6-1.1-2-1.1-2.7-2.1c0.3-0.6,0.7-0.7,1.3-0.5c4.3,1.4,2.1-2.5,3.9-3.1c0.9,0.1,2.1-0.3,2.9-0.1c-0.4-1.9,0.8-3.5,2.7-4.5
				c-0.4,1.6-0.5,5.1,1.4,2.5c3-1.4,4.6-5.2,3.6-8.3c1-3.6-0.5-7.3,1.2-10.8c0.6-1.2-1.2-1.3-1.2-2.3c-0.4-0.7-2.4,1.4-2.2-0.9
				c0.7-1.6-2-2.4-0.5-3c1-0.4,1.6-1.6,2.8-1.6c0.2,0,0.4-0.2,0.3-0.5c-0.7-1.4,1.4-2.8-0.3-4.1c-0.5,0.2-0.7,2-1.4,1.4
				c-1.4-1.4-1.7,0.1-2.2,0.9c-0.6,2.1-3-0.2-2.7,2.5c0.8,2-1.6,2.4,0.7,4c-1.9-0.2-2.9-1.5-4.5,0c-0.2,0.2-0.6,0.3-0.6-0.1
				c0.3-1.3-0.5-0.3-0.8-0.4c-0.9-0.3-1.4,1-2.2,0.5c0.2-2.3,2.9-1.7,4.3-2.6c-0.2-0.2-0.3-0.4-0.5-0.6c1.3-0.4,1.2,1.3,2.2,0.7
				c0.8-0.9-1.4-1.3-1.3-2.3c3.4,0.7,0.4-1.6,2.9-2.2c0.3-0.1,1.3,0,0.8-0.7s0.3-1,0.1-1.6c0.3,0,0.6,0,1,0c2.1,1.8,2.8-0.7,3.8-1.9
				c0.1,0,0.2,0,0.3,0c0.6,1.5,1.6-0.4,2.6,1.6c0,1.8-0.9,0.1-1.3,0.3c0-0.2,0-0.4-0.3-0.5c-0.5,0.1,0,0.6,0.3,0.5
				c-0.2,1,1,1,1.1,1.7c1.1,1.6-2.2,0.1-0.5,3c0.1,0.3,0.5,0.5,0.4,1c-0.9,2.3,4.6,4.1,1.8,4.9c-0.9,0.3-1.1,0.7-0.6,1.5
				c-0.6,1.6,1,3.1,0.5,4.9c0.2,1.4,0.2,2.8-0.8,4c-0.3,0.5,0.4,1.4,0.9,0.7c1.3-1.3,3.8-3.3,5.5-1.7C89.7,61.3,90.5,60.9,91.3,60.7
				z M81.6,50.7c-0.2-0.1-0.4-0.2-0.4,0.1c0.1,0,0.2,0.1,0.3,0.1C81.5,50.9,81.5,50.8,81.6,50.7z"/>
			<path class="st3" d="M8.3,56.9c-1-10.1,0.8-21,6.8-29.1c1.3,1,1.9-2.2,2,0.3c1.3,1.2,0-3.5,0.3-4.1c2.8-2.6,5.9-4.6,8.1-6.2
				c-0.7,1.3-0.8,2.9-2.5,3.4c-0.4,0.1-0.8,0.5-1,0.9c-0.4,0.8-0.8,1.9-1.4,2.1c-1.4,0.3-0.6,1-0.6,1.6c1,2.2-1.1,2.1-1,4.3
				c0,0.3,0.9,0.7,0.3,1.2s-0.7-0.7-1.2-0.5c-0.2,3.2-1.9,5.1-0.9,8.1c0.3-1,1.1-0.8,1.6-1.2c1.1-0.9,2.1,1,0.5,0.8
				c-0.7,0-0.7,0.6-0.8,1c-0.1,0.7,0.5,0.6,0.8,0.6c1.8,0.2,0.1,3.1,2.5,3.2c2.7-0.1,1.4,3.4,3.9,3.6c1,1.1,3.1,2,3.7,0.3
				c0.4-0.1,0.8-0.2,1.3-0.3c0.1,0.8,0.8,0.6,1.3,0.6c-1.4,3.8,2.8,3.6,4.8,5.4c-0.8-0.2-1.1,0.4-1.6,0.9c-0.3-0.3,0.1-1.3-0.4-1
				c-0.9,0.8-2.4,0.3-2.8,1.7c-0.2,0-0.4,0-0.6,0c0.4-1.5-1.2-3-3-2.4c-1.3,0.5-1.7,0.1-2.3-0.9c-0.9-1.2-1.9-2.9-3.7-2.4
				c-0.1-0.3-0.2-0.6-0.3-0.9c0-0.3,0.5-0.9-0.1-0.8c-1.5,0.3-0.8-0.4-0.5-1c0.6-0.7,0-1.9-0.9-1.2c-1.6,0.9,0.7-2.2-1.5-3.5
				c-0.8-0.7-1.9-0.9-2.5-1.9c-1.2,0-3,2.9-2.5,3.9c1,1.6-0.1,2.1-1.2,2.8c-0.1,0-0.2,0-0.3,0c-0.2-0.3-0.3-0.7-0.7-0.5
				c-0.5,0.4,0.8,1.1-0.1,1.6c-2.6,2.2-1.9,5.6-1.2,8.3c-0.2,2.1,0.2,4.2-0.2,6.3c0.4,1.3,1.5,2.2,1.5,3.8c-0.4-0.1-0.9-0.2-1.3-0.3
				C9.5,62.7,8.7,59.9,8.3,56.9z M16.7,31.6c0,0,0.1,0,0.1,0.1C16.8,31.6,16.7,31.6,16.7,31.6c-1-1.3-1.8-0.5-2.5,0.3
				c-0.2,0.3-0.9,0.5-0.4,0.7c0.6,0.3,0.7,1.3,1.7,1C16.8,33.2,14.9,31.4,16.7,31.6z M13.5,36.1c-1.3,0.4-1.9,1-1.3,2.4
				C13.1,38,13.6,37.3,13.5,36.1z"/>
			<path class="st4" d="M79,82.9c-1.4,1.4-2.9,2.7-4.7,3.7c-1-0.4-0.5-1.2-0.5-2.1c-1.2,2-3.4,1.3-5.1,2c0.4-3-1.2,0-2.1-1.4
				c-2.3-3.4-2.8,0.8-4.3,0.2c-2.2-2.2-2.3,3.3-3.4,0.9c-0.3-0.7-0.9-0.2-0.8,0.1c0.2,1-0.9,1.2-1.1,2c-1.8,0.9-3.2-0.6-4.8-1
				c-1.2-0.1-0.8-1.4,0.2-1.1c0.2,0,0.4,0.1,0.6-0.1c-0.3-0.7-1-1.2-1.5-1.8c-0.7,0.5,0.3,1-0.1,1.6c-0.6-0.7-0.9-1.8-2.1-1
				c0.1-0.7-0.2-1-0.7-0.3c-0.6-0.3-2.5,0-2.1-1c0.7-1.1,0.4-2.7,1.9-3.4c-2.2-0.4-2-2-1.4-3.5c0.1,0,0.3,0,0.4,0
				c1.5,4.3,3.5-0.1,6,3.9c0,0.4-0.4,0.9,0.4,0.9c0.7,0.1,0.3-0.7,0.5-0.8c0.5-0.4,0.5-1.4,1.2-1.3c1.2,0-0.4,2.6,1.2,1.5
				c1.5,0.6-1.2,2.6,2.4,2.3c-1.9-1.1-0.2-3-0.1-4.5c0.9,0.6,1.9,0.8,2.9,0.3c0,1-0.9,1.1-1.7,1.7c1.1,0.5,2.7,1.6,2.9,1.3
				c1.4-1.4,2.3-0.2,3.2,0.5c1.5,1,3,0.5,2.4-1.5c0.8-0.5,1.2,2,1.9,0.6c0.7-1,1.5-1.9,2.4-2.4c0.5,0.1,0.2,0.5,0.2,0.7
				c-0.1,1.9,4.5,2.2,4.6,0.5c0.2-1.3,0.9-0.8,1.6-0.7c-0.1,0.7,0.8,0.8,0.8,1.4C79.2,81.1,78.5,81.7,79,82.9z M50.8,80.8
				c-0.1-0.8-1.5-0.9-1.7-0.2C48.9,81.2,50.7,81.5,50.8,80.8z M48.5,81.7c0-0.1,0-0.1,0.1-0.2h-0.1C48.5,81.5,48.5,81.6,48.5,81.7z"
				/>
			<path class="st5" d="M81,22c1.8,2,3.6,4,4.9,6.4c-1.5,0.3-2,3.4-3.8,2.4c-0.3-0.2-0.5,0.3-0.5,0.7c0,1.4,1.1,1.7,2.2,1.8
				c0.6,0.8-0.2,2.4,1.3,2.3c0.1,1.6,1.8,3.2,1.2,4.6c-0.6,0.8-0.1,1.3,0.3,1.8c0.5,1,2.3,1.4,2,2.6c-1.3,2.1-0.4,4.2-0.2,6.3
				c0.4,2,3-0.3,4.5,0.3c0,0.9,0,1.7,0,2.6c-0.7-0.6-1.1-3-2.1-0.5c-0.4,1.1-2.6,1.1-3.1,0c-0.8-2-1.1-4.6-0.8-6.5
				c0.9-0.3,0.3-0.7,0.2-1.2c-1.2-2.5-2.1-5-3.9-7.1c-0.6-0.9-0.9-1.2,0.1-1.8c-0.7-0.4-1.3-0.5-1.8-1s-0.4-1.5-1-1.8
				c-1.4-0.7-0.9-1.2,0.3-1.9c-1.2,0.3-1.9-0.8-2.9-0.7c-0.5-0.6-1.1,0-1.6,0.1c0.8,0.5-0.1,1.5,0.7,2c0.2-0.4,0.4-0.7,0.5-1.1
				c1.7-0.1,0.2,2.5,2.2,2.8c0.5,0.2,0.2,0.9-0.2,0.9c-1.8-0.2-0.6,0.9-0.7,1.4c-0.2,0-0.4,0-0.6,0c-0.5-1-0.2-2.2-1-3.2
				c-1.7-0.6-2-0.4-2.9,1.6c-3.1,0.3-2.3-1.5-0.4-2.8c0.2-0.3,0.4-0.6,0.1-0.6c-0.9-0.3-0.4-1.3-0.9-1.8c-0.3-1.6,0.3-1.9,1.9-2.7
				c-3.4,0.5-1.7-2.5-1.5-4.3c2.2,0.2,3,1.2,2.8-1.9C77.7,19.8,79.3,22.2,81,22z"/>
			<path class="st5" d="M49.4,84.7c1.2-0.8,1.5,0.4,2.1,1c0.5-0.6-0.6-1,0.1-1.6c0.5,0.6,1.2,1.1,1.5,1.8c-0.2,0.3-0.4,0.2-0.6,0.1
				c-1.1-0.3-1.4,1.2-0.2,1.1c1.6,0.4,2.9,1.9,4.8,1c0,0.5,0,1.1,0,1.6c-1.4,1.2-3-0.9-4.3,0.3c-1.2,1.1-2.4,2.4-4.3,2.3
				c-0.4,0-0.8,0.2-1,0.6c-7.9-0.6-15.4-3.4-21.5-8.3c1.7-0.6,3.4-1.6,5.2,0c1.1-0.2,0.1,2.1,1.5,1.4c0.4-0.5-0.3-0.8-0.3-1.2
				c0-0.5-0.7-1,0-1.5c0.1,0.7,0.3,1.4,1.3,1.3c0,1,0.3,2.2-1.4,2.5c1.4,1.6,2.8-1.9,3.9,0.7c0.2,0.6,1.1,0.1,1.5-0.2
				c1.1-1.1-2.9-0.9-0.6-4c0.5,0,1.2-0.2,1.4,0.4c0.6,1.4,2,1.4,3.1,1.8c2,0.4,0.6,1.2,0.6,2.6c-1-0.2-0.7,1-1,1.1
				c-1.3,0.7,0.1,0.9,0.2,1.1c0.9,0.9,1.3-0.9,1.8-1.2c1.1-0.8,0.1-0.8-0.4-1c0.7-2.6,1.7-0.2,3.2-0.1c1.1,0.4,1.8-0.9,2.7-0.3
				c0.2-0.9-0.8-1.1-0.8-1.8C48.5,85.8,48.9,85.3,49.4,84.7z M50.2,85.5c-0.6,0-0.2,0.6,0.1,0.7C50.7,86,50.4,85.7,50.2,85.5z
				 M39.3,87.2c-0.1,0-0.2-0.1-0.3-0.1c-0.1,0.2-0.2,0.4,0.1,0.4C39.2,87.4,39.3,87.3,39.3,87.2z M39.6,88.3c0-0.1,0-0.2-0.1-0.3
				c-0.1,0-0.2,0.1-0.3,0.1C39.2,88.3,39.4,88.6,39.6,88.3z"/>
			<path class="st4" d="M31.1,84.7c-1.7-1.6-3.5-0.5-5.2,0c-0.4-0.1-0.7-0.3-0.9-0.6c0.4-1.6-0.2-3.3,0.2-4.9c0.6-1.6-0.4-2.3-1-3.6
				c1.4,0.7,1.2-1,2.7-0.9c1.8,0.1,1.4-2.8,3.4-2.3c0.5-1.7-2.4-3.7-3.1-1.7c-0.4,1.6-1.2,1.4-2.3,0.7c0.3-0.4,1.2-0.4,0.9-1.2
				c-0.5-1.3-0.8-7.3,0.4-7.7c0.7-0.7,0.1-1.5,0-2.2c-0.1-0.8,0.9-1.4,0.4-2.5c-1.8,1.8-0.8-0.8-2-1.3c0.1-0.5-0.1-1.5,0.5-1.1
				s2-0.3,1.9,1c-0.2,1.9,1.8,0.2,2.1,1.4c-0.7,0-1,0.3-1,1c-0.2-0.1-0.6,0.1-0.7-0.1c0.2,0.4,0.4,1.1,0.8,0.1c0.7,0,1.2-0.1,1.3-1
				c0.5,0,0.9,0,1,0.7c-0.7,0.7-1.9,1.1-1.5,2.5c-0.2,0.7-2.5,0.9-1.9,2.1c0.2,0.7,0.3,1.8,1.5,1.7c-0.3,3.7,2.5-0.3,2.5,2.7
				c0.1,0.7,0,1.5-0.1,2.2c0,0.2-0.3,0.7,0.1,0.6c1.3-0.1,1,0.9,0.8,1.4c-0.7,1.5,0.1,3.2-0.7,4.8c-0.1,0.2,0.1,0.7,0.3,0.8
				c3,2.4-5.5,1.7-1.1,5.7C30.9,83.7,31.2,84.1,31.1,84.7z M29.9,75.2c-1-0.1-1.1,0.4-0.9,1.2C29.6,76,29.6,75.6,29.9,75.2z"/>
			<path class="st6" d="M21.9,43.4c-2.4-0.1-0.7-3-2.5-3.2c-0.4,0-1,0.2-0.8-0.6c0.1-0.4,0.1-1,0.8-1c1.6,0.2,0.6-1.6-0.5-0.8
				c-0.5,0.4-1.3,0.2-1.6,1.2c-1-3,0.7-5,0.9-8.1c0.5-0.2,0.6,1,1.2,0.5s-0.3-0.9-0.3-1.2c-0.1-2.4,2.1-1.9,1-4.3
				c-0.9-2.4,1.1-0.5,2-3.7c0.2-0.5,0.6-0.8,1-0.9c2.3-0.8,1.7-3.4,3.8-4.4c-0.3,1.9,2.1-0.1,1.9-1.1c0-0.1,0.1-0.2,0.2-0.2
				c1,0.2,2.1,0.7,2-1.1c1.1-1,2.4-1.5,3.9-1.8c0.3,1.7-0.8,2.8-1.6,4.2c-0.4-0.1-0.9-0.7-1,0c-0.3,0.9-0.5,0.8-0.9,0.2
				c-0.2-0.3-0.4-0.4-0.6-0.1c-0.8,0.8-2,0.7-2.9,1.3c-1.7,1.7-2.4,4.9-4.4,6.6c-1.2,0.9-1.6,1.9-1.1,3.5c-2.6,0.8-2,3.1-2.6,4.9
				c4.5,1.5,0.1,5,2.1,7.6C22.4,41.6,21.4,42.5,21.9,43.4z"/>
			<path class="st5" d="M57,88.3c0.2-0.7,1.2-0.9,1.1-2c-0.1-0.4,0.5-0.8,0.8-0.1c1.3,2.3,1.2-3.1,3.4-0.9c1.6,0.4,2-3.5,4.3-0.2
				c0.7,1.6,2.4-1.7,2.1,1.4c1.7-0.7,3.8,0.1,5.1-2c0.1,0.8-0.4,1.7,0.5,2.1c-4.9,2.8-10,5.1-15.7,5.9c0.9-1.1,0.7-1.6-1-2.6
				C57.4,89.3,58.7,88.2,57,88.3z"/>
			<path class="st4" d="M78.8,37.4c0.1-0.5-1.1-1.7,0.7-1.4c0.5,0.1,0.7-0.7,0.2-0.9c-2-0.3-0.5-2.9-2.2-2.8
				c0.1-0.3,0.2-0.6,0.3-0.9c1-0.1,1.6,1,2.9,0.7c-1.2,0.7-1.7,1.1-0.3,1.9c0.7,1.2,1.2,2.4,2.8,2.8c-1.9,1.4,2,3.4,2.1,5.3
				c0,1.2,3,4.3,1.5,4.8c-0.1,0-0.2,0.2-0.2,0.2c0.2,2.3,0.3,9.7,4.1,6.3c0.9-2.6,1.4-0.1,2.1,0.5c-0.4,1.9-0.4,4-1.2,5.8
				c-0.7-1-1.2-2.4-2.9-1.7c-0.7,0-1-1.4-1.9-1.1c-3.1,0.2-0.2-4.1-3.3-4.6c-1.5-1.8,2.8-1.2,1-2.9c-0.1-0.9,1.1-1.9-0.3-2.7
				c-0.1,0-0.1-0.5,0-0.6c1.1-1.5-1.1-3.1-0.9-4.8c0-0.5,0-1.3-0.9-1.5c-0.4-0.2-0.3-1-1-1c-0.2-1.1-0.6-1.7-1.6-0.6
				c-0.1,0-0.2,0-0.3,0C79.5,37.8,79.1,37.6,78.8,37.4z"/>
			<path class="st5" d="M25,71.6c1.1,0.7,1.9,0.9,2.3-0.7c0.7-2.1,3.5,0.1,3.1,1.7c-2-0.5-1.6,2.4-3.4,2.3c-1.6-0.1-1.2,1.6-2.7,0.9
				c0.6,1.4,1.7,1.8,1,3.6c-0.4,1.6,0.2,3.3-0.2,4.9c-0.6-0.5-1.3-1-1.9-1.6c0.3-1.2,0.7-2.4-0.2-3.5c-0.2-0.2-0.3-0.5,0-0.6
				c0.9-0.4,0.2-0.8,0.2-1.3c0-0.9-1.3-1.3-1.1-1.9c0.2-1.1-0.6-0.7-0.7-0.6c-1.5,1.4-1.5-1.4-2.6-1.7c-0.7-0.2-0.9-1.5-1.5-1
				c-0.7,0.6-0.4,1.7,0.1,2.5c0.6,1,1.4,2,1,3.3c-1.8-1.4-3.5-3.2-4.4-5.6c2.4-1.5-0.7-4.6-0.6-6.7c2.5-0.1,0.3,4.3,3.6,3.6
				c0.4-0.1,0.4,0.3,0.5,0.7c0.4,1.8,1.9,3,3.9,3.2c-0.9-1.9,0.4-1.8,1.8-1.1c-0.2,0-0.4,0-0.5,0.3c0.1,0.5,0.6,0,0.5-0.3
				C23.9,71.9,24.3,71.2,25,71.6z"/>
			<path class="st3" d="M81,22c-1.7,0.3-3.3-2.3-4.8-0.4c-1.1-0.2-1.4,1-2.3,1.3c-4-2.3-2.2,4.1-5.4,3.8c-5.7-6.3,2-2.7,0.3-7.4
				c-0.6-1.2-0.3-2.2,0.4-3.1c1-0.4,2.3,0.3,3.2-0.7C75.8,17,78.4,19.5,81,22z M71.2,20.8c0.2-0.6,0.2-1.4,0.6-1.6
				c0.8-0.5,0.3-0.7-0.1-0.9c-0.4-0.3-1-0.8-1.2,0c-0.1,0.6-0.7,0.7-0.9,1.2C70.1,20,70.9,20.1,71.2,20.8z"/>
			<path class="st1" d="M92.9,51.1c-1.3-0.6-4.1,1.6-4.5-0.3c-0.2-2.1-1.1-4.2,0.2-6.3c0.4-1-1.5-1.7-2-2.6c-0.4-0.5-0.9-1-0.3-1.8
				c0.6-1.3-1.2-3.2-1.2-4.6c3.2-0.2,2.9,2.7,5,4.2c0,1.2-2,2.1,0.3,2.6c0.4,0.1,0.3,0.3,0.3,0.6c-0.2,0.8,0.9,1.7-0.1,2.6
				c-0.1,0.1,0,0.5,0.3,0.5c1.1-0.4,0.9,1,1.6,1.1C93.2,48.3,92.9,49.7,92.9,51.1z M91.8,47.4c0-0.1,0-0.1,0.1-0.2h-0.1
				C91.7,47.3,91.7,47.3,91.8,47.4z"/>
			<path class="st4" d="M78.2,76.4c0.1-0.2,0.3-0.5,0.4-0.5c2.6-0.1,2.1-3.1,4.1-4.1c2-1.1-1.6-1.2-0.8-2.4c0.3-0.5,1.1-0.4,1.5-0.2
				c1.9,1.4,1.5-3.2,4.8-2.7c0.1,1-0.4,2,0.1,3c-0.1,0.1-0.1,0.3-0.2,0.4c-0.3-0.2-0.4-0.7-0.9-0.6c0,0-0.1,0-0.1-0.1
				c0,0,0.1,0,0.1,0.1c-0.1,0.8-1.2,0-1.1,1c0.1,0.6,1.1,0.2,1.5,0.7c-1.3,3.4-3.6,6.3-5.8,9.1c0.1-0.6,0-3.1-0.6-1.4
				c-0.2,0-0.4,0-0.6,0c0.2-0.5,0.5-1,0.7-1.5C79.5,76.6,81,79.5,78.2,76.4z"/>
			<path class="st7" d="M72.4,15.6c-0.9,1-2.2,0.3-3.2,0.7c-1-0.7-1.5,0-1.9,0.8C66.9,18.9,64,20,65,22c0.6,1-0.2,1-0.6,1.4
				c-1.7-0.3-0.4-3.1-1.1-4.7c-0.5,0.5-1,0.5-1.5,0.5c-0.3-1.2-0.9-2-2-2.6c0.3-0.9-1-0.9-1-1.6c1.2-0.6,2.5,0,3.8-0.3
				c1.6,1.8,1,0,2.1-0.5C67.9,14.1,69.7,13.2,72.4,15.6z"/>
			<path class="st7" d="M35,14.3c0-0.5,0-1.1,0-1.6c1-0.7,2-1.1,3.2-1.2c1.1,0.8,2.4,1,3.5,1.6c-0.5,0.4-0.9,0.8-1.7,0.6
				c-3-1-3.4,2.7-4.7,4.5c-2.3-0.2-7.3-0.5-6.9,3c0,0-0.2,0.1-0.2,0.2c-3.3,0.4-0.5,4.9-5.6,6.4c-0.8-1.4,0.4-2.1,1.1-2.9
				c2-1.8,2.7-4.8,4.4-6.6c0.9-0.6,2.1-0.5,2.9-1.3c0.2-0.2,0.4-0.2,0.6,0.1c0.4,0.7,0.6,0.7,0.9-0.2c0.2-0.6,0.7,0,1,0
				C35.4,18,36.4,15.5,35,14.3z"/>
			<path class="st6" d="M68.9,13.7c-1.4,0-2.6,0.9-4,0.5c-0.3-0.1-0.4,0.2-0.5,0.5c-0.5,1.5-1,0.6-1.6,0c0.5-0.5-0.9-1.4,0.3-1.7
				c1.7,0,0.8-1.8-0.4-1.2c-0.9,0.7-3.9,0.4-3.4,1.9c0.1,0.6,0.5,0.3,0.8,0.3c0.7,0,1.6-0.6,2,0.6c-1,0.5-2.2-0.4-3.2,0.3
				c-0.6,0-1.3,0.1-1.6-0.7c1.4-3.5-4.4-2.3-5.5-4.8C57.5,9,64,10.7,68.9,13.7z"/>
			<path class="st8" d="M92.6,47c-0.7-0.1-0.5-1.5-1.6-1.1c-0.2,0.1-0.4-0.3-0.3-0.5c1-0.9-0.1-1.7,0.1-2.6c0.1-0.3,0.1-0.6-0.3-0.6
				c-1.7-0.3-1.2-1.1-0.4-2c0.1-0.1,0.2-0.5,0.1-0.6c-2.2-1.5-1.8-4.4-5-4.2l0,0c0-0.7,0-1.4-1-1.3c-0.1-0.3-0.2-0.6-0.3-1
				c0.3-0.3,0.9,0.2,1.1-0.4c0.5-1.5,1.7-1.2,2.8-1.2C90.5,36.4,92.2,41.5,92.6,47z"/>
			<path class="st7" d="M51.9,9.5c0.5,1.1,2.4,1.6,3.5,2.1c2.3,0.7,2.4,0.5,2,2.7c-0.4,0-0.8,0-1-0.4c-0.3-1.1-1.1-1.4-2.1-1.6
				c-0.7,0-0.9-1.5-1.6-1.1c-0.9,0.7-2.2,0.8-2.8,1.9c-1.3,0.1-1.5,1.7-2.7,1.9c-0.3-0.6-0.8-1-0.7-1.7c0.6-0.3,1.1-0.6,1.8-1
				c-1-0.6-1.7,0.1-2.4,0.3c-0.6-0.6-1.6,0-2.3-0.7c0-0.8,1.9-0.7,1-1.9C46.9,9.5,49.4,9.5,51.9,9.5z"/>
			<path class="st1" d="M17.9,77.4c-1.1-1,0.4-1.5-0.1-2c-0.7-0.9-1.8-2.7-0.8-3.6c0.6-0.5,0.8,0.9,1.5,1c1.2,0.3,1,2.9,2.6,1.7
				c0.1-0.1,1-0.4,0.7,0.6c-0.1,0.6,1.1,1,1.1,1.9c0,0.4,0.7,0.9-0.2,1.3c-0.3,0.1-0.2,0.4,0,0.6c0.9,1.1,0.5,2.3,0.2,3.5
				C21.2,80.9,19.9,79.4,17.9,77.4z M22.3,77.7c0.1-0.2,0.1-0.2,0.1-0.3c-0.1,0-0.2,0.1-0.2,0.1C22.2,77.6,22.3,77.7,22.3,77.7z"/>
			<path class="st9" d="M83.6,52.1c3,0.5,0.2,4.8,3.3,4.6c1-0.3,1.2,1.3,1.9,1.1c1.7-0.8,2.2,0.7,2.9,1.7c0,0.4,0.1,0.9-0.3,1.3
				c-0.9,0.2-1.7,0.5-2-0.8c-1.7-1.6-4.2,0.4-5.5,1.7c-0.5,0.7-1.2-0.2-0.9-0.7c1-1.2,1-2.5,1.1-4C84.7,55.2,83,53.7,83.6,52.1z"/>
			<path class="st1" d="M57.7,89.8c1.7,0.9,1.9,1.4,1,2.6c-0.2,0-0.4,0.1-0.6,0.1C58,92.3,58,92.2,57.9,92c0,0.2,0,0.3-0.1,0.5v-0.1
				c-3.3,0.9-6.9,1.5-10.4,0.6c0.2-0.4,0.6-0.7,1-0.6c1.9,0.1,3-1.3,4.3-2.3c1.4-1.2,2.7,0.9,4.3-0.3C57.3,89.9,57.5,89.8,57.7,89.8
				z"/>
			<path class="st1" d="M87.8,31.6c-1.1,0-2.3-0.3-2.8,1.2c-0.2,0.5-0.8,0-1.1,0.4c-1.4,0.2-3.2-1.6-1.7-2.5
				c1.6,1.1,2.4-2.1,3.8-2.4C86.7,29.4,87.4,30.4,87.8,31.6z"/>
			<path class="st6" d="M44.5,10.1c0.9,1.3-0.9,1.1-1,1.9c-0.7,0.2-1.1,0.9-1.9,1c-1.2-0.6-2.5-0.8-3.5-1.6
				C40.2,10.6,42.3,10.1,44.5,10.1z"/>
			<path class="st8" d="M18.6,24c0.1,1.4-1.1,2.5-0.7,4c0.1,0.4-0.6,0.6-0.7,0.2c-0.2-2.4-0.5,0.6-2-0.3c0.5-1.4,1.8-2.4,2.4-3.7
				C17.9,24.1,18.2,23.9,18.6,24z"/>
			<path class="st5" d="M81.7,79c0,0.4,0,0.7,0,1.1c-0.8,1-1.7,2-2.8,2.8c-0.5-1.2,0.2-1.8,1.3-2.2c0-0.6-0.9-0.7-0.8-1.4
				C79.9,78.6,81,78.5,81.7,79z"/>
			<path class="st4" d="M88.1,66.5c0-2.2,0.5-2.6,2.2-1.9c-0.2,0.6-0.4,1.3-0.7,1.9C89.1,66.5,88.6,66.5,88.1,66.5L88.1,66.5z"/>
			<path class="st5" d="M88.1,66.5c0.5,0,1,0,1.5,0c-0.5,1-0.6,2.2-1.4,3.1C87.7,68.5,88.2,67.5,88.1,66.5z"/>
			<path class="st5" d="M87.5,71c-0.4-0.4-1.4-0.2-1.5-0.7c-0.1-0.6,0.5-0.5,0.9-0.6c0.1,0,0.1-0.3,0.2-0.4l0,0
				c0.5,0,0.6,0.4,0.9,0.6C87.9,70.4,87.9,70.8,87.5,71z"/>
			<path class="st3" d="M28.9,15.7c0,1.1-2.1,2.9-1.9,1.1C27.5,16.3,28.2,16,28.9,15.7z"/>
			<path class="st3" d="M31.1,14.5c0.1,1.8-1.1,1.3-2,1.1C29.7,15.1,30.3,14.6,31.1,14.5z"/>
			<path class="st5" d="M57.8,92.6c0-0.2,0-0.3,0.1-0.5c0.1,0.2,0.1,0.3,0.2,0.5L58,92.7L57.8,92.6z"/>
			<path class="st5" d="M57.4,92.7c0.1-0.1,0.3-0.2,0.4-0.2C57.7,92.7,57.6,92.7,57.4,92.7z"/>
			<path class="st1" d="M13.2,65.2c-0.1,2.3,3.1,5.2,0.6,6.7c-1.1-0.8-1.4-2.1-1.9-3.3c0.6-0.1,0.9,1,1.8,0.4
				c-1.4-0.8-0.8-2.3-1.7-3.3c0-1.1-0.5-2-1-2.9c1.2-5.4,1.2-11.3,1.7-16.7c3.1,1.2,2.3-2.3,4.3-1.6c0.9,1-0.8,0.3-0.7,1
				c0.9,0.9-0.4,2.4,1,3.1c0.2,0.1,0.2,0.7,0.1,0.9c-0.5,1.1,1.1,0.9,1,1.6c2.2-0.1,1.3-3.7,3.8-3.4c0.1,0.3,0.2,0.6,0.3,0.9
				c-1.1,1.6,1.1-0.4,0.7,1.6c0,0,0,0.1-0.1,0.1c0.7-0.4,0.8,0.9,1.1,1.2c-1.4,1,0.5,3.6-1.1,4.3c-3.2,1.8-14.2,2.4-9.8,8
				C13.2,64.6,13.2,64.9,13.2,65.2z"/>
			<path class="st8" d="M11.9,65.8c1,0.9,0.2,2.6,1.7,3.3c-0.8,0.6-1.1-0.5-1.8-0.4c-0.4-1.1-0.9-2.1-1.3-3.2
				C11,65.6,11.5,65.7,11.9,65.8z"/>
			<path class="st10" d="M66.4,49.2c0.9,0.4,1.3-0.8,2.2-0.5c0.3,0.1,1-0.8,0.8,0.4c-0.1,0.4,0.3,0.3,0.6,0.1c1.6-1.3,2.6-0.2,4.5,0
				c-2.5-1.4,0.3-2.1-0.7-4c-0.5-2.7,2.2-0.4,2.7-2.5c0.4-0.8,0.7-2.3,2.2-0.9c0.8,0.5,0.8-1.2,1.4-1.4c1.7,1.3-0.4,2.8,0.3,4.1
				c0.1,0.2-0.1,0.4-0.3,0.5c-1.2,0-1.8,1.2-2.8,1.6c-1.5,0.5,1.2,1.4,0.5,3c-0.2,2.3,1.8,0.2,2.2,0.9c0.1,1,1.9,1.1,1.2,2.3
				C79.5,56.3,81,60,80,63.6c0.9,3.2-0.6,6.9-3.6,8.3c-2,2.5-1.8-0.9-1.4-2.5c-1.9,1-2.8,2.4-2.8,4.4c-0.9,0.1-1.9,0.2-2.9,0.2
				c-1.6,1.3,0.1,4.4-3.9,3.1c-0.5-0.1-0.9,0.1-1.2,0.5c-2-0.1-2.8-1.3-2.3-3.1c0.1-0.5,1-1,0.4-1.7c1.2-0.3,1.1-0.2,0.6-1.1
				c-0.4-0.8-0.7-1.6-1.8-1.6c-0.4,0-0.3-0.6-0.4-0.9c-0.4-2,1.6-2.8,2-4.4c0.2-0.6,0.9-1.5,1.8-1.5c-0.2,2.3-0.2,2.3,1.1,3.2
				c-2.7,1.8-2.8,4.7-0.2,5.4c0.6-0.1,0.2-0.7,0.4-1c0.2-0.3,0.2-0.7,0.7-0.8c0,0.8,1.1,2.1,1.4,1.8c1.1-1.5,3.7-1.6,4.2-3.5
				c-0.9-1.5,0.7-3.2-0.4-4.7c-0.1-0.1,0-0.3,0-0.5c0-1.4,0.9-3.1-1.1-4c-1-0.5,1.5-1.7-0.1-1.8c-2.2,0.2,0.5-1.9-0.9-2.7
				c-0.8-0.4-0.6,0.6-0.9,1c-0.3,0.3-0.7,0.9-1.1,0.5c0.1-2.7,4.7-3.2,5.2-6.3c-1.6,0.4-3.3-0.2-4.6,1.4c-0.5,0.6-1.4,0.4-2-0.2
				c0.3-0.5,0.4-1,0.3-1.6C66.3,49.4,66.3,49.3,66.4,49.2z"/>
			<path class="st9" d="M63.8,77.7c0.1,0,0.2,0,0.3,0c0.6,1,2,1.1,2.7,2.1c0.3,0.6,0.6,0,0.7-0.4c0.2-0.4-0.4-0.8,0-1.3
				c1.7,2.2,2.7-0.7,2.8-2.5c0.5,0.5,0.7,2.5,1,2.4c3.9-0.4,2.4-2.4,5.9-2.9c0.4,0.3-1.2,2.3,0.9,1.2c2.8,3.2,1.1,0.2,3,0.8
				c-0.2,0.5-0.5,1-0.7,1.5c-0.5,0-0.6,0.4-1,0.6c-0.7-0.1-1.5-0.6-1.6,0.7c-0.2,1.8-4.6,1.3-4.6-0.5c0-0.3,0.3-0.6-0.2-0.7
				c-0.9,0.5-1.7,1.3-2.4,2.4c-0.6,1.2-1.1-0.4-1.6-0.7c-0.1,0-0.3,0.1-0.3,0.1c0.7,1.9-1,2.6-2.4,1.5c-0.9-0.6-1.8-1.9-3.2-0.5
				c-0.2,0.2-1.8-0.8-2.9-1.3c0.7-0.5,1.7-0.7,1.7-1.7C62.5,78.4,63.7,79.2,63.8,77.7z"/>
			<path class="st9" d="M82.7,39.6c0.9,0.1,0.9,0.9,0.9,1.5c-0.3,1.8,2,3.2,0.9,4.8c-0.1,0.1-0.1,0.5,0,0.6c1.4,0.8,0.1,1.8,0.3,2.7
				c-2.1-0.8-2-3-2.6-4.5c-0.2-0.8-1.4-1.8,0.5-2.2c0.6-0.1,0.1-0.5,0-0.8c-0.2-0.7-1.4-0.8-1.1-1.7l0,0
				C81.8,39.7,82.6,41.3,82.7,39.6z M83,45.4c0.2,0.1,0.4,0.2,0.4,0.2C84.3,45.1,83.5,44.5,83,45.4z"/>
			<path class="st9" d="M75,39.9c0.1,0.5-0.7,0.8-0.1,1.6c0.5,0.6-0.5,0.6-0.8,0.7c-2.4,0.6,0.5,3-2.9,2.2c-0.2-0.4-0.8-0.4-1-1
				c0.7,0.3,2.8-0.9,1.5-1.5c-1,0.9-1-0.8,0.1-0.8c0.1-0.1,0.2-0.2,0.3-0.3l0,0c0.8-0.1,1.4-1.1,2.3-1C74.5,39.9,74.8,39.9,75,39.9z
				"/>
			<path class="st4" d="M66.4,49.2c0,0.1,0,0.2,0,0.3c-0.4,0-0.9,0-1.3,0c0.4-1.7,1-3.2,2.6-4.2c0.6,0,2.3-0.3,1.8,0.8l0.1-0.1
				c0.2,0,0.4,0,0.6,0c0.2,0.2,0.3,0.4,0.5,0.6C69.3,47.5,66.4,46.9,66.4,49.2z"/>
			<path class="st5" d="M75,39.9c-0.2,0-0.4,0-0.7,0c-0.1-0.2-0.4-0.3-0.6-0.3c0-0.2,0-0.4,0-0.6c2.8-0.3,0.9-1.7,0.7-3.2l0,0
				c1.3,0.3,3.7,0.1,2.9,2.2c-0.2,0.1-0.6-0.1-0.3,0.3c0,0.2,0,0.4,0,0.6c-0.7,0-0.6,0.7-1,1C75.6,39.9,75.3,39.9,75,39.9z"/>
			<path class="st5" d="M69.5,46c0-0.3-0.1-0.5-0.3-0.7c0.1-0.9-0.4-2.7,1-2.6c-0.2,0.8,0.4,1.2,1,1.7c0.1,0.7,0.7,1,1.2,1.4
				c1,0.6-0.6,1.6-0.9,0.8C71.1,45.7,70.2,46.2,69.5,46L69.5,46z"/>
			<path class="st9" d="M75.9,39.9c1.1-2.2,2.5,0.6,2.3-2.6c0.2,0,0.4,0,0.6,0c0.3,0.2,0.6,0.4,1,0.6C78.8,39.2,78,41.7,75.9,39.9z"
				/>
			<path class="st9" d="M80.1,38c1-1,1.4-0.4,1.6,0.6C81.1,38.5,80.3,39,80.1,38z"/>
			<path class="st10" d="M81.6,50.7c0,0.1-0.1,0.2-0.1,0.2c-0.1,0-0.2-0.1-0.3-0.1c0-0.1,0.1-0.2,0.1-0.2
				C81.4,50.6,81.5,50.7,81.6,50.7z"/>
			<path class="st9" d="M81.4,39.9c-0.3,0.1-0.8-0.4-0.3-0.5C81.3,39.5,81.3,39.7,81.4,39.9L81.4,39.9z"/>
			<path class="st10" d="M72.1,73.8C72.1,73.8,72.2,73.8,72.1,73.8C72.2,73.9,72.1,73.9,72.1,73.8L72.1,73.8z"/>
			<path class="st7" d="M19.9,33.2c0.3-1.9,0.1-4,2.5-4.8c0.4,0.5,0.2,0.9-0.2,1.3c-0.9,1-0.7,2.9,0.2,2.8c0.8,0,1.6,0.7,2.4-0.2
				c0.3-0.3,0.8,0,0.9,0.5c0,0.5,0.4,1,0.4,1.5c0.3,1.8,2.9,2.4,2.3,4.6c0.8,1.6,1-2.5,3.4-1c0,0.7,0.1,1.5-0.3,2.1
				c-0.1,0.3,0.5,0.8-0.2,1.1c-1,0.3-0.9-1.4-2.1-1.1c-4.3,1-2.1-3.4-4.9-3.8c-1.6,0.5,0.8,2-0.5,2.7c-2.8,4,2,3.9,2.3,6.6h0.1
				c0.8-1.2,1.6-0.1,2.2,0.1c2.1,0.6,4.6,0.5,6,2.8c0.1,0.2,0.5,0.4,0.7,0.2c1.5-1.6,1.8,1.2,3.6,0.6c-0.2-1.2-1.5-2.6-1.1-3.7
				c0.3-0.2,0.7-0.4,0.9,0.2c0.2,0.4,0.8,0.6,0.8,0.4c0.3-1.1,1.7-0.9,1.9-1.8c-0.2-1-0.9,0.3-1.4,0.1c-0.4-0.6,0.2-1.1,0.2-1.7
				c3-1.1,3.2,3.8,5.4,2.9c0.3,1.9-2.6,1.1-3.6,0.6c0.3-0.7-0.7-1.2-0.8-0.3c0,0.9-0.7,1-1.4,1c0.1,0.4,0.6,0.1,0.6,0.5
				C40,47.5,39.3,47,39,47.5c1.9,1,1.4,2.9,1.8,4.6c-0.8-0.3-2.2,0.7-2-1.3c-2,1-1.9,0.7-3.3-0.8c-2,0.3-1.9-2.2-3.5-2.2
				c0-1.5-1.7-0.8-2.6-0.6l0,0c-0.4-0.2-0.3-0.9-0.8-0.8c-3,0.9-3-1.4-5-2c-0.4-0.7-1.1-0.9-1.9-1c-0.4-0.8,0.5-1.8,0-2.5
				C19.8,38.2,24.1,35,19.9,33.2L19.9,33.2z"/>
			<path class="st8" d="M22.1,47.9c-2.5-0.1-1.7,3.2-3.8,3.4c0.1-0.8-1.5-0.5-1-1.6c0.1-0.2,0-0.8-0.1-0.9c-1.4-0.7-0.1-2.3-1-3.1
				c-0.1-0.6,1.6-0.3,0.7-1c-1.8-0.7-1.5,2.9-4,1.6c1-0.6,2.2-1.2,1.2-2.8c-0.5-1,1.2-3.8,2.5-3.9c1.3,1.7,4.4,2,3.4,4.9
				c-0.5,1.5,1.1-0.3,1.6,0.5c0.4,0.4,0.2,0.7-0.1,1.2C20,48.3,23.2,46.2,22.1,47.9z"/>
			<path class="st1" d="M31.4,54.6c1.5,0.1,2.6,1.3,4.3,0.9c0.9-0.1,1.1-1.4,2.1-1c0.5,0.4,0.4,1.3,1.3,1.3c0.5,0,0.8,0.2,1,0.6
				c-1.4,0.3-1.7,0.9-1,2.2c0.2,0.5,0.3,1.2,1.2,0.6c0.3-0.2,0.9,0.1,1.4,0.1c0.5,0.7,1.4,1.3,0.3,2.2c-0.1,0-0.2,0-0.3,0
				c0-0.5,0-0.9-0.6-1c0-0.1-0.1-0.3-0.1-0.4l-0.1,0.1c0.1,0.1,0.1,0.2,0.2,0.3c-1,2.4-1.8-0.8-3.4-0.8c-0.6-0.1-0.3,0.7-0.6,1.1
				c-0.8,1.7-2.8-1.2-2-1.8c2.2-1.7,0.9-1.7-0.7-1.8c-1.3-0.6-2.7-1-4.1-1.3c-0.5-0.1-1.2,0.4-1.3-0.4c-0.3-0.8,0.9-0.9,1.3-0.7
				c-0.2,0-0.1-0.3-0.1-0.4C30.6,54.7,31,54.6,31.4,54.6z"/>
			<path class="st6" d="M32.1,47.9c1.6,0,1.5,2.5,3.5,2.2c1.4,1.5,1.4,1.8,3.3,0.8c-0.2,1.9,1.2,1,2,1.3c-0.3-1.7,0.2-3.6-1.8-4.6
				c0.3-0.5,0.9,0,1.4-0.3c0-0.4-0.5-0.1-0.6-0.5c0.7-0.1,1.4-0.1,1.4-1c0.1-0.8,1.1-0.5,0.8,0.3c-0.5,1-0.1,2,0.1,3
				c2.7,6-3.7,2.5-4.3,4.4c-0.4,0-0.7,0.1-1-0.3C35.2,51.4,30.5,51.4,32.1,47.9z"/>
			<path class="st8" d="M12.5,46.3C12,51.8,12.1,57.6,10.8,63c-0.4-0.2-0.6-0.4-0.5-0.9c0.4-2.1,0-4.2,0.2-6.3
				c-0.7-2.7-1.4-6.3,1.2-8.3c1-0.5-0.6-1.3,0.1-1.6C12.2,45.7,12.4,46,12.5,46.3z"/>
			<path class="st8" d="M31.4,54.6c-0.4,0-0.9,0-1.3,0c-2.1-0.9-5.1,0.5-5.5-2.9c-0.1-0.2-0.2-0.2-0.3,0c-0.1,0-0.2,0-0.3,0
				c-0.3-0.4-0.1-1.2-1-1.3l0,0c-0.1-0.4,0.4-1.3-0.8-0.9c0-2.3,3.4,0.6,3.8,1.7c0.6,1,1,1.4,2.3,0.9C30.2,51.6,31.9,53.2,31.4,54.6
				z"/>
			<path class="st8" d="M36.9,53.1c0.2,0.4,0.6,0.3,1,0.3c0,0.4,0,0.9,0,1.3c-1-0.4-1.2,0.9-2.1,1c-1.4,0.1-2.5-0.3-3.7-0.9
				c0.4-1.4,2-1,2.8-1.7c0.4-0.4,0.1,0.6,0.4,1C35.7,53.5,36.1,52.9,36.9,53.1z"/>
			<path class="st6" d="M23.8,44.4c0.4,0,0.9,0.2,1.1,0.5c1.5,3,3.7,0.4,4.7,2.3l0,0c-0.4,1.7-2.8,0.8-3.7-0.3
				C24.3,46.7,23.8,45.8,23.8,44.4z"/>
			<path class="st8" d="M16.7,31.6c-1.7-0.2,0,1.7-1.3,2.1c-0.9,0.4-1.1-0.7-1.7-1c-0.5-0.2,0.2-0.5,0.4-0.7
				C14.9,31.1,15.7,30.3,16.7,31.6L16.7,31.6z"/>
			<path class="st8" d="M13.5,36.1c0.2,1.2-0.3,1.9-1.3,2.4C11.5,37.1,12.2,36.4,13.5,36.1z"/>
			<path class="st6" d="M30.8,47c0.6-0.1,1.1,0,1.3,0.6C31.6,47.5,30.9,47.8,30.8,47z"/>
			<path class="st8" d="M16.7,31.6c0,0,0.1,0,0.1,0.1C16.8,31.6,16.8,31.6,16.7,31.6L16.7,31.6z"/>
			<path class="st9" d="M31.1,84.7c0-0.6-0.2-1-0.6-1.5c-4.4-4,4-3.3,1.1-5.7c-0.2-0.2-0.4-0.6-0.3-0.8c0.7-1.5,0-3.2,0.7-4.8
				c0.2-0.5,0.6-1.5-0.8-1.4c-0.4-0.5,0.2-2,0-2.8c-0.3-3.2-2.9,0.9-2.6-2.8c1-1.8,2.2-0.4,2.7,0.2c1.1,1.2,3.2,0.5,3.9,2.3
				c1.5-0.1,2.5,1.5,3.5,2.4c-1,1.3,0.2,2,0.8,2.8l0,0c-2.8,3,3.1,2.8,4.8,3.1c0.4,0.1,0.6-0.3,0.6-0.6c0.2,0,0.4,0,0.6,0
				c-0.2,1.3,0.7,1.3,1.6,1.3c-0.6,1.5-0.7,3.1,1.4,3.5c-1.5,0.8-1.2,2.4-1.9,3.4c-0.2,1.1,1.9,0.9,2.7,1c0,0.1,0,0.2,0,0.3
				c-0.4,0.5-0.9,1.1-1.3,1.6c-0.7-1.1-1.8-0.3-2.7-0.4c-0.7,0-2.8-0.7-2.6-1.4c0.7-2.6-3.3-1-4.2-2.6c-1.3-1.6,1.6-2.1,0.7-3.6
				c-0.6-0.9-1.1,0.6-1.6-0.1c-1.1-1.7,2.1-1-1.9-4.2c-0.6,1.4-0.1,3-1.2,4.2c-0.2,0.2,0.1,1.1,0.9,0.6c2.4-1.2,3.2,4,1.5,5.2
				c-1.3,0.4-1.8-1.6-2.9-1.3c-1.2,0.9-1.2-0.3-1.6-0.9c0,0.5,0,1,0,1.5c-0.6,0.4-0.2,0.9,0,1.3C32,84.7,31.7,84.8,31.1,84.7z"/>
			<path class="st2" d="M47.1,76.4c-0.9,0.1-1.8,0.1-1.6-1.3c0.1-0.1,0.2-0.2,0.3-0.3c0.2,0,0.4,0,0.6,0c1.4,1.2,3,0,4.6,0.3
				c0.3,0.1,1.5-1.2,1.5-2.3c0.1,0.1,0.2,0.2,0.3,0.3c0,0.6,0,1.3,0,1.9c-0.7-0.1-0.4,1,0.1,0.3c0.9,0.1,2-0.3,2.5,0.8
				c0.6-0.3-0.1-1.9,1.3-1.1c3.3,1.8,3.8-0.6,5.4-2.3c0.6,0.7-0.2,1.1-0.4,1.7c-0.4,1.7,0.1,2.7,2,3.1c0,1.5-1.2,0.8-1.9,1
				c-1,0.5-2,0.3-2.9-0.3c-0.1,0-0.2,0-0.3,0c-1-3.4-2.9,0.3-4.5-1.2c-1.9-1.7-4.7-0.7-6.9-0.8L47.1,76.4z"/>
			<path class="st9" d="M47.4,76.4c6.1-1.3,6.5,2.1,8.5,0.9c1.3-0.9,2.1-0.5,2.7,1.1c-0.8,0.6-1.4,1.4-1.9,2.3
				c-1.8,0.9,0.3-1.5-1.2-1.5c-0.7-0.1-0.7,0.9-1.2,1.3c-0.2,0.1,0.2,0.9-0.5,0.8c-0.8-0.1-0.4-0.6-0.4-0.9
				C51,76.5,49,80.6,47.4,76.4z"/>
			<path class="st5" d="M56.7,80.6c0.5-0.9,1.1-1.7,1.9-2.3c0.1,0,0.2,0,0.3,0c-0.1,1.5-1.8,3.4,0.1,4.5C55.5,83,58,81,56.7,80.6z"
				/>
			<path class="st5" d="M50.8,80.8c-0.2,0.6-1.7,0.6-1.7-0.1C49.1,80,50.7,80.2,50.8,80.8z"/>
			<path class="st5" d="M49.4,84.4c-0.2,0-0.4,0-0.6,0C49,84.1,49.3,83.7,49.4,84.4z"/>
			<path class="st5" d="M48.5,81.7c0-0.1,0-0.1-0.1-0.2C48.5,81.5,48.7,81.5,48.5,81.7z"/>
			<path class="st8" d="M73.7,39c0,0.2,0,0.4,0,0.6c-0.9-0.4-2-0.3-2.9-0.9c-0.4-0.2-0.6-1-1.3-0.3c0,0.3,0,0.6,0,1
				c-0.6,0.1-0.9,0.8-1.5,0.7c-0.1-0.6,0.1-1,0.5-1.5c2.4-2.1-0.7-4.6,2.4-7c0.7-0.7,1.2-1.2,0.3-2.3c-0.9-1.2-3-0.3-2.6-2.3
				c3.2,0.4,1.5-6.1,5.4-3.8c0,0.2,0,0.4,0,0.7c-2.3-0.6-3.5,2.4-0.9,1.6c-0.5,1.4-0.6,3.1,1.8,2.7c-1,0.7-2.1,0.8-1.9,1.8l-0.1,0.1
				c0,0.1,0.1,0.2,0.1,0.2c0,0.2,0,0.4,0,0.6c-0.9,0.5,0.4,1.5-0.4,1.9c-1.9,0.9-0.9,2.4-0.8,3.8C71.9,37.6,73.3,37.9,73.7,39z"/>
			<path class="st1" d="M73.7,39c-0.4-1.1-1.8-1.3-1.9-2.6c-0.1-1.4-1.1-2.8,0.8-3.8c0.8-0.4-0.4-1.4,0.4-1.9c0.6,0.4,0,1.5,1,1.8
				c0.3,0.1,0,0.5-0.2,0.6c-0.3,0.3-0.6,0.6-1,0.8c-1.3,0.8-0.6,2.3,0.8,2c0.1,0.3,0.4,0.3,0.6,0.3C74.8,37.6,76.2,38.6,73.7,39z"/>
			<path class="st4" d="M78.2,37.3c-0.1,0.8,0.4,2.1-1.3,1.6c0-0.2,0-0.4,0-0.6c1.6-2-1.2-2.4-2.6-2.5c0.9-2,1.2-2.2,2.9-1.6
				c-0.2,0-0.4,0-0.5,0.3c0.1,0.5,0.6,0,0.5-0.3C77.9,35.1,77.6,36.3,78.2,37.3z"/>
			<path class="st1" d="M74,23.6c0-0.2,0-0.4,0-0.7c0.8-0.3,1.2-1.4,2.3-1.3C76.3,24.2,76.3,24.2,74,23.6z"/>
			<path class="st1" d="M73,25.2c-2.3,1-1.6-2,0.3-1.6C73.3,24.1,73.2,24.7,73,25.2z"/>
			<path class="st1" d="M77.9,31.3c-0.2,0.7-0.6,1.3-0.8,2c-0.9-0.5,0-1.5-0.7-2C76.8,31.3,77.3,30.6,77.9,31.3z"/>
			<path class="st1" d="M84.3,34.1c1-0.1,1,0.6,1,1.3C84.2,35.5,84.2,34.8,84.3,34.1z"/>
			<path class="st4" d="M74.3,36.1c-0.3,0-0.5-0.1-0.6-0.3c0.2,0,0.4,0,0.6,0C74.3,35.9,74.3,36,74.3,36.1z"/>
			<path class="st1" d="M73,30c0-0.1-0.1-0.1-0.1-0.2l0.1-0.1C73.1,29.8,73.1,29.9,73,30z"/>
			<path class="st4" d="M37.2,83.8c1.2-1.3,0.5-6.1-1.8-4.9c-0.9,0.5-1.1-0.4-0.9-0.6c1-1.2,0.5-2.9,1.2-4.2c4,3.3,0.8,2.2,1.9,4.2
				c0.5,0.6,1.1-0.8,1.6,0.1c0.9,1.4-1.8,2.1-0.7,3.6c0.9,1.4,4.9,0.2,4.2,2.6c-0.2,0.7,1.9,1.3,2.6,1.4c0.9,0.1,2-0.8,2.7,0.4
				c0,0.7,0.9,0.9,0.8,1.8c-1-0.6-1.7,0.7-2.7,0.3c-1.4-0.1-2.5-2.4-3.2,0.1c-0.2,0-0.4,0-0.6,0c-0.1-1.4,1.5-2.2-0.6-2.6
				c-1.1-0.4-2.5-0.4-3.1-1.8C38.4,83.6,37.7,83.8,37.2,83.8z"/>
			<path class="st4" d="M32.4,83.5c0-0.5,0-1,0-1.5c0.4,0.6,0.4,1.8,1.6,0.9c1.1-0.5,1.3,1.7,2.9,1.3c-1.6,3,1.9,2.6,0.9,3.7
				c-0.4,0.3-1.3,0.8-1.5,0.2c-1-2.5-2.5,0.8-3.9-0.7c1.6-0.3,1.3-1.5,1.4-2.5c0.3-0.1,0.7,0.1,0.8-0.3c-0.4-0.7-0.9-0.4-0.8,0.3
				C32.7,84.8,32.5,84.2,32.4,83.5z"/>
			<path class="st1" d="M42.3,88.6c0.6,0,2.3,0.1,1,1c-0.6,0.5-1,2.2-1.8,1.2c-0.1-0.2-1.5-0.4-0.2-1.1
				C41.6,89.5,41.3,88.4,42.3,88.6z"/>
			<path class="st4" d="M31.8,85.1c0.2-0.1,0.4-0.2,0.7-0.3c-0.2,0.5,0.7,0.8,0.3,1.4C32,86.7,31.6,85.5,31.8,85.1z"/>
			<path class="st4" d="M57.7,89.8c-0.2,0-0.4,0-0.6,0c0-0.5,0-1.1,0-1.6C58.7,88.2,57.4,89.3,57.7,89.8z"/>
			<path class="st4" d="M50.2,85.5c0.2,0.2,0.5,0.5,0.1,0.7C50.1,86,49.5,85.5,50.2,85.5z"/>
			<path class="st4" d="M39.3,87.2c0,0.1-0.1,0.2-0.1,0.2c-0.3,0-0.1-0.2-0.1-0.4C39.1,87.1,39.2,87.2,39.3,87.2z"/>
			<path class="st4" d="M39.6,88.3c-0.2,0.1-0.4,0.2-0.4-0.2c0.1,0,0.2-0.1,0.3-0.1C39.6,88.1,39.6,88.3,39.6,88.3z"/>
			<path class="st5" d="M24.7,51.8c0.4,3.3,3.4,2.1,5.5,2.9c0,0.1,0,0.2,0,0.3c-0.5,0.1-1.4-0.2-1.2,0.9c0.2,0.8,1,0.1,1.6,0.4
				c1,0.2,2.1,0.6,3.1,0.9c1.4,0.9,4.2,0,1.4,2.2c-0.6,0.7,1.4,3.6,2.1,1.7c0.2-0.5,0-1.3,0.7-1c1.6-0.1,2.2,3.3,3.3,0.8l0,0
				c0.6,0,0.6,0.5,0.6,1c-0.7,0.2-1.3,1.2-2,0.7c-1-0.6-0.8,0.4-1.2,0.6c-5.2,0.5-3.1-2.9-5.9-3.8c-0.8,0.1-1.4-0.4-2.1-0.7
				c0-0.7-0.7-0.7-1.3-0.7c-0.1-0.7-0.5-0.4-0.9-0.4c-2.4,0.1,0.3-2.1-3.1-2c-1-0.3,0.1,2.4-1.4,1.9c-0.3-0.1-0.7-0.1-0.6,0.2
				c0.5,1.2-0.8,1.7-1.1,2.5c-2.3,0.4,0-2.1-2-1.4c-1.5,0.6-3,2.2-4.6,2.3c-2.3-0.2-1.5,2.1-2.3,3.3c-4.4-5.6,6.5-6.2,9.8-8
				c1.7-0.7-0.3-3.4,1.1-4.3c0.1,0,0.2,0,0.3,0C24.5,51.8,24.6,51.8,24.7,51.8z"/>
			<path class="st2" d="M30.5,58.5c0.7,0.2,1.2,0.7,2.1,0.7c2.8,0.9,0.8,4.3,5.9,3.8c0.6,1,2.3,1.2,1.9,2.9c-1.4,0.2-1.2-2.3-3-1.4
				c-0.3,0.1-0.8-0.1-1-0.3c-0.9-1.1-1.1-0.5-1.3,0.5c-0.2,1.1-0.7,2.1,1.2,1.5c0.5-0.1,1.2,0.4,1.7,0.3c3.3-0.9-1.5,4.5,6.8,8.8
				c-0.1,0.4-0.2,0.7-0.6,0.6c-1.8-0.3-7.6-0.2-4.8-3.1c0,0,0.1,0,0.1,0.1c0,0-0.1,0-0.1-0.1c-0.6-0.9-1.8-1.5-0.8-2.8
				c-1-0.9-1.9-2.5-3.5-2.4c-0.7-1.8-2.8-1.1-3.9-2.3c-0.6-0.6-1.7-2-2.7-0.2c-1.2,0.1-1.3-1-1.5-1.7c-0.6-1.2,1.7-1.4,1.9-2.1
				C28.6,59.6,29.8,59.2,30.5,58.5z M34,64.2C34,64.2,34.1,64.2,34,64.2c0.9-1.4-1.3-5.2-3.3-3.7C29.1,62.3,32.4,64.1,34,64.2z"/>
			<path class="st9" d="M22.1,60.1c0.3-0.9,1.6-1.3,1.1-2.5c0.4-0.5,1.5,0.2,1.5-1c1.2,0.4,0.2,3.2,2,1.3c0.5,1.1-0.5,1.7-0.4,2.5
				c-0.5,0.1-1.1,0.2-1.6,0.7c0.8,0.3,1.5,0.6,1.6,1.5c-1.2,0.3-0.9,6.4-0.4,7.7c0.3,0.8-0.6,0.9-0.9,1.2c-0.4-0.1-0.9-0.2-1.3-0.3
				c0.1-1.8-2.3-2.5-1.9-4.5c0-0.1-0.4-0.2-0.7-0.3l0,0C21.5,64.4,22.1,62.3,22.1,60.1z"/>
			<path class="st2" d="M26.3,62.6c-0.1-0.9-0.8-1.2-1.6-1.5c0.5-0.5,1.1-0.6,1.6-0.7C26.4,61.2,27.1,61.9,26.3,62.6z"/>
			<path class="st9" d="M29.2,57.8c0.1,0,0.2,0,0.3,0c-0.1,0.8-0.6,1-1.3,1l0,0C28.2,58.1,28.5,57.8,29.2,57.8z"/>
			<path class="st5" d="M29.9,75.2c-0.3,0.4-0.3,0.9-0.9,1.2C28.8,75.6,28.9,75.1,29.9,75.2z"/>
			<path class="st9" d="M28.2,58.8c-0.1,0.6-0.6,0.7-0.7,0l0,0C27.8,58.8,28,58.8,28.2,58.8z"/>
			<path class="st9" d="M27.6,58.8c0,0-0.1,0-0.1-0.1C27.5,58.8,27.5,58.8,27.6,58.8z"/>
			<path class="st11" d="M30.8,37.7c-1.3-0.5-1.8,2.8-2.4,1.3c0.5-2.6-2.8-3.4-2.7-6.1c0-0.6-0.6-0.8-0.9-0.5
				c-1.7,1.3-4.5-0.3-2.6-2.6c0.4-0.5,0.6-0.8,0.2-1.3c0-0.2,0-0.4,0-0.6c0.1,0,0.2,0,0.3,0c5.4-2.7,1.4-5.1,5.5-6.6
				c-0.5-3.5,4.6-3.2,6.9-3c-0.4,1.1-0.9,2.5-2.1,2.9c-1.1-1.6-1.8-0.1-2,0.6c-0.1,1.8-5.6,6.2-1.5,6.1c0.3,0.3,0.6,0.7,0.9,1
				c0,0.1,0,0.2,0,0.3c-1,0.4-1.7,1.1-2.3,2c-0.2,0.4-1.3,0.6-0.6,1.3c1.3,1.3,2.3-1.3,3.3-1.5c1.1,0.1,0.9-0.6,0.9-1.2
				C37.4,29.3,31.5,35.6,30.8,37.7z"/>
			<path class="st11" d="M35,14.3c1.6,1.1,0.2,3.7-1.6,2.6C33.9,16,34.4,15.2,35,14.3z"/>
			<path class="st7" d="M19.9,33.2c0,0,0,0.1-0.1,0.1C19.9,33.3,19.9,33.2,19.9,33.2L19.9,33.2z"/>
			<path class="st4" d="M22.1,60.1c0,2.2-0.6,4.3-1,6.4c-1.6-0.2-0.2,1.5-0.1,0c0.2,0.1,0.7,0.2,0.7,0.3c-0.8,1.8,3.5,4,1.3,4.8
				c-1.4-0.7-2.7-0.8-1.8,1.1c-2.9-0.2-3.2-2.2-4.4-3.9c-3.3,0.8-1.2-3.8-3.6-3.6c0-0.3,0-0.6,0-0.9c0.8-1.2,0-3.4,2.3-3.3
				c1.5-0.1,3.2-1.6,4.7-2.3C22.2,58,19.9,60.5,22.1,60.1z"/>
			<path class="st4" d="M23.1,71.6c0,0.2,0,0.4-0.3,0.5C22.3,72,22.8,71.5,23.1,71.6z"/>
			<path class="st6" d="M68.6,26.8c0,0.5,0.1,0.9,0.3,1.3c-3,0.7-1.4-3.7-3.6-3.2c-0.3-0.5-0.6-1.1-1-1.6c0.4-0.4,1.2-0.4,0.6-1.4
				c-1-2,1.9-3.1,2.3-4.9c0.4-0.8,0.9-1.5,1.9-0.8c-0.7,1-1,1.9-0.4,3.1C70.4,24,62.5,20.4,68.6,26.8z"/>
			<path class="st6" d="M71.2,20.8c-0.3-0.7-1.1-0.9-1.6-1.3c0.2-0.5,0.8-0.6,0.9-1.2c0.2-0.9,0.8-0.3,1.2,0
				c0.4,0.3,0.9,0.4,0.1,0.9C71.4,19.5,71.4,20.3,71.2,20.8z"/>
			<path class="st8" d="M91.8,47.4c0-0.1,0-0.1,0-0.2h0.1C91.8,47.3,91.8,47.3,91.8,47.4z"/>
			<path class="st9" d="M81.7,79c-0.2-0.1-0.4-0.2-0.6-0.3C81.3,77.8,81.9,78.3,81.7,79z"/>
			<path class="st5" d="M87.1,69.4C87.1,69.4,87,69.4,87.1,69.4C87,69.3,87.1,69.3,87.1,69.4L87.1,69.4z"/>
			<path class="st11" d="M64.4,23.3c1.2,1.5,1.8,3.9,0.6,5.6c-0.6,0.5-0.9-0.5-1.5-0.5c-0.3-1.5-2-2.2-1.7-3.8
				c2.1-1.2-0.7-3.8-2.4-3.8c-0.2-0.7-0.7-1.3-1.1-1.8c1.5-2.2,2.2,1.4,3.8,1.4c-0.1-0.5-0.2-0.8-0.2-1.2c0.5,0,1,0,1.5-0.5
				c0.1,1.3,0.6,2.3,0.2,3.4C63.3,22.5,63.7,23.2,64.4,23.3z"/>
			<path class="st11" d="M49.9,13.1c0.6-1.1,1.9-1.2,2.8-1.9c0.7-0.3,0.9,1,1.6,1.1c1.9-0.2,1.6,2.1,3.1,2c0.3,0.7,1,0.6,1.6,0.7
				c0,0.7,1.3,0.7,1,1.6c-1,0-1.6-1.2-2.7-1c-0.5-0.5-1.1-0.3-1.7-0.3c-0.7-0.6-1.7-0.7-2.4-1.3C52,13.5,50.7,14.8,49.9,13.1z"/>
			<path class="st6" d="M57.2,15.6c2.5,0.4,4.9,2.1,4.9,4.8c-1.7,0-2.3-3.7-3.8-1.4C56.6,18.2,57,16.8,57.2,15.6z"/>
			<path class="st3" d="M62.2,14.6c-0.4-1.2-1.3-0.5-2-0.6c-0.4,0-0.8,0.2-0.8-0.3c-0.5-1.5,2.5-1.2,3.4-1.9
				c1.2-0.6,2.1,1.2,0.4,1.2c-1.2,0.2,0.2,1.2-0.3,1.7C62.6,14.6,62.4,14.6,62.2,14.6z"/>
			<path class="st11" d="M41.7,13c0.8-0.1,1.2-0.8,1.9-1c0.6,0.7,1.6,0.1,2.3,0.7c-0.4,0.8,0.2,0.6,0.6,0.7c-0.1,0.9,1,1.4,0.6,2.3
				c-0.2,0-0.4,0-0.6,0.1c-0.5-0.2-1,0-1.4,0.4c-1-0.1-1.9-0.8-2.7,0.1c-0.1,0-0.2-0.1-0.3-0.1c-1.5-0.9-3.1-1.4-4.8-1.6
				C38.5,12.7,40.5,14.6,41.7,13z"/>
			<path class="st4" d="M37.2,14.5c1.7,0.2,3.3,0.7,4.8,1.6c-1.2,3-5.1-1-5.6,2.7c-0.3,0.8-0.9,0.5-1.5,0.3
				C35.7,17.6,36.1,15.7,37.2,14.5z"/>
			<path class="st4" d="M47.1,15.6c0-0.2,0.1-0.4,0.1-0.6c1.2-0.2,1.4-1.9,2.7-1.9c0.2,0.4,0.5,0.8,0.9,0.9c0.5,1.1,1.4,1.8,2.6,1.9
				c0,0.6,0,1.3,0,1.9c-3.8-0.4-2.8-3.5-6.4-1.7C47.1,16,47.1,15.8,47.1,15.6z"/>
			<path class="st6" d="M46.5,13.4c-0.4,0-1,0.1-0.6-0.7c0.7-0.2,1.4-0.9,2.4-0.3C47.6,12.8,47,13.1,46.5,13.4z"/>
			<path class="st5" d="M22.3,77.7c0-0.1-0.1-0.2-0.1-0.3c0,0,0.1-0.1,0.2-0.1c0,0,0.1,0.1,0,0.1C22.4,77.6,22.3,77.7,22.3,77.7z"/>
			<path class="st8" d="M23.1,50.5c0,0,0,0.1-0.1,0.1C23.1,50.6,23.1,50.5,23.1,50.5L23.1,50.5z"/>
			<path class="st0" d="M52.8,73.5c-0.1-0.1-0.2-0.2-0.3-0.3c0.2-1.8-0.3-1.8-2-1.8c-0.2,0.3,0,0.5,0.2,0.7c0.8,0.6,0.4,1.3,0.1,1.9
				c-0.4,0.8-1,0.1-1.6,0.2c-0.7,0.1-0.9-0.5-1.4-0.8c0.1,1.1-0.9,1.2-1.4,1.8c-0.2,0-0.4,0-0.6,0c-0.1-2.2-3.5-1.8-3.6-4.4
				c0-0.2-0.7,0-0.7-0.4c0.9-0.6,1.8-1.3,2.4-2.4c0.4-0.2,1.5,0.6,1.1-0.2c-0.6-1.3,0.5-1.1,0.9-1.8c0,0.9,0.1,1.5,0.7,1.8
				c0.2-0.3,0.4-0.5,0.5-0.8c0.8,0.3,1.3-0.7,2.2-0.6c-0.1-0.6,1.1-0.9,0.3-1.6c-1-0.1-0.8-1.2,0.2-0.8c0.7,0.2,0.7-0.5,1-0.8
				c1.7-1.6,2.7,2.3,4.3,3c0.6,0.4-0.7,1-0.3,1.7c0.2,0.6-0.8,0.8-0.7,0.1c-0.1-0.3,0.1-0.8-0.4-0.9c-1.4,1.4,1,2.6,0.4,4
				c1.1-1.3,2.5-2.5,2.2-4.5C56,66,56.2,65.1,56.5,65c2-0.3-0.1-3-1-1.1c-0.5-0.6,0.4-1.4-0.6-1.7c-0.3-0.1,0-0.4,0.2-0.6
				c0.9-0.6,1.1-1.7,1.8-2.5c0.6-0.7-0.7-0.6-0.5-1.2c0.5-1.5,2.9-2.2,3.9-1.1c0.5-0.5-0.4-1.5,0.9-1.9c1.6-0.7,4.1-1.8,4.5-3.6
				c0.2,0,0.4,0,0.6,0c0.6,0.6,1.5,0.8,2.1,0.2c1.3-1.6,3.1-1,4.7-1.4c-0.4,3.3-5.1,3.6-5.3,6.4c0.5,0.4,0.8-0.2,1.1-0.5
				c0.4-2,1.9-0.7,1.1,0.6c-0.6,1-0.3,1.2,0.7,1.1c1.7,0.1-0.9,1.3,0.1,1.8c2.1,0.9,1.1,2.7,1.1,4.1c0.7,1.7-0.3,3.6,0.4,5.3
				c-0.4,1.8-3.3,2-4.3,3.6c-0.3,0.3-1.4-1-1.4-1.8c-0.5,0-0.5,0.5-0.7,0.8s0.2,1-0.4,1c-2.6-0.7-2.4-3.9,0.2-5.5
				c-1.3-0.9-1.3-0.9-1.1-3.3c0,0-0.1-0.1-0.1,0c-0.9,0.1-1.5,0.9-1.7,1.5c-0.5,1.6-3.4,3.6-1.7,5.4c1.1,0,1.4,0.8,1.8,1.6
				c0.5,0.9,0.6,0.8-0.6,1.1c-0.4,0-0.6,0.2-0.6,0.6c-4.1,1.7-7.9-2.5-8-0.8C53.6,74,53.1,73.3,52.8,73.5z M65.7,69.6
				c-0.2-0.6,1.2-0.7,0.4-1.4c-0.2-0.2-0.7-0.3-0.9-0.1C64.7,68.7,65.7,69,65.7,69.6z M50.6,66.4c0-0.6-0.7-0.5-0.7,0
				C49.9,67,50.4,66.7,50.6,66.4z"/>
			<path class="st9" d="M66,51.1c-1,0.1-1.9-0.5-2.8-1c0.7,0,1.4-0.2,1.9-0.6c0.4,0,0.9,0,1.3,0C66.4,50.1,66.3,50.6,66,51.1z"/>
			<path class="st4" d="M83,45.4c0.3-0.3,0.6-0.9,0.8-0.3C83.7,45.4,83.3,45.7,83,45.4z"/>
			<path class="st4" d="M70.2,43.4c0.5-1.3-1.1-3.3,0.6-3.9c0.5,0.3,1,0.8,1.3,1.3l0,0c-0.1,0.1-0.2,0.2-0.3,0.3
				c-1.1,0-1.1,1.7-0.1,0.8C72.9,42.5,70.9,43.8,70.2,43.4z"/>
			<path class="st5" d="M72.1,40.9c-0.3-0.5-0.8-1-1.3-1.3c0-0.3,0-0.6,0-0.9c0.4,0.2,0.9,0.4,1.3,0.6c-0.2,0.8,0.5,0.9,0.9,1.3
				C72.7,40.6,72.4,40.8,72.1,40.9z"/>
			<path class="st1" d="M73.1,40.5c-0.4-0.3-1.2-0.4-0.9-1.3c0.5,0,1.1,0,1.6,0.3c0.3,0,0.5,0.1,0.6,0.3
				C73.7,39.8,73.4,40.2,73.1,40.5z"/>
			<path class="st5" d="M71.8,41.2c0.1-0.1,0.2-0.2,0.3-0.3C72,41,71.9,41.1,71.8,41.2z"/>
			<path class="st8" d="M69.2,43.5c0,0.6,0,1.3,0,1.9c-0.5,0-1.1,0-1.6,0c-0.8-1.9-1.7,1.3-3.6,0.1c1.3-1.6,2.1-3.5,3.8-4.8
				C68,41.6,68.4,42.6,69.2,43.5z"/>
			<path class="st1" d="M64.1,45.4c2,1.3,2.7-2,3.6-0.1c-1.6,0.9-2.2,2.5-2.6,4.2c-0.6,0.5-1.2,0.6-1.9,0.6c0-1.4,1.2-2.2,1.7-3.5
				c-0.5-0.1-0.9-0.3-1.3-0.4C63.4,45.8,63.7,45.5,64.1,45.4z"/>
			<path class="st5" d="M69.5,46L69.5,46C69.5,46.1,69.5,46,69.5,46L69.5,46z"/>
			<path class="st9" d="M77.2,38c-0.1,0.1-0.2,0.2-0.3,0.3C76.6,37.9,77.1,38.1,77.2,38z"/>
			<path class="st1" d="M69.2,43.5c-0.9-0.9-1.4-2.2-1.3-3.5c0.6,0.1,2.5-1.1,1.5-1.7c0.6-0.7,0.9,0.1,1.3,0.3c0,0.3,0,0.6,0,0.9
				c-1.7,0.5-0.1,2.1-0.6,3.2C69.7,42.8,69.2,42.8,69.2,43.5z"/>
			<path class="st3" d="M67.9,39.9c0,0.2,0,0.4,0,0.6c-1.6,1.4-2.6,3.2-3.8,4.8c-0.4,0.2-0.6,0.5-0.6,1C60,49,58.6,45,57,47.5
				c-2.4,4.3-7.1-1.5-9.8,0.6c-0.2,0.1-0.1,0.5-0.5,0.5c-2.7,0.4,1.4,3.2-3.2,2.8c0.7,0.3,1.3,0.3,1.3,0.9c-0.1,0.8-0.7,0.1-1,0.4
				c-0.7,0.7-2.4,1.2-2.1,1.9c0.7,2-0.9,1.4-1.6,1.9c-0.2-0.4-0.5-0.6-1-0.6c0.9-1.7-0.6-1.1-1.3-1.3l0,0c-0.6-3.1,2.5-1.3,4.2-2.2
				c2.2-1.7-1.2-4.2,0-6.5c1,0.5,3.9,1.3,3.6-0.6l0,0c0.5,0.1,0.7-0.7,1.2-0.6c0,2.4,2.3-0.4,3.8,0.4c1.5-2.9,2.4,2.2,4.5,0.7
				c-0.1,0.4-0.3,0.8-0.4,1.2c1.4,0,1.4-1,1.4-1.9c1.1-0.3,2.1,0.9,3.2,0c0.5-0.9,4-2.3,1.8-3.1c1.6,0,2.7-1,3.9-1.7
				c0.9-0.4,0.8-2,0.2-2.1c-0.9,0-0.1,0.8-0.4,1.1c-0.2,0.4-1.1,0.3-1-0.2c0.8-1.5-1-2.6-0.3-4.2c0.5-1.2,0.9-2,2.1-1.4
				c2.3,1.1,2.3-2.5,1.6-3.7c0-0.7,0-1.5,0-2.2c1.6,0.3,6.3,1.2,3.6,3.6c-3.1,2.4,0,4.9-2.4,7C68,38.9,67.9,39.4,67.9,39.9z"/>
			<path class="st11" d="M40.1,42.5c0,0.6-0.5,1.1-0.2,1.7c0.6,0.2,0.7-0.7,1.3-0.4c0.4,1.2-1.7,1.1-1.8,2.1
				c-0.1,0.2-0.7,0.1-0.8-0.4c-0.2-0.5-0.5-0.4-0.9-0.2c-0.4,1.1,0.7,2.4,1,3.7c-1.7,0.6-2.1-2.2-3.6-0.6c-0.2,0.2-0.6,0-0.7-0.2
				c-1.4-2.3-3.9-2.2-6-2.8c-0.6-0.2-1.4-1.3-2.2-0.1h-0.1c-0.4-2.8-5-2.4-2.3-6.6c1.3-0.7-1-2.2,0.5-2.7c2.9,0.4,0.4,4.8,4.9,3.8
				c1-0.1,1.2,1.2,2.1,1.1c0.8-0.3-0.2-1.1,0.5-1.6c0.3,1.7,2.4,1.3,2.9,2.8c-1.6,0.8,1.9,1.6,2.6,0.6c-0.6-0.3-1.3,0.1-1.7-0.5
				v-0.1C37.1,42.4,38.6,42.8,40.1,42.5z"/>
			<path class="st11" d="M45.5,45.4c-2.2,0.9-2.3-3.8-5.4-2.9l0,0c0.3-0.6,1.3-0.9,1-1.8c0.2-0.1,0.4-0.2,0.6-0.4
				c0.4,0.2,0.5-0.7,0.7-1c0.5,0,0.7-0.3,1-0.6c4.4-0.7,1.7,1.3,3.7,0.9c0.1,1.3,1.6,1.2,2,2.2C49.1,45.1,45.4,40.1,45.5,45.4
				L45.5,45.4z"/>
			<path class="st1" d="M30.8,37.7c1-2.1,2.4-3.4,3.2-5.8c0.9,0.6-0.2,2.1,0.8,2.4c1,0.1,0.8,0.9,0.9,1.5c-0.1,0.2-0.3,0.4-0.4,0.6
				c-0.8,0-0.4-1-1.1-1.2c-0.3,0.7-0.1,1.4-0.1,2.1c-0.7,0.1-1.4,0.2-1.3,1.3C32,38.5,31.7,37.7,30.8,37.7z"/>
			<path class="st8" d="M31.8,38c0.3,0.2,0.5,0.7,1,0.6c0.9,0.8,0.8,1-0.6,1.5C31.8,39.5,31.8,38.7,31.8,38z"/>
			<path class="st3" d="M29.5,47.3c-0.1-0.1-0.2-0.2-0.3-0.3C29.3,47.1,29.4,47.2,29.5,47.3z"/>
			<path class="st8" d="M40.1,56.6c0.7-0.4,2.3,0.1,1.6-1.9c-0.2-0.6,1.4-1.2,2.1-1.9c0.3-0.3,0.9,0.4,1-0.4
				c0.1-0.7-0.6-0.6-1.3-0.9c4.3,0.5,0.6-2.6,3.2-2.8c0.9-0.6,1.3-1.7,3-0.9c7.1,4.3,6.7-2.6,9.7-0.7c1.5,1,2.8-0.1,4.1-0.7
				c0.4,0.1,0.9,0.3,1.3,0.4c-0.5,1.1-1.5,2-1.7,3.2c-0.2,0-0.4,0-0.6,0c0.9-2.8-3,0.3-4.2-0.3c-0.5-0.2-0.6,0.5-0.6,0.9
				c-0.7,0-1.5-0.1-2,0.7c-1.7,0.7-2.6-2.5-4.2,0.8c-0.8,1.8-1.2,0.6-2.3,1.2c-0.6,1.3-1.7,0.9-2.6,0.9c-3.7,0-3.1-0.4-3.4,3
				c-1.8,0.1-0.7,1.7-1.5,2.5c-0.5-0.1-1.1-0.3-1.4-0.1c-0.9,0.6-1-0.1-1.2-0.6C38.4,57.4,38.7,56.9,40.1,56.6z"/>
			<path class="st4" d="M40.4,65.8c0.3-1.6-1.3-1.9-1.9-2.9c0.4-0.2,0.2-1.2,1.2-0.6c0.8,0.5,1.4-0.9,2.3-0.7c0.4,0.5,1,0.1,1-0.1
				c0.1-1,1.5-2,0.2-3.1c0-0.1,0-0.2,0-0.3c0.6,0,1.2-0.1,1.8,0.3c0.3-1.2,1.4-0.6,2.1-1c0.1,0.7,0.5,1.2,0.9,1.8
				c0.2,0.2,0.8,0,0.5,0.6c-0.2,0.4-0.1,0.8-0.8,0.7c-0.9-0.1-0.2,0.5-0.2,0.8s0,0.6,0,0.9c-0.5-0.4-0.9,0.1-1.3,0.3
				c0.6-2.3-0.5-1.3-1.2-2.6c0.5,2.2-3.4,2.1-2.6,4.1C43.2,66,41.5,65.6,40.4,65.8z"/>
			<path class="st5" d="M43.2,58.5c1.3,1.1-0.2,2-0.2,3.1c0,0.2-0.6,0.6-1,0.1c1.1-0.9,0.2-1.5-0.3-2.2c0.3-0.1,0.3-0.4,0.3-0.6
				C42.5,58.8,42.9,58.7,43.2,58.5z"/>
			<path class="st8" d="M37.8,54.6c0.7,0.2,2.1-0.4,1.3,1.3C38.2,56,38.3,55,37.8,54.6z"/>
			<path class="st5" d="M41,60.7c-0.1-0.1-0.2-0.2-0.2-0.3l0.1-0.1C41,60.4,41,60.6,41,60.7L41,60.7z"/>
			<path class="st5" d="M30.2,55c0,0,0.1,0,0.1,0.1C30.2,55,30.2,55,30.2,55L30.2,55z"/>
			<path class="st1" d="M24.7,51.8c-0.1,0-0.2,0-0.3,0C24.5,51.6,24.6,51.6,24.7,51.8z"/>
			<path class="st10" d="M40.4,65.8c0.2,0,0.4,0,0.6,0c-0.1,0.9,0.4,1.8-0.2,2.7c1.3,0.3,2.3-2.6,3.1-0.8c-0.5,1-1.4,1.6-2.3,2.3
				c0,0.5,0.7,0.2,0.7,0.4c0.1,2.5,3.5,2.1,3.5,4.3c-0.1,0.1-0.2,0.2-0.3,0.3c-0.2,0-0.4,0-0.6,0c-8.1-4.2-3.5-9.6-6.8-8.8
				c-0.5,0.2-1.2-0.4-1.7-0.3c-1.9,0.5-1.4-0.5-1.2-1.5c0.2-0.9,0.3-1.6,1.3-0.5c0.2,0.2,0.7,0.4,1,0.3C39.3,63.3,39.1,66,40.4,65.8
				z"/>
			<path class="st10" d="M52.9,73.2c0.3-0.2,0.8,0.5,0.9-0.5c0.1-1.7,3.6,2.4,7.8,0.8c-0.8,2.2-2.7,2.9-4.8,1.7
				c-1.5-0.8-0.7,0.8-1.3,1.1c-0.6-1.1-1.6-0.8-2.5-0.8C53,74.7,52.9,73.9,52.9,73.2z"/>
			<path class="st10" d="M46.5,74.8c0.4-0.6,1.5-0.7,1.4-1.8c0.6,0.3,0.8,0.9,1.4,0.8c0.5-0.1,1.2,0.6,1.6-0.2
				c0.3-0.6,0.6-1.3-0.1-1.9c-0.6-0.4-0.2-1,0.5-0.6c2.8-0.6,0.7,4.1-0.2,4C49.5,74.9,47.9,76,46.5,74.8z"/>
			<path class="st9" d="M52.9,75.1c0.1,0.3-0.3,0.8-0.5,0.4C52.3,75.2,52.6,75.2,52.9,75.1z"/>
			<path class="st5" d="M69.5,38.3c0.4,0.3,0.5,0.7,0,1C69.5,38.9,69.5,38.6,69.5,38.3z"/>
			<path class="st5" d="M77.2,34.2c0,0.2,0,0.4-0.3,0.5C76.4,34.6,76.9,34.1,77.2,34.2z"/>
			<path class="st5" d="M33.7,84.7c0.1-0.3-0.2-0.7,0.4-0.7C34.9,84.3,34.3,84.9,33.7,84.7L33.7,84.7z"/>
			<path class="st10" d="M34,64.2c-1.6-0.2-4.8-1.8-3.3-3.7c0.5-0.6,0.9-0.5,1.5-0.2C34,61.4,34.5,62.4,34,64.2L34,64.2z"/>
			<path class="st9" d="M39.4,72.6C39.4,72.6,39.5,72.6,39.4,72.6C39.5,72.6,39.5,72.6,39.4,72.6L39.4,72.6z"/>
			<path class="st10" d="M34,64.2C34,64.2,34.1,64.2,34,64.2C34.1,64.3,34,64.3,34,64.2L34,64.2z"/>
			<path class="st3" d="M35.7,35.8c-0.1-0.6,0.1-1.5-0.9-1.5c-1-0.2,0.1-1.9-0.8-2.4c0.2-0.5,0.4-1,0.1-1.6c0.8,0,0.9-0.6,0.9-1.2
				c0.4,0,0.8,0,1.3-0.1c0,0.2,0,0.4,0,0.7c-2.4,2.4,2.1,4.7,1.7,7.5c2.6,1.8-1.9-6.1,1-5.1c3.1,0,2.4,1.5,4.3,2.4
				c0,0.3,0,0.6,0,0.9c-0.5,0.3-4.9,0.6-3.2,1.3c0.2,0.6-0.2,1.7-0.1,1.7c1.1-0.4,1.5,0.9,2.3,0.9c-0.1,0.3-0.3,0.6-0.4,0.9
				c-0.3,0.1-0.6,0.2-0.9,0.5c-0.2-0.4-0.3-0.8-0.9-0.8C36.3,39.9,38.1,35.8,35.7,35.8z"/>
			<path class="st9" d="M47.1,15.6c0.3,1.1-0.9,1.1-1.3,1.7c-0.3,0.6-0.9,0.6-1.5,0.6c-2.4-1-7.8,1.2-9.2,3.5
				c1.2-0.3,2.1-1.2,3.4-1.3c-0.8,2-2.8,2.4-4.5,3.1c-0.5,0.2-1.5,1.4-2.4,0.3c0.1-0.3,0.2-0.7,0.4-1c0.2-1.6,2.6-1.6,2.9-3.4
				c0.6,0.2,1.2,0.6,1.5-0.3c0.5-3.7,4.4,0.2,5.6-2.7c1.2,1.2,1.5,1.2,2.6,0c0.1,0,0.3,0,0.4,0c0.8,1,1,0.1,1.4-0.4
				C46.7,15.7,46.9,15.7,47.1,15.6z"/>
			<path class="st6" d="M30.4,29.1c0-0.1,0-0.2,0-0.3c2.1,0.4,0.5-0.9,0.6-1.5c0.1-0.5-0.7-1.3,0.2-1.3c1.2-0.5,3.3-0.3,2.2,1.7
				c-1,0.4-0.3,1.3-0.5,2C32,29.6,31,30,30.4,29.1z"/>
			<path class="st8" d="M33.9,26.6c-0.5-1.5-1.7-0.6-2.5-0.6c-1,0-0.2,0.8-0.2,1.3c-0.1,0.5,1.5,1.8-0.6,1.5c-0.3-0.3-0.6-0.7-0.9-1
				c0.4-1-0.2-2.3,1.1-2.9c1.4,1.3,3-0.8,4.5,0.3c-0.2,0.4-0.7,0.7-0.6,1.2C34.4,26.4,34.2,26.5,33.9,26.6z"/>
			<path class="st8" d="M33,29.7c0.2-0.7-0.4-1.5,0.5-2c0.1,0.4,0.3,0.8,0.4,1.1c0.3,0.1,0.6,0.2,1,0.2c0,0.6-0.1,1.2-0.9,1.2
				C33.8,29.9,33.5,29.7,33,29.7z"/>
			<path class="st9" d="M21.2,66.5c0,0.5-0.7,0.9-0.7,0.3C20.6,66.4,20.9,66.5,21.2,66.5z"/>
			<path class="st7" d="M45.5,45.4c-0.3-1.2,0.4-3.1,2-2.6c1.2,0.8,1.5,0,1.6-1c0.9-0.1,2.3,0.7,2.2-1.2c0.3,0,0.6,0,1,0
				c2.6,1.1,3-3,4.6-3.9c0.2,0.4,0.6,0.5,0.9,0.6c1.2,2.3,3.1-2.3,2-3.4c-0.5-0.7-0.9,0.6-1.5,0.3c-0.1-0.3-0.2-0.7-0.7-0.6
				c0-1-0.2-2.2-1.2-2.7c-0.7-1.6,1.3-1.9,1.8-3c0.4,0,0.8-0.1,1.3-0.1c0.5,0.7-0.3,1-0.6,1.4c0,0-0.1,0-0.1-0.1c0,0,0.1,0,0.1,0.1
				c1.3,2,1.3,2,4,1.3c0.8-0.2,0.7-1.3,0.8-2c2.5,2,2.2-1.9,1.9-3.5c1.7-0.6,1,2.1,2,2.9c0,0.7,0,1.5,0,2.2
				c-0.7-0.1-1.4,0.6-2.2-0.2C65,29.5,64,29.4,64,30.6c-0.1,2.3-3.6,1.8-1,4.5c-3-1.6-1.4,3.7-4.6,3.7c-0.5,0-1.3-0.3-1.3,0.5
				c0.1,1.1,1.4,0.6,2.1,0.7c1.3,1.2,0.1,1.6-0.9,1.9c0.8,0.5,1.5,0.2,2.2,0.3c0.1,2.2-2.2,2.4-3.8,2.2c0-0.6-0.1-1.2-0.9-0.8
				c-0.6,0.3-1.6,0.2-1.6,1.2c0,0.4,0.3,0.5,0.6,0.2c0.5-0.5,1.2-0.6,1.9-0.6c0,0.3,0,0.6,0,1c-0.6,0-1.1,0.1-1.3,0.6
				c-2.1,1.5-3-3.5-4.5-0.7c-1.3-0.5-2.3,0.5-3.5,0.6c-0.5,0,0-0.8-0.3-1C46.2,44.7,46.1,45.4,45.5,45.4z M55.7,42.5
				c0.4-0.7,0.9-1.3,0.5-2.5c-0.3,1-1.4,1.2-1.4,2.2C52.9,43,54.9,43.7,55.7,42.5z M52.8,42.9c0-0.1-0.1-0.2-0.1-0.3
				c-0.1,0-0.2,0.1-0.3,0.1c0,0.1,0.1,0.2,0.1,0.3C52.6,43,52.7,42.9,52.8,42.9z M57.1,43c-0.2-0.2-0.3-0.1-0.4,0
				C56.9,43.1,56.9,43.1,57.1,43z"/>
			<path class="st6" d="M63.5,28.4c-0.1,0.7,0,1.8-0.8,2c-2.7,0.7-2.7,0.6-4-1.3l0,0c0.3-0.4,1-0.6,0.6-1.4c-0.5-0.6,0.2-1.3,0-1.9
				c0.9,0.1,1.7-1.2,2.7-0.2C62.1,26.7,63.4,27.2,63.5,28.4z M61.3,27c0.1,0.8-1,1.5,0,2.2c0.4,0.3,1-0.1,1.2-0.5
				C63.2,27.4,61.4,27.9,61.3,27z"/>
			<path class="st5" d="M57.2,15.6c-0.2,1.3-0.6,2.6,1.1,3.3c0.4,0.6,0.9,1.1,1.1,1.8c-0.5,0-0.9-0.2-1.4-0.3c0-0.6-0.5-0.7-1-0.7
				c-0.2-0.3-0.4-0.6-0.7-1c0.2-0.7-0.6-1.2-0.7-0.3c-0.1,0-0.2,0-0.3,0c0-0.6,0-1.3,0-1.9c0.9-0.2,0.7-1-0.1-1c0-0.1,0-0.2,0.1-0.3
				C56,15.3,56.7,15.1,57.2,15.6z"/>
			<path class="st3" d="M61.9,25.5c-1-1-1.8,0.4-2.7,0.2c-0.3-0.3-0.8-0.4-0.9-0.9c1.1,0.2,2.6-1.5,3.5,0.1
				C61.8,25.1,61.8,25.3,61.9,25.5z"/>
			<path class="st6" d="M60.9,21.1c0.8,0.6,1.5,1.3,1.6,2.4c-0.5,0-1.1,0-1.6-0.3C60.9,22.5,60.7,21.8,60.9,21.1z"/>
			<path class="st8" d="M60.9,21.1c0,0.5,0,1-0.1,1.5c-0.8-0.4-1.2-1.1-1.6-1.9C59.8,20.7,60.3,21,60.9,21.1z"/>
			<path class="st6" d="M61.5,23.6c0.3,0,0.6,0,1,0c0.3,0.7-0.4,0.8-0.7,1c-0.1,0-0.1,0-0.2,0c0,0-0.1-0.1-0.1,0
				C61.5,24.2,61.5,23.9,61.5,23.6z"/>
			<path class="st8" d="M61.6,24.6c0.1,0,0.1,0,0.2,0c0,0.1,0.1,0.2,0,0.3C61.7,24.7,61.6,24.7,61.6,24.6z"/>
			<path class="st6" d="M55.4,15.3c0,0.1,0,0.2-0.1,0.3c-1.7,0.6-3.8,0.4-4.5-1.5C52.5,13.5,53.9,14.3,55.4,15.3z"/>
			<path class="st6" d="M44.7,16.1c-0.7,0.7-1.5,1.6-2.3,0.1C43.1,15.4,43.9,15.7,44.7,16.1z"/>
			<path class="st6" d="M46.5,15.7c-0.4,0.5-0.7,1.3-1.4,0.4C45.5,15.7,46,15.5,46.5,15.7z"/>
			<path class="st10" d="M56.4,18.8c0.2,0.3,0.4,0.6,0.7,1c-0.7,0.5-0.4,1.3-0.7,1.9c-0.2,0-0.4,0-0.6,0l0,0
				c-0.8-0.6-0.9-1.9-2.2-1.9c-1.4-1.3-3.2-1.2-4.9-1.6l0,0c-0.4-1-1.9-0.8-2.9-0.9c0.2-0.6,1.1-0.4,1.3-1.1
				c1.2-0.2,2.1-1.4,3.1,0.1C51.6,17.9,54.5,18.2,56.4,18.8z"/>
			<path class="st2" d="M53.5,15.9c0.7,0,2.1-0.9,2.6,0.1c0,0.4-0.3,0.5-0.6,0.5c-1-0.5-0.8,1.3-1.9,0.9
				C53.5,17,53.5,16.4,53.5,15.9z"/>
			<path class="st9" d="M53.5,17.5c1,0.4,1-1.5,1.9-0.9c0,0.6,0,1.3,0,1.9c-0.6-0.2-1.4-0.2-1.9-0.7C53.5,17.7,53.5,17.6,53.5,17.5z
				"/>
			<path class="st10" d="M47.4,62.3c0-0.3,0-0.6,0-0.9c1.6,0.4,1.9-1.3,2.7-2c0.4-0.4,1.3-0.1,1.2-0.7c-0.1-0.5-0.5-0.9,0.2-1.1
				c1.1-0.7,1.4,1.6,2.1,0.9c1.2-1.5,2.3-4.5,4.3-4.5c1,1.1,1.7-0.1,2.6-0.3c1.2,0.3,0.8-1.2,1.6-1.4c1.1-0.2,2.1-1,3.2-1.1
				c-0.4,1.7-2.9,2.7-4.4,3.5c-1.3,0.4-0.4,1.4-0.9,1.9c-1-1-3.3-0.3-3.8,1.1c-0.2,0.6,1.1,0.5,0.5,1.2c-0.7,0.8-1,1.8-1.8,2.4
				c-0.2,0.1-0.6,0.5-0.2,0.6c1,0.3,0.2,1.1,0.6,1.7c0.9-1.8,2.9,0.6,1,1.1c-0.3,0.2-0.4,1-0.4,1.5c0.3,2-1,3.1-2.1,4.4
				c0.6-1.4-1.7-2.5-0.4-3.9c0.5,0.1,0.3,0.6,0.4,0.9c0,0.7,1,0.4,0.7-0.1c-0.4-0.7,0.9-1.3,0.3-1.7c-1.5-0.7-2.5-4.4-4.2-2.9
				c-0.3,0.3-0.4,1-1,0.8c-1-0.3-1.1,0.7-0.2,0.8c0.8,0.7-0.4,1-0.3,1.6C48.3,66,47.8,67,47,66.7c0.1-0.6-0.1-1.1-0.4-1.6
				C45.6,63.4,48.6,64.4,47.4,62.3z"/>
			<path class="st2" d="M47.4,62.3c0.2,0.7,0.7,1.5-0.6,1.8c-1,0.8,1.3,2.2-0.2,3.5c-0.6-0.4-0.7-0.9-0.7-1.8
				c-0.4,0.8-1.5,0.5-0.9,1.8c0.4,0.8-0.7,0-1.1,0.2c-0.7-1.8-1.8,1.1-3.1,0.8c0.6-0.9,0.1-1.8,0.2-2.7c1-0.1,2.1-0.1,1.4-1.7
				c-0.9-2,3.1-1.9,2.6-4.1c0,0.9,2,0.6,1.2,2c-0.3,0.1-0.9-0.2-0.8,0c0.3,0.9-0.5,1.6-0.7,2.7c0.9-0.7,1.4-1.2,1.5-2.1
				C46.6,62.5,46.9,61.9,47.4,62.3z"/>
			<path class="st10" d="M65.5,69.4c0-0.6-1.1-0.9-0.5-1.5c0.2-0.2,0.6-0.1,0.9,0.1C66.7,68.7,65.4,68.8,65.5,69.4z"/>
			<path class="st10" d="M50.8,66.3c-0.4,0.8-1.3-0.1-0.5-0.4C50.6,65.9,50.8,65.9,50.8,66.3z"/>
			<path class="st4" d="M65.1,51.1c-1,0.4-1.9,0.8-2.9,1.1c-0.8,0.2-0.4,1.7-1.6,1.4c-0.4-0.5,0.9-2.1-0.9-1.5c-0.8,0.3-1.3,0.2-2,0
				c0.2-0.4,0.4-0.9,0.6-1.3c1.3-0.7,3,0.4,4.1-0.9c0.2,0,0.4,0,0.6,0c0,0.1,0,0.2,0,0.3C63.8,50.5,64.4,50.8,65.1,51.1z"/>
			<path class="st6" d="M56.4,44.4c1.6,0.1,3.9,0.1,3.8-2.2c-0.6-0.2-1.4,0.1-2.2-0.3c1-0.4,2.2-0.7,0.9-1.9c1.3,0.4,1.9-0.1,2-1.4
				c-0.5,0.8-2.1-0.1-2,1.4c-0.7-0.1-2.1,0.4-2.1-0.7c0-0.8,0.8-0.5,1.3-0.5c3.4,0.1,1.5-5.2,4.6-3.7c-2.6-2.7,0.9-2.2,1-4.5
				c0-1.1,0.9-1.1,1.4-0.7c0.8,0.7,1.5,0.1,2.2,0.2c0.7,1.2,0.7,4.7-1.6,3.7c-1.1-0.6-1.5,0.3-2.1,1.4c-0.7,1.6,1,2.8,0.3,4.2
				c-0.1,0.5,0.8,0.6,1,0.2c0.3-0.3-0.5-1,0.4-1.1c0.6,0.1,0.7,1.7-0.2,2.1c-1.3,0.7-2.3,1.7-3.9,1.7c2.1,0.8-1.2,2.2-1.8,3.1
				c-1,1-1.9-0.2-2.9,0C56.4,45,56.4,44.7,56.4,44.4L56.4,44.4z M66.9,31c0,0,0-0.1-0.1-0.1L66.7,31c0,0,0,0.1,0.1,0.1
				C66.8,31,66.9,31,66.9,31z"/>
			<path class="st6" d="M55.1,46c0.2-0.4,0.5-0.7,1-0.6c0,0.9,0.1,1.8-1.4,1.9C54.9,46.8,55,46.4,55.1,46z"/>
			<path class="st3" d="M32.1,40.1c1.5-0.5,1.5-0.7,0.6-1.5c-0.1-1,0.6-1.2,1.3-1.3c0.9,0.7,0.3,2.9,1.8,2.6
				c0.2,0.4,0.5,0.8,0.7,1.2c-0.9-0.1-1,0.6-1,1.3c-0.3,0-0.6-0.1-0.9-0.1C34.3,40.9,32.5,41.5,32.1,40.1z"/>
			<path class="st7" d="M35.6,42.4c0-0.7,0.1-1.3,1-1.2c1.5,0,2.9-0.9,4.5-0.3c0.2,0.8-0.7,1-1,1.6C38.6,42.8,37.1,42.4,35.6,42.4z"
				/>
			<path class="st6" d="M41,40.9c-1.5-0.5-3,0.3-4.5,0.3c-0.2-0.4-0.5-0.8-0.7-1.2c1.4-1.7-1.5-2.7-0.2-4.1c2.3-0.1,0.6,4,4.4,4.1
				c0.7,0.1,0.7,0.5,0.9,0.8C41.1,40.7,41.1,40.8,41,40.9z"/>
			<path class="st3" d="M51.3,40.6c0.1,1.9-1.3,1.1-2.2,1.2c-0.4-1-1.9-0.9-2-2.2c6.6-1.6,1.6-3.6,4.6-3.5c1.8,0.1,0.7,2.4-0.6,2.5
				c-0.8,0.3-1.6,0.4-1.4,1.5C48.7,41.6,50.6,40.8,51.3,40.6z"/>
			<path class="st6" d="M42,35.8c0.6-0.3,1.3-0.6,1.9-0.1c-0.4,3.1,2.3-0.5,2.3,1.6c-0.9,0-1.7,0.6-2.7-0.1c-1.6-0.3-2.3,1.7,0,1.3
				c-1,1.7-2-0.7-3.3-0.3c-0.2,0.1,0.2-1.1,0.1-1.7C40.9,36.6,41.9,37.2,42,35.8z"/>
			<path class="st7" d="M43.3,38.6c-2.3,0.3-1.5-1.5,0-1.3c1.8,1.2,3.2-0.9,4.9-0.2c0.9,0.8-1.3,1.3-1,2.6c-0.1,0-0.2,0-0.3,0
				c-0.2-0.3-1.1,0.6-0.9-0.6c0-0.4-1.4-0.7-2.3-0.3c-0.1-0.2-0.2-0.1-0.3,0h-0.1L43.3,38.6z"/>
			<path class="st6" d="M43.6,38.6c0.1-0.2,0.2-0.2,0.3,0C43.8,38.6,43.7,38.6,43.6,38.6z"/>
			<path class="st6" d="M41.6,40.3c0.1,0,0.2-0.1,0.3-0.1C41.9,40.4,41.8,40.4,41.6,40.3z"/>
			<path class="st6" d="M35.2,36.4c0.1,1.4,1.7,2,0.6,3.5c-1.6,0.3-0.9-1.9-1.8-2.6c0-0.7-0.3-1.4,0.1-2.1
				C34.9,35.4,34.5,36.4,35.2,36.4z"/>
			<path class="st5" d="M58.3,50.8c-0.3,0.5-0.4,1.2-0.9,1.6c-1.5-0.7-4.6,0.4-5.3,1.6c0.7,1.1-0.2,1.1-0.8,1.3
				c-0.7-0.6-1.3-0.3-2.1-0.2c0,0.6,1,0.5,0.6,1.1c-0.1,0.2-0.1,0.5-0.4,0.3c-1.2-0.7-1.6,0.5-2.3,1c-0.7,0.4-1.8-0.3-2.1,1
				c-0.5-0.4-1.2-0.3-1.8-0.3c0.3-3.2-0.9-4.8,3.4-4.3c0.9,0,2.1,0.4,2.6-0.9c3.4,0.2,2-4.4,5.5-2c0.4,0.2,0.7,0.4,1,0
				c0.5-0.8,1.3-0.7,2-0.7C57.8,50.7,58.1,50.8,58.3,50.8z"/>
			<path class="st1" d="M58.3,50.8c-0.9,0.2-0.7-1.4,0-1.2c1.6,0.6,2.7-1.4,4.2-0.7C63.5,51.2,59.3,50.2,58.3,50.8z"/>
			<path class="st1" d="M43.2,56.9c0,0.5,0,1.1,0,1.6c-0.4,0.2-0.8,0.4-1.2,0.3C42,57.9,41.9,56.9,43.2,56.9z"/>
			<path class="st9" d="M47.1,57.5c0.7-0.5,1.1-1.7,2.3-1c0.3,0.2,0.3-0.2,0.4-0.3c0.4-0.7-0.7-0.5-0.6-1.1c0.7-0.1,1.4-0.4,2.1,0.2
				c0.1,0.3-0.1,1,0.6,0.6c0.9-0.5,3.4-0.4,2.1-2.1c1,0,1.4,0.8,2.1,1.1c-4.2,6.3-1.7,2.5-4.5,2.6c-0.7,0.2-0.3,0.6-0.2,1.1
				c0.1,0.6-0.8,0.3-1.2,0.7c-0.8,0.7-1.1,2.4-2.7,2c0-0.3-0.7-0.9,0.2-0.8c0.7,0.1,0.6-0.3,0.8-0.7c0.3-0.6-0.3-0.4-0.5-0.6
				C47.7,58.8,47.2,58.2,47.1,57.5z"/>
			<path class="st10" d="M46.2,62.6c0,0.9-0.6,1.4-1.5,2.1c0.2-1.1,1-1.8,0.7-2.7c-0.1-0.2,0.5,0,0.8,0
				C46.2,62.2,46.2,62.4,46.2,62.6z"/>
			<path class="st8" d="M43.2,34.5c-2.1-1-0.9-2.4-4.3-2.4c-2.6-0.1,0.6,4.3-0.4,5.4c-0.3,0.1-0.6-0.1-0.6-0.3
				c0.2-2.4-2-3.7-2.3-5.6c2,0.3,3.5-1.8,5.2-2.7c0.6-0.3,2.7,0.2,2.6,0.6c-0.2,0.8,0.4,1.7-0.5,2.5c-0.7,0.6,0.1,0.8,0.6,0.9
				c0,0.2,0,0.4,0,0.6C43.2,33.8,43.3,34.1,43.2,34.5L43.2,34.5z"/>
			<path class="st5" d="M37.2,31.3c-0.5,0.5-1,0.3-1.6,0.3c-0.1-0.7-0.1-1.4,0.6-1.9c0.7,0,0.5-0.7,0.9-1c0.4,0.1,0.9,0.2,1.3,0.3
				C38.7,30.3,36.3,30,37.2,31.3z"/>
			<path class="st1" d="M37.2,28.7c-0.4,0.2-0.3,1-0.9,1c0-0.2,0-0.4,0-0.7c0.4-0.9-0.9-1.5,0-2.3c0.3-0.2,0.8-0.5,1.2-0.4
				c0.1,0.1,0.2,0.2,0.4,0.4c-0.4,0.4-0.3,0.9-0.3,1.3C37.3,28.2,37.2,28.4,37.2,28.7z"/>
			<path class="st9" d="M35.9,27.2c-0.2,0.7,0.7,1.2,0.3,1.9c-0.7,0.1-1.5,0.1-2.3-0.1C34.6,28.3,35.3,27.7,35.9,27.2z"/>
			<path class="st7" d="M42,35.8c-0.1,1.5-1.1,0.9-1.9,0.9C38.7,35.9,41.5,35.9,42,35.8z"/>
			<path class="st8" d="M43.9,35.8c-0.2-0.1-0.4-0.2-0.6-0.3c0-0.3,0-0.6,0-0.9l0,0c0.4,0,0.8,0,1.2,0c0,0.3,0.1,0.6,0.1,0.8
				C44.4,35.7,44.2,35.7,43.9,35.8z"/>
			<path class="st5" d="M35.3,25.2c-1.5-1.1-3.2,1-4.5-0.3v-0.1c0.7,0,0.7-0.4,0.6-0.9c0.1-0.1,0.2-0.2,0.3-0.4
				c0.9,1,1.9-0.1,2.4-0.3c1.6-0.7,3.7-1.1,4.5-3.1c0.4-0.1,0.8-0.2,1.2-0.4c0.2,0.1,0.4,0.2,0.7,0.3c0.2,1-1,1.4-1,2.3
				c-0.9,0.5-1.5,1.4-2.6,1.6c-0.5,0.1-0.6,0.7-0.6,1.2C35.9,25.2,35.6,25.2,35.3,25.2z"/>
			<path class="st8" d="M45.8,17.3c0.4,0,0.8,0,1.2,0c0.2,0.3,0.7,0.1,1,0.3c0.1,0.3,0.3,0.6,0.7,0.6c0.3,1.3,2.3,1,2.4,2.5
				c-2.5,0-5.2-0.1-7.8,0.3c-0.1-1.4,1.8-1.6,1.6-3.1C45.3,17.8,45.6,17.7,45.8,17.3z"/>
			<path class="st1" d="M44.9,17.9c0.2,1.4-1.7,1.8-1.6,3.1c-0.9,0.1-1.6,0.6-2.3,1.2c-0.4,0.1-0.9,0-1.3,0.2c-0.1,0-0.2,0-0.3,0
				c0-0.9,1.2-1.3,1-2.3c0.2-0.2,0.3-0.4,0.3-0.7c0.9-1,2.8-0.3,3.6-1.5C44.5,17.9,44.7,17.9,44.9,17.9z"/>
			<path class="st10" d="M44.3,17.9c-0.9,1.4-2.6,0.5-3.6,1.5c-0.4,0-0.7,0-1,0.3c-1.6,0.3-3.1,1.1-4.6,1.7
				C36.3,19.2,42.1,16.7,44.3,17.9z"/>
			<path class="st5" d="M31.8,22.9c0.1-0.1,0.1-0.3,0.2-0.4C31.9,22.6,31.9,22.8,31.8,22.9z"/>
			<path class="st8" d="M31.4,23.9c0.1,0.5,0.1,0.9-0.6,0.9C30.7,24.3,31,24.1,31.4,23.9z"/>
			<path class="st0" d="M35.9,27.2c-0.6,0.6-1.3,1.1-1.9,1.7c-0.1-0.4-0.3-0.8-0.4-1.1c0.1-0.4,0.4-0.7,0.3-1.1
				c0.3-0.1,0.5-0.1,0.8-0.2c0.7-0.4,1,0.5,1.6,0.4C36.1,26.9,36,27,35.9,27.2z"/>
			<path class="st4" d="M36.2,26.8c-0.6,0.1-0.9-0.8-1.6-0.4c-0.1-0.5,0.4-0.8,0.6-1.2c0.3,0,0.6,0,0.9,0c0.2,0.4,0.5,0.8,0.7,1.2
				C36.7,26.5,36.5,26.7,36.2,26.8z"/>
			<path class="st8" d="M49.7,40.2c-0.2-1.1,0.6-1.3,1.4-1.5c1.3-0.1,2.3-2.4,0.6-2.5c0-0.3,0-0.8,0.2-0.9c1.2-0.5,1.4-1.8,2.2-2.6
				c0.9-0.8,0.8-1.4-0.6-1.5c0.7-1.4-0.8-1-0.4-1.9c0.8-0.7,1.5,2.1,2,0.5c2-1.6-0.7-4.9-3.2-3.8c-0.2-0.3-0.3-0.7-0.5-1.1
				c0.6,0,1.2,0.3,1.5-0.5c0.1,0,0.2,0,0.3-0.1c0.5,0.8,1.7-0.1,2.2,0.7c1.4,0.5,1.8,1.8,2.5,2.9c-0.4,1.2-2.5,1.3-1.8,3
				c0.2,1.5-1.5,2.1-1.3,3.6C54.1,37.1,52.8,39.6,49.7,40.2z"/>
			<path class="st6" d="M49.7,40.2c2.6-0.6,4.1-2.3,4.8-4.8c1-0.1,0.1-0.8,0.3-1.3c0.3-0.2,0.6-0.2,1,0c0,0.3,0,0.6,0,1
				c-0.1,0.1-0.2,0.3-0.3,0.4c0.3,1.4-1.3,2.1-1.4,3.4c-0.6,0.5-1.3,1.1-1.9,1.6C51.5,40.1,48.5,42.1,49.7,40.2z"/>
			<path class="st0" d="M58,27.8c-0.7-1.1-1.1-2.4-2.5-2.9c1.1-0.2,0.2-1.2,0.8-1.6c1.1,0.1,1.3,1.2,2.1,1.6
				c0.1,0.5,0.6,0.6,0.9,0.9c0.3,0.6-0.5,1.3,0,1.9C58.8,27.7,58.4,27.8,58,27.8z"/>
			<path class="st11" d="M58.1,34.2c0.6,0.3,0.9-1,1.5-0.3c1.2,1-0.8,5.7-2,3.4C57.8,36.3,57.9,35.2,58.1,34.2z"/>
			<path class="st6" d="M54.1,38.9c0.1-1.3,1.6-2,1.4-3.4c0.1-0.1,0.2-0.3,0.3-0.4c0-0.3,0-0.6,0-1c0.3-0.2,0.1-0.8,0.7-0.6
				c0.2,0.7-0.6,1.7,0.6,2.2c-0.1,0.3-0.2,0.6-0.3,1c-0.3,0.2-0.6,0.4-0.7,0.7C55,37.3,55.1,38.8,54.1,38.9z"/>
			<path class="st11" d="M54.1,38.9c0.9-0.2,0.8-1.6,1.9-1.5c-0.7,1.3-1.9,4.2-3.9,3.2C52.9,40,53.5,39.5,54.1,38.9z"/>
			<path class="st3" d="M56.4,33.5c-0.5-0.1-0.4,0.5-0.7,0.6c-0.3-0.2-0.6-0.2-1,0c0-1.3,1.6-1.9,1.3-3.3c0.8,0.4,1,1.2,1.2,2
				C56.9,32.8,56.7,33.3,56.4,33.5z"/>
			<path class="st3" d="M56.7,36.7c0.4-1,0.2-2.1,0.7-3.1c1.5,0.2,0.1,2.7,0.2,3.7C57.3,37.1,56.9,37.1,56.7,36.7z"/>
			<path class="st11" d="M56.4,44.4c-0.9-0.4-2.4,1.4-2.5,0.4c0-1,1.1-0.9,1.6-1.2C56.3,43.2,56.4,43.8,56.4,44.4L56.4,44.4z"/>
			<path class="st6" d="M57.4,33.6C57.1,34.3,57,35,57,35.7c-1.2-0.5-0.4-1.5-0.6-2.2c0.3-0.2,0.5-0.7,0.9-0.6
				C57.4,33.1,57.4,33.3,57.4,33.6z"/>
			<path class="st11" d="M54.8,42.2c0.3,0.1,0.6,0.2,0.9,0.3C54.9,43.8,52.9,42.9,54.8,42.2z"/>
			<path class="st11" d="M52.8,42.9c-0.2,0.1-0.4,0.2-0.4-0.2c0.1,0,0.2-0.1,0.3-0.1C52.7,42.7,52.7,42.8,52.8,42.9z"/>
			<path class="st11" d="M57.1,43c-0.2,0.1-0.3,0.1-0.5,0C56.9,42.9,57,42.7,57.1,43z"/>
			<path class="st6" d="M58.6,29c0,0-0.1,0-0.1-0.1C58.6,29,58.6,29,58.6,29L58.6,29z"/>
			<path class="st7" d="M61.3,27c0.1,0.9,1.9,0.4,1.3,1.6c-0.2,0.4-0.8,0.8-1.2,0.5C60.3,28.6,61.4,27.8,61.3,27z"/>
			<path class="st4" d="M59.2,20.7c0.4,0.8,0.8,1.5,1.6,1.9c0,0.2,0,0.4,0,0.6c-1.2,0.2-2-1.1-3.1-0.9C58.4,21,56.5,19.8,59.2,20.7z
				"/>
			<path class="st2" d="M58,20.4c-1.1,0.1,0.3,1.4-0.4,1.9c-0.5-0.1-1-0.2-1.3-0.7c0.3-0.6,0-1.4,0.7-1.9C57.6,19.7,58,19.8,58,20.4
				z"/>
			<path class="st9" d="M56.4,18.8c-0.3,0-0.5,0-0.6-0.3C55.9,17.6,56.6,18,56.4,18.8z"/>
			<path class="st8" d="M57.7,22.3c1.2-0.2,1.9,1.1,3.1,0.9c0.2,0.1,0.4,0.2,0.6,0.3c0,0.3,0,0.6,0,1c-1.2-0.8-2.1,0.5-3.2,0.3
				c-0.8-0.4-1-1.5-2.1-1.6c0-0.2-0.1-0.4-0.1-0.6C56.6,22.6,57.2,22.8,57.7,22.3L57.7,22.3z"/>
			<path class="st4" d="M48.8,20.7c0.8,0,1.6,0,2.3,0c-0.1-1.6-2.1-1.2-2.4-2.5c1.7,0.4,3.5,0.3,4.9,1.6c-0.4,0.5-0.4,0.5,0.6,1.5
				c-0.9,0.3-2-0.3-2.8,0.8c0.5,0.5,1.7,0,1.5,1.2c-1.4,0-2.5-1-3.8-1.3C49.1,21.5,49.3,21.1,48.8,20.7z"/>
			<path class="st2" d="M52.9,23.3c0.2-1.2-1-0.8-1.5-1.2c0.7-1.1,1.9-0.5,2.8-0.8c-1-1-1-1-0.6-1.5c1.3,0,1.4,1.3,2.2,1.9l0,0
				c-0.1,0.3-0.2,0.6-0.3,1c-0.8,0.1-2.1-0.4-1.6,1.3c-0.3,0.2-0.7,0.2-1,0.4C52.2,23.9,53.2,23.6,52.9,23.3z"/>
			<path class="st4" d="M55.4,22.6c0.1-0.3,0.2-0.6,0.3-1c0.2,0,0.4,0,0.6,0c0.3,0.4,0.8,0.6,1.3,0.7C57,22.9,56.2,22.5,55.4,22.6z"
				/>
			<path class="st4" d="M48.7,18.2c-0.4,0-0.6-0.2-0.7-0.6C48.4,17.6,48.6,17.8,48.7,18.2z"/>
			<path class="st4" d="M55.8,21.7c-0.1-0.1-0.2-0.2-0.3-0.3C55.6,21.4,55.7,21.6,55.8,21.7z"/>
			<path class="st4" d="M47.4,17.5c-0.1-0.1-0.2-0.2-0.4-0.2C47.2,17.4,47.3,17.4,47.4,17.5z"/>
			<path class="st4" d="M56.1,55c-0.7-0.3-1.1-1.2-2.1-1.1c1.4,1.9-1.2,1.5-2.1,2.1c-0.7,0.4-0.5-0.3-0.6-0.6
				c0.7-0.2,1.5-0.2,0.8-1.3c0.9-1.2,3.5-2.3,5.3-1.6c0.3,0.5,0.8,0.9,0.6,1.6C57.2,53.9,56.5,54.1,56.1,55z"/>
			<path class="st2" d="M58,54c0.2-0.7-0.3-1.1-0.6-1.6c0.1-0.1,0.2-0.2,0.3-0.3c0.7,0.3,1.2,0.3,2,0c1.7-0.6,0.4,1.1,0.9,1.5
				C59.7,53.8,59,55.1,58,54z"/>
			<path class="st7" d="M59,39.9c-0.1-1.5,1.6-0.6,2-1.4C60.9,39.8,60.3,40.3,59,39.9L59,39.9z"/>
			<path class="st7" d="M66.9,31l-0.1,0.1L66.7,31l0.1-0.1C66.8,30.9,66.9,30.9,66.9,31z"/>
			<path class="st6" d="M53.5,31.2c3.3,0.1-2,3.8-1.8,5c-3,0,1.9,1.7-4.3,3.5c0-0.9,0.6-1.4,1.1-1.9c0.5-0.4-0.2-0.4-0.1-0.7
				c0.1-1,1.1-1.8,0.9-2.9l0,0C51.1,33.3,51,30.8,53.5,31.2z"/>
			<path class="st3" d="M49.3,34.1c0.2,1.1-0.8,1.9-0.9,2.9c-0.8-0.5-1.5,0.1-2.2,0.3c0-2.1-2.5,1.5-2.3-1.6c0.3,0,0.5-0.1,0.7-0.4
				c0.1,0,0.2,0.1,0.3,0.1c1.2,1.1,2.3,0.8,2.9-0.7C48.5,35,48.7,34.2,49.3,34.1z"/>
			<path class="st1" d="M37.2,31.3c-1-1.4,1.6-1,1.2-2.3c0.7-0.1,1.2-0.5,1.3-1.3c0.1-0.3,0.4-0.3,0.7-0.3c1.7,0.4,2.3-1,3.2-1.9
				c1.5-0.1,3-0.2,4.5-0.3c0.2,1.1,1.9,0.1,1.9,1.2c-1.8,0-2.2,1.5-3.1,2.6c2.4,0.5,2.4,0.5,1.5,1.5c-0.6-0.1-1.3-0.3-1.9-0.3
				c-1-0.8-1.6,0-1.6,1c-0.9,0.2-0.9,1-1.3,1.6c-0.6-0.1-1.3-0.3-0.6-0.9c0.9-0.8,0.3-1.7,0.5-2.5c0.1-0.4-2-0.9-2.6-0.6
				C39.5,29.5,38.6,30.8,37.2,31.3z M46,28.3c1-1.2,1-1.2,0.3-2C46.3,27,45.7,27.5,46,28.3z"/>
			<path class="st4" d="M43.5,32.9c0.4-0.6,0.4-1.4,1.3-1.6c0.3,0.9-0.7,1.4-0.7,2.3c-0.2,0-0.4,0-0.6,0
				C43.6,33.3,43.6,33.1,43.5,32.9z"/>
			<path class="st1" d="M43.6,33.5c0.2,0,0.4,0,0.6,0c0,0.3,0,0.6,0,0.9c-0.3,0-0.6,0-0.9,0C43.3,34.1,43.2,33.8,43.6,33.5z"/>
			<path class="st9" d="M39.8,27.8c-0.2,1.4-1.6,1.4-2.6,1c0-0.3,0.1-0.5,0.3-0.6C38.3,28.4,39,27.4,39.8,27.8z"/>
			<path class="st0" d="M36.9,26.4c-2.1-2.3,1.3-2.7,2.5-4c0.1,0,0.2,0,0.3,0c0.2,0.2,0.3,0.2,0.4-0.1c0.3,0,0.6-0.1,0.9-0.1
				c0,0.7,0.5,0.7,1,0.8c-0.9,1.9-3.6,2.1-4.6,3.5C37.3,26.4,37.1,26.4,36.9,26.4z"/>
			<path class="st4" d="M37.5,26.4c1-1.2,3.1-1.4,4.2-2.9c0.1,0.7,0.4,1.2,1.3,1c-0.7,1.5-2.3,1.5-3.5,2.2
				C38.9,26.6,37.9,27,37.5,26.4z"/>
			<path class="st10" d="M37.8,26.8c0.9,0.1,2.2-0.3,2.6,0.7c-0.3,0-0.5,0.1-0.7,0.3c-0.8-0.4-1.4,0.7-2.3,0.3
				C37.6,27.6,37.4,27.1,37.8,26.8z"/>
			<path class="st2" d="M44.2,34.5c-0.3-1.3,1-2.2,0.7-3.5c1,0.4,3-0.2,3.1,1.1c-0.1,0.7,0,1.6-1,1.8c-0.4,0.1-0.9,0-0.9,0.6
				C45.5,34.5,44.8,34.5,44.2,34.5z"/>
			<path class="st4" d="M44.5,34.5c0.2,0,0.5,0,0.7,0c0.1,0.4,0,0.7-0.3,1c-0.1,0-0.2-0.1-0.3-0.1C44.5,35.1,44.5,34.8,44.5,34.5z"
				/>
			<path class="st9" d="M39.8,19.8c0.2-0.4,0.6-0.4,1-0.3c0,0.3-0.1,0.5-0.3,0.7C40.2,20,40,19.9,39.8,19.8z"/>
			<path class="st0" d="M48.8,20.7c0.5,0.3,0.3,0.8,0.3,1.3c-0.2-0.1-0.5-0.2-0.7-0.3c-1.2,0.6-2.5,0.2-3.8,0.3
				c-0.2-0.3-0.7-0.4-0.7-0.9C45.5,20.6,47.2,20.6,48.8,20.7z"/>
			<path class="st10" d="M43.9,21c0,0.5,0.5,0.6,0.7,0.9c-0.1,0.2-0.1,0.4-0.2,0.5c-0.5,0.1-0.7,0.1-1.2,0.1c-0.6-0.6-1-0.2-1.3,0.4
				c-0.5,0-1-0.1-1-0.8C41.6,21.3,42.8,20.7,43.9,21z"/>
			<path class="st5" d="M40.1,22.3c-0.1,0.2-0.2,0.2-0.4,0.1C39.8,22.3,39.9,22.3,40.1,22.3z"/>
			<path class="st5" d="M48.4,21.7c1.5,0.4,2.9,1.3,4.5,1.6c0.4,0.3-0.7,0.7,0,1c-0.2,0.8-0.9,0.4-1.5,0.5c0.2,0.4,0.4,0.8,0.5,1.1
				c0.9,0,0.2,1.3,0.9,1.3c1.2,0,0.8,0.7,0.7,1.3c-0.2,0.4-0.4,0-0.6,0c-0.2-0.4-0.5-0.6-1-0.6c0-0.6-0.5-0.6-1-0.6
				c0-0.6-0.5-0.6-1-0.6c-0.2-1.2-1.7,0-1.9-1.2c0.8-0.1,1.6-0.2,2.4-0.3c-0.3-0.6-1-0.8-1.1-1.4C49.8,22.5,48.5,22.4,48.4,21.7z"/>
			<path class="st4" d="M53.5,28.4c0.1-0.6,0.5-1.3-0.7-1.3c-0.7,0,0-1.2-0.9-1.3c2.6-1,5.2,2.1,3.2,3.8
				C54.8,28.9,54.6,28.1,53.5,28.4z"/>
			<path class="st1" d="M53.5,28.4c1.1-0.3,1.3,0.5,1.6,1.3c-0.6,1.6-1.1-1.1-2-0.5c-0.5,0.9,1.1,0.5,0.4,1.9c-0.3,0-0.6,0-0.9,0.1
				c-0.2-1.5-2.2-2.2,0.3-2.9C53.1,28.4,53.3,28.7,53.5,28.4z"/>
			<path class="st9" d="M55.4,22.6c0.2,0,0.5,0,0.7,0c0,0.2,0.1,0.4,0.1,0.6c-0.6,0.4,0.3,1.5-0.8,1.6c-0.2-0.4-0.6-0.3-0.9-0.4
				c-0.1-0.4-0.3-0.6-0.7-0.6C53.4,22.2,54.6,22.7,55.4,22.6z"/>
			<path class="st5" d="M53.8,23.9c0.4,0,0.6,0.2,0.7,0.6c-0.5,0-1,0.2-1.3-0.3C53.4,24.1,53.6,24,53.8,23.9z"/>
			<path class="st3" d="M54.8,34.5c-0.1,0.3,0.6,0.9-0.3,1C54.5,35.1,54.4,34.7,54.8,34.5z"/>
			<path class="st3" d="M55.8,35.1c-0.1,0.1-0.2,0.3-0.3,0.4C55.6,35.4,55.7,35.3,55.8,35.1z"/>
			<path class="st8" d="M52.9,28.4c-2.4,0.8-0.6,1.3-0.3,2.9c-0.6,0-1,0.3-1.3,0.7c-0.4,0-0.8-0.9-1.1,0c-0.3,0.8-0.9,1.4-0.9,2.3
				c-0.6,0.1-0.9,0.8-1.5,0.7c0-0.1,0-0.2,0-0.3c1.1-1.1,1.5-2.4,0.6-3.9c0.8-1,0.8-1-1.5-1.5c0.7-1.3,2.8-4,4.1-2
				C50.8,29.2,52.3,27,52.9,28.4z"/>
			<path class="st3" d="M49.3,34.1c0-0.9,0.6-1.5,0.9-2.3c0.3-0.9,0.7,0,1.1,0C50.5,32.6,50.5,33.9,49.3,34.1z"/>
			<path class="st4" d="M47.8,34.5c-0.2,1.6-1.7,2.1-2.9,1c0.3-0.3,0.3-0.6,0.3-1c0.3,0,0.7,0,1,0C46.7,35.1,47.2,34.2,47.8,34.5z"
				/>
			<path class="st2" d="M49.4,23.6c0.1,0.6,0.8,0.8,1.1,1.4c-2.4,0.3-4.5,0.4-6.9,0.6c-0.1-0.3-0.2-0.7-0.3-1
				c0.2-0.2,0.4-0.4,0.6-0.6c1.5-0.1,3,0.1,4.5-0.3C48.6,24.1,49,23.4,49.4,23.6z"/>
			<path class="st4" d="M47.8,34.5c-0.5-0.3-1.1,0.6-1.6-0.1c0.1-0.6,0.5-0.5,0.9-0.6c1-0.2,0.9-1.1,1-1.8c-0.1-1.3-2.3-0.7-3.1-1.1
				c0.2-1,0.7-1.3,1.6-0.7c0.1,0.2,0.2,0.2,0.3,0c0.5,0.1,1.1,0.2,1.6,0.3C49.3,32.1,48.9,33.4,47.8,34.5z"/>
			<path class="st9" d="M43.3,24.5c0.1,0.3,0.2,0.7,0.3,1c-0.9,0.9-1.5,2.3-3.2,1.9c-0.2-0.4-0.5-0.7-1-0.7c1.4-0.7,2.9-1,3.8-2.5
				C43.3,24.3,43.3,24.4,43.3,24.5z"/>
			<path class="st8" d="M46,28.3c-0.3-0.8,0.2-1.3,0.3-2C47.1,27.1,47.1,27.1,46,28.3z"/>
			<path class="st2" d="M46.8,30.3c-0.1,0.2-0.2,0.2-0.3,0C46.6,30.3,46.7,30.3,46.8,30.3z"/>
			<path class="st1" d="M43.3,24.2c-0.1,0.1-0.2,0.2-0.3,0.3c-0.8,0.2-1.1-0.3-1.3-1c0.1-0.2,0.3-0.4,0.4-0.6l0,0
				c0.5,0,0.9,0.1,1.3-0.4c0.2,0,0.4,0,0.7,0c0.1,0.3,0.2,0.6,0.3,0.9C44.2,23.7,43.7,24.2,43.3,24.2z"/>
			<path class="st8" d="M44.3,23.5c-0.1-0.3-0.2-0.6-0.3-0.9c1.5-0.2,3,0.2,4.4-0.9c0.1,0.7,1.4,0.9,1,1.9c-1.5,0.3-2.9,0.3-4.5,0.4
				C44.7,23.8,44.5,23.6,44.3,23.5z"/>
			<path class="st5" d="M47.8,22c-1,0.8-2.2,0.4-3.3,0.5c0.1-0.2,0.1-0.4,0.2-0.5C45.7,22,46.7,22,47.8,22z"/>
			<path class="st0" d="M43.3,22.6C42.9,23,42.5,23,42,23C42.3,22.4,42.7,22,43.3,22.6z"/>
			<path class="st1" d="M51.9,27.7c-0.9,0.7-0.9,0-1-0.6C51.4,27.1,51.9,27.1,51.9,27.7z"/>
			<path class="st9" d="M44.3,23.5c0.2,0.1,0.4,0.3,0.6,0.4c-0.3,0-0.7,0-1,0C44,23.8,44.1,23.6,44.3,23.5z"/>
			<path class="st4" d="M43.3,24.2c0.1,0,0.2,0,0.3,0c-0.1,0.1-0.2,0.2-0.3,0.3C43.3,24.4,43.3,24.3,43.3,24.2z"/>
			<path class="st5" d="M48.4,23.6c0.1,0,0.2,0,0.4,0C48.6,23.8,48.5,23.8,48.4,23.6z"/>
		</g>
	</g>
</g>
</svg>
