<svg version="1.1" id="prefix__Layer_1" xmlns="http://www.w3.org/2000/svg" x="0" y="0" viewBox="0 0 100 100" xml:space="preserve"><style>.prefix__st0{fill:#203153}.prefix__st1{fill:#61759f}.prefix__st2{fill:#334871}.prefix__st3{fill:#829ecd}.prefix__st4{fill:#485b81}.prefix__st5{fill:#546791}.prefix__st6{fill:#98b4e0}.prefix__st7{fill:#a7c2ef}.prefix__st8{fill:#6c88b2}.prefix__st9{fill:#3f5279}.prefix__st10{fill:#283c65}.prefix__st11{fill:#c1d9f7}</style><path class="prefix__st0" d="M93 51.4c-.9 54.3-84.1 54.3-85 0" id="prefix__Layer_2_1_"/><path class="prefix__st1" d="M8 51.4c.9-54.3 84.1-54.3 85 0" id="prefix__Layer_3"/><g id="prefix__svg2" xmlns:cc="http://web.resource.org/cc/" xmlns:dc="http://purl.org/dc/elements/1.1/" xmlns:inkscape="http://www.inkscape.org/namespaces/inkscape" xmlns:rdf="http://www.w3.org/1999/02/22-rdf-syntax-ns#" xmlns:sodipodi="http://sodipodi.sourceforge.net/DTD/sodipodi-0.dtd" xmlns:svg="http://www.w3.org/2000/svg"><g id="prefix__VzrErQ_1_"><path class="prefix__st2" d="M91.3 60.7c-.1 1.3-.6 2.6-1.1 3.8-1.7-.6-2.1-.2-2.2 1.9-3.2-.5-2.9 4-4.8 2.7-.4-.2-1.2-.3-1.5.2-.7 1.2 2.6 1.2.8 2.4-1.8 1-1.7 4-4.1 4.1-.1 0-.3.3-.4.5-2.1 1.1-.5-.9-.9-1.2-3.6.5-1.8 2.5-5.9 2.9-.4.1-.5-1.9-1-2.4-.1 1.7-1 4.7-2.8 2.5-.4.5.2.9 0 1.3-.1.3-.4.9-.7.4-.6-1.1-2-1.1-2.7-2.1.3-.6.7-.7 1.3-.5 4.3 1.4 2.1-2.5 3.9-3.1.9.1 2.1-.3 2.9-.1-.4-1.9.8-3.5 2.7-4.5-.4 1.6-.5 5.1 1.4 2.5 3-1.4 4.6-5.2 3.6-8.3 1-3.6-.5-7.3 1.2-10.8.6-1.2-1.2-1.3-1.2-2.3-.4-.7-2.4 1.4-2.2-.9.7-1.6-2-2.4-.5-3 1-.4 1.6-1.6 2.8-1.6.2 0 .4-.2.3-.5-.7-1.4 1.4-2.8-.3-4.1-.5.2-.7 2-1.4 1.4-1.4-1.4-1.7.1-2.2.9-.6 2.1-3-.2-2.7 2.5.8 2-1.6 2.4.7 4-1.9-.2-2.9-1.5-4.5 0-.2.2-.6.3-.6-.1.3-1.3-.5-.3-.8-.4-.9-.3-1.4 1-2.2.5.2-2.3 2.9-1.7 4.3-2.6-.2-.2-.3-.4-.5-.6 1.3-.4 1.2 1.3 2.2.7.8-.9-1.4-1.3-1.3-2.3 3.4.7.4-1.6 2.9-2.2.3-.1 1.3 0 .8-.7s.3-1 .1-1.6h1c2.1 1.8 2.8-.7 3.8-1.9h.3c.6 1.5 1.6-.4 2.6 1.6 0 1.8-.9.1-1.3.3 0-.2 0-.4-.3-.5-.5.1 0 .6.3.5-.2 1 1 1 1.1 1.7 1.1 1.6-2.2.1-.5 3 .1.3.5.5.4 1-.9 2.3 4.6 4.1 1.8 4.9-.9.3-1.1.7-.6 1.5-.6 1.6 1 3.1.5 4.9.2 1.4.2 2.8-.8 4-.3.5.4 1.4.9.7 1.3-1.3 3.8-3.3 5.5-1.7.3 1.3 1.1.9 1.9.7zm-9.7-10c-.2-.1-.4-.2-.4.1.1 0 .2.1.3.1 0 0 0-.1.1-.2z"/><path class="prefix__st3" d="M8.3 56.9c-1-10.1.8-21 6.8-29.1 1.3 1 1.9-2.2 2 .3 1.3 1.2 0-3.5.3-4.1 2.8-2.6 5.9-4.6 8.1-6.2-.7 1.3-.8 2.9-2.5 3.4-.4.1-.8.5-1 .9-.4.8-.8 1.9-1.4 2.1-1.4.3-.6 1-.6 1.6 1 2.2-1.1 2.1-1 4.3 0 .3.9.7.3 1.2s-.7-.7-1.2-.5c-.2 3.2-1.9 5.1-.9 8.1.3-1 1.1-.8 1.6-1.2 1.1-.9 2.1 1 .5.8-.7 0-.7.6-.8 1-.1.7.5.6.8.6 1.8.2.1 3.1 2.5 3.2 2.7-.1 1.4 3.4 3.9 3.6 1 1.1 3.1 2 3.7.3.4-.1.8-.2 1.3-.3.1.8.8.6 1.3.6-1.4 3.8 2.8 3.6 4.8 5.4-.8-.2-1.1.4-1.6.9-.3-.3.1-1.3-.4-1-.9.8-2.4.3-2.8 1.7h-.6c.4-1.5-1.2-3-3-2.4-1.3.5-1.7.1-2.3-.9-.9-1.2-1.9-2.9-3.7-2.4l-.3-.9c0-.3.5-.9-.1-.8-1.5.3-.8-.4-.5-1 .6-.7 0-1.9-.9-1.2-1.6.9.7-2.2-1.5-3.5-.8-.7-1.9-.9-2.5-1.9-1.2 0-3 2.9-2.5 3.9 1 1.6-.1 2.1-1.2 2.8h-.3c-.2-.3-.3-.7-.7-.5-.5.4.8 1.1-.1 1.6-2.6 2.2-1.9 5.6-1.2 8.3-.2 2.1.2 4.2-.2 6.3.4 1.3 1.5 2.2 1.5 3.8-.4-.1-.9-.2-1.3-.3-1.1-2.7-1.9-5.5-2.3-8.5zm8.4-25.3s.1 0 .1.1c0-.1-.1-.1-.1-.1-1-1.3-1.8-.5-2.5.3-.2.3-.9.5-.4.7.6.3.7 1.3 1.7 1 1.3-.4-.6-2.2 1.2-2zm-3.2 4.5c-1.3.4-1.9 1-1.3 2.4.9-.5 1.4-1.2 1.3-2.4z"/><path class="prefix__st4" d="M79 82.9c-1.4 1.4-2.9 2.7-4.7 3.7-1-.4-.5-1.2-.5-2.1-1.2 2-3.4 1.3-5.1 2 .4-3-1.2 0-2.1-1.4-2.3-3.4-2.8.8-4.3.2-2.2-2.2-2.3 3.3-3.4.9-.3-.7-.9-.2-.8.1.2 1-.9 1.2-1.1 2-1.8.9-3.2-.6-4.8-1-1.2-.1-.8-1.4.2-1.1.2 0 .4.1.6-.1-.3-.7-1-1.2-1.5-1.8-.7.5.3 1-.1 1.6-.6-.7-.9-1.8-2.1-1 .1-.7-.2-1-.7-.3-.6-.3-2.5 0-2.1-1 .7-1.1.4-2.7 1.9-3.4-2.2-.4-2-2-1.4-3.5h.4c1.5 4.3 3.5-.1 6 3.9 0 .4-.4.9.4.9.7.1.3-.7.5-.8.5-.4.5-1.4 1.2-1.3 1.2 0-.4 2.6 1.2 1.5 1.5.6-1.2 2.6 2.4 2.3-1.9-1.1-.2-3-.1-4.5.9.6 1.9.8 2.9.3 0 1-.9 1.1-1.7 1.7 1.1.5 2.7 1.6 2.9 1.3 1.4-1.4 2.3-.2 3.2.5 1.5 1 3 .5 2.4-1.5.8-.5 1.2 2 1.9.6.7-1 1.5-1.9 2.4-2.4.5.1.2.5.2.7-.1 1.9 4.5 2.2 4.6.5.2-1.3.9-.8 1.6-.7-.1.7.8.8.8 1.4-1 0-1.7.6-1.2 1.8zm-28.2-2.1c-.1-.8-1.5-.9-1.7-.2-.2.6 1.6.9 1.7.2zm-2.3.9c0-.1 0-.1.1-.2h-.1v.2z"/><path class="prefix__st5" d="M81 22c1.8 2 3.6 4 4.9 6.4-1.5.3-2 3.4-3.8 2.4-.3-.2-.5.3-.5.7 0 1.4 1.1 1.7 2.2 1.8.6.8-.2 2.4 1.3 2.3.1 1.6 1.8 3.2 1.2 4.6-.6.8-.1 1.3.3 1.8.5 1 2.3 1.4 2 2.6-1.3 2.1-.4 4.2-.2 6.3.4 2 3-.3 4.5.3v2.6c-.7-.6-1.1-3-2.1-.5-.4 1.1-2.6 1.1-3.1 0-.8-2-1.1-4.6-.8-6.5.9-.3.3-.7.2-1.2-1.2-2.5-2.1-5-3.9-7.1-.6-.9-.9-1.2.1-1.8-.7-.4-1.3-.5-1.8-1s-.4-1.5-1-1.8c-1.4-.7-.9-1.2.3-1.9-1.2.3-1.9-.8-2.9-.7-.5-.6-1.1 0-1.6.1.8.5-.1 1.5.7 2 .2-.4.4-.7.5-1.1 1.7-.1.2 2.5 2.2 2.8.5.2.2.9-.2.9-1.8-.2-.6.9-.7 1.4h-.6c-.5-1-.2-2.2-1-3.2-1.7-.6-2-.4-2.9 1.6-3.1.3-2.3-1.5-.4-2.8.2-.3.4-.6.1-.6-.9-.3-.4-1.3-.9-1.8-.3-1.6.3-1.9 1.9-2.7-3.4.5-1.7-2.5-1.5-4.3 2.2.2 3 1.2 2.8-1.9 1.4-1.9 3 .5 4.7.3zM49.4 84.7c1.2-.8 1.5.4 2.1 1 .5-.6-.6-1 .1-1.6.5.6 1.2 1.1 1.5 1.8-.2.3-.4.2-.6.1-1.1-.3-1.4 1.2-.2 1.1 1.6.4 2.9 1.9 4.8 1v1.6c-1.4 1.2-3-.9-4.3.3-1.2 1.1-2.4 2.4-4.3 2.3-.4 0-.8.2-1 .6-7.9-.6-15.4-3.4-21.5-8.3 1.7-.6 3.4-1.6 5.2 0 1.1-.2.1 2.1 1.5 1.4.4-.5-.3-.8-.3-1.2 0-.5-.7-1 0-1.5.1.7.3 1.4 1.3 1.3 0 1 .3 2.2-1.4 2.5 1.4 1.6 2.8-1.9 3.9.7.2.6 1.1.1 1.5-.2 1.1-1.1-2.9-.9-.6-4 .5 0 1.2-.2 1.4.4.6 1.4 2 1.4 3.1 1.8 2 .4.6 1.2.6 2.6-1-.2-.7 1-1 1.1-1.3.7.1.9.2 1.1.9.9 1.3-.9 1.8-1.2 1.1-.8.1-.8-.4-1 .7-2.6 1.7-.2 3.2-.1 1.1.4 1.8-.9 2.7-.3.2-.9-.8-1.1-.8-1.8.6-.4 1-.9 1.5-1.5zm.8.8c-.6 0-.2.6.1.7.4-.2.1-.5-.1-.7zm-10.9 1.7c-.1 0-.2-.1-.3-.1-.1.2-.2.4.1.4.1-.1.2-.2.2-.3zm.3 1.1c0-.1 0-.2-.1-.3-.1 0-.2.1-.3.1 0 .2.2.5.4.2z"/><path class="prefix__st4" d="M31.1 84.7c-1.7-1.6-3.5-.5-5.2 0-.4-.1-.7-.3-.9-.6.4-1.6-.2-3.3.2-4.9.6-1.6-.4-2.3-1-3.6 1.4.7 1.2-1 2.7-.9 1.8.1 1.4-2.8 3.4-2.3.5-1.7-2.4-3.7-3.1-1.7-.4 1.6-1.2 1.4-2.3.7.3-.4 1.2-.4.9-1.2-.5-1.3-.8-7.3.4-7.7.7-.7.1-1.5 0-2.2-.1-.8.9-1.4.4-2.5-1.8 1.8-.8-.8-2-1.3.1-.5-.1-1.5.5-1.1s2-.3 1.9 1c-.2 1.9 1.8.2 2.1 1.4-.7 0-1 .3-1 1-.2-.1-.6.1-.7-.1.2.4.4 1.1.8.1.7 0 1.2-.1 1.3-1 .5 0 .9 0 1 .7-.7.7-1.9 1.1-1.5 2.5-.2.7-2.5.9-1.9 2.1.2.7.3 1.8 1.5 1.7-.3 3.7 2.5-.3 2.5 2.7.1.7 0 1.5-.1 2.2 0 .2-.3.7.1.6 1.3-.1 1 .9.8 1.4-.7 1.5.1 3.2-.7 4.8-.1.2.1.7.3.8 3 2.4-5.5 1.7-1.1 5.7.5.7.8 1.1.7 1.7zm-1.2-9.5c-1-.1-1.1.4-.9 1.2.6-.4.6-.8.9-1.2z"/><path class="prefix__st6" d="M21.9 43.4c-2.4-.1-.7-3-2.5-3.2-.4 0-1 .2-.8-.6.1-.4.1-1 .8-1 1.6.2.6-1.6-.5-.8-.5.4-1.3.2-1.6 1.2-1-3 .7-5 .9-8.1.5-.2.6 1 1.2.5s-.3-.9-.3-1.2c-.1-2.4 2.1-1.9 1-4.3-.9-2.4 1.1-.5 2-3.7.2-.5.6-.8 1-.9 2.3-.8 1.7-3.4 3.8-4.4-.3 1.9 2.1-.1 1.9-1.1 0-.1.1-.2.2-.2 1 .2 2.1.7 2-1.1 1.1-1 2.4-1.5 3.9-1.8.3 1.7-.8 2.8-1.6 4.2-.4-.1-.9-.7-1 0-.3.9-.5.8-.9.2-.2-.3-.4-.4-.6-.1-.8.8-2 .7-2.9 1.3-1.7 1.7-2.4 4.9-4.4 6.6-1.2.9-1.6 1.9-1.1 3.5-2.6.8-2 3.1-2.6 4.9 4.5 1.5.1 5 2.1 7.6.5.7-.5 1.6 0 2.5z"/><path class="prefix__st5" d="M57 88.3c.2-.7 1.2-.9 1.1-2-.1-.4.5-.8.8-.1 1.3 2.3 1.2-3.1 3.4-.9 1.6.4 2-3.5 4.3-.2.7 1.6 2.4-1.7 2.1 1.4 1.7-.7 3.8.1 5.1-2 .1.8-.4 1.7.5 2.1-4.9 2.8-10 5.1-15.7 5.9.9-1.1.7-1.6-1-2.6-.2-.6 1.1-1.7-.6-1.6z"/><path class="prefix__st4" d="M78.8 37.4c.1-.5-1.1-1.7.7-1.4.5.1.7-.7.2-.9-2-.3-.5-2.9-2.2-2.8l.3-.9c1-.1 1.6 1 2.9.7-1.2.7-1.7 1.1-.3 1.9.7 1.2 1.2 2.4 2.8 2.8-1.9 1.4 2 3.4 2.1 5.3 0 1.2 3 4.3 1.5 4.8-.1 0-.2.2-.2.2.2 2.3.3 9.7 4.1 6.3.9-2.6 1.4-.1 2.1.5-.4 1.9-.4 4-1.2 5.8-.7-1-1.2-2.4-2.9-1.7-.7 0-1-1.4-1.9-1.1-3.1.2-.2-4.1-3.3-4.6-1.5-1.8 2.8-1.2 1-2.9-.1-.9 1.1-1.9-.3-2.7-.1 0-.1-.5 0-.6 1.1-1.5-1.1-3.1-.9-4.8 0-.5 0-1.3-.9-1.5-.4-.2-.3-1-1-1-.2-1.1-.6-1.7-1.6-.6h-.3c0-.4-.4-.6-.7-.8z"/><path class="prefix__st5" d="M25 71.6c1.1.7 1.9.9 2.3-.7.7-2.1 3.5.1 3.1 1.7-2-.5-1.6 2.4-3.4 2.3-1.6-.1-1.2 1.6-2.7.9.6 1.4 1.7 1.8 1 3.6-.4 1.6.2 3.3-.2 4.9-.6-.5-1.3-1-1.9-1.6.3-1.2.7-2.4-.2-3.5-.2-.2-.3-.5 0-.6.9-.4.2-.8.2-1.3 0-.9-1.3-1.3-1.1-1.9.2-1.1-.6-.7-.7-.6-1.5 1.4-1.5-1.4-2.6-1.7-.7-.2-.9-1.5-1.5-1-.7.6-.4 1.7.1 2.5.6 1 1.4 2 1 3.3-1.8-1.4-3.5-3.2-4.4-5.6 2.4-1.5-.7-4.6-.6-6.7 2.5-.1.3 4.3 3.6 3.6.4-.1.4.3.5.7.4 1.8 1.9 3 3.9 3.2-.9-1.9.4-1.8 1.8-1.1-.2 0-.4 0-.5.3.1.5.6 0 .5-.3.7-.1 1.1-.8 1.8-.4z"/><path class="prefix__st3" d="M81 22c-1.7.3-3.3-2.3-4.8-.4-1.1-.2-1.4 1-2.3 1.3-4-2.3-2.2 4.1-5.4 3.8-5.7-6.3 2-2.7.3-7.4-.6-1.2-.3-2.2.4-3.1 1-.4 2.3.3 3.2-.7 3.4 1.5 6 4 8.6 6.5zm-9.8-1.2c.2-.6.2-1.4.6-1.6.8-.5.3-.7-.1-.9-.4-.3-1-.8-1.2 0-.1.6-.7.7-.9 1.2.5.5 1.3.6 1.6 1.3z"/><path class="prefix__st1" d="M92.9 51.1c-1.3-.6-4.1 1.6-4.5-.3-.2-2.1-1.1-4.2.2-6.3.4-1-1.5-1.7-2-2.6-.4-.5-.9-1-.3-1.8.6-1.3-1.2-3.2-1.2-4.6 3.2-.2 2.9 2.7 5 4.2 0 1.2-2 2.1.3 2.6.4.1.3.3.3.6-.2.8.9 1.7-.1 2.6-.1.1 0 .5.3.5 1.1-.4.9 1 1.6 1.1.7 1.2.4 2.6.4 4zm-1.1-3.7c0-.1 0-.1.1-.2h-.1c-.1.1-.1.1 0 .2z"/><path class="prefix__st4" d="M78.2 76.4c.1-.2.3-.5.4-.5 2.6-.1 2.1-3.1 4.1-4.1 2-1.1-1.6-1.2-.8-2.4.3-.5 1.1-.4 1.5-.2 1.9 1.4 1.5-3.2 4.8-2.7.1 1-.4 2 .1 3-.1.1-.1.3-.2.4-.3-.2-.4-.7-.9-.6 0 0-.1 0-.1-.1 0 0 .1 0 .1.1-.1.8-1.2 0-1.1 1 .1.6 1.1.2 1.5.7-1.3 3.4-3.6 6.3-5.8 9.1.1-.6 0-3.1-.6-1.4h-.6c.2-.5.5-1 .7-1.5-1.8-.6-.3 2.3-3.1-.8z"/><path class="prefix__st7" d="M72.4 15.6c-.9 1-2.2.3-3.2.7-1-.7-1.5 0-1.9.8C66.9 18.9 64 20 65 22c.6 1-.2 1-.6 1.4-1.7-.3-.4-3.1-1.1-4.7-.5.5-1 .5-1.5.5-.3-1.2-.9-2-2-2.6.3-.9-1-.9-1-1.6 1.2-.6 2.5 0 3.8-.3 1.6 1.8 1 0 2.1-.5 3.2-.1 5-1 7.7 1.4zM35 14.3v-1.6c1-.7 2-1.1 3.2-1.2 1.1.8 2.4 1 3.5 1.6-.5.4-.9.8-1.7.6-3-1-3.4 2.7-4.7 4.5-2.3-.2-7.3-.5-6.9 3 0 0-.2.1-.2.2-3.3.4-.5 4.9-5.6 6.4-.8-1.4.4-2.1 1.1-2.9 2-1.8 2.7-4.8 4.4-6.6.9-.6 2.1-.5 2.9-1.3.2-.2.4-.2.6.1.4.7.6.7.9-.2.2-.6.7 0 1 0 1.9 1.1 2.9-1.4 1.5-2.6z"/><path class="prefix__st6" d="M68.9 13.7c-1.4 0-2.6.9-4 .5-.3-.1-.4.2-.5.5-.5 1.5-1 .6-1.6 0 .5-.5-.9-1.4.3-1.7 1.7 0 .8-1.8-.4-1.2-.9.7-3.9.4-3.4 1.9.1.6.5.3.8.3.7 0 1.6-.6 2 .6-1 .5-2.2-.4-3.2.3-.6 0-1.3.1-1.6-.7 1.4-3.5-4.4-2.3-5.5-4.8 5.7-.4 12.2 1.3 17.1 4.3z"/><path class="prefix__st8" d="M92.6 47c-.7-.1-.5-1.5-1.6-1.1-.2.1-.4-.3-.3-.5 1-.9-.1-1.7.1-2.6.1-.3.1-.6-.3-.6-1.7-.3-1.2-1.1-.4-2 .1-.1.2-.5.1-.6-2.2-1.5-1.8-4.4-5-4.2 0-.7 0-1.4-1-1.3-.1-.3-.2-.6-.3-1 .3-.3.9.2 1.1-.4.5-1.5 1.7-1.2 2.8-1.2 2.7 4.9 4.4 10 4.8 15.5z"/><path class="prefix__st7" d="M51.9 9.5c.5 1.1 2.4 1.6 3.5 2.1 2.3.7 2.4.5 2 2.7-.4 0-.8 0-1-.4-.3-1.1-1.1-1.4-2.1-1.6-.7 0-.9-1.5-1.6-1.1-.9.7-2.2.8-2.8 1.9-1.3.1-1.5 1.7-2.7 1.9-.3-.6-.8-1-.7-1.7.6-.3 1.1-.6 1.8-1-1-.6-1.7.1-2.4.3-.6-.6-1.6 0-2.3-.7 0-.8 1.9-.7 1-1.9 2.3-.5 4.8-.5 7.3-.5z"/><path class="prefix__st1" d="M17.9 77.4c-1.1-1 .4-1.5-.1-2-.7-.9-1.8-2.7-.8-3.6.6-.5.8.9 1.5 1 1.2.3 1 2.9 2.6 1.7.1-.1 1-.4.7.6-.1.6 1.1 1 1.1 1.9 0 .4.7.9-.2 1.3-.3.1-.2.4 0 .6.9 1.1.5 2.3.2 3.5-1.7-1.5-3-3-5-5zm4.4.3c.1-.2.1-.2.1-.3-.1 0-.2.1-.2.1 0 .1.1.2.1.2z"/><path class="prefix__st9" d="M83.6 52.1c3 .5.2 4.8 3.3 4.6 1-.3 1.2 1.3 1.9 1.1 1.7-.8 2.2.7 2.9 1.7 0 .4.1.9-.3 1.3-.9.2-1.7.5-2-.8-1.7-1.6-4.2.4-5.5 1.7-.5.7-1.2-.2-.9-.7 1-1.2 1-2.5 1.1-4 .6-1.8-1.1-3.3-.5-4.9z"/><path class="prefix__st1" d="M57.7 89.8c1.7.9 1.9 1.4 1 2.6-.2 0-.4.1-.6.1-.1-.2-.1-.3-.2-.5 0 .2 0 .3-.1.5v-.1c-3.3.9-6.9 1.5-10.4.6.2-.4.6-.7 1-.6 1.9.1 3-1.3 4.3-2.3 1.4-1.2 2.7.9 4.3-.3.3.1.5 0 .7 0zM87.8 31.6c-1.1 0-2.3-.3-2.8 1.2-.2.5-.8 0-1.1.4-1.4.2-3.2-1.6-1.7-2.5 1.6 1.1 2.4-2.1 3.8-2.4.7 1.1 1.4 2.1 1.8 3.3z"/><path class="prefix__st6" d="M44.5 10.1c.9 1.3-.9 1.1-1 1.9-.7.2-1.1.9-1.9 1-1.2-.6-2.5-.8-3.5-1.6 2.1-.8 4.2-1.3 6.4-1.3z"/><path class="prefix__st8" d="M18.6 24c.1 1.4-1.1 2.5-.7 4 .1.4-.6.6-.7.2-.2-2.4-.5.6-2-.3.5-1.4 1.8-2.4 2.4-3.7.3-.1.6-.3 1-.2z"/><path class="prefix__st5" d="M81.7 79v1.1c-.8 1-1.7 2-2.8 2.8-.5-1.2.2-1.8 1.3-2.2 0-.6-.9-.7-.8-1.4.5-.7 1.6-.8 2.3-.3z"/><path class="prefix__st4" d="M88.1 66.5c0-2.2.5-2.6 2.2-1.9-.2.6-.4 1.3-.7 1.9h-1.5z"/><path class="prefix__st5" d="M88.1 66.5h1.5c-.5 1-.6 2.2-1.4 3.1-.5-1.1 0-2.1-.1-3.1zM87.5 71c-.4-.4-1.4-.2-1.5-.7-.1-.6.5-.5.9-.6.1 0 .1-.3.2-.4.5 0 .6.4.9.6-.1.5-.1.9-.5 1.1z"/><path class="prefix__st3" d="M28.9 15.7c0 1.1-2.1 2.9-1.9 1.1.5-.5 1.2-.8 1.9-1.1zM31.1 14.5c.1 1.8-1.1 1.3-2 1.1.6-.5 1.2-1 2-1.1z"/><path class="prefix__st5" d="M57.8 92.6c0-.2 0-.3.1-.5.1.2.1.3.2.5l-.1.1-.2-.1zM57.4 92.7c.1-.1.3-.2.4-.2-.1.2-.2.2-.4.2z"/><path class="prefix__st1" d="M13.2 65.2c-.1 2.3 3.1 5.2.6 6.7-1.1-.8-1.4-2.1-1.9-3.3.6-.1.9 1 1.8.4-1.4-.8-.8-2.3-1.7-3.3 0-1.1-.5-2-1-2.9 1.2-5.4 1.2-11.3 1.7-16.7 3.1 1.2 2.3-2.3 4.3-1.6.9 1-.8.3-.7 1 .9.9-.4 2.4 1 3.1.2.1.2.7.1.9-.5 1.1 1.1.9 1 1.6 2.2-.1 1.3-3.7 3.8-3.4l.3.9c-1.1 1.6 1.1-.4.7 1.6 0 0 0 .1-.1.1.7-.4.8.9 1.1 1.2-1.4 1 .5 3.6-1.1 4.3-3.2 1.8-14.2 2.4-9.8 8-.1.8-.1 1.1-.1 1.4z"/><path class="prefix__st8" d="M11.9 65.8c1 .9.2 2.6 1.7 3.3-.8.6-1.1-.5-1.8-.4-.4-1.1-.9-2.1-1.3-3.2.5.1 1 .2 1.4.3z"/><path class="prefix__st10" d="M66.4 49.2c.9.4 1.3-.8 2.2-.5.3.1 1-.8.8.4-.1.4.3.3.6.1 1.6-1.3 2.6-.2 4.5 0-2.5-1.4.3-2.1-.7-4-.5-2.7 2.2-.4 2.7-2.5.4-.8.7-2.3 2.2-.9.8.5.8-1.2 1.4-1.4 1.7 1.3-.4 2.8.3 4.1.1.2-.1.4-.3.5-1.2 0-1.8 1.2-2.8 1.6-1.5.5 1.2 1.4.5 3-.2 2.3 1.8.2 2.2.9.1 1 1.9 1.1 1.2 2.3-1.7 3.5-.2 7.2-1.2 10.8.9 3.2-.6 6.9-3.6 8.3-2 2.5-1.8-.9-1.4-2.5-1.9 1-2.8 2.4-2.8 4.4-.9.1-1.9.2-2.9.2-1.6 1.3.1 4.4-3.9 3.1-.5-.1-.9.1-1.2.5-2-.1-2.8-1.3-2.3-3.1.1-.5 1-1 .4-1.7 1.2-.3 1.1-.2.6-1.1-.4-.8-.7-1.6-1.8-1.6-.4 0-.3-.6-.4-.9-.4-2 1.6-2.8 2-4.4.2-.6.9-1.5 1.8-1.5-.2 2.3-.2 2.3 1.1 3.2-2.7 1.8-2.8 4.7-.2 5.4.6-.1.2-.7.4-1 .2-.3.2-.7.7-.8 0 .8 1.1 2.1 1.4 1.8 1.1-1.5 3.7-1.6 4.2-3.5-.9-1.5.7-3.2-.4-4.7-.1-.1 0-.3 0-.5 0-1.4.9-3.1-1.1-4-1-.5 1.5-1.7-.1-1.8-2.2.2.5-1.9-.9-2.7-.8-.4-.6.6-.9 1-.3.3-.7.9-1.1.5.1-2.7 4.7-3.2 5.2-6.3-1.6.4-3.3-.2-4.6 1.4-.5.6-1.4.4-2-.2.3-.5.4-1 .3-1.6-.2-.1-.2-.2-.1-.3z"/><path class="prefix__st9" d="M63.8 77.7h.3c.6 1 2 1.1 2.7 2.1.3.6.6 0 .7-.4.2-.4-.4-.8 0-1.3 1.7 2.2 2.7-.7 2.8-2.5.5.5.7 2.5 1 2.4 3.9-.4 2.4-2.4 5.9-2.9.4.3-1.2 2.3.9 1.2 2.8 3.2 1.1.2 3 .8-.2.5-.5 1-.7 1.5-.5 0-.6.4-1 .6-.7-.1-1.5-.6-1.6.7-.2 1.8-4.6 1.3-4.6-.5 0-.3.3-.6-.2-.7-.9.5-1.7 1.3-2.4 2.4-.6 1.2-1.1-.4-1.6-.7-.1 0-.3.1-.3.1.7 1.9-1 2.6-2.4 1.5-.9-.6-1.8-1.9-3.2-.5-.2.2-1.8-.8-2.9-1.3.7-.5 1.7-.7 1.7-1.7.6-.1 1.8.7 1.9-.8zM82.7 39.6c.9.1.9.9.9 1.5-.3 1.8 2 3.2.9 4.8-.1.1-.1.5 0 .6 1.4.8.1 1.8.3 2.7-2.1-.8-2-3-2.6-4.5-.2-.8-1.4-1.8.5-2.2.6-.1.1-.5 0-.8-.2-.7-1.4-.8-1.1-1.7.2-.3 1 1.3 1.1-.4zm.3 5.8l.4.2c.9-.5.1-1.1-.4-.2zM75 39.9c.1.5-.7.8-.1 1.6.5.6-.5.6-.8.7-2.4.6.5 3-2.9 2.2-.2-.4-.8-.4-1-1 .7.3 2.8-.9 1.5-1.5-1 .9-1-.8.1-.8l.3-.3c.8-.1 1.4-1.1 2.3-1 .1.1.4.1.6.1z"/><path class="prefix__st4" d="M66.4 49.2v.3h-1.3c.4-1.7 1-3.2 2.6-4.2.6 0 2.3-.3 1.8.8l.1-.1h.6c.2.2.3.4.5.6-1.4.9-4.3.3-4.3 2.6z"/><path class="prefix__st5" d="M75 39.9h-.7c-.1-.2-.4-.3-.6-.3V39c2.8-.3.9-1.7.7-3.2 1.3.3 3.7.1 2.9 2.2-.2.1-.6-.1-.3.3v.6c-.7 0-.6.7-1 1h-1zM69.5 46c0-.3-.1-.5-.3-.7.1-.9-.4-2.7 1-2.6-.2.8.4 1.2 1 1.7.1.7.7 1 1.2 1.4 1 .6-.6 1.6-.9.8-.4-.9-1.3-.4-2-.6z"/><path class="prefix__st9" d="M75.9 39.9c1.1-2.2 2.5.6 2.3-2.6h.6c.3.2.6.4 1 .6-1 1.3-1.8 3.8-3.9 2zM80.1 38c1-1 1.4-.4 1.6.6-.6-.1-1.4.4-1.6-.6z"/><path class="prefix__st10" d="M81.6 50.7c0 .1-.1.2-.1.2-.1 0-.2-.1-.3-.1 0-.1.1-.2.1-.2.1 0 .2.1.3.1z"/><path class="prefix__st9" d="M81.4 39.9c-.3.1-.8-.4-.3-.5.2.1.2.3.3.5z"/><path class="prefix__st10" d="M72.1 73.8s.1 0 0 0c.1.1 0 .1 0 0z"/><path class="prefix__st7" d="M19.9 33.2c.3-1.9.1-4 2.5-4.8.4.5.2.9-.2 1.3-.9 1-.7 2.9.2 2.8.8 0 1.6.7 2.4-.2.3-.3.8 0 .9.5 0 .5.4 1 .4 1.5.3 1.8 2.9 2.4 2.3 4.6.8 1.6 1-2.5 3.4-1 0 .7.1 1.5-.3 2.1-.1.3.5.8-.2 1.1-1 .3-.9-1.4-2.1-1.1-4.3 1-2.1-3.4-4.9-3.8-1.6.5.8 2-.5 2.7-2.8 4 2 3.9 2.3 6.6h.1c.8-1.2 1.6-.1 2.2.1 2.1.6 4.6.5 6 2.8.1.2.5.4.7.2 1.5-1.6 1.8 1.2 3.6.6-.2-1.2-1.5-2.6-1.1-3.7.3-.2.7-.4.9.2.2.4.8.6.8.4.3-1.1 1.7-.9 1.9-1.8-.2-1-.9.3-1.4.1-.4-.6.2-1.1.2-1.7 3-1.1 3.2 3.8 5.4 2.9.3 1.9-2.6 1.1-3.6.6.3-.7-.7-1.2-.8-.3 0 .9-.7 1-1.4 1 .1.4.6.1.6.5-.2.1-.9-.4-1.2.1 1.9 1 1.4 2.9 1.8 4.6-.8-.3-2.2.7-2-1.3-2 1-1.9.7-3.3-.8-2 .3-1.9-2.2-3.5-2.2 0-1.5-1.7-.8-2.6-.6-.4-.2-.3-.9-.8-.8-3 .9-3-1.4-5-2-.4-.7-1.1-.9-1.9-1-.4-.8.5-1.8 0-2.5-1.9-2.7 2.4-5.9-1.8-7.7z"/><path class="prefix__st8" d="M22.1 47.9c-2.5-.1-1.7 3.2-3.8 3.4.1-.8-1.5-.5-1-1.6.1-.2 0-.8-.1-.9-1.4-.7-.1-2.3-1-3.1-.1-.6 1.6-.3.7-1-1.8-.7-1.5 2.9-4 1.6 1-.6 2.2-1.2 1.2-2.8-.5-1 1.2-3.8 2.5-3.9 1.3 1.7 4.4 2 3.4 4.9-.5 1.5 1.1-.3 1.6.5.4.4.2.7-.1 1.2-1.5 2.1 1.7 0 .6 1.7z"/><path class="prefix__st1" d="M31.4 54.6c1.5.1 2.6 1.3 4.3.9.9-.1 1.1-1.4 2.1-1 .5.4.4 1.3 1.3 1.3.5 0 .8.2 1 .6-1.4.3-1.7.9-1 2.2.2.5.3 1.2 1.2.6.3-.2.9.1 1.4.1.5.7 1.4 1.3.3 2.2h-.3c0-.5 0-.9-.6-1 0-.1-.1-.3-.1-.4l-.1.1c.1.1.1.2.2.3-1 2.4-1.8-.8-3.4-.8-.6-.1-.3.7-.6 1.1-.8 1.7-2.8-1.2-2-1.8 2.2-1.7.9-1.7-.7-1.8-1.3-.6-2.7-1-4.1-1.3-.5-.1-1.2.4-1.3-.4-.3-.8.9-.9 1.3-.7-.2 0-.1-.3-.1-.4.4.3.8.2 1.2.2z"/><path class="prefix__st6" d="M32.1 47.9c1.6 0 1.5 2.5 3.5 2.2 1.4 1.5 1.4 1.8 3.3.8-.2 1.9 1.2 1 2 1.3-.3-1.7.2-3.6-1.8-4.6.3-.5.9 0 1.4-.3 0-.4-.5-.1-.6-.5.7-.1 1.4-.1 1.4-1 .1-.8 1.1-.5.8.3-.5 1-.1 2 .1 3 2.7 6-3.7 2.5-4.3 4.4-.4 0-.7.1-1-.3-1.7-1.8-6.4-1.8-4.8-5.3z"/><path class="prefix__st8" d="M12.5 46.3c-.5 5.5-.4 11.3-1.7 16.7-.4-.2-.6-.4-.5-.9.4-2.1 0-4.2.2-6.3-.7-2.7-1.4-6.3 1.2-8.3 1-.5-.6-1.3.1-1.6.4-.2.6.1.7.4zM31.4 54.6h-1.3c-2.1-.9-5.1.5-5.5-2.9-.1-.2-.2-.2-.3 0H24c-.3-.4-.1-1.2-1-1.3-.1-.4.4-1.3-.8-.9 0-2.3 3.4.6 3.8 1.7.6 1 1 1.4 2.3.9 1.9-.5 3.6 1.1 3.1 2.5zM36.9 53.1c.2.4.6.3 1 .3v1.3c-1-.4-1.2.9-2.1 1-1.4.1-2.5-.3-3.7-.9.4-1.4 2-1 2.8-1.7.4-.4.1.6.4 1 .4-.6.8-1.2 1.6-1z"/><path class="prefix__st6" d="M23.8 44.4c.4 0 .9.2 1.1.5 1.5 3 3.7.4 4.7 2.3-.4 1.7-2.8.8-3.7-.3-1.6-.2-2.1-1.1-2.1-2.5z"/><path class="prefix__st8" d="M16.7 31.6c-1.7-.2 0 1.7-1.3 2.1-.9.4-1.1-.7-1.7-1-.5-.2.2-.5.4-.7.8-.9 1.6-1.7 2.6-.4zM13.5 36.1c.2 1.2-.3 1.9-1.3 2.4-.7-1.4 0-2.1 1.3-2.4z"/><path class="prefix__st6" d="M30.8 47c.6-.1 1.1 0 1.3.6-.5-.1-1.2.2-1.3-.6z"/><path class="prefix__st8" d="M16.7 31.6s.1 0 .1.1c0-.1 0-.1-.1-.1z"/><path class="prefix__st9" d="M31.1 84.7c0-.6-.2-1-.6-1.5-4.4-4 4-3.3 1.1-5.7-.2-.2-.4-.6-.3-.8.7-1.5 0-3.2.7-4.8.2-.5.6-1.5-.8-1.4-.4-.5.2-2 0-2.8-.3-3.2-2.9.9-2.6-2.8 1-1.8 2.2-.4 2.7.2 1.1 1.2 3.2.5 3.9 2.3 1.5-.1 2.5 1.5 3.5 2.4-1 1.3.2 2 .8 2.8-2.8 3 3.1 2.8 4.8 3.1.4.1.6-.3.6-.6h.6c-.2 1.3.7 1.3 1.6 1.3-.6 1.5-.7 3.1 1.4 3.5-1.5.8-1.2 2.4-1.9 3.4-.2 1.1 1.9.9 2.7 1v.3c-.4.5-.9 1.1-1.3 1.6-.7-1.1-1.8-.3-2.7-.4-.7 0-2.8-.7-2.6-1.4.7-2.6-3.3-1-4.2-2.6-1.3-1.6 1.6-2.1.7-3.6-.6-.9-1.1.6-1.6-.1-1.1-1.7 2.1-1-1.9-4.2-.6 1.4-.1 3-1.2 4.2-.2.2.1 1.1.9.6 2.4-1.2 3.2 4 1.5 5.2-1.3.4-1.8-1.6-2.9-1.3-1.2.9-1.2-.3-1.6-.9v1.5c-.6.4-.2.9 0 1.3-.4.2-.7.3-1.3.2z"/><path class="prefix__st2" d="M47.1 76.4c-.9.1-1.8.1-1.6-1.3l.3-.3h.6c1.4 1.2 3 0 4.6.3.3.1 1.5-1.2 1.5-2.3l.3.3V75c-.7-.1-.4 1 .1.3.9.1 2-.3 2.5.8.6-.3-.1-1.9 1.3-1.1 3.3 1.8 3.8-.6 5.4-2.3.6.7-.2 1.1-.4 1.7-.4 1.7.1 2.7 2 3.1 0 1.5-1.2.8-1.9 1-1 .5-2 .3-2.9-.3h-.3c-1-3.4-2.9.3-4.5-1.2-1.9-1.7-4.7-.7-6.9-.8l-.1.2z"/><path class="prefix__st9" d="M47.4 76.4c6.1-1.3 6.5 2.1 8.5.9 1.3-.9 2.1-.5 2.7 1.1-.8.6-1.4 1.4-1.9 2.3-1.8.9.3-1.5-1.2-1.5-.7-.1-.7.9-1.2 1.3-.2.1.2.9-.5.8-.8-.1-.4-.6-.4-.9-2.4-3.9-4.4.2-6-4z"/><path class="prefix__st5" d="M56.7 80.6c.5-.9 1.1-1.7 1.9-2.3h.3c-.1 1.5-1.8 3.4.1 4.5-3.5.2-1-1.8-2.3-2.2zM50.8 80.8c-.2.6-1.7.6-1.7-.1s1.6-.5 1.7.1zM49.4 84.4h-.6c.2-.3.5-.7.6 0zM48.5 81.7c0-.1 0-.1-.1-.2.1 0 .3 0 .1.2z"/><path class="prefix__st8" d="M73.7 39v.6c-.9-.4-2-.3-2.9-.9-.4-.2-.6-1-1.3-.3v1c-.6.1-.9.8-1.5.7-.1-.6.1-1 .5-1.5 2.4-2.1-.7-4.6 2.4-7 .7-.7 1.2-1.2.3-2.3-.9-1.2-3-.3-2.6-2.3 3.2.4 1.5-6.1 5.4-3.8v.7c-2.3-.6-3.5 2.4-.9 1.6-.5 1.4-.6 3.1 1.8 2.7-1 .7-2.1.8-1.9 1.8l-.1.1c0 .1.1.2.1.2v.6c-.9.5.4 1.5-.4 1.9-1.9.9-.9 2.4-.8 3.8.1 1 1.5 1.3 1.9 2.4z"/><path class="prefix__st1" d="M73.7 39c-.4-1.1-1.8-1.3-1.9-2.6-.1-1.4-1.1-2.8.8-3.8.8-.4-.4-1.4.4-1.9.6.4 0 1.5 1 1.8.3.1 0 .5-.2.6-.3.3-.6.6-1 .8-1.3.8-.6 2.3.8 2 .1.3.4.3.6.3.6 1.4 2 2.4-.5 2.8z"/><path class="prefix__st4" d="M78.2 37.3c-.1.8.4 2.1-1.3 1.6v-.6c1.6-2-1.2-2.4-2.6-2.5.9-2 1.2-2.2 2.9-1.6-.2 0-.4 0-.5.3.1.5.6 0 .5-.3.7.9.4 2.1 1 3.1z"/><path class="prefix__st1" d="M74 23.6v-.7c.8-.3 1.2-1.4 2.3-1.3 0 2.6 0 2.6-2.3 2zM73 25.2c-2.3 1-1.6-2 .3-1.6 0 .5-.1 1.1-.3 1.6zM77.9 31.3c-.2.7-.6 1.3-.8 2-.9-.5 0-1.5-.7-2 .4 0 .9-.7 1.5 0zM84.3 34.1c1-.1 1 .6 1 1.3-1.1.1-1.1-.6-1-1.3z"/><path class="prefix__st4" d="M74.3 36.1c-.3 0-.5-.1-.6-.3h.6v.3z"/><path class="prefix__st1" d="M73 30c0-.1-.1-.1-.1-.2l.1-.1c.1.1.1.2 0 .3z"/><path class="prefix__st4" d="M37.2 83.8c1.2-1.3.5-6.1-1.8-4.9-.9.5-1.1-.4-.9-.6 1-1.2.5-2.9 1.2-4.2 4 3.3.8 2.2 1.9 4.2.5.6 1.1-.8 1.6.1.9 1.4-1.8 2.1-.7 3.6.9 1.4 4.9.2 4.2 2.6-.2.7 1.9 1.3 2.6 1.4.9.1 2-.8 2.7.4 0 .7.9.9.8 1.8-1-.6-1.7.7-2.7.3-1.4-.1-2.5-2.4-3.2.1h-.6c-.1-1.4 1.5-2.2-.6-2.6-1.1-.4-2.5-.4-3.1-1.8-.2-.6-.9-.4-1.4-.4zM32.4 83.5V82c.4.6.4 1.8 1.6.9 1.1-.5 1.3 1.7 2.9 1.3-1.6 3 1.9 2.6.9 3.7-.4.3-1.3.8-1.5.2-1-2.5-2.5.8-3.9-.7 1.6-.3 1.3-1.5 1.4-2.5.3-.1.7.1.8-.3-.4-.7-.9-.4-.8.3-1.1-.1-1.3-.7-1.4-1.4z"/><path class="prefix__st1" d="M42.3 88.6c.6 0 2.3.1 1 1-.6.5-1 2.2-1.8 1.2-.1-.2-1.5-.4-.2-1.1.3-.2 0-1.3 1-1.1z"/><path class="prefix__st4" d="M31.8 85.1c.2-.1.4-.2.7-.3-.2.5.7.8.3 1.4-.8.5-1.2-.7-1-1.1zM57.7 89.8h-.6v-1.6c1.6 0 .3 1.1.6 1.6zM50.2 85.5c.2.2.5.5.1.7-.2-.2-.8-.7-.1-.7zM39.3 87.2c0 .1-.1.2-.1.2-.3 0-.1-.2-.1-.4 0 .1.1.2.2.2zM39.6 88.3c-.2.1-.4.2-.4-.2.1 0 .2-.1.3-.1.1.1.1.3.1.3z"/><path class="prefix__st5" d="M24.7 51.8c.4 3.3 3.4 2.1 5.5 2.9v.3c-.5.1-1.4-.2-1.2.9.2.8 1 .1 1.6.4 1 .2 2.1.6 3.1.9 1.4.9 4.2 0 1.4 2.2-.6.7 1.4 3.6 2.1 1.7.2-.5 0-1.3.7-1 1.6-.1 2.2 3.3 3.3.8.6 0 .6.5.6 1-.7.2-1.3 1.2-2 .7-1-.6-.8.4-1.2.6-5.2.5-3.1-2.9-5.9-3.8-.8.1-1.4-.4-2.1-.7 0-.7-.7-.7-1.3-.7-.1-.7-.5-.4-.9-.4-2.4.1.3-2.1-3.1-2-1-.3.1 2.4-1.4 1.9-.3-.1-.7-.1-.6.2.5 1.2-.8 1.7-1.1 2.5-2.3.4 0-2.1-2-1.4-1.5.6-3 2.2-4.6 2.3-2.3-.2-1.5 2.1-2.3 3.3-4.4-5.6 6.5-6.2 9.8-8 1.7-.7-.3-3.4 1.1-4.3h.3c0-.3.1-.3.2-.3z"/><path class="prefix__st2" d="M30.5 58.5c.7.2 1.2.7 2.1.7 2.8.9.8 4.3 5.9 3.8.6 1 2.3 1.2 1.9 2.9-1.4.2-1.2-2.3-3-1.4-.3.1-.8-.1-1-.3-.9-1.1-1.1-.5-1.3.5-.2 1.1-.7 2.1 1.2 1.5.5-.1 1.2.4 1.7.3 3.3-.9-1.5 4.5 6.8 8.8-.1.4-.2.7-.6.6-1.8-.3-7.6-.2-4.8-3.1 0 0 .1 0 .1.1 0 0-.1 0-.1-.1-.6-.9-1.8-1.5-.8-2.8-1-.9-1.9-2.5-3.5-2.4-.7-1.8-2.8-1.1-3.9-2.3-.6-.6-1.7-2-2.7-.2-1.2.1-1.3-1-1.5-1.7-.6-1.2 1.7-1.4 1.9-2.1-.3-1.7.9-2.1 1.6-2.8zm3.5 5.7s.1 0 0 0c.9-1.4-1.3-5.2-3.3-3.7-1.6 1.8 1.7 3.6 3.3 3.7z"/><path class="prefix__st9" d="M22.1 60.1c.3-.9 1.6-1.3 1.1-2.5.4-.5 1.5.2 1.5-1 1.2.4.2 3.2 2 1.3.5 1.1-.5 1.7-.4 2.5-.5.1-1.1.2-1.6.7.8.3 1.5.6 1.6 1.5-1.2.3-.9 6.4-.4 7.7.3.8-.6.9-.9 1.2-.4-.1-.9-.2-1.3-.3.1-1.8-2.3-2.5-1.9-4.5 0-.1-.4-.2-.7-.3.4-2 1-4.1 1-6.3z"/><path class="prefix__st2" d="M26.3 62.6c-.1-.9-.8-1.2-1.6-1.5.5-.5 1.1-.6 1.6-.7.1.8.8 1.5 0 2.2z"/><path class="prefix__st9" d="M29.2 57.8h.3c-.1.8-.6 1-1.3 1 0-.7.3-1 1-1z"/><path class="prefix__st5" d="M29.9 75.2c-.3.4-.3.9-.9 1.2-.2-.8-.1-1.3.9-1.2z"/><path class="prefix__st9" d="M28.2 58.8c-.1.6-.6.7-.7 0h.7zM27.6 58.8s-.1 0-.1-.1c0 .1 0 .1.1.1z"/><path class="prefix__st11" d="M30.8 37.7c-1.3-.5-1.8 2.8-2.4 1.3.5-2.6-2.8-3.4-2.7-6.1 0-.6-.6-.8-.9-.5-1.7 1.3-4.5-.3-2.6-2.6.4-.5.6-.8.2-1.3v-.6h.3c5.4-2.7 1.4-5.1 5.5-6.6-.5-3.5 4.6-3.2 6.9-3-.4 1.1-.9 2.5-2.1 2.9-1.1-1.6-1.8-.1-2 .6-.1 1.8-5.6 6.2-1.5 6.1.3.3.6.7.9 1v.3c-1 .4-1.7 1.1-2.3 2-.2.4-1.3.6-.6 1.3 1.3 1.3 2.3-1.3 3.3-1.5 1.1.1.9-.6.9-1.2 5.7-.5-.2 5.8-.9 7.9zM35 14.3c1.6 1.1.2 3.7-1.6 2.6.5-.9 1-1.7 1.6-2.6z"/><path class="prefix__st7" d="M19.9 33.2s0 .1-.1.1c.1 0 .1-.1.1-.1z"/><path class="prefix__st4" d="M22.1 60.1c0 2.2-.6 4.3-1 6.4-1.6-.2-.2 1.5-.1 0 .2.1.7.2.7.3-.8 1.8 3.5 4 1.3 4.8-1.4-.7-2.7-.8-1.8 1.1-2.9-.2-3.2-2.2-4.4-3.9-3.3.8-1.2-3.8-3.6-3.6v-.9c.8-1.2 0-3.4 2.3-3.3 1.5-.1 3.2-1.6 4.7-2.3 2-.7-.3 1.8 1.9 1.4z"/><path class="prefix__st4" d="M23.1 71.6c0 .2 0 .4-.3.5-.5-.1 0-.6.3-.5z"/><path class="prefix__st6" d="M68.6 26.8c0 .5.1.9.3 1.3-3 .7-1.4-3.7-3.6-3.2-.3-.5-.6-1.1-1-1.6.4-.4 1.2-.4.6-1.4-1-2 1.9-3.1 2.3-4.9.4-.8.9-1.5 1.9-.8-.7 1-1 1.9-.4 3.1 1.7 4.7-6.2 1.1-.1 7.5zM71.2 20.8c-.3-.7-1.1-.9-1.6-1.3.2-.5.8-.6.9-1.2.2-.9.8-.3 1.2 0 .4.3.9.4.1.9-.4.3-.4 1.1-.6 1.6z"/><path class="prefix__st8" d="M91.8 47.4v-.2h.1c-.1.1-.1.1-.1.2z"/><path class="prefix__st9" d="M81.7 79l-.6-.3c.2-.9.8-.4.6.3z"/><path class="prefix__st5" d="M87.1 69.4s-.1 0 0 0c-.1-.1 0-.1 0 0z"/><path class="prefix__st11" d="M64.4 23.3c1.2 1.5 1.8 3.9.6 5.6-.6.5-.9-.5-1.5-.5-.3-1.5-2-2.2-1.7-3.8 2.1-1.2-.7-3.8-2.4-3.8-.2-.7-.7-1.3-1.1-1.8 1.5-2.2 2.2 1.4 3.8 1.4-.1-.5-.2-.8-.2-1.2.5 0 1 0 1.5-.5.1 1.3.6 2.3.2 3.4-.3.4.1 1.1.8 1.2zM49.9 13.1c.6-1.1 1.9-1.2 2.8-1.9.7-.3.9 1 1.6 1.1 1.9-.2 1.6 2.1 3.1 2 .3.7 1 .6 1.6.7 0 .7 1.3.7 1 1.6-1 0-1.6-1.2-2.7-1-.5-.5-1.1-.3-1.7-.3-.7-.6-1.7-.7-2.4-1.3-1.2-.5-2.5.8-3.3-.9z"/><path class="prefix__st6" d="M57.2 15.6c2.5.4 4.9 2.1 4.9 4.8-1.7 0-2.3-3.7-3.8-1.4-1.7-.8-1.3-2.2-1.1-3.4z"/><path class="prefix__st3" d="M62.2 14.6c-.4-1.2-1.3-.5-2-.6-.4 0-.8.2-.8-.3-.5-1.5 2.5-1.2 3.4-1.9 1.2-.6 2.1 1.2.4 1.2-1.2.2.2 1.2-.3 1.7-.3-.1-.5-.1-.7-.1z"/><path class="prefix__st11" d="M41.7 13c.8-.1 1.2-.8 1.9-1 .6.7 1.6.1 2.3.7-.4.8.2.6.6.7-.1.9 1 1.4.6 2.3-.2 0-.4 0-.6.1-.5-.2-1 0-1.4.4-1-.1-1.9-.8-2.7.1-.1 0-.2-.1-.3-.1-1.5-.9-3.1-1.4-4.8-1.6 1.2-1.9 3.2 0 4.4-1.6z"/><path class="prefix__st4" d="M37.2 14.5c1.7.2 3.3.7 4.8 1.6-1.2 3-5.1-1-5.6 2.7-.3.8-.9.5-1.5.3.8-1.5 1.2-3.4 2.3-4.6zM47.1 15.6c0-.2.1-.4.1-.6 1.2-.2 1.4-1.9 2.7-1.9.2.4.5.8.9.9.5 1.1 1.4 1.8 2.6 1.9v1.9c-3.8-.4-2.8-3.5-6.4-1.7.1-.1.1-.3.1-.5z"/><path class="prefix__st6" d="M46.5 13.4c-.4 0-1 .1-.6-.7.7-.2 1.4-.9 2.4-.3-.7.4-1.3.7-1.8 1z"/><path class="prefix__st5" d="M22.3 77.7c0-.1-.1-.2-.1-.3 0 0 .1-.1.2-.1 0 0 .1.1 0 .1 0 .2-.1.3-.1.3z"/><path class="prefix__st8" d="M23.1 50.5s0 .1-.1.1c.1 0 .1-.1.1-.1z"/><path class="prefix__st0" d="M52.8 73.5l-.3-.3c.2-1.8-.3-1.8-2-1.8-.2.3 0 .5.2.7.8.6.4 1.3.1 1.9-.4.8-1 .1-1.6.2-.7.1-.9-.5-1.4-.8.1 1.1-.9 1.2-1.4 1.8h-.6c-.1-2.2-3.5-1.8-3.6-4.4 0-.2-.7 0-.7-.4.9-.6 1.8-1.3 2.4-2.4.4-.2 1.5.6 1.1-.2-.6-1.3.5-1.1.9-1.8 0 .9.1 1.5.7 1.8.2-.3.4-.5.5-.8.8.3 1.3-.7 2.2-.6-.1-.6 1.1-.9.3-1.6-1-.1-.8-1.2.2-.8.7.2.7-.5 1-.8 1.7-1.6 2.7 2.3 4.3 3 .6.4-.7 1-.3 1.7.2.6-.8.8-.7.1-.1-.3.1-.8-.4-.9-1.4 1.4 1 2.6.4 4 1.1-1.3 2.5-2.5 2.2-4.5-.3-.6-.1-1.5.2-1.6 2-.3-.1-3-1-1.1-.5-.6.4-1.4-.6-1.7-.3-.1 0-.4.2-.6.9-.6 1.1-1.7 1.8-2.5.6-.7-.7-.6-.5-1.2.5-1.5 2.9-2.2 3.9-1.1.5-.5-.4-1.5.9-1.9 1.6-.7 4.1-1.8 4.5-3.6h.6c.6.6 1.5.8 2.1.2 1.3-1.6 3.1-1 4.7-1.4-.4 3.3-5.1 3.6-5.3 6.4.5.4.8-.2 1.1-.5.4-2 1.9-.7 1.1.6-.6 1-.3 1.2.7 1.1 1.7.1-.9 1.3.1 1.8 2.1.9 1.1 2.7 1.1 4.1.7 1.7-.3 3.6.4 5.3-.4 1.8-3.3 2-4.3 3.6-.3.3-1.4-1-1.4-1.8-.5 0-.5.5-.7.8s.2 1-.4 1c-2.6-.7-2.4-3.9.2-5.5-1.3-.9-1.3-.9-1.1-3.3 0 0-.1-.1-.1 0-.9.1-1.5.9-1.7 1.5-.5 1.6-3.4 3.6-1.7 5.4 1.1 0 1.4.8 1.8 1.6.5.9.6.8-.6 1.1-.4 0-.6.2-.6.6-4.1 1.7-7.9-2.5-8-.8-.1.9-.6.2-.9.4zm12.9-3.9c-.2-.6 1.2-.7.4-1.4-.2-.2-.7-.3-.9-.1-.5.6.5.9.5 1.5zm-15.1-3.2c0-.6-.7-.5-.7 0 0 .6.5.3.7 0z"/><path class="prefix__st9" d="M66 51.1c-1 .1-1.9-.5-2.8-1 .7 0 1.4-.2 1.9-.6h1.3c0 .6-.1 1.1-.4 1.6z"/><path class="prefix__st4" d="M83 45.4c.3-.3.6-.9.8-.3-.1.3-.5.6-.8.3zM70.2 43.4c.5-1.3-1.1-3.3.6-3.9.5.3 1 .8 1.3 1.3l-.3.3c-1.1 0-1.1 1.7-.1.8 1.2.6-.8 1.9-1.5 1.5z"/><path class="prefix__st5" d="M72.1 40.9c-.3-.5-.8-1-1.3-1.3v-.9c.4.2.9.4 1.3.6-.2.8.5.9.9 1.3-.3 0-.6.2-.9.3z"/><path class="prefix__st1" d="M73.1 40.5c-.4-.3-1.2-.4-.9-1.3.5 0 1.1 0 1.6.3.3 0 .5.1.6.3-.7 0-1 .4-1.3.7z"/><path class="prefix__st5" d="M71.8 41.2l.3-.3-.3.3z"/><path class="prefix__st8" d="M69.2 43.5v1.9h-1.6c-.8-1.9-1.7 1.3-3.6.1 1.3-1.6 2.1-3.5 3.8-4.8.2.9.6 1.9 1.4 2.8z"/><path class="prefix__st1" d="M64.1 45.4c2 1.3 2.7-2 3.6-.1-1.6.9-2.2 2.5-2.6 4.2-.6.5-1.2.6-1.9.6 0-1.4 1.2-2.2 1.7-3.5-.5-.1-.9-.3-1.3-.4-.2-.4.1-.7.5-.8z"/><path class="prefix__st5" d="M69.5 46c0 .1 0 0 0 0z"/><path class="prefix__st9" d="M77.2 38l-.3.3c-.3-.4.2-.2.3-.3z"/><path class="prefix__st1" d="M69.2 43.5c-.9-.9-1.4-2.2-1.3-3.5.6.1 2.5-1.1 1.5-1.7.6-.7.9.1 1.3.3v.9c-1.7.5-.1 2.1-.6 3.2-.4.1-.9.1-.9.8z"/><path class="prefix__st3" d="M67.9 39.9v.6c-1.6 1.4-2.6 3.2-3.8 4.8-.4.2-.6.5-.6 1C60 49 58.6 45 57 47.5c-2.4 4.3-7.1-1.5-9.8.6-.2.1-.1.5-.5.5-2.7.4 1.4 3.2-3.2 2.8.7.3 1.3.3 1.3.9-.1.8-.7.1-1 .4-.7.7-2.4 1.2-2.1 1.9.7 2-.9 1.4-1.6 1.9-.2-.4-.5-.6-1-.6.9-1.7-.6-1.1-1.3-1.3-.6-3.1 2.5-1.3 4.2-2.2 2.2-1.7-1.2-4.2 0-6.5 1 .5 3.9 1.3 3.6-.6.5.1.7-.7 1.2-.6 0 2.4 2.3-.4 3.8.4 1.5-2.9 2.4 2.2 4.5.7-.1.4-.3.8-.4 1.2 1.4 0 1.4-1 1.4-1.9 1.1-.3 2.1.9 3.2 0 .5-.9 4-2.3 1.8-3.1 1.6 0 2.7-1 3.9-1.7.9-.4.8-2 .2-2.1-.9 0-.1.8-.4 1.1-.2.4-1.1.3-1-.2.8-1.5-1-2.6-.3-4.2.5-1.2.9-2 2.1-1.4 2.3 1.1 2.3-2.5 1.6-3.7v-2.2c1.6.3 6.3 1.2 3.6 3.6-3.1 2.4 0 4.9-2.4 7-.4.7-.5 1.2-.5 1.7z"/><path class="prefix__st11" d="M40.1 42.5c0 .6-.5 1.1-.2 1.7.6.2.7-.7 1.3-.4.4 1.2-1.7 1.1-1.8 2.1-.1.2-.7.1-.8-.4-.2-.5-.5-.4-.9-.2-.4 1.1.7 2.4 1 3.7-1.7.6-2.1-2.2-3.6-.6-.2.2-.6 0-.7-.2-1.4-2.3-3.9-2.2-6-2.8-.6-.2-1.4-1.3-2.2-.1h-.1c-.4-2.8-5-2.4-2.3-6.6 1.3-.7-1-2.2.5-2.7 2.9.4.4 4.8 4.9 3.8 1-.1 1.2 1.2 2.1 1.1.8-.3-.2-1.1.5-1.6.3 1.7 2.4 1.3 2.9 2.8-1.6.8 1.9 1.6 2.6.6-.6-.3-1.3.1-1.7-.5v-.1c1.5.3 3 .7 4.5.4zM45.5 45.4c-2.2.9-2.3-3.8-5.4-2.9.3-.6 1.3-.9 1-1.8.2-.1.4-.2.6-.4.4.2.5-.7.7-1 .5 0 .7-.3 1-.6 4.4-.7 1.7 1.3 3.7.9.1 1.3 1.6 1.2 2 2.2 0 3.3-3.7-1.7-3.6 3.6z"/><path class="prefix__st1" d="M30.8 37.7c1-2.1 2.4-3.4 3.2-5.8.9.6-.2 2.1.8 2.4 1 .1.8.9.9 1.5-.1.2-.3.4-.4.6-.8 0-.4-1-1.1-1.2-.3.7-.1 1.4-.1 2.1-.7.1-1.4.2-1.3 1.3-.8-.1-1.1-.9-2-.9z"/><path class="prefix__st8" d="M31.8 38c.3.2.5.7 1 .6.9.8.8 1-.6 1.5-.4-.6-.4-1.4-.4-2.1z"/><path class="prefix__st3" d="M29.5 47.3l-.3-.3.3.3z"/><path class="prefix__st8" d="M40.1 56.6c.7-.4 2.3.1 1.6-1.9-.2-.6 1.4-1.2 2.1-1.9.3-.3.9.4 1-.4.1-.7-.6-.6-1.3-.9 4.3.5.6-2.6 3.2-2.8.9-.6 1.3-1.7 3-.9 7.1 4.3 6.7-2.6 9.7-.7 1.5 1 2.8-.1 4.1-.7.4.1.9.3 1.3.4-.5 1.1-1.5 2-1.7 3.2h-.6c.9-2.8-3 .3-4.2-.3-.5-.2-.6.5-.6.9-.7 0-1.5-.1-2 .7-1.7.7-2.6-2.5-4.2.8-.8 1.8-1.2.6-2.3 1.2-.6 1.3-1.7.9-2.6.9-3.7 0-3.1-.4-3.4 3-1.8.1-.7 1.7-1.5 2.5-.5-.1-1.1-.3-1.4-.1-.9.6-1-.1-1.2-.6-.7-1.6-.4-2.1 1-2.4z"/><path class="prefix__st4" d="M40.4 65.8c.3-1.6-1.3-1.9-1.9-2.9.4-.2.2-1.2 1.2-.6.8.5 1.4-.9 2.3-.7.4.5 1 .1 1-.1.1-1 1.5-2 .2-3.1v-.3c.6 0 1.2-.1 1.8.3.3-1.2 1.4-.6 2.1-1 .1.7.5 1.2.9 1.8.2.2.8 0 .5.6-.2.4-.1.8-.8.7-.9-.1-.2.5-.2.8v.9c-.5-.4-.9.1-1.3.3.6-2.3-.5-1.3-1.2-2.6.5 2.2-3.4 2.1-2.6 4.1.8 2-.9 1.6-2 1.8z"/><path class="prefix__st5" d="M43.2 58.5c1.3 1.1-.2 2-.2 3.1 0 .2-.6.6-1 .1 1.1-.9.2-1.5-.3-2.2.3-.1.3-.4.3-.6.5-.1.9-.2 1.2-.4z"/><path class="prefix__st8" d="M37.8 54.6c.7.2 2.1-.4 1.3 1.3-.9.1-.8-.9-1.3-1.3z"/><path class="prefix__st5" d="M41 60.7c-.1-.1-.2-.2-.2-.3l.1-.1c.1.1.1.3.1.4zM30.2 55s.1 0 .1.1l-.1-.1z"/><path class="prefix__st1" d="M24.7 51.8h-.3c.1-.2.2-.2.3 0z"/><path class="prefix__st10" d="M40.4 65.8h.6c-.1.9.4 1.8-.2 2.7 1.3.3 2.3-2.6 3.1-.8-.5 1-1.4 1.6-2.3 2.3 0 .5.7.2.7.4.1 2.5 3.5 2.1 3.5 4.3l-.3.3h-.6c-8.1-4.2-3.5-9.6-6.8-8.8-.5.2-1.2-.4-1.7-.3-1.9.5-1.4-.5-1.2-1.5.2-.9.3-1.6 1.3-.5.2.2.7.4 1 .3 1.8-.9 1.6 1.8 2.9 1.6zM52.9 73.2c.3-.2.8.5.9-.5.1-1.7 3.6 2.4 7.8.8-.8 2.2-2.7 2.9-4.8 1.7-1.5-.8-.7.8-1.3 1.1-.6-1.1-1.6-.8-2.5-.8 0-.8-.1-1.6-.1-2.3zM46.5 74.8c.4-.6 1.5-.7 1.4-1.8.6.3.8.9 1.4.8.5-.1 1.2.6 1.6-.2.3-.6.6-1.3-.1-1.9-.6-.4-.2-1 .5-.6 2.8-.6.7 4.1-.2 4-1.6-.2-3.2.9-4.6-.3z"/><path class="prefix__st9" d="M52.9 75.1c.1.3-.3.8-.5.4-.1-.3.2-.3.5-.4z"/><path class="prefix__st5" d="M69.5 38.3c.4.3.5.7 0 1v-1zM77.2 34.2c0 .2 0 .4-.3.5-.5-.1 0-.6.3-.5zM33.7 84.7c.1-.3-.2-.7.4-.7.8.3.2.9-.4.7z"/><path class="prefix__st10" d="M34 64.2c-1.6-.2-4.8-1.8-3.3-3.7.5-.6.9-.5 1.5-.2 1.8 1.1 2.3 2.1 1.8 3.9z"/><path class="prefix__st9" d="M39.4 72.6s.1 0 0 0c.1 0 .1 0 0 0z"/><path class="prefix__st10" d="M34 64.2s.1 0 0 0c.1.1 0 .1 0 0z"/><path class="prefix__st3" d="M35.7 35.8c-.1-.6.1-1.5-.9-1.5-1-.2.1-1.9-.8-2.4.2-.5.4-1 .1-1.6.8 0 .9-.6.9-1.2.4 0 .8 0 1.3-.1v.7c-2.4 2.4 2.1 4.7 1.7 7.5 2.6 1.8-1.9-6.1 1-5.1 3.1 0 2.4 1.5 4.3 2.4v.9c-.5.3-4.9.6-3.2 1.3.2.6-.2 1.7-.1 1.7 1.1-.4 1.5.9 2.3.9-.1.3-.3.6-.4.9-.3.1-.6.2-.9.5-.2-.4-.3-.8-.9-.8-3.8 0-2-4.1-4.4-4.1z"/><path class="prefix__st9" d="M47.1 15.6c.3 1.1-.9 1.1-1.3 1.7-.3.6-.9.6-1.5.6-2.4-1-7.8 1.2-9.2 3.5 1.2-.3 2.1-1.2 3.4-1.3-.8 2-2.8 2.4-4.5 3.1-.5.2-1.5 1.4-2.4.3.1-.3.2-.7.4-1 .2-1.6 2.6-1.6 2.9-3.4.6.2 1.2.6 1.5-.3.5-3.7 4.4.2 5.6-2.7 1.2 1.2 1.5 1.2 2.6 0h.4c.8 1 1 .1 1.4-.4.3 0 .5 0 .7-.1z"/><path class="prefix__st6" d="M30.4 29.1v-.3c2.1.4.5-.9.6-1.5.1-.5-.7-1.3.2-1.3 1.2-.5 3.3-.3 2.2 1.7-1 .4-.3 1.3-.5 2-.9-.1-1.9.3-2.5-.6z"/><path class="prefix__st8" d="M33.9 26.6c-.5-1.5-1.7-.6-2.5-.6-1 0-.2.8-.2 1.3-.1.5 1.5 1.8-.6 1.5-.3-.3-.6-.7-.9-1 .4-1-.2-2.3 1.1-2.9 1.4 1.3 3-.8 4.5.3-.2.4-.7.7-.6 1.2-.3 0-.5.1-.8.2zM33 29.7c.2-.7-.4-1.5.5-2 .1.4.3.8.4 1.1.3.1.6.2 1 .2 0 .6-.1 1.2-.9 1.2-.2-.3-.5-.5-1-.5z"/><path class="prefix__st9" d="M21.2 66.5c0 .5-.7.9-.7.3.1-.4.4-.3.7-.3z"/><path class="prefix__st7" d="M45.5 45.4c-.3-1.2.4-3.1 2-2.6 1.2.8 1.5 0 1.6-1 .9-.1 2.3.7 2.2-1.2h1c2.6 1.1 3-3 4.6-3.9.2.4.6.5.9.6 1.2 2.3 3.1-2.3 2-3.4-.5-.7-.9.6-1.5.3-.1-.3-.2-.7-.7-.6 0-1-.2-2.2-1.2-2.7-.7-1.6 1.3-1.9 1.8-3 .4 0 .8-.1 1.3-.1.5.7-.3 1-.6 1.4 0 0-.1 0-.1-.1 0 0 .1 0 .1.1 1.3 2 1.3 2 4 1.3.8-.2.7-1.3.8-2 2.5 2 2.2-1.9 1.9-3.5 1.7-.6 1 2.1 2 2.9v2.2c-.7-.1-1.4.6-2.2-.2-.4-.4-1.4-.5-1.4.7-.1 2.3-3.6 1.8-1 4.5-3-1.6-1.4 3.7-4.6 3.7-.5 0-1.3-.3-1.3.5.1 1.1 1.4.6 2.1.7 1.3 1.2.1 1.6-.9 1.9.8.5 1.5.2 2.2.3.1 2.2-2.2 2.4-3.8 2.2 0-.6-.1-1.2-.9-.8-.6.3-1.6.2-1.6 1.2 0 .4.3.5.6.2.5-.5 1.2-.6 1.9-.6v1c-.6 0-1.1.1-1.3.6-2.1 1.5-3-3.5-4.5-.7-1.3-.5-2.3.5-3.5.6-.5 0 0-.8-.3-1-.9-.2-1 .5-1.6.5zm10.2-2.9c.4-.7.9-1.3.5-2.5-.3 1-1.4 1.2-1.4 2.2-1.9.8.1 1.5.9.3zm-2.9.4c0-.1-.1-.2-.1-.3-.1 0-.2.1-.3.1 0 .1.1.2.1.3.1 0 .2-.1.3-.1zm4.3.1c-.2-.2-.3-.1-.4 0 .2.1.2.1.4 0z"/><path class="prefix__st6" d="M63.5 28.4c-.1.7 0 1.8-.8 2-2.7.7-2.7.6-4-1.3.3-.4 1-.6.6-1.4-.5-.6.2-1.3 0-1.9.9.1 1.7-1.2 2.7-.2.1 1.1 1.4 1.6 1.5 2.8zM61.3 27c.1.8-1 1.5 0 2.2.4.3 1-.1 1.2-.5.7-1.3-1.1-.8-1.2-1.7z"/><path class="prefix__st5" d="M57.2 15.6c-.2 1.3-.6 2.6 1.1 3.3.4.6.9 1.1 1.1 1.8-.5 0-.9-.2-1.4-.3 0-.6-.5-.7-1-.7-.2-.3-.4-.6-.7-1 .2-.7-.6-1.2-.7-.3h-.3v-1.9c.9-.2.7-1-.1-1 0-.1 0-.2.1-.3.7.1 1.4-.1 1.9.4z"/><path class="prefix__st3" d="M61.9 25.5c-1-1-1.8.4-2.7.2-.3-.3-.8-.4-.9-.9 1.1.2 2.6-1.5 3.5.1 0 .2 0 .4.1.6z"/><path class="prefix__st6" d="M60.9 21.1c.8.6 1.5 1.3 1.6 2.4-.5 0-1.1 0-1.6-.3 0-.7-.2-1.4 0-2.1z"/><path class="prefix__st8" d="M60.9 21.1c0 .5 0 1-.1 1.5-.8-.4-1.2-1.1-1.6-1.9.6 0 1.1.3 1.7.4z"/><path class="prefix__st6" d="M61.5 23.6h1c.3.7-.4.8-.7 1h-.2s-.1-.1-.1 0v-1z"/><path class="prefix__st8" d="M61.6 24.6h.2c0 .1.1.2 0 .3-.1-.2-.2-.2-.2-.3z"/><path class="prefix__st6" d="M55.4 15.3c0 .1 0 .2-.1.3-1.7.6-3.8.4-4.5-1.5 1.7-.6 3.1.2 4.6 1.2zM44.7 16.1c-.7.7-1.5 1.6-2.3.1.7-.8 1.5-.5 2.3-.1zM46.5 15.7c-.4.5-.7 1.3-1.4.4.4-.4.9-.6 1.4-.4z"/><path class="prefix__st10" d="M56.4 18.8c.2.3.4.6.7 1-.7.5-.4 1.3-.7 1.9h-.6c-.8-.6-.9-1.9-2.2-1.9-1.4-1.3-3.2-1.2-4.9-1.6-.4-1-1.9-.8-2.9-.9.2-.6 1.1-.4 1.3-1.1 1.2-.2 2.1-1.4 3.1.1 1.4 1.6 4.3 1.9 6.2 2.5z"/><path class="prefix__st2" d="M53.5 15.9c.7 0 2.1-.9 2.6.1 0 .4-.3.5-.6.5-1-.5-.8 1.3-1.9.9-.1-.4-.1-1-.1-1.5z"/><path class="prefix__st9" d="M53.5 17.5c1 .4 1-1.5 1.9-.9v1.9c-.6-.2-1.4-.2-1.9-.7v-.3z"/><path class="prefix__st10" d="M47.4 62.3v-.9c1.6.4 1.9-1.3 2.7-2 .4-.4 1.3-.1 1.2-.7-.1-.5-.5-.9.2-1.1 1.1-.7 1.4 1.6 2.1.9 1.2-1.5 2.3-4.5 4.3-4.5 1 1.1 1.7-.1 2.6-.3 1.2.3.8-1.2 1.6-1.4 1.1-.2 2.1-1 3.2-1.1-.4 1.7-2.9 2.7-4.4 3.5-1.3.4-.4 1.4-.9 1.9-1-1-3.3-.3-3.8 1.1-.2.6 1.1.5.5 1.2-.7.8-1 1.8-1.8 2.4-.2.1-.6.5-.2.6 1 .3.2 1.1.6 1.7.9-1.8 2.9.6 1 1.1-.3.2-.4 1-.4 1.5.3 2-1 3.1-2.1 4.4.6-1.4-1.7-2.5-.4-3.9.5.1.3.6.4.9 0 .7 1 .4.7-.1-.4-.7.9-1.3.3-1.7-1.5-.7-2.5-4.4-4.2-2.9-.3.3-.4 1-1 .8-1-.3-1.1.7-.2.8.8.7-.4 1-.3 1.6-.8-.1-1.3.9-2.1.6.1-.6-.1-1.1-.4-1.6-1-1.7 2-.7.8-2.8z"/><path class="prefix__st2" d="M47.4 62.3c.2.7.7 1.5-.6 1.8-1 .8 1.3 2.2-.2 3.5-.6-.4-.7-.9-.7-1.8-.4.8-1.5.5-.9 1.8.4.8-.7 0-1.1.2-.7-1.8-1.8 1.1-3.1.8.6-.9.1-1.8.2-2.7 1-.1 2.1-.1 1.4-1.7-.9-2 3.1-1.9 2.6-4.1 0 .9 2 .6 1.2 2-.3.1-.9-.2-.8 0 .3.9-.5 1.6-.7 2.7.9-.7 1.4-1.2 1.5-2.1.4-.2.7-.8 1.2-.4z"/><path class="prefix__st10" d="M65.5 69.4c0-.6-1.1-.9-.5-1.5.2-.2.6-.1.9.1.8.7-.5.8-.4 1.4zM50.8 66.3c-.4.8-1.3-.1-.5-.4.3 0 .5 0 .5.4z"/><path class="prefix__st4" d="M65.1 51.1c-1 .4-1.9.8-2.9 1.1-.8.2-.4 1.7-1.6 1.4-.4-.5.9-2.1-.9-1.5-.8.3-1.3.2-2 0 .2-.4.4-.9.6-1.3 1.3-.7 3 .4 4.1-.9h.6v.3c.8.3 1.4.6 2.1.9z"/><path class="prefix__st6" d="M56.4 44.4c1.6.1 3.9.1 3.8-2.2-.6-.2-1.4.1-2.2-.3 1-.4 2.2-.7.9-1.9 1.3.4 1.9-.1 2-1.4-.5.8-2.1-.1-2 1.4-.7-.1-2.1.4-2.1-.7 0-.8.8-.5 1.3-.5 3.4.1 1.5-5.2 4.6-3.7-2.6-2.7.9-2.2 1-4.5 0-1.1.9-1.1 1.4-.7.8.7 1.5.1 2.2.2.7 1.2.7 4.7-1.6 3.7-1.1-.6-1.5.3-2.1 1.4-.7 1.6 1 2.8.3 4.2-.1.5.8.6 1 .2.3-.3-.5-1 .4-1.1.6.1.7 1.7-.2 2.1-1.3.7-2.3 1.7-3.9 1.7 2.1.8-1.2 2.2-1.8 3.1-1 1-1.9-.2-2.9 0-.1-.4-.1-.7-.1-1zM66.9 31s0-.1-.1-.1l-.1.1s0 .1.1.1c0-.1.1-.1.1-.1zM55.1 46c.2-.4.5-.7 1-.6 0 .9.1 1.8-1.4 1.9.2-.5.3-.9.4-1.3z"/><path class="prefix__st3" d="M32.1 40.1c1.5-.5 1.5-.7.6-1.5-.1-1 .6-1.2 1.3-1.3.9.7.3 2.9 1.8 2.6.2.4.5.8.7 1.2-.9-.1-1 .6-1 1.3-.3 0-.6-.1-.9-.1-.3-1.4-2.1-.8-2.5-2.2z"/><path class="prefix__st7" d="M35.6 42.4c0-.7.1-1.3 1-1.2 1.5 0 2.9-.9 4.5-.3.2.8-.7 1-1 1.6-1.5.3-3-.1-4.5-.1z"/><path class="prefix__st6" d="M41 40.9c-1.5-.5-3 .3-4.5.3-.2-.4-.5-.8-.7-1.2 1.4-1.7-1.5-2.7-.2-4.1 2.3-.1.6 4 4.4 4.1.7.1.7.5.9.8.2-.1.2 0 .1.1z"/><path class="prefix__st3" d="M51.3 40.6c.1 1.9-1.3 1.1-2.2 1.2-.4-1-1.9-.9-2-2.2 6.6-1.6 1.6-3.6 4.6-3.5 1.8.1.7 2.4-.6 2.5-.8.3-1.6.4-1.4 1.5-1 1.5.9.7 1.6.5z"/><path class="prefix__st6" d="M42 35.8c.6-.3 1.3-.6 1.9-.1-.4 3.1 2.3-.5 2.3 1.6-.9 0-1.7.6-2.7-.1-1.6-.3-2.3 1.7 0 1.3-1 1.7-2-.7-3.3-.3-.2.1.2-1.1.1-1.7.6.1 1.6.7 1.7-.7z"/><path class="prefix__st7" d="M43.3 38.6c-2.3.3-1.5-1.5 0-1.3 1.8 1.2 3.2-.9 4.9-.2.9.8-1.3 1.3-1 2.6h-.3c-.2-.3-1.1.6-.9-.6 0-.4-1.4-.7-2.3-.3-.1-.2-.2-.1-.3 0h-.1v-.2z"/><path class="prefix__st6" d="M43.6 38.6c.1-.2.2-.2.3 0h-.3zM41.6 40.3c.1 0 .2-.1.3-.1 0 .2-.1.2-.3.1zM35.2 36.4c.1 1.4 1.7 2 .6 3.5-1.6.3-.9-1.9-1.8-2.6 0-.7-.3-1.4.1-2.1.8.2.4 1.2 1.1 1.2z"/><path class="prefix__st5" d="M58.3 50.8c-.3.5-.4 1.2-.9 1.6-1.5-.7-4.6.4-5.3 1.6.7 1.1-.2 1.1-.8 1.3-.7-.6-1.3-.3-2.1-.2 0 .6 1 .5.6 1.1-.1.2-.1.5-.4.3-1.2-.7-1.6.5-2.3 1-.7.4-1.8-.3-2.1 1-.5-.4-1.2-.3-1.8-.3.3-3.2-.9-4.8 3.4-4.3.9 0 2.1.4 2.6-.9 3.4.2 2-4.4 5.5-2 .4.2.7.4 1 0 .5-.8 1.3-.7 2-.7.1.4.4.5.6.5z"/><path class="prefix__st1" d="M58.3 50.8c-.9.2-.7-1.4 0-1.2 1.6.6 2.7-1.4 4.2-.7 1 2.3-3.2 1.3-4.2 1.9zM43.2 56.9v1.6c-.4.2-.8.4-1.2.3 0-.9-.1-1.9 1.2-1.9z"/><path class="prefix__st9" d="M47.1 57.5c.7-.5 1.1-1.7 2.3-1 .3.2.3-.2.4-.3.4-.7-.7-.5-.6-1.1.7-.1 1.4-.4 2.1.2.1.3-.1 1 .6.6.9-.5 3.4-.4 2.1-2.1 1 0 1.4.8 2.1 1.1-4.2 6.3-1.7 2.5-4.5 2.6-.7.2-.3.6-.2 1.1.1.6-.8.3-1.2.7-.8.7-1.1 2.4-2.7 2 0-.3-.7-.9.2-.8.7.1.6-.3.8-.7.3-.6-.3-.4-.5-.6-.3-.4-.8-1-.9-1.7z"/><path class="prefix__st10" d="M46.2 62.6c0 .9-.6 1.4-1.5 2.1.2-1.1 1-1.8.7-2.7-.1-.2.5 0 .8 0v.6z"/><path class="prefix__st8" d="M43.2 34.5c-2.1-1-.9-2.4-4.3-2.4-2.6-.1.6 4.3-.4 5.4-.3.1-.6-.1-.6-.3.2-2.4-2-3.7-2.3-5.6 2 .3 3.5-1.8 5.2-2.7.6-.3 2.7.2 2.6.6-.2.8.4 1.7-.5 2.5-.7.6.1.8.6.9v.6c-.3.3-.2.6-.3 1z"/><path class="prefix__st5" d="M37.2 31.3c-.5.5-1 .3-1.6.3-.1-.7-.1-1.4.6-1.9.7 0 .5-.7.9-1 .4.1.9.2 1.3.3.3 1.3-2.1 1-1.2 2.3z"/><path class="prefix__st1" d="M37.2 28.7c-.4.2-.3 1-.9 1V29c.4-.9-.9-1.5 0-2.3.3-.2.8-.5 1.2-.4l.4.4c-.4.4-.3.9-.3 1.3-.3.2-.4.4-.4.7z"/><path class="prefix__st9" d="M35.9 27.2c-.2.7.7 1.2.3 1.9-.7.1-1.5.1-2.3-.1.7-.7 1.4-1.3 2-1.8z"/><path class="prefix__st7" d="M42 35.8c-.1 1.5-1.1.9-1.9.9-1.4-.8 1.4-.8 1.9-.9z"/><path class="prefix__st8" d="M43.9 35.8l-.6-.3v-.9h1.2c0 .3.1.6.1.8-.2.3-.4.3-.7.4z"/><path class="prefix__st5" d="M35.3 25.2c-1.5-1.1-3.2 1-4.5-.3v-.1c.7 0 .7-.4.6-.9.1-.1.2-.2.3-.4.9 1 1.9-.1 2.4-.3 1.6-.7 3.7-1.1 4.5-3.1.4-.1.8-.2 1.2-.4.2.1.4.2.7.3.2 1-1 1.4-1 2.3-.9.5-1.5 1.4-2.6 1.6-.5.1-.6.7-.6 1.2-.4.1-.7.1-1 .1z"/><path class="prefix__st8" d="M45.8 17.3H47c.2.3.7.1 1 .3.1.3.3.6.7.6.3 1.3 2.3 1 2.4 2.5-2.5 0-5.2-.1-7.8.3-.1-1.4 1.8-1.6 1.6-3.1.4-.1.7-.2.9-.6z"/><path class="prefix__st1" d="M44.9 17.9c.2 1.4-1.7 1.8-1.6 3.1-.9.1-1.6.6-2.3 1.2-.4.1-.9 0-1.3.2h-.3c0-.9 1.2-1.3 1-2.3.2-.2.3-.4.3-.7.9-1 2.8-.3 3.6-1.5h.6z"/><path class="prefix__st10" d="M44.3 17.9c-.9 1.4-2.6.5-3.6 1.5-.4 0-.7 0-1 .3-1.6.3-3.1 1.1-4.6 1.7 1.2-2.2 7-4.7 9.2-3.5z"/><path class="prefix__st5" d="M31.8 22.9c.1-.1.1-.3.2-.4-.1.1-.1.3-.2.4z"/><path class="prefix__st8" d="M31.4 23.9c.1.5.1.9-.6.9-.1-.5.2-.7.6-.9z"/><path class="prefix__st0" d="M35.9 27.2c-.6.6-1.3 1.1-1.9 1.7-.1-.4-.3-.8-.4-1.1.1-.4.4-.7.3-1.1.3-.1.5-.1.8-.2.7-.4 1 .5 1.6.4-.2 0-.3.1-.4.3z"/><path class="prefix__st4" d="M36.2 26.8c-.6.1-.9-.8-1.6-.4-.1-.5.4-.8.6-1.2h.9c.2.4.5.8.7 1.2-.1.1-.3.3-.6.4z"/><path class="prefix__st8" d="M49.7 40.2c-.2-1.1.6-1.3 1.4-1.5 1.3-.1 2.3-2.4.6-2.5 0-.3 0-.8.2-.9 1.2-.5 1.4-1.8 2.2-2.6.9-.8.8-1.4-.6-1.5.7-1.4-.8-1-.4-1.9.8-.7 1.5 2.1 2 .5 2-1.6-.7-4.9-3.2-3.8-.2-.3-.3-.7-.5-1.1.6 0 1.2.3 1.5-.5.1 0 .2 0 .3-.1.5.8 1.7-.1 2.2.7 1.4.5 1.8 1.8 2.5 2.9-.4 1.2-2.5 1.3-1.8 3 .2 1.5-1.5 2.1-1.3 3.6-.7 2.6-2 5.1-5.1 5.7z"/><path class="prefix__st6" d="M49.7 40.2c2.6-.6 4.1-2.3 4.8-4.8 1-.1.1-.8.3-1.3.3-.2.6-.2 1 0v1c-.1.1-.2.3-.3.4.3 1.4-1.3 2.1-1.4 3.4-.6.5-1.3 1.1-1.9 1.6-.7-.4-3.7 1.6-2.5-.3z"/><path class="prefix__st0" d="M58 27.8c-.7-1.1-1.1-2.4-2.5-2.9 1.1-.2.2-1.2.8-1.6 1.1.1 1.3 1.2 2.1 1.6.1.5.6.6.9.9.3.6-.5 1.3 0 1.9-.5 0-.9.1-1.3.1z"/><path class="prefix__st11" d="M58.1 34.2c.6.3.9-1 1.5-.3 1.2 1-.8 5.7-2 3.4.2-1 .3-2.1.5-3.1z"/><path class="prefix__st6" d="M54.1 38.9c.1-1.3 1.6-2 1.4-3.4.1-.1.2-.3.3-.4v-1c.3-.2.1-.8.7-.6.2.7-.6 1.7.6 2.2-.1.3-.2.6-.3 1-.3.2-.6.4-.7.7-1.1-.1-1 1.4-2 1.5z"/><path class="prefix__st11" d="M54.1 38.9c.9-.2.8-1.6 1.9-1.5-.7 1.3-1.9 4.2-3.9 3.2.8-.6 1.4-1.1 2-1.7z"/><path class="prefix__st3" d="M56.4 33.5c-.5-.1-.4.5-.7.6-.3-.2-.6-.2-1 0 0-1.3 1.6-1.9 1.3-3.3.8.4 1 1.2 1.2 2-.3 0-.5.5-.8.7zM56.7 36.7c.4-1 .2-2.1.7-3.1 1.5.2.1 2.7.2 3.7-.3-.2-.7-.2-.9-.6z"/><path class="prefix__st11" d="M56.4 44.4c-.9-.4-2.4 1.4-2.5.4 0-1 1.1-.9 1.6-1.2.8-.4.9.2.9.8z"/><path class="prefix__st6" d="M57.4 33.6c-.3.7-.4 1.4-.4 2.1-1.2-.5-.4-1.5-.6-2.2.3-.2.5-.7.9-.6.1.2.1.4.1.7z"/><path class="prefix__st11" d="M54.8 42.2l.9.3c-.8 1.3-2.8.4-.9-.3zM52.8 42.9c-.2.1-.4.2-.4-.2.1 0 .2-.1.3-.1 0 .1 0 .2.1.3zM57.1 43c-.2.1-.3.1-.5 0 .3-.1.4-.3.5 0z"/><path class="prefix__st6" d="M58.6 29s-.1 0-.1-.1l.1.1z"/><path class="prefix__st7" d="M61.3 27c.1.9 1.9.4 1.3 1.6-.2.4-.8.8-1.2.5-1.1-.5 0-1.3-.1-2.1z"/><path class="prefix__st4" d="M59.2 20.7c.4.8.8 1.5 1.6 1.9v.6c-1.2.2-2-1.1-3.1-.9.7-1.3-1.2-2.5 1.5-1.6z"/><path class="prefix__st2" d="M58 20.4c-1.1.1.3 1.4-.4 1.9-.5-.1-1-.2-1.3-.7.3-.6 0-1.4.7-1.9.6 0 1 .1 1 .7z"/><path class="prefix__st9" d="M56.4 18.8c-.3 0-.5 0-.6-.3.1-.9.8-.5.6.3z"/><path class="prefix__st8" d="M57.7 22.3c1.2-.2 1.9 1.1 3.1.9l.6.3v1c-1.2-.8-2.1.5-3.2.3-.8-.4-1-1.5-2.1-1.6 0-.2-.1-.4-.1-.6.6 0 1.2.2 1.7-.3z"/><path class="prefix__st4" d="M48.8 20.7h2.3c-.1-1.6-2.1-1.2-2.4-2.5 1.7.4 3.5.3 4.9 1.6-.4.5-.4.5.6 1.5-.9.3-2-.3-2.8.8.5.5 1.7 0 1.5 1.2-1.4 0-2.5-1-3.8-1.3 0-.5.2-.9-.3-1.3z"/><path class="prefix__st2" d="M52.9 23.3c.2-1.2-1-.8-1.5-1.2.7-1.1 1.9-.5 2.8-.8-1-1-1-1-.6-1.5 1.3 0 1.4 1.3 2.2 1.9-.1.3-.2.6-.3 1-.8.1-2.1-.4-1.6 1.3-.3.2-.7.2-1 .4-.7-.5.3-.8 0-1.1z"/><path class="prefix__st4" d="M55.4 22.6c.1-.3.2-.6.3-1h.6c.3.4.8.6 1.3.7-.6.6-1.4.2-2.2.3zM48.7 18.2c-.4 0-.6-.2-.7-.6.4 0 .6.2.7.6z"/><path class="prefix__st4" d="M55.8 21.7l-.3-.3c.1 0 .2.2.3.3zM47.4 17.5c-.1-.1-.2-.2-.4-.2.2.1.3.1.4.2zM56.1 55c-.7-.3-1.1-1.2-2.1-1.1 1.4 1.9-1.2 1.5-2.1 2.1-.7.4-.5-.3-.6-.6.7-.2 1.5-.2.8-1.3.9-1.2 3.5-2.3 5.3-1.6.3.5.8.9.6 1.6-.8-.2-1.5 0-1.9.9z"/><path class="prefix__st2" d="M58 54c.2-.7-.3-1.1-.6-1.6l.3-.3c.7.3 1.2.3 2 0 1.7-.6.4 1.1.9 1.5-.9.2-1.6 1.5-2.6.4z"/><path class="prefix__st7" d="M59 39.9c-.1-1.5 1.6-.6 2-1.4-.1 1.3-.7 1.8-2 1.4zM66.9 31l-.1.1-.1-.1.1-.1s.1 0 .1.1z"/><path class="prefix__st6" d="M53.5 31.2c3.3.1-2 3.8-1.8 5-3 0 1.9 1.7-4.3 3.5 0-.9.6-1.4 1.1-1.9.5-.4-.2-.4-.1-.7.1-1 1.1-1.8.9-2.9 1.8-.9 1.7-3.4 4.2-3z"/><path class="prefix__st3" d="M49.3 34.1c.2 1.1-.8 1.9-.9 2.9-.8-.5-1.5.1-2.2.3 0-2.1-2.5 1.5-2.3-1.6.3 0 .5-.1.7-.4.1 0 .2.1.3.1 1.2 1.1 2.3.8 2.9-.7.7.3.9-.5 1.5-.6z"/><path class="prefix__st1" d="M37.2 31.3c-1-1.4 1.6-1 1.2-2.3.7-.1 1.2-.5 1.3-1.3.1-.3.4-.3.7-.3 1.7.4 2.3-1 3.2-1.9l4.5-.3c.2 1.1 1.9.1 1.9 1.2-1.8 0-2.2 1.5-3.1 2.6 2.4.5 2.4.5 1.5 1.5-.6-.1-1.3-.3-1.9-.3-1-.8-1.6 0-1.6 1-.9.2-.9 1-1.3 1.6-.6-.1-1.3-.3-.6-.9.9-.8.3-1.7.5-2.5.1-.4-2-.9-2.6-.6-1.4.7-2.3 2-3.7 2.5zm8.8-3c1-1.2 1-1.2.3-2 0 .7-.6 1.2-.3 2z"/><path class="prefix__st4" d="M43.5 32.9c.4-.6.4-1.4 1.3-1.6.3.9-.7 1.4-.7 2.3h-.6c.1-.3.1-.5 0-.7z"/><path class="prefix__st1" d="M43.6 33.5h.6v.9h-.9c0-.3-.1-.6.3-.9z"/><path class="prefix__st9" d="M39.8 27.8c-.2 1.4-1.6 1.4-2.6 1 0-.3.1-.5.3-.6.8.2 1.5-.8 2.3-.4z"/><path class="prefix__st0" d="M36.9 26.4c-2.1-2.3 1.3-2.7 2.5-4h.3c.2.2.3.2.4-.1.3 0 .6-.1.9-.1 0 .7.5.7 1 .8-.9 1.9-3.6 2.1-4.6 3.5-.1-.1-.3-.1-.5-.1z"/><path class="prefix__st4" d="M37.5 26.4c1-1.2 3.1-1.4 4.2-2.9.1.7.4 1.2 1.3 1-.7 1.5-2.3 1.5-3.5 2.2-.6-.1-1.6.3-2-.3z"/><path class="prefix__st10" d="M37.8 26.8c.9.1 2.2-.3 2.6.7-.3 0-.5.1-.7.3-.8-.4-1.4.7-2.3.3.2-.5 0-1 .4-1.3z"/><path class="prefix__st2" d="M44.2 34.5c-.3-1.3 1-2.2.7-3.5 1 .4 3-.2 3.1 1.1-.1.7 0 1.6-1 1.8-.4.1-.9 0-.9.6h-1.9z"/><path class="prefix__st4" d="M44.5 34.5h.7c.1.4 0 .7-.3 1-.1 0-.2-.1-.3-.1-.1-.3-.1-.6-.1-.9z"/><path class="prefix__st9" d="M39.8 19.8c.2-.4.6-.4 1-.3 0 .3-.1.5-.3.7-.3-.2-.5-.3-.7-.4z"/><path class="prefix__st0" d="M48.8 20.7c.5.3.3.8.3 1.3-.2-.1-.5-.2-.7-.3-1.2.6-2.5.2-3.8.3-.2-.3-.7-.4-.7-.9 1.6-.5 3.3-.5 4.9-.4z"/><path class="prefix__st10" d="M43.9 21c0 .5.5.6.7.9-.1.2-.1.4-.2.5-.5.1-.7.1-1.2.1-.6-.6-1-.2-1.3.4-.5 0-1-.1-1-.8.7-.8 1.9-1.4 3-1.1z"/><path class="prefix__st5" d="M40.1 22.3c-.1.2-.2.2-.4.1.1-.1.2-.1.4-.1zM48.4 21.7c1.5.4 2.9 1.3 4.5 1.6.4.3-.7.7 0 1-.2.8-.9.4-1.5.5.2.4.4.8.5 1.1.9 0 .2 1.3.9 1.3 1.2 0 .8.7.7 1.3-.2.4-.4 0-.6 0-.2-.4-.5-.6-1-.6 0-.6-.5-.6-1-.6 0-.6-.5-.6-1-.6-.2-1.2-1.7 0-1.9-1.2l2.4-.3c-.3-.6-1-.8-1.1-1.4.5-1.3-.8-1.4-.9-2.1z"/><path class="prefix__st4" d="M53.5 28.4c.1-.6.5-1.3-.7-1.3-.7 0 0-1.2-.9-1.3 2.6-1 5.2 2.1 3.2 3.8-.3-.7-.5-1.5-1.6-1.2z"/><path class="prefix__st1" d="M53.5 28.4c1.1-.3 1.3.5 1.6 1.3-.6 1.6-1.1-1.1-2-.5-.5.9 1.1.5.4 1.9-.3 0-.6 0-.9.1-.2-1.5-2.2-2.2.3-2.9.2.1.4.4.6.1z"/><path class="prefix__st9" d="M55.4 22.6h.7c0 .2.1.4.1.6-.6.4.3 1.5-.8 1.6-.2-.4-.6-.3-.9-.4-.1-.4-.3-.6-.7-.6-.4-1.6.8-1.1 1.6-1.2z"/><path class="prefix__st5" d="M53.8 23.9c.4 0 .6.2.7.6-.5 0-1 .2-1.3-.3l.6-.3z"/><path class="prefix__st3" d="M54.8 34.5c-.1.3.6.9-.3 1 0-.4-.1-.8.3-1zM55.8 35.1c-.1.1-.2.3-.3.4.1-.1.2-.2.3-.4z"/><path class="prefix__st8" d="M52.9 28.4c-2.4.8-.6 1.3-.3 2.9-.6 0-1 .3-1.3.7-.4 0-.8-.9-1.1 0-.3.8-.9 1.4-.9 2.3-.6.1-.9.8-1.5.7v-.3c1.1-1.1 1.5-2.4.6-3.9.8-1 .8-1-1.5-1.5.7-1.3 2.8-4 4.1-2-.2 1.9 1.3-.3 1.9 1.1z"/><path class="prefix__st3" d="M49.3 34.1c0-.9.6-1.5.9-2.3.3-.9.7 0 1.1 0-.8.8-.8 2.1-2 2.3z"/><path class="prefix__st4" d="M47.8 34.5c-.2 1.6-1.7 2.1-2.9 1 .3-.3.3-.6.3-1h1c.5.6 1-.3 1.6 0z"/><path class="prefix__st2" d="M49.4 23.6c.1.6.8.8 1.1 1.4-2.4.3-4.5.4-6.9.6-.1-.3-.2-.7-.3-1l.6-.6c1.5-.1 3 .1 4.5-.3.2.4.6-.3 1-.1z"/><path class="prefix__st4" d="M47.8 34.5c-.5-.3-1.1.6-1.6-.1.1-.6.5-.5.9-.6 1-.2.9-1.1 1-1.8-.1-1.3-2.3-.7-3.1-1.1.2-1 .7-1.3 1.6-.7.1.2.2.2.3 0 .5.1 1.1.2 1.6.3.8 1.6.4 2.9-.7 4z"/><path class="prefix__st9" d="M43.3 24.5c.1.3.2.7.3 1-.9.9-1.5 2.3-3.2 1.9-.2-.4-.5-.7-1-.7 1.4-.7 2.9-1 3.8-2.5.1.1.1.2.1.3z"/><path class="prefix__st8" d="M46 28.3c-.3-.8.2-1.3.3-2 .8.8.8.8-.3 2z"/><path class="prefix__st2" d="M46.8 30.3c-.1.2-.2.2-.3 0h.3z"/><path class="prefix__st1" d="M43.3 24.2l-.3.3c-.8.2-1.1-.3-1.3-1 .1-.2.3-.4.4-.6.5 0 .9.1 1.3-.4h.7l.3.9c-.2.3-.7.8-1.1.8z"/><path class="prefix__st8" d="M44.3 23.5l-.3-.9c1.5-.2 3 .2 4.4-.9.1.7 1.4.9 1 1.9-1.5.3-2.9.3-4.5.4-.2-.2-.4-.4-.6-.5z"/><path class="prefix__st5" d="M47.8 22c-1 .8-2.2.4-3.3.5.1-.2.1-.4.2-.5h3.1z"/><path class="prefix__st0" d="M43.3 22.6c-.4.4-.8.4-1.3.4.3-.6.7-1 1.3-.4z"/><path class="prefix__st1" d="M51.9 27.7c-.9.7-.9 0-1-.6.5 0 1 0 1 .6z"/><path class="prefix__st9" d="M44.3 23.5c.2.1.4.3.6.4h-1c.1-.1.2-.3.4-.4z"/><path class="prefix__st4" d="M43.3 24.2h.3l-.3.3v-.3z"/><path class="prefix__st5" d="M48.4 23.6h.4c-.2.2-.3.2-.4 0z"/></g></g></svg>