<?xml version="1.0" encoding="utf-8"?>
<!-- Generator: Adobe Illustrator 24.3.0, SVG Export Plug-In . SVG Version: 6.00 Build 0)  -->
<svg version="1.1" id="Layer_1" xmlns="http://www.w3.org/2000/svg" xmlns:xlink="http://www.w3.org/1999/xlink" x="0px" y="0px"
	 viewBox="0 0 100 100" style="enable-background:new 0 0 100 100;" xml:space="preserve">
<style type="text/css">
	.st0{fill:#7F5736;}
	.st1{fill:#E5E5E5;}
	.st2{fill:none;}
	.st3{fill:#C59562;}
	.st4{fill:#A07449;}
	.st5{fill:#492C17;}
	.st6{fill:#654225;}
	.st7{fill:#ABA6A3;}
	.st8{fill:#DDDAD9;}
	.st9{fill:#CDCCCA;}
</style>
<g id="Layer_3">
	<path class="st0" d="M2.2,36.7c0,0,0.3,11.1,0.3,11.1l3.2,14.5C11.4,71.5,12,76.8,25.1,85c27.4,14.4,51.8,4.8,67.1-19.7
		c3-4.9,7.9-29,5.4-34c0,0-5.9-7.9-5.9-7.9l4.4,12.4c0,0-2.4,9.2-5.3,11.9c-9.9,7.5-28.7,15.1-42,16c-16.4-2.3-24.4-6.2-37.4-12.2
		C8.6,48,3,40.3,2.2,36.7z"/>
</g>
<g id="Layer_2_1_">
	<path class="st1" d="M50.1,10c59.9,0.6,59.9,49.6,0,50.2C-9.8,59.6-9.8,10.6,50.1,10z"/>
</g>
<g id="svg2" inkscape:export-filename="C:\Documents and Settings\Elembis\My Documents\Images\Shartak\Shartak.com\banana.png" inkscape:export-xdpi="25.797226" inkscape:export-ydpi="25.797226" inkscape:version="0.44" sodipodi:docbase="C:\Documents and Settings\Elembis\My Documents\Images\Shartak\Shartak.com" sodipodi:docname="bananas3.svg" sodipodi:version="0.32" xmlns:cc="http://web.resource.org/cc/" xmlns:dc="http://purl.org/dc/elements/1.1/" xmlns:inkscape="http://www.inkscape.org/namespaces/inkscape" xmlns:rdf="http://www.w3.org/1999/02/22-rdf-syntax-ns#" xmlns:sodipodi="http://sodipodi.sourceforge.net/DTD/sodipodi-0.dtd" xmlns:svg="http://www.w3.org/2000/svg">
	<g>
		<path class="st2" d="M73.4,46.5c0.3,2.8,1.5,4.1,3.8,3.9C75,50.6,73.8,49.3,73.4,46.5z"/>
		<path class="st2" d="M42.7,9.8c0.1,0,0.3,0,0.5,0C43,9.8,42.8,9.8,42.7,9.8z"/>
		<path class="st2" d="M21.3,47.5c0,0.4,0,0.8-0.3,1.4l0,0C21.3,48.3,21.4,47.9,21.3,47.5z"/>
		<path class="st2" d="M47,53.8c-3.4-0.7-6.8-1-10.1-2.1c0.1-0.5-0.2-1.1-0.4-1.7c0.2,0.6,0.5,1.1,0.4,1.7
			C40.2,52.9,43.6,53.2,47,53.8z"/>
		<path class="st2" d="M85.1,51.7c0.2-0.3,0.3-0.7,0.2-1l0,0C85.3,51.1,85.3,51.5,85.1,51.7z"/>
		<path class="st2" d="M72.7,57.8c0.1,0,0.2-0.1,0.3-0.3c2.6-0.7,5-2.1,7.4-3.4c-2.4,1.3-4.7,2.7-7.4,3.4
			C72.9,57.7,72.8,57.8,72.7,57.8z"/>
		<path class="st2" d="M28.8,58.3c0.6,0.3,1.4,0.2,2.1,0.2C30.2,58.5,29.5,58.5,28.8,58.3z"/>
		<path class="st2" d="M59.9,59c-0.6,0.3-1.1,1-1.7,1.4c2.6-2.8,6.7-1.9,10-3.5C65.5,58,62.7,58.1,59.9,59z"/>
		<path class="st2" d="M21.3,47.2c-0.1-0.2-0.1-0.3-0.2-0.5C21.1,46.9,21.2,47,21.3,47.2z"/>
		<path class="st2" d="M8,25.2c0-0.2,0-0.3,0-0.4C8,24.8,8,25,8,25.2z"/>
		<path class="st2" d="M38.3,60.6c-0.3-0.4-0.7-0.8-1-1.1c0.7,0.8,1.4,1.7,2.5,1.6C39.3,61.1,38.8,61,38.3,60.6z"/>
		<path class="st2" d="M50.3,54.7c0.3,0,0.7,0,1,0C50.9,54.7,50.6,54.7,50.3,54.7L50.3,54.7z"/>
		<path class="st2" d="M41.2,60.4c0.6,0.1,1.3,0.1,1.9,0.2C42.4,60.6,41.8,60.5,41.2,60.4L41.2,60.4z"/>
		<path class="st2" d="M70.1,47.1c1.1-0.3,2.2-0.7,3.3-1C72.3,46.4,71.2,46.8,70.1,47.1z"/>
		<path class="st2" d="M6.3,43.8c0.3,0.4,0.7,0.6,1.3,0.7C7,44.4,6.6,44.2,6.3,43.8z"/>
		<path class="st2" d="M52.8,61.3c0.3,0,0.7-0.1,1-0.3c0.8,0,1.5-0.1,2.3-0.1c-0.8,0-1.5,0.1-2.3,0.1C53.5,61.2,53.1,61.3,52.8,61.3
			z"/>
		<path class="st2" d="M35.4,59.2c0.6,0,1.3,0.2,1.9,0.2C36.6,59.3,36.1,59.2,35.4,59.2z"/>
		<path class="st2" d="M78.6,37c0.2,0.9,0.5,1.8,1.4,2.3c-0.3,1.2-0.9,2.2-1.6,3c0.7-0.8,1.3-1.8,1.6-3C79.1,38.8,78.8,37.9,78.6,37
			z"/>
		<path class="st2" d="M27.7,55.5c1.3,0.8,2.9,1.1,3.5,2.6l0,0C30.5,56.6,28.9,56.3,27.7,55.5z"/>
		<path class="st2" d="M32.3,58.9L32.3,58.9c0.3,0.2,0.6,0.3,0.8,0.4C32.9,59.2,32.6,59.1,32.3,58.9C32.4,59,32.3,59,32.3,58.9z"/>
		<path class="st2" d="M28.8,58.3c-0.3-0.1-0.5-0.2-0.7-0.5C28.3,58,28.6,58.2,28.8,58.3z"/>
		<path class="st2" d="M36.5,50c-0.1-0.4-0.2-0.8-0.1-1.2C36.3,49.2,36.3,49.6,36.5,50z"/>
		<path class="st2" d="M20.1,17.1c-0.1-0.7,0.1-1.1,0.4-1.4C20.1,16,20,16.4,20.1,17.1c2.7-1.2,5.5-2.5,8.2-3.7
			C25.5,14.6,22.8,15.9,20.1,17.1z"/>
		<path class="st2" d="M28.3,13.4C28.3,13.4,28.2,13.4,28.3,13.4L28.3,13.4z"/>
		<path class="st2" d="M18.1,17.7c-0.4,0.1-0.7,0.2-1.1,0.2C17.4,17.9,17.8,17.8,18.1,17.7L18.1,17.7z"/>
		<path class="st2" d="M94,30.6L94,30.6c-0.2,0.5-0.4,1-0.6,1.5C93.6,31.6,93.8,31.1,94,30.6z"/>
		<path class="st2" d="M83.2,17.4c0.1-0.1,0.2-0.2,0.3-0.3C83.3,17.2,83.2,17.3,83.2,17.4z"/>
		<path class="st2" d="M20.5,15.6c0.2-0.2,0.4-0.3,0.7-0.5C20.9,15.3,20.7,15.4,20.5,15.6z"/>
		<path class="st2" d="M89.6,46.8c0.4-0.2,0.7-0.4,1.1-0.6c-1.1,0.8-2.5,0.7-3,2.1c-0.5,0-0.8,0.1-1.2,0.4c0.3-0.2,0.7-0.4,1.2-0.4
			C87.9,47.3,88.8,47.1,89.6,46.8z"/>
		<path class="st2" d="M58.3,9.4c-0.2,0.1-0.2,0.4-0.4,0.6l0,0C58.1,9.9,58.2,9.6,58.3,9.4z"/>
		<path class="st2" d="M29.4,11.6c-0.1,0.1-0.2,0.2-0.3,0.3l0,0C29.3,11.8,29.4,11.7,29.4,11.6z"/>
		<path class="st2" d="M28.2,13.3L28.2,13.3c-0.2-0.5-0.3-0.9-0.5-1.4L28.2,13.3z"/>
		<path class="st2" d="M61.9,10.2c0,0.3,0.1,0.6,0.1,0.9l0,0C61.9,10.8,61.9,10.5,61.9,10.2z"/>
		<path class="st2" d="M83.1,18c0-0.2,0-0.4,0.1-0.5C83.1,17.6,83.1,17.8,83.1,18c0.8,0.1,1.5,0.1,2.3,0.2
			C84.6,18.1,83.8,18,83.1,18z"/>
		<path class="st2" d="M82.4,51.2h-0.9C81.8,51.2,82.1,51.2,82.4,51.2z"/>
		<path class="st2" d="M79.1,52.2c0.2,0,0.4-0.1,0.7-0.1C79.5,52.1,79.3,52.2,79.1,52.2c-1.1,0.8-2.3,1.4-3.5,2
			C76.8,53.7,78,53,79.1,52.2z"/>
		<path class="st2" d="M34.6,59.3c-0.3,0.1-0.6,0.1-0.9,0.1C34,59.4,34.3,59.4,34.6,59.3z"/>
		<path class="st2" d="M81.6,50.9c-0.2,0.7-1.2,0.9-1.8,1.2c0.6-0.2,1.2-0.5,1.7-0.9C81.5,51.1,81.6,51,81.6,50.9z"/>
		<path class="st2" d="M52.2,59.9c0-0.2,0.1-0.5,0-0.7C52.3,59.5,52.3,59.7,52.2,59.9L52.2,59.9z"/>
		<path class="st2" d="M67.7,48.3C67.7,48.4,67.8,48.4,67.7,48.3C67.7,48.5,67.7,48.4,67.7,48.3z"/>
		<path class="st2" d="M95.4,41.2c0-0.2,0-0.3,0-0.4C95.5,40.9,95.4,41.1,95.4,41.2z"/>
		<path class="st2" d="M8.5,26.3L8.5,26.3c0.2,0,0.4,0.1,0.5,0.1C8.9,26.3,8.7,26.3,8.5,26.3z"/>
		<path class="st2" d="M8,25.3c-0.2-0.1-0.5-0.2-0.7-0.3c0.4,0.2,1.1,0.4,1.2,0.9C8.4,25.7,8.3,25.5,8,25.3z"/>
		<path class="st2" d="M95.4,41.2c0,0.2,0,0.3,0,0.4l0,0C95.4,41.5,95.4,41.4,95.4,41.2z"/>
		<path class="st2" d="M89.7,48c0.8-0.4,1.9-0.6,2.3-1.5C91.6,47.4,90.5,47.5,89.7,48L89.7,48z"/>
		<path class="st2" d="M43,60.8L43,60.8C43,60.7,43,60.7,43,60.8z"/>
		<path class="st2" d="M13.3,20.6c0,0.1,0,0.2,0,0.4c-0.2,0.3-0.3,0.6-0.5,0.8c0.2-0.3,0.3-0.6,0.5-0.8
			C13.3,20.9,13.3,20.8,13.3,20.6z"/>
		<path class="st2" d="M18.1,17.7c0,0.3-0.1,0.6-0.1,0.9c-0.3,0.2-0.6,0.3-0.9,0.5c0.3-0.2,0.6-0.3,0.9-0.5
			C18.1,18.3,18.1,18,18.1,17.7z"/>
		<path class="st2" d="M13.5,51.3c0.1,0.1,0.2,0.2,0.3,0.3C13.7,51.5,13.5,51.4,13.5,51.3z"/>
		<path class="st2" d="M14.3,25.9C14,26,13.8,26,13.5,26C13.8,26,14,26,14.3,25.9z"/>
		<path class="st2" d="M7.6,44.5L7.6,44.5c0.3,0.7,0.6,1.2,1.1,1.8c-0.2-0.3-0.3-0.5-0.6-0.7C8,45.2,7.8,44.9,7.6,44.5z"/>
		<path class="st2" d="M13.9,51.7L13.9,51.7L13.9,51.7L13.9,51.7z"/>
		<path class="st2" d="M37.4,10.9c1.2,0.2,2.4-0.4,3.5-0.8c-1.2,0.3-3.3,1.6-4,0.4l0,0C36.9,10.8,37,10.9,37.4,10.9z"/>
		<path class="st2" d="M35.4,13.6c0-0.6,0.1-1.2,0-1.8l0,0C35.5,12.4,35.4,13,35.4,13.6z"/>
		<path class="st2" d="M35.1,11.6c-0.3-0.1-0.7,0.3-1,0.4c-0.2-0.4-0.6-0.7-0.9-0.9c0.4,0.1,0.7,0.4,0.9,0.9
			C34.4,11.8,34.7,11.5,35.1,11.6z"/>
		<path class="st2" d="M12.8,26c-0.2,0-0.5,0-0.7-0.1C12.3,25.9,12.6,26,12.8,26z"/>
		<path class="st2" d="M13.9,51.6L13.9,51.6L13.9,51.6L13.9,51.6z"/>
		<path class="st2" d="M6.1,34.4L6.1,34.4L6.1,34.4z"/>
		<path class="st2" d="M7.5,29.7c0,0.1,0,0.2,0,0.4C7.6,29.9,7.6,29.8,7.5,29.7z"/>
		<path class="st2" d="M7.5,29c0,0.1,0,0.2,0,0.4C7.5,29.2,7.5,29.1,7.5,29z"/>
		<path class="st2" d="M6,30.2c-0.1,0.3-0.2,0.6-0.4,0.9c0,0.2-0.1,0.3-0.1,0.5C5.1,32,4.7,32.1,4.3,32c0.4,0,0.8-0.1,1.2-0.5
			c0-0.2,0.1-0.3,0.1-0.5C5.8,30.8,5.9,30.5,6,30.2z"/>
		<path class="st2" d="M5.2,36.9c0,0.5-0.1,1-0.1,1.5C5.2,37.9,5.2,37.4,5.2,36.9L5.2,36.9z"/>
		<path class="st2" d="M23.9,55.9c0.1,0.1,0.3,0.2,0.4,0.2C24.2,56.1,24.1,56,23.9,55.9z"/>
		<path class="st2" d="M8.5,27.1c0-0.3,0.3-0.5,0.5-0.7c-0.1,0.1-0.3,0.3-0.4,0.4C8.6,26.9,8.6,27,8.5,27.1z"/>
		<path class="st2" d="M10,26.3c-0.3,0-0.6,0-0.9,0l0,0C9.4,26.3,9.7,26.3,10,26.3c0.5-0.4,1.1-0.4,1.7-0.4
			C11.1,25.9,10.5,26,10,26.3z"/>
		<path class="st2" d="M8.4,45c-0.1-0.3-0.3-0.5-0.7-0.5l0,0C8.1,44.5,8.3,44.7,8.4,45z"/>
		<path class="st2" d="M5.2,38.4c0,1.5,0.5,2.8,1.8,3.9c0.2,0.7,0.4,1.3,0.6,2c-0.2-0.7-0.4-1.3-0.6-2C5.6,41.1,5.2,39.8,5.2,38.4z"
			/>
		<path class="st2" d="M8.1,26.5c-0.4,0.3-0.5,0.7-0.5,1.2l0,0l0,0C7.5,27.2,7.7,26.8,8.1,26.5z"/>
		<path class="st2" d="M35.5,14.8c-0.1-0.4-0.1-0.8-0.1-1.2C35.4,14,35.4,14.4,35.5,14.8z"/>
		<path class="st2" d="M41.2,66.2L41.2,66.2c-0.4,0.6-0.8,1.3-1.2,2C40.5,67.5,40.8,66.8,41.2,66.2z"/>
		<path class="st2" d="M41.3,66.2c0.1,0.1,0.3,0.1,0.4,0.2C41.5,66.3,41.4,66.3,41.3,66.2z"/>
		<path class="st2" d="M78.2,16c0-0.1,0-0.1-0.1-0.2l0.1-0.1l-0.1,0.1C78.2,15.8,78.2,15.9,78.2,16z"/>
		<path class="st2" d="M76.4,15.1c3.7,1.9-2.2-1.9-3.5-2.7C74.2,12.8,75.4,14,76.4,15.1z"/>
		<path class="st2" d="M43.1,63.8c-0.2,0-0.3,0-0.5,0l0,0C42.8,63.7,42.9,63.7,43.1,63.8z"/>
		<path class="st2" d="M90.8,27.7c0-0.1,0-0.2,0-0.4c0.4,0.3,0.7,0.6,1.1,0.8c-0.4-0.3-0.7-0.6-1.1-0.8c-0.1-0.3-0.2-0.6-0.2-1
			C90.8,26.7,90.8,27.3,90.8,27.7z"/>
		<path class="st2" d="M44,11c-0.1,0.9,0.2,1.6,0.3,2.5C44.1,12.7,44,11.8,44,11z"/>
		<path class="st2" d="M90.3,29.5c0-0.2,0.1-0.4,0.1-0.7C90.3,29,90.3,29.3,90.3,29.5z"/>
		<path class="st2" d="M64.7,12.7C64.7,12.7,64.6,12.7,64.7,12.7C64.6,12.7,64.7,12.7,64.7,12.7z"/>
		<path class="st2" d="M82.7,18.7L82.7,18.7c1.1,1.3,2.1,2.5,3.2,3.7C84.8,21.2,83.7,19.8,82.7,18.7z"/>
		<path class="st2" d="M32.9,16.1c-0.4,0-0.8-0.1-1.1-0.2C32.2,16,32.5,16.1,32.9,16.1z"/>
		<path class="st2" d="M19.6,56.6c0,0.8,0,1.6,0,2.4c-0.1,0-0.2,0-0.3,0c0.1,0,0.2,0,0.3,0C19.6,58.1,19.6,57.3,19.6,56.6L19.6,56.6
			z"/>
		<path class="st2" d="M42.9,15.3c0-1.5,0.5-2.9,0.1-4.4l0,0C43.4,12.3,42.9,13.8,42.9,15.3z"/>
		<path class="st2" d="M32.9,16.1c0.5,0,1,0.1,1.5,0.1c0.4,0.4,0.7,0.9,1.1,1.3c-0.4-0.4-0.7-0.9-1.1-1.3
			C34,16.2,33.5,16.2,32.9,16.1z"/>
		<path class="st2" d="M21.2,59.6c0.2-0.3,0.4-0.6,0.8-0.7C21.6,59,21.4,59.3,21.2,59.6z"/>
		<path class="st2" d="M43.6,10.6c-0.2,0.1-0.3,0.2-0.5,0.3C43.3,10.5,44.6,10.6,43.6,10.6z"/>
		<path class="st2" d="M18.6,56.2L18.6,56.2c0,0.1,0,0.2,0,0.4c-0.1,0.1-0.2,0.3-0.4,0.4c0.1-0.1,0.2-0.3,0.4-0.4
			C18.6,56.4,18.6,56.3,18.6,56.2z"/>
		<path class="st2" d="M36.9,18.7c-0.5-0.3-0.9-0.7-1.3-1.1c1.1,1.7,3.5,1.8,4.9,0.7C39.4,18.8,38.2,19.5,36.9,18.7z"/>
		<path class="st2" d="M42.7,64.5c0.1,0.1,0.1,0.1,0.2,0C42.9,64.5,42.8,64.5,42.7,64.5z"/>
		<path class="st2" d="M41.7,63.8c0.2,0.2,0.3,0.3,0.5,0.5h0.2h-0.2C42,64.1,41.8,63.9,41.7,63.8z"/>
		<polygon class="st2" points="43.1,63.8 43.1,63.7 43.1,63.7 		"/>
		<path class="st2" d="M63.5,78.6c0.3,0,0.7,0.3,0.9,0.3C64.1,78.9,63.8,78.6,63.5,78.6z"/>
		<path class="st2" d="M48.3,87.3C48.3,87.3,48.4,87.3,48.3,87.3L48.3,87.3L48.3,87.3z"/>
		<path class="st2" d="M47.3,76.1c-0.1,0.4-0.4,0.5-0.9,0.6l0,0C46.9,76.7,47.2,76.5,47.3,76.1z"/>
		<path class="st2" d="M51.4,88.5c-0.1,0.1-0.3,0.2-0.5,0.2C51.1,88.7,51.3,88.6,51.4,88.5z"/>
		<path class="st2" d="M62.8,79.1c0,0.3,0.1,0.5,0.2,0.8C62.9,79.6,62.8,79.4,62.8,79.1z"/>
		<path class="st2" d="M6.2,31.3c0,0.7,0,1.5,0,2.2c0.1,0,0.1,0.1,0.2,0.1c-0.1,0-0.1-0.1-0.2-0.1C6.2,32.8,6.2,32,6.2,31.3
			c-0.2-0.1-0.3-0.1-0.5-0.2C5.8,31.2,6,31.2,6.2,31.3z"/>
		<path class="st2" d="M62.8,78.6L62.8,78.6c0,0.1,0,0.3,0,0.4C62.8,78.9,62.8,78.8,62.8,78.6z"/>
		<path class="st2" d="M51,69.9c-0.1,0-0.1,0-0.2,0C50.9,69.9,50.9,69.9,51,69.9z"/>
		<path class="st2" d="M56.4,80.1c-0.2,0.2-0.4,0.5-0.5,0.7C56.1,80.6,56.3,80.4,56.4,80.1z"/>
		<path class="st2" d="M62.8,78.6c0.2,0,0.3,0,0.5,0C63.1,78.6,63,78.6,62.8,78.6L62.8,78.6z"/>
		<path class="st2" d="M66.3,65.8c-0.3-2-0.6-4-1.5-5.8c2.5-0.8,5.1-1.6,7.6-2.4c-2.5,0.8-5.1,1.6-7.6,2.4
			C65.7,61.8,66,63.8,66.3,65.8z"/>
		<path class="st2" d="M46,88.7c-0.8,0.4-1.4,0-2.1-0.3c1.2,0.9,2.6,0.4,3.4-0.8C46.9,88,46.6,88.7,46,88.7z"/>
		<path class="st2" d="M27.1,75.3c-0.1,0-0.1,0-0.1,0H27.1z"/>
		<path class="st2" d="M47.6,87.4L47.6,87.4L47.6,87.4z"/>
		<path class="st2" d="M50.8,88.7c-0.7-1.1-0.3-2.6-0.5-3.8C50.3,86.1,50.2,87.6,50.8,88.7z"/>
		<path class="st2" d="M34,75.8L34,75.8c0.2-0.2,0.3-0.4,0.5-0.5C34.3,75.4,34.1,75.6,34,75.8z"/>
		<path class="st2" d="M23.5,79.1c0.1-2.1-1.4-4.2-1.3-6.3C22.3,75,23.5,77,23.5,79.1z"/>
		<path class="st2" d="M49.4,76c0,0.1,0,0.1,0,0.2C49.3,76.2,49.4,76.1,49.4,76z"/>
		<path class="st2" d="M53.6,84.8c-0.5,0.4-1.1,0.7-1.9,0.6l0,0C52.6,85.5,53.1,85.2,53.6,84.8z"/>
		<path class="st2" d="M53.6,84.8c0.3-0.2,0.5-0.4,0.7-0.7C54.1,84.3,53.9,84.6,53.6,84.8z"/>
		<path class="st2" d="M49.2,76.6C49.1,76.6,49.1,76.6,49.2,76.6C49.1,76.6,49.1,76.6,49.2,76.6z"/>
		<path class="st2" d="M48.4,87.2L48.4,87.2L48.4,87.2z"/>
		<path class="st2" d="M97.4,48.3c0,0.5,0,1.1,0,1.6l0,0c0,0.1,0.1,0.1,0.1,0.2c-0.1,0-0.1,0-0.2,0c-0.2,0.5,0,1,0,1.5
			c0.2-1.1,0.4-2.3,0.5-3.4C97.8,48.3,97.6,48.3,97.4,48.3L97.4,48.3z"/>
		<path class="st2" d="M59.9,64.3c0.8-0.7,0.4-1.9,0.6-2.8c0.2,0,0.3,0,0.4,0.1c-0.1-0.1-0.3-0.1-0.4-0.1
			C60.3,62.4,60.8,63.5,59.9,64.3z"/>
		<path class="st2" d="M96.7,53.1c0,0.5,0,1,0,1.5c0.2-0.7,0.3-1.4,0.5-2.1C97.1,52.7,97,52.9,96.7,53.1z"/>
		<path class="st2" d="M56,71.7c0-0.2,0-0.5,0.1-0.7l0,0C56,71.1,56,71.4,56,71.7z"/>
		<path class="st2" d="M59.3,67.6c0-0.2-0.2-0.4-0.4-0.5l0,0C59.1,67.2,59.3,67.4,59.3,67.6z"/>
		<path class="st2" d="M95,57.5c-1.8,6.2-5.2,13-10.1,16.8c-0.1,1.8-1.4,2.4-2.9,2.9c-3.4,5.1-9,7.9-14.1,11
			C81.6,82.5,92.1,70.7,96.3,56C95.9,56.5,95.4,57,95,57.5z"/>
		<path class="st2" d="M54.1,73L54.1,73L54.1,73z"/>
		<path class="st2" d="M18.9,80.7L18.9,80.7c0.1-0.1,0.1-0.3,0.1-0.5C19,80.4,19,80.6,18.9,80.7c-5-3.1-8.8-8.6-10.9-13.7
			c-0.8-0.8-1.7-1.4-1.1-2.7C4.7,63.2,5,60.9,4.5,59c-0.9-0.6-0.8-1.5-0.8-2.5C3,55.7,3.2,54.7,3,53.8c-0.4-0.2-0.1-0.8-0.7-1
			c-0.5-0.1-0.8-0.3-1-0.5C3.8,64,10.2,74.2,19.1,81.4c0-0.1-0.1-0.3-0.1-0.4C18.9,81,18.9,80.9,18.9,80.7z"/>
		<path class="st2" d="M51.9,69.6c-0.2,0.1-0.5,0.2-0.7,0.3C51.4,69.8,51.7,69.8,51.9,69.6z"/>
		<path class="st2" d="M51.8,86.8c0,0.3,0,0.6,0,0.9C51.8,87.4,51.8,87.1,51.8,86.8c0.6-0.3,1.2-0.7,1.9-0.6
			C53,86.2,52.4,86.6,51.8,86.8z"/>
		<path class="st2" d="M50.2,89c0.2-0.1,0.4-0.2,0.6-0.3C50.6,88.8,50.4,88.9,50.2,89z"/>
		<path class="st2" d="M58.8,66c0,0.1,0.1,0.1,0.1,0.2C58.9,66.2,58.8,66.1,58.8,66z"/>
		<path class="st2" d="M55.3,86.6c0.2-0.1,0.4-0.4,0.4-0.8l0,0C55.6,86.2,55.5,86.5,55.3,86.6z"/>
		<path class="st2" d="M50.2,73.4c0.2-1.1,0.1-2.3,0.1-3.4l0,0C50.3,71.1,50.5,72.3,50.2,73.4z"/>
		<path class="st2" d="M58.6,65.3c0,0.1,0,0.2,0.1,0.3C58.6,65.5,58.6,65.4,58.6,65.3z"/>
		<path class="st2" d="M51.9,69.6c0.2-0.1,0.4-0.3,0.6-0.5C52.3,69.3,52.1,69.5,51.9,69.6z"/>
		<path class="st2" d="M72.8,78.3c0.2,0,0.4,0,0.6,0.1C73.2,78.4,73,78.3,72.8,78.3z"/>
		<path class="st2" d="M59.9,64.3c-0.1,0.1-0.3,0.2-0.5,0.3C59.6,64.5,59.8,64.4,59.9,64.3z"/>
		<path class="st2" d="M1.6,40.3c-0.1-0.3-0.2-0.7-0.2-1C1.4,39.6,1.5,40,1.6,40.3z"/>
		<path class="st2" d="M14.8,70L14.8,70c0.3,0.2,0.6,0.3,0.9,0.5c0,0.3,0,0.6,0,0.9c0-0.3,0.1-0.6,0-0.9
			C15.4,70.3,15.1,70.2,14.8,70z"/>
		<path class="st2" d="M8,49c0.4,0.5,0.7,0.9,1.1,1.4v0.3c0-0.1,0-0.2,0-0.3C8.7,49.9,8.3,49.4,8,49z"/>
		<path class="st2" d="M6.6,49L6.6,49c0-0.2-0.1-0.4-0.1-0.6C6.6,48.6,6.6,48.8,6.6,49z"/>
		<path class="st2" d="M16.8,74.6c0.2,0.8,0.3,1.7-0.1,2.6c-0.4,0-0.9,0-1.2,0.3c0.3-0.3,0.8-0.3,1.2-0.3C17,76.3,17,75.4,16.8,74.6
			z"/>
		<path class="st2" d="M14.7,69.3c0,0.2,0,0.5,0.1,0.7l0,0C14.7,69.8,14.7,69.5,14.7,69.3z"/>
		<path class="st2" d="M8.1,55.1C8,55.2,8,55.3,8,55.3S8,55.2,8.1,55.1L8.1,55.1z"/>
		<path class="st2" d="M8.6,55.8c-0.1-0.2-0.3-0.4-0.5-0.7l0,0C8.3,55.3,8.5,55.6,8.6,55.8z"/>
		<path class="st2" d="M15.7,62.8L15.7,62.8c-0.3-0.5-0.6-1-1-1.4l0,0C15.1,61.8,15.4,62.3,15.7,62.8z"/>
		<path class="st2" d="M13.3,67.2c0.3,0.1,0.6,0.1,1-0.1c0.4,0.4,0.5,0.9,0.5,1.4c0-0.5-0.1-1-0.5-1.4C14,67.4,13.7,67.3,13.3,67.2z
			"/>
		<path class="st2" d="M6.7,58.4L6.7,58.4L6.7,58.4z"/>
		<path class="st2" d="M8.7,56.7c0,0.2-0.1,0.4-0.1,0.6C8.7,57.1,8.7,56.9,8.7,56.7z"/>
		<path class="st2" d="M6,43.3c-0.1-0.2-0.2-0.4-0.2-0.6C5.8,42.9,5.9,43.1,6,43.3z"/>
		<path class="st2" d="M6.3,43.8c-0.1-0.2-0.2-0.3-0.3-0.5C6.1,43.5,6.2,43.6,6.3,43.8z"/>
		<path class="st2" d="M2.5,42.7L2.5,42.7c-0.1-0.3-0.2-0.5-0.3-0.8C2.3,42.2,2.4,42.4,2.5,42.7z"/>
		<path class="st2" d="M1.9,41.3c-0.1-0.3-0.3-0.6-0.4-1C1.7,40.6,1.8,40.9,1.9,41.3z"/>
		<path class="st2" d="M4.3,48.2c0.1,0,0.2,0,0.2,0C4.5,48.1,4.4,48.1,4.3,48.2z"/>
		<path class="st2" d="M9.2,47c-0.2-0.3-0.3-0.5-0.5-0.8C8.9,46.5,9,46.8,9.2,47z"/>
		<path class="st2" d="M22.3,57L22.3,57L22.3,57z"/>
		<path class="st2" d="M6.3,48.4c0.1,0,0.2,0,0.2,0c-0.2-0.9-0.7-1.5-1.3-2.1c0.6,0.6,1.1,1.2,1.3,2.1C6.5,48.4,6.4,48.4,6.3,48.4z"
			/>
		<path class="st2" d="M15.3,60.2c0.5-0.3,1.1-0.4,1.4-0.8l0,0C16.4,59.8,15.8,59.9,15.3,60.2z"/>
		<path class="st2" d="M38.9,69c-0.1-0.1-0.1-0.2-0.1-0.2C38.8,68.9,38.9,69,38.9,69z"/>
		<path class="st2" d="M49,63.1c0,0.1,0.1,0.2,0.2,0.3C49.1,63.3,49.1,63.2,49,63.1z"/>
		<path class="st2" d="M7.6,61.9C7.8,62,8,62.2,8.1,62.4l0,0C8,62.2,7.8,62,7.6,61.9z"/>
		<path class="st2" d="M48.9,62.5c0,0.1,0,0.3,0.1,0.4C48.9,62.8,48.9,62.7,48.9,62.5z"/>
		<path class="st2" d="M19,80.2c0-0.2,0-0.4,0-0.6C19,79.8,19,80,19,80.2z"/>
		<path class="st2" d="M38.8,68.5C38.8,68.5,38.7,68.5,38.8,68.5C38.7,68.5,38.8,68.5,38.8,68.5z"/>
		<path class="st2" d="M39.6,69.4c-0.2-0.1-0.3-0.1-0.5-0.2C39.2,69.3,39.4,69.4,39.6,69.4z"/>
		<path class="st2" d="M48.9,61.4c0,0.4,0,0.8,0,1.1C48.9,62.2,48.9,61.8,48.9,61.4L48.9,61.4C48.8,61.4,48.8,61.4,48.9,61.4z"/>
		<path class="st2" d="M58.6,61.7c-0.1,0.5-0.1,1-0.2,1.5c-1,0.7-2.3,0.5-3.5,0.6c1.2-0.1,2.5,0.1,3.5-0.6
			C58.5,62.7,58.5,62.2,58.6,61.7z"/>
		<path class="st2" d="M12.4,67.1L12.4,67.1c0-0.1,0-0.2-0.1-0.3C12.4,66.9,12.4,67,12.4,67.1z"/>
		<path class="st2" d="M43.4,62.5c-0.1,0.2-0.1,0.3-0.2,0.5C43.3,62.9,43.4,62.7,43.4,62.5z"/>
		<path class="st2" d="M17.7,59c-0.3,0.1-0.6,0.3-0.9,0.4C17,59.2,17.4,59.1,17.7,59z"/>
		<path class="st2" d="M6.6,59.8c-0.3-0.4-0.3-0.8,0-1.3c-0.3-0.3-0.6-0.7-0.9-1c0.3,0.3,0.6,0.7,0.9,1C6.3,59,6.3,59.4,6.6,59.8z"
			/>
		<path class="st2" d="M10,62.8c0.6-0.4,1.3-0.8,2-1.2C11.3,61.9,10.7,62.4,10,62.8c-0.3-0.5,0-1.4-0.6-1.6
			C10,61.3,9.8,62.3,10,62.8z"/>
		<path class="st2" d="M21.2,68.4c-0.1,0.3,0.2,0.6,1.2,1.2c0,0.3,0,0.6,0,0.9c-0.2,0.1-0.3,0.3-0.4,0.6c0-0.2,0.1-0.4,0.4-0.6
			c0-0.3,0-0.6,0-0.9C21.4,69,21.1,68.7,21.2,68.4z"/>
		<path class="st2" d="M37.1,63.8L37.1,63.8L37.1,63.8z"/>
		<path class="st2" d="M14.7,69.3c0-0.1,0-0.2,0-0.4C14.8,69,14.7,69.1,14.7,69.3z"/>
		<path class="st2" d="M21.2,59.6c-0.1,0.1-0.2,0.3-0.3,0.4C21,59.8,21.1,59.7,21.2,59.6z"/>
		<path class="st2" d="M8.1,61.3c-0.1,0-0.3-0.1-0.5-0.1C7.8,61.3,8,61.3,8.1,61.3z"/>
		<path class="st2" d="M36.4,61.8c0.2,0.2,0.3,0.5,0.4,0.7C36.7,62.3,36.6,62.1,36.4,61.8c-0.6,0-1.2-0.1-1.7-0.1
			C35.3,61.8,35.8,61.8,36.4,61.8z"/>
		<path class="st3" d="M97.2,50.4c0.2-0.2,0.1-0.2,0.1-0.5l0,0l0,0l0,0c0-0.5,0-1.1,0-1.6c-1.7,0.7-2-1.8-3.4-1.5
			c-2,0.1-3.9,5.3-5.6,3.1c-0.1-0.5,1.1-0.8,0.9-1.5c-1.7-0.3-3,0.1-4.1,1.4c0,0.7,0.4,1.8-0.4,2.1c-4,1.6-7.5,4.5-11.8,5.6
			c-0.2,0.4-0.4,0.4-0.6,0c-2.5,0.8-5.1,1.6-7.6,2.4c1.9,3.8,1.1,8.3,2.9,12.2c-2.2-1.4-1.8-3.8-2.7-5.5c-2.3-0.9-1.4-2.6-1.3-4.2
			c-1.2-2.4-1.6-2.5-2.8-0.8c4.3,2.6-1.2,3.8,1.2,5c0.4,0.1,1,0.1,1.2,0.6c0.3,0.7,2.4,1.6-0.5,2.1c-5.9,0.5,0.9,2.9-1.4,5.5
			c0,0.4,0,0.7,0.5,0.9c0.9-0.7,1.8-1.7,2.4,0.3c0.9-0.8,2.2,0.3,3-0.6c1.1-1.5,1.3-0.2,1.7,0.5c2.5-6.7,8.6-5.8,5.3-1.1
			c-1,0.9-3,2.3,0.5,2.5c1,0,0.1,1.6-0.5,1.3c-1.5-0.8-2.5,0.2-2.2,1.9c0.6,0.8,1.6-1.1,2.1,0.3c0.8,1.7-1,2.7-1,4.2
			c3.6-1.9,6.9-4.2,9.1-7.7c-0.3-0.9-1.1-1.4,0.4-1.8c0.8-0.3,1.3-1.5,2.4-1.2c5-3.8,8.3-10.7,10.1-16.8c0-1.1,0.3-1.9,1.4-1.9
			C97.2,53.9,96.2,52,97.2,50.4z M67.6,64c-1.9-1.8-0.6-2.7,0.9-3.6C69,61.8,67.5,62.7,67.6,64z"/>
		<path class="st4" d="M73.4,83.7c0.6-0.9,1-1.8,0.6-2.9c-0.5-1.4-1.5,0.5-2.1-0.3c-1.5-0.6-0.9-2.2-1.6-3.1
			c-0.1-0.1,0.1-0.5,0.3-0.5c1.5-0.3,0.5,1.7,1.4,2.3c0.4-1.1,1.4-0.9,2.2-0.5c0.7,0.3,1.4-1.3,0.5-1.3c-3.5-0.2-1.4-1.6-0.5-2.5
			c3.3-4.5-2.7-5.8-5.3,1.1c-0.4-0.7-0.6-2-1.7-0.5c-0.7,1-2.1-0.2-3,0.6c-0.5-2-1.5-1-2.4-0.3c1.7,1.6-1,2.7-0.9,0.4
			c-0.5-0.8-0.6-3,0.4-1.4c2.2-2.6-4.5-5,1.4-5.5c2.9-0.4,0.8-1.3,0.5-2.1c-0.2-0.5-0.8-0.5-1.2-0.6c-2.3-1.2,3.4-2.8-1.6-5.1
			c0.4,4.1-2.1,2.4-1.8,4.1c0.1,0.4,0.4,1,0.2,1.4c0.8,0.4,0.1,1.3-0.4,0.5c-3.6,0.1-3.9,0.5-2.4,3.4c0-0.1,0.1-0.1,0.1-0.2
			c0,0.1-0.1,0.1-0.1,0.2l0,0c0,0.5,0,1.6-0.9,1c-0.8-0.5-2.5-0.2-2.3-1.9c0.1-0.5,0.4-1,0-1.9c-0.1,0.5-0.5,1.2-1,1.4
			c-0.5,0.3-1,0.3-1.5,0.3c-0.1,1.8,0.4,3.8-1,5.3c0.8,0.1,1.6-1,2.2-0.1c0.5,0.6,0.6,1.5-0.7,1.7c-0.7,0.9,1.1,2.8,2.3,2.4
			c1.2-0.3-0.3-3.1,1.1-3.1c0.7,0,1.9-0.4,2.3,0.7c2.6,3.2-3.4,3.6-0.8,8.8l0,0l0,0c2.2,2,3.5-1.4,5.7-0.9l0,0
			c0-0.1,0.1-0.1,0.1-0.2c0,0.1-0.1,0.1-0.1,0.2c2.6-0.6-1.6-3.9,1.5-6.3l0,0l0,0l0,0l0,0c0.1-0.7,0.2-1.1,0.9-0.5
			c0.4,0.2,1.5-0.1,1.2,0.6c-0.4,1.2-1,0.2-1.7,0.3l0,0c-0.2,0-0.3,0-0.5,0l0,0l0,0l0,0l0,0l0,0c0,0.1,0,0.3,0,0.4
			c-0.2,2.5,4.5,3.8,1.8,6.3c-0.5,0.5-0.4,1.2,0.5,1.5c1,0.3,1.2,1.3,1.7,2c2.2-0.9,4.5-2,6.2-3.8C72.9,84.5,73.1,84.1,73.4,83.7z
			 M54.1,73c0,0.1-0.1,0.3-0.1,0.5c-0.2,0.3-0.4,0.7-0.9,1.1c-0.6-1-1-2.1-1.6-3c0.1,0.1,0.2,0.1,0.3,0.2l0,0
			C52.8,72.1,54.2,72.2,54.1,73L54.1,73z M60.2,73c-0.3-0.2-0.2-0.5,0-0.8c0.1,0.1,0.1,0.2,0.2,0.3C60.3,72.8,60.2,72.9,60.2,73z"/>
		<path class="st5" d="M54.9,91.6c-0.2,0.1-0.4,0.1-0.6,0.2c1.1-0.1,2.2-0.3,3.3-0.5C56.7,90.8,55.9,91.4,54.9,91.6z"/>
		<path class="st5" d="M50.5,90.5c-1.2-1.6-4,1.5-2.1-3.2l0,0c-0.3,0-0.5,0-0.7,0.1l0,0c-1,1.1-2.3,2-3.7,1
			c-1.5-0.7-4.2,0.3-2.7-2.5c0.2-0.3,0.1-1.2-0.6-0.9c-2.7,1.1-4.5,0-6.4-1.9c-0.8-0.7-3,0.1-4.1-1.5c0.8-0.3,1.7,0.1,2.3-0.6
			c-0.4-1-1.9-0.4-2.1-1.6c-3.2,0.1-3.8,0.3-4.3-1.9c1.2,1.4,2.6,0.4,3.7,1c-1.3-4.2,4.5,1.7,4.3-2.8l0,0c-1-0.3-2.4,0-2.8-1.5
			c-0.3,0-0.7,0-1,0l0,0c0.2,0.6,0.5,1-0.4,1c-0.5,0.6-1-0.2-1.5-0.1c-0.4,0-1,0-1.4,0c-1.7-0.6-1,1.4-1.9,1.7c-0.8,0-0.8-3-0.1-3.2
			c-0.3-0.4-1-0.7-0.5-1.4c-0.6-0.8-1.4-1.1-2.4-1l0,0c0.1,2.6,1.4,5.1,1.5,7.6c-0.8,1.5-0.1,2.5-0.8,4.2c1.3-0.4,2.3-2.3,3.3-1.7
			c0.9,1.1-1.2,2.3-1,3.7c7.8,4.5,17.2,7.2,26.7,6.6C51.1,91.8,50.7,91.3,50.5,90.5z M27.1,84.3c-0.2,0-0.4-0.2-0.5-0.3
			c0.3-0.5,0.7-0.4,1.2-0.1C27.4,84.1,27.2,84.3,27.1,84.3z"/>
		<path class="st4" d="M16.6,77.2c1.2-2.4-1.4-4.2-1-6.6c-0.3-0.2-0.6-0.3-0.9-0.5l0,0l0,0l0,0c-0.4,1.4-1.1,0.1-1.8,0.4
			c0.7-1.2,1.3-0.3,1.8-0.4l0,0c-0.1-0.2-0.1-0.5-0.1-0.7l0,0c0-0.7,0.1-1.6-0.5-2.2c-0.6,0.5-1.3-0.2-2,0l0,0l0,0l0,0
			c0,0.6,0.1,1.2-0.6,2c-0.3-1.1-0.6-1.8,0.6-2l0,0c0-1.1-1.9-1-1.5-2.2c0.3-1.1,0.8,0,1.2-0.1c0.7-0.1,1.4-0.4,2-0.6
			c0.2-1,0.3-1.9,0.5-2.9l0,0l0,0c-0.2-1.4,1.3-1.3,1.9-2c0.1-0.7-0.8-1.3,0.5-1.5c0-0.7,0.3-0.9,0.9-0.9c0.2-0.1,0.2-0.4,0.5-0.5
			c0-0.1,0-0.2,0-0.4c-1.3-0.1-2.9,1.2-3.3-0.9c-3,0.1-3.6-3.7-6.3-4c-0.7,0.8,0.5,2.2-1,2.4c0,0.5,0,1,0,1.4l0,0l0,0l0,0
			c1.8,1.5-0.4,3.4-0.2,5.1c-1,0.3-1.8-0.6-1.2-1.6c-0.3-0.3-0.6-0.7-0.9-1c0.2,0.5,0,1.2-0.6,1.5c0.5,1.9,0.2,4.2,2.4,5.3
			c1.3,0.2,0.7-1.1,1.2-1.6c0-0.1,0-0.2,0-0.3C8,62,6.9,61.8,7.3,61.3c0.3,0,0.8,0.1,1.2,0.1c1.3-0.7,1.3,0.4,1.5,1.4
			c0.6-0.4,1.3-0.8,2-1.2c0.1,1.4-0.3,2.3-1.9,1.8c-0.2,0.2-0.4,0.4-0.6,0.7c0.3,1.3-0.2,2.4-1.4,3c0.9,0.6,0,1.6,0.7,2.4
			c2.5,2.5,3.6,6.1,6.4,8.4C15.5,77.3,16,77.2,16.6,77.2z"/>
		<path class="st0" d="M22,71c0-0.2,0.1-0.4,0.4-0.6c0-0.3,0-0.6,0-0.9c-1.1-0.7-1.6-1-0.9-1.5c0-1.4,0-2.9,0-4.3
			c-0.9-0.3-0.8,2-2.2,0.7c-0.9-0.8-1.3-1.4-0.7-2.5c0.7-1.2-1.8-1.6-0.9-2.9c-0.3,0.1-0.6,0.3-0.9,0.4c-0.7,0.7-2.2,0.5-1.9,2l0,0
			c0.3,0.5,0.6,1,1,1.4c-0.2-1.6,1.6-1.8,1.4-0.2c0.4,3.4-2.8,2.2-1.4,6.4c1.8,0.2,2.1,1.3,2,2.8c-0.4,1.9,2,3.6,1.1,5.4
			c-1,1.3-2.8-1.1-3.7,0.7c1.2,1,2.3,2.2,3.7,2.9c0.1-0.1,0.1-0.3,0.1-0.5l0,0c0.1-0.5-0.3-1.3,0.6-1.3c1.9,0.1,2.1-1.8,3.4-2.3
			c-0.6-1.7-0.7-3.5-1-5.2l0,0l0,0C22,71.3,22,71.2,22,71z"/>
		<path class="st0" d="M65,86.8c-0.9-0.2-0.9-1-0.5-1.5c2.5-2.6-1.8-3.7-1.8-6.2c0-0.1,0-0.4,0-0.5l0,0c-3,2.2,1.1,5.7-1.5,6.3
			c-2.3-0.6-3.5,3-5.7,0.9l0,0c-0.1,0.6-0.2,0.7-0.6,0.9c-1.4-0.4-1.8-0.8-3.3,0.1c0,0.3,0,0.6,0,0.9c2.1,1.5,4.9,1.8,7,3.4
			c2.7-0.6,5.4-1.3,7.9-2.3C66.2,88.1,66,87.1,65,86.8z"/>
		<polygon class="st0" points="61.3,84.9 61.3,84.9 61.4,84.9 		"/>
		<path class="st0" d="M62.8,78.6L62.8,78.6L62.8,78.6L62.8,78.6z"/>
		<path class="st6" d="M90.6,26.4c0.1,0.3,0.2,0.6,0.2,1c0.4,0.4,0.8,0.6,1.2,0.9c2.1-0.6,1.1,1.6,2,2.3l0,0c1.5,1.3,3.4,3,1.7,4.9
			c-1.2,1.2,2,2,2.3,0.8c0.1-0.6,0.3-0.9,0.8-0.9c-0.1-0.6-0.3-1.3-0.5-2c-0.4-0.1-0.5-0.2-0.1-0.5c-0.6-4.1-2.1-7.7-6-9.7
			C91.7,24.3,91.1,25.4,90.6,26.4L90.6,26.4z"/>
		<path class="st0" d="M37.4,10.9c2.4,0.3,4.8-2.3,7.1-0.5c3.4,0.2,6.7-0.2,10.1,0.1c0.1-0.2,0.3-0.4,0.4-0.7
			c-0.9-0.3-1.7-0.6-1.8-1.6c-5.3,0.1-10.7-0.9-15.9,1c-0.2,0.4-0.3,0.9-0.5,1.3C36.9,10.8,37,10.9,37.4,10.9z"/>
		<path class="st0" d="M3.2,35.2c1.1-0.3,1.1,0.4,0.8,1s1.1,1.9-0.8,1.8c-0.7,0.1-1.1,0.9-1.9,0.8c-0.1,1.5,0.8,2.6,1.2,4
			C3.2,42.2,4,41.6,4.7,41c1.3,0.9,0.7,3.4,2.8,3.6l0,0l0,0l0,0c-0.2-0.8-0.5-1.5-0.7-2.3c-2.3-2-2.1-5.3-1.4-7.9
			c0-1-0.1-1.9-0.1-2.9c-0.7,1.3-2,0.1-2.8-0.5c-0.5,0.9-0.8,1.9-0.7,3C2.5,34.2,2.1,35.5,3.2,35.2z"/>
		<path class="st0" d="M7.6,44.5L7.6,44.5L7.6,44.5z"/>
		<path class="st3" d="M3.1,53.9c0.3-0.4-0.1-1.1,0.6-1.4c0.2,1,3.5,1.5,1,2.2C4,55.1,5,56.3,3.8,56.5c0,0.9-0.2,1.8,0.8,2.5
			c0.6-0.3,0.8-0.9,1.1-1.5c-0.1-0.3-0.5-0.7-0.1-1c0.6-0.4,0.5,0.6,1,0.6c0.2-0.7-0.5-1.9,1-1.9C7.1,53.5,9,54,8.8,52.9
			c0-0.5-0.3-1.2,0.2-1.5l0,0C9.2,50.2,8,48,6.7,49l0,0l0,0C6,51.8,4,51.5,2,50.9c-0.4,0.3-0.7,0.5-0.8,0.8
			C1.2,53.1,2.8,52.6,3.1,53.9z"/>
		<path class="st6" d="M61.9,10.2c0,0.3,0.1,0.6,0.1,0.9c0.3,0,0.5,0.1,0.8,0.1c2.9-2.1,5.4,1.8,8.7,1.1c2.9-0.5,4,3,6.7,3.4
			c1.5-0.1,2.8,0.9,4.2,0.6c-5.7-4.4-12.9-5.4-19.5-7.3c-0.3-0.1-1,0-1.2,0.5l0,0C61.8,9.7,61.8,9.9,61.9,10.2z"/>
		<path class="st0" d="M9.1,26.3L9.1,26.3L9.1,26.3z"/>
		<path class="st0" d="M8,24.7c0,0.1,0,0.5,0,0.7c0.4,0.2,0.5,0.5,0.5,0.9c0.2,0,0.4,0.1,0.5,0.1c2.1-1.2,2.7-3.6,4.1-5.3
			c-0.3-1.9,0.8-1.6,1.9-0.7c0.2-0.1,0.4-0.2,0.6-0.3c0.2-0.6,0.6-1,1.4-1c0.3-0.2,0.6-0.3,0.9-0.5c0-0.3,0.1-0.6,0.1-0.9
			c-1,0.4-1.9,0.2-2.7-0.5c-2.6,0.7-4.5,2.2-6.1,4.3c-1.8,0.2-2,1.6-2.3,3l0,0C7.1,24.9,8,24.5,8,24.7z M9.4,21.4L9.4,21.4L9.4,21.4
			c2.6,0.2,1.3,2.5-0.8,2.7C9.1,23,9.7,22.3,9.4,21.4L9.4,21.4z"/>
		<path class="st0" d="M97.9,36.3c-0.1,1.4-3.4,0.3-2.3-0.8c1.6-2.1-0.1-3.4-1.7-4.9l0,0c-0.2,0.5-0.4,1-0.6,1.5
			c2.1,2.4-0.3,9.1,2,9.6c0-0.6-0.2-1.3,0.7-1.3c1.2,0.2,0.4,2.5-0.8,2.4c-0.4,0.2-0.4,0.6-0.4,1c3,0.2,4.3-6,3.8-8.2
			C98.2,35.5,98.1,35.8,97.9,36.3z M96,39.6c0,0-0.1,0.1-0.2,0C95.2,39.2,96.4,39.3,96,39.6z"/>
		<path class="st7" d="M98.8,37.4c-0.5,2.1-1,6.2-3.9,6.2l0,0l0,0c0.3,1.3-0.4,2.3-1,3.3c1.5-0.3,1.8,2.2,3.4,1.5
			c0.3,0,0.4-0.1,0.6-0.2C98,47.8,98,47.4,98,47c-0.1-0.1-0.1-0.2,0-0.3C97.7,43.7,99.3,40.1,98.8,37.4z"/>
		<path class="st0" d="M85.3,20.6c2.3,0.3,2.3,2.6,3.4,4c0.5,0.1,0.4,0.4,0.5,0.8c0.6,0.1,0.7,1,1.4,1c0.5-1,1.1-2,1.6-3.1
			c-1.9-2.2-4.4-3.7-6.8-5.2C85.6,18.9,85.6,19.8,85.3,20.6z"/>
		<path class="st6" d="M4.3,32c0.4,0,0.8-0.1,1.2-0.5c0.2-0.9,0.7-1.7,0.8-2.7c-0.3-1.1,0.6-1.3,1.3-1.2l0,0c0-0.6,0.3-1.3,0.9-1.4
			l0,0c-2.6-4.3-4.2,3.5-5.9,4.9C3.1,31.4,3.6,32,4.3,32z"/>
		<path class="st0" d="M25.9,81.7c-1-0.6-2,1.3-3.3,1.7c0.6-1.1,0.3-2,0.3-2.8c-1.3-0.2-2.1,1-3.2,1.4c1.6,1.3,3.3,2.4,5.1,3.4
			C24.6,84,26.8,82.8,25.9,81.7z"/>
		<path class="st6" d="M18.1,17.7L18.1,17.7c0.2-0.2,0.3-0.3,0.5-0.4c0.2,0.1,0.3,0.3,0.5,0.4c0.3-0.2,0.6-0.4,0.9-0.5
			c-0.1-0.7,0.1-1.1,0.4-1.4c0,0,0,0,0.1,0c1-1.2,3.7-0.8,3.5-2.8c-3,0.7-6.5,1.7-8.5,4.1C16.2,17.8,17.2,18,18.1,17.7z"/>
		<path class="st4" d="M22.4,14.6c-0.6,0.4-1.5,0.5-2,1.1c0,0,0,0-0.1,0c-0.3,0.3-0.5,0.8-0.4,1.4c2.7-1.2,5.5-2.5,8.2-3.7v-0.1l0,0
			l0,0l0,0l-0.5-1.4c-1.5-0.3-2.4,1.2-3.8,1C24.2,14.2,23.1,14.2,22.4,14.6z"/>
		<path class="st3" d="M3.2,49.8c0.3-2.3,1.8-1.4,3.2-1.4c-0.6-2.3-3.1-3.2-4.1-5.2c-0.2,0-0.4,0-0.6,0c-0.1,0.3-0.2,0.6-0.2,1
			c1.2,0.6,1.2,1.4,0.3,2.4c0,0.4,0,0.7,0,1.1C2.6,48,2.6,48.9,3.2,49.8z"/>
		<path class="st6" d="M23.5,79.1c0.1-0.8,0-1.6-0.5-2.4c-1.3,0.5-1.6,2.4-3.4,2.3c-0.8,0-0.6,0.8-0.6,1.3l0,0c0,0.2,0,0.4-0.1,0.5
			l0,0c0.1,0,0.2,0,0.4,0c-0.1,0.1-0.1,0.2-0.2,0.3c-0.1,0.5,0.4,0.6,0.7,0.9c1.1-0.4,1.9-1.5,3.2-1.4
			C23.2,80.1,23.4,79.6,23.5,79.1z"/>
		<path class="st4" d="M32.3,11.1c0.8-0.2,1.4,0.1,1.7,0.9c0.5-0.2,0.9-0.7,1.4-0.1l0,0l0,0c0.5-0.5,1-0.9,1.4-1.4l0,0
			c0.2-0.4,0.3-0.9,0.5-1.3c-2.4,0.3-4.8,0.6-7.2,0.8C30.6,10.8,31.1,11.6,32.3,11.1z"/>
		<path class="st4" d="M6.3,48.4c-1.3-0.1-2.7-0.8-3,1.4C2.7,48.9,2.7,48,2,47.5c-0.6,1.1,0.1,2.2,0,3.4c2,0.6,4,0.9,4.7-1.9l0,0
			c0-0.2-0.1-0.4-0.1-0.6C6.5,48.4,6.4,48.4,6.3,48.4z"/>
		<path class="st6" d="M55,9.8L55,9.8c0.4-0.2,0.9-0.2,1.4-0.2c0.2,0.2,0.4,0.4,0.6,0.6c0.3,0,0.6,0,1,0c0.5-1.8,2.2,1.3,2.5-1
			c-2.3-1-4.7-1.2-7.2-0.9C53.4,9.3,54.1,9.4,55,9.8z"/>
		<path class="st6" d="M29.5,11.4c0,0.3-0.2,0.4-0.4,0.6c1.3,1.9,3.3,0.5,4.9,1.1c0.3-3.5-3-0.7-3.9-3.2c-0.6,0.1-0.9,0.5-1.1,1
			C29.3,11.1,29.5,11.2,29.5,11.4z"/>
		<path class="st6" d="M2.2,36.7c0,0.5-0.5,0.5-0.9,0.6c0,0.5,0,0.9,0.1,1.4c0.7,0.2,1.3-0.8,1.9-0.8c1.8,0.1,0.5-1.2,0.8-1.8
			s0.2-1.4-0.8-1c-1.1,0.4-0.7-1-1.4-1.2c-0.6,0.5-0.5,1.2-0.5,1.9C1.8,36,2.3,36.1,2.2,36.7z"/>
		<path class="st4" d="M80.9,16.1c-0.9-0.2-1.7-0.6-2.6-0.5l0,0l0,0l0,0c0,0,0,0,0,0.1l-0.1,0.1c0.2,0.1,0.1,0.3,0.1,0.4l0,0
			c0.3,0.6,0.8,0.8,1.4,1c1.2,0.2,1.7,1.6,3.1,1.4c0.1-0.2,0.2-0.4,0.3-0.5c0,0,0.2-0.2,0.2-0.2c0-0.2,0-0.4,0.1-0.5c0,0,0,0,0-0.1
			c0.1-0.1,0.2-0.2,0.3-0.3c-0.3-0.3-0.7-0.6-1-0.9C81.9,16.4,81.4,16.3,80.9,16.1z"/>
		<path class="st3" d="M9.5,64c-0.8-0.1-0.8-0.9-1.3-1.3c-0.5,0.5,0.2,1.8-1.2,1.6l0,0c-0.6,1.3,0.4,2,1.1,2.7
			C9.3,66.4,9.8,65.3,9.5,64z"/>
		<path class="st4" d="M4.7,54.6c2.5-0.7-0.7-1.2-1-2.2c-0.7,0.3-0.3,1-0.6,1.4c0.2,0.9,0,1.9,0.7,2.7C5,56.3,4,55.1,4.7,54.6z"/>
		<path class="st4" d="M82.5,75.5c-1.5,0.2-0.7,1-0.4,1.8c1.5-0.5,2.7-1.1,2.9-2.9C83.7,74,83.3,75.2,82.5,75.5z"/>
		<path class="st0" d="M59.1,9.6c-0.7-0.7-0.9-0.1-1.2,0.4c1.2,0.8,2.5,1,3.9,0.9V11c-0.1-0.6-0.1-1.1-0.2-1.7
			c-0.5-0.1-0.8-0.8-1.4-0.4C60.3,9.9,59.8,10.3,59.1,9.6z"/>
		<path class="st7" d="M2.5,42.7c-0.8-1.7-1.3-3.5-1.3-5.4c-0.1-0.1-0.2-0.1-0.3-0.1c0.2,1.9-1,4.1,0.8,5.8c0.2,0,0.4,0,0.6,0
			C2.4,42.9,2.4,42.8,2.5,42.7z"/>
		<path class="st0" d="M15.7,16.7c0.6-0.5,1.2-1,1.9-1.5C15.2,13.6,16.4,16.3,15.7,16.7z"/>
		<path class="st7" d="M1.6,44c-1.4,1-0.3,1.7,0.3,2.4C2.8,45.5,2.8,44.7,1.6,44z"/>
		<path class="st7" d="M96.7,53.1c0.8-0.7,0.6-1.8,0.5-2.7C96.9,51.3,96.4,52.1,96.7,53.1z"/>
		<path class="st7" d="M95,57.5c0.4-0.5,0.9-1,1.3-1.5c0-0.1,0.1-0.3,0.1-0.4C95.3,55.6,95,56.4,95,57.5z"/>
		<path class="st0" d="M83.2,17.4C83.2,17.5,83.1,17.5,83.2,17.4c-0.1,0.2-0.1,0.4-0.1,0.6c0.8,0.1,1.5,0.1,2.3,0.2v-0.1
			c-0.5-0.6-1.1-0.9-1.9-1C83.3,17.2,83.2,17.3,83.2,17.4z"/>
		<path class="st0" d="M2.2,36.7c0.1-0.7-0.5-0.7-1-0.8C1.3,36.3,1.4,36.7,1,37c0,0.1,0,0.3,0,0.4c0.1,0,0.2,0,0.3,0.1
			C1.7,37.2,2.2,37.2,2.2,36.7z"/>
		<path class="st4" d="M29.1,11.9c1.3-1.2-1.2-1.5-1.4-0.1l0,0C28.2,11.9,28.7,11.9,29.1,11.9z"/>
		<path class="st1" d="M98.8,37.4c0.1,0,0.2,0,0.3,0.1c0-0.3,0.1-0.8-0.2-1C98.9,36.7,98.9,37,98.8,37.4z"/>
		<path class="st7" d="M1.2,35.8c-0.3,0.3-0.4,0.7-0.2,1.1C1.4,36.6,1.3,36.2,1.2,35.8z"/>
		<path class="st0" d="M98.6,34.5c0-0.4,0.3-0.8-0.3-1l0,0C98.4,33.8,98.5,34.1,98.6,34.5z"/>
		<path class="st0" d="M7.4,24.7c-0.1-0.1-0.1-0.2-0.2-0.2c-0.3,0-0.5,0.1-0.5,0.5c0.2,0,0.4,0.1,0.6,0.1
			C7.2,24.9,7.3,24.8,7.4,24.7z"/>
		<path class="st0" d="M98.3,33.5L98.3,33.5L98.3,33.5c0-0.2,0-0.3-0.1-0.5C97.8,33.3,98,33.4,98.3,33.5z"/>
		<path class="st0" d="M19.1,81c0.1-0.1,0.1-0.2,0.2-0.3c-0.1,0-0.2,0-0.4,0C18.9,80.9,18.9,81,19.1,81z"/>
		<path class="st1" d="M98.1,46.9c0-0.1,0-0.2,0-0.3C97.9,46.7,97.9,46.8,98.1,46.9z"/>
		<path class="st7" d="M97.4,50c0,0.1,0,0.2,0,0.2c0.1,0,0.1,0,0.2,0C97.5,50.1,97.4,50,97.4,50L97.4,50L97.4,50z"/>
		<path class="st8" d="M89.6,46.8c0.4-0.2,0.7-0.4,1.1-0.6l2.4-4.1c-1.1-0.1-2,0.5-3,0.7c-3.1,1.6-4.2-4.3-6-1.3
			c-1.1,2.2-2.3,4-5.1,4.1c-3.5,1-1,3,1,4c-3.3,1.4-6.6,0.8-6.6-3.6c-2,0.6-3.9,1.2-5.9,1.8c0.1,0.1,0.1,0.4,0.2,0.5
			c4,0.3,5.3,5.4,9.7,3.7c0.6-0.1,1.2-0.5,1.7,0.2c0.8-0.1,1.7-0.5,2.4-1c0.2-0.5-0.2-1.1-0.5-1.4c-0.6-1.5,1.8-1,2.6-0.3
			c0.4,0.3,1.1,0.1,1.6,0.2c0.9-0.5,1.3-1.5,2.5-1.5C87.9,47.3,88.8,47.1,89.6,46.8z"/>
		<path class="st6" d="M63.8,62.4c0.3-0.8-0.7-2.2,1-2.4c2.5-0.8,5.1-1.6,7.6-2.4c-0.1-0.5-0.3-1-0.4-1.5c-0.6,0.2-1.2,0.7-1.9,0.3
			c-3.3,1.1-6.7,1.7-10.1,2.6c-1.9,2.1-3.4,2.1-6.2,2c-1.5,0.7-3.3,0-4.9,0.4c0.1,0.6-0.1,1,0.1,1.5c0,0.1,0,0.1,0.1,0.2
			c1.7,1.6,4.6-2,2.3,4.6c2.6,0.2,3.9-1.3,1.5-3c1.5-1.6,3.8-0.4,5.5-1.5c0.1-0.5,0.1-1,0.2-1.5l0.9,0.6c-0.1-0.9,0.8-1.1,1.4-0.8
			C62.1,59.9,62.5,60,63.8,62.4z"/>
		<path class="st0" d="M82.8,51c-0.1,0.1-0.2,0.1-0.3,0.2l0,0c0.4,0,0.7,0.1,1.2,0.2c-0.6,0.6-0.9,0.2-1.2-0.2l0,0
			c-0.3,0-0.6,0-0.9,0c-0.7,0.5-1.5,1-2.4,1C77,53.8,74.4,54.8,72,56c0.1,0.5,0.3,1,0.4,1.5l0,0c2.2-0.2,12.8-4.9,13-6.8
			C84.5,50.9,83.6,50.6,82.8,51z"/>
		<path class="st4" d="M63.8,62.4c-1,4.5,0.7,2.5,1.6,5.3c1,1.2,0.3,3.4,2.4,4.4c-1.8-3.8-1-8.4-2.9-12.2C63,60.2,64,61.6,63.8,62.4
			z"/>
		<path class="st0" d="M92.5,45.6c-0.5,1.2-1.5,2-2.8,2.4l0,0c-0.1,0.1-0.3,0.3-0.4,0.4c0.2,0.9-1.6,1.1-0.6,1.9
			c2.1,0.7,3.2-3.2,5.3-3.5c0.6-1,1.3-2,1-3.3C93.7,43.7,93.1,44.6,92.5,45.6z"/>
		<path class="st9" d="M83.6,49.6c-0.8-0.7-3-1.4-2.6,0.3c0.2,0.4,0.8,0.9,0.5,1.4h0.9l0,0l0,0l0,0c0.8-0.7,1.9-0.3,2.9-0.5
			c0-0.3-0.1-0.6-0.1-0.9C84.6,49.7,84,49.8,83.6,49.6z"/>
		<path class="st4" d="M67.6,64c-0.1-1.3,1.5-2.3,0.9-3.6C67,61.3,65.7,62.3,67.6,64z"/>
		<path class="st0" d="M71.3,77.2c-0.3-0.6-1.1-0.3-1.1,0.2c0.8,0.9,0.2,2.6,1.6,3.1c0-0.5,0-0.9,0-1.4
			C71.2,78.6,71.6,77.8,71.3,77.2z"/>
		<path class="st0" d="M61.3,74.8c-1.4-2.5-0.6,3.3,0.6,2.7C63.4,76.9,61.3,75.7,61.3,74.8z"/>
		<path class="st7" d="M89.7,48L89.7,48L89.7,48L89.7,48c0-0.4-0.1-0.8-0.1-1.1c-0.8,0.3-1.6,0.5-1.9,1.5c0.5,0,1.1,0,1.6,0.1
			C89.4,48.2,89.6,48.1,89.7,48z"/>
		<path class="st6" d="M73,57.5c-0.2,0-0.5,0-0.7,0C72.5,57.9,72.8,57.9,73,57.5z"/>
		<path class="st0" d="M60.5,61.5c-1.6-0.4-0.6,2-1.7,2.4c-0.1-0.2-0.2-0.4-0.3-0.6c-1.7,1.1-4-0.1-5.5,1.5c2.3,1.7,1.1,3.2-1.5,3
			c2.4-6.9-1-2.8-2.4-4.8c-0.2-0.4-0.1-1-0.1-1.5c-0.7-0.1-1.3-0.5-2-0.6c0,0.1-0.1,0.2-0.1,0.3l-0.1-0.3c-1.2-0.6-2.4-0.2-3.5-0.2
			c0,0.1-0.1,0.2,0.1,0.2c1.3,0.9-0.1,1.8,0.1,2.8l0,0l0,0c1.6,0.6,2.9,4.2,2,5.5c0,0.1-0.1,0.1-0.1,0.2c-0.6,0.5-1.1,2-0.7,2.7
			c0.5,1.2-0.5,1.5-1.1,1.7c-2,0.1-1.9-2.9-2.5-4.3c-0.8,0-1.3-0.1-1.9-0.4c-0.2-0.2-0.1-0.3-0.2-0.5l0,0c0.1-0.8,0.4-2.1,0.9-2.8
			l0,0l0,0c0.4-1.1-1.2-1.8-0.5-2.9c-0.6-1.3-1.8-0.9-2.9-0.9c1.2,1.6,0.8,3.7-1.2,4.6c-1.3,0.7-0.1,3.2-2.3,3.1
			c0,0.8,1.3,0.6,1.2,1.8c-2.5-1.6-2.8-0.2-2.6,1.8c-1.1,1.8,0.9,2.5,2.4,2.6c0.7-0.6,2-2.4,3-1.5c0.9,1-0.4,1.2-0.8,1.7
			c-0.4,0.5-0.8,1.1-1.2,1.7c-0.3,1.6,0.6,5.2,2.4,2.8c1.3-1,1.8-3.1,4.1-2.5c1.6-0.1-0.2-3,1.7-3.3c2.8-1.2,1.9,0.1,3.2,2
			c1.6,0,0.5-2.8,2.4-1.4l0.1-0.1c0-2-0.2-3.8,1.4-5.3l0,0c0.5,0,1.1,0.1,1.5-0.3l0,0c0.5-0.3,0.9-0.7,1-1.4c0.4,0.8,0.1,1.3,0,1.9
			c-0.2,1.7,1.5,1.4,2.3,1.9c1,0.6,0.7-0.5,0.9-1l0,0l0,0c-1.5-2.9-1.2-3.3,2.4-3.4c0.2-0.2,0.3-0.3,0.5-0.5l0,0
			c0.2-0.5-0.2-1.2-0.3-1.7c0-0.3,0.2-0.4,0.5-0.6C60.8,64.6,60.4,62.5,60.5,61.5z M50.2,68.8c-0.8,1.4-2.2,0.4-3.4,0.4
			c0.8-0.7,0.8-2.5,2.5-1.8C49.8,67.6,50.5,68.3,50.2,68.8z"/>
		<path class="st0" d="M48.9,75.2C48.9,75.2,48.9,75.3,48.9,75.2c0.6,0.6,0.5,1,0.1,1.5c-0.9,1.6,0.7,3.4,0.2,5.2c0.4,1,0.7,2,1.1,3
			c0.5,0,1.1-0.1,1.4,0.4c1.6,0.2,2.3-1.1,3.3-2c-0.6-2.5,3.9-4.4,1.4-6.5c-0.4-1.1-1.5-0.8-2.3-0.7c-1.5,0.1,0.3,2.8-1.1,3.1
			c-1.2,0.3-3-1.4-2.3-2.4c1.2-0.3,1.1-1.1,0.7-1.7c-0.6-0.9-1.4,0.3-2.2,0.1C49.2,75.3,49.1,75.2,48.9,75.2z"/>
		<path class="st6" d="M54.4,84.1c-0.7,0.7-1.4,1.4-2.6,1.3c0,0.5,0.1,1,0.1,1.5c2.5-1.9,4.9,2.4,3.3-3.3
			C54.8,83.6,54.6,83.9,54.4,84.1z"/>
		<path class="st6" d="M50.4,70c-1.6,1.3-1.5,3.4-1.4,5.3c0.1,0,0.3,0,0.4,0C50.8,73.8,50.3,71.8,50.4,70z"/>
		<path class="st0" d="M51.8,71.9L51.8,71.9L51.8,71.9C51.8,71.9,51.7,71.9,51.8,71.9c0.4,1,0.9,1.9,1.3,2.8c0.5-0.6,1-0.9,1-1.6
			l0,0C54.2,72.2,52.8,72.1,51.8,71.9z"/>
		<path class="st3" d="M63.3,78.6c0.4-0.1,0.8,0.3,1.1,0.3c0.2,0.1,0.4,0,0.5-0.3c0.2-0.7-0.8-0.4-1.2-0.6
			C63.6,78.3,63.4,78.5,63.3,78.6z"/>
		<path class="st3" d="M58.9,67c-0.2,0.2-0.3,0.3-0.5,0.5c0.2,0.4,0.7,0.5,0.8,0C59.3,67.4,59.1,67.2,58.9,67z"/>
		<path class="st0" d="M63.3,78.6L63.3,78.6c0.1-0.2,0.3-0.3,0.4-0.5c-0.8-0.6-0.7-0.2-0.9,0.5l0,0C63,78.6,63.1,78.6,63.3,78.6z"/>
		<path class="st0" d="M62.8,78.6L62.8,78.6L62.8,78.6L62.8,78.6z"/>
		<path class="st3" d="M60,72.6c0,0.1,0.1,0.2,0.2,0.4c0.1-0.1,0.1-0.2,0.2-0.4c-0.1-0.1-0.1-0.2-0.2-0.3C60.1,72.4,60,72.5,60,72.6
			z"/>
		<path class="st0" d="M51.8,71.9L51.8,71.9c-0.1-0.1-0.2-0.1-0.3-0.2C51.6,71.8,51.7,71.9,51.8,71.9C51.7,71.9,51.8,71.9,51.8,71.9
			z"/>
		<path class="st0" d="M61.4,84.9c0-0.1,0.1-0.1,0.1-0.2C61.4,84.7,61.4,84.8,61.4,84.9C61.4,84.9,61.4,84.9,61.4,84.9
			C61.3,84.9,61.4,84.9,61.4,84.9z"/>
		<path class="st0" d="M56.1,71c0-0.1,0.1-0.1,0.1-0.2C56.1,70.8,56.1,70.9,56.1,71C56.1,70.9,56.1,70.9,56.1,71L56.1,71z"/>
		<path class="st6" d="M31.6,73.2c-0.1-2,0.1-3.5,2.6-1.8c0.1-1.2-1.2-1-1.2-1.8c2.2,0.1,1-2.4,2.3-3.1c2-0.9,2.4-3,1.2-4.6
			c-4.8,0.3-8.7-3.3-13.5-2.9c-1.5-0.8-1.8,1.2-2.9,1.7c-0.9-0.4,0.6-2-1-1.7c-0.5,0-0.9,0-1.4,0l0,0l0,0l0,0
			c-0.9,1.3,1.6,1.7,0.9,2.9c-0.6,1.1-0.2,1.7,0.7,2.5c1.4,1.3,1.4-1,2.2-0.7c2.5,2.3,1.6,5.6,0.5,7.7l0,0c1-0.1,1.8,0.1,2.4,1
			c0.5,0,1-0.3,1-0.8c-0.1-1.6,1.8-1.7,2.3-2.8c0.1-0.2,0.8-0.1,0.7,0.2c-0.9,2.3,2.1,3.3,1.8,5.4c0.3,0,0.7,0,1,0
			C31.3,73.9,31.6,73.6,31.6,73.2z M28.6,65.2c-0.7-3.2-2.5,0.4-2.3-1.8c0-0.6,0.5-1.7,0.7-1.5c1.2,0.9,3.3-0.2,3.8,1.6
			c0.5,1.9,3.2,3.6,0.9,5.9c-0.2,0-0.3,0-0.3,0C29.8,68.3,29.5,66.6,28.6,65.2z"/>
		<path class="st6" d="M47.6,81.9c-0.8-1.3-1-2.7-0.7-4.2l0,0c-0.1-0.3-0.3-0.6-0.4-1l0,0c-1.3-1.9-0.3-3.2-3.2-2
			c-2,0.3,0,3.2-1.7,3.3c-2.9-0.8-3.1,2.9-5.3,3.3c-1.5-0.6-1.1-2.3-1.2-3.6c-0.8,0.2-1.3,1.2-2.5,0.6c-0.8-0.4-2,0-2.3,1.3
			c0.1,1.2,1.7,0.7,2.1,1.6c-0.6,0.7-1.6,0.3-2.3,0.6c1.1,1.6,3.4,0.8,4.1,1.5c2,1.8,3.7,2.9,6.4,1.9c2.2,0.1-2,3.1,2.1,3.1
			c1.9-3.7,3.5-4.5,3.3,0.5c0.7-0.1,1-1,1.6-1.3l0,0c0.2-0.1,0.4-0.2,0.7-0.1l0,0c0,0,0.1,0,0.1-0.1l0,0
			C48.8,85.4,47.3,83.8,47.6,81.9z M45.1,80.7c-1.2,0.4-0.7,1.6-1.5,2.2l0,0c1.3,2.5-3,1.4-2.4-0.7c0.4-2.2,1.9-3.8,2.4-6
			c-0.1-0.7,0.2-0.8,1.1-0.1l0,0l0,0c0.1-0.3,0.1-0.7,0.2-1c0.1,0,0.2,0.1,0.2,0.1c0.1,0.4,0,0.7-0.4,0.9l0,0l0,0
			c0.2,1-0.1,3.4,1.3,2C46.3,79.2,45.4,80.6,45.1,80.7z"/>
		<path class="st6" d="M51.7,88.1c-0.2,0.4-0.4,0.6-0.8,0.6c-0.7,0.3-1.5,0.8-1.5-0.5c-0.3-0.3-0.6-0.6-0.9-1l0,0c0,0,0,0-0.1,0.1
			l0,0c-1.9,4.7,0.9,1.6,2.1,3.2c1.2,3.6,4.9-0.1,7.2,0.8c0.4-0.1,0.8-0.1,1.2-0.2c-2.1-1.6-4.9-1.9-7-3.4
			C51.8,87.9,51.8,88,51.7,88.1z M53,89.7c0.1,0.1,0.2,0.1,0.4,0.2c-0.2,0.3-0.5,0.2-0.8,0C52.7,89.8,52.8,89.8,53,89.7z"/>
		<path class="st0" d="M28.4,68.9c0.1-0.3-0.6-0.4-0.7-0.2c-0.5,1.2-2.4,1.2-2.3,2.8c0,0.6-0.5,0.8-1,0.8c-0.5,0.7,0.2,1,0.5,1.4
			l0,0l0,0c1.3,0.3,2.1-0.4,2.6-1.7c1.2,1,1.5,1.9,0.8,3.2c0.5-0.1,1,0.7,1.5,0.1c0-0.4,0-0.8,0.4-1C30.4,72.2,27.5,71.2,28.4,68.9z
			"/>
		<path class="st4" d="M32.5,78.3c1.2,0.6,1.7-0.4,2.5-0.6c0.4-0.6,0.8-1.1,1.2-1.7c0.4-0.5,1.7-0.8,0.8-1.7c-0.9-1-2.3,1-3,1.5
			c-0.1,4.7-6-2.1-4.2,3.7c0.1,0,0.3,0,0.4,0C30.4,78.3,31.7,77.9,32.5,78.3z"/>
		<path class="st6" d="M27.4,72.1c-0.5,1.3-1.2,2-2.6,1.7c0,0.5,0.1,1.1-0.4,1.4c0.1,0.7-0.3,1.3,0.5,1.8c0.9-0.3,0.2-2.3,1.9-1.7
			c0.1-0.3,0.3-0.3,0.4,0c0.3,0,0.7,0,1,0C29,74,28.6,73,27.4,72.1z"/>
		<path class="st6" d="M24.9,73.8L24.9,73.8L24.9,73.8z"/>
		<path class="st0" d="M46,88.7c0.2-5.1-1.5-4.2-3.3-0.5C43.8,88.1,44.8,89.4,46,88.7z"/>
		<path class="st6" d="M29.6,78.6c-1.1-0.6-2.5,0.4-3.7-1c0.5,2.1,0.6,2.1,3.9,1.9C29.7,79.2,29.7,78.9,29.6,78.6z"/>
		<path class="st0" d="M26.5,83.9c0.5,0.4,0.6,0.4,1.1-0.1c-0.3-0.2-0.5-0.3-0.7-0.3C26.8,83.6,26.7,83.8,26.5,83.9z"/>
		<path class="st6" d="M29.7,75.3c0.7,0,0.8-0.4,0.4-1C29.7,74.5,29.7,74.9,29.7,75.3z"/>
		<path class="st0" d="M24.9,73.8L24.9,73.8c-0.6,0.3-0.4,0.8-0.4,1.4C25,74.9,24.8,74.3,24.9,73.8z"/>
		<path class="st0" d="M26.8,75.3c0.1,0,0.4,0,0.4,0C27.1,75,27,75,26.8,75.3z"/>
		<path class="st5" d="M7.6,44.5L7.6,44.5L7.6,44.5z"/>
		<path class="st5" d="M15.3,55.3c0.3,2.1,1.9,0.8,3.3,0.9l0,0l0,0c0.6-0.4,1-0.5,1,0.3c0.9,0,1.8,0.4,2.7,0.4c0.7,0,1.4-0.1,2-0.8
			c-3.3-1.3-6.3-3.7-10-3.7c-0.1,0-0.3-0.5-0.4-0.8l0,0c0,0-0.1,0-0.1-0.1c-0.2-0.2-0.5-0.4-0.4-0.8c-0.8-0.7-1.6-1.4-2.4-2.1
			c-0.3,0-0.4-0.1-0.3-0.4c-1.5-0.8-2.3-2.5-3.1-3.9c-2-0.2-1.6-2.6-2.8-3.6c-0.9,0.6-1.3,1.2-2.2,1.8l0,0c0.2,2.5,4.1,3.4,4.1,6.2
			c0.4-0.3,0.9-0.4,1.3,0c2.5-1.1,1,1.2,1.1,2.2l0,0C11.8,51.6,12.3,55.4,15.3,55.3z"/>
		<path class="st5" d="M15.7,71.4c0.1,1.9,2.1,3.6,1,5.7c1.7,1,3.3-0.2,2-2c-1.6-2,0.4-5.9-2.9-6.2C15.8,69.7,15.7,70.6,15.7,71.4z"
			/>
		<path class="st6" d="M14.8,70L14.8,70L14.8,70L14.8,70L14.8,70L14.8,70L14.8,70z"/>
		<path class="st6" d="M14.8,61.3c-0.2,1.9-1.1,3.9-0.5,5.8c0.6,0.6,0.5,1.4,0.5,2.2l0,0c-0.2,0.7,0.5,0.9,1,1.2
			c0.4-1.7-1.3-3.8,0.4-5.1c1.2-0.5,1.6-3.9,0.2-3.9c-0.8,0.1-0.6,0.8-0.6,1.3l0,0C15.4,62.3,15.1,61.8,14.8,61.3z M16.6,63.6
			c0,0.1-0.2,0.3-0.2,0.3c-0.6-0.1-0.6-0.6-0.6-1.1l0,0l0,0l0,0C16.2,62.9,16.7,62.9,16.6,63.6z"/>
		<path class="st0" d="M14.3,67.1c-0.3-1-0.3-1.9,0-2.9c-0.7,0.2-1.3,0.5-2,0.6c-0.4,0.1-0.9-1-1.2,0.1c-0.5,1.2,1.4,1.1,1.5,2.2
			c0.3-0.1,0.6,0,1,0.1C13.7,67.3,14,67.4,14.3,67.1z"/>
		<polygon class="st0" points="12.4,67.1 12.4,67.1 12.4,67.1 12.4,67.1 		"/>
		<path class="st0" d="M8,55.3c-0.5,1,0.2,2.5-1.3,3c-0.7,0.9,0,2.1,1.1,1.7c-0.2-1.8,2-3.4,0.2-5.1C8,55.2,8,55.3,8,55.3z"/>
		<path class="st0" d="M8.1,55.1L8.1,55.1L8.1,55.1L8.1,55.1L8.1,55.1L8.1,55.1L8.1,55.1z"/>
		<path class="st6" d="M9.5,64c0.2-0.2,0.4-0.4,0.6-0.7c0-0.2,0-0.4,0-0.6c-0.3-0.9-0.1-2.1-1.5-1.4l0,0l0,0
			c-0.1,0.2-0.3,0.3-0.4,0.5l0,0c0,0.2,0,0.4,0,0.5l0,0c0,0.1,0,0.2,0,0.3C8.6,63.1,8.7,63.9,9.5,64z"/>
		<path class="st0" d="M18.2,57c-1.4,0-0.9,1.2-0.4,1.9c0.5,0,0.9,0,1.4,0C18.7,58.3,19.2,57.3,18.2,57z"/>
		<path class="st0" d="M10.1,63.3c1.7,0.5,2-0.4,1.9-1.8c-0.7,0.4-1.3,0.8-2,1.2C10,62.9,10,63.1,10.1,63.3z"/>
		<path class="st5" d="M19.6,56.6c-0.3,0-0.6,0-1,0c-0.1,0.1-0.3,0.4-0.5,0.5c1.1,0.3,0.4,1.3,0.9,1.9l0,0c0.2,0,0.3,0,0.5,0
			C19.6,58.1,19.6,57.3,19.6,56.6z"/>
		<path class="st0" d="M11.8,69.1c0.8-0.8,0.6-1.5,0.6-2C11.2,67.4,11.4,68,11.8,69.1z"/>
		<path class="st0" d="M12.4,67.1L12.4,67.1L12.4,67.1z"/>
		<path class="st0" d="M6.7,58.4C6.5,58,7.2,57.5,6.6,57c-0.5,0.1-0.4-1-1-0.6C5.1,57.1,6.2,57.9,6.7,58.4
			C6.6,58.5,6.7,58.4,6.7,58.4z"/>
		<path class="st6" d="M13,70.4c0.7-0.4,1.4,1,1.8-0.4C14.2,70.1,13.6,69.2,13,70.4z"/>
		<path class="st6" d="M14.8,70L14.8,70L14.8,70L14.8,70L14.8,70z"/>
		<path class="st5" d="M16.5,58.4c0,0.3,0.3,0.7,0.2,1l0,0c0.3-0.1,0.6-0.3,0.9-0.4l0,0c-0.2-0.3-0.3-0.7-0.5-1
			C16.6,58,16.5,58.2,16.5,58.4z"/>
		<path class="st0" d="M8.1,53.7c-0.6,0.3-0.5,0.9-0.4,1.4c0.1,0,0.3,0,0.4,0C8.1,54.6,8.1,54.1,8.1,53.7z"/>
		<path class="st0" d="M19.6,56.6L19.6,56.6C19.6,56.5,19.6,56.5,19.6,56.6C19.6,56.5,19.6,56.5,19.6,56.6c0.1-0.9-0.4-0.9-1-0.4
			l0,0c0,0.1,0,0.2,0,0.4C18.9,56.5,19.3,56.5,19.6,56.6z"/>
		<path class="st0" d="M8.1,61.3c-0.1,0-0.7-0.2-0.8-0.1C7,61.7,7.7,61.9,8,61.8C8.1,61.7,8.1,61.5,8.1,61.3z"/>
		<path class="st3" d="M8.1,61.8L8.1,61.8c0.2-0.2,0.3-0.3,0.5-0.5c-0.1,0-0.3,0-0.4,0l0,0C8.1,61.5,8.1,61.7,8.1,61.8z"/>
		<path class="st3" d="M8.1,61.8L8.1,61.8c-0.2,0-0.3,0-0.5,0C7.8,62,8,62.2,8.1,62.4C8.1,62.2,8.1,62,8.1,61.8z"/>
		<path class="st5" d="M22.4,69.6c0,0.3,0,0.6,0,0.9c1.4-1.4,0.9-5.1-0.9-6.7c0,1.4,0,2.9,0,4.3C22.5,68.1,22.5,68.8,22.4,69.6z"/>
		<path class="st6" d="M22.4,69.6c0.1-0.7,0.1-1.4-0.9-1.5C20.9,68.6,21.2,68.8,22.4,69.6z"/>
		<path class="st5" d="M51.7,85.4L51.7,85.4c-0.3-0.6-0.9-0.5-1.4-0.4c0,1.3-0.1,2.6,0.5,3.8l0,0C52.3,88.7,51.7,86.4,51.7,85.4z"/>
		<path class="st1" d="M28.9,16.9c1.3,7.9-6.5,4-8.6,6.3c0.6,2.1,4.4,2.7,0.3,4.7c-3.3,1.3-2.4,5.9-5.5,7.9
			c-0.9,0.9-1.2,0.3-1.2-0.7c0.5-2.9-4-2.4-3.8,0.2c-0.1,2.8-0.5,4,3,4c9.4,1.3,1.4,4.9,5.9,6.3c1.1,0.3,2.3,0.7,2.5,2
			c0,0.4,0,0.8-0.3,1.4l0,0l0,0c8.2-0.7,0.7-3.3,2.5-5.5c2.2-2,3.5-4.6,5.2-7c0.7-1,1-2.1,1-3.4c-0.1-3.7,4.2,0.4,5.2-3
			c4.1-3.9,9.5-7.8,15-9.3c5.7-0.8,13.4-1.2,18.2,1.5c10.1,2.8,18.4,18.6,5.3,24.1l0,0c0,4.4,3.3,5,6.6,3.6c-2.1-1-4.5-3-1-4
			c2.8-0.1,4-1.9,5.1-4.1c1.7-3.1,2.9,2.9,6,1.3c1-0.2,1.9-0.8,3-0.7c0.8-0.4,0-2,1.4-2c0-0.6,0-1.3,0-1.9c-2.1-0.4-4.1-1.1-6.3-0.9
			c-2,0.1-2.9-1.1-3.1-2.5c-0.1-2,2.8-1.8,4.1-2.3c3-0.1,2.4-0.7,1.1-3.1c0.2-1.1,0.7-2,0.3-3.2c-0.7,0-0.8-0.9-1.4-1
			c-0.4-0.6-0.7-1.4-1.2-1.9c-2.6-0.4-3.6-3.1-5.3-4.7c-0.4,0-0.7-0.1-1.1-0.1c-1.7,1.3-2,0.2-2-1.3c-0.3-0.1-0.7-0.3-1-0.5
			c-0.1-0.2-0.3-0.4-0.4-0.5l0,0c-0.6-0.5-1.3-0.4-2-0.5c-1.3,0.8-2.4,0.9-2.9-0.9c-2.7-0.8-5.2-2.2-8.1-2.3
			c-0.2,0.3-0.4,0.4-0.5,0.4h-0.1c-0.1-0.1-0.2-0.4-0.3-0.7c-0.4-0.1-0.9-0.2-1.3-0.3c-0.7,1.2-1.5,1.2-2.4,0.4
			c-1.4-0.9-3.1-0.8-4.1-2.5c-0.5,0-1,0-1.4,0.2l0,0c-0.1,0.2-0.3,0.4-0.4,0.7c0.8,3.3-1.7,6.6-4.7,6c-1-0.2-1.4,0.4-2.1,0.7
			c-4.3,2.6-3.2-4.1-3.7-6.5c-0.5-0.2-0.7,0.2-1.1,0.3c0.5,2-0.4,3.9,0,5.9c0.1,0.3-0.3,1-0.4,1c-3.9,0.8-5.1,3-8.1-1.4
			c-1.6-0.2-3.6,0.2-3.8-2.1c-0.8-0.3-1.6-0.5-2.4-0.8l0,0v0.1C28.1,14.6,28.6,15.8,28.9,16.9z"/>
		<path class="st8" d="M90.8,27.7c-0.2,0.8-0.8,1.6-0.3,2.4c2.6,3.1-1.2,2.1-2.9,2.9c-1.1,0.3-2.8,0.3-2.5,1.9
			c0.6,4,6.5,1.9,9.4,3.4c0.7-3.8-1.6-6.6-2.4-10c0,0-0.1,0-0.1-0.1c-0.4-0.3-0.7-0.6-1.1-0.8C90.8,27.5,90.8,27.6,90.8,27.7z"/>
		<path class="st4" d="M93.4,32.1c0.2-0.5,0.4-1,0.6-1.5c-1-0.7,0.1-2.9-2-2.3C92.1,29.7,92.9,30.8,93.4,32.1z"/>
		<path class="st8" d="M44.1,11.4c0.6,2.3-0.4,8.2,3.7,5.7c0.6-0.4,1-0.9,2.1-0.7c3.1,0.6,5.6-2.6,4.7-6c-1.9-0.1-3.8-0.2-5.7,0
			C47.7,13.2,45.8,12,44.1,11.4z"/>
		<path class="st8" d="M35.4,13.6L35.4,13.6c-0.3,2.3,2.1,2.6,1.5,5.1c2.2,1.3,3.7-1,5.7-1c0.1,0,0.5-0.7,0.4-1
			c-0.5-2,0.5-3.9,0-5.9c-1.8,0.2-3.8,1.2-5.6,0.1c-0.3,0.1-0.5-0.1-0.5-0.4c-0.5,0.5-1,0.9-1.4,1.4l0,0
			C35.5,12.4,35.4,13,35.4,13.6z"/>
		<path class="st9" d="M44,10.7c0,0.3,0,0.5,0,0.8c1.8,0.5,3.7,1.8,4.8-1c-1.5,0-2.9,0-4.4-0.1C44.3,10.5,44.2,10.6,44,10.7L44,10.7
			z"/>
		<path class="st3" d="M37.4,10.9c1.7,1.1,3.8,0.1,5.6-0.1h0.1c0.2-0.6,1-0.1,1.5-0.5C42.3,8.6,39.7,11.1,37.4,10.9z"/>
		<path class="st8" d="M16.2,51.5c2.3-0.5,2-3.2,4.8-2.6c0.9-1.9-0.5-3-2.2-3.4c-4.4-1.3,3.3-5-5.9-6.3c-3.5,0-3.1-1.2-3-4
			c0-2.7,4.3-3.1,3.8-0.2c0.3,3.4,4.3-2.9,4.2-4.1c0.2-1.7,1.1-2.4,2.5-3.1c3.9-1.8,0.5-2.5-0.3-4.7c0.5-1.2,3.1-0.7,4.4-0.9
			c5.8,0.2,4.1-5.2,3.6-8.9c-3,1.4-6.2,2.7-9.1,4.2c0,0.7-0.4,1-1.1,0.9c-0.3,0.2-0.6,0.3-0.9,0.5c-0.4,1.9-3.7,0.8-4.4,2.8
			c0.6,1.4,1.6,2.5,2.9,3.4c-0.4,0.4-0.9,0.6-1.4,0.7c-1.2,0.6-2.9-0.4-4.1,0.5c-0.3,0-0.6,0-0.9,0l0,0l0,0
			c-0.8,0.6-0.1,1.4-1.4,1.2l0,0l0,0l0,0c-0.2,1.2,0.7,3-1,3.4c-0.1,0.1-0.2,0.2-0.4,0.3c0,0.7,0,1.5,0,2.2c0.9,0.2,1,1,0,0.9l0,0
			c0.2,0.8-0.1,1.6-0.9,2c0,0.2,0,0.3,0,0.5l0,0l0,0c1,1.7,2.5,3.2,1.7,5.4c0.2,0.8,0.5,1.5,0.7,2.3l0,0c0.7,0,0.7,0.6,0.9,1
			c1,0.7,2,1.3,2,2.7c0.9,1.2,2.6,2,3.3,3.4l0,0l0,0C14.7,51.7,15.5,51.6,16.2,51.5z"/>
		<path class="st8" d="M7.6,44.5L7.6,44.5L7.6,44.5L7.6,44.5L7.6,44.5z"/>
		<path class="st9" d="M6.9,42.2c0.8-2.2-0.7-3.6-1.7-5.4l0,0C5,38.8,5.2,40.8,6.9,42.2z"/>
		<path class="st7" d="M6.1,34.4L6.1,34.4c0-1,0-2.1,0-3.1c-0.2-0.1-0.3-0.1-0.5-0.2c-0.2,1.1,0,2.2,0,3.4
			C5.8,34.4,5.9,34.4,6.1,34.4z"/>
		<path class="st9" d="M6.1,34.4c-0.2,0-0.3,0-0.5,0c-0.4,0.6-0.4,1.3-0.3,2C6,36,6.2,35.3,6.1,34.4z"/>
		<path class="st4" d="M6.7,58.4L6.7,58.4c1.6-0.7,0.7-2.1,1.4-3.2l0,0l0,0c-1.7-0.3-1.4,1-1.4,1.9C7.2,57.4,6.5,57.9,6.7,58.4z"/>
		<path class="st6" d="M9.2,48.9c-0.5-0.5-0.8,0-1.3,0.1c0.4,0.5,0.7,0.9,1.1,1.4C9.2,49.9,9.8,49.4,9.2,48.9z"/>
		<path class="st4" d="M62.9,11.6c0.8,0.4,1.7,0,2.3,0.7c2.9,0.1,5.4,1.6,8.1,2.3l0,0c1.1-0.2,1.8,0.6,2.8,0.5
			c0.1-0.1,0.2-0.2,0.2-0.3c-1.4-1.4-2.8-3.1-4.9-2.8c-3.3,0.6-5.8-3.2-8.7-1.1C62.8,11.3,62.8,11.5,62.9,11.6z"/>
		<path class="st9" d="M60.5,12c0.9,0.8,1.7,0.7,2.4-0.4c0-0.2-0.1-0.3-0.1-0.5c-0.3,0-0.5-0.1-0.8-0.1l0,0v-0.1
			c-0.2,0.6-0.5,0.3-0.7,0C60,11.1,59,10.7,58,10.1c-0.3,0-0.6,0-1,0C57.7,11.6,59.6,11,60.5,12z"/>
		<path class="st4" d="M76.1,15.4c0,0.1,0,0.3,0.1,0.4c0.5,0.1,1,0.1,1.5,0.2c0.2-0.2,0.3-0.1,0.5-0.3v-0.1
			c-0.6-0.2-1.2-0.4-1.8-0.6C76.3,15.2,76.2,15.3,76.1,15.4z"/>
		<path class="st9" d="M11.7,25.9c1.3,0.1,2.8,0.4,3.9-0.7c-1.3-0.8-2.3-1.9-2.9-3.4c-1.3,1.1-1.3,3.1-2.8,3.9c0,0.2,0,0.4,0,0.5
			C10.5,26,11.1,25.9,11.7,25.9z"/>
		<path class="st5" d="M8.7,24.1c2-0.3,3.4-2.5,0.8-2.7C9.7,22.3,9.1,23,8.7,24.1z"/>
		<path class="st5" d="M9.4,21.4L9.4,21.4L9.4,21.4z"/>
		<path class="st9" d="M15.2,20.3c-1.1-0.8-2.2-1.2-1.9,0.7C13.9,20.8,14.6,20.6,15.2,20.3z"/>
		<path class="st9" d="M17.2,19.1c-0.7-0.1-1.2,0.4-1.4,1C16.5,20.1,17.2,20,17.2,19.1z"/>
		<path class="st9" d="M19.1,17.6c-0.2-0.1-0.3-0.3-0.5-0.4c-0.2,0.1-0.3,0.3-0.5,0.4l0,0c0,0.3-0.1,0.6-0.1,0.9
			C18.7,18.6,19.1,18.3,19.1,17.6z"/>
		<path class="st5" d="M8,25.2c0-0.2,0-0.3,0-0.4c0-0.2-0.8-0.1-0.7,0.3c0.2,0.1,0.5,0.2,0.7,0.3C8,25.3,8,25.2,8,25.2z"/>
		<path class="st7" d="M10,26.3c0-0.2,0-0.4,0-0.5c-0.4,0-0.8,0.3-0.8,0.6l0,0C9.4,26.3,9.7,26.3,10,26.3z"/>
		<path class="st7" d="M9.1,26.4c-0.2,0-0.4-0.1-0.5-0.1l0,0c0.1,0.2,0.1,0.4,0.2,0.5C8.8,26.7,8.9,26.5,9.1,26.4z"/>
		<path class="st7" d="M95.4,42.6c0-0.3,0-0.6,0-0.9c-1.1,0.1-0.8-0.7-1-1.5c-1.4,0-0.6,1.5-1.4,2l-2.4,4.1c0,0.4,0,0.9,0,1.3
			c2.2-0.6,1.7-3.9,4.3-4l0,0C95,43.2,95,42.8,95.4,42.6z"/>
		<path class="st4" d="M95.4,42.6c1.2,0.1,2-2.1,0.8-2.4C95,40.2,95.6,42,95.4,42.6z"/>
		<path class="st4" d="M95.9,39.6c0,0,0.1,0,0.2,0c0,0,0-0.1,0-0.2C95.9,39.2,95.6,39.4,95.9,39.6z"/>
		<path class="st8" d="M85.9,22.4c0.6,0.5,1.2,0.9,2.1,1c-0.4-1.7-1.8-3.4-3.7-2.7C84.9,21.3,85.4,21.9,85.9,22.4z"/>
		<path class="st4" d="M82.7,18.7c0.6,0.7,1.1,1.4,1.7,2c0.3-0.1,0.6-0.1,1-0.2c0.3-0.8,0.3-1.6,0-2.4c-0.8-0.1-1.5-0.1-2.3-0.2
			c0,0-0.2,0.2-0.2,0.2C82.9,18.3,82.8,18.5,82.7,18.7z"/>
		<path class="st8" d="M89.1,25.4c0-0.3,0-0.7-0.5-0.8C88.8,24.8,89,25.1,89.1,25.4z"/>
		<path class="st7" d="M6.5,31c1.5-0.2,0.9-1.5,1-2.5c-0.4,0.1-0.8,0.2-1.2,0.3c-0.1,0.4-0.2,0.8-0.3,1.3C6.5,30.2,6.5,30.6,6.5,31z
			"/>
		<path class="st0" d="M7.5,28.6c0-0.3,0-0.6,0-0.9c-0.7-0.1-1.6,0.1-1.3,1.2C6.7,28.8,7.1,28.7,7.5,28.6z"/>
		<path class="st0" d="M8.1,27.7c0.3-0.3,0.4-0.5,0.5-0.9c-0.1-0.2-0.1-0.4-0.2-0.5c-0.7,0.2-0.9,0.7-0.9,1.4
			C7.7,27.7,7.9,27.7,8.1,27.7z"/>
		<path class="st0" d="M6.2,31.3c0.1-0.1,0.2-0.2,0.4-0.3c0-0.4,0-0.8-0.5-0.8c-0.1,0.3-0.2,0.6-0.4,0.9C5.8,31.2,6,31.2,6.2,31.3z"
			/>
		<path class="st2" d="M18.1,17.7c0.2-0.1,0.3-0.3,0.5-0.4"/>
		<path class="st7" d="M30.6,14.1L30.6,14.1L30.6,14.1c1.1-0.3,3,0.4,3.4-1c-1.6-0.6-3.6,0.8-4.9-1.1c-0.5,0-0.9,0-1.4,0
			c0.2,0.5,0.3,0.9,0.5,1.4l0,0C29,13.6,29.8,13.8,30.6,14.1z"/>
		<path class="st9" d="M32,14c0.4,1.2,2.1,1,2.4,2.3c0.8,0.8,1.4,1.9,2.4,2.4c0.7-2.2-1.8-3-1.5-5.1l0,0c0.1-1.1,0.1-2.9-1.4-1.7
			C34.1,13.8,33.5,13.9,32,14z"/>
		<path class="st2" d="M55.5,9.6c0.3,0,0.6,0,0.9,0"/>
		<path class="st8" d="M81.5,18.6c-0.6-0.4-1.1-1.2-2-1.3C79.6,18.7,79.8,19.8,81.5,18.6z"/>
		<path class="st2" d="M79.2,17.2c-0.2-0.1-0.4-0.3-0.6-0.4"/>
		<path class="st8" d="M77.7,16c0.2,0.1,0.3,0.2,0.5,0.3c0-0.1,0.1-0.2,0-0.2C78.2,15.9,77.8,15.7,77.7,16z"/>
		<path class="st8" d="M82.7,18.7L82.7,18.7c0.1-0.2,0.2-0.4,0.3-0.5C82.9,18.3,82.8,18.5,82.7,18.7L82.7,18.7z"/>
		<path class="st6" d="M61.9,11c-0.2,0-0.5,0-0.7,0C61.4,11.3,61.7,11.6,61.9,11z"/>
		<path class="st7" d="M76.5,44.1c1.6-1.2,3.1-2.7,3.6-4.8c-1.5-0.8-1.2-2.6-1.9-3.9c-6.8-12.2-14.9-6-24.2-1.4
			c-5.7,1.4-8.1,7.1-12.9,9.8c-2.1,1.2-2.8,3.5-4.6,5c-0.4,0.8,0.7,2,0.5,2.9c4.7,1.5,9.6,2,14.4,3c1-1.7,2.4-2.9,4.3-3.4
			c3.9,0.3,6.9-2.3,10.5-2.9C69.5,46.7,73.5,46.7,76.5,44.1z"/>
		<path class="st9" d="M79.1,52.2c-0.5-0.7-1.1-0.3-1.7-0.2c-4.4,1.9-5.6-3.6-9.6-3.6c-0.2-0.1-0.2-0.4-0.3-0.6
			c-2.8,0.1-1.1,4.7,1.3,5.2c1.1,0.4,0.9,2.2,1.1,3.4C73.1,56.2,76.3,53.8,79.1,52.2z"/>
		<path class="st3" d="M89.7,48L89.7,48c0.3-0.1,0.6-0.3,0.9-0.4c0-0.4,0-0.9,0-1.3c-0.4,0.2-0.7,0.4-1.1,0.6
			C89.6,47.2,89.6,47.6,89.7,48z"/>
		<path class="st8" d="M68.9,53c-2.4-0.9-2.6-2.6-2.7-4.6c-3.6,0.7-6.7,3.2-10.5,2.9c0.9,3.1,4.3-0.4,7.2,6.9c2.5,0,4.8-1.3,7.2-1.8
			C69.8,55.2,69.9,53.4,68.9,53z"/>
		<path class="st9" d="M54.8,54.7c3.9-0.3,3.5,1.5,5.2,4.4c1-0.3,1.9-0.5,2.9-0.8c-2.9-7.4-6.3-3.7-7.2-6.9c-2,0.5-3.3,1.7-4.3,3.4
			c0.1,1.8,1.2,3.3,1,5.2c0.5,0.4,1,0.7,1.5,1.1c0.8,0,1.5-0.1,2.3-0.1C56.9,59.3,52.3,54.7,54.8,54.7z"/>
		<path class="st8" d="M52.2,59.9c0.3-1.7-0.9-3.5-1-5.2c-0.3,0-0.7,0-1,0c-0.3,1.2,0.7,3.7-0.9,4c-0.8,0-1.4-0.4-1.4-1.3
			c-0.1-1.9-1-1.4-1.6-0.4c-1,1.6-2.9,0.5-4,1.7c-0.6,0.6-1.3,0.6-1.1,1.7c2.1,0.3,4.2-0.2,6.2,0.5c0.6,0.4,1.2,0.6,1.9,0.4
			c0.2-0.2,0.3-0.2,0.5,0c0.6,0,1.2-0.1,1.8-0.1C51.7,60.7,51.8,60.2,52.2,59.9z"/>
		<path class="st7" d="M59,57.1c-0.4-2.6-2.3-2.4-4.2-2.5c-2.6,0.2,2,4.4,1.2,6.2c1.8,0.6,2.7-1.3,3.9-1.9
			C59.6,58.4,59.1,57.8,59,57.1z"/>
		<path class="st7" d="M52.2,59.9L52.2,59.9c-0.5,0.3-0.5,0.8-0.5,1.3c0.7,0.2,1.5,0.1,2.1-0.2C53.3,60.6,52.8,60.3,52.2,59.9z"/>
		<path class="st4" d="M58.7,63.8c0.6-0.3,0.6-0.9,0.7-1.5l-0.9-0.6c-0.1,0.5-0.1,1-0.2,1.5C58.5,63.4,58.6,63.6,58.7,63.8z"/>
		<path class="st7" d="M49.3,61.3c0.2,0,0.3,0,0.5,0C49.7,61.1,49.5,61.1,49.3,61.3z"/>
		<path class="st4" d="M83.6,51.4c-0.5-0.1-0.8-0.1-1.2-0.2C82.7,51.6,83,51.9,83.6,51.4z"/>
		<path class="st4" d="M82.4,51.2L82.4,51.2L82.4,51.2z"/>
		<path class="st5" d="M40.5,60.9c-1.3,0.7-2.5-0.4-3.3-1.4c-1.7-0.7-3.5,0.6-5-0.5c-0.1,0-0.2,0-0.2-0.1c-0.3-0.2-0.6-0.5-0.9-0.7
			l0,0l0,0c0,0.1-0.1,0.3-0.2,0.3c-2.8,0.5-2.8-2-5.4-1.6c-0.6,0.9-2.3,0.5-2.4,2c4.7-0.4,8.7,3.2,13.5,2.9c1.1,0,2.3-0.4,2.9,0.9
			c0.8,0,1.8,0.4,2-0.6c0.9,0.4,2.1-0.4,1.7-1.4v-0.1c-0.6-0.1-1.3-0.1-1.9-0.2C40.9,60.6,40.7,60.8,40.5,60.9z"/>
		<path class="st6" d="M43.1,64.3C43,64.4,43,64.5,43,64.5c-0.1,0.1-0.1,0-0.2,0c-0.1-0.1-0.1-0.1-0.2-0.2c-0.1,0-0.3,0-0.4,0
			c-0.5-0.4-0.9-0.9-1.3-1.4c-0.5,0-1.1-0.1-1.6-0.1c-0.7,1.1,0.9,1.8,0.5,2.9c0.5,0.1,1.4-0.8,1.5,0.5l0,0l0,0l0,0
			c1,0.4,1.4,1.2-0.1,1.8c0,0.4-0.1,0.8-0.4,1c0.4,1.5,0.4,5,2.5,4.8c0.6-0.1,1.6-0.5,1.1-1.7c-0.4-0.8,0.3-2.3,0.8-2.9
			c1-1.3-0.4-4.9-2-5.5l0,0l0,0C43.1,63.9,43.1,64.1,43.1,64.3z"/>
		<path class="st6" d="M49.2,67.4c-1.7-0.7-1.7,1.1-2.5,1.8c1.2,0.1,2.6,1.1,3.4-0.4C50.5,68.3,49.8,67.6,49.2,67.4z"/>
		<path class="st5" d="M41.2,68c1.4-0.6,1.2-1.4,0.1-1.8l0,0l0,0c-0.4,0.6-0.8,1.3-1.2,2c-0.5-0.4-0.2-1-0.4-1.5c-0.1,0-0.3,0-0.4,0
			c-0.3,0.7-0.6,1.3-0.5,1.8l0,0c0,0.1,0,0.2,0.1,0.3c0,0.1,0.1,0.2,0.1,0.2c0,0.1,0.1,0.1,0.2,0.1c0.5,0.3,1,0.3,1.7,0.3
			c0-0.2,0-0.3,0-0.5C40.7,68.6,40.8,68.2,41.2,68z"/>
		<path class="st4" d="M46.4,76.7c0.1,0.3,0.3,0.6,0.4,1l0,0l0,0c0.7,0,1.4,0,2,0c-0.1-0.3,0.1-0.7,0.3-1c0,0,0-0.1,0.1-0.1
			c1-0.9-1.6-2.8-1.7-1C47.5,76.2,47,76.7,46.4,76.7z"/>
		<path class="st6" d="M41.7,62.3c0.3,0.5,0.6,1,0.9,1.4c0.2,0,0.3,0,0.5,0c0-1,1.1-1.9-0.1-2.8C43.1,61.9,42.6,62.3,41.7,62.3z"/>
		<path class="st6" d="M39.7,66.7c0-0.3,0-0.7,0.1-1c-0.1,0.1-0.2,0.1-0.2,0.2c-0.2,0.2-0.2,0.5-0.2,0.8
			C39.4,66.7,39.6,66.7,39.7,66.7z"/>
		<path class="st7" d="M46.6,60.8l0.1,0.3c0-0.1,0.1-0.2,0.1-0.3C46.8,60.8,46.7,60.8,46.6,60.8z"/>
		<path class="st2" d="M47.5,60.9c0.2,0.1,0.3,0.2,0.5,0.3"/>
		<path class="st4" d="M50.4,84.9c-0.4-1-0.7-2-1.1-3c-0.6,0-1.1,0-1.7,0c-0.3,1.9,1.2,3.4,0.9,5.3l0,0c0.3,0.3,0.6,0.6,0.9,1
			c0.4-0.2,0.7-0.3,1.1-0.5C50.4,86.8,50.4,85.9,50.4,84.9z"/>
		<path class="st3" d="M46.8,77.7L46.8,77.7c-0.2,1.5-0.1,2.9,0.7,4.2c0.6,0,1.1,0,1.7,0c0.3-1.4-0.3-2.8-0.5-4.2
			C48.2,77.7,47.5,77.7,46.8,77.7z M48.1,79.7c-0.2-0.2-0.3-0.5,0-0.7C48.2,79.2,48.4,79.5,48.1,79.7z"/>
		<path class="st0" d="M31.4,69.3c0.1,0,0.2,0,0.3,0c2.2-2.3-0.4-4-0.9-5.9c-0.5-1.7-2.6-0.7-3.8-1.6c-0.4-0.3-1.2,2.6-0.4,2.3
			C28.9,62.3,29.2,68.6,31.4,69.3z"/>
		<path class="st0" d="M25.4,57c-0.1-0.6-0.5-0.8-1.1-0.8l0,0c-0.6,0.7-1.3,0.9-2,0.8c-0.9-0.1-1.8-0.5-2.7-0.4l0,0l0,0
			c0,0.8,0,1.6,0,2.4c1,0.3-0.4,1.4,0.5,1.7c1.1-0.4,1.3-2.5,2.9-1.7C23.2,57.5,24.8,57.9,25.4,57z"/>
		<path class="st0" d="M44.8,78.1c-0.1-0.6-0.2-1.2-0.2-1.9c-0.9-0.7-1.2-0.6-1.1,0.1c-0.4,2.2-1.9,3.8-2.4,6
			c-0.2,2.8,4.4,2.9,2,0.2c0.1,0,0.1-0.1,0.2-0.1c0.1,0.2,0.1,0.4,0.2,0.6c0.8-0.5,0.4-1.8,1.5-2.2c0.3-0.1,1.1-1.5,0.7-2.5
			C45.8,78.1,45,79.3,44.8,78.1z"/>
		<polygon class="st0" points="44.5,76.2 44.5,76.2 44.6,76.2 		"/>
		<path class="st0" d="M44.9,75.3c0-0.1-0.1-0.1-0.2-0.1c-0.1,0.3-0.1,0.7-0.2,1C44.9,76,45,75.7,44.9,75.3z"/>
		<path class="st0" d="M44.6,76.2L44.6,76.2L44.6,76.2z"/>
		<path class="st0" d="M50.4,87.7c-0.4,0.2-0.7,0.3-1.1,0.5c0,1.2,0.8,0.9,1.4,0.5C50.7,88.4,50.6,88.1,50.4,87.7z"/>
		<path class="st0" d="M53.3,89.9c-0.1-0.1-0.2-0.1-0.4-0.2c-0.1,0.1-0.2,0.1-0.4,0.2C52.7,90.2,53.1,90.2,53.3,89.9z"/>
		<path class="st8" d="M25.4,57c0.8,0.1,1.7-0.2,2.3,0.5c1.1,0.2,2.3,0.1,3.2,1l0,0c0.1-0.1,0.2-0.2,0.2-0.3l0,0
			c-1-2-3.5-1.9-4.6-3.7c-2.9-3.5,2.9-3.8,4.5-6c-1.3-1.5-4.3-0.2-3.9-2.8c0-0.9,0-1.7,1.3-0.9c0.5,0.3,0.5-0.4,0.3-0.7
			c-0.3-2.1,2.1-0.8,2.3-3.5c0.6-3.3,5.4-2.3,5.8-5.9c2.2,0.2,2.9-2.4,4.5-2.8c2.3-0.6,4-1.8,5.2-3.5c2.1-2.7,5.5-2.9,8.5-3.4
			c3.9-2.9,8.9-1.4,13-2.7c-0.1-0.4-0.2-0.9-0.7-0.9c-6-0.7-11.6-2-17.5-0.6c-5.5,1.5-11,5.4-15,9.3c-1,3.4-5.3-0.7-5.2,3
			c0.9,3.8-7.7,10.2-6.2,12c2,2.8,2,2.8-1.1,3.9c0,4-2.4,2-2.6,3.9c0.1,0.4,0.5,0.4,0.8,0.4c2-0.1,2.5,1.5,3.3,2.8
			C24.5,56.5,25.4,56,25.4,57z"/>
		<path class="st9" d="M20.6,53.2c-1,0.2-1-1.1-0.2-1.3c1.9-0.2,1.8-1.7,2-3c-0.5,0-0.9,0-1.4,0c-0.3,1.9-1.7,1.3-2.9,1.4
			c-1.2,1.4-2.6,1.4-4.2,1.4l0,0c0.1,0.3,0.3,0.8,0.4,0.8c3.6,0,6.4,2.2,9.6,3.5C23.1,54.7,22.6,53.1,20.6,53.2z"/>
		<path class="st9" d="M8.6,45.5c-0.1,0-0.3,0-0.4,0.1c0.9,0.8,1,2.2,2.4,2.6C10.5,46.8,9.6,46.2,8.6,45.5z"/>
		<path class="st0" d="M7.6,44.5c0.2,0.4,0.3,0.7,0.5,1.1c0.1-0.1,0.3-0.1,0.4-0.1c-0.1-0.2-0.1-0.4-0.2-0.5
			C8.3,44.7,8.1,44.5,7.6,44.5L7.6,44.5L7.6,44.5L7.6,44.5L7.6,44.5z"/>
		<path class="st9" d="M13.4,50.8c-0.1,0.4,0.2,0.6,0.4,0.8c0,0,0.1,0,0.1,0.1l0,0C13.7,51.3,13.5,51.1,13.4,50.8z"/>
		<path class="st9" d="M10.9,48.7c-0.1-0.1-0.2-0.2-0.3-0.4C10.5,48.7,10.6,48.8,10.9,48.7z"/>
		<path class="st0" d="M16.4,63.9c0.6-0.5-0.1-1.1-0.7-1.1C15.8,63.2,15.8,63.7,16.4,63.9z"/>
		<path class="st0" d="M15.7,62.8h0.1H15.7z"/>
		<path class="st9" d="M36.5,50c-0.1-0.4-0.2-0.8-0.1-1.2c2.7-3.9,6.9-6.3,10.1-9.9c3.5-4.3,8.8-4.8,13.1-7.7
			c10-7.2,16.2-1,20.4,8.1c1.2-6.8-3.6-11.9-8.4-15.8c-0.9-0.9-2.1-1.8-3.6-1.5c-4.1,1.4-9.1-0.2-13,2.7c-3,0.5-6.4,0.7-8.5,3.4
			c-1.2,1.7-2.9,3-5.2,3.5c-1.6,0.4-2.2,3-4.5,2.8c-0.3,3.8-5.2,2.5-5.8,5.9c-0.2,2.6-2.8,1.5-2.3,3.5c0.1,0.3,0.2,1.1-0.3,0.7
			c-2-1.6-1.8,3.3,0.2,2.8c3.2,0.2,5.1,3.7,8.2,4.2C37,51.2,36.7,50.6,36.5,50z"/>
		<path class="st8" d="M32,14c-0.5,0-1,0.1-1.4,0.1l0,0c0.3,2.2,2.1,2,3.8,2.1C34.2,14.9,32.4,15.2,32,14z"/>
		<path class="st8" d="M75.8,15.3c-0.8-0.1-1.6-0.6-2.4-0.5l0,0c0.5,1.8,1.6,1.7,2.9,0.9c0-0.1-0.1-0.3-0.1-0.4
			C76,15.3,75.9,15.3,75.8,15.3z"/>
		<path class="st9" d="M64.2,12c0.1,0.3,0.2,0.6,0.3,0.7h0.1c0.1,0,0.3-0.1,0.5-0.4C65,12,64.6,11.9,64.2,12z"/>
		<path class="st8" d="M43.1,10.9c0.2-0.1,0.3-0.2,0.5-0.3C43.3,10.5,43.1,10.6,43.1,10.9z"/>
		<path class="st1" d="M21,48.9c-1.2,0-2.5-0.1-2.9,1.4C19.3,50.2,20.8,50.8,21,48.9L21,48.9L21,48.9z"/>
		<path class="st9" d="M6.1,34.4c1,0.1,0.8-0.7,0-0.9C6.1,33.8,6.1,34.1,6.1,34.4z"/>
		<path class="st7" d="M8.1,27.7c0.4-0.1,0.3-0.1,0.4-0.4C8.3,27.4,8.2,27.5,8.1,27.7z"/>
		<path class="st1" d="M47,53.8C41.3,53,35.6,52,31.1,48.4c-1.6,2.1-7.5,2.6-4.5,6c1.1,1.8,3.8,1.7,4.6,3.7c0.3,0.2,0.6,0.5,0.9,0.7
			c0.1-0.1,0.2-0.2,0.3-0.3c1.8-0.4,3.3,0.9,5,0.9c1.1-0.7,2.1-1.1,2.9,0.4c0.3,0.1,0.6,0.1,0.9,0.2c-0.1-0.5,0.4-0.8,0.8-1
			c1.1-1.6,3.2-0.3,4.3-2c0.6-1,1.5-1.4,1.6,0.4c0,0.9,0.7,1.3,1.4,1.3c1.7-0.4,0.6-2.7,0.9-4C49.2,54.3,48.1,54.1,47,53.8z"/>
		<path class="st0" d="M40.2,59.9c-0.7,0.1-1.6-0.3-1.9,0.7c1,0.8,2,0.5,3-0.1c0-0.1,0-0.3,0-0.4C40.8,60,40.5,59.9,40.2,59.9z"/>
		<path class="st8" d="M40.2,59.9c-0.8-1.5-1.8-1.2-2.9-0.4c0.3,0.4,0.7,0.8,1,1.1C38.7,59.6,39.5,60,40.2,59.9z"/>
		<path class="st8" d="M32.4,58.5c0,0.1,0,0.3,0,0.4c1,0.9,2.3,0.2,3.5,0.3C34.8,58.7,33.7,58.3,32.4,58.5z"/>
		<path class="st6" d="M30.9,58.5c-0.9-0.9-2.1-0.8-3.2-1C28.3,58.7,29.8,58.5,30.9,58.5z"/>
		<path class="st3" d="M41.7,63.8c0.4,0.1,0.6,0.1,0.9,0c-0.5-0.8-1.2-2.3-1.7-0.8C41.1,63.2,41.4,63.5,41.7,63.8z"/>
		<path class="st6" d="M32.4,58.5c-0.1,0.1-0.2,0.2-0.3,0.3c0,0.2,0.1,0.1,0.2,0.1C32.4,58.8,32.4,58.7,32.4,58.5z"/>
		<path class="st0" d="M40.1,68.2c0.4-0.7,0.8-1.3,1.2-2c-0.1-1.3-1-0.4-1.5-0.5l0,0l0,0c0,0.3,0,0.7-0.1,1
			C39.9,67.1,39.5,67.7,40.1,68.2z"/>
		<path class="st0" d="M42.2,63.8c0,0.1,0,0.3,0,0.4c0.3,0,0.7,0,1,0c0-0.2,0-0.3,0-0.5C42.9,63.7,42.4,63.8,42.2,63.8z"/>
		<path class="st0" d="M40.7,69c0.1-0.1,0.2-0.1,0.2-0.2c0.2-0.2,0.2-0.5,0.2-0.8C40.8,68.2,40.7,68.6,40.7,69z"/>
		<path class="st4" d="M42.2,63.8c-0.2,0-0.4-0.1-0.5-0.1c0.2,0.2,0.3,0.3,0.5,0.5C42.2,64.1,42.2,64,42.2,63.8z"/>
		<path class="st4" d="M42.5,64.2c0.1,0.1,0.1,0.2,0.2,0.2c0.1,0.2,0.3,0,0.3-0.2C42.9,64.2,42.7,64.2,42.5,64.2z"/>
		<path class="st4" d="M48,79.3c0,0.1,0.1,0.2,0.2,0.4c0.1-0.1,0.1-0.2,0.2-0.3c-0.1-0.1-0.1-0.2-0.2-0.4C48.1,79.1,48,79.2,48,79.3
			z"/>
		<path class="st6" d="M43.4,82.3c-0.1,0-0.1,0.1-0.2,0.1c0.1,0.2,0.2,0.3,0.4,0.5l0,0C43.5,82.7,43.5,82.5,43.4,82.3z"/>
	</g>
</g>
</svg>
