<svg version="1.1" id="prefix__Layer_1" xmlns="http://www.w3.org/2000/svg" x="0" y="0" viewBox="0 0 100 100" xml:space="preserve"><style>.prefix__st0{fill:#7f5736}.prefix__st1{fill:#e5e5e5}.prefix__st2{fill:none}.prefix__st3{fill:#c59562}.prefix__st4{fill:#a07449}.prefix__st5{fill:#492c17}.prefix__st6{fill:#654225}.prefix__st7{fill:#aba6a3}.prefix__st8{fill:#dddad9}.prefix__st9{fill:#cdccca}</style><path class="prefix__st0" d="M2.2 36.7l.3 11.1 3.2 14.5C11.4 71.5 12 76.8 25.1 85c27.4 14.4 51.8 4.8 67.1-19.7 3-4.9 7.9-29 5.4-34l-5.9-7.9 4.4 12.4s-2.4 9.2-5.3 11.9c-9.9 7.5-28.7 15.1-42 16-16.4-2.3-24.4-6.2-37.4-12.2C8.6 48 3 40.3 2.2 36.7z" id="prefix__Layer_3"/><path class="prefix__st1" d="M50.1 10c59.9.6 59.9 49.6 0 50.2-59.9-.6-59.9-49.6 0-50.2z" id="prefix__Layer_2_1_"/><g id="prefix__svg2" xmlns:cc="http://web.resource.org/cc/" xmlns:dc="http://purl.org/dc/elements/1.1/" xmlns:inkscape="http://www.inkscape.org/namespaces/inkscape" xmlns:rdf="http://www.w3.org/1999/02/22-rdf-syntax-ns#" xmlns:sodipodi="http://sodipodi.sourceforge.net/DTD/sodipodi-0.dtd" xmlns:svg="http://www.w3.org/2000/svg"><path class="prefix__st2" d="M73.4 46.5c.3 2.8 1.5 4.1 3.8 3.9-2.2.2-3.4-1.1-3.8-3.9zM42.7 9.8h.5-.5zM21.3 47.5c0 .4 0 .8-.3 1.4.3-.6.4-1 .3-1.4zM47 53.8c-3.4-.7-6.8-1-10.1-2.1.1-.5-.2-1.1-.4-1.7.2.6.5 1.1.4 1.7 3.3 1.2 6.7 1.5 10.1 2.1zM85.1 51.7c.2-.3.3-.7.2-1 0 .4 0 .8-.2 1zM72.7 57.8c.1 0 .2-.1.3-.3 2.6-.7 5-2.1 7.4-3.4-2.4 1.3-4.7 2.7-7.4 3.4-.1.2-.2.3-.3.3zM28.8 58.3c.6.3 1.4.2 2.1.2-.7 0-1.4 0-2.1-.2zM59.9 59c-.6.3-1.1 1-1.7 1.4 2.6-2.8 6.7-1.9 10-3.5-2.7 1.1-5.5 1.2-8.3 2.1zM21.3 47.2c-.1-.2-.1-.3-.2-.5 0 .2.1.3.2.5zM8 25.2v-.4.4zM38.3 60.6c-.3-.4-.7-.8-1-1.1.7.8 1.4 1.7 2.5 1.6-.5 0-1-.1-1.5-.5zM50.3 54.7h1-1zM41.2 60.4c.6.1 1.3.1 1.9.2-.7 0-1.3-.1-1.9-.2zM70.1 47.1c1.1-.3 2.2-.7 3.3-1-1.1.3-2.2.7-3.3 1zM6.3 43.8c.3.4.7.6 1.3.7-.6-.1-1-.3-1.3-.7zM52.8 61.3c.3 0 .7-.1 1-.3.8 0 1.5-.1 2.3-.1-.8 0-1.5.1-2.3.1-.3.2-.7.3-1 .3zM35.4 59.2c.6 0 1.3.2 1.9.2-.7-.1-1.2-.2-1.9-.2zM78.6 37c.2.9.5 1.8 1.4 2.3-.3 1.2-.9 2.2-1.6 3 .7-.8 1.3-1.8 1.6-3-.9-.5-1.2-1.4-1.4-2.3zM27.7 55.5c1.3.8 2.9 1.1 3.5 2.6-.7-1.5-2.3-1.8-3.5-2.6zM32.3 58.9c.3.2.6.3.8.4-.2-.1-.5-.2-.8-.4.1.1 0 .1 0 0zM28.8 58.3c-.3-.1-.5-.2-.7-.5.2.2.5.4.7.5zM36.5 50c-.1-.4-.2-.8-.1-1.2-.1.4-.1.8.1 1.2zM20.1 17.1c-.1-.7.1-1.1.4-1.4-.4.3-.5.7-.4 1.4 2.7-1.2 5.5-2.5 8.2-3.7-2.8 1.2-5.5 2.5-8.2 3.7zM28.3 13.4s-.1 0 0 0zM18.1 17.7c-.4.1-.7.2-1.1.2.4 0 .8-.1 1.1-.2zM94 30.6l-.6 1.5.6-1.5zM83.2 17.4l.3-.3c-.2.1-.3.2-.3.3zM20.5 15.6c.2-.2.4-.3.7-.5-.3.2-.5.3-.7.5zM89.6 46.8c.4-.2.7-.4 1.1-.6-1.1.8-2.5.7-3 2.1-.5 0-.8.1-1.2.4.3-.2.7-.4 1.2-.4.2-1 1.1-1.2 1.9-1.5zM58.3 9.4c-.2.1-.2.4-.4.6.2-.1.3-.4.4-.6zM29.4 11.6l-.3.3c.2-.1.3-.2.3-.3zM28.2 13.3c-.2-.5-.3-.9-.5-1.4l.5 1.4zM61.9 10.2c0 .3.1.6.1.9-.1-.3-.1-.6-.1-.9zM83.1 18c0-.2 0-.4.1-.5-.1.1-.1.3-.1.5.8.1 1.5.1 2.3.2-.8-.1-1.6-.2-2.3-.2zM82.4 51.2h-.9.9zM79.1 52.2c.2 0 .4-.1.7-.1-.3 0-.5.1-.7.1-1.1.8-2.3 1.4-3.5 2 1.2-.5 2.4-1.2 3.5-2zM34.6 59.3c-.3.1-.6.1-.9.1.3 0 .6 0 .9-.1zM81.6 50.9c-.2.7-1.2.9-1.8 1.2.6-.2 1.2-.5 1.7-.9 0-.1.1-.2.1-.3zM52.2 59.9c0-.2.1-.5 0-.7.1.3.1.5 0 .7zM67.7 48.3c0 .1.1.1 0 0 0 .2 0 .1 0 0zM95.4 41.2v-.4c.1.1 0 .3 0 .4zM8.5 26.3c.2 0 .4.1.5.1-.1-.1-.3-.1-.5-.1zM8 25.3c-.2-.1-.5-.2-.7-.3.4.2 1.1.4 1.2.9-.1-.2-.2-.4-.5-.6zM95.4 41.2v0zM89.7 48c.8-.4 1.9-.6 2.3-1.5-.4.9-1.5 1-2.3 1.5zM43 60.8c0-.1 0-.1 0 0zM13.3 20.6v.4c-.2.3-.3.6-.5.8.2-.3.3-.6.5-.8v-.4zM18.1 17.7c0 .3-.1.6-.1.9-.3.2-.6.3-.9.5.3-.2.6-.3.9-.5.1-.3.1-.6.1-.9zM13.5 51.3l.3.3c-.1-.1-.3-.2-.3-.3zM14.3 25.9c-.3.1-.5.1-.8.1.3 0 .5 0 .8-.1zM7.6 44.5c.3.7.6 1.2 1.1 1.8-.2-.3-.3-.5-.6-.7-.1-.4-.3-.7-.5-1.1zM13.9 51.7zM37.4 10.9c1.2.2 2.4-.4 3.5-.8-1.2.3-3.3 1.6-4 .4 0 .3.1.4.5.4zM35.4 13.6c0-.6.1-1.2 0-1.8.1.6 0 1.2 0 1.8zM35.1 11.6c-.3-.1-.7.3-1 .4-.2-.4-.6-.7-.9-.9.4.1.7.4.9.9.3-.2.6-.5 1-.4zM12.8 26c-.2 0-.5 0-.7-.1.2 0 .5.1.7.1zM13.9 51.6zM6.1 34.4zM7.5 29.7v.4c.1-.2.1-.3 0-.4zM7.5 29v0zM6 30.2c-.1.3-.2.6-.4.9 0 .2-.1.3-.1.5-.4.4-.8.5-1.2.4.4 0 .8-.1 1.2-.5 0-.2.1-.3.1-.5.2-.2.3-.5.4-.8zM5.2 36.9c0 .5-.1 1-.1 1.5.1-.5.1-1 .1-1.5zM23.9 55.9c.1.1.3.2.4.2-.1 0-.2-.1-.4-.2zM8.5 27.1c0-.3.3-.5.5-.7l-.4.4c0 .1 0 .2-.1.3zM10 26.3h-.9.9c.5-.4 1.1-.4 1.7-.4-.6 0-1.2.1-1.7.4zM8.4 45c-.1-.3-.3-.5-.7-.5.4 0 .6.2.7.5zM5.2 38.4c0 1.5.5 2.8 1.8 3.9.2.7.4 1.3.6 2-.2-.7-.4-1.3-.6-2-1.4-1.2-1.8-2.5-1.8-3.9zM8.1 26.5c-.4.3-.5.7-.5 1.2-.1-.5.1-.9.5-1.2zM35.5 14.8c-.1-.4-.1-.8-.1-1.2 0 .4 0 .8.1 1.2zM41.2 66.2c-.4.6-.8 1.3-1.2 2 .5-.7.8-1.4 1.2-2zM41.3 66.2c.1.1.3.1.4.2-.2-.1-.3-.1-.4-.2zM78.2 16c0-.1 0-.1-.1-.2l.1-.1-.1.1c.1 0 .1.1.1.2zM76.4 15.1c3.7 1.9-2.2-1.9-3.5-2.7 1.3.4 2.5 1.6 3.5 2.7zM43.1 63.8h-.5c.2-.1.3-.1.5 0zM90.8 27.7v-.4c.4.3.7.6 1.1.8-.4-.3-.7-.6-1.1-.8-.1-.3-.2-.6-.2-1 .2.4.2 1 .2 1.4zM44 11c-.1.9.2 1.6.3 2.5-.2-.8-.3-1.7-.3-2.5zM90.3 29.5c0-.2.1-.4.1-.7-.1.2-.1.5-.1.7zM64.7 12.7s-.1 0 0 0c-.1 0 0 0 0 0zM82.7 18.7c1.1 1.3 2.1 2.5 3.2 3.7-1.1-1.2-2.2-2.6-3.2-3.7zM32.9 16.1c-.4 0-.8-.1-1.1-.2.4.1.7.2 1.1.2zM19.6 56.6V59h-.3.3v-2.4zM42.9 15.3c0-1.5.5-2.9.1-4.4.4 1.4-.1 2.9-.1 4.4zM32.9 16.1c.5 0 1 .1 1.5.1.4.4.7.9 1.1 1.3-.4-.4-.7-.9-1.1-1.3-.4 0-.9 0-1.5-.1zM21.2 59.6c.2-.3.4-.6.8-.7-.4.1-.6.4-.8.7zM43.6 10.6c-.2.1-.3.2-.5.3.2-.4 1.5-.3.5-.3zM18.6 56.2v.4c-.1.1-.2.3-.4.4.1-.1.2-.3.4-.4v-.4zM36.9 18.7c-.5-.3-.9-.7-1.3-1.1 1.1 1.7 3.5 1.8 4.9.7-1.1.5-2.3 1.2-3.6.4zM42.7 64.5c.1.1.1.1.2 0h-.2zM41.7 63.8l.5.5h.2-.2l-.5-.5zM43.1 63.8v-.1zM63.5 78.6c.3 0 .7.3.9.3-.3 0-.6-.3-.9-.3zM48.3 87.3s.1 0 0 0zM47.3 76.1c-.1.4-.4.5-.9.6.5 0 .8-.2.9-.6zM51.4 88.5zM62.8 79.1c0 .3.1.5.2.8-.1-.3-.2-.5-.2-.8zM6.2 31.3v2.2c.1 0 .1.1.2.1-.1 0-.1-.1-.2-.1v-2.2c-.2-.1-.3-.1-.5-.2.1.1.3.1.5.2zM62.8 78.6v0zM51 69.9h-.2.2zM56.4 80.1c-.2.2-.4.5-.5.7.2-.2.4-.4.5-.7zM62.8 78.6h.5-.5zM66.3 65.8c-.3-2-.6-4-1.5-5.8 2.5-.8 5.1-1.6 7.6-2.4-2.5.8-5.1 1.6-7.6 2.4.9 1.8 1.2 3.8 1.5 5.8zM46 88.7c-.8.4-1.4 0-2.1-.3 1.2.9 2.6.4 3.4-.8-.4.4-.7 1.1-1.3 1.1zM27.1 75.3H27h.1zM47.6 87.4zM50.8 88.7c-.7-1.1-.3-2.6-.5-3.8 0 1.2-.1 2.7.5 3.8zM34 75.8c.2-.2.3-.4.5-.5-.2.1-.4.3-.5.5zM23.5 79.1c.1-2.1-1.4-4.2-1.3-6.3.1 2.2 1.3 4.2 1.3 6.3zM49.4 76v.2c-.1 0 0-.1 0-.2zM53.6 84.8c-.5.4-1.1.7-1.9.6.9.1 1.4-.2 1.9-.6zM53.6 84.8c.3-.2.5-.4.7-.7-.2.2-.4.5-.7.7zM49.2 76.6c-.1 0-.1 0 0 0-.1 0-.1 0 0 0zM48.4 87.2zM97.4 48.3v1.6c0 .1.1.1.1.2h-.2c-.2.5 0 1 0 1.5.2-1.1.4-2.3.5-3.4 0 .1-.2.1-.4.1zM59.9 64.3c.8-.7.4-1.9.6-2.8.2 0 .3 0 .4.1-.1-.1-.3-.1-.4-.1-.2.9.3 2-.6 2.8zM96.7 53.1v1.5c.2-.7.3-1.4.5-2.1-.1.2-.2.4-.5.6zM56 71.7c0-.2 0-.5.1-.7-.1.1-.1.4-.1.7zM59.3 67.6c0-.2-.2-.4-.4-.5.2.1.4.3.4.5zM95 57.5c-1.8 6.2-5.2 13-10.1 16.8-.1 1.8-1.4 2.4-2.9 2.9-3.4 5.1-9 7.9-14.1 11C81.6 82.5 92.1 70.7 96.3 56c-.4.5-.9 1-1.3 1.5zM54.1 73zM18.9 80.7c.1-.1.1-.3.1-.5 0 .2 0 .4-.1.5-5-3.1-8.8-8.6-10.9-13.7-.8-.8-1.7-1.4-1.1-2.7C4.7 63.2 5 60.9 4.5 59c-.9-.6-.8-1.5-.8-2.5-.7-.8-.5-1.8-.7-2.7-.4-.2-.1-.8-.7-1-.5-.1-.8-.3-1-.5C3.8 64 10.2 74.2 19.1 81.4c0-.1-.1-.3-.1-.4-.1 0-.1-.1-.1-.3zM51.9 69.6c-.2.1-.5.2-.7.3.2-.1.5-.1.7-.3zM51.8 86.8v0c.6-.3 1.2-.7 1.9-.6-.7 0-1.3.4-1.9.6zM50.2 89l.6-.3-.6.3zM58.8 66c0 .1.1.1.1.2 0 0-.1-.1-.1-.2zM55.3 86.6c.2-.1.4-.4.4-.8-.1.4-.2.7-.4.8zM50.2 73.4c.2-1.1.1-2.3.1-3.4 0 1.1.2 2.3-.1 3.4zM58.6 65.3c0 .1 0 .2.1.3-.1-.1-.1-.2-.1-.3zM51.9 69.6c.2-.1.4-.3.6-.5-.2.2-.4.4-.6.5zM72.8 78.3c.2 0 .4 0 .6.1-.2 0-.4-.1-.6-.1zM59.9 64.3c-.1.1-.3.2-.5.3.2-.1.4-.2.5-.3zM1.6 40.3c-.1-.3-.2-.7-.2-1 0 .3.1.7.2 1zM14.8 70c.3.2.6.3.9.5v.9c0-.3.1-.6 0-.9-.3-.2-.6-.3-.9-.5zM8 49c.4.5.7.9 1.1 1.4v0c-.4-.5-.8-1-1.1-1.4zM6.6 49c0-.2-.1-.4-.1-.6.1.2.1.4.1.6z"/><path class="prefix__st2" d="M16.8 74.6c.2.8.3 1.7-.1 2.6-.4 0-.9 0-1.2.3.3-.3.8-.3 1.2-.3.3-.9.3-1.8.1-2.6zM14.7 69.3c0 .2 0 .5.1.7-.1-.2-.1-.5-.1-.7zM8.1 55.1c-.1.1-.1.2-.1.2s0-.1.1-.2zM8.6 55.8c-.1-.2-.3-.4-.5-.7.2.2.4.5.5.7zM15.7 62.8c-.3-.5-.6-1-1-1.4.4.4.7.9 1 1.4zM13.3 67.2c.3.1.6.1 1-.1.4.4.5.9.5 1.4 0-.5-.1-1-.5-1.4-.3.3-.6.2-1 .1zM6.7 58.4zM8.7 56.7c0 .2-.1.4-.1.6.1-.2.1-.4.1-.6zM6 43.3c-.1-.2-.2-.4-.2-.6 0 .2.1.4.2.6zM6.3 43.8c-.1-.2-.2-.3-.3-.5.1.2.2.3.3.5zM2.5 42.7c-.1-.3-.2-.5-.3-.8.1.3.2.5.3.8zM1.9 41.3c-.1-.3-.3-.6-.4-1 .2.3.3.6.4 1zM4.3 48.2h.2c0-.1-.1-.1-.2 0zM9.2 47c-.2-.3-.3-.5-.5-.8.2.3.3.6.5.8zM22.3 57zM6.3 48.4h.2c-.2-.9-.7-1.5-1.3-2.1.6.6 1.1 1.2 1.3 2.1h-.2zM15.3 60.2c.5-.3 1.1-.4 1.4-.8-.3.4-.9.5-1.4.8zM38.9 69c-.1-.1-.1-.2-.1-.2 0 .1.1.2.1.2zM49 63.1c0 .1.1.2.2.3-.1-.1-.1-.2-.2-.3zM7.6 61.9a1.205 1.205 0 000 0zM48.9 62.5c0 .1 0 .3.1.4-.1-.1-.1-.2-.1-.4zM19 80.2v-.6.6zM38.8 68.5s-.1 0 0 0c-.1 0 0 0 0 0zM39.6 69.4c-.2-.1-.3-.1-.5-.2.1.1.3.2.5.2zM48.9 61.4v0c-.1 0-.1 0 0 0zM58.6 61.7c-.1.5-.1 1-.2 1.5-1 .7-2.3.5-3.5.6 1.2-.1 2.5.1 3.5-.6.1-.5.1-1 .2-1.5zM12.4 67.1c0-.1 0-.2-.1-.3.1.1.1.2.1.3zM43.4 62.5c-.1.2-.1.3-.2.5.1-.1.2-.3.2-.5zM17.7 59c-.3.1-.6.3-.9.4.2-.2.6-.3.9-.4zM6.6 59.8c-.3-.4-.3-.8 0-1.3-.3-.3-.6-.7-.9-1 .3.3.6.7.9 1-.3.5-.3.9 0 1.3zM10 62.8c.6-.4 1.3-.8 2-1.2-.7.3-1.3.8-2 1.2-.3-.5 0-1.4-.6-1.6.6.1.4 1.1.6 1.6zM21.2 68.4c-.1.3.2.6 1.2 1.2v.9c-.2.1-.3.3-.4.6 0-.2.1-.4.4-.6v-.9c-1-.6-1.3-.9-1.2-1.2zM37.1 63.8zM14.7 69.3v-.4c.1.1 0 .2 0 .4zM21.2 59.6c-.1.1-.2.3-.3.4.1-.2.2-.3.3-.4zM8.1 61.3c-.1 0-.3-.1-.5-.1.2.1.4.1.5.1zM36.4 61.8c.2.2.3.5.4.7-.1-.2-.2-.4-.4-.7-.6 0-1.2-.1-1.7-.1.6.1 1.1.1 1.7.1z"/><path class="prefix__st3" d="M97.2 50.4c.2-.2.1-.2.1-.5v-1.6c-1.7.7-2-1.8-3.4-1.5-2 .1-3.9 5.3-5.6 3.1-.1-.5 1.1-.8.9-1.5-1.7-.3-3 .1-4.1 1.4 0 .7.4 1.8-.4 2.1-4 1.6-7.5 4.5-11.8 5.6-.2.4-.4.4-.6 0-2.5.8-5.1 1.6-7.6 2.4 1.9 3.8 1.1 8.3 2.9 12.2-2.2-1.4-1.8-3.8-2.7-5.5-2.3-.9-1.4-2.6-1.3-4.2-1.2-2.4-1.6-2.5-2.8-.8 4.3 2.6-1.2 3.8 1.2 5 .4.1 1 .1 1.2.6.3.7 2.4 1.6-.5 2.1-5.9.5.9 2.9-1.4 5.5 0 .4 0 .7.5.9.9-.7 1.8-1.7 2.4.3.9-.8 2.2.3 3-.6 1.1-1.5 1.3-.2 1.7.5 2.5-6.7 8.6-5.8 5.3-1.1-1 .9-3 2.3.5 2.5 1 0 .1 1.6-.5 1.3-1.5-.8-2.5.2-2.2 1.9.6.8 1.6-1.1 2.1.3.8 1.7-1 2.7-1 4.2 3.6-1.9 6.9-4.2 9.1-7.7-.3-.9-1.1-1.4.4-1.8.8-.3 1.3-1.5 2.4-1.2 5-3.8 8.3-10.7 10.1-16.8 0-1.1.3-1.9 1.4-1.9.7-1.7-.3-3.6.7-5.2zM67.6 64c-1.9-1.8-.6-2.7.9-3.6.5 1.4-1 2.3-.9 3.6z"/><path class="prefix__st4" d="M73.4 83.7c.6-.9 1-1.8.6-2.9-.5-1.4-1.5.5-2.1-.3-1.5-.6-.9-2.2-1.6-3.1-.1-.1.1-.5.3-.5 1.5-.3.5 1.7 1.4 2.3.4-1.1 1.4-.9 2.2-.5.7.3 1.4-1.3.5-1.3-3.5-.2-1.4-1.6-.5-2.5 3.3-4.5-2.7-5.8-5.3 1.1-.4-.7-.6-2-1.7-.5-.7 1-2.1-.2-3 .6-.5-2-1.5-1-2.4-.3 1.7 1.6-1 2.7-.9.4-.5-.8-.6-3 .4-1.4 2.2-2.6-4.5-5 1.4-5.5 2.9-.4.8-1.3.5-2.1-.2-.5-.8-.5-1.2-.6-2.3-1.2 3.4-2.8-1.6-5.1.4 4.1-2.1 2.4-1.8 4.1.1.4.4 1 .2 1.4.8.4.1 1.3-.4.5-3.6.1-3.9.5-2.4 3.4 0-.1.1-.1.1-.2 0 .1-.1.1-.1.2 0 .5 0 1.6-.9 1-.8-.5-2.5-.2-2.3-1.9.1-.5.4-1 0-1.9-.1.5-.5 1.2-1 1.4-.5.3-1 .3-1.5.3-.1 1.8.4 3.8-1 5.3.8.1 1.6-1 2.2-.1.5.6.6 1.5-.7 1.7-.7.9 1.1 2.8 2.3 2.4 1.2-.3-.3-3.1 1.1-3.1.7 0 1.9-.4 2.3.7 2.6 3.2-3.4 3.6-.8 8.8 2.2 2 3.5-1.4 5.7-.9 0-.1.1-.1.1-.2 0 .1-.1.1-.1.2 2.6-.6-1.6-3.9 1.5-6.3.1-.7.2-1.1.9-.5.4.2 1.5-.1 1.2.6-.4 1.2-1 .2-1.7.3h-.5v.4c-.2 2.5 4.5 3.8 1.8 6.3-.5.5-.4 1.2.5 1.5 1 .3 1.2 1.3 1.7 2 2.2-.9 4.5-2 6.2-3.8-.1-.6.1-1 .4-1.4zM54.1 73c0 .1-.1.3-.1.5-.2.3-.4.7-.9 1.1-.6-1-1-2.1-1.6-3 .1.1.2.1.3.2 1 .3 2.4.4 2.3 1.2zm6.1 0c-.3-.2-.2-.5 0-.8.1.1.1.2.2.3-.1.3-.2.4-.2.5z"/><path class="prefix__st5" d="M54.9 91.6c-.2.1-.4.1-.6.2 1.1-.1 2.2-.3 3.3-.5-.9-.5-1.7.1-2.7.3zM50.5 90.5c-1.2-1.6-4 1.5-2.1-3.2-.3 0-.5 0-.7.1-1 1.1-2.3 2-3.7 1-1.5-.7-4.2.3-2.7-2.5.2-.3.1-1.2-.6-.9-2.7 1.1-4.5 0-6.4-1.9-.8-.7-3 .1-4.1-1.5.8-.3 1.7.1 2.3-.6-.4-1-1.9-.4-2.1-1.6-3.2.1-3.8.3-4.3-1.9 1.2 1.4 2.6.4 3.7 1-1.3-4.2 4.5 1.7 4.3-2.8-1-.3-2.4 0-2.8-1.5h-1c.2.6.5 1-.4 1-.5.6-1-.2-1.5-.1H27c-1.7-.6-1 1.4-1.9 1.7-.8 0-.8-3-.1-3.2-.3-.4-1-.7-.5-1.4-.6-.8-1.4-1.1-2.4-1 .1 2.6 1.4 5.1 1.5 7.6-.8 1.5-.1 2.5-.8 4.2 1.3-.4 2.3-2.3 3.3-1.7.9 1.1-1.2 2.3-1 3.7 7.8 4.5 17.2 7.2 26.7 6.6-.7.2-1.1-.3-1.3-1.1zm-23.4-6.2c-.2 0-.4-.2-.5-.3.3-.5.7-.4 1.2-.1-.4.2-.6.4-.7.4z"/><path class="prefix__st4" d="M16.6 77.2c1.2-2.4-1.4-4.2-1-6.6-.3-.2-.6-.3-.9-.5-.4 1.4-1.1.1-1.8.4.7-1.2 1.3-.3 1.8-.4-.1-.2-.1-.5-.1-.7 0-.7.1-1.6-.5-2.2-.6.5-1.3-.2-2 0 0 .6.1 1.2-.6 2-.3-1.1-.6-1.8.6-2 0-1.1-1.9-1-1.5-2.2.3-1.1.8 0 1.2-.1.7-.1 1.4-.4 2-.6.2-1 .3-1.9.5-2.9-.2-1.4 1.3-1.3 1.9-2 .1-.7-.8-1.3.5-1.5 0-.7.3-.9.9-.9.2-.1.2-.4.5-.5v-.4c-1.3-.1-2.9 1.2-3.3-.9-3 .1-3.6-3.7-6.3-4-.7.8.5 2.2-1 2.4V55c1.8 1.5-.4 3.4-.2 5.1-1 .3-1.8-.6-1.2-1.6-.3-.3-.6-.7-.9-1 .2.5 0 1.2-.6 1.5.5 1.9.2 4.2 2.4 5.3 1.3.2.7-1.1 1.2-1.6v-.3c-.2-.4-1.3-.6-.9-1.1.3 0 .8.1 1.2.1 1.3-.7 1.3.4 1.5 1.4.6-.4 1.3-.8 2-1.2.1 1.4-.3 2.3-1.9 1.8-.2.2-.4.4-.6.7.3 1.3-.2 2.4-1.4 3 .9.6 0 1.6.7 2.4 2.5 2.5 3.6 6.1 6.4 8.4.3-.6.8-.7 1.4-.7z"/><path class="prefix__st0" d="M22 71c0-.2.1-.4.4-.6v-.9c-1.1-.7-1.6-1-.9-1.5v-4.3c-.9-.3-.8 2-2.2.7-.9-.8-1.3-1.4-.7-2.5.7-1.2-1.8-1.6-.9-2.9-.3.1-.6.3-.9.4-.7.7-2.2.5-1.9 2 .3.5.6 1 1 1.4-.2-1.6 1.6-1.8 1.4-.2.4 3.4-2.8 2.2-1.4 6.4 1.8.2 2.1 1.3 2 2.8-.4 1.9 2 3.6 1.1 5.4-1 1.3-2.8-1.1-3.7.7 1.2 1 2.3 2.2 3.7 2.9.1-.1.1-.3.1-.5.1-.5-.3-1.3.6-1.3 1.9.1 2.1-1.8 3.4-2.3-.6-1.7-.7-3.5-1-5.2-.1-.2-.1-.3-.1-.5zM65 86.8c-.9-.2-.9-1-.5-1.5 2.5-2.6-1.8-3.7-1.8-6.2v-.5c-3 2.2 1.1 5.7-1.5 6.3-2.3-.6-3.5 3-5.7.9-.1.6-.2.7-.6.9-1.4-.4-1.8-.8-3.3.1v.9c2.1 1.5 4.9 1.8 7 3.4 2.7-.6 5.4-1.3 7.9-2.3-.3-.7-.5-1.7-1.5-2zM61.3 84.9h.1zM62.8 78.6z"/><path class="prefix__st6" d="M90.6 26.4c.1.3.2.6.2 1 .4.4.8.6 1.2.9 2.1-.6 1.1 1.6 2 2.3 1.5 1.3 3.4 3 1.7 4.9-1.2 1.2 2 2 2.3.8.1-.6.3-.9.8-.9-.1-.6-.3-1.3-.5-2-.4-.1-.5-.2-.1-.5-.6-4.1-2.1-7.7-6-9.7-.5 1.1-1.1 2.2-1.6 3.2z"/><path class="prefix__st0" d="M37.4 10.9c2.4.3 4.8-2.3 7.1-.5 3.4.2 6.7-.2 10.1.1.1-.2.3-.4.4-.7-.9-.3-1.7-.6-1.8-1.6-5.3.1-10.7-.9-15.9 1-.2.4-.3.9-.5 1.3.1.3.2.4.6.4zM3.2 35.2c1.1-.3 1.1.4.8 1s1.1 1.9-.8 1.8c-.7.1-1.1.9-1.9.8-.1 1.5.8 2.6 1.2 4 .7-.6 1.5-1.2 2.2-1.8 1.3.9.7 3.4 2.8 3.6-.2-.8-.5-1.5-.7-2.3-2.3-2-2.1-5.3-1.4-7.9 0-1-.1-1.9-.1-2.9-.7 1.3-2 .1-2.8-.5-.5.9-.8 1.9-.7 3 .7.2.3 1.5 1.4 1.2zM7.6 44.5z"/><path class="prefix__st3" d="M3.1 53.9c.3-.4-.1-1.1.6-1.4.2 1 3.5 1.5 1 2.2-.7.4.3 1.6-.9 1.8 0 .9-.2 1.8.8 2.5.6-.3.8-.9 1.1-1.5-.1-.3-.5-.7-.1-1 .6-.4.5.6 1 .6.2-.7-.5-1.9 1-1.9-.5-1.7 1.4-1.2 1.2-2.3 0-.5-.3-1.2.2-1.5.2-1.2-1-3.4-2.3-2.4C6 51.8 4 51.5 2 50.9c-.4.3-.7.5-.8.8 0 1.4 1.6.9 1.9 2.2z"/><path class="prefix__st6" d="M61.9 10.2c0 .3.1.6.1.9.3 0 .5.1.8.1 2.9-2.1 5.4 1.8 8.7 1.1 2.9-.5 4 3 6.7 3.4 1.5-.1 2.8.9 4.2.6-5.7-4.4-12.9-5.4-19.5-7.3-.3-.1-1 0-1.2.5.1.2.1.4.2.7z"/><path class="prefix__st0" d="M9.1 26.3zM8 24.7v.7c.4.2.5.5.5.9.2 0 .4.1.5.1 2.1-1.2 2.7-3.6 4.1-5.3-.3-1.9.8-1.6 1.9-.7l.6-.3c.2-.6.6-1 1.4-1 .3-.2.6-.3.9-.5 0-.3.1-.6.1-.9-1 .4-1.9.2-2.7-.5-2.6.7-4.5 2.2-6.1 4.3-1.8.2-2 1.6-2.3 3 .2.4 1.1 0 1.1.2zm1.4-3.3c2.6.2 1.3 2.5-.8 2.7.5-1.1 1.1-1.8.8-2.7zM97.9 36.3c-.1 1.4-3.4.3-2.3-.8 1.6-2.1-.1-3.4-1.7-4.9l-.6 1.5c2.1 2.4-.3 9.1 2 9.6 0-.6-.2-1.3.7-1.3 1.2.2.4 2.5-.8 2.4-.4.2-.4.6-.4 1 3 .2 4.3-6 3.8-8.2-.4-.1-.5.2-.7.7zM96 39.6s-.1.1-.2 0c-.6-.4.6-.3.2 0z"/><path class="prefix__st7" d="M98.8 37.4c-.5 2.1-1 6.2-3.9 6.2.3 1.3-.4 2.3-1 3.3 1.5-.3 1.8 2.2 3.4 1.5.3 0 .4-.1.6-.2.1-.4.1-.8.1-1.2-.1-.1-.1-.2 0-.3-.3-3 1.3-6.6.8-9.3z"/><path class="prefix__st0" d="M85.3 20.6c2.3.3 2.3 2.6 3.4 4 .5.1.4.4.5.8.6.1.7 1 1.4 1 .5-1 1.1-2 1.6-3.1-1.9-2.2-4.4-3.7-6.8-5.2.2.8.2 1.7-.1 2.5z"/><path class="prefix__st6" d="M4.3 32c.4 0 .8-.1 1.2-.5.2-.9.7-1.7.8-2.7-.3-1.1.6-1.3 1.3-1.2 0-.6.3-1.3.9-1.4-2.6-4.3-4.2 3.5-5.9 4.9.5.3 1 .9 1.7.9z"/><path class="prefix__st0" d="M25.9 81.7c-1-.6-2 1.3-3.3 1.7.6-1.1.3-2 .3-2.8-1.3-.2-2.1 1-3.2 1.4 1.6 1.3 3.3 2.4 5.1 3.4-.2-1.4 2-2.6 1.1-3.7z"/><path class="prefix__st6" d="M18.1 17.7c.2-.2.3-.3.5-.4.2.1.3.3.5.4.3-.2.6-.4.9-.5-.1-.7.1-1.1.4-1.4h.1c1-1.2 3.7-.8 3.5-2.8-3 .7-6.5 1.7-8.5 4.1.7.7 1.7.9 2.6.6z"/><path class="prefix__st4" d="M22.4 14.6c-.6.4-1.5.5-2 1.1h-.1c-.3.3-.5.8-.4 1.4 2.7-1.2 5.5-2.5 8.2-3.7v-.1l-.5-1.4c-1.5-.3-2.4 1.2-3.8 1 .4 1.3-.7 1.3-1.4 1.7z"/><path class="prefix__st3" d="M3.2 49.8c.3-2.3 1.8-1.4 3.2-1.4-.6-2.3-3.1-3.2-4.1-5.2h-.6c-.1.3-.2.6-.2 1 1.2.6 1.2 1.4.3 2.4v1.1c.8.3.8 1.2 1.4 2.1z"/><path class="prefix__st6" d="M23.5 79.1c.1-.8 0-1.6-.5-2.4-1.3.5-1.6 2.4-3.4 2.3-.8 0-.6.8-.6 1.3 0 .2 0 .4-.1.5h.4c-.1.1-.1.2-.2.3-.1.5.4.6.7.9 1.1-.4 1.9-1.5 3.2-1.4.2-.5.4-1 .5-1.5z"/><path class="prefix__st4" d="M32.3 11.1c.8-.2 1.4.1 1.7.9.5-.2.9-.7 1.4-.1.5-.5 1-.9 1.4-1.4.2-.4.3-.9.5-1.3-2.4.3-4.8.6-7.2.8.5.8 1 1.6 2.2 1.1zM6.3 48.4c-1.3-.1-2.7-.8-3 1.4-.6-.9-.6-1.8-1.3-2.3-.6 1.1.1 2.2 0 3.4 2 .6 4 .9 4.7-1.9 0-.2-.1-.4-.1-.6h-.3z"/><path class="prefix__st6" d="M55 9.8c.4-.2.9-.2 1.4-.2l.6.6h1c.5-1.8 2.2 1.3 2.5-1-2.3-1-4.7-1.2-7.2-.9.1 1 .8 1.1 1.7 1.5zM29.5 11.4c0 .3-.2.4-.4.6 1.3 1.9 3.3.5 4.9 1.1.3-3.5-3-.7-3.9-3.2-.6.1-.9.5-1.1 1 .3.2.5.3.5.5zM2.2 36.7c0 .5-.5.5-.9.6 0 .5 0 .9.1 1.4.7.2 1.3-.8 1.9-.8 1.8.1.5-1.2.8-1.8s.2-1.4-.8-1c-1.1.4-.7-1-1.4-1.2-.6.5-.5 1.2-.5 1.9.4.2.9.3.8.9z"/><path class="prefix__st4" d="M80.9 16.1c-.9-.2-1.7-.6-2.6-.5v.1l-.1.1c.2.1.1.3.1.4.3.6.8.8 1.4 1 1.2.2 1.7 1.6 3.1 1.4.1-.2.2-.4.3-.5l.2-.2c0-.2 0-.4.1-.5v-.1l.3-.3c-.3-.3-.7-.6-1-.9-.8.3-1.3.2-1.8 0z"/><path class="prefix__st3" d="M9.5 64c-.8-.1-.8-.9-1.3-1.3-.5.5.2 1.8-1.2 1.6-.6 1.3.4 2 1.1 2.7 1.2-.6 1.7-1.7 1.4-3z"/><path class="prefix__st4" d="M4.7 54.6c2.5-.7-.7-1.2-1-2.2-.7.3-.3 1-.6 1.4.2.9 0 1.9.7 2.7 1.2-.2.2-1.4.9-1.9zM82.5 75.5c-1.5.2-.7 1-.4 1.8 1.5-.5 2.7-1.1 2.9-2.9-1.3-.4-1.7.8-2.5 1.1z"/><path class="prefix__st0" d="M59.1 9.6c-.7-.7-.9-.1-1.2.4 1.2.8 2.5 1 3.9.9v.1c-.1-.6-.1-1.1-.2-1.7-.5-.1-.8-.8-1.4-.4.1 1-.4 1.4-1.1.7z"/><path class="prefix__st7" d="M2.5 42.7c-.8-1.7-1.3-3.5-1.3-5.4-.1-.1-.2-.1-.3-.1.2 1.9-1 4.1.8 5.8h.6c.1-.1.1-.2.2-.3z"/><path class="prefix__st0" d="M15.7 16.7c.6-.5 1.2-1 1.9-1.5-2.4-1.6-1.2 1.1-1.9 1.5z"/><path class="prefix__st7" d="M1.6 44c-1.4 1-.3 1.7.3 2.4.9-.9.9-1.7-.3-2.4zM96.7 53.1c.8-.7.6-1.8.5-2.7-.3.9-.8 1.7-.5 2.7zM95 57.5c.4-.5.9-1 1.3-1.5 0-.1.1-.3.1-.4-1.1 0-1.4.8-1.4 1.9z"/><path class="prefix__st0" d="M83.2 17.4c0 .1-.1.1 0 0-.1.2-.1.4-.1.6.8.1 1.5.1 2.3.2v-.1c-.5-.6-1.1-.9-1.9-1-.2.1-.3.2-.3.3zM2.2 36.7c.1-.7-.5-.7-1-.8.1.4.2.8-.2 1.1v.4c.1 0 .2 0 .3.1.4-.3.9-.3.9-.8z"/><path class="prefix__st4" d="M29.1 11.9c1.3-1.2-1.2-1.5-1.4-.1.5.1 1 .1 1.4.1z"/><path class="prefix__st1" d="M98.8 37.4c.1 0 .2 0 .3.1 0-.3.1-.8-.2-1 0 .2 0 .5-.1.9z"/><path class="prefix__st7" d="M1.2 35.8c-.3.3-.4.7-.2 1.1.4-.3.3-.7.2-1.1z"/><path class="prefix__st0" d="M98.6 34.5c0-.4.3-.8-.3-1 .1.3.2.6.3 1zM7.4 24.7c-.1-.1-.1-.2-.2-.2-.3 0-.5.1-.5.5.2 0 .4.1.6.1-.1-.2 0-.3.1-.4zM98.3 33.5c0-.2 0-.3-.1-.5-.4.3-.2.4.1.5zM19.1 81c.1-.1.1-.2.2-.3h-.4c0 .2 0 .3.2.3z"/><path class="prefix__st1" d="M98.1 46.9v-.3c-.2.1-.2.2 0 .3z"/><path class="prefix__st7" d="M97.4 50v.2h.2l-.2-.2z"/><path class="prefix__st8" d="M89.6 46.8c.4-.2.7-.4 1.1-.6l2.4-4.1c-1.1-.1-2 .5-3 .7-3.1 1.6-4.2-4.3-6-1.3-1.1 2.2-2.3 4-5.1 4.1-3.5 1-1 3 1 4-3.3 1.4-6.6.8-6.6-3.6-2 .6-3.9 1.2-5.9 1.8.1.1.1.4.2.5 4 .3 5.3 5.4 9.7 3.7.6-.1 1.2-.5 1.7.2.8-.1 1.7-.5 2.4-1 .2-.5-.2-1.1-.5-1.4-.6-1.5 1.8-1 2.6-.3.4.3 1.1.1 1.6.2.9-.5 1.3-1.5 2.5-1.5.2-.9 1.1-1.1 1.9-1.4z"/><path class="prefix__st6" d="M63.8 62.4c.3-.8-.7-2.2 1-2.4 2.5-.8 5.1-1.6 7.6-2.4-.1-.5-.3-1-.4-1.5-.6.2-1.2.7-1.9.3-3.3 1.1-6.7 1.7-10.1 2.6-1.9 2.1-3.4 2.1-6.2 2-1.5.7-3.3 0-4.9.4.1.6-.1 1 .1 1.5 0 .1 0 .1.1.2 1.7 1.6 4.6-2 2.3 4.6 2.6.2 3.9-1.3 1.5-3 1.5-1.6 3.8-.4 5.5-1.5.1-.5.1-1 .2-1.5l.9.6c-.1-.9.8-1.1 1.4-.8 1.2-1.6 1.6-1.5 2.9.9z"/><path class="prefix__st0" d="M82.8 51c-.1.1-.2.1-.3.2.4 0 .7.1 1.2.2-.6.6-.9.2-1.2-.2h-.9c-.7.5-1.5 1-2.4 1-2.2 1.6-4.8 2.6-7.2 3.8.1.5.3 1 .4 1.5 2.2-.2 12.8-4.9 13-6.8-.9.2-1.8-.1-2.6.3z"/><path class="prefix__st4" d="M63.8 62.4c-1 4.5.7 2.5 1.6 5.3 1 1.2.3 3.4 2.4 4.4-1.8-3.8-1-8.4-2.9-12.2-1.9.3-.9 1.7-1.1 2.5z"/><path class="prefix__st0" d="M92.5 45.6c-.5 1.2-1.5 2-2.8 2.4l-.4.4c.2.9-1.6 1.1-.6 1.9 2.1.7 3.2-3.2 5.3-3.5.6-1 1.3-2 1-3.3-1.3.2-1.9 1.1-2.5 2.1z"/><path class="prefix__st9" d="M83.6 49.6c-.8-.7-3-1.4-2.6.3.2.4.8.9.5 1.4h.9c.8-.7 1.9-.3 2.9-.5 0-.3-.1-.6-.1-.9-.6-.2-1.2-.1-1.6-.3z"/><path class="prefix__st4" d="M67.6 64c-.1-1.3 1.5-2.3.9-3.6-1.5.9-2.8 1.9-.9 3.6z"/><path class="prefix__st0" d="M71.3 77.2c-.3-.6-1.1-.3-1.1.2.8.9.2 2.6 1.6 3.1v-1.4c-.6-.5-.2-1.3-.5-1.9zM61.3 74.8c-1.4-2.5-.6 3.3.6 2.7 1.5-.6-.6-1.8-.6-2.7z"/><path class="prefix__st7" d="M89.7 48c0-.4-.1-.8-.1-1.1-.8.3-1.6.5-1.9 1.5.5 0 1.1 0 1.6.1.1-.3.3-.4.4-.5z"/><path class="prefix__st6" d="M73 57.5h-.7c.2.4.5.4.7 0z"/><path class="prefix__st0" d="M60.5 61.5c-1.6-.4-.6 2-1.7 2.4l-.3-.6c-1.7 1.1-4-.1-5.5 1.5 2.3 1.7 1.1 3.2-1.5 3 2.4-6.9-1-2.8-2.4-4.8-.2-.4-.1-1-.1-1.5-.7-.1-1.3-.5-2-.6 0 .1-.1.2-.1.3l-.1-.3c-1.2-.6-2.4-.2-3.5-.2 0 .1-.1.2.1.2 1.3.9-.1 1.8.1 2.8 1.6.6 2.9 4.2 2 5.5 0 .1-.1.1-.1.2-.6.5-1.1 2-.7 2.7.5 1.2-.5 1.5-1.1 1.7-2 .1-1.9-2.9-2.5-4.3-.8 0-1.3-.1-1.9-.4-.2-.2-.1-.3-.2-.5.1-.8.4-2.1.9-2.8.4-1.1-1.2-1.8-.5-2.9-.6-1.3-1.8-.9-2.9-.9 1.2 1.6.8 3.7-1.2 4.6-1.3.7-.1 3.2-2.3 3.1 0 .8 1.3.6 1.2 1.8-2.5-1.6-2.8-.2-2.6 1.8-1.1 1.8.9 2.5 2.4 2.6.7-.6 2-2.4 3-1.5.9 1-.4 1.2-.8 1.7s-.8 1.1-1.2 1.7c-.3 1.6.6 5.2 2.4 2.8 1.3-1 1.8-3.1 4.1-2.5 1.6-.1-.2-3 1.7-3.3 2.8-1.2 1.9.1 3.2 2 1.6 0 .5-2.8 2.4-1.4l.1-.1c0-2-.2-3.8 1.4-5.3.5 0 1.1.1 1.5-.3.5-.3.9-.7 1-1.4.4.8.1 1.3 0 1.9-.2 1.7 1.5 1.4 2.3 1.9 1 .6.7-.5.9-1-1.5-2.9-1.2-3.3 2.4-3.4l.5-.5c.2-.5-.2-1.2-.3-1.7 0-.3.2-.4.5-.6 1.7-.3 1.3-2.4 1.4-3.4zm-10.3 7.3c-.8 1.4-2.2.4-3.4.4.8-.7.8-2.5 2.5-1.8.5.2 1.2.9.9 1.4z"/><path class="prefix__st0" d="M48.9 75.2s0 .1 0 0c.6.6.5 1 .1 1.5-.9 1.6.7 3.4.2 5.2.4 1 .7 2 1.1 3 .5 0 1.1-.1 1.4.4 1.6.2 2.3-1.1 3.3-2-.6-2.5 3.9-4.4 1.4-6.5-.4-1.1-1.5-.8-2.3-.7-1.5.1.3 2.8-1.1 3.1-1.2.3-3-1.4-2.3-2.4 1.2-.3 1.1-1.1.7-1.7-.6-.9-1.4.3-2.2.1 0 .1-.1 0-.3 0z"/><path class="prefix__st6" d="M54.4 84.1c-.7.7-1.4 1.4-2.6 1.3 0 .5.1 1 .1 1.5 2.5-1.9 4.9 2.4 3.3-3.3-.4 0-.6.3-.8.5zM50.4 70c-1.6 1.3-1.5 3.4-1.4 5.3h.4c1.4-1.5.9-3.5 1-5.3z"/><path class="prefix__st0" d="M51.8 71.9s-.1 0 0 0c.4 1 .9 1.9 1.3 2.8.5-.6 1-.9 1-1.6.1-.9-1.3-1-2.3-1.2z"/><path class="prefix__st3" d="M63.3 78.6c.4-.1.8.3 1.1.3.2.1.4 0 .5-.3.2-.7-.8-.4-1.2-.6-.1.3-.3.5-.4.6zM58.9 67l-.5.5c.2.4.7.5.8 0 .1-.1-.1-.3-.3-.5z"/><path class="prefix__st0" d="M63.3 78.6c.1-.2.3-.3.4-.5-.8-.6-.7-.2-.9.5h.5zM62.8 78.6z"/><path class="prefix__st3" d="M60 72.6c0 .1.1.2.2.4.1-.1.1-.2.2-.4-.1-.1-.1-.2-.2-.3-.1.1-.2.2-.2.3z"/><path class="prefix__st0" d="M51.8 71.9c-.1-.1-.2-.1-.3-.2.1.1.2.2.3.2-.1 0 0 0 0 0zM61.4 84.9c0-.1.1-.1.1-.2-.1 0-.1.1-.1.2-.1 0 0 0 0 0zM56.1 71c0-.1.1-.1.1-.2-.1 0-.1.1-.1.2 0-.1 0-.1 0 0z"/><path class="prefix__st6" d="M31.6 73.2c-.1-2 .1-3.5 2.6-1.8.1-1.2-1.2-1-1.2-1.8 2.2.1 1-2.4 2.3-3.1 2-.9 2.4-3 1.2-4.6-4.8.3-8.7-3.3-13.5-2.9-1.5-.8-1.8 1.2-2.9 1.7-.9-.4.6-2-1-1.7h-1.4c-.9 1.3 1.6 1.7.9 2.9-.6 1.1-.2 1.7.7 2.5 1.4 1.3 1.4-1 2.2-.7 2.5 2.3 1.6 5.6.5 7.7 1-.1 1.8.1 2.4 1 .5 0 1-.3 1-.8-.1-1.6 1.8-1.7 2.3-2.8.1-.2.8-.1.7.2-.9 2.3 2.1 3.3 1.8 5.4h1c.1-.5.4-.8.4-1.2zm-3-8c-.7-3.2-2.5.4-2.3-1.8 0-.6.5-1.7.7-1.5 1.2.9 3.3-.2 3.8 1.6.5 1.9 3.2 3.6.9 5.9h-.3c-1.6-1.1-1.9-2.8-2.8-4.2zM47.6 81.9c-.8-1.3-1-2.7-.7-4.2-.1-.3-.3-.6-.4-1-1.3-1.9-.3-3.2-3.2-2-2 .3 0 3.2-1.7 3.3-2.9-.8-3.1 2.9-5.3 3.3-1.5-.6-1.1-2.3-1.2-3.6-.8.2-1.3 1.2-2.5.6-.8-.4-2 0-2.3 1.3.1 1.2 1.7.7 2.1 1.6-.6.7-1.6.3-2.3.6 1.1 1.6 3.4.8 4.1 1.5 2 1.8 3.7 2.9 6.4 1.9 2.2.1-2 3.1 2.1 3.1 1.9-3.7 3.5-4.5 3.3.5.7-.1 1-1 1.6-1.3.2-.1.4-.2.7-.1 0 0 .1 0 .1-.1.4-1.9-1.1-3.5-.8-5.4zm-2.5-1.2c-1.2.4-.7 1.6-1.5 2.2 1.3 2.5-3 1.4-2.4-.7.4-2.2 1.9-3.8 2.4-6-.1-.7.2-.8 1.1-.1.1-.3.1-.7.2-1 .1 0 .2.1.2.1.1.4 0 .7-.4.9.2 1-.1 3.4 1.3 2 .3 1.1-.6 2.5-.9 2.6z"/><path class="prefix__st6" d="M51.7 88.1c-.2.4-.4.6-.8.6-.7.3-1.5.8-1.5-.5-.3-.3-.6-.6-.9-1l-.1.1c-1.9 4.7.9 1.6 2.1 3.2 1.2 3.6 4.9-.1 7.2.8.4-.1.8-.1 1.2-.2-2.1-1.6-4.9-1.9-7-3.4-.1.2-.1.3-.2.4zm1.3 1.6c.1.1.2.1.4.2-.2.3-.5.2-.8 0 .1-.1.2-.1.4-.2z"/><path class="prefix__st0" d="M28.4 68.9c.1-.3-.6-.4-.7-.2-.5 1.2-2.4 1.2-2.3 2.8 0 .6-.5.8-1 .8-.5.7.2 1 .5 1.4 1.3.3 2.1-.4 2.6-1.7 1.2 1 1.5 1.9.8 3.2.5-.1 1 .7 1.5.1 0-.4 0-.8.4-1 .2-2.1-2.7-3.1-1.8-5.4z"/><path class="prefix__st4" d="M32.5 78.3c1.2.6 1.7-.4 2.5-.6.4-.6.8-1.1 1.2-1.7.4-.5 1.7-.8.8-1.7-.9-1-2.3 1-3 1.5-.1 4.7-6-2.1-4.2 3.7h.4c.2-1.2 1.5-1.6 2.3-1.2z"/><path class="prefix__st6" d="M27.4 72.1c-.5 1.3-1.2 2-2.6 1.7 0 .5.1 1.1-.4 1.4.1.7-.3 1.3.5 1.8.9-.3.2-2.3 1.9-1.7.1-.3.3-.3.4 0h1c.8-1.3.4-2.3-.8-3.2zM24.9 73.8z"/><path class="prefix__st0" d="M46 88.7c.2-5.1-1.5-4.2-3.3-.5 1.1-.1 2.1 1.2 3.3.5z"/><path class="prefix__st6" d="M29.6 78.6c-1.1-.6-2.5.4-3.7-1 .5 2.1.6 2.1 3.9 1.9-.1-.3-.1-.6-.2-.9z"/><path class="prefix__st0" d="M26.5 83.9c.5.4.6.4 1.1-.1-.3-.2-.5-.3-.7-.3-.1.1-.2.3-.4.4z"/><path class="prefix__st6" d="M29.7 75.3c.7 0 .8-.4.4-1-.4.2-.4.6-.4 1z"/><path class="prefix__st0" d="M24.9 73.8c-.6.3-.4.8-.4 1.4.5-.3.3-.9.4-1.4zM26.8 75.3h.4c-.1-.3-.2-.3-.4 0z"/><path class="prefix__st5" d="M7.6 44.5zM15.3 55.3c.3 2.1 1.9.8 3.3.9.6-.4 1-.5 1 .3.9 0 1.8.4 2.7.4.7 0 1.4-.1 2-.8-3.3-1.3-6.3-3.7-10-3.7-.1 0-.3-.5-.4-.8 0 0-.1 0-.1-.1-.2-.2-.5-.4-.4-.8L11 48.6c-.3 0-.4-.1-.3-.4-1.5-.8-2.3-2.5-3.1-3.9-2-.2-1.6-2.6-2.8-3.6-.9.6-1.3 1.2-2.2 1.8.2 2.5 4.1 3.4 4.1 6.2.4-.3.9-.4 1.3 0 2.5-1.1 1 1.2 1.1 2.2 2.7.7 3.2 4.5 6.2 4.4zM15.7 71.4c.1 1.9 2.1 3.6 1 5.7 1.7 1 3.3-.2 2-2-1.6-2 .4-5.9-2.9-6.2 0 .8-.1 1.7-.1 2.5z"/><path class="prefix__st6" d="M14.8 70zM14.8 61.3c-.2 1.9-1.1 3.9-.5 5.8.6.6.5 1.4.5 2.2-.2.7.5.9 1 1.2.4-1.7-1.3-3.8.4-5.1 1.2-.5 1.6-3.9.2-3.9-.8.1-.6.8-.6 1.3-.4-.5-.7-1-1-1.5zm1.8 2.3c0 .1-.2.3-.2.3-.6-.1-.6-.6-.6-1.1.4.1.9.1.8.8z"/><path class="prefix__st0" d="M14.3 67.1c-.3-1-.3-1.9 0-2.9-.7.2-1.3.5-2 .6-.4.1-.9-1-1.2.1-.5 1.2 1.4 1.1 1.5 2.2.3-.1.6 0 1 .1.1.1.4.2.7-.1zM12.4 67.1zM8 55.3c-.5 1 .2 2.5-1.3 3-.7.9 0 2.1 1.1 1.7-.2-1.8 2-3.4.2-5.1v.4zM8.1 55.1z"/><path class="prefix__st6" d="M9.5 64c.2-.2.4-.4.6-.7v-.6c-.3-.9-.1-2.1-1.5-1.4-.1.2-.3.3-.4.5v.8c.4.5.5 1.3 1.3 1.4z"/><path class="prefix__st0" d="M18.2 57c-1.4 0-.9 1.2-.4 1.9h1.4c-.5-.6 0-1.6-1-1.9zM10.1 63.3c1.7.5 2-.4 1.9-1.8-.7.4-1.3.8-2 1.2 0 .2 0 .4.1.6z"/><path class="prefix__st5" d="M19.6 56.6h-1c-.1.1-.3.4-.5.5 1.1.3.4 1.3.9 1.9h.5c.1-.9.1-1.7.1-2.4z"/><path class="prefix__st0" d="M11.8 69.1c.8-.8.6-1.5.6-2-1.2.3-1 .9-.6 2zM12.4 67.1zM6.7 58.4c-.2-.4.5-.9-.1-1.4-.5.1-.4-1-1-.6-.5.7.6 1.5 1.1 2-.1.1 0 0 0 0z"/><path class="prefix__st6" d="M13 70.4c.7-.4 1.4 1 1.8-.4-.6.1-1.2-.8-1.8.4zM14.8 70z"/><path class="prefix__st5" d="M16.5 58.4c0 .3.3.7.2 1 .3-.1.6-.3.9-.4-.2-.3-.3-.7-.5-1-.5 0-.6.2-.6.4z"/><path class="prefix__st0" d="M8.1 53.7c-.6.3-.5.9-.4 1.4h.4v-1.4zM19.6 56.6c0-.1 0-.1 0 0 0-.1 0-.1 0 0 .1-.9-.4-.9-1-.4v.4c.3-.1.7-.1 1 0zM8.1 61.3c-.1 0-.7-.2-.8-.1-.3.5.4.7.7.6.1-.1.1-.3.1-.5z"/><path class="prefix__st3" d="M8.1 61.8l.5-.5h-.4c-.1.2-.1.4-.1.5zM8.1 61.8h-.5c.2.2.4.4.5.6v-.6z"/><path class="prefix__st5" d="M22.4 69.6v.9c1.4-1.4.9-5.1-.9-6.7v4.3c1 0 1 .7.9 1.5z"/><path class="prefix__st6" d="M22.4 69.6c.1-.7.1-1.4-.9-1.5-.6.5-.3.7.9 1.5z"/><path class="prefix__st5" d="M51.7 85.4c-.3-.6-.9-.5-1.4-.4 0 1.3-.1 2.6.5 3.8 1.5-.1.9-2.4.9-3.4z"/><path class="prefix__st1" d="M28.9 16.9c1.3 7.9-6.5 4-8.6 6.3.6 2.1 4.4 2.7.3 4.7-3.3 1.3-2.4 5.9-5.5 7.9-.9.9-1.2.3-1.2-.7.5-2.9-4-2.4-3.8.2-.1 2.8-.5 4 3 4 9.4 1.3 1.4 4.9 5.9 6.3 1.1.3 2.3.7 2.5 2 0 .4 0 .8-.3 1.4 8.2-.7.7-3.3 2.5-5.5 2.2-2 3.5-4.6 5.2-7 .7-1 1-2.1 1-3.4-.1-3.7 4.2.4 5.2-3 4.1-3.9 9.5-7.8 15-9.3 5.7-.8 13.4-1.2 18.2 1.5 10.1 2.8 18.4 18.6 5.3 24.1 0 4.4 3.3 5 6.6 3.6-2.1-1-4.5-3-1-4 2.8-.1 4-1.9 5.1-4.1 1.7-3.1 2.9 2.9 6 1.3 1-.2 1.9-.8 3-.7.8-.4 0-2 1.4-2v-1.9c-2.1-.4-4.1-1.1-6.3-.9-2 .1-2.9-1.1-3.1-2.5-.1-2 2.8-1.8 4.1-2.3 3-.1 2.4-.7 1.1-3.1.2-1.1.7-2 .3-3.2-.7 0-.8-.9-1.4-1-.4-.6-.7-1.4-1.2-1.9-2.6-.4-3.6-3.1-5.3-4.7-.4 0-.7-.1-1.1-.1-1.7 1.3-2 .2-2-1.3-.3-.1-.7-.3-1-.5-.1-.2-.3-.4-.4-.5-.6-.5-1.3-.4-2-.5-1.3.8-2.4.9-2.9-.9-2.7-.8-5.2-2.2-8.1-2.3-.2.3-.4.4-.5.4h-.1c-.1-.1-.2-.4-.3-.7-.4-.1-.9-.2-1.3-.3-.7 1.2-1.5 1.2-2.4.4-1.4-.9-3.1-.8-4.1-2.5-.5 0-1 0-1.4.2-.1.2-.3.4-.4.7.8 3.3-1.7 6.6-4.7 6-1-.2-1.4.4-2.1.7-4.3 2.6-3.2-4.1-3.7-6.5-.5-.2-.7.2-1.1.3.5 2-.4 3.9 0 5.9.1.3-.3 1-.4 1-3.9.8-5.1 3-8.1-1.4-1.6-.2-3.6.2-3.8-2.1-.8-.3-1.6-.5-2.4-.8v.1c-.5.3 0 1.5.3 2.6z"/><path class="prefix__st8" d="M90.8 27.7c-.2.8-.8 1.6-.3 2.4 2.6 3.1-1.2 2.1-2.9 2.9-1.1.3-2.8.3-2.5 1.9.6 4 6.5 1.9 9.4 3.4.7-3.8-1.6-6.6-2.4-10 0 0-.1 0-.1-.1-.4-.3-.7-.6-1.1-.8-.1.1-.1.2-.1.3z"/><path class="prefix__st4" d="M93.4 32.1l.6-1.5c-1-.7.1-2.9-2-2.3.1 1.4.9 2.5 1.4 3.8z"/><path class="prefix__st8" d="M44.1 11.4c.6 2.3-.4 8.2 3.7 5.7.6-.4 1-.9 2.1-.7 3.1.6 5.6-2.6 4.7-6-1.9-.1-3.8-.2-5.7 0-1.2 2.8-3.1 1.6-4.8 1zM35.4 13.6c-.3 2.3 2.1 2.6 1.5 5.1 2.2 1.3 3.7-1 5.7-1 .1 0 .5-.7.4-1-.5-2 .5-3.9 0-5.9-1.8.2-3.8 1.2-5.6.1-.3.1-.5-.1-.5-.4-.5.5-1 .9-1.4 1.4 0 .5-.1 1.1-.1 1.7z"/><path class="prefix__st9" d="M44 10.7v.8c1.8.5 3.7 1.8 4.8-1-1.5 0-2.9 0-4.4-.1-.1.1-.2.2-.4.3z"/><path class="prefix__st3" d="M37.4 10.9c1.7 1.1 3.8.1 5.6-.1h.1c.2-.6 1-.1 1.5-.5-2.3-1.7-4.9.8-7.2.6z"/><path class="prefix__st8" d="M16.2 51.5c2.3-.5 2-3.2 4.8-2.6.9-1.9-.5-3-2.2-3.4-4.4-1.3 3.3-5-5.9-6.3-3.5 0-3.1-1.2-3-4 0-2.7 4.3-3.1 3.8-.2.3 3.4 4.3-2.9 4.2-4.1.2-1.7 1.1-2.4 2.5-3.1 3.9-1.8.5-2.5-.3-4.7.5-1.2 3.1-.7 4.4-.9 5.8.2 4.1-5.2 3.6-8.9-3 1.4-6.2 2.7-9.1 4.2 0 .7-.4 1-1.1.9-.3.2-.6.3-.9.5-.4 1.9-3.7.8-4.4 2.8.6 1.4 1.6 2.5 2.9 3.4-.4.4-.9.6-1.4.7-1.2.6-2.9-.4-4.1.5h-.9c-.8.6-.1 1.4-1.4 1.2-.2 1.2.7 3-1 3.4-.1.1-.2.2-.4.3v2.2c.9.2 1 1 0 .9.2.8-.1 1.6-.9 2v.5c1 1.7 2.5 3.2 1.7 5.4.2.8.5 1.5.7 2.3.7 0 .7.6.9 1 1 .7 2 1.3 2 2.7.9 1.2 2.6 2 3.3 3.4.7.1 1.5 0 2.2-.1zM7.6 44.5z"/><path class="prefix__st9" d="M6.9 42.2c.8-2.2-.7-3.6-1.7-5.4-.2 2 0 4 1.7 5.4z"/><path class="prefix__st7" d="M6.1 34.4v-3.1c-.2-.1-.3-.1-.5-.2-.2 1.1 0 2.2 0 3.4.2-.1.3-.1.5-.1z"/><path class="prefix__st9" d="M6.1 34.4h-.5c-.4.6-.4 1.3-.3 2 .7-.4.9-1.1.8-2z"/><path class="prefix__st4" d="M6.7 58.4c1.6-.7.7-2.1 1.4-3.2-1.7-.3-1.4 1-1.4 1.9.5.3-.2.8 0 1.3z"/><path class="prefix__st6" d="M9.2 48.9c-.5-.5-.8 0-1.3.1.4.5.7.9 1.1 1.4.2-.5.8-1 .2-1.5z"/><path class="prefix__st4" d="M62.9 11.6c.8.4 1.7 0 2.3.7 2.9.1 5.4 1.6 8.1 2.3 1.1-.2 1.8.6 2.8.5.1-.1.2-.2.2-.3-1.4-1.4-2.8-3.1-4.9-2.8-3.3.6-5.8-3.2-8.7-1.1.1.4.1.6.2.7z"/><path class="prefix__st9" d="M60.5 12c.9.8 1.7.7 2.4-.4 0-.2-.1-.3-.1-.5-.3 0-.5-.1-.8-.1v-.1c-.2.6-.5.3-.7 0-1.3.2-2.3-.2-3.3-.8h-1c.7 1.5 2.6.9 3.5 1.9z"/><path class="prefix__st4" d="M76.1 15.4c0 .1 0 .3.1.4.5.1 1 .1 1.5.2.2-.2.3-.1.5-.3v-.1l-1.8-.6c-.1.2-.2.3-.3.4z"/><path class="prefix__st9" d="M11.7 25.9c1.3.1 2.8.4 3.9-.7-1.3-.8-2.3-1.9-2.9-3.4-1.3 1.1-1.3 3.1-2.8 3.9v.5c.6-.2 1.2-.3 1.8-.3z"/><path class="prefix__st5" d="M8.7 24.1c2-.3 3.4-2.5.8-2.7.2.9-.4 1.6-.8 2.7zM9.4 21.4z"/><path class="prefix__st9" d="M15.2 20.3c-1.1-.8-2.2-1.2-1.9.7.6-.2 1.3-.4 1.9-.7zM17.2 19.1c-.7-.1-1.2.4-1.4 1 .7 0 1.4-.1 1.4-1zM19.1 17.6c-.2-.1-.3-.3-.5-.4-.2.1-.3.3-.5.4 0 .3-.1.6-.1.9.7.1 1.1-.2 1.1-.9z"/><path class="prefix__st5" d="M8 25.2v-.4c0-.2-.8-.1-.7.3.2.1.5.2.7.3v-.2z"/><path class="prefix__st7" d="M10 26.3v-.5c-.4 0-.8.3-.8.6.2-.1.5-.1.8-.1zM9.1 26.4c-.2 0-.4-.1-.5-.1.1.2.1.4.2.5 0-.1.1-.3.3-.4zM95.4 42.6v-.9c-1.1.1-.8-.7-1-1.5-1.4 0-.6 1.5-1.4 2l-2.4 4.1v1.3c2.2-.6 1.7-3.9 4.3-4 .1-.4.1-.8.5-1z"/><path class="prefix__st4" d="M95.4 42.6c1.2.1 2-2.1.8-2.4-1.2 0-.6 1.8-.8 2.4zM95.9 39.6h.2v-.2c-.2-.2-.5 0-.2.2z"/><path class="prefix__st8" d="M85.9 22.4c.6.5 1.2.9 2.1 1-.4-1.7-1.8-3.4-3.7-2.7.6.6 1.1 1.2 1.6 1.7z"/><path class="prefix__st4" d="M82.7 18.7c.6.7 1.1 1.4 1.7 2 .3-.1.6-.1 1-.2.3-.8.3-1.6 0-2.4-.8-.1-1.5-.1-2.3-.2l-.2.2c0 .2-.1.4-.2.6z"/><path class="prefix__st8" d="M89.1 25.4c0-.3 0-.7-.5-.8.2.2.4.5.5.8z"/><path class="prefix__st7" d="M6.5 31c1.5-.2.9-1.5 1-2.5l-1.2.3c-.1.4-.2.8-.3 1.3.5.1.5.5.5.9z"/><path class="prefix__st0" d="M7.5 28.6v-.9c-.7-.1-1.6.1-1.3 1.2.5-.1.9-.2 1.3-.3zM8.1 27.7c.3-.3.4-.5.5-.9-.1-.2-.1-.4-.2-.5-.7.2-.9.7-.9 1.4h.6zM6.2 31.3c.1-.1.2-.2.4-.3 0-.4 0-.8-.5-.8-.1.3-.2.6-.4.9.1.1.3.1.5.2z"/><path class="prefix__st2" d="M18.1 17.7c.2-.1.3-.3.5-.4"/><path class="prefix__st7" d="M30.6 14.1c1.1-.3 3 .4 3.4-1-1.6-.6-3.6.8-4.9-1.1h-1.4c.2.5.3.9.5 1.4.8.2 1.6.4 2.4.7z"/><path class="prefix__st9" d="M32 14c.4 1.2 2.1 1 2.4 2.3.8.8 1.4 1.9 2.4 2.4.7-2.2-1.8-3-1.5-5.1.1-1.1.1-2.9-1.4-1.7.2 1.9-.4 2-1.9 2.1z"/><path class="prefix__st2" d="M55.5 9.6h.9"/><path class="prefix__st8" d="M81.5 18.6c-.6-.4-1.1-1.2-2-1.3.1 1.4.3 2.5 2 1.3z"/><path class="prefix__st2" d="M79.2 17.2c-.2-.1-.4-.3-.6-.4"/><path class="prefix__st8" d="M77.7 16c.2.1.3.2.5.3 0-.1.1-.2 0-.2 0-.2-.4-.4-.5-.1zM82.7 18.7c.1-.2.2-.4.3-.5-.1.1-.2.3-.3.5z"/><path class="prefix__st6" d="M61.9 11h-.7c.2.3.5.6.7 0z"/><path class="prefix__st7" d="M76.5 44.1c1.6-1.2 3.1-2.7 3.6-4.8-1.5-.8-1.2-2.6-1.9-3.9-6.8-12.2-14.9-6-24.2-1.4-5.7 1.4-8.1 7.1-12.9 9.8-2.1 1.2-2.8 3.5-4.6 5-.4.8.7 2 .5 2.9 4.7 1.5 9.6 2 14.4 3 1-1.7 2.4-2.9 4.3-3.4 3.9.3 6.9-2.3 10.5-2.9 3.3-1.7 7.3-1.7 10.3-4.3z"/><path class="prefix__st9" d="M79.1 52.2c-.5-.7-1.1-.3-1.7-.2-4.4 1.9-5.6-3.6-9.6-3.6-.2-.1-.2-.4-.3-.6-2.8.1-1.1 4.7 1.3 5.2 1.1.4.9 2.2 1.1 3.4 3.2-.2 6.4-2.6 9.2-4.2z"/><path class="prefix__st3" d="M89.7 48c.3-.1.6-.3.9-.4v-1.3c-.4.2-.7.4-1.1.6.1.3.1.7.2 1.1z"/><path class="prefix__st8" d="M68.9 53c-2.4-.9-2.6-2.6-2.7-4.6-3.6.7-6.7 3.2-10.5 2.9.9 3.1 4.3-.4 7.2 6.9 2.5 0 4.8-1.3 7.2-1.8-.3-1.2-.2-3-1.2-3.4z"/><path class="prefix__st9" d="M54.8 54.7c3.9-.3 3.5 1.5 5.2 4.4 1-.3 1.9-.5 2.9-.8-2.9-7.4-6.3-3.7-7.2-6.9-2 .5-3.3 1.7-4.3 3.4.1 1.8 1.2 3.3 1 5.2.5.4 1 .7 1.5 1.1.8 0 1.5-.1 2.3-.1.7-1.7-3.9-6.3-1.4-6.3z"/><path class="prefix__st8" d="M52.2 59.9c.3-1.7-.9-3.5-1-5.2h-1c-.3 1.2.7 3.7-.9 4-.8 0-1.4-.4-1.4-1.3-.1-1.9-1-1.4-1.6-.4-1 1.6-2.9.5-4 1.7-.6.6-1.3.6-1.1 1.7 2.1.3 4.2-.2 6.2.5.6.4 1.2.6 1.9.4.2-.2.3-.2.5 0 .6 0 1.2-.1 1.8-.1.1-.5.2-1 .6-1.3z"/><path class="prefix__st7" d="M59 57.1c-.4-2.6-2.3-2.4-4.2-2.5-2.6.2 2 4.4 1.2 6.2 1.8.6 2.7-1.3 3.9-1.9-.3-.5-.8-1.1-.9-1.8zM52.2 59.9c-.5.3-.5.8-.5 1.3.7.2 1.5.1 2.1-.2-.5-.4-1-.7-1.6-1.1z"/><path class="prefix__st4" d="M58.7 63.8c.6-.3.6-.9.7-1.5l-.9-.6c-.1.5-.1 1-.2 1.5.2.2.3.4.4.6z"/><path class="prefix__st7" d="M49.3 61.3h.5c-.1-.2-.3-.2-.5 0z"/><path class="prefix__st4" d="M83.6 51.4c-.5-.1-.8-.1-1.2-.2.3.4.6.7 1.2.2zM82.4 51.2z"/><path class="prefix__st5" d="M40.5 60.9c-1.3.7-2.5-.4-3.3-1.4-1.7-.7-3.5.6-5-.5-.1 0-.2 0-.2-.1-.3-.2-.6-.5-.9-.7 0 .1-.1.3-.2.3-2.8.5-2.8-2-5.4-1.6-.6.9-2.3.5-2.4 2 4.7-.4 8.7 3.2 13.5 2.9 1.1 0 2.3-.4 2.9.9.8 0 1.8.4 2-.6.9.4 2.1-.4 1.7-1.4v-.1c-.6-.1-1.3-.1-1.9-.2-.4.2-.6.4-.8.5z"/><path class="prefix__st6" d="M43.1 64.3c-.1.1-.1.2-.1.2-.1.1-.1 0-.2 0l-.2-.2h-.4c-.5-.4-.9-.9-1.3-1.4-.5 0-1.1-.1-1.6-.1-.7 1.1.9 1.8.5 2.9.5.1 1.4-.8 1.5.5 1 .4 1.4 1.2-.1 1.8 0 .4-.1.8-.4 1 .4 1.5.4 5 2.5 4.8.6-.1 1.6-.5 1.1-1.7-.4-.8.3-2.3.8-2.9 1-1.3-.4-4.9-2-5.5-.1.2-.1.4-.1.6zM49.2 67.4c-1.7-.7-1.7 1.1-2.5 1.8 1.2.1 2.6 1.1 3.4-.4.4-.5-.3-1.2-.9-1.4z"/><path class="prefix__st5" d="M41.2 68c1.4-.6 1.2-1.4.1-1.8-.4.6-.8 1.3-1.2 2-.5-.4-.2-1-.4-1.5h-.4c-.3.7-.6 1.3-.5 1.8 0 .1 0 .2.1.3 0 .1.1.2.1.2 0 .1.1.1.2.1.5.3 1 .3 1.7.3v-.5c-.2-.3-.1-.7.3-.9z"/><path class="prefix__st4" d="M46.4 76.7c.1.3.3.6.4 1h2c-.1-.3.1-.7.3-1 0 0 0-.1.1-.1 1-.9-1.6-2.8-1.7-1 0 .6-.5 1.1-1.1 1.1z"/><path class="prefix__st6" d="M41.7 62.3c.3.5.6 1 .9 1.4h.5c0-1 1.1-1.9-.1-2.8.1 1-.4 1.4-1.3 1.4zM39.7 66.7c0-.3 0-.7.1-1-.1.1-.2.1-.2.2-.2.2-.2.5-.2.8h.3z"/><path class="prefix__st7" d="M46.6 60.8l.1.3c0-.1.1-.2.1-.3h-.2z"/><path class="prefix__st2" d="M47.5 60.9c.2.1.3.2.5.3"/><path class="prefix__st4" d="M50.4 84.9c-.4-1-.7-2-1.1-3h-1.7c-.3 1.9 1.2 3.4.9 5.3.3.3.6.6.9 1 .4-.2.7-.3 1.1-.5-.1-.9-.1-1.8-.1-2.8z"/><path class="prefix__st3" d="M46.8 77.7c-.2 1.5-.1 2.9.7 4.2h1.7c.3-1.4-.3-2.8-.5-4.2h-1.9zm1.3 2c-.2-.2-.3-.5 0-.7.1.2.3.5 0 .7z"/><path class="prefix__st0" d="M31.4 69.3h.3c2.2-2.3-.4-4-.9-5.9-.5-1.7-2.6-.7-3.8-1.6-.4-.3-1.2 2.6-.4 2.3 2.3-1.8 2.6 4.5 4.8 5.2zM25.4 57c-.1-.6-.5-.8-1.1-.8-.6.7-1.3.9-2 .8-.9-.1-1.8-.5-2.7-.4V59c1 .3-.4 1.4.5 1.7 1.1-.4 1.3-2.5 2.9-1.7.2-1.5 1.8-1.1 2.4-2zM44.8 78.1c-.1-.6-.2-1.2-.2-1.9-.9-.7-1.2-.6-1.1.1-.4 2.2-1.9 3.8-2.4 6-.2 2.8 4.4 2.9 2 .2.1 0 .1-.1.2-.1.1.2.1.4.2.6.8-.5.4-1.8 1.5-2.2.3-.1 1.1-1.5.7-2.5.1-.2-.7 1-.9-.2zM44.5 76.2h.1z"/><path class="prefix__st0" d="M44.9 75.3c0-.1-.1-.1-.2-.1-.1.3-.1.7-.2 1 .4-.2.5-.5.4-.9zM44.6 76.2zM50.4 87.7c-.4.2-.7.3-1.1.5 0 1.2.8.9 1.4.5 0-.3-.1-.6-.3-1zM53.3 89.9c-.1-.1-.2-.1-.4-.2-.1.1-.2.1-.4.2.2.3.6.3.8 0z"/><path class="prefix__st8" d="M25.4 57c.8.1 1.7-.2 2.3.5 1.1.2 2.3.1 3.2 1 .1-.1.2-.2.2-.3-1-2-3.5-1.9-4.6-3.7-2.9-3.5 2.9-3.8 4.5-6-1.3-1.5-4.3-.2-3.9-2.8 0-.9 0-1.7 1.3-.9.5.3.5-.4.3-.7-.3-2.1 2.1-.8 2.3-3.5.6-3.3 5.4-2.3 5.8-5.9 2.2.2 2.9-2.4 4.5-2.8 2.3-.6 4-1.8 5.2-3.5 2.1-2.7 5.5-2.9 8.5-3.4 3.9-2.9 8.9-1.4 13-2.7-.1-.4-.2-.9-.7-.9-6-.7-11.6-2-17.5-.6-5.5 1.5-11 5.4-15 9.3-1 3.4-5.3-.7-5.2 3 .9 3.8-7.7 10.2-6.2 12 2 2.8 2 2.8-1.1 3.9 0 4-2.4 2-2.6 3.9.1.4.5.4.8.4 2-.1 2.5 1.5 3.3 2.8.7.4 1.6-.1 1.6.9z"/><path class="prefix__st9" d="M20.6 53.2c-1 .2-1-1.1-.2-1.3 1.9-.2 1.8-1.7 2-3H21c-.3 1.9-1.7 1.3-2.9 1.4-1.2 1.4-2.6 1.4-4.2 1.4.1.3.3.8.4.8 3.6 0 6.4 2.2 9.6 3.5-.8-1.3-1.3-2.9-3.3-2.8zM8.6 45.5c-.1 0-.3 0-.4.1.9.8 1 2.2 2.4 2.6-.1-1.4-1-2-2-2.7z"/><path class="prefix__st0" d="M7.6 44.5c.2.4.3.7.5 1.1.1-.1.3-.1.4-.1-.1-.2-.1-.4-.2-.5 0-.3-.2-.5-.7-.5z"/><path class="prefix__st9" d="M13.4 50.8c-.1.4.2.6.4.8 0 0 .1 0 .1.1-.2-.4-.4-.6-.5-.9zM10.9 48.7c-.1-.1-.2-.2-.3-.4-.1.4 0 .5.3.4z"/><path class="prefix__st0" d="M16.4 63.9c.6-.5-.1-1.1-.7-1.1.1.4.1.9.7 1.1zM15.7 62.8h.1-.1z"/><path class="prefix__st9" d="M36.5 50c-.1-.4-.2-.8-.1-1.2 2.7-3.9 6.9-6.3 10.1-9.9 3.5-4.3 8.8-4.8 13.1-7.7 10-7.2 16.2-1 20.4 8.1 1.2-6.8-3.6-11.9-8.4-15.8-.9-.9-2.1-1.8-3.6-1.5-4.1 1.4-9.1-.2-13 2.7-3 .5-6.4.7-8.5 3.4-1.2 1.7-2.9 3-5.2 3.5-1.6.4-2.2 3-4.5 2.8-.3 3.8-5.2 2.5-5.8 5.9-.2 2.6-2.8 1.5-2.3 3.5.1.3.2 1.1-.3.7-2-1.6-1.8 3.3.2 2.8 3.2.2 5.1 3.7 8.2 4.2.2-.3-.1-.9-.3-1.5z"/><path class="prefix__st8" d="M32 14c-.5 0-1 .1-1.4.1.3 2.2 2.1 2 3.8 2.1-.2-1.3-2-1-2.4-2.2zM75.8 15.3c-.8-.1-1.6-.6-2.4-.5.5 1.8 1.6 1.7 2.9.9 0-.1-.1-.3-.1-.4h-.4z"/><path class="prefix__st9" d="M64.2 12c.1.3.2.6.3.7h.1c.1 0 .3-.1.5-.4-.1-.3-.5-.4-.9-.3z"/><path class="prefix__st8" d="M43.1 10.9c.2-.1.3-.2.5-.3-.3-.1-.5 0-.5.3z"/><path class="prefix__st1" d="M21 48.9c-1.2 0-2.5-.1-2.9 1.4 1.2-.1 2.7.5 2.9-1.4z"/><path class="prefix__st9" d="M6.1 34.4c1 .1.8-.7 0-.9v.9z"/><path class="prefix__st7" d="M8.1 27.7c.4-.1.3-.1.4-.4-.2.1-.3.2-.4.4z"/><path class="prefix__st1" d="M47 53.8c-5.7-.8-11.4-1.8-15.9-5.4-1.6 2.1-7.5 2.6-4.5 6 1.1 1.8 3.8 1.7 4.6 3.7.3.2.6.5.9.7l.3-.3c1.8-.4 3.3.9 5 .9 1.1-.7 2.1-1.1 2.9.4.3.1.6.1.9.2-.1-.5.4-.8.8-1 1.1-1.6 3.2-.3 4.3-2 .6-1 1.5-1.4 1.6.4 0 .9.7 1.3 1.4 1.3 1.7-.4.6-2.7.9-4-1-.4-2.1-.6-3.2-.9z"/><path class="prefix__st0" d="M40.2 59.9c-.7.1-1.6-.3-1.9.7 1 .8 2 .5 3-.1v-.4c-.5-.1-.8-.2-1.1-.2z"/><path class="prefix__st8" d="M40.2 59.9c-.8-1.5-1.8-1.2-2.9-.4.3.4.7.8 1 1.1.4-1 1.2-.6 1.9-.7zM32.4 58.5v.4c1 .9 2.3.2 3.5.3-1.1-.5-2.2-.9-3.5-.7z"/><path class="prefix__st6" d="M30.9 58.5c-.9-.9-2.1-.8-3.2-1 .6 1.2 2.1 1 3.2 1z"/><path class="prefix__st3" d="M41.7 63.8c.4.1.6.1.9 0-.5-.8-1.2-2.3-1.7-.8l.8.8z"/><path class="prefix__st6" d="M32.4 58.5l-.3.3c0 .2.1.1.2.1.1-.1.1-.2.1-.4z"/><path class="prefix__st0" d="M40.1 68.2c.4-.7.8-1.3 1.2-2-.1-1.3-1-.4-1.5-.5 0 .3 0 .7-.1 1 .2.4-.2 1 .4 1.5zM42.2 63.8v.4h1v-.5c-.3 0-.8.1-1 .1zM40.7 69c.1-.1.2-.1.2-.2.2-.2.2-.5.2-.8-.3.2-.4.6-.4 1z"/><path class="prefix__st4" d="M42.2 63.8c-.2 0-.4-.1-.5-.1l.5.5v-.4zM42.5 64.2c.1.1.1.2.2.2.1.2.3 0 .3-.2h-.5zM48 79.3c0 .1.1.2.2.4.1-.1.1-.2.2-.3-.1-.1-.1-.2-.2-.4-.1.1-.2.2-.2.3z"/><path class="prefix__st6" d="M43.4 82.3c-.1 0-.1.1-.2.1.1.2.2.3.4.5-.1-.2-.1-.4-.2-.6z"/></g></svg>