<?xml version="1.0" encoding="utf-8"?>
<!-- Generator: Adobe Illustrator 21.1.0, SVG Export Plug-In . SVG Version: 6.00 Build 0)  -->
<svg version="1.1" id="Icons" xmlns="http://www.w3.org/2000/svg" xmlns:xlink="http://www.w3.org/1999/xlink" x="0px" y="0px"
	 viewBox="0 0 48 48" style="enable-background:new 0 0 48 48;" xml:space="preserve">
<style type="text/css">
	.st0{opacity:0.15;fill:#45413C;}
	.st1{fill:#FFE500;}
	.st2{fill:#EBCB00;}
	.st3{fill:none;stroke:#45413C;stroke-linecap:round;stroke-linejoin:round;stroke-miterlimit:10;}
	.st4{fill:#FFAA54;}
	.st5{fill:#FF8A14;}
	.st6{fill:#FFB0CA;stroke:#45413C;stroke-linecap:round;stroke-linejoin:round;stroke-miterlimit:10;}
	.st7{fill:#FF87AF;stroke:#45413C;stroke-linecap:round;stroke-linejoin:round;stroke-miterlimit:10;}
	.st8{fill:#FFCC99;}
	.st9{fill:#FFFFFF;}
	.st10{fill:#F0F0F0;}
	.st11{fill:#BF8256;}
	.st12{fill:#915E3A;}
	.st13{fill:#DEA47A;}
	.st14{fill:#F0D5A8;}
	.st15{fill:#DEBB7E;}
	.st16{fill:#F7E5C6;}
	.st17{fill:#FF8A14;stroke:#45413C;stroke-linecap:round;stroke-linejoin:round;stroke-miterlimit:10;}
	.st18{fill:#FFF5E3;}
	.st19{fill:#FFF48C;}
	.st20{fill:#FFFACF;}
	.st21{fill:#FFFCE5;}
	.st22{fill:#FF87AF;}
	.st23{fill:#FFB0CA;}
	.st24{fill:#FFE500;stroke:#45413C;stroke-linecap:round;stroke-linejoin:round;stroke-miterlimit:10;}
	.st25{fill:#9CEB60;stroke:#45413C;stroke-linecap:round;stroke-linejoin:round;stroke-miterlimit:10;}
	.st26{fill:#FFFACF;stroke:#45413C;stroke-linecap:round;stroke-linejoin:round;stroke-miterlimit:10;}
	.st27{fill:#00F5BC;stroke:#45413C;stroke-linecap:round;stroke-linejoin:round;stroke-miterlimit:10;}
	.st28{fill:#BF8256;stroke:#45413C;stroke-linecap:round;stroke-linejoin:round;stroke-miterlimit:10;}
	.st29{fill:#FFE3CF;stroke:#45413C;stroke-linecap:round;stroke-linejoin:round;stroke-miterlimit:10;}
	.st30{fill:#FF6242;}
	.st31{fill:#FF866E;}
	.st32{fill:none;stroke:#E04122;stroke-linecap:round;stroke-linejoin:round;stroke-miterlimit:10;}
	.st33{fill:#FFFEF2;stroke:#45413C;stroke-linecap:round;stroke-linejoin:round;stroke-miterlimit:10;}
	.st34{fill:#FF6242;stroke:#45413C;stroke-linecap:round;stroke-linejoin:round;stroke-miterlimit:10;}
	.st35{fill:#FFA694;}
	.st36{fill:#FFFFFF;stroke:#45413C;stroke-linecap:round;stroke-linejoin:round;stroke-miterlimit:10;}
	.st37{fill:#FFFEF2;}
	.st38{fill:#FF6196;}
	.st39{fill:#B89558;}
	.st40{fill:none;stroke:#915E3A;stroke-linecap:round;stroke-linejoin:round;stroke-miterlimit:10;}
	.st41{fill:#DEBB7E;stroke:#45413C;stroke-linecap:round;stroke-linejoin:round;stroke-miterlimit:10;}
	.st42{fill:#6DD627;stroke:#45413C;stroke-linecap:round;stroke-linejoin:round;stroke-miterlimit:10;}
	.st43{fill:#E5F8FF;}
	.st44{fill:#E8F4FA;}
	.st45{fill:#E8F4FA;stroke:#45413C;stroke-linecap:round;stroke-linejoin:round;stroke-miterlimit:10;}
	.st46{fill:#FFCCDD;}
	.st47{fill:#E5F8FF;stroke:#45413C;stroke-linecap:round;stroke-linejoin:round;stroke-miterlimit:10;}
	.st48{fill:#00B8F0;stroke:#45413C;stroke-linecap:round;stroke-linejoin:round;stroke-miterlimit:10;}
	.st49{fill:#00B8F0;}
	.st50{fill:#4ACFFF;}
	.st51{fill:#E04122;}
	.st52{fill:#E04122;stroke:#45413C;stroke-linecap:round;stroke-linejoin:round;stroke-miterlimit:10;}
	.st53{fill:#87898C;}
	.st54{fill:#BDBEC0;}
	.st55{fill:#656769;}
	.st56{fill:#525252;}
	.st57{fill:#FFF48C;stroke:#45413C;stroke-linecap:round;stroke-linejoin:round;stroke-miterlimit:10;}
	.st58{fill:#6DD627;}
	.st59{fill:#EB6D00;}
	.st60{fill:#46B000;}
	.st61{fill:#80DDFF;}
	.st62{fill:#DAEDF7;}
	.st63{fill:#BF8DF2;stroke:#45413C;stroke-linecap:round;stroke-linejoin:round;stroke-miterlimit:10;}
	.st64{fill:#9F5AE5;stroke:#45413C;stroke-linecap:round;stroke-linejoin:round;stroke-miterlimit:10;}
	.st65{fill:#C8FFA1;}
	.st66{fill:#E4FFD1;}
	.st67{fill:#9CEB60;}
	.st68{fill:#E5FEFF;}
	.st69{fill:#B8ECFF;}
	.st70{fill:#E0E0E0;stroke:#45413C;stroke-linecap:round;stroke-linejoin:round;stroke-miterlimit:10;}
	.st71{fill:#E0E0E0;}
	.st72{fill:none;stroke:#4F4B45;stroke-linejoin:round;stroke-miterlimit:10;}
	.st73{fill:none;stroke:#4F4B45;stroke-linecap:round;stroke-linejoin:round;stroke-miterlimit:10;}
	.st74{fill:#E0366F;stroke:#45413C;stroke-linecap:round;stroke-linejoin:round;stroke-miterlimit:10;}
	.st75{fill:none;stroke:#45413C;stroke-miterlimit:10;}
	.st76{fill:#FF866E;stroke:#45413C;stroke-linecap:round;stroke-linejoin:round;stroke-miterlimit:10;}
	.st77{fill:#45413C;stroke:#45413C;stroke-linecap:round;stroke-linejoin:round;stroke-miterlimit:10;}
	.st78{fill:#9F5AE5;}
	.st79{fill:#803EC2;}
	.st80{fill:#803EC2;stroke:#45413C;stroke-linecap:round;stroke-linejoin:round;stroke-miterlimit:10;}
	.st81{fill:#BF8DF2;}
	.st82{fill:#FFAA54;stroke:#45413C;stroke-linecap:round;stroke-linejoin:round;stroke-miterlimit:10;}
	.st83{fill:none;stroke:#45413C;stroke-linejoin:round;stroke-miterlimit:10;}
	.st84{fill:#FFCCDD;stroke:#45413C;stroke-linecap:round;stroke-linejoin:round;stroke-miterlimit:10;}
	.st85{fill:#FF6196;stroke:#45413C;stroke-linecap:round;stroke-linejoin:round;stroke-miterlimit:10;}
	.st86{fill:#FFE5EE;}
	.st87{fill:#F7E5C6;stroke:#45413C;stroke-linecap:round;stroke-linejoin:round;stroke-miterlimit:10;}
	.st88{fill:#E5FFF9;}
	.st89{fill:none;stroke:#45413C;stroke-width:1.0064;stroke-linecap:round;stroke-linejoin:round;stroke-miterlimit:10;}
	.st90{fill:#4AEFF7;}
	.st91{fill:#A6FBFF;}
	.st92{fill:#E5FEFF;stroke:#45413C;stroke-linecap:round;stroke-linejoin:round;stroke-miterlimit:10;}
	.st93{fill:#46B000;stroke:#45413C;stroke-linecap:round;stroke-linejoin:round;stroke-miterlimit:10;}
	.st94{fill:#FFFFFF;stroke:#45413C;stroke-linejoin:round;stroke-miterlimit:10;}
	.st95{fill:#FFFFFF;stroke:#45413C;stroke-miterlimit:10;}
	.st96{fill:#009FD9;}
	.st97{fill:#00DFEB;}
	.st98{fill:#C0DCEB;stroke:#45413C;stroke-linecap:round;stroke-linejoin:round;stroke-miterlimit:10;}
	.st99{fill:#00DFEB;stroke:#45413C;stroke-linecap:round;stroke-linejoin:round;stroke-miterlimit:10;}
	.st100{fill:#FFE5EE;stroke:#45413C;stroke-linecap:round;stroke-linejoin:round;stroke-miterlimit:10;}
	.st101{fill:#8CA4B8;}
	.st102{fill:#ADC4D9;}
	.st103{fill:#656769;stroke:#45413C;stroke-linecap:round;stroke-linejoin:round;stroke-miterlimit:10;}
	.st104{fill:#F0F0F0;stroke:#45413C;stroke-linecap:round;stroke-linejoin:round;stroke-miterlimit:10;}
	.st105{fill:#C0DCEB;}
	.st106{fill:#45413C;}
	.st107{fill:#FFCABF;}
	.st108{fill:#87898C;stroke:#45413C;stroke-linecap:round;stroke-linejoin:round;stroke-miterlimit:10;}
	.st109{fill:#EBCB00;stroke:#45413C;stroke-linecap:round;stroke-linejoin:round;stroke-miterlimit:10;}
</style>
<g id="XMLID_12524_">
	<path id="XMLID_12555_" class="st3" d="M17.2,18.1c-2.9-0.6-6.8-0.6-8.2,2c-1.9,3.3,1.1,4.9,2.9,3.2c1.8-1.7-1.6-6-8-3.8"/>
	
		<ellipse id="XMLID_12554_" transform="matrix(0.8309 -0.5565 0.5565 0.8309 -15.7263 25.8592)" class="st78" cx="34.7" cy="38.8" rx="5.1" ry="5.1"/>
	<path id="XMLID_12553_" class="st79" d="M39.4,37c-0.2,0.2-0.4,0.3-0.6,0.5c-1.1,0.7-2.4,1.1-3.6,1.1c-0.3,1.6-1.2,3.1-2.7,4.2
		c-0.2,0.2-0.5,0.3-0.8,0.4c-0.5-0.4-1-0.8-1.4-1.4c-1.2-1.8-1.1-4,0-5.7c0.4-0.5,0.8-1,1.4-1.4c0.7-0.5,1.5-0.8,2.3-0.8
		c1.8-0.2,3.7,0.6,4.8,2.2C39.1,36.3,39.3,36.6,39.4,37z"/>
	
		<ellipse id="XMLID_12552_" transform="matrix(0.8309 -0.5565 0.5565 0.8309 -15.7263 25.8592)" class="st3" cx="34.7" cy="38.8" rx="5.1" ry="5.1"/>
	
		<ellipse id="XMLID_12551_" transform="matrix(0.8309 -0.5565 0.5565 0.8309 -5.676 18.2724)" class="st80" cx="27.2" cy="18.5" rx="5.7" ry="5.7"/>
	<ellipse id="XMLID_12550_" class="st0" cx="26.7" cy="44.3" rx="13.1" ry="1.7"/>
	
		<ellipse id="XMLID_12549_" transform="matrix(0.8309 -0.5565 0.5565 0.8309 -10.2785 14.5022)" class="st78" cx="18.7" cy="24.2" rx="5.7" ry="5.7"/>
	<path id="XMLID_12548_" class="st81" d="M15.6,22.4c2.6-1.7,6.1-1,7.9,1.6c0.4,0.5,0.6,1.1,0.8,1.7c0.4-1.5,0.2-3.2-0.8-4.7
		c-1.7-2.6-5.3-3.3-7.9-1.6c-2.1,1.4-2.9,3.9-2.3,6.2C13.6,24.4,14.4,23.2,15.6,22.4z"/>
	
		<ellipse id="XMLID_12547_" transform="matrix(0.8309 -0.5565 0.5565 0.8309 -10.2785 14.5022)" class="st3" cx="18.7" cy="24.2" rx="5.7" ry="5.7"/>
	
		<ellipse id="XMLID_12546_" transform="matrix(0.8309 -0.5565 0.5565 0.8309 -14.8903 15.4353)" class="st78" cx="17.9" cy="32.2" rx="5.7" ry="5.7"/>
	<path id="XMLID_12545_" class="st81" d="M14.8,30.8c2.6-1.7,6.1-1,7.9,1.6c0.3,0.5,0.6,1,0.7,1.5c0.5-1.6,0.3-3.3-0.7-4.8
		c-1.7-2.6-5.3-3.3-7.9-1.6c-2.1,1.4-3,4-2.3,6.4C12.9,32.6,13.6,31.5,14.8,30.8z"/>
	
		<ellipse id="XMLID_12544_" transform="matrix(0.8309 -0.5565 0.5565 0.8309 -14.8903 15.4353)" class="st3" cx="17.9" cy="32.2" rx="5.7" ry="5.7"/>
	
		<ellipse id="XMLID_12543_" transform="matrix(0.8309 -0.5565 0.5565 0.8309 -5.9779 22.2979)" class="st78" cx="33.7" cy="21" rx="5.7" ry="5.7"/>
	<path id="XMLID_12542_" class="st81" d="M30.5,19.4c2.6-1.7,6.1-1,7.9,1.6c0.3,0.5,0.6,1,0.7,1.6c0.5-1.6,0.2-3.3-0.7-4.8
		c-1.7-2.6-5.3-3.3-7.9-1.6c-2.1,1.4-3,4-2.3,6.3C28.6,21.3,29.4,20.2,30.5,19.4z"/>
	
		<ellipse id="XMLID_12541_" transform="matrix(0.8309 -0.5565 0.5565 0.8309 -5.9779 22.2979)" class="st3" cx="33.7" cy="21" rx="5.7" ry="5.7"/>
	
		<ellipse id="XMLID_12540_" transform="matrix(0.8309 -0.5565 0.5565 0.8309 -10.7008 24.4158)" class="st78" cx="34.8" cy="29.8" rx="5.7" ry="5.7"/>
	<path id="XMLID_12539_" class="st81" d="M31.6,27.5c2.6-1.7,6.1-1,7.9,1.6c0.4,0.6,0.7,1.3,0.8,2c0.3-1.5,0.1-3-0.8-4.4
		c-1.7-2.6-5.3-3.3-7.9-1.6c-2,1.3-2.9,3.7-2.4,5.9C29.6,29.6,30.4,28.3,31.6,27.5z"/>
	
		<ellipse id="XMLID_12538_" transform="matrix(0.8309 -0.5565 0.5565 0.8309 -10.7008 24.4158)" class="st3" cx="34.8" cy="29.8" rx="5.7" ry="5.7"/>
	
		<ellipse id="XMLID_12537_" transform="matrix(0.8309 -0.5565 0.5565 0.8309 -15.9828 20.9495)" class="st78" cx="26.5" cy="36.8" rx="5.7" ry="5.7"/>
	<path id="XMLID_12536_" class="st79" d="M31.9,35.3c-0.3,0.3-0.7,0.7-1.1,0.9c-3,2-6.9,1.5-8.7-1.2c-0.2-0.3-0.4-0.7-0.5-1
		c0.4-0.7,1-1.4,1.8-1.9c2.6-1.7,6.1-1,7.9,1.6C31.6,34.1,31.8,34.7,31.9,35.3z"/>
	
		<ellipse id="XMLID_12535_" transform="matrix(0.8309 -0.5565 0.5565 0.8309 -15.9828 20.9495)" class="st3" cx="26.5" cy="36.8" rx="5.7" ry="5.7"/>
	<path id="XMLID_12534_" class="st58" d="M25.6,22.3c0,0-1.7-3.7-6.8-7.1c-3-2-5.8-2.6-7.2-2.7c-0.5-0.1-1,0.2-1.2,0.7l-0.6,1.4
		c-0.3,0.7,0.2,1.5,1,1.6c1.6,0.1,4.1,0.5,6.6,2c5.5,3.3,7,6.3,7,6.3L25.6,22.3z"/>
	<path id="XMLID_12533_" class="st67" d="M18.1,16.7c4,2.4,6.1,5.2,6.9,6.5l0.5-0.9c0,0-1.7-3.7-6.8-7.1c-3-2-5.8-2.6-7.2-2.7
		c-0.5-0.1-1,0.2-1.2,0.7L10,14.1C11.6,14.2,14.8,14.7,18.1,16.7z"/>
	<path id="XMLID_12532_" class="st3" d="M25.6,22.3c0,0-1.7-3.7-6.8-7.1c-3-2-5.8-2.6-7.2-2.7c-0.5-0.1-1,0.2-1.2,0.7l-0.6,1.4
		c-0.3,0.7,0.2,1.5,1,1.6c1.6,0.1,4.1,0.5,6.6,2c5.5,3.3,7,6.3,7,6.3L25.6,22.3z"/>
	
		<ellipse id="XMLID_12531_" transform="matrix(0.8309 -0.5565 0.5565 0.8309 -10.4455 19.925)" class="st78" cx="27.6" cy="27.1" rx="6.8" ry="6.8"/>
	<path id="XMLID_12530_" class="st81" d="M23.8,25.4c3.1-2.1,7.4-1.3,9.5,1.9c0.4,0.6,0.7,1.2,0.9,1.8c0.6-1.9,0.3-4-0.9-5.8
		c-2.1-3.1-6.3-4-9.5-1.9c-2.6,1.7-3.6,4.8-2.7,7.6C21.5,27.7,22.4,26.3,23.8,25.4z"/>
	
		<ellipse id="XMLID_12529_" transform="matrix(0.8309 -0.5565 0.5565 0.8309 -10.4455 19.925)" class="st3" cx="27.6" cy="27.1" rx="6.8" ry="6.8"/>
	<path id="XMLID_12528_" class="st58" d="M16.4,5.3c0.1-0.5,0.7-0.7,1.1-0.4l2.1,1.8c0.3,0.3,0.8,0.2,1-0.2l0.1-0.2
		C21.5,5,22.7,4.1,24,3.6l1-0.3c0.3-0.1,0.7,0.1,0.8,0.4l0.4,0.9C26.8,5.7,27,7,26.9,8.3l0,0.3c0,0.5,0.3,0.9,0.7,0.8l2.2-0.1
		c0.5,0,0.9,0.6,0.7,1.1l-0.3,0.7c-1.2,2.6-3.5,4.4-6.2,4.7l-3.6,0.5l-2.3-3C16.3,11.1,15.7,8.1,16.4,5.3z"/>
	<path id="XMLID_12527_" class="st67" d="M16.4,7.6c0.1-0.5,0.7-0.7,1.1-0.4L19.6,9c0.3,0.3,0.8,0.2,1-0.2l0.1-0.2
		c0.8-1.3,1.9-2.2,3.3-2.7l1-0.3c0.3-0.1,0.7,0.1,0.8,0.4l0.4,0.9c0.5,1.2,0.7,2.4,0.6,3.7l0,0.3c0,0.5,0.3,0.9,0.7,0.8l2.2-0.1
		c0,0,0.1,0,0.1,0c0.1-0.2,0.2-0.3,0.2-0.5l0.3-0.7c0.2-0.5-0.1-1.1-0.7-1.1l-2.2,0.1c-0.4,0-0.8-0.4-0.7-0.8l0-0.3
		C27,7,26.8,5.7,26.3,4.6l-0.4-0.9c-0.2-0.3-0.5-0.5-0.8-0.4l-1,0.3c-1.3,0.4-2.5,1.4-3.3,2.7l-0.1,0.2c-0.2,0.4-0.7,0.4-1,0.2
		l-2.1-1.8c-0.4-0.3-1-0.1-1.1,0.4c-0.3,1.1-0.3,2.3-0.2,3.4C16.2,8.3,16.3,8,16.4,7.6z"/>
	<path id="XMLID_12526_" class="st3" d="M16.4,5.3c0.1-0.5,0.7-0.7,1.1-0.4l2.1,1.8c0.3,0.3,0.8,0.2,1-0.2l0.1-0.2
		C21.5,5,22.7,4.1,24,3.6l1-0.3c0.3-0.1,0.7,0.1,0.8,0.4l0.4,0.9C26.8,5.7,27,7,26.9,8.3l0,0.3c0,0.5,0.3,0.9,0.7,0.8l2.2-0.1
		c0.5,0,0.9,0.6,0.7,1.1l-0.3,0.7c-1.2,2.6-3.5,4.4-6.2,4.7l-3.6,0.5l-2.3-3C16.3,11.1,15.7,8.1,16.4,5.3z"/>
	<path id="XMLID_12525_" class="st3" d="M20.3,16.3c-0.1-2,0.9-4.9,2.9-7.5"/>
</g>
</svg>
