<svg version="1.1" id="prefix__Layer_1" xmlns="http://www.w3.org/2000/svg" x="0" y="0" viewBox="0 0 100 100" xml:space="preserve"><style>.prefix__st0{fill:#093;stroke:#000;stroke-width:2.04;stroke-miterlimit:10}</style><path class="prefix__st0" d="M40.3 2.2c-5.8-.6-11.9.9-17.3 4.4-.9.5-.9 2.4 0 2.9 4.3 2.5 9 2 13.5 2.2 2.5.1 5 .5 7.4 1 1.9.5 3.9 1 5.1 2.8.6.7 1.7.6 2.2-.4.3-.6.4-1.2.4-1.8.7.1 1.5-.4 1.4-1.6-.1-7.2-8.3-8.9-12.7-9.5z"/><path d="M54.4 26c-1.2-2.7-.4-6.5.6-10.2.2-.9.5-1.9.8-2.8.3-.9.6-1.4 1.2-2.2 1.6-1.8 3.8-3.4 5.5-5.5 1-1.2 1.3-2.6.3-3-.9-.4-2.8.2-3.8 1.5-.9 1.2-1.6 1.7-2.6 2.7-1.2 1-2.4 2.1-3.3 3.3-2 2.4-2.6 4.7-3.2 7-1.2 4.4-2.3 9.1-.8 12.4.4.9 1.5 1.2 3.1.3 1.3-.9 2.7-2.7 2.2-3.5h0z" fill="#633" stroke="#000" stroke-width="2.04" stroke-miterlimit="10" id="prefix__Stem"/><path class="prefix__st0" d="M35.9 14.7c5.2.8 8.2 3.7 14.1 3.7 6.8 0 10.3-2.8 15.8-3.7 14.8-2.4 29 12.4 29 32.7 0 27.8-20.2 49.6-45 50.4C20.1 98.6 5 75.1 5 47.3c0-21.2 13.8-35.2 30.9-32.6z" id="prefix__Apple_Body"/></svg>