<?xml version="1.0" encoding="utf-8"?>
<!-- Generator: Adobe Illustrator 24.2.1, SVG Export Plug-In . SVG Version: 6.00 Build 0)  -->
<svg version="1.1" id="Layer_1" xmlns="http://www.w3.org/2000/svg" xmlns:xlink="http://www.w3.org/1999/xlink" x="0px" y="0px"
	 viewBox="0 0 100 100" style="enable-background:new 0 0 100 100;" xml:space="preserve">
<style type="text/css">
	.st0{fill:#009933;}
	.st1{fill:#663333;}
</style>
<g id="Leaf">
	<g>
		<g>
			<path class="st0" d="M53,13c-0.2-7.2-8.2-8.8-12.4-9.4C34.9,3,29,4.5,23.8,7.9c-0.9,0.5-0.9,2.4,0,2.9c4.2,2.5,8.7,2,13.1,2.2
				c2.4,0.1,4.9,0.5,7.2,1c1.8,0.5,3.8,1,5,2.8c0.6,0.7,1.7,0.6,2.1-0.4c1.1-2.7-0.1-5.6-2-7.1c-2-1.5-4.5-2.3-6.7-2.9
				c-4.8-1.4-9.9-1.4-14.6,1c-0.6,0.3-1.1,1-0.9,1.8c0.1,0.7,0.6,1.5,1.3,1.5c5.9-0.6,11.8,0.1,17.5,2.2c1.6,0.6,2.3-2.6,0.7-3.3
				c-5.9-2.2-12.1-2.9-18.2-2.3c0.1,1.1,0.2,2.2,0.4,3.3c3.7-1.8,7.7-2.2,11.6-1.4c1.9,0.4,3.8,1,5.7,1.8c1,0.5,3.8,1.6,3.1,3.6
				c0.7-0.1,1.3-0.2,2.1-0.4c-1.4-1.8-3.3-2.7-5.3-3.3c-2.3-0.6-4.8-1.1-7.2-1.3c-4.5-0.4-9.4,0.5-13.6-1.8c0,1,0,1.9,0,2.9
				C29.5,8,34.4,6.6,39.3,7c2.4,0.2,4.8,0.7,7.2,1.7c1.6,0.6,3.8,2,3.9,4.4C50.5,15.1,53.1,15.1,53,13L53,13z"/>
		</g>
	</g>
</g>
<g id="Stem">
	<g>
		<g>
			<path class="st1" d="M54.3,27.1c-1.2-2.7-0.4-6.4,0.6-10.1c0.2-0.9,0.5-1.9,0.8-2.8c0.3-0.9,0.6-1.4,1.2-2.2
				c1.6-1.8,3.7-3.4,5.3-5.4c1-1.2,1.3-2.6,0.3-3c-0.9-0.4-2.7,0.2-3.7,1.5c-0.9,1.2-1.6,1.7-2.5,2.7c-1.2,1-2.3,2.1-3.2,3.3
				c-1.9,2.4-2.5,4.6-3.1,6.9c-1.2,4.4-2.2,9-0.8,12.3c0.4,0.9,1.5,1.2,3,0.3C53.4,29.7,54.8,27.9,54.3,27.1L54.3,27.1z"/>
		</g>
	</g>
</g>
<g id="Apple_Body">
	<path class="st0" d="M36.3,15.9c5.1,0.8,8,3.7,13.7,3.7c6.6,0,10-2.8,15.4-3.7c14.4-2.4,28.2,12.3,28.2,32.3
		c0,27.5-19.6,49-43.7,49.8C20.9,98.9,6.3,75.7,6.3,48.2C6.3,27.2,19.7,13.4,36.3,15.9z"/>
</g>
</svg>
