<?xml version="1.0" encoding="utf-8"?>
<!-- Generator: Adobe Illustrator 24.2.3, SVG Export Plug-In . SVG Version: 6.00 Build 0)  -->
<svg version="1.1" id="Layer_1" xmlns="http://www.w3.org/2000/svg" xmlns:xlink="http://www.w3.org/1999/xlink" x="0px" y="0px"
	 viewBox="0 0 100 100" style="enable-background:new 0 0 100 100;" xml:space="preserve">
<style type="text/css">
	.st0{fill:#009933;stroke:#000000;stroke-width:2.04;stroke-miterlimit:10;}
	.st1{fill:#663333;stroke:#000000;stroke-width:2.04;stroke-miterlimit:10;}
</style>
<path class="st0" d="M40.3,2.2C34.5,1.6,28.4,3.1,23,6.6c-0.9,0.5-0.9,2.4,0,2.9c4.3,2.5,9,2,13.5,2.2c2.5,0.1,5,0.5,7.4,1
	c1.9,0.5,3.9,1,5.1,2.8c0.6,0.7,1.7,0.6,2.2-0.4c0.3-0.6,0.4-1.2,0.4-1.8c0.7,0.1,1.5-0.4,1.4-1.6C52.9,4.5,44.7,2.8,40.3,2.2z"/>
<g id="Stem">
	<g>
		<g>
			<path class="st1" d="M54.4,26c-1.2-2.7-0.4-6.5,0.6-10.2c0.2-0.9,0.5-1.9,0.8-2.8c0.3-0.9,0.6-1.4,1.2-2.2
				c1.6-1.8,3.8-3.4,5.5-5.5c1-1.2,1.3-2.6,0.3-3c-0.9-0.4-2.8,0.2-3.8,1.5c-0.9,1.2-1.6,1.7-2.6,2.7c-1.2,1-2.4,2.1-3.3,3.3
				c-2,2.4-2.6,4.7-3.2,7c-1.2,4.4-2.3,9.1-0.8,12.4c0.4,0.9,1.5,1.2,3.1,0.3C53.5,28.6,54.9,26.8,54.4,26L54.4,26z"/>
		</g>
	</g>
</g>
<g id="Apple_Body">
	<path class="st0" d="M35.9,14.7c5.2,0.8,8.2,3.7,14.1,3.7c6.8,0,10.3-2.8,15.8-3.7c14.8-2.4,29,12.4,29,32.7
		c0,27.8-20.2,49.6-45,50.4C20.1,98.6,5,75.1,5,47.3C5,26.1,18.8,12.1,35.9,14.7z"/>
</g>
</svg>
