<?xml version="1.0" encoding="utf-8"?>
<!-- Generator: Adobe Illustrator 24.2.3, SVG Export Plug-In . SVG Version: 6.00 Build 0)  -->
<svg version="1.1" id="Layer_1" xmlns="http://www.w3.org/2000/svg" xmlns:xlink="http://www.w3.org/1999/xlink" x="0px" y="0px"
	 viewBox="0 0 512 512" style="enable-background:new 0 0 512 512;" xml:space="preserve">
<style type="text/css">
	.st0{fill:#99CC66;}
	.st1{fill:#669933;}
	.st2{fill:#9AD14B;}
	.st3{fill:#90BC42;}
	.st4{fill:#FFFFFF;}
	.st5{fill:#333333;}
</style>
<g>
	<path class="st0" d="M356.2,280.9c26.7,26.3,44.4,63,44.4,103.7c0,79.8-65,118.9-144.9,118.9c-79.8,0-144.5-39.1-144.5-118.9
		c0-40.9,16.3-77.9,44-104.2c18.8-17.9,29.4-42.5,29.4-68.5v-0.4c0-39.9,33.6-72.1,73.8-70.7c38.3,1.4,68.7,34,68.7,72.4
		C327.2,238.8,338,263,356.2,280.9z"/>
	<path class="st1" d="M213.8,280.4c-11.6,26.3-18.4,63.2-18.4,104.2c0,79.7,27,118.8,60.4,118.9c-79.8,0-144.5-39.1-144.5-118.9
		c0-40.9,16.3-77.9,44-104.2c18.8-17.9,29.4-42.5,29.4-68.5v-0.4c0-39.1,32.2-70.7,71.3-70.7c-16.4,0-29.8,31.7-29.8,70.7v0.4
		C226.1,237.9,221.7,262.5,213.8,280.4z"/>
	<path class="st2" d="M262.3,113.5c-58,0-105.1-47-105.1-105.1c29,0,55.3,11.8,74.3,30.8C250.5,58.3,262.3,84.5,262.3,113.5z"/>
	<path class="st3" d="M262.3,113.5L157.2,8.5c29,0,55.3,11.8,74.3,30.8C250.5,58.3,262.3,84.5,262.3,113.5z"/>
	<path class="st4" d="M362.4,440.2c-1.5,0-3.1-0.4-4.5-1.3c-4-2.5-5.2-7.7-2.7-11.7c7.3-11.8,11-26.1,11-42.6
		c0-29-12.4-57.8-34.1-79.1c-17.3-17-29.5-38-35.3-60.7c-1.2-4.5,1.6-9.1,6.1-10.3c4.5-1.2,9.1,1.6,10.3,6.1
		c5.1,19.8,15.7,38,30.8,52.8c24.9,24.5,39.2,57.7,39.2,91.2c0,19.7-4.6,37.1-13.5,51.6C368,438.8,365.2,440.2,362.4,440.2z"/>
	<path class="st4" d="M301.2,221.7c-4.7,0-8.5-3.8-8.5-8.5c0-20.2-15.9-37.3-35.4-38c-0.5,0-0.9,0-1.4,0c-4.7,0-8.5-3.8-8.5-8.5
		c0-4.7,3.8-8.5,8.5-8.5c0.7,0,1.3,0,2,0c28.5,1,51.8,25.6,51.8,54.9C309.7,217.9,305.9,221.7,301.2,221.7z"/>
	<circle class="st4" cx="342.7" cy="453.5" r="8.5"/>
	<path class="st5" d="M362.2,274.8c-17.1-16.7-26.4-38.6-26.4-61.7c0-39.7-29.3-73.6-67-79.9v-1.6c0-23.6,18.9-42.7,42.1-42.7
		c4.7,0,8.5-3.8,8.5-8.5c0-4.7-3.8-8.5-8.5-8.5c-15.9,0-30.8,6.2-41.9,17.5c-0.2,0.2-0.4,0.4-0.6,0.6C257.5,38.8,211.8,0,157.2,0
		c-4.7,0-8.5,3.8-8.5,8.5c0,59.4,45.8,108.2,103.9,113.1c-0.6,3.3-0.9,6.7-0.9,10.2v0.6c-19.2,1-37.2,8.8-51.3,22.3
		c-15.6,15.1-24.2,35.2-24.2,56.8v0.4c0,23.8-9.5,46-26.8,62.4c-30.1,28.6-46.6,67.8-46.6,110.3c0,40.3,15.8,73.6,45.7,96.1
		c27,20.4,64.1,31.2,107.3,31.2c43.2,0,80.3-10.8,107.5-31.2c30-22.6,45.9-55.8,45.9-96.2C409.1,344.2,392,304.2,362.2,274.8z
		 M166.1,17.4c46.2,4.2,83.1,41.1,87.3,87.3C207.2,100.4,170.3,63.5,166.1,17.4z M255.8,495.1c-65.7,0-136-29-136-110.4
		c0-37.9,14.7-72.7,41.4-98c20.7-19.6,32-46.2,32-74.7v-0.4c0-16.9,6.8-32.7,19-44.6c11.9-11.5,27.3-17.7,43.7-17.7
		c0.8,0,1.5,0,2.3,0c33.4,1.2,60.5,29.9,60.5,63.9c0,27.6,11.2,53.8,31.5,73.7c26.6,26.2,41.9,61.8,41.9,97.7
		C392.2,466,321.7,495.1,255.8,495.1z"/>
</g>
</svg>
