<svg version="1.1" id="prefix__Layer_1" xmlns="http://www.w3.org/2000/svg" x="0" y="0" viewBox="0 0 512 512" xml:space="preserve"><style>.prefix__st4{fill:#fff}</style><path d="M356.2 280.9c26.7 26.3 44.4 63 44.4 103.7 0 79.8-65 118.9-144.9 118.9-79.8 0-144.5-39.1-144.5-118.9 0-40.9 16.3-77.9 44-104.2 18.8-17.9 29.4-42.5 29.4-68.5v-.4c0-39.9 33.6-72.1 73.8-70.7 38.3 1.4 68.7 34 68.7 72.4.1 25.6 10.9 49.8 29.1 67.7z" fill="#9c6"/><path d="M213.8 280.4c-11.6 26.3-18.4 63.2-18.4 104.2 0 79.7 27 118.8 60.4 118.9-79.8 0-144.5-39.1-144.5-118.9 0-40.9 16.3-77.9 44-104.2 18.8-17.9 29.4-42.5 29.4-68.5v-.4c0-39.1 32.2-70.7 71.3-70.7-16.4 0-29.8 31.7-29.8 70.7v.4c-.1 26-4.5 50.6-12.4 68.5z" fill="#693"/><path d="M262.3 113.5c-58 0-105.1-47-105.1-105.1 29 0 55.3 11.8 74.3 30.8 19 19.1 30.8 45.3 30.8 74.3z" fill="#9ad14b"/><path d="M262.3 113.5L157.2 8.5c29 0 55.3 11.8 74.3 30.8s30.8 45.2 30.8 74.2z" fill="#90bc42"/><path class="prefix__st4" d="M362.4 440.2c-1.5 0-3.1-.4-4.5-1.3-4-2.5-5.2-7.7-2.7-11.7 7.3-11.8 11-26.1 11-42.6 0-29-12.4-57.8-34.1-79.1-17.3-17-29.5-38-35.3-60.7-1.2-4.5 1.6-9.1 6.1-10.3 4.5-1.2 9.1 1.6 10.3 6.1 5.1 19.8 15.7 38 30.8 52.8 24.9 24.5 39.2 57.7 39.2 91.2 0 19.7-4.6 37.1-13.5 51.6-1.7 2.6-4.5 4-7.3 4zM301.2 221.7c-4.7 0-8.5-3.8-8.5-8.5 0-20.2-15.9-37.3-35.4-38h-1.4c-4.7 0-8.5-3.8-8.5-8.5s3.8-8.5 8.5-8.5h2c28.5 1 51.8 25.6 51.8 54.9 0 4.8-3.8 8.6-8.5 8.6z"/><circle class="prefix__st4" cx="342.7" cy="453.5" r="8.5"/><path d="M362.2 274.8c-17.1-16.7-26.4-38.6-26.4-61.7 0-39.7-29.3-73.6-67-79.9v-1.6c0-23.6 18.9-42.7 42.1-42.7 4.7 0 8.5-3.8 8.5-8.5s-3.8-8.5-8.5-8.5c-15.9 0-30.8 6.2-41.9 17.5l-.6.6C257.5 38.8 211.8 0 157.2 0c-4.7 0-8.5 3.8-8.5 8.5 0 59.4 45.8 108.2 103.9 113.1-.6 3.3-.9 6.7-.9 10.2v.6c-19.2 1-37.2 8.8-51.3 22.3-15.6 15.1-24.2 35.2-24.2 56.8v.4c0 23.8-9.5 46-26.8 62.4-30.1 28.6-46.6 67.8-46.6 110.3 0 40.3 15.8 73.6 45.7 96.1 27 20.4 64.1 31.2 107.3 31.2s80.3-10.8 107.5-31.2c30-22.6 45.9-55.8 45.9-96.2-.1-40.3-17.2-80.3-47-109.7zM166.1 17.4c46.2 4.2 83.1 41.1 87.3 87.3-46.2-4.3-83.1-41.2-87.3-87.3zm89.7 477.7c-65.7 0-136-29-136-110.4 0-37.9 14.7-72.7 41.4-98 20.7-19.6 32-46.2 32-74.7v-.4c0-16.9 6.8-32.7 19-44.6 11.9-11.5 27.3-17.7 43.7-17.7h2.3c33.4 1.2 60.5 29.9 60.5 63.9 0 27.6 11.2 53.8 31.5 73.7 26.6 26.2 41.9 61.8 41.9 97.7.1 81.4-70.4 110.5-136.3 110.5z" fill="#333"/></svg>