<?xml version="1.0" encoding="utf-8"?>
<!-- Generator: Adobe Illustrator 24.2.3, SVG Export Plug-In . SVG Version: 6.00 Build 0)  -->
<svg version="1.1" id="Layer_1" xmlns="http://www.w3.org/2000/svg" xmlns:xlink="http://www.w3.org/1999/xlink" x="0px" y="0px"
	 viewBox="0 0 800 800" style="enable-background:new 0 0 800 800;" xml:space="preserve">
<style type="text/css">
	.st0{fill:#996600;}
	.st1{fill:#049147;}
	.st2{fill:#3BB44B;}
	.st3{fill:#F6D01A;}
</style>
<g>
	<path class="st0" d="M444.7,661.9c-44.8,50.1-107.8,112.4-162,129.4c-72.9,22.9-137-13.9-187.4-59C52.5,694,16.3,643.5,24.4,555.8
		c8-86.6,48.7-118.3,102.5-178.4c54-60.4,127.4-110.4,192.3-122.1c61.3-11.1,114.4,13.4,157.1,51.6c46.1,41.3,72.8,103.2,64.3,171.2
		C532.9,539.6,494.7,606.1,444.7,661.9z"/>
	<g id="jIkwPt_1_">
		<g>
			<path class="st1" d="M430.8,269.9c-11-48.8-21.2-97.7-38.5-147.8c20.3,15.1,36.8,31.5,54.3,49.9c-5.9-34.5-10.2-67.3-13-101.7
				c21.5,22.2,39.6,44.8,55.3,69.1c2.8,4.7,5.5,9.3,8.3,14c11.8,19.1,20.3,39.1,25.6,59.9c4.6,18.3,8,36.5,7.6,55
				c7.8-1.1,15.2-2.2,23.1-1.5c2.4,0.2,2.9-1.5,3.7-3.2c3.8-8.3,4.5-17.7,5.4-27c0.4-4.2,1.9-6.5,6.3-6.4c11.6,0.4,23,0.1,34.8,1.8
				c25.2,3.7,50,11.2,74.7,20.5c25,9.5,49.7,20.5,75.2,34.3c-33.3,5.4-65.7,8.8-99.9,11.8c28.5,16.3,54.9,32.6,81.2,52.9
				c-36.4-2-71.2-3.8-107.9-5.8c19.2,17.8,37.1,34.8,52.9,55.4c-5.8-2-10.5-3.6-15.2-5.1c-39.6-13.4-79.6-22.2-119.6-29.1
				c-8.4-1.5-16.9-3.7-25.3-5.6c-1.2-0.4-2.4-0.8-3.6-1.3c-0.7-0.8-1.4-1.6-2-2.5c-21.6-32-48.8-58.4-80.8-80c-0.2-2-0.7-4-1.9-5.9
				c0,0,0-0.1,0-0.1C431,271,430.9,270.5,430.8,269.9z"/>
			<path class="st2" d="M678.2,252.4c-24.7-9.3-49.5-16.8-74.7-20.5c-11.8-1.7-23.2-1.5-34.8-1.8c-4.5-0.1-5.9,2.2-6.3,6.4
				c-0.9,9.3-1.6,18.7-5.4,27c-0.8,1.7-1.2,3.4-3.7,3.2c-7.8-0.7-15.2,0.5-23.1,1.5c0.3-18.5-3-36.7-7.6-55
				c-5.3-20.8-13.8-40.7-25.6-59.9c-2.8-4.6-5.5-9.3-8.3-14c3.5,0.5,2.1-2.3,2-3.9c-1.4-29.6-2.1-59.1-2.2-88.5
				c0-2.1-0.2-4.2,1.3-6.9c18.4,22.9,32.6,47.1,46.1,73.2c12.1-41,30.2-77.3,52.2-112c1.6,7.5,3.2,14.9,4.7,22.4
				c6.6,35.1,10.9,70,10.5,104.5c0,1.5,0.4,3.1,0.6,4.6c-2.6,4.3-1.6,9.8-2.3,14.7c-2.6,17.3-6.2,34.3-11,50.8
				c-0.4,1.3-1.7,2.7,0.2,4.1c1.5,1.1,2.8-0.2,4.1-0.7c14.5-5.6,29.3-10.4,44.8-14c7-1.6,15-0.6,21.2-4.2c2.6,1.7,5,0.7,7.4,0.5
				c39.1-2.1,79,1.2,119.2,7.6c0.5,0.1,1.1,0.3,2.2,0.7c-3.6,4.6-8.8,6.8-13.3,9.6c-30.1,18.4-61.1,35.5-95,48.1
				C680.1,250.5,678.2,250.3,678.2,252.4z"/>
			<path class="st1" d="M660.9,183.5c-6.2,3.6-14.2,2.6-21.2,4.2c-15.5,3.6-30.3,8.3-44.8,14c-1.3,0.5-2.6,1.8-4.1,0.7
				c-1.9-1.3-0.5-2.7-0.2-4.1c4.7-16.5,8.3-33.4,11-50.8c0.7-4.9-0.3-10.4,2.3-14.7c23.3-24.4,53.2-39.8,85.3-51.9
				c7.6-2.9,15.5-5.2,24.9-8.3C703.8,115.2,689,153.3,660.9,183.5z"/>
			<path class="st3" d="M431.1,676.6c-0.7,1.1-1.4,2.2-2.2,3.3c-1.9,1.1-3.2,2.6-4.2,4.6c-0.8,0.3-1.5,0.7-2.3,1
				c-11.9-5.3-24.7-7.7-37.1-11.3c-8.3-2.4-16.4-5.9-25.1-6.5c-0.3-0.3-0.7-0.4-1.1-0.3c-3.6-2.2-7.3-3.9-11.7-3.3
				c-1.5-0.5-3-1.1-4.5-1.6c-0.5-0.7-1.1-0.8-1.8-0.2c-1.1-0.3-2.2-0.6-3.3-0.8c-1.4-1.7-3.3-2-5.3-1.6c-1.3-0.9-2.6-1.8-4.3-1.4
				c-0.7-0.1-1.4-0.2-2.1-0.4c-1.4-1.1-2.9-1.6-4.7-1.4c-0.5-0.1-1-0.1-1.5-0.2c-1.2-1.1-2.4-2.2-3.5-3.3
				c-1.1-6.8-3.3-13.1-6.6-19.1c0.2-2.4-0.7-4.4-2-6.3c-0.2-0.7-0.3-1.3-0.5-2c-0.3-0.7-0.6-1.4-0.9-2.2c-3.1-14.2-7.7-28-13.3-41.4
				c0.3-1.3-0.3-2.3-1.2-3.1c0.6-2,0.2-3.8-1.5-5.1c-0.6-2.6-0.8-5.3-2.5-7.5c-0.3-3.7-0.6-7.4-3.2-10.5c-0.3-0.7-0.7-1.5-1-2.2
				c1.6-5.7-5.4-10.2-2.2-16.2l0.1,0c1.2,1.3,2.8,1.4,4.4,1c2.8,1.8,5.8,2.7,9.1,2.4c0.2,0.8,0.7,0.8,1.2,0.3
				c1.2,0.5,2.3,0.9,3.5,1.4c2.4,2.3,5.4,2.6,8.6,2.3c0.3,0.3,0.7,0.5,1.1,0.6c0.8,1,1.7,1.5,2.9,0.8c1.8,0.5,3.6,1,5.4,1.5
				c0.8,0.2,1.6,0.3,2.4,0.5c3.2,2.2,6.8,3.1,10.6,3.1c0.7,0.1,1.4,0.3,2.1,0.4c1.3,1,2.5,2.1,4.3,1.6c0.7,0.2,1.4,0.3,2.1,0.5
				c0.3,0.3,0.7,0.5,1.1,0.5c5.5,2.1,10.8,5.3,17,4.6c3.9,2.3,8.3,3.1,12.7,3.7c1.3,1.4,2.8,1.5,4.5,0.9c5.2,3,11.1,4.1,16.8,5.4
				c1,0.9,2.1,1.1,3.3,0.7c0.7,0.7,1.5,1.4,2.2,2c-0.3,1.3,0.1,2.4,1.2,3.2l0,0.1c-0.3,2.5,0.6,4.5,2.3,6.2c1.7,5.3,3.3,10.6,5,15.8
				c0.2,0.7,0.4,1.4,0.6,2.1c1.4,5.1,2.1,10.4,5.3,14.8c-0.5,2.4-0.5,4.6,1.7,6.3c0,0.5,0.2,0.9,0.5,1.2c0,5.4,2.2,10.2,4.7,14.8
				c0.5,1.9,1.1,3.8,1.6,5.6c-0.6,0.5-0.6,0.9,0.2,1.1c0.6,1.2,1.2,2.4,1.8,3.6c-0.6,2.9,0.4,5.3,2.4,7.4c0,0.4,0.1,0.8,0.4,1.1
				C424.9,662.9,428.4,669.6,431.1,676.6z"/>
			<path class="st3" d="M135.2,381.1c1.4,0.4,2.7,0.9,4.1,1.3c2.3,1,4.5,2.2,6.8,2.9c20.8,6.1,41.4,13.3,62.6,17.6
				c16.3,3.2,22.5,12.3,26.3,27.1c3.5,13.6,7,27.5,13.7,40.2c0.1,0.5,0.3,0.9,0.6,1.2c0.1,0.7,0.2,1.4,0.4,2
				c0.3,1.1,0.5,2.2,0.8,3.3c0,1.2,0.3,2.3,1.4,3.1c-0.1,0.4,0.1,0.7,0.3,1c2.2,12.6,6.8,24.4,11.5,36.2c0.3,1,0.7,2,1,3
				c-0.8,3.2-3.4,3.4-6,3.7c-0.2-0.3-0.5-0.4-0.8-0.4c-1.9-1.4-4-2.4-6.5-2l0,0c-0.8-0.2-1.6-0.3-2.3-0.5c-0.2-0.3-0.5-0.5-0.9-0.5
				c-13.5-5.3-27.5-9-41.8-11.8c-0.2-0.3-0.5-0.4-0.9-0.3c-4.4-2.3-9-4-14-4c-0.7-0.3-1.4-0.6-2.1-0.9c-10.8-4-21.8-7.3-33.2-9.2
				c-1-0.3-2-0.6-3.1-0.9c-0.9-0.9-2-1.3-3.2-0.8c-1.4-1.4-2.9-2.8-4.3-4.1c0.7-2,0.2-3.7-1.5-5.1c0-0.4-0.2-0.8-0.5-1.1
				c-0.1-0.7-0.3-1.4-0.4-2.2c0-0.4-0.1-0.7-0.4-1c-0.4-5-2-9.5-4.7-13.6l-0.2-0.6c0.7-4.7-2-8.3-3.7-12.3l0-0.1
				c0.5-0.6,0.5-1.2-0.3-1.6c0-1.8-0.5-3.4-1.7-4.7c0.3-2.5-0.6-4.5-2.2-6.3l0,0c0.1-3-0.5-5.9-2.4-8.4c-0.6-1.5-1.3-2.9-1.9-4.4
				c0.9-3.2-1-5.8-1.8-8.6c-3.5-11.6-7.3-23.1-10.9-34.7c0,0,0-0.1,0-0.1c4.3-7.6,11.2-3.4,17.1-3.7c0.2,0.3,0.5,0.4,0.9,0.3
				C132.1,381.3,133.6,381.5,135.2,381.1z"/>
			<path class="st3" d="M219.4,294c0.5-0.3,0.9-0.6,1.4-0.8c6.2,0.5,11.9,3.9,18.2,3.8c0.2,0.3,0.5,0.4,0.9,0.3c0.9,1,2,1.3,3.2,1
				c1.1,0.3,2.1,0.7,3.2,1c2.1,0.8,4.1,1.8,6.2,2.5c18.2,5.3,36.4,10.6,54.7,15.6c4.8,1.3,7.6,3.5,9.2,8.5
				c5.5,17.9,11.1,35.7,17.3,53.3c5.1,14.5,8.1,29.8,14.9,43.7c-0.1,0.4,0.1,0.7,0.4,1c-0.1,2,0.4,3.9,1.8,5.4
				c0.2,0.8,0.4,1.7,0.6,2.5c-3.1,3.1-6.4,1.3-9.8,0.5c-7.6-1.9-14.8-5.8-22.9-5.7c-0.2-0.3-0.5-0.5-0.9-0.4
				c-2.3-1.5-4.7-2.6-7.6-2.4c-1.1-0.3-2.2-0.6-3.4-0.9c-1.5-1.5-3.3-1.8-5.2-1.2c-1.1-0.4-2.1-0.8-3.2-1.1
				c-0.8-0.2-1.6-0.3-2.3-0.5c-0.2-0.3-0.5-0.5-0.9-0.4c-12.8-5.1-25.9-8.8-39.5-11.4l0,0.1c-0.9-1-2-1.3-3.4-1
				c-1.9-1.5-4-2-6.3-1.8c-3.4-2.1-7.2-2.8-11.1-3.4c-0.6-1.2-1.3-2.3-1.9-3.5c0.4-2.2-0.3-4-1.7-5.6c-0.4-1-0.8-2-1.2-2.9
				c-0.2-0.7-0.4-1.4-0.6-2.1c0.5-1.8-0.5-3-1.6-4.2c-0.2-0.7-0.4-1.5-0.5-2.2c0.3-1.6-0.5-2.9-1.4-4.1c0.6-2.9-0.3-5.3-2.2-7.4
				c-0.3-0.7-0.6-1.4-0.9-2.1c0.3-1.7,0.2-3.2-1.3-4.3l0-0.2c0.7-1.3,0.2-2.2-0.9-3c0-0.4-0.2-0.8-0.6-1.1c-0.2-7.3-3-13.7-6.3-20.1
				c-0.3-0.7-0.6-1.4-0.9-2.1c-0.2-5-1.3-9.7-4.4-13.8l0,0c0.5-3.2-0.8-5.8-2.5-8.4c0-0.4-0.1-0.7-0.4-1c-2.5-6-0.7-10,5.1-13.1
				C213.9,299.1,217.5,297.4,219.4,294z"/>
			<path class="st3" d="M507.6,556.2c-0.1,0.3,0.1,0.6,0.4,0.7c3.9,9.9-2.8,17-6.5,24.9c-3.2,6.9-7.5,9.5-15,5.9
				c-4-1.9-8.6-2.7-12.9-3.8c-15.6-4.2-30.9-9.9-47-12.6c-1.1-0.3-2.2-0.7-3.3-1c-0.8-1.1-1.9-1.1-3.1-0.8c-1.1-0.3-2.3-0.7-3.4-1
				c-2.5-1.8-5.2-3.1-8.4-2.1l0,0c-5.5-2.3-6.1-8.2-9.1-12.4c-0.3-0.7-0.7-1.4-1-2.2c-3.9-18.2-10.6-35.5-16.8-52.9
				c-0.4-0.7-0.8-1.4-1.2-2c0.6-1.7,0.2-3.1-1.1-4.3c-0.3-0.7-0.6-1.5-0.9-2.2c-1.2-14.1-9.4-26.5-11.5-41.3c4,0.9,7.2,1.5,10.2,2.4
				c33.2,9.4,66.3,19,99.5,28.4c4.1,1.1,6.3,3.4,7.6,7.3c1.7,5.4,2.9,11.1,6.1,16c0,0.4,0.2,0.7,0.5,1c0.2,0.7,0.4,1.5,0.5,2.2
				c-0.1,0.4,0.1,0.7,0.3,1C495.5,524.1,501,540.3,507.6,556.2z"/>
			<path class="st3" d="M83.4,588.3c-2.5-1.4-5.7-1.6-7.5-4.2c0.4-1.3,0-2.4-0.9-3.3c-0.5-1.3-1-2.7-1.5-4c-0.2-0.8-0.3-1.6-0.5-2.4
				c-0.4-1-0.7-2-1.1-3c-0.2-4.3-1.5-8.2-4-11.6c0,0,0-0.1,0-0.1c0.4-0.6,0.4-1.1-0.5-1.3c0-1.8-0.1-3.6-1.4-5
				c-0.5-6.5-3-12.3-5.9-17.9c-0.4-1.4-0.8-2.8-1.2-4.2c-3.2-13.5-7.3-26.7-13.1-39.2c0,0,0,0,0,0c0.9-3.1-0.8-5.9-1.9-8.5
				c-2.2-5.4-1.4-9.6,3.5-12.8c0,0,0,0,0,0c1.1,0.9,2.4,0.9,3.7,0.6c1.6,0.5,3.2,1,4.8,1.5c4.3,2.7,9.1,3.7,14,4
				c0.7,0.3,1.4,0.6,2.1,0.9c13,4.3,25.9,8.8,39.5,11.1c0.9,0.8,1.9,1.4,3.2,1.1c3.4,1.9,7,3,10.9,2.8l0.3,0.3l0.4,0
				c0.8,0.2,1.7,0.3,2.5,0.5c0.8,0.9,1.7,1.2,2.8,0.5c7.4,2.8,11,8.6,12.9,16c1.1,4.5,2,9.1,4.9,13l0,0c3.2,14.5,8.4,28.3,13.6,42.2
				c0,0.4,0.1,0.8,0.4,1c3.2,16.2,10.7,31.2,14.4,47.3c-5.3,0.6-9-3.3-13.6-2.4c-1.6-0.4-3.1-0.8-4.7-1.2c-2.2-1.9-4.8-2.3-7.6-2.1
				c-0.7-0.3-1.4-0.6-2.1-0.9c-3.6-2.1-7.4-3.7-11.7-3.2c0,0,0,0,0,0c-0.8-0.1-1.6-0.3-2.3-0.4c-1.2-1-2.4-1.8-4.1-1.4
				c-2.2-1.8-4.8-2.5-7.6-2.1c-0.7-0.3-1.3-0.6-2-1c-3.4-1.8-6.9-3.3-10.8-2.7c-1.3-0.9-2.6-1.6-4.2-1.1c-0.8-1.1-1.8-1.4-3.1-1.1
				c-1.1-0.3-2.2-0.7-3.3-1c-0.7-0.1-1.5-0.3-2.2-0.4c-1.4-0.5-2.9-1-4.3-1.5c-0.7-0.1-1.4-0.3-2.1-0.4c-0.3-0.3-0.7-0.5-1.2-0.5
				C88.8,588.4,86.2,587.8,83.4,588.3z"/>
			<path class="st3" d="M226.3,729.2c-1-1.1-2-2.2-3.1-3.3c-0.2-0.6-0.3-1.3-0.5-1.9c0.4-1.3,0-2.4-1-3.3
				c-2.4-12.3-7.4-23.8-11-35.7c-5.1-16.7-10.8-33.3-16.1-49.9c-0.6-1.8-1.9-4.2-0.4-5.6c1.5-1.4,3.8,0,5.6,0.5
				c14.9,4.3,29.7,8.8,44.6,12.9c15.2,4.1,29.8,10,45.5,12.2c2.3,1.6,5,1.9,7.7,2c0.6,0.1,1.2,0.2,1.9,0.4c1,0.4,2.1,0.7,3.1,1.1
				c0.9,0.9,2,1.4,3.3,0.9l0,0c2.2,2.1,4.3,4.1,6.5,6.2c-0.1,0.3,0,0.6,0.3,0.8c-0.3,1.1-0.6,2.1,0.7,2.7c0.5,1.2,1,2.4,1.5,3.7
				c0.2,0.8,0.5,1.6,0.7,2.4c-0.1,0.3,0,0.6,0.3,0.8c-0.3,1.6-0.3,3.1,1.2,4.3c0.7,3.7,1.8,7.3,3.7,10.5c-1.1,2.9,0.2,5.3,2,7.4
				c-0.4,1.7,0.5,3,1.5,4.3c0.2,1.5,0.2,3,0.7,4.4c5,15.9,10.1,31.8,15.3,47.6c1.1,3.4,1.6,5.8-2.9,6.4c-1.1-0.3-2.2-0.6-3.3-0.9
				c-8.9-3.8-18-7-27.7-8c-0.7-0.2-1.3-0.4-2-0.6c-1.9-1.5-4-2.6-6.5-1.8c0,0,0.1,0,0.1,0c-0.9-0.9-2-1.3-3.3-1
				c-0.3-0.3-0.7-0.5-1.2-0.5c-3.6-2.1-7.3-3.6-11.6-3.2c-1.1-0.3-2.2-0.5-3.3-0.8c-1.8-1.4-3.7-2.5-6.2-1.9
				c-2.4-0.2-4.2-2.6-6.8-1.9c-0.6-0.2-1.3-0.4-1.9-0.6c-5.4-1.6-10.8-3.1-16.1-4.7c-0.7-0.1-1.3-0.2-2-0.3
				c-0.4-0.3-0.8-0.5-1.2-0.5C238.8,731,232.7,729.6,226.3,729.2z"/>
			<path class="st3" d="M110.5,603.6c1.8,0.5,3.6,1.1,5.4,1.6c2.1,2,4.7,2.4,7.5,2.2c0.7,0.3,1.5,0.5,2.2,0.8
				c0.5,0.7,1.1,0.8,1.9,0.3c0,0,0,0,0,0c1.5,1.6,3.4,2,5.4,1.4c0.9,0.4,1.7,0.7,2.6,1.1c0.4,0.8,0.9,0.8,1.5,0.4c0,0,0.1,0,0.1,0
				c0.7,0.2,1.5,0.3,2.2,0.5c1.5,0.5,2.9,0.9,4.4,1.4c0.7,0.2,1.3,0.3,2,0.5c1,0.3,2,0.7,3,1c0.9,0.9,2,1.4,3.3,0.9
				c1.6,0.5,3.2,0.9,4.8,1.4c0.4,0.9,0.9,0.7,1.5,0.3c1.8,0.5,3.5,1,5.3,1.6c2.4,2.6,5.9,3,8.9,3.5c7.5,1.1,10.7,5.6,12.7,12.5
				c3.5,12.5,7.5,24.9,11.8,37.1c5.8,16.2,9.4,33,16.5,48.7c0.7,6.3-3.4,3.3-5.6,2.6c-18.5-5.2-37-10.5-55.5-15.8
				c-11.3-3.2-22.5-6.6-33.9-9.6c-4.5-1.2-6.7-4-7.8-8.1c-3.5-12.7-8-25-13.2-37.2c1.4-5.3-1.4-9.4-3.6-13.7c0-0.4-0.2-0.7-0.5-0.9
				c0.5-4-1.4-7.2-3.2-10.5c-0.3-0.7-0.6-1.4-0.9-2.1c0.6-3.4-1.2-6.1-2.8-8.8c-0.3-1-0.7-1.9-1-2.9c1-2.3-0.1-4-1.9-5.3
				c0,0,0-0.1,0-0.1c0.7-1.9,0.5-3.7-1.2-5c0-0.5-0.2-0.9-0.5-1.2c0.4-1.3-0.1-2.4-1-3.4c0.2-0.4,0.3-0.8,0.2-1.3
				c1.2-0.3,2.4-0.6,3.6-0.9c0,0,0,0,0,0c3.4,1.8,6.8,3.7,10.8,2.7c0.7,0.3,1.5,0.7,2.2,1c1.3,1.8,3.1,2.1,5.1,1.4
				c1,0.8,2,1.2,3.3,0.8C107.4,603.7,108.9,604,110.5,603.6z"/>
			<path class="st3" d="M303.5,260c-1.4-5,0.2-7.7,5.7-8.1c2.2-0.2,4.3-1.3,6.4-2c0,0,0.1-0.2,0.1-0.2c2.2,1,3.8,0,5.2-1.5
				c0,0,0,0,0,0c1.5,1.1,2.9,1.1,4.3-0.2c0.7-0.1,1.4-0.1,2-0.2c9.6-0.2,19.2,0.2,28.7-1.1l0.1-0.5c0,0,0,0.5,0,0.5
				c5,0.8,9.8,3.2,15.1,2c1,0.1,2,0.2,3.1,0.3c9.7,3.2,19.3,6.5,29,9.6c5.8,1.8,8.7,5.6,10.6,11.4c7.2,22.8,14.8,45.5,22.3,68.3
				c0.6,1.9,1.1,3.8,1.8,6.3c-7.8,0.1-14.3-3.2-21-5.2c-29.6-8.5-59.1-17.5-88.9-25.5c-7.4-2-8.3-6.9-9.9-12.2
				c-4.3-13.7-8.3-27.4-14-40.7C303.9,260.7,303.8,260.3,303.5,260z"/>
			<path class="st3" d="M543.2,483.2c-2,3.6-4.4,5.5-9,4.1c-13.1-4-26.3-7.7-39.5-11.5c-4-1.1-6.2-3.5-7.4-7.5
				c-9.8-32.3-22.3-63.8-30.9-96.5c-1-3.9-5.5-8.9-2.7-11.4c3-2.7,8.3,1.1,12.6,2.3c15.4,4.2,30.5,9.4,46.1,12.5
				c0.3,0.2,0.6,0.3,0.9,0.2c3,1.6,6.2,3,9.7,2.9c0,0,0,0,0,0c5.9,1.7,8.4,6.6,11.2,11.4c0,0,0.1,0.1,0.1,0.1
				c1.1,8.8,4.2,17.1,7.6,25.2c0,0.4,0.1,0.7,0.4,1c-0.7,1.6-0.7,3.1,0.6,4.4c-0.1,0.4,0,0.7,0.3,0.9c0.2,5.8-0.5,11.6,2.3,17.1
				c0,0,0,0.2,0.1,0.2c-1.6,7.6-0.4,15.3-0.9,22.9c-0.4,5.8-2.7,11.7-0.5,17.6C543.9,480.4,543.5,481.8,543.2,483.2z"/>
			<path class="st3" d="M193.6,727.3c5.3,2.8,11.2,4,17,5c0.7,0.2,1.4,0.3,2.1,0.5c0.3,0.3,0.7,0.4,1.1,0.4
				c3.9,2.4,4.5,7.1,6.9,10.4c0.4,0.8,0.8,1.6,1.3,2.4c0.2,0.7,0.4,1.4,0.5,2.1c0,0.4,0.2,0.8,0.5,1.1c-0.1,2.6-0.2,5.3,2,7.3
				c0.4,0.7,0.8,1.5,1.2,2.2c-0.8,2.2-0.1,4,1.6,5.4c0,0,0,0,0,0c-0.4,0.8-0.3,1.4,0.5,1.9c-0.4,1.8,0.5,3.1,1.6,4.4
				c0.1,4.2,0.7,8.3,3.6,11.7c0,0,0,0,0,0c-0.8,3.8,1.8,6.5,3.2,9.5c0,0,0,0,0,0c-0.6,3.2,2.9,8.2-3.8,8.7c-0.8,0-1.5,0-2.3,0
				c-1.3-1.3-2.7-1.3-4.2-0.2c0,0,0,0,0,0c-12.1-2.7-24.4-4.4-36.4-8.1c-7.6-2.4-14.5-6.6-22.5-7.7c-1.5-0.9-3-1.7-4.5-2.6
				c-1.5-2.2-3.7-2.7-6.2-2.8c-1.2-0.8-2.4-1.5-3.5-2.3c-9.3-5.6-19.1-10.8-22.2-22.5c-0.4-1-0.7-2-1.1-3c0.6-2.1-0.1-3.8-1.5-5.3
				c-0.4-1.1-0.7-2.1-1.1-3.2c0.6-2.6-0.1-4.7-2.1-6.4c0-0.4-0.2-0.7-0.5-1c0.7-5.2-1.5-9.5-4.5-13.6c-0.4-1.5-0.7-2.9-1.1-4.4
				c0.6-1.6,0.6-3.1-1.2-4c-0.2-0.5-0.5-1-0.7-1.5c0.8-1.6,0.5-3.1-0.6-4.5c0.6-0.4,1.3-0.7,1.9-1.1c0.6,0.6,1.2,0.6,1.9,0
				c0.5,0.2,1.1,0.4,1.6,0.6c1.9,2.2,4.3,2.9,7.2,2.1c0.3,0.3,0.6,0.4,1.1,0.4c0.7,0.2,1.4,0.3,2.1,0.5c0.3,0.3,0.7,0.5,1.1,0.5
				c0.7,0.2,1.4,0.3,2.1,0.5c0.3,0.3,0.7,0.4,1.2,0.3c2.1,2.1,4.6,2.8,7.5,2c1.7,1.4,3.7,1.8,5.9,1.6c0.2,0.9,0.7,0.8,1.4,0.4
				c0.5,0.2,1,0.4,1.5,0.7c1.3,1.9,3.1,2,5.1,1.3c3.2,1,6.4,2,9.6,3.1c0.7,0.1,1.4,0.3,2.1,0.4c0.3,0.3,0.7,0.5,1.2,0.4
				c1.1,1.6,2.6,1.6,4.2,0.9c0.8,0.4,1.5,0.7,2.3,1.1c0.5,0.8,1.1,0.8,1.8,0.4c0.5,0.2,1.1,0.3,1.6,0.5c0.4,0.8,0.9,0.8,1.6,0.3
				c0,0,0.1,0,0.1,0c0.8,0.3,1.5,0.5,2.3,0.8c2,0.5,4.1,1.1,6.1,1.6C192,726.9,192.8,727.1,193.6,727.3z"/>
			<path class="st3" d="M64.9,683.3c-0.7-0.3-1.4-0.7-2.1-1c-2.4-2.1-5.2-2.8-8.4-2.2c-0.5-0.2-0.9-0.4-1.4-0.6
				c-5.3-2.4-7.9-7.1-10.6-11.9c-6.4-11.5-11.4-23.7-16.6-35.8c0-0.4-0.1-0.7-0.4-0.9c0.9-2.6-0.6-4.8-1.3-7.2
				c-3.6-13-5.6-26.2-6.4-39.7c-0.2-4.1,1-5.4,5.2-4.2c14.1,4.1,28.3,8,42.4,12c3.4,1,5.5,3.2,6.6,6.5c1,2.8,2.3,5.4,3.5,8.2
				c0,0.4,0.1,0.7,0.5,1c0.1,6.2,2.5,11.6,5.3,16.9c0.5,1.4,1,2.8,1.4,4.2c-0.6,2.8,0.2,5.2,2.1,7.4c0,0.5,0.1,0.9,0.5,1.2
				c0,3.6,1.2,6.8,3.4,9.6c0,0,0-0.1,0-0.1c0.1,0.7,0.3,1.4,0.4,2c0,0.4,0.2,0.8,0.5,1c0.2,0.7,0.5,1.3,0.7,2
				c0.1,0.5,0.3,0.9,0.6,1.2c0.1,0.7,0.3,1.4,0.4,2.1c0.4,1,0.8,2.1,1.1,3.1c-0.5,2-0.4,3.8,1.4,5.2c0.4,0.7,0.7,1.4,1.1,2.2
				c0.2,0.8,0.3,1.6,0.5,2.4c0.7,2,1.4,4.1,2.1,6.1c0.2,0.7,0.4,1.4,0.6,2.1c0,0,0.1,0.1,0.1,0.1c-0.4,1.2,0,2.2,1,3
				c0.6,1.4,1.2,2.8,1.8,4.2c0.2,0.7,0.4,1.4,0.5,2.1c0,0.4,0.1,0.8,0.4,1.1c-0.6,2.4-0.6,5.2-3.8,6c-0.2-0.3-0.6-0.5-1-0.5
				c-0.8-0.2-1.5-0.3-2.3-0.5c-0.3-0.3-0.6-0.4-1.1-0.4c-0.7-0.2-1.4-0.4-2.1-0.5c-2.3-1.7-4.9-1.9-7.6-2.3
				c-1.1-1.6-2.6-1.5-4.2-0.9c-1.4-0.6-2.8-1.1-4.2-1.7c0,0-0.2-0.5-0.2-0.5l-0.5,0.3c-1.3-0.4-2.6-0.7-3.8-1.1
				C69.3,683,67.2,682.7,64.9,683.3z"/>
			<path class="st3" d="M385,727.5c-1.4,1.4-2.9,2.8-4.3,4.2c-4.4,1.1-6.5,4.8-9,8.1c-1.1,1-2.2,1.9-3.3,2.9
				c-3.2,2.4-6.4,4.7-9.5,7.2c-7.8,6.5-8.5,6.1-11.6-3.3c-4.9-15.1-9-30.4-15.2-45.1c-0.4-0.7-0.7-1.3-1.1-2
				c0.4-2.9-0.4-5.4-2.3-7.5c0.3-1.3-0.2-2.3-1.1-3.2c0.5-1.3,0-2.3-1-3.2l0,0c0.5-3.2-0.6-5.9-2.6-8.3c-0.4-1.1-0.7-2.3-1.1-3.4
				c0.3-2.4-0.7-4.4-2.2-6.2c0-0.8-0.1-1.6-0.1-2.3c7.5,0.2,14,4.9,21.6,4.5c1,0.3,1.9,0.7,2.9,1c1.2,0.3,2.3,0.6,3.5,0.9
				c1.5,0.5,2.9,1,4.4,1.5c0.7,0.1,1.3,0.2,2,0.3c0.9,0.4,1.8,0.7,2.7,1.1c1,1.4,2.3,1.5,3.7,0.9c0.4,0.3,0.8,0.5,1.3,0.5
				c5.2,3,10.9,4.6,16.9,4.7c0.3,0.4,0.7,0.5,1.1,0.5c9,2.8,17.9,5.8,26.9,8.4c9,2.6,9.3,3.4,2.8,10.6c-7,7.8-14.2,15.4-21.2,23.1
				c-1.1,1-2.2,2-3.2,2.9C385.8,726.8,385.4,727.2,385,727.5z"/>
			<path class="st3" d="M65.9,436.4c1-1.1,2-2.3,2.9-3.4c6.5-5.8,11-13.2,15.7-20.3c0.7-0.7,1.3-1.5,2-2.2c0.3-0.4,0.7-0.8,1-1.1
				c0.7-0.7,1.3-1.4,2-2.2c0.7-0.8,1.4-1.5,2.2-2.3c1.7-1.8,3.3-3.6,5-5.4c8.5-7.2,8.5-7.2,12.5,3.2c3.4,8.7,5,18.1,9.5,26.5
				c0,0.3,0.1,0.6,0.4,0.8c-0.2,4,1.2,7.5,3.3,10.7c0,0.4,0.1,0.7,0.4,1c0.1,4.8,1.5,9.2,4.4,13c0.9,3.1,1.9,6.1,2.8,9.2
				c0.6,5.3,1.5,10.5,4.8,14.9l0.1,0.1c0.5,8.9,0.6,8.4-8.3,5.9c-10.3-2.9-20.3-7.4-31.2-8l-0.2,0c-2.5-2.2-5.4-2.9-8.6-2.6
				c-1.3-0.4-2.6-0.8-4-1.2c-3.7-2.2-7.7-3.5-12.1-3.2c-0.8-0.3-1.6-0.7-2.4-1c-3.2-3.3-8-2-11.7-4.1c-2.2-1.2-5.9-0.7-5.5-4.8
				c0.5-0.8,1.1-1.6,1.6-2.4c1.9-2.5,4.4-4.7,4.8-8.1c0.5-0.8,1.1-1.6,1.6-2.4C62.4,443.9,64.4,440.3,65.9,436.4z"/>
			<path class="st3" d="M173.4,329.1c0.7-0.7,1.5-1.3,2.2-2c3.3-2.1,6.7-4,9.8-6.3c10.1-7.4,10-7.5,15.7,3.7c0,0.4,0.2,0.7,0.5,1
				c2.6,14.3,8,27.7,13.2,41.2c0.4,2.6,0.8,5.3,2.6,7.4c0.2,0.7,0.4,1.5,0.6,2.2c-0.2,1.6,0.5,2.9,1.5,4.1c0.2,3.8,0.9,7.4,3.2,10.6
				c0,0.4,0.2,0.8,0.5,1.1c0.2,0.7,0.3,1.4,0.5,2.2c0.2,1.1,0.5,2.1,0.7,3.2c-3.2,0.9-6.1-2-9.3-0.9l0,0c-12.6-5.6-26.1-8-39.2-11.9
				c-11.4-3.3-22.5-7.8-34.5-9.1c-1.1-0.3-2.1-0.7-3.2-1c-0.9-1-1.9-1.4-3.2-0.8c0,0-0.1,0-0.1,0c-1.6-2-4.8-1.3-6.2-3.9
				c4.3-6.4,12.2-9.3,16.3-15.9c1.8-1.7,3.6-3.4,5.4-5.2C158.6,342.8,166.7,336.7,173.4,329.1z"/>
			<path class="st3" d="M457.7,645.2c-1.6,1.9-3.3,3.7-4.9,5.6c-6.2,4-8.1,12.2-14.8,16.1c-1.9-3.2-3.5-5.9-5.1-8.7
				c-0.3-0.9-0.6-1.9-0.9-2.8c0.6-1.7,0.5-3.2-1.1-4.3c0-0.5-0.2-0.8-0.6-1.1c0-4.3-1.4-8.2-3.9-11.6l0-0.1c0.3-0.6,0.4-1.1-0.5-1.3
				c0-1.8-0.1-3.6-1.4-5c-2-10.7-5.4-20.9-9.9-30.7l0,0.1c-0.2-0.7-0.4-1.3-0.6-2c-0.3-3.6-2-6.6-3.4-9.8c0.5-1.2,0.1-2.2-0.9-2.9
				c0.1-0.4-0.1-0.8-0.3-1.1c-0.2-0.8-0.4-1.5-0.6-2.3c0.1-2.3-0.6-4.5-2-6.3c0-0.7-0.1-1.4-0.1-2.1c0.3-0.2,0.6-0.5,0.8-0.8
				c6.7,2,13.1,5,20.3,5.1c0,0,0,0,0,0c1.2,1,2.6,1.8,4.3,1.5c1,0.8,2,1.2,3.3,0.8c17,6.5,34.7,10.7,52.3,15.2c0,0,0,0,0,0
				c2.2,2.2,1.8,4.4,0,6.6c-2.6,3.4-5.3,6.6-7.6,10.2C473.2,624.6,463.6,633.5,457.7,645.2z"/>
			<path class="st3" d="M299.2,757.6c0.3,0.4,0.7,0.6,1.2,0.6c2.1,2.2,4.8,1.7,7.4,1.9c0.3,0.3,0.6,0.4,0.9,0.3
				c5.9,3.3,12.6,4.3,18.9,6.4c1.3,0.4,3.4,0.1,3.3,2.1c0,0.9-1.4,1.9-2.4,2.5c-8.1,4.7-16.3,9.2-24.5,13.8
				c-2.5,0.3-4.5,1.6-6.3,3.2c-6.6,0.3-12.4,3.2-18.2,6l0.1,0.4c0,0-0.1-0.4-0.1-0.4c-2.8-1-5.1,0.3-7.4,1.7c0,0,0,0,0,0
				c-7.9,0.8-15.8,1.4-23.5,3.8c-0.7-0.7-1.4-1.4-2.1-2c0.5-1.7,0.3-3.2-1.3-4.2c0-0.4-0.2-0.8-0.5-1.1c-0.2-0.7-0.3-1.4-0.5-2.1
				c0-0.4-0.1-0.8-0.4-1.1c-0.6-6-2-11.7-5.5-16.8c-0.1-1.7-0.7-3.2-1.9-4.5c0.4-0.7,0.4-1.3-0.4-1.7c0.5-1.8-0.3-3.1-1.3-4.4
				c-0.2-0.7-0.3-1.5-0.5-2.2c0.4-1.7-0.6-2.9-1.5-4.1c0.5-1.7,0.4-3.1-1.3-4.1c0-0.5-0.2-1-0.5-1.4c0.4-1.3,0-2.4-1-3.3
				c-0.3-1-0.6-2-1-3c0.3-1.3-0.1-2.4-0.9-3.4c0.2-0.4,0.3-0.8,0.1-1.2c1.2-0.3,2.4-0.5,3.6-0.8c0,0,0,0,0,0c0.9,1,1.9,1.4,3.2,0.8
				c0,0,0,0,0,0c3.7,2,7.5,3.6,11.8,3.4c0.4,0.3,0.8,0.4,1.2,0.4c0.6,0.2,1.3,0.3,1.9,0.5c2.5,0.8,5.1,1.6,7.6,2.5
				c11.4,4.1,22.9,8,35.1,9.5c0.3,0.3,0.8,0.5,1.2,0.5C295.4,758,297.3,758,299.2,757.6z"/>
			<path class="st3" d="M57.5,551.3c-0.3,1.3,0.2,2.3,1.1,3.1c-0.4,1.3-0.1,2.4,1,3.3c1,3.5,1,7.4,3.6,10.4c-1,4.6,3.1,8.3,2.4,13.6
				c-15.4-3-30.1-8.2-45.1-12.4c-3.1-0.9-2.7-3.6-2.7-6.2c0.1-13.2,4.4-25.8,5.6-38.9c0.2-1,0.4-2.1,0.6-3.1c2.3-4,4-8.2,4.1-12.9
				c0,0,0,0,0,0c1.4-1.6,2.3-3.3,1.9-5.5c0.7-1.7,1.3-3.5,2-5.2c2.2-1.2,1.7-5.5,4.6-5.1c3,0.4,2.1,4.1,2.9,6.3
				c4,10.4,5.9,21.5,11.1,31.5c0,2.7,1.4,5,2.6,7.2c-0.7,1.7-0.6,3.1,1.1,4.2c0.3,1.2,0.7,2.3,1,3.5C55,547.5,56,549.5,57.5,551.3z"
				/>
			<path class="st3" d="M499.4,507.4c-0.4-6-3-11.4-4.6-17.1c-0.6-2.1-1.8-5.4,2.1-4.3c14.3,3.9,28.8,7,42.3,13.3
				c-0.2,0.3-0.2,0.6-0.1,0.9c-5.5,14.4-9.7,29.2-16.6,43c-1.6,3.3-2.7,8.4-5.8,8.9c-3.8,0.5-2.8-5.6-5.3-7.8c0-0.3-0.1-0.6-0.4-0.8
				c0.6-1.7,0.6-3.2-1.2-4.2c-0.4-0.7-0.8-1.4-1.2-2.1c0.7-6.4-2.8-11.6-4.9-17.2c0-2.3-0.6-4.3-2.1-6.1c0.3-2.1,0-3.9-1.7-5.4
				C499.8,507.9,499.7,507.6,499.4,507.4z"/>
			<path class="st3" d="M122.7,752.1c0.1,0.8,0.2,1.6,0.3,2.4c-2.2-0.7-4.4-1.5-6.7-2.2c-2.5-2.4-5.1-4.8-7.6-7.2
				c-12.3-11.8-24.7-23.6-37-35.4c-1.4-1.4-2.8-2.9-4.1-4.3c-2.2-5.6-6.7-9.7-9.8-15.2c5-0.1,8.6,3.3,13,1.9
				c2.1,1.9,4.8,2.1,7.4,2.2c1.5,1.7,3.2,2.1,5.3,1.4c1.4,0.6,2.9,1.1,4.3,1.7c0.7,0.1,1.4,0.3,2.1,0.4c1.6,0.4,3.2,0.8,4.8,1.2
				c0.3,0.9,0.9,0.8,1.5,0.5c1.6,0.5,3.3,1,4.9,1.5c0.3,0.8,0.9,0.8,1.5,0.4c1,0.5,1.9,0.9,2.9,1.4c0.7,0.9,1.4,1.7,2.1,2.5
				c0.4,0.8,0.8,1.6,1.2,2.4c0.2,0.7,0.3,1.5,0.5,2.2c0.5,1.4,1.1,2.7,1.6,4.1c-0.7,1.6-0.5,3.1,1.1,4.1c0.8,2.5,0,5.6,2.4,7.6
				c-1.1,2.3,0.2,3.9,1.9,5.2c1.6,6.5,3.3,12.9,6.1,19.1C122.4,750.6,122.5,751.3,122.7,752.1z"/>
			<path class="st3" d="M522.6,366.2c0.5,2.1,0.2,3.6-2.5,2.8c-22.8-6.5-45.6-13.1-68.5-19.6c-2.7-0.8-3.4-2.7-4.1-4.8
				c-7.8-23.5-15.7-47-23.3-70.5c-0.5-1.6-3.4-5.3,2.1-4.6c38.5,24.1,70.3,54.9,94.1,93.7C521,364.2,521.8,365.2,522.6,366.2z"/>
			<path class="st3" d="M354.4,416.6c-0.6-1.4-1.1-2.7-1.7-4.1c0.6-2.1,0-4-1.2-5.7c0-0.4-0.1-0.6-0.4-0.8c-0.2-0.8-0.4-1.6-0.7-2.4
				c-0.4-0.7-0.7-1.4-1.1-2.1c-2.1-12.6-7.5-24.2-11.1-36.4c-3.7-12.4-7.8-24.8-11.8-37.1c-1.4-4.1-0.8-5.6,3.9-4.2
				c22.6,6.8,45.5,12.6,67.9,20.5c12.6,4.4,25.9,7.2,38.9,10.3c3.4,0.8,5.1,2.5,6.1,5.6c11.2,34.8,22.6,69.6,33.8,104.4
				c0.6,1.8,2.2,3.9,0.3,5.5c-1.7,1.4-3.8,0-5.7-0.6c-33.8-9.8-67.7-19.6-101.5-29.3c-2.1-0.6-4.2-1.8-6.5-0.8c-1-1-2-2-3-3
				c0.6-3.2-0.4-5.9-2.4-8.4c0.3-1.3-0.3-2.2-1.1-3.1c0.2-2.4-0.3-4.6-2.1-6.4c0,0,0,0.1,0,0.1C355.4,417.7,355.2,417.1,354.4,416.6
				z"/>
			<path class="st3" d="M312.6,432.3c1.9,1.4,4,1.7,6.3,1.8c3.3,1.9,6.9,3,10.8,2.9c0.2,0.2,0.5,0.3,0.8,0.3
				c3.8,2.1,7.5,4.2,12.1,3.4c0.7,0.3,1.5,0.6,2.2,1c1.1,1.5,2.6,1.6,4.2,1c1,0.3,1.9,0.6,2.9,0.9c1.6,1.2,3.2,2.3,4.8,3.5
				c-0.4,1.3,0,2.3,0.9,3.2c3.8,15.5,8.3,30.7,14.9,45.3c-0.1,0.4,0,0.8,0.4,1.2c0.2,0.7,0.3,1.4,0.5,2.1c0.4,0.7,0.7,1.4,1.1,2
				c-0.4,1.7-0.3,3.2,1.1,4.4c0.3,0.7,0.7,1.3,1,2c1.2,10.1,4.3,19.7,9.1,28.7c0,0.4,0.1,0.7,0.4,0.9c-0.8,1.6-0.6,3.1,0.9,4.2
				c0.1,0.5,0.3,0.9,0.6,1.2c0.3,1.1,0.6,2.3,0.9,3.4c0.4,1,0.7,1.9,1.1,2.9c0.2,0.7,0.4,1.4,0.6,2.1c0.4,0.7,0.7,1.4,1.1,2
				c0.3,0.8,0.5,1.6,0.8,2.4c0.2,1.4,0.4,2.8,0.5,4.3c-0.8,0.5-1.7,1-2.5,1.6c-1-0.2-2-0.5-3-0.7c-0.9-0.9-2-1.2-3.2-0.7
				c-2.8-2.4-6.4-2.4-9.8-3c-0.7-0.2-1.4-0.3-2.2-0.5c-0.3-0.3-0.6-0.5-1.1-0.5c-1.4-1.7-3.1-2.6-5.3-1.5c-1-0.3-2-0.6-3-1
				c-2.2-1.3-4.4-3.1-7.3-1.9c0,0-0.6-0.2-0.6-0.2c-1.9-2.6-4.4-3-7.3-2.2c-0.9-0.3-1.9-0.6-2.8-0.9c-1.1-0.9-2.2-1.2-3.6-0.8
				c-1-0.4-2-0.7-3-1.1c-2.3-1.3-4.5-2.9-7.4-2.2c-1.2-0.4-2.5-0.7-3.7-1.1c-1.1-1.5-2.6-1.5-4.2-0.9c-1.7-1.3-3.6-1.9-5.7-2
				c-0.4-0.8-0.9-0.8-1.5-0.3c0,0-0.1,0-0.1,0c-5.5-2.5-10.9-5.3-17.2-4.8c-3.6-1.1-7.1-2.2-10.7-3.3c-0.7-0.2-1.4-0.3-2.1-0.5
				c-1.4-1.1-3-1.3-4.7-1.2c-0.5-0.2-1.1-0.3-1.6-0.5c-0.4-0.4-0.8-0.6-1.3-0.6c-4.3-4.6-4.2-11.2-7.6-16.1c0-0.4-0.1-0.7-0.4-1
				c0.6-1.6,0.5-3.1-1.1-4c-0.4-0.7-0.7-1.5-1.1-2.2c1.1-2.9-0.2-5.3-2-7.4c-0.5-1.4-1-2.9-1.5-4.3c0.3-2,0-3.9-1.7-5.3
				c-0.3-1.1-0.7-2.2-1-3.3c1-2.7-0.6-4.5-2.1-6.3c0,0,0,0,0,0c-1.6-11.1-6.6-21.3-9.6-32c-3.2-11-6.9-21.8-10.7-33.4
				c2.8,0,5.1,0,7.4,0.1c0.3,0.2,0.6,0.3,0.9,0.1c2.3,1.5,4.7,2.7,7.6,2.4c0,0,0.1,0,0.1,0c0.7,0.1,1.4,0.3,2.2,0.4c1,0.3,2,0.7,3,1
				c0.9,0.8,2,1.2,3.2,0.8c1.1,0.3,2.2,0.7,3.2,1c0.8,0.1,1.6,0.3,2.3,0.4c0.2,0.3,0.5,0.4,0.9,0.4c12.7,5.3,26,8.7,39.4,11.4
				c0,0,0-0.1,0-0.1C310.1,432.3,311.2,432.6,312.6,432.3z"/>
			<path class="st3" d="M234.4,285.7c16.6-12.4,35.4-20.4,54.5-27.8c3.3-1.3,5.5-0.2,6.7,3.7c4.1,13.4,8.6,26.6,12.8,39.9
				c0.6,1.8,2,3.9,0.6,5.7c-1.6,2-3.7,0.5-5.6,0c-21.4-6.1-42.7-12.3-64.1-18.4C237.3,288.1,235.5,287.4,234.4,285.7L234.4,285.7z"
				/>
			<path class="st3" d="M234.4,285.6c-0.2,0.1-0.3,0.2-0.5,0.3C234.1,285.8,234.2,285.7,234.4,285.6
				C234.4,285.7,234.4,285.6,234.4,285.6z"/>
			<path class="st3" d="M165.5,549.9c-1.2-11-5.2-21.2-9.9-31.1c0,0,0,0,0,0c-0.1-0.6-0.2-1.2-0.4-1.9c0.3-1.3,0-2.4-1-3.3
				c0-3.6-1.5-6.6-3.3-9.6c0,0,0-0.1,0-0.1c2.8-3.1,5.9-0.9,8.8-0.3c5,1.1,9.7,3.3,14.9,3.1c1.3,0.5,2.5,0.9,3.8,1.4
				c0.3,0.9,0.8,0.8,1.4,0.3l0.2,0c21,8.2,43.1,12.5,64.5,19.3c4.7,1.5,9.2,4.2,14.4,3.2c6.1,2.2,11.5,5.1,13.2,12.1
				c0.3,0.7,0.7,1.4,1,2.1c1.5,8.8,4.1,17.2,8.1,25.2c0.3,0.7,0.6,1.4,0.9,2.1c-0.4,2.1,0.2,3.8,1.5,5.4c0,0,0.1,0.1,0.1,0.1
				c0.2,0.7,0.3,1.4,0.5,2.1c0,0.4,0.2,0.7,0.5,0.9c3.7,15.1,8.3,30,14.5,44.3c0.5,1.4,1,2.9,1.5,4.3c0.3,3.7,0.5,7.4,3.2,10.4
				c0.4,0.7,0.8,1.5,1.2,2.2c0.2,0.8,0.4,1.5,0.6,2.3c0,0,0,0,0,0c0.1,0.6,0.2,1.3,0.3,1.9c0,0.5,0.2,0.9,0.5,1.2
				c-0.1,3.6-3.6,1.6-5.1,3c-1.5-0.5-3-0.9-4.5-1.4c-0.5-0.8-1.1-0.8-1.9-0.3c-0.4-0.3-0.8-0.5-1.3-0.6c-1.3-1.7-3.1-2.2-5.1-1.5
				c0,0,0,0,0,0c-9-4.3-18.8-6-28.3-8.8c-18.8-5.5-37.8-10.5-56.7-16c-7.5-2.2-15.8-3.4-18.7-12.5c-0.5-1.4-0.5-3.2-2.1-4.1
				c1.8-3.1-0.2-5.8-1-8.5c-4.2-13.9-8.4-27.7-14-41.2c0.1-0.4-0.1-0.7-0.4-1c0.2-1.4-0.3-2.6-1.3-3.6
				C166,550.8,165.8,550.3,165.5,549.9z"/>
		</g>
	</g>
</g>
</svg>
