<svg version="1.1" id="prefix__Layer_1" xmlns="http://www.w3.org/2000/svg" x="0" y="0" viewBox="0 0 800 800" xml:space="preserve"><style>.prefix__st1{fill:#049147}.prefix__st3{fill:#f6d01a}</style><path d="M444.7 661.9c-44.8 50.1-107.8 112.4-162 129.4-72.9 22.9-137-13.9-187.4-59-42.8-38.3-79-88.8-70.9-176.5 8-86.6 48.7-118.3 102.5-178.4 54-60.4 127.4-110.4 192.3-122.1 61.3-11.1 114.4 13.4 157.1 51.6 46.1 41.3 72.8 103.2 64.3 171.2-7.7 61.5-45.9 128-95.9 183.8z" fill="#960"/><g id="prefix__jIkwPt_1_"><path class="prefix__st1" d="M430.8 269.9c-11-48.8-21.2-97.7-38.5-147.8 20.3 15.1 36.8 31.5 54.3 49.9-5.9-34.5-10.2-67.3-13-101.7 21.5 22.2 39.6 44.8 55.3 69.1 2.8 4.7 5.5 9.3 8.3 14 11.8 19.1 20.3 39.1 25.6 59.9 4.6 18.3 8 36.5 7.6 55 7.8-1.1 15.2-2.2 23.1-1.5 2.4.2 2.9-1.5 3.7-3.2 3.8-8.3 4.5-17.7 5.4-27 .4-4.2 1.9-6.5 6.3-6.4 11.6.4 23 .1 34.8 1.8 25.2 3.7 50 11.2 74.7 20.5 25 9.5 49.7 20.5 75.2 34.3-33.3 5.4-65.7 8.8-99.9 11.8 28.5 16.3 54.9 32.6 81.2 52.9-36.4-2-71.2-3.8-107.9-5.8 19.2 17.8 37.1 34.8 52.9 55.4-5.8-2-10.5-3.6-15.2-5.1-39.6-13.4-79.6-22.2-119.6-29.1-8.4-1.5-16.9-3.7-25.3-5.6-1.2-.4-2.4-.8-3.6-1.3-.7-.8-1.4-1.6-2-2.5-21.6-32-48.8-58.4-80.8-80-.2-2-.7-4-1.9-5.9v-.1c-.5-.5-.6-1-.7-1.6z"/><path d="M678.2 252.4c-24.7-9.3-49.5-16.8-74.7-20.5-11.8-1.7-23.2-1.5-34.8-1.8-4.5-.1-5.9 2.2-6.3 6.4-.9 9.3-1.6 18.7-5.4 27-.8 1.7-1.2 3.4-3.7 3.2-7.8-.7-15.2.5-23.1 1.5.3-18.5-3-36.7-7.6-55-5.3-20.8-13.8-40.7-25.6-59.9-2.8-4.6-5.5-9.3-8.3-14 3.5.5 2.1-2.3 2-3.9-1.4-29.6-2.1-59.1-2.2-88.5 0-2.1-.2-4.2 1.3-6.9 18.4 22.9 32.6 47.1 46.1 73.2 12.1-41 30.2-77.3 52.2-112 1.6 7.5 3.2 14.9 4.7 22.4 6.6 35.1 10.9 70 10.5 104.5 0 1.5.4 3.1.6 4.6-2.6 4.3-1.6 9.8-2.3 14.7-2.6 17.3-6.2 34.3-11 50.8-.4 1.3-1.7 2.7.2 4.1 1.5 1.1 2.8-.2 4.1-.7 14.5-5.6 29.3-10.4 44.8-14 7-1.6 15-.6 21.2-4.2 2.6 1.7 5 .7 7.4.5 39.1-2.1 79 1.2 119.2 7.6.5.1 1.1.3 2.2.7-3.6 4.6-8.8 6.8-13.3 9.6-30.1 18.4-61.1 35.5-95 48.1-1.3.6-3.2.4-3.2 2.5z" fill="#3bb44b"/><path class="prefix__st1" d="M660.9 183.5c-6.2 3.6-14.2 2.6-21.2 4.2-15.5 3.6-30.3 8.3-44.8 14-1.3.5-2.6 1.8-4.1.7-1.9-1.3-.5-2.7-.2-4.1 4.7-16.5 8.3-33.4 11-50.8.7-4.9-.3-10.4 2.3-14.7 23.3-24.4 53.2-39.8 85.3-51.9 7.6-2.9 15.5-5.2 24.9-8.3-10.3 42.6-25.1 80.7-53.2 110.9z"/><path class="prefix__st3" d="M431.1 676.6c-.7 1.1-1.4 2.2-2.2 3.3-1.9 1.1-3.2 2.6-4.2 4.6-.8.3-1.5.7-2.3 1-11.9-5.3-24.7-7.7-37.1-11.3-8.3-2.4-16.4-5.9-25.1-6.5-.3-.3-.7-.4-1.1-.3-3.6-2.2-7.3-3.9-11.7-3.3-1.5-.5-3-1.1-4.5-1.6-.5-.7-1.1-.8-1.8-.2-1.1-.3-2.2-.6-3.3-.8-1.4-1.7-3.3-2-5.3-1.6-1.3-.9-2.6-1.8-4.3-1.4-.7-.1-1.4-.2-2.1-.4-1.4-1.1-2.9-1.6-4.7-1.4-.5-.1-1-.1-1.5-.2-1.2-1.1-2.4-2.2-3.5-3.3-1.1-6.8-3.3-13.1-6.6-19.1.2-2.4-.7-4.4-2-6.3-.2-.7-.3-1.3-.5-2-.3-.7-.6-1.4-.9-2.2-3.1-14.2-7.7-28-13.3-41.4.3-1.3-.3-2.3-1.2-3.1.6-2 .2-3.8-1.5-5.1-.6-2.6-.8-5.3-2.5-7.5-.3-3.7-.6-7.4-3.2-10.5-.3-.7-.7-1.5-1-2.2 1.6-5.7-5.4-10.2-2.2-16.2h.1c1.2 1.3 2.8 1.4 4.4 1 2.8 1.8 5.8 2.7 9.1 2.4.2.8.7.8 1.2.3 1.2.5 2.3.9 3.5 1.4 2.4 2.3 5.4 2.6 8.6 2.3.3.3.7.5 1.1.6.8 1 1.7 1.5 2.9.8l5.4 1.5c.8.2 1.6.3 2.4.5 3.2 2.2 6.8 3.1 10.6 3.1.7.1 1.4.3 2.1.4 1.3 1 2.5 2.1 4.3 1.6.7.2 1.4.3 2.1.5.3.3.7.5 1.1.5 5.5 2.1 10.8 5.3 17 4.6 3.9 2.3 8.3 3.1 12.7 3.7 1.3 1.4 2.8 1.5 4.5.9 5.2 3 11.1 4.1 16.8 5.4 1 .9 2.1 1.1 3.3.7.7.7 1.5 1.4 2.2 2-.3 1.3.1 2.4 1.2 3.2v.1c-.3 2.5.6 4.5 2.3 6.2 1.7 5.3 3.3 10.6 5 15.8l.6 2.1c1.4 5.1 2.1 10.4 5.3 14.8-.5 2.4-.5 4.6 1.7 6.3 0 .5.2.9.5 1.2 0 5.4 2.2 10.2 4.7 14.8.5 1.9 1.1 3.8 1.6 5.6-.6.5-.6.9.2 1.1l1.8 3.6c-.6 2.9.4 5.3 2.4 7.4 0 .4.1.8.4 1.1.3 7.8 3.8 14.5 6.5 21.5zM135.2 381.1c1.4.4 2.7.9 4.1 1.3 2.3 1 4.5 2.2 6.8 2.9 20.8 6.1 41.4 13.3 62.6 17.6 16.3 3.2 22.5 12.3 26.3 27.1 3.5 13.6 7 27.5 13.7 40.2.1.5.3.9.6 1.2.1.7.2 1.4.4 2 .3 1.1.5 2.2.8 3.3 0 1.2.3 2.3 1.4 3.1-.1.4.1.7.3 1 2.2 12.6 6.8 24.4 11.5 36.2.3 1 .7 2 1 3-.8 3.2-3.4 3.4-6 3.7-.2-.3-.5-.4-.8-.4-1.9-1.4-4-2.4-6.5-2-.8-.2-1.6-.3-2.3-.5-.2-.3-.5-.5-.9-.5-13.5-5.3-27.5-9-41.8-11.8-.2-.3-.5-.4-.9-.3-4.4-2.3-9-4-14-4l-2.1-.9c-10.8-4-21.8-7.3-33.2-9.2-1-.3-2-.6-3.1-.9-.9-.9-2-1.3-3.2-.8-1.4-1.4-2.9-2.8-4.3-4.1.7-2 .2-3.7-1.5-5.1 0-.4-.2-.8-.5-1.1-.1-.7-.3-1.4-.4-2.2 0-.4-.1-.7-.4-1-.4-5-2-9.5-4.7-13.6l-.2-.6c.7-4.7-2-8.3-3.7-12.3v-.1c.5-.6.5-1.2-.3-1.6 0-1.8-.5-3.4-1.7-4.7.3-2.5-.6-4.5-2.2-6.3.1-3-.5-5.9-2.4-8.4-.6-1.5-1.3-2.9-1.9-4.4.9-3.2-1-5.8-1.8-8.6-3.5-11.6-7.3-23.1-10.9-34.7v-.1c4.3-7.6 11.2-3.4 17.1-3.7.2.3.5.4.9.3 1.1 1.2 2.6 1.4 4.2 1zM219.4 294c.5-.3.9-.6 1.4-.8 6.2.5 11.9 3.9 18.2 3.8.2.3.5.4.9.3.9 1 2 1.3 3.2 1 1.1.3 2.1.7 3.2 1 2.1.8 4.1 1.8 6.2 2.5 18.2 5.3 36.4 10.6 54.7 15.6 4.8 1.3 7.6 3.5 9.2 8.5 5.5 17.9 11.1 35.7 17.3 53.3 5.1 14.5 8.1 29.8 14.9 43.7-.1.4.1.7.4 1-.1 2 .4 3.9 1.8 5.4.2.8.4 1.7.6 2.5-3.1 3.1-6.4 1.3-9.8.5-7.6-1.9-14.8-5.8-22.9-5.7-.2-.3-.5-.5-.9-.4-2.3-1.5-4.7-2.6-7.6-2.4-1.1-.3-2.2-.6-3.4-.9-1.5-1.5-3.3-1.8-5.2-1.2-1.1-.4-2.1-.8-3.2-1.1-.8-.2-1.6-.3-2.3-.5-.2-.3-.5-.5-.9-.4-12.8-5.1-25.9-8.8-39.5-11.4v.1c-.9-1-2-1.3-3.4-1-1.9-1.5-4-2-6.3-1.8-3.4-2.1-7.2-2.8-11.1-3.4-.6-1.2-1.3-2.3-1.9-3.5.4-2.2-.3-4-1.7-5.6-.4-1-.8-2-1.2-2.9l-.6-2.1c.5-1.8-.5-3-1.6-4.2-.2-.7-.4-1.5-.5-2.2.3-1.6-.5-2.9-1.4-4.1.6-2.9-.3-5.3-2.2-7.4l-.9-2.1c.3-1.7.2-3.2-1.3-4.3v-.2c.7-1.3.2-2.2-.9-3 0-.4-.2-.8-.6-1.1-.2-7.3-3-13.7-6.3-20.1l-.9-2.1c-.2-5-1.3-9.7-4.4-13.8.5-3.2-.8-5.8-2.5-8.4 0-.4-.1-.7-.4-1-2.5-6-.7-10 5.1-13.1 3.2-1.9 6.8-3.6 8.7-7zM507.6 556.2c-.1.3.1.6.4.7 3.9 9.9-2.8 17-6.5 24.9-3.2 6.9-7.5 9.5-15 5.9-4-1.9-8.6-2.7-12.9-3.8-15.6-4.2-30.9-9.9-47-12.6-1.1-.3-2.2-.7-3.3-1-.8-1.1-1.9-1.1-3.1-.8-1.1-.3-2.3-.7-3.4-1-2.5-1.8-5.2-3.1-8.4-2.1-5.5-2.3-6.1-8.2-9.1-12.4-.3-.7-.7-1.4-1-2.2-3.9-18.2-10.6-35.5-16.8-52.9-.4-.7-.8-1.4-1.2-2 .6-1.7.2-3.1-1.1-4.3-.3-.7-.6-1.5-.9-2.2-1.2-14.1-9.4-26.5-11.5-41.3 4 .9 7.2 1.5 10.2 2.4 33.2 9.4 66.3 19 99.5 28.4 4.1 1.1 6.3 3.4 7.6 7.3 1.7 5.4 2.9 11.1 6.1 16 0 .4.2.7.5 1 .2.7.4 1.5.5 2.2-.1.4.1.7.3 1 4 16.7 9.5 32.9 16.1 48.8zM83.4 588.3c-2.5-1.4-5.7-1.6-7.5-4.2.4-1.3 0-2.4-.9-3.3-.5-1.3-1-2.7-1.5-4-.2-.8-.3-1.6-.5-2.4-.4-1-.7-2-1.1-3-.2-4.3-1.5-8.2-4-11.6v-.1c.4-.6.4-1.1-.5-1.3 0-1.8-.1-3.6-1.4-5-.5-6.5-3-12.3-5.9-17.9l-1.2-4.2c-3.2-13.5-7.3-26.7-13.1-39.2.9-3.1-.8-5.9-1.9-8.5-2.2-5.4-1.4-9.6 3.5-12.8 1.1.9 2.4.9 3.7.6l4.8 1.5c4.3 2.7 9.1 3.7 14 4l2.1.9c13 4.3 25.9 8.8 39.5 11.1.9.8 1.9 1.4 3.2 1.1 3.4 1.9 7 3 10.9 2.8l.3.3h.4c.8.2 1.7.3 2.5.5.8.9 1.7 1.2 2.8.5 7.4 2.8 11 8.6 12.9 16 1.1 4.5 2 9.1 4.9 13 3.2 14.5 8.4 28.3 13.6 42.2 0 .4.1.8.4 1 3.2 16.2 10.7 31.2 14.4 47.3-5.3.6-9-3.3-13.6-2.4-1.6-.4-3.1-.8-4.7-1.2-2.2-1.9-4.8-2.3-7.6-2.1l-2.1-.9c-3.6-2.1-7.4-3.7-11.7-3.2-.8-.1-1.6-.3-2.3-.4-1.2-1-2.4-1.8-4.1-1.4-2.2-1.8-4.8-2.5-7.6-2.1-.7-.3-1.3-.6-2-1-3.4-1.8-6.9-3.3-10.8-2.7-1.3-.9-2.6-1.6-4.2-1.1-.8-1.1-1.8-1.4-3.1-1.1-1.1-.3-2.2-.7-3.3-1-.7-.1-1.5-.3-2.2-.4-1.4-.5-2.9-1-4.3-1.5-.7-.1-1.4-.3-2.1-.4-.3-.3-.7-.5-1.2-.5-2.1-1.8-4.7-2.4-7.5-1.9zM226.3 729.2c-1-1.1-2-2.2-3.1-3.3-.2-.6-.3-1.3-.5-1.9.4-1.3 0-2.4-1-3.3-2.4-12.3-7.4-23.8-11-35.7-5.1-16.7-10.8-33.3-16.1-49.9-.6-1.8-1.9-4.2-.4-5.6 1.5-1.4 3.8 0 5.6.5 14.9 4.3 29.7 8.8 44.6 12.9 15.2 4.1 29.8 10 45.5 12.2 2.3 1.6 5 1.9 7.7 2 .6.1 1.2.2 1.9.4 1 .4 2.1.7 3.1 1.1.9.9 2 1.4 3.3.9 2.2 2.1 4.3 4.1 6.5 6.2-.1.3 0 .6.3.8-.3 1.1-.6 2.1.7 2.7.5 1.2 1 2.4 1.5 3.7.2.8.5 1.6.7 2.4-.1.3 0 .6.3.8-.3 1.6-.3 3.1 1.2 4.3.7 3.7 1.8 7.3 3.7 10.5-1.1 2.9.2 5.3 2 7.4-.4 1.7.5 3 1.5 4.3.2 1.5.2 3 .7 4.4 5 15.9 10.1 31.8 15.3 47.6 1.1 3.4 1.6 5.8-2.9 6.4l-3.3-.9c-8.9-3.8-18-7-27.7-8-.7-.2-1.3-.4-2-.6-1.9-1.5-4-2.6-6.5-1.8h.1c-.9-.9-2-1.3-3.3-1-.3-.3-.7-.5-1.2-.5-3.6-2.1-7.3-3.6-11.6-3.2-1.1-.3-2.2-.5-3.3-.8-1.8-1.4-3.7-2.5-6.2-1.9-2.4-.2-4.2-2.6-6.8-1.9-.6-.2-1.3-.4-1.9-.6-5.4-1.6-10.8-3.1-16.1-4.7-.7-.1-1.3-.2-2-.3-.4-.3-.8-.5-1.2-.5-5.6-3.3-11.7-4.7-18.1-5.1zM110.5 603.6c1.8.5 3.6 1.1 5.4 1.6 2.1 2 4.7 2.4 7.5 2.2.7.3 1.5.5 2.2.8.5.7 1.1.8 1.9.3 1.5 1.6 3.4 2 5.4 1.4.9.4 1.7.7 2.6 1.1.4.8.9.8 1.5.4h.1c.7.2 1.5.3 2.2.5 1.5.5 2.9.9 4.4 1.4.7.2 1.3.3 2 .5 1 .3 2 .7 3 1 .9.9 2 1.4 3.3.9 1.6.5 3.2.9 4.8 1.4.4.9.9.7 1.5.3 1.8.5 3.5 1 5.3 1.6 2.4 2.6 5.9 3 8.9 3.5 7.5 1.1 10.7 5.6 12.7 12.5 3.5 12.5 7.5 24.9 11.8 37.1 5.8 16.2 9.4 33 16.5 48.7.7 6.3-3.4 3.3-5.6 2.6-18.5-5.2-37-10.5-55.5-15.8-11.3-3.2-22.5-6.6-33.9-9.6-4.5-1.2-6.7-4-7.8-8.1-3.5-12.7-8-25-13.2-37.2 1.4-5.3-1.4-9.4-3.6-13.7 0-.4-.2-.7-.5-.9.5-4-1.4-7.2-3.2-10.5l-.9-2.1c.6-3.4-1.2-6.1-2.8-8.8-.3-1-.7-1.9-1-2.9 1-2.3-.1-4-1.9-5.3v-.1c.7-1.9.5-3.7-1.2-5 0-.5-.2-.9-.5-1.2.4-1.3-.1-2.4-1-3.4.2-.4.3-.8.2-1.3l3.6-.9c3.4 1.8 6.8 3.7 10.8 2.7.7.3 1.5.7 2.2 1 1.3 1.8 3.1 2.1 5.1 1.4 1 .8 2 1.2 3.3.8 1.3 1.2 2.8 1.5 4.4 1.1zM303.5 260c-1.4-5 .2-7.7 5.7-8.1 2.2-.2 4.3-1.3 6.4-2l.1-.2c2.2 1 3.8 0 5.2-1.5 1.5 1.1 2.9 1.1 4.3-.2.7-.1 1.4-.1 2-.2 9.6-.2 19.2.2 28.7-1.1l.1-.5v.5c5 .8 9.8 3.2 15.1 2 1 .1 2 .2 3.1.3 9.7 3.2 19.3 6.5 29 9.6 5.8 1.8 8.7 5.6 10.6 11.4 7.2 22.8 14.8 45.5 22.3 68.3.6 1.9 1.1 3.8 1.8 6.3-7.8.1-14.3-3.2-21-5.2-29.6-8.5-59.1-17.5-88.9-25.5-7.4-2-8.3-6.9-9.9-12.2-4.3-13.7-8.3-27.4-14-40.7-.2-.3-.3-.7-.6-1zM543.2 483.2c-2 3.6-4.4 5.5-9 4.1-13.1-4-26.3-7.7-39.5-11.5-4-1.1-6.2-3.5-7.4-7.5-9.8-32.3-22.3-63.8-30.9-96.5-1-3.9-5.5-8.9-2.7-11.4 3-2.7 8.3 1.1 12.6 2.3 15.4 4.2 30.5 9.4 46.1 12.5.3.2.6.3.9.2 3 1.6 6.2 3 9.7 2.9 5.9 1.7 8.4 6.6 11.2 11.4l.1.1c1.1 8.8 4.2 17.1 7.6 25.2 0 .4.1.7.4 1-.7 1.6-.7 3.1.6 4.4-.1.4 0 .7.3.9.2 5.8-.5 11.6 2.3 17.1 0 0 0 .2.1.2-1.6 7.6-.4 15.3-.9 22.9-.4 5.8-2.7 11.7-.5 17.6-.3 1.3-.7 2.7-1 4.1zM193.6 727.3c5.3 2.8 11.2 4 17 5 .7.2 1.4.3 2.1.5.3.3.7.4 1.1.4 3.9 2.4 4.5 7.1 6.9 10.4.4.8.8 1.6 1.3 2.4.2.7.4 1.4.5 2.1 0 .4.2.8.5 1.1-.1 2.6-.2 5.3 2 7.3.4.7.8 1.5 1.2 2.2-.8 2.2-.1 4 1.6 5.4-.4.8-.3 1.4.5 1.9-.4 1.8.5 3.1 1.6 4.4.1 4.2.7 8.3 3.6 11.7-.8 3.8 1.8 6.5 3.2 9.5-.6 3.2 2.9 8.2-3.8 8.7h-2.3c-1.3-1.3-2.7-1.3-4.2-.2-12.1-2.7-24.4-4.4-36.4-8.1-7.6-2.4-14.5-6.6-22.5-7.7-1.5-.9-3-1.7-4.5-2.6-1.5-2.2-3.7-2.7-6.2-2.8-1.2-.8-2.4-1.5-3.5-2.3-9.3-5.6-19.1-10.8-22.2-22.5-.4-1-.7-2-1.1-3 .6-2.1-.1-3.8-1.5-5.3-.4-1.1-.7-2.1-1.1-3.2.6-2.6-.1-4.7-2.1-6.4 0-.4-.2-.7-.5-1 .7-5.2-1.5-9.5-4.5-13.6-.4-1.5-.7-2.9-1.1-4.4.6-1.6.6-3.1-1.2-4-.2-.5-.5-1-.7-1.5.8-1.6.5-3.1-.6-4.5.6-.4 1.3-.7 1.9-1.1.6.6 1.2.6 1.9 0 .5.2 1.1.4 1.6.6 1.9 2.2 4.3 2.9 7.2 2.1.3.3.6.4 1.1.4.7.2 1.4.3 2.1.5.3.3.7.5 1.1.5.7.2 1.4.3 2.1.5.3.3.7.4 1.2.3 2.1 2.1 4.6 2.8 7.5 2 1.7 1.4 3.7 1.8 5.9 1.6.2.9.7.8 1.4.4.5.2 1 .4 1.5.7 1.3 1.9 3.1 2 5.1 1.3 3.2 1 6.4 2 9.6 3.1.7.1 1.4.3 2.1.4.3.3.7.5 1.2.4 1.1 1.6 2.6 1.6 4.2.9.8.4 1.5.7 2.3 1.1.5.8 1.1.8 1.8.4.5.2 1.1.3 1.6.5.4.8.9.8 1.6.3h.1c.8.3 1.5.5 2.3.8 2 .5 4.1 1.1 6.1 1.6.8.4 1.6.6 2.4.8zM64.9 683.3c-.7-.3-1.4-.7-2.1-1-2.4-2.1-5.2-2.8-8.4-2.2-.5-.2-.9-.4-1.4-.6-5.3-2.4-7.9-7.1-10.6-11.9-6.4-11.5-11.4-23.7-16.6-35.8 0-.4-.1-.7-.4-.9.9-2.6-.6-4.8-1.3-7.2-3.6-13-5.6-26.2-6.4-39.7-.2-4.1 1-5.4 5.2-4.2 14.1 4.1 28.3 8 42.4 12 3.4 1 5.5 3.2 6.6 6.5 1 2.8 2.3 5.4 3.5 8.2 0 .4.1.7.5 1 .1 6.2 2.5 11.6 5.3 16.9.5 1.4 1 2.8 1.4 4.2-.6 2.8.2 5.2 2.1 7.4 0 .5.1.9.5 1.2 0 3.6 1.2 6.8 3.4 9.6v-.1c.1.7.3 1.4.4 2 0 .4.2.8.5 1 .2.7.5 1.3.7 2 .1.5.3.9.6 1.2.1.7.3 1.4.4 2.1.4 1 .8 2.1 1.1 3.1-.5 2-.4 3.8 1.4 5.2.4.7.7 1.4 1.1 2.2.2.8.3 1.6.5 2.4.7 2 1.4 4.1 2.1 6.1l.6 2.1.1.1c-.4 1.2 0 2.2 1 3l1.8 4.2c.2.7.4 1.4.5 2.1 0 .4.1.8.4 1.1-.6 2.4-.6 5.2-3.8 6-.2-.3-.6-.5-1-.5-.8-.2-1.5-.3-2.3-.5-.3-.3-.6-.4-1.1-.4-.7-.2-1.4-.4-2.1-.5-2.3-1.7-4.9-1.9-7.6-2.3-1.1-1.6-2.6-1.5-4.2-.9-1.4-.6-2.8-1.1-4.2-1.7l-.2-.5-.5.3c-1.3-.4-2.6-.7-3.8-1.1-1.7-1.5-3.8-1.8-6.1-1.2zM385 727.5c-1.4 1.4-2.9 2.8-4.3 4.2-4.4 1.1-6.5 4.8-9 8.1-1.1 1-2.2 1.9-3.3 2.9-3.2 2.4-6.4 4.7-9.5 7.2-7.8 6.5-8.5 6.1-11.6-3.3-4.9-15.1-9-30.4-15.2-45.1-.4-.7-.7-1.3-1.1-2 .4-2.9-.4-5.4-2.3-7.5.3-1.3-.2-2.3-1.1-3.2.5-1.3 0-2.3-1-3.2.5-3.2-.6-5.9-2.6-8.3-.4-1.1-.7-2.3-1.1-3.4.3-2.4-.7-4.4-2.2-6.2 0-.8-.1-1.6-.1-2.3 7.5.2 14 4.9 21.6 4.5 1 .3 1.9.7 2.9 1 1.2.3 2.3.6 3.5.9 1.5.5 2.9 1 4.4 1.5.7.1 1.3.2 2 .3.9.4 1.8.7 2.7 1.1 1 1.4 2.3 1.5 3.7.9.4.3.8.5 1.3.5 5.2 3 10.9 4.6 16.9 4.7.3.4.7.5 1.1.5 9 2.8 17.9 5.8 26.9 8.4 9 2.6 9.3 3.4 2.8 10.6-7 7.8-14.2 15.4-21.2 23.1-1.1 1-2.2 2-3.2 2.9-.2.5-.6.9-1 1.2zM65.9 436.4c1-1.1 2-2.3 2.9-3.4 6.5-5.8 11-13.2 15.7-20.3.7-.7 1.3-1.5 2-2.2.3-.4.7-.8 1-1.1.7-.7 1.3-1.4 2-2.2.7-.8 1.4-1.5 2.2-2.3 1.7-1.8 3.3-3.6 5-5.4 8.5-7.2 8.5-7.2 12.5 3.2 3.4 8.7 5 18.1 9.5 26.5 0 .3.1.6.4.8-.2 4 1.2 7.5 3.3 10.7 0 .4.1.7.4 1 .1 4.8 1.5 9.2 4.4 13 .9 3.1 1.9 6.1 2.8 9.2.6 5.3 1.5 10.5 4.8 14.9l.1.1c.5 8.9.6 8.4-8.3 5.9-10.3-2.9-20.3-7.4-31.2-8h-.2c-2.5-2.2-5.4-2.9-8.6-2.6-1.3-.4-2.6-.8-4-1.2-3.7-2.2-7.7-3.5-12.1-3.2-.8-.3-1.6-.7-2.4-1-3.2-3.3-8-2-11.7-4.1-2.2-1.2-5.9-.7-5.5-4.8.5-.8 1.1-1.6 1.6-2.4 1.9-2.5 4.4-4.7 4.8-8.1.5-.8 1.1-1.6 1.6-2.4 3.5-3.1 5.5-6.7 7-10.6zM173.4 329.1c.7-.7 1.5-1.3 2.2-2 3.3-2.1 6.7-4 9.8-6.3 10.1-7.4 10-7.5 15.7 3.7 0 .4.2.7.5 1 2.6 14.3 8 27.7 13.2 41.2.4 2.6.8 5.3 2.6 7.4.2.7.4 1.5.6 2.2-.2 1.6.5 2.9 1.5 4.1.2 3.8.9 7.4 3.2 10.6 0 .4.2.8.5 1.1.2.7.3 1.4.5 2.2.2 1.1.5 2.1.7 3.2-3.2.9-6.1-2-9.3-.9-12.6-5.6-26.1-8-39.2-11.9-11.4-3.3-22.5-7.8-34.5-9.1-1.1-.3-2.1-.7-3.2-1-.9-1-1.9-1.4-3.2-.8h-.1c-1.6-2-4.8-1.3-6.2-3.9 4.3-6.4 12.2-9.3 16.3-15.9 1.8-1.7 3.6-3.4 5.4-5.2 8.2-6 16.3-12.1 23-19.7zM457.7 645.2c-1.6 1.9-3.3 3.7-4.9 5.6-6.2 4-8.1 12.2-14.8 16.1-1.9-3.2-3.5-5.9-5.1-8.7-.3-.9-.6-1.9-.9-2.8.6-1.7.5-3.2-1.1-4.3 0-.5-.2-.8-.6-1.1 0-4.3-1.4-8.2-3.9-11.6v-.1c.3-.6.4-1.1-.5-1.3 0-1.8-.1-3.6-1.4-5-2-10.7-5.4-20.9-9.9-30.7v.1c-.2-.7-.4-1.3-.6-2-.3-3.6-2-6.6-3.4-9.8.5-1.2.1-2.2-.9-2.9.1-.4-.1-.8-.3-1.1-.2-.8-.4-1.5-.6-2.3.1-2.3-.6-4.5-2-6.3 0-.7-.1-1.4-.1-2.1.3-.2.6-.5.8-.8 6.7 2 13.1 5 20.3 5.1 1.2 1 2.6 1.8 4.3 1.5 1 .8 2 1.2 3.3.8 17 6.5 34.7 10.7 52.3 15.2 2.2 2.2 1.8 4.4 0 6.6-2.6 3.4-5.3 6.6-7.6 10.2-6.9 11.1-16.5 20-22.4 31.7zM299.2 757.6c.3.4.7.6 1.2.6 2.1 2.2 4.8 1.7 7.4 1.9.3.3.6.4.9.3 5.9 3.3 12.6 4.3 18.9 6.4 1.3.4 3.4.1 3.3 2.1 0 .9-1.4 1.9-2.4 2.5-8.1 4.7-16.3 9.2-24.5 13.8-2.5.3-4.5 1.6-6.3 3.2-6.6.3-12.4 3.2-18.2 6l.1.4-.1-.4c-2.8-1-5.1.3-7.4 1.7-7.9.8-15.8 1.4-23.5 3.8-.7-.7-1.4-1.4-2.1-2 .5-1.7.3-3.2-1.3-4.2 0-.4-.2-.8-.5-1.1-.2-.7-.3-1.4-.5-2.1 0-.4-.1-.8-.4-1.1-.6-6-2-11.7-5.5-16.8-.1-1.7-.7-3.2-1.9-4.5.4-.7.4-1.3-.4-1.7.5-1.8-.3-3.1-1.3-4.4-.2-.7-.3-1.5-.5-2.2.4-1.7-.6-2.9-1.5-4.1.5-1.7.4-3.1-1.3-4.1 0-.5-.2-1-.5-1.4.4-1.3 0-2.4-1-3.3-.3-1-.6-2-1-3 .3-1.3-.1-2.4-.9-3.4.2-.4.3-.8.1-1.2 1.2-.3 2.4-.5 3.6-.8.9 1 1.9 1.4 3.2.8 3.7 2 7.5 3.6 11.8 3.4.4.3.8.4 1.2.4.6.2 1.3.3 1.9.5 2.5.8 5.1 1.6 7.6 2.5 11.4 4.1 22.9 8 35.1 9.5.3.3.8.5 1.2.5 1.7 1.9 3.6 1.9 5.5 1.5zM57.5 551.3c-.3 1.3.2 2.3 1.1 3.1-.4 1.3-.1 2.4 1 3.3 1 3.5 1 7.4 3.6 10.4-1 4.6 3.1 8.3 2.4 13.6-15.4-3-30.1-8.2-45.1-12.4-3.1-.9-2.7-3.6-2.7-6.2.1-13.2 4.4-25.8 5.6-38.9.2-1 .4-2.1.6-3.1 2.3-4 4-8.2 4.1-12.9 1.4-1.6 2.3-3.3 1.9-5.5.7-1.7 1.3-3.5 2-5.2 2.2-1.2 1.7-5.5 4.6-5.1 3 .4 2.1 4.1 2.9 6.3 4 10.4 5.9 21.5 11.1 31.5 0 2.7 1.4 5 2.6 7.2-.7 1.7-.6 3.1 1.1 4.2.3 1.2.7 2.3 1 3.5-.3 2.4.7 4.4 2.2 6.2zM499.4 507.4c-.4-6-3-11.4-4.6-17.1-.6-2.1-1.8-5.4 2.1-4.3 14.3 3.9 28.8 7 42.3 13.3-.2.3-.2.6-.1.9-5.5 14.4-9.7 29.2-16.6 43-1.6 3.3-2.7 8.4-5.8 8.9-3.8.5-2.8-5.6-5.3-7.8 0-.3-.1-.6-.4-.8.6-1.7.6-3.2-1.2-4.2l-1.2-2.1c.7-6.4-2.8-11.6-4.9-17.2 0-2.3-.6-4.3-2.1-6.1.3-2.1 0-3.9-1.7-5.4-.1-.6-.2-.9-.5-1.1zM122.7 752.1l.3 2.4c-2.2-.7-4.4-1.5-6.7-2.2-2.5-2.4-5.1-4.8-7.6-7.2-12.3-11.8-24.7-23.6-37-35.4-1.4-1.4-2.8-2.9-4.1-4.3-2.2-5.6-6.7-9.7-9.8-15.2 5-.1 8.6 3.3 13 1.9 2.1 1.9 4.8 2.1 7.4 2.2 1.5 1.7 3.2 2.1 5.3 1.4 1.4.6 2.9 1.1 4.3 1.7.7.1 1.4.3 2.1.4l4.8 1.2c.3.9.9.8 1.5.5 1.6.5 3.3 1 4.9 1.5.3.8.9.8 1.5.4 1 .5 1.9.9 2.9 1.4.7.9 1.4 1.7 2.1 2.5l1.2 2.4c.2.7.3 1.5.5 2.2.5 1.4 1.1 2.7 1.6 4.1-.7 1.6-.5 3.1 1.1 4.1.8 2.5 0 5.6 2.4 7.6-1.1 2.3.2 3.9 1.9 5.2 1.6 6.5 3.3 12.9 6.1 19.1 0 .6.1 1.3.3 2.1zM522.6 366.2c.5 2.1.2 3.6-2.5 2.8-22.8-6.5-45.6-13.1-68.5-19.6-2.7-.8-3.4-2.7-4.1-4.8-7.8-23.5-15.7-47-23.3-70.5-.5-1.6-3.4-5.3 2.1-4.6 38.5 24.1 70.3 54.9 94.1 93.7.6 1 1.4 2 2.2 3zM354.4 416.6c-.6-1.4-1.1-2.7-1.7-4.1.6-2.1 0-4-1.2-5.7 0-.4-.1-.6-.4-.8-.2-.8-.4-1.6-.7-2.4-.4-.7-.7-1.4-1.1-2.1-2.1-12.6-7.5-24.2-11.1-36.4-3.7-12.4-7.8-24.8-11.8-37.1-1.4-4.1-.8-5.6 3.9-4.2 22.6 6.8 45.5 12.6 67.9 20.5 12.6 4.4 25.9 7.2 38.9 10.3 3.4.8 5.1 2.5 6.1 5.6 11.2 34.8 22.6 69.6 33.8 104.4.6 1.8 2.2 3.9.3 5.5-1.7 1.4-3.8 0-5.7-.6-33.8-9.8-67.7-19.6-101.5-29.3-2.1-.6-4.2-1.8-6.5-.8l-3-3c.6-3.2-.4-5.9-2.4-8.4.3-1.3-.3-2.2-1.1-3.1.2-2.4-.3-4.6-2.1-6.4v.1c.4-.9.2-1.5-.6-2zM312.6 432.3c1.9 1.4 4 1.7 6.3 1.8 3.3 1.9 6.9 3 10.8 2.9.2.2.5.3.8.3 3.8 2.1 7.5 4.2 12.1 3.4.7.3 1.5.6 2.2 1 1.1 1.5 2.6 1.6 4.2 1 1 .3 1.9.6 2.9.9 1.6 1.2 3.2 2.3 4.8 3.5-.4 1.3 0 2.3.9 3.2 3.8 15.5 8.3 30.7 14.9 45.3-.1.4 0 .8.4 1.2.2.7.3 1.4.5 2.1.4.7.7 1.4 1.1 2-.4 1.7-.3 3.2 1.1 4.4.3.7.7 1.3 1 2 1.2 10.1 4.3 19.7 9.1 28.7 0 .4.1.7.4.9-.8 1.6-.6 3.1.9 4.2.1.5.3.9.6 1.2.3 1.1.6 2.3.9 3.4.4 1 .7 1.9 1.1 2.9l.6 2.1c.4.7.7 1.4 1.1 2 .3.8.5 1.6.8 2.4.2 1.4.4 2.8.5 4.3-.8.5-1.7 1-2.5 1.6-1-.2-2-.5-3-.7-.9-.9-2-1.2-3.2-.7-2.8-2.4-6.4-2.4-9.8-3-.7-.2-1.4-.3-2.2-.5-.3-.3-.6-.5-1.1-.5-1.4-1.7-3.1-2.6-5.3-1.5-1-.3-2-.6-3-1-2.2-1.3-4.4-3.1-7.3-1.9l-.6-.2c-1.9-2.6-4.4-3-7.3-2.2-.9-.3-1.9-.6-2.8-.9-1.1-.9-2.2-1.2-3.6-.8-1-.4-2-.7-3-1.1-2.3-1.3-4.5-2.9-7.4-2.2-1.2-.4-2.5-.7-3.7-1.1-1.1-1.5-2.6-1.5-4.2-.9-1.7-1.3-3.6-1.9-5.7-2-.4-.8-.9-.8-1.5-.3h-.1c-5.5-2.5-10.9-5.3-17.2-4.8-3.6-1.1-7.1-2.2-10.7-3.3-.7-.2-1.4-.3-2.1-.5-1.4-1.1-3-1.3-4.7-1.2-.5-.2-1.1-.3-1.6-.5-.4-.4-.8-.6-1.3-.6-4.3-4.6-4.2-11.2-7.6-16.1 0-.4-.1-.7-.4-1 .6-1.6.5-3.1-1.1-4-.4-.7-.7-1.5-1.1-2.2 1.1-2.9-.2-5.3-2-7.4-.5-1.4-1-2.9-1.5-4.3.3-2 0-3.9-1.7-5.3-.3-1.1-.7-2.2-1-3.3 1-2.7-.6-4.5-2.1-6.3-1.6-11.1-6.6-21.3-9.6-32-3.2-11-6.9-21.8-10.7-33.4 2.8 0 5.1 0 7.4.1.3.2.6.3.9.1 2.3 1.5 4.7 2.7 7.6 2.4h.1c.7.1 1.4.3 2.2.4 1 .3 2 .7 3 1 .9.8 2 1.2 3.2.8 1.1.3 2.2.7 3.2 1 .8.1 1.6.3 2.3.4.2.3.5.4.9.4 12.7 5.3 26 8.7 39.4 11.4v-.1c1 1.1 2.1 1.4 3.5 1.1zM234.4 285.7c16.6-12.4 35.4-20.4 54.5-27.8 3.3-1.3 5.5-.2 6.7 3.7 4.1 13.4 8.6 26.6 12.8 39.9.6 1.8 2 3.9.6 5.7-1.6 2-3.7.5-5.6 0-21.4-6.1-42.7-12.3-64.1-18.4-2-.7-3.8-1.4-4.9-3.1zM234.4 285.6c-.2.1-.3.2-.5.3.2-.1.3-.2.5-.3 0 .1 0 0 0 0zM165.5 549.9c-1.2-11-5.2-21.2-9.9-31.1-.1-.6-.2-1.2-.4-1.9.3-1.3 0-2.4-1-3.3 0-3.6-1.5-6.6-3.3-9.6v-.1c2.8-3.1 5.9-.9 8.8-.3 5 1.1 9.7 3.3 14.9 3.1 1.3.5 2.5.9 3.8 1.4.3.9.8.8 1.4.3h.2c21 8.2 43.1 12.5 64.5 19.3 4.7 1.5 9.2 4.2 14.4 3.2 6.1 2.2 11.5 5.1 13.2 12.1.3.7.7 1.4 1 2.1 1.5 8.8 4.1 17.2 8.1 25.2l.9 2.1c-.4 2.1.2 3.8 1.5 5.4l.1.1c.2.7.3 1.4.5 2.1 0 .4.2.7.5.9 3.7 15.1 8.3 30 14.5 44.3.5 1.4 1 2.9 1.5 4.3.3 3.7.5 7.4 3.2 10.4.4.7.8 1.5 1.2 2.2.2.8.4 1.5.6 2.3.1.6.2 1.3.3 1.9 0 .5.2.9.5 1.2-.1 3.6-3.6 1.6-5.1 3-1.5-.5-3-.9-4.5-1.4-.5-.8-1.1-.8-1.9-.3-.4-.3-.8-.5-1.3-.6-1.3-1.7-3.1-2.2-5.1-1.5-9-4.3-18.8-6-28.3-8.8-18.8-5.5-37.8-10.5-56.7-16-7.5-2.2-15.8-3.4-18.7-12.5-.5-1.4-.5-3.2-2.1-4.1 1.8-3.1-.2-5.8-1-8.5-4.2-13.9-8.4-27.7-14-41.2.1-.4-.1-.7-.4-1 .2-1.4-.3-2.6-1.3-3.6-.1-.2-.3-.7-.6-1.1z"/></g></svg>