<?xml version="1.0" encoding="utf-8"?>
<!-- Generator: Adobe Illustrator 24.2.3, SVG Export Plug-In . SVG Version: 6.00 Build 0)  -->
<svg version="1.1" id="Layer_1" xmlns="http://www.w3.org/2000/svg" xmlns:xlink="http://www.w3.org/1999/xlink" x="0px" y="0px"
	 viewBox="0 0 100 100" style="enable-background:new 0 0 100 100;" xml:space="preserve">
<style type="text/css">
	.st0{fill:#009933;stroke:#000000;stroke-width:1.9332;stroke-miterlimit:10;}
	.st1{fill:#663333;stroke:#000000;stroke-width:1.9332;stroke-miterlimit:10;}
	.st2{fill:#DD0000;stroke:#000000;stroke-width:1.9332;stroke-miterlimit:10;}
</style>
<g>
	<path class="st0" d="M35.4,2.4c-7.8-0.7-15.9,1-22.8,4.5c-1.2,0.6-1.3,2.5,0,3.1c5.7,2.6,11.8,2.1,17.9,2.3
		c3.3,0.1,6.7,0.5,9.9,1.1c2.5,0.5,5.1,1.1,6.9,3c0.8,0.8,2.3,0.7,2.8-0.4c0.3-0.6,0.5-1.3,0.5-1.9c0.9,0,1.8-0.6,1.8-1.8
		C52,4.7,41.2,3,35.4,2.4z"/>
	<g id="Stem">
		<g>
			<g>
				<path class="st1" d="M50.1,24.8c0.7-4.3,3.3-8,6-11.4c0.7-0.9,1.4-1.7,2.1-2.5c0.7-0.8,1.2-1.1,2-1.4c2-0.6,4.3-0.4,6.6-1.2
					c1.4-0.5,2.3-1.8,1.8-3.3c-0.4-1.3-1.9-2.4-3.3-1.8c-1.3,0.5-2,0.5-3.2,0.7c-1.4,0.1-2.7,0.3-4,0.8c-2.6,1-4.3,3-5.9,5.1
					c-3.3,4.1-6.5,8.5-7.3,13.8c-0.2,1.4,0.4,2.9,1.8,3.3C48.1,27.1,49.9,26.3,50.1,24.8L50.1,24.8z"/>
			</g>
		</g>
	</g>
	<g id="Apple_Body">
		<path class="st2" d="M95.4,48.2c0,26.6-15.2,49-45.4,48.1C25,95.6,4.6,74.8,4.6,48.2C4.6,28.9,19,14.7,34,17
			c5.6,0.9,9.2,3.6,16,3.6c5.9,0,8.9-2.8,14.2-3.6C81.5,14.6,95.4,27.9,95.4,48.2z"/>
	</g>
</g>
</svg>
