<svg xmlns="http://www.w3.org/2000/svg" viewBox="0 0 100 100"><path d="M35.4 2.4c-7.8-.7-15.9 1-22.8 4.5-1.2.6-1.3 2.5 0 3.1 5.7 2.6 11.8 2.1 17.9 2.3 3.3.1 6.7.5 9.9 1.1 2.5.5 5.1 1.1 6.9 3 .8.8 2.3.7 2.8-.4.3-.6.5-1.3.5-1.9.9 0 1.8-.6 1.8-1.8-.4-7.6-11.2-9.3-17-9.9z" fill="#093" stroke="#000" stroke-width="1.933" stroke-miterlimit="10"/><path d="M50.1 24.8c.7-4.3 3.3-8 6-11.4.7-.9 1.4-1.7 2.1-2.5.7-.8 1.2-1.1 2-1.4 2-.6 4.3-.4 6.6-1.2 1.4-.5 2.3-1.8 1.8-3.3-.4-1.3-1.9-2.4-3.3-1.8-1.3.5-2 .5-3.2.7-1.4.1-2.7.3-4 .8-2.6 1-4.3 3-5.9 5.1-3.3 4.1-6.5 8.5-7.3 13.8-.2 1.4.4 2.9 1.8 3.3 1.4.2 3.2-.6 3.4-2.1h0z" fill="#633" stroke="#000" stroke-width="1.933" stroke-miterlimit="10"/><path d="M95.4 48.2c0 26.6-15.2 49-45.4 48.1-25-.7-45.4-21.5-45.4-48.1C4.6 28.9 19 14.7 34 17c5.6.9 9.2 3.6 16 3.6 5.9 0 8.9-2.8 14.2-3.6 17.3-2.4 31.2 10.9 31.2 31.2z" fill="#d00" stroke="#000" stroke-width="1.933" stroke-miterlimit="10"/></svg>