<?xml version="1.0" encoding="utf-8"?>
<!-- Generator: Adobe Illustrator 24.2.1, SVG Export Plug-In . SVG Version: 6.00 Build 0)  -->
<svg version="1.1" xmlns="http://www.w3.org/2000/svg" xmlns:xlink="http://www.w3.org/1999/xlink" x="0px" y="0px"
	 viewBox="0 0 100 100" style="enable-background:new 0 0 100 100;" xml:space="preserve">
<style type="text/css">
	.st0{fill:#009933;}
	.st1{fill:#663333;}
	.st2{fill:#DD0000;}
</style>
<g id="Leaf">
	<g>
		<g>
			<path class="st0" d="M52.4,11.1C52.1,3.2,40.9,1.4,34.9,0.8c-8.1-0.7-16.4,1-23.6,4.7c-1.2,0.6-1.3,2.6,0,3.2
				c5.9,2.7,12.2,2.2,18.5,2.4c3.4,0.1,6.9,0.5,10.2,1.1c2.6,0.5,5.3,1.1,7.1,3.1c0.8,0.8,2.4,0.7,2.9-0.4c1.5-3-0.1-6.2-2.8-7.8
				c-2.8-1.7-6.3-2.5-9.5-3.2c-6.8-1.5-14-1.5-20.5,1.1c-0.9,0.3-1.5,1.1-1.3,2c0.1,0.8,0.9,1.7,1.8,1.6C26,7.9,34.3,8.7,42.3,11
				c2.3,0.7,3.3-2.9,1-3.6c-8.3-2.4-17-3.2-25.6-2.5c0.2,1.2,0.3,2.4,0.5,3.6C23.4,6.5,29,6.1,34.5,7c2.7,0.4,5.4,1.1,8,2
				c1.4,0.5,5.4,1.8,4.3,4c1-0.1,1.9-0.2,2.9-0.4C47.7,10.6,45,9.6,42.2,9c-3.3-0.7-6.7-1.2-10.1-1.4c-6.3-0.4-13.2,0.6-19.1-2
				c0,1.1,0,2.1,0,3.2c6.2-3.2,13.2-4.7,20.1-4.3c3.4,0.2,6.8,0.8,10.1,1.9c2.2,0.7,5.4,2.2,5.5,4.9C48.8,13.5,52.5,13.5,52.4,11.1
				L52.4,11.1z"/>
		</g>
	</g>
</g>
<g id="Stem">
	<g>
		<g>
			<path class="st1" d="M50.1,24c0.7-4.5,3.4-8.3,6.2-11.8c0.7-0.9,1.4-1.8,2.2-2.6c0.7-0.8,1.2-1.1,2.1-1.4
				c2.1-0.6,4.5-0.4,6.8-1.2c1.4-0.5,2.4-1.9,1.9-3.4c-0.4-1.3-2-2.5-3.4-1.9c-1.3,0.5-2.1,0.5-3.3,0.7c-1.4,0.1-2.8,0.3-4.1,0.8
				c-2.7,1-4.4,3.1-6.1,5.3c-3.4,4.2-6.7,8.8-7.6,14.3c-0.2,1.5,0.4,3,1.9,3.4C48,26.3,49.9,25.5,50.1,24L50.1,24z"/>
		</g>
	</g>
</g>
<g id="Apple_Body">
	<path class="st2" d="M97,48.2C97,75.7,81.3,98.9,50,98C24.1,97.2,3,75.7,3,48.2c0-20,14.9-34.7,30.4-32.3c5.8,0.9,9.5,3.7,16.6,3.7
		c6.1,0,9.2-2.9,14.7-3.7C82.6,13.4,97,27.2,97,48.2z"/>
</g>
</svg>
