<svg xmlns="http://www.w3.org/2000/svg" viewBox="0 0 512 512"><path d="M279.004 146.236c-5.798 1.909-12.039 3.569-18.755 4.952 0 0-3.714-8.944-6.056-22.799-5.199-30.794-3.621-85.883 60.618-121.03a186.21 186.21 0 0112.194-6.076c8.346-3.786 18.074 1.176 19.972 10.141.825 3.92 1.64 8.418 2.311 13.349 4.932 36.962 1.053 97.984-70.284 121.463z" fill="#368b4c"/><path d="M254.194 128.389c-5.199-30.794-3.621-85.883 60.618-121.03.155.97.299 1.96.433 2.971 4.705 35.302 1.383 92.537-61.051 118.059z" fill="#3fa45a"/><g fill="#368b4c"><path d="M218.596 178.325a7.722 7.722 0 01-6.297-3.234L137.859 71.08a7.737 7.737 0 1112.583-9.006l74.44 104.011a7.737 7.737 0 01-6.286 12.24zM187.334 203.377c-51.901 88.39-128.84 55.718-160.263 37.004-7.871-4.694-9.429-15.495-3.157-22.17 5.272-5.612 10.543-10.564 15.794-14.907 63.466-52.572 123.826-17.342 142.055-4.25 3.611 2.602 5.571 4.323 5.571 4.323z"/></g><path d="M181.763 199.056c-49.662 50.498-110.982 23.831-138.186 7.624a14.112 14.112 0 01-3.869-3.373c63.466-52.574 123.827-17.344 142.055-4.251z" fill="#3fa45a"/><path d="M226.206 183.427c-84.82 57.554-140.291-4.983-160.634-35.385-5.096-7.613-1.857-18.033 6.675-21.375 6.448-2.527 12.668-4.56 18.662-6.159 70.543-18.858 109.961 22.809 126.271 47.073 6.158 9.16 9.026 15.846 9.026 15.846z" fill="#4cba68"/><path d="M217.179 167.581c-63.517 24.161-106.67-19.756-126.271-47.073 70.543-18.858 109.961 22.809 126.271 47.073z" fill="#64c37d"/><path d="M229.403 181.607c81.623-62.005 40.07-134.538 17.754-163.525-5.588-7.261-16.496-7.517-22.387-.499-4.454 5.304-8.365 10.549-11.795 15.719-40.393 60.83-13.493 111.489 4.294 134.691 6.715 8.761 12.134 13.614 12.134 13.614z" fill="#4cba68"/><path d="M217.269 167.993c43.176-52.479 15.336-107.394-4.294-134.691-40.394 60.829-13.493 111.488 4.294 134.691z" fill="#64c37d"/><path d="M470.144 464.585a71.912 71.912 0 01-3.931 8.862c-13.329 25.316-40.718 40.677-69.841 38.315-112.169-9.13-213.485-80.745-213.485-80.745-80.735-53.583-90.762-169.919-19.075-221.222l2.445-1.743 52.334-37.469 54.779-39.202c71.688-51.303 178.76-4.343 203.241 89.411 28.908 110.652 11.287 195.214-6.467 243.793z" fill="#c70024"/><path d="M470.144 464.585a71.912 71.912 0 01-3.931 8.862 72.232 72.232 0 01-39.666 8.14c-112.169-9.13-213.485-80.745-213.485-80.745-68.077-45.185-85.883-134.978-46.805-192.79l52.334-37.469 54.779-39.202c71.688-51.303 178.76-4.343 203.241 89.411 28.908 110.652 11.287 195.214-6.467 243.793z" fill="#ff0c38"/><ellipse transform="rotate(144.41 183.355 333.986)" cx="183.356" cy="333.987" rx="9.295" ry="16.738"/><ellipse transform="rotate(144.41 217.378 248.572)" cx="217.38" cy="248.573" rx="9.295" ry="16.738"/><ellipse transform="rotate(144.41 301 303.435)" cx="301.002" cy="303.436" rx="9.295" ry="16.738"/><ellipse transform="rotate(144.41 420.152 176.55)" cx="420.154" cy="176.55" rx="9.295" ry="16.738"/><ellipse transform="rotate(144.41 394.937 279.979)" cx="394.939" cy="279.98" rx="9.295" ry="16.738"/><ellipse transform="rotate(144.41 447.31 367.219)" cx="447.313" cy="367.22" rx="9.295" ry="16.738"/><ellipse transform="rotate(144.41 332.579 413.761)" cx="332.581" cy="413.763" rx="9.295" ry="16.738"/><ellipse transform="rotate(144.41 413.159 456.912)" cx="413.161" cy="456.914" rx="9.295" ry="16.738"/><ellipse transform="rotate(144.41 320.538 189.774)" cx="320.54" cy="189.774" rx="9.295" ry="16.738"/><ellipse transform="rotate(144.41 226.66 414.662)" cx="226.662" cy="414.664" rx="9.295" ry="16.738"/></svg>