<svg version="1.1" id="prefix__Layer_1" xmlns="http://www.w3.org/2000/svg" x="0" y="0" viewBox="0 0 500 500" xml:space="preserve"><style>.prefix__st0{fill:#415428}.prefix__st1{fill:#8da140}.prefix__st2{fill:#d8d273}</style><path d="M495.9 250.2C484.7 128.7 383.2 44.8 251.1 40.4 133.5 42 23.2 134.2 6.4 250.2c-12.7 273.5 489.7 276.5 489.5 0z" id="prefix__Layer_2_1_"/><g id="prefix__Layer_1_1_"><g id="prefix___x31_aaoTC_tif"><path class="prefix__st0" d="M433.6 114.2c20.6 21.6 36.7 47.8 46.9 75.8-2.1-.5-4.3 1.6-6.4 0-1.7-1.6-2.8 1.8-.9 2.1 1.1.2 1.8.8 2.3 1.8 1.1 1.8 4.5-1.1 6.7.1 54.3 134-58.6 266.6-195.9 266.9 2.2-6 4.4-1.6 7.4-4.5.7-3.2-6.8.2-8.2-.8-1.5-.6-2.3-.6-3 .6-.9 1.5-3.6 2-2.4 4.7-3.8.9-7.6.7-11.4.4-.6-1 1.4-3.5-1.6-3.2-.4 0-.6-.5-.3-.8 1.3-1.4-1-3.8 1.1-5 .4-1.9-5.4-.3-5.9.3-.2 1.3-1.7.9-1.3-.4 1-4.7-3.3-5.7-6.7-5-4.2-2-6.8 1-9.8 3-.3.2-.7.6-.7.8.9 4.3-4 2-5 4.5 0 1 .8 1.1 1.6 1.2.7.1 1.8 0 1.6 1-.9 2.1-5-.8-4.7 2.9-3.2-.3-6.3-.6-9.5-.9 1.9-.2 2.2-1.8 2.1-3.1-.9-1.6-5.3.4-5.4-2.7 0-3.8-5.3-1-4.9-4.6 1.1-3.9-3.6-.9-1.7 2.1 1.8 3.5-7.1 3.4-4.7.1 1.6-1.5 1.9 1.3 3 .8-1.5-6.2-4.2-.8-6.5-2.4-.4-.8.1-2.2.6-2.2 1.8 0 3.1-1.6 4.7-1.7 2.2.2 1.9-3.2-.3-2.6-.6.1-1.6.9-1.6 0 0-2.3-1.7-1.5-2.7-2-1.5-.9-3.3-.7-4.8-1.5.6-1.5 2.1-.9 3-1.9-1.4-1.1-2.2-2.2.4-2.5.7-.1 1.4-.6 1.3-1.6-.5-1.8-2.2-1.1-3.9-2 4.5-1 7.3-5.3 12.1-4.7-.8 1.6-2.9.6-3.3 2-.5 1.6-1.2 2.2-2.8 2-.5-.1-1.2 0-1.3.8.5 1.7 6.4 1.3 8.3 2.1 0 .8-.6 1.4-1.2 1.3-2.3-.6-3.1 1.5-4.9 2.4 1.2.6 2.2.7 3 .2 4.3-3 1.8 4.1 5.1 2.3 3.2-1.4-1-5.4 2.2-6.5.5-.2 1.3-.5 1-1.6-1.8.7-3.5 1.4-5.3 2.1.3-3.5 7.1-2.5 2.9-6.5-1.9-2-4.3-3.6-2.4-7.3 1.1-2.2-.8-3.9-2.6-5.1-1.5-1-1.7.9-2.9 1.4.2-1.1-1.6-2.1.1-2.9 1.6-.7 3.4-1.3 4.8.9.6.9 1.3 2.4 3 2.2.6 0 1.5 1.2.3 1.9-1.3.7-1.3 1.5-1.1 2.8.1 1-1.1 2.4 1 2.4 1.5 0 2.1-.7 1.6-2.2-.2-.7 0-1.2.7-1.2 2.3-.1 4.6-1.9 7-.5 2.8 1.3-.2-2.5 2.1-2.4 3.2.4.5 5.1 6.8 4.6 1.5 0 2.4-1.6 3.1-1.3 2.2 1.2 2.9-.3 4.1-1.6 1.2-1.2 2.8-2.1 1.2-4.1-.1-1.9 3.3-3.3.5-5.2-1.2-.9.7-2.4 1.5-1.4s1.9 2.6 3 1.2c.8-.6.6-3.8-.7-2.8-2.7 2.2-4.2-3.1-1.7-4.3 2.1 2.7 3.6 2.6 5.7-.5 1.7 6 6.3-5.9 8.9-7.6-1.6 4.9 3.4 9.3-1.1 8.7-1.3-.2-1.7 1.1-1.8 2.3 2.2.2 1.5 3.7 3.8 3.8-.1 0-.1-.1-.2-.1.3-.8-.8-2.4.9-2.5 1.6-.1 1.4 1.4 1.4 2.6-.6 2.6.4 6.3 3.3 6.9-1.9 2.1 0 4.5-.5 6.7-.5 2.1 1.6 5 3.5 5.1 3.4-.3-1 3 .8 4.6 2 1.1 3.7-2.7 6.1-1.8 1 .3 2.4 1.1 2.7-.1.6-1.9-1.9-.4-2.2-1.9 1.5-2.6 3.1 2.2 5.6-2.4 1.7-4.2 11.9-1.4 7.6-6.7 1.7.1 2.8-.4 3.6-1.7 3.7-3.9.9 3.7 5.8-1.3-1.8 3 .8 3.1 1.2 4.4.8 3.1 2.1 1.2 2.6.2 1.5-4 5.5-1.1 6.9-4 .2-.8.9-.8 2-.6 17.4 3.3 8.1-7.6 16.2-5.7 1.7.6 1.8 2.2 1.1 3.8-1.3 2 1.5 4 2.9 2.1.3-.3.5-1.8 1.2-.4 2.5 3.6 6-2.1 7.6-4 1.1-1.1 1.7-2.1 3.4-.8.9.7 3.5.7 3.5-.2 0-1.8 1.6-2.3 1.7-3.7 0-1.1.9-1.4 1.6-.7 4.3 5.2 9.7-6.1 12 .4.3.8.9 1.3 1.4.8 1.1-1 2.4-.8 3.7-1 1.3-.2 1.8-.9 1.6-2.5-.2-3.3-4.4 0-4.4-3 1.9-2.9 6.8 1.5 5.9 4.2-1.5 2.5 3.4 6.7-.6 6.7-.7 0-1.3.3-1.4 1.1-.1.4.1.8.5.9 2.3.6 5.2 4.3 7 .9 1.3-1.7 1.3-4.5 3.8-5.3.5-.2.5-1.3.2-1.9-.5-1.4-4 2.4-5.2 2.8.1-2.6-2.3-3.8.6-4.9 1-.5 2.1-2.3 3.3-.5 2.4 3.3 5.2-.5 7.3-2 .6 1 .3 1.7-.2 1.8-3 .7-.6 3.6-2 5-.2.2.4.5.7.6 4.6 1.8 3.1-4.7 6.7-5.3 1.3-.4 4.2.7 4.3-1.3-.1-1 .2-2.5-1.4-2.8-.5-.1-1.1-.4-1.6-.5s-1.2.5-1.2-.6c0-.5.4-1 .8-1 2.3-.3 4 1.2 5.8 2.3 1.4.9-.3 2-.2 3 7.1-1.2 1.7-4 3.2-6.8.7-.5.9-1.1.3-1.9-2-2 2.3-2.9 1-4.7-1.4-2-.4-2.6 1.2-3.6 2.3-1.3 3.5-6.5-.1-7-1.7-.7-2.6 1-3.3 2.1-1.9 2.7-4.5 3.8-7.5 4.4-5.1 1.1-3.5-7-8.8.5 3.8.6 4 6.8-.3 5.7-3.6-.7-7.6 4.9-10.3.6-.3-.5-.7-.4-1.2-.3-7.4 1-3.2-7.9-6.3-9.3-1.6-.4-1.1 4.8-4.3 2.2-1.2-.8-3.6 2.3-2.3 3.4 2.8 2.2-.2 6.2-3.3 5.4-3-1.1-1.8 3.3-5.3-.7.7 2.5.4 4.2 1.7 5.5 3.7 2.5-1.7 3.5-3.8 3.4 4.7-2.6 1.6-11.5-4.5-2.8 1.3-2.4-1.4-5.1.8-7.3.9-.9.2-1.8-.1-2.4-.7-1-1.3.1-1.8.5-1.8 1.3-3.4 2.9-5.6.8-.4-.4-1.7-.3-2.1.1-2.9 2.6-6.7 1.6-10 2.7-3.4 2.1-7.1-3.3-7.8.3-.9 6 4.2 1.8 4.7 3.8 0 1.7-2.4 1-3.5.9-5.2-.5-2 4.3-3.5 5.2-2-.3-2.8 1.8-4.4 2-1.1.1-1.8.4-2.1 1.5-.7 1.9 3.1 1.5 1.7 3.5-1.2 1.3-2.8-3-5.4-3.2 2.4-2.1 2.2-6.6 6.5-4.7 2 1.2 4.1-3.4 2.6-4.7-3.7-4.8-1.1 4.8-9.6 1-1.5-.5-1.6-.8-1.2-1.9 2.3-5.2-6.3-6.5-7.1-2.6-1.3 7.3-5.9-3.1-8.6 1.8-1.4-1.9-5.6-.1-5.6-2.7.3-.9 1.1-.7 1.7-.4 4 3.7 6.4-1.7 9.5-3.6.9-.5-.2-2.1.2-3.3.2-.7-.8-1.8-.7-2.7.1-1.3.2-2.4-1.4-2.9-1.3-.5-2.3-1.2-3.2.5-.2.3-1 .7-1.2.5-4-2.9-3.2 1.8-4.4 3.1-.5.5-.5 1.6-.7 2.4.2-2.4-2.2-2.9-2.6-4.3-1.2-5-8.8-1.9-7.1 2.4.4 3.5-5.1 1.2-6.9 4-5.5 5-6.5-5.6-4.7-9 1.4-4.5-5-3.2-3.7-6.5-.7-.6-2.6.2-3.7.1-.3-7.1-8.4 1.1-6.4-5.4 1.5-4.9-4.7-2.2-6.9-1.2-.6.2-1.3 1.3-1.7 0-.2-.6-.6-1.9 1-1.7.9.1 1.2-.4 1.2-1.2-.1-3.1 1.3-2.1 2.8-.6.7-3.3-2.3-3.1-1.1-4.3 2.7-1.4 2.2 4.5 5 3.7 1-.3 1.1-1.5 1.1-2.5 0-1.7-1.3-1.3-2.2-1.4 0-.3 0-.7.1-.8 4-4.3-2.9-2-2.1-4.7.7-1 .4-2.8 1.9-3 1.3-.2 1 1.5 1.6 2.1.8.6.6 2.4 1.9 2.1 2.5-.9-1.8-4.3 2.5-4 1.7-.1.4-2.8 2.3-2.7 1.7 1.6 2-.2 1.9-1 .3-4 3.2-7.3 2.6-11.4-.2-1.3 2.2-1.5 2.5-.3-.1 2.2 2.4 5.7 4.3 3.5 1.4-1.9 2.1-.5 2.7.2 4 5.2 4.6-2.7 7.6-1.1 1.5 1.2 2.3 1.5 3.1-.4.8-1.3 3 1 2.8-1.5-.1-4.8 4-7.6 6.2-11.5 3-2-.7 3.4 2.6 2.8 3.6-.3 1.2-2 2.3-4.1 2.1-2.7 2.1-2.7-.8-3.8 5.2-3.6-2-4.1-.4-7.1.8-.8 1.3 0 1.9.5 2.3 1.5 1.3 4 2 5.9 1.5.8 1.3-2.3 2.8-.9-.8 1.5-.8 3.3-1.3 4.9-.3.9-2.5.1-2.1 1.7.3 1.2 1.9.8 3 1.2 4.1 4.4 6.9 5.6 12.2 2.4 1.1-1.3 2.4.7 1 1.4-1.8 1-2.3 3.3-4.5 4.1-1 .3-1.2 1.6-1.2 2.9.1 2.3 2.1 1.7 3 2.8 1.7 2.2 4.4 1.6 6.6 2.4.3.1.8-1 1.3-.1.8 4.3-2.2-.2-2.6 2.3-.1.7 0 1.7.8 1.5 1.6-.3 3.6 3.5 4.9-.5 7.1.9-.8-10.9 4.6-8 1.2 1 3-.4 3.9 1.3 1.3-1.1 2.8 1.2 3.9.1.5-.6.4-1.2.2-1.9-.2-.8-1.4-.8-1.2-1.7 3.1-1.3 4.8-5.1 8.6-4.7-.6-1.8-2.8-.5-3.1-2.4.7-.5 1.8.6 2.1-.3.7-1.7 1.5-1.8 2.8-.8 1.9 1.2 1.9-3.3 1-3.9-.6-.5-1.5-.8-1.9.1-.9 2.1-1.9.8-3 .3-1.2-.5-1.8-3.1-3.8-1.2-1.8-.4 2.8-6.5 4.4-7.1-3.7-1.8-.1-3.2-.2-4.7-.1-2.1.4-3.8 2.9-4.9-2.1-.3-3.6.2-5.2-.4-5.2-2.1-3.6 5.3-7.4 2.5-3-3.7-1.8 1.2-8.5-1.6-1.6-.3-2.8.9-3.4 2.1-1.1 2.4 3.7 2.1 2.2 4.5-.4-.3-.8-.9-1.1-.8-4.1.6-6.3-5.1-10.7-3.7-.4.1-.9-.2-1.3-.5-2.6-1.9-4.5 3.6-6.8 1.3-.5-1.3-3.4-.6-2.2-3.5.6-1.3-2.2-2.9-2.6-4.9 0-.2-1.2-.1-1.8.2-.7.4-.6 1.5-1.7 1.6-2.2-7.2-11.2 3.3-13.8-3.8.6-.6 2.1-.2 1.9-1.7-.6-3.1-3.4-1.8-5.2-2.5 5.5-4.5 3.3-13.2 9.6-12.2-.1-1.6-3.4-2.3-1-3.7 2-1.2 3.7-2.9 5.8-3.8 1.9-.8 3.4.3 3.4 2.4 0 .7-.2 1.3.6 1.8 2 1.2 4.1-1 6.2.4.6.4 1.2-1 1.9-1.5 5-5.8 4 .8 8.4-3.6 2-2.1-.4-7 4.3-7.4 0-3.3 1.9-2.2 3.6-2.1 6.6 1.7 4.8-4.1 6.7-1 2.3 4.4 3.3 4.7 7.2 1.7.7-.5 1.1-.8 1.9-.5 1.3.8 5.4-2.3 3.4-3.1-2.1.4-3.6-2.2-5.8-1.2-1.1.4-1.6-1.2-.8-1.8 6-5.2 11.3 8.1 17.2-1.7 1.1 1 2 4.8 3.7 3.1 1.3-1.1 2.1-2.3.7-3.9-1.2-1.5-1.3-3.8-4.1-4.1-.9-.1-2.1-1.1-3.6-.7-1.1.3-2.2.3-2.6-1.4-.6 1.1-1 2-1.4 2.9-.8-.5-.9-1.5-1.9-1.6-3.2-.9.6-2.7 2-3.1 1.3-.7 1.2-2.2-.5-2.2-9.2-1.5-8.3 5.2-13.2 8.4.8-6.5-3.5-2.5-7.8-4.7.2 1.4.5 3-1.1 3.2-3.6.2-6.1 5.3-9.6 4.7-1.2-.9.7-1.9.8-3 .1-.7-.9-2.2.8-2.2 1.2 0 2 0 1.6-1.4-.5-3.3-5.6-.3-8.1-1.2-3.6-.5-.9-6.4-6.7-3.3-8.7 6.7-9.7-.2-12.3 3.3-.8 1.6 2.3 1 1.4 2.7-1.7-.9-4.3.8-5.4-2.4-.2-.6-1.9-.8-2.3.4-.6 2.6-1.6-1-3-.2-1.6.8-2.8.2-4.1-.7-.6-.4-1.7-.5-1.6.2.4 3.7-2.3 1.5-3.4 1.9-3.8 1.1 2.6-4.7-2.3-3.8-4.7 1.1-3.5-1.6-7-2.7.8-.8 2.2-.4 2.6-1.5.3-.8-.7-1.6-1.2-1.7-3-.5-1.7-3.2-2.4-4.8-.4-.9 1.3-1.4.6-2.7-3.1 3.3-5.5-1.8-7.1 1.5-.5 1-2 .2-1.2-.7 1.1-1.5.1-2.5-.4-3.9-.7-1.8-2.3-3.7 0-5.8 1.4-3.3-3.5-1.7-5.7-1.1 1-1.3.6-2.8 1.9-2.9 3.1-.3 4-2.3 4.1-5.1 0-1 .3-2.4 1.5-1.6 1.8 1.1 4.5 1.9 5.3 3.2 1.8 3.3 4.6 4.8 8.1 7-1.8.1-3.9-1.3-3.3.8 1 2.3 4.7-1.2 5.2 1.5.7 2.6 6.4-.4 8.1 1.9.8.9 1.3 2 2.5 1.4 1-.5 3.1-.2 2.6-2.6.8-3.6 7.6.8 8.8-2.3.4-1.2.1-2.7-1.1-3.9-3.5-5.3 6.9-2.7 3.8-9.5 0-.2 0-.4.1-.5 0 .1-.1.1-.1.2-2.3.4-3.4-1.5-3.1-3 .4-3.6-3-3.1-5.3-4.5 7.1-4.7-1.2-9 4.8-12 3.1-2.5-.9-3.6 0-5.5 1.7-1.9 4-1.5 6.1-1.2 1.9.3 1.6 2.3 1.9 3.8.6 2.5-2.3.4-2.5 2.1 3.9 2.7-3.7 2.3-1.9 6.1.6 2.5 3.6-.7 4.6 1.8.9 1.4-.6 6.4-2.1 7.1-.9.4-2.1.6-2 2 .1 1.8 3.9 4.5 5.7 4.4 1.9-.1 3.8-1.3 5.7-.2 1.7.6 2.1 2.1.3 2.8-1.5 1.8-4.3 3.9-1.5 5.7 1.1 2 1.5-1.5 2.8-.3 6.9 2.5.1-6.7 8.1-4.9 4.7 1.6 3.1 1.8 8.1.5 3.2-3-3-3-.4-9.3-2.3-1.1-3.7 3.1-4.8 0-.5-.7-1.9-1.1-1.2-2.2 1.9-.8 4.5 2.2 6.6-1.1.8-1.5 3.2-2 3.6.1.2 2.1-3.4 1.6-2.3 3.6 2.1 2.2 6-4.2 9.8-3 2.4.7.7-3.1 2.9-2.8 1 .1 1.5.8 1.5 1.8-.1 2.8 5.2 3.8 6 1-1-.7-2-.4-2.9-.5-1-.1-1.7-.6-1.7-1.6 0-1.2 1.1-.7 1.7-.9 1.3-.3 2.1.6 3.1 1.1 4.1 2.5 1.8-3.4 4.5-3.9 3.1-1.2 2.4 1.7 5.4 1.9 1.8.6 3.5-.1 5.1.4 1.8.7 2.8-.7 4.2-1 3.7-.6-1-3.8 1.2-6 4.7 4.1 9.3-1 12.8 3.3 1.2 1.7 3.5-3.1 2.6-4.4-1.8 1.4-4.3.9-3.8.1 1.2-2.3 1.7-7.9 5.6-5.3.9.8 2 0 2.9-.8-.9-1.4-2.8-.6-3.5-1.9.8-1.7 2.5.6 2.8-.8.4-1.7 1.5-1.3 2.5-1.7 3.4-1.9-3.6-5.4-5.1-5-1.8.8-3.7.7-5.6.8-8.5-.9-3.5 2.6-8.5 4.8-3.5 1 1.2-3.5-2.6-3.8-2.3-1.5-6.6 1.9-6.8-1.9-.1-2.7-3.3 0-4.7-1.3-4.4-3.1-6.8 3.9-5 6.8 1.3 1.7.7 3.2 1.1 5.1-1.9-1.5-5.2-4.3-6.7-1.9.1 1.8-3 2.7-1.3 4.4 2.3 2.3 5.1 2.9 7.5.1.3-.4.1-1.3 1-1 1.3.7 1.6 1.9 0 2.4-1.2.7-2.1 1.4-.7 2.9 1.6 2.9-3.8-1-4.6 4-.4 1.4-2.8 1.2-3.1 0 .1-1.8 4-2.1 2-4.4-3-3.6-6.6.3-9.9-.7-.5-.1-.9-.3-1.3.2-.7 1.3-1.2 3.8-2.3 1-1-1.9-2.5 1.5-4.2-2.1-1.7-2.5-5.2.7-5-4.3-2.7 3.2-5.5 2-8.5 2.6-1.7 1.9-3-1.4-.6-1.7 1.7-.5 2.6-3.4 1.3-4.5-.7-.6-1.6-1-1.4-1.9.2-1.4 1.8.4 2.2-.8-1.6-3.3-1.5-3.2-4.8-1.5-4.2 2.4-2-1.9-4.6-2.4-.8 0-1.7-.2-2 1-.5 1.8-2 1.6-3.4 1.9-1.5.4-2.9.9-3.1-1.6-.2-1.9-5.6 1.7-5.8 2.9-.7 1.6-1.2.8-1.7 0-1-2.2 1.2-6.3-3-4.3-2.7 1.8.6-2.7-5.8-1.1-6.9-1.2-2.6 7.2-5.7 5.5-2.3-2.3-3.1.1-4 1.6-.5.7-.6 1.9-1.6 1.5-3.6-1.5-7.3 1.8-10.9-.3-2.2-.5-4.7 1.7-6.1 3.5-1.2 1.8.3 3.2.2 5.2-1.1-2.2-2.7-1.4-4.1-1.1-1.7.3-2.9.9-1.3 3 1.4 1.9-1.9 2.3-1.6 4.1.1.5-.7.3-1.1.1-5.9-3.9-14.3 3.6-19.1-2.1-1.9-3.2-5.2-4.2-7.8-6.3-2.3-2.2-3.8 1.9-6.2 1.7-.4-.6.2-.9.3-1.3.3-1.1-.3-2-.7-3-.8.6-2.5-.6-2.7 1.5-.1.7-1.1 1.5-2.3 1.3-.2-1.4 1.2-2.6.5-4.3-1.3 1.2-2.3 2.8-3.7 3.2-1.7.5-1 1.5-.9 2.4.3 1.7-.8 2.4-1.7 3.1-.5.6-1 1.9-1.8 1.3-1.2-1 1.2-2.2.1-3.5-1.4.4-1.7 2-3.4 2.7 1.8-3.9-1.4-4.8-3.5-6.7 5.4-1.9 4.8 3.8 7.9 2.8 2.5-1.3.5-3-1.5-2.7.2-1.2 1-3-1.6-1.9-1.1.5-1.3-.8-1.9-1.4-1.3-1.1-3.5-.5-3.6 1.2-.1 2.6-2.2 2.1-2.9 1.5-1.7-1.5-2.9-.5-4.3.2-2.1 2.3-6.1-2.5-2.8 4-2.1-.7-3.4.7-4.9 1-4.1 1.9-3.2-6.1-8.1-4.5-.1 1.2 1.5 1.2 1.1 2.4-.9.9-2.2-.9-2.8.1-1.5 2.5-4 1.9-6.2 2.5-.8.4-3.2 1.5-2.8-.5 1.6-.8 1.8-2.7 4.2-1.8 2.5-1 .1-5.9 3.7-7.4.7-.4.7-2.3-.3-2.8-1.3-.6-1.3-2.3-2.6-2.9-1-.5-.1-1.5.4-1.3 2.4 1 4.7-1 7.2.1 1.3.6 3.1.6 4.4-.8.4-.4 1-.8 1.3.1 1.9 3.8 5.7-.9 8.6-.2 1.9.2 3-.3 2.9-2.5 4.1 4.3 1.8-.9 7.4.6 5.5 1.6 1.4-3.1 5.6-3.1-.2-1.2-1.7-.7-1.6-1.9 6.6.2 7.3-9.6 11-2.4-1 1.8 1.3 2.5 2.3.9.8-1.5 2.1-1.6 3.6-1-.4-1.6-1.2-2.8 1.1-3.5.9-.3.3-3.1 1.5-4.4 3.1.2 6.1-2 7.7-4.1 3.4-3.6 7.4 2.3 9-4 .5-1.4.7-3.1 1.9-.3.6 1.4 2 .1 2.8-.4.5-.4.7-1.5 1.6-1.3 2.1.5 2.2-3.4 4.5-2.1-.6-3.5 1.9-2.1 3.8-2.5-5-1.2-.5-5.1-2.5-7.4-5-2.4-4-10.6-9.2-11.9-4.3-.5-.2-3.2-2.8-4.6-.8-.3-1 .2-1.4.9-2.8 5.9-7.5 2.1-10.5-.7-2.6.5-5.5-.4-7.9 1.3-.6.4-1.1.9-1.8.7-3.5-1.1-2.6 1.3-2.3 3.2-.9.2-1.9-1.1-2.4.3-.4 1.3.6 1.6 1.6 1.8.8.1.8.7.9 1.5.2 3-2 3.4-4.2 4.3.4-1.9 2-2.5 2.9-3.8-3.4-2-2.6 1.7-4.4.1-3.4-2.7-6.8-1.8-10.4-.7-2.9-1.7-2.6.3-2.2 2.3-1.6.3-3.2-4.2-4.6.1-12.1-4.2-6.4 8.4-11.9 6.7-.9-1.6-1.3-3.3-3-4.7-2.3-1.8-3.2 1.5-5 .5-3.4-1.8-1 3.7-3.5 3.1-1.2-2.9-1.2-2.9-3.4-4.8-1 5.6 1.7 6.7 5.8 5.5.6-.2 1.5-.3 1.8.3 2.3 4.3 4.4 1.2 7.3.2.8 4.4-3.9 1.6-3.9 4.7.3 2.6-2.8 3.1-3 5.4-.1 2.5-1.2 3.5-3.2 2.9-1.5.2-2-1.5-.5-2 3.1-1 3.2-4.3 4.8-6.4-3.8-1.6-8.5 5.6-7.4 8.7.9 2-2.1 2.4-1.6.3.6-4.1-3.6-1.5-4.1-5 2.5 2.2 3.4-.9 5.1-1.2 1.2-.1.5-2.3-.4-1.8-3.3 2.7-4-1.2-4.8-2.6-.8-1.2-2.6-2.2-2.2-4.2.1-.5 1.1-.7.4-1.4-3.3-.5-.6 3.9-1.2 5.6-2.7-1.1-2.7 1.1-4.2.3 1.1-7.3-2.7-8.3-8.9-9.3-1.5-.4-3.6.6-5.4-.3-.4-.2-.9.1-1.2.7-.3.7-.5 1.9-1.5 1.2s.5-1.4.6-2.2c.6-3.9 2.1.5 3.9-1.8.4-.4.8-1 1.4-.1 2.9 2.3 8.6 2.4 10.9-.8.7-.9.3-2.4 1.5-3 .9.8-.7 1.8.5 2.4 1.1.5 1.9-2.5.9-3.1-1.9-1.2 1.8-2.8-.8-4.7-1.8-1.4-2 2.5-3.5 1.6-1.1-1.1.6-2.3 1.5-3.1 1-.5 1.1-5.9.1-6.4-2.3-1.1-1.8-2.8-1-4.5.2-.5.8-1.3.2-1.5-2-.5-4-2.8-6.2-.4-.7.8-2.2 1.6-3.2.8-.2-.3 0-.6.3-.6 3-.3-3.3-2.3.8-3.8 2-.9 1.1-1.8.1-2.7-1.7-1.5-3.4-.8-3.9 1.5-.9 1.3-2.9 1.3-4.6 2.2 1.5.5 3.1.2 4.3 2.1-2.2-.4-3.9-.7-5.3.6-.3.6.3.8.7 1 1.8 1.2 2.3 3.3 3.2 5.1.4.8-.4 2.1.9 2.4 1.3.3.6-1.7 1.9-1.9.1 1 .7 2.5-.4 2.8-3 1-6 4-9.3.1-.9-1.1-3.7-.5-3.6.4.3 2.3-1.5 3.5-1.8 5.5-.2 1.9-.3 4.2-3.3 3.1-.4-.1-1.2.3-1.4.7-2.6 5.7-10.9-4.6-11 1.1-.3 5.2 7.9.6 5 4.9-1.1 1.3-3.8 2.1-1.6 4.6-.4 1.2-1.3 2.4-1 3.8 0 1.7-2.9 4.1-4.1 3.2-2-1.5-2.4.2-3.2 1.4-2.5-4.4-6.3-9.7-9.4-2.7-1.9 2.3-2.3-4.8-8.5 2.9-2.3 3.6-2.9 8.7-4.9 12.6-2.5 2.1-3.9 5.4-4.2 7.9-.3 3.1-2.2 4.4-3.5 6.4-1.7 2.6-1.9 6.1-4.5 8.2-.7.5-.6 1.9 0 2.7 1.3 2.3-2.5 4.6-4.1 2.2-.3 3.6-1.4 5.1-4 5.4.1-.8.2-1.7.3-2.5-.7 1-3.4-.4-2.5 2.3-1.1 1.9-3.8 2.7-2.4 5.6.3.6.5 2.4-1.1 1.6-2.4-1.9-1.4 7.3-6.8 9.4-2.4 1.3-3.5 3.9-6 5-1.1.2-1.5 2.7 0 2.3 2.7-1.4 3 3 1.1 4.1-.7-.8.5-2.3-.8-2.5-2.7-.4-2.4-2.4-2.5-4.3 0-2.6-4.2-4.2.3-5.5 1.1-.3 2.5-1.2.3-2.2-2-1 .4-6.5.8-8.3 1.3-2.6 1.4-5.9 3.5-7.8 1.9-1.7 2.3-3.7 3.1-5.8 1.5-10.7 3.9-4.1 7.5-15.5 3.3-2.7-.9-8.2 2.5-10.7 5.5-3.8-4.9-9.1 1.7-15.3 1.4-1.7 3.5-2.8 4.5-5 2.1-3.7 3 3.9 5.8-.1 1.8-3.5-2.7-7.4 3.7-9.1 3.7-.8 1.4-2.5 2.3-4.3 2.7-1.1 3.2-4.7 5.9-5.8 1.6-.8 1.5-3.3-.4-3.2-1.6-.6-4.6.5-4.5-2.1.8.3 1.5-.4 2.6.2 2.2 1.3 3.3-1.3 4.9-2.2 1-.6 1.6-1.1.7-2.7-.7-1.2.8-2.4 1.9-2.7 2.4-.2.3 3.6 1.9 5.1 2-3 6.5-2.6 7.8-6.7 2-1.7 4.5-4 7.4-2 1.6 1.1 4.2-.4 4-1.7-.4-2.2 0-3.1 1.2-4.8 1.5-3.8-3.7-1.4-3.7-5.9 5.7 1.4 2.2-3.4 5.5-3.5 2.6-.1 4.1-2.2 5.9-3.7 4-4.2 14.3-4.3 12.7-11.6 3.8-2.5 7.6-5.1 11.9-6.9.2.3.4.9.6.9 4.6-1.3 9.5 2.6 13.4-.8 2.1-2.2 4.9-3.5 7.6-3.5 3.6 0 5.5-3.6 9-3.5.9 0 .8-1.4.8-2.2-.3-4.4 4.6-1.1 3.2-7.5 2.7-1.5 5.7-2 8.5-3.1.6.6 1.1 1.9 2.2 1.1 3.8-1.6 8.1-1.2 11.4-4.1 35.3-6.3 72-7 107.2.3.5 2.8 3.3 2.3 4.9 3.5-1.8 2.5-5 1.2-1.8 4.8 2.7 3.1-4.2-.1-2.5 7.3-7.1-1.4-3.9 9.1-2.7 12.5 1.5 8.1 11.8 3.2 14.1 9.5 1.9 6.4 9.5-5.3 9 .8-.4 2.9 4.1.1 4.8 3.1.2.3.8.8 1.4.1 4.4-3.2 10.3.9 15.2.4.9.1 2.6-.1 2.5-2-.1-2.9 7.9 1.2 10.8-.4 2.9-.5 6.2 1.9 8.7-1.7 1.6-1.6 8.1-3.3 5.8 1.4-1.1.2-4.1-1.5-3.9.2.2 1.7-1.6 1.4-1.6 2.6-.1 1 .6.9 1.4.3 2.2-1.6 4.7-1.3 6.1.7 2.3 2.9 4.9 1.5 7.2 1 2.3-1.2 7.9 1 7.4-2.8 1.1 1.2 1.8 1.9 2 3.2.3 1.6-1.5 1.1-2.1 2.1 2.2-.2 5 1.1 4.6 3.3-.7 1.5-2.1-1.9-3.3-.3-.3.4-.4 1.2-.1 1.3 1.8 1 1.7 3.9 4.1 4.4.7.2 1.1 1 1 2.1-.2 1.8 1.6 1.5 2.4 1.5 1.8 0 .6-1 .3-1.7-.3-.8.4-1.4.8-.9 1.8.9 2.2 7.3-.8 4.7-.2-.2-.9-.1-1 .1-2.8 3.8-3.9-2-6.1-.8-2.1.8.4 5.2-3.1 3.6-2.1-.9-5.2 1-6.4-2.5-1.1-1-3.2-.5-4.5-1.4-1.4-.8-1.5.1-1.6 1.3.1 1.2 2.8 4.4-.1 4.2-5.8-1.3-.8 7 2.7 5.8 2-.5 1.6 2 1 3.1-1.7 1.2-2.9-2.4-4.7.7-1.2 1.8-2.5-1-3.9-.5-2.4-.1 1.1-3.9-2.4-3.4-4.8-.5-.5 2.9-3.5 3.5-.6.1-1.3.1-1.1.9 0 3 2.5 6.5 5.5 3.4 6.3-6.1 5.7 3.5 9.5 2.4.6-.2 1.5-.3 1.4.8-.1.7-.5 1.7-1.4 1.3-1.4-.6-2.5.4-3.8.3-.5 0-1.1.2-.8 1.1 4.3 6.7 7.6-1.1 9 1 2.9 3.3 8.7 4.6 12.5 2.5.9-.5 1.9-1.3 1.2-2.5-3.1-5.3 5.5-2.9 5.8-7.6.1-.5-.5-1.2.6-1.1.5.1 1-.1 1 .9 0 2.4 1.1 2.6 2.8 1.2 2.4-1.4 1.1 7.6 8.4 4.5.8-.3 1.9-.4 2.3-.9 2.9-3.2 3.3 5.3 7.1 1.1 3.8-2.6 3 1.7 5.2 2.5 1.8.6 2.6 2.5 4.1 3.5 1.1.7-.8 2.1-.8 3.4-.9 2.5 2.4 3.2 3.1 1.4-.2-3.1 9.1-7.5 3.2-8.6-4.6.9-.3-8.9-7.3-5-1 .6-1.2.3-1.6-.6-1-2.6 2.6-1.4 2.7-3.4-2.2-3.2-3.2 1-5.4-6.8-.5-1.2 1-2.6 1.7-1 .7 1 1.5 1.5 2.5 1.3zm-38.3 130c-.1 0-.1-.1-.2-.1.1 0 .1.1.2.1 1.2 1.3 2.7 2.1 2.5 4.5-.1 1 1.4.9 2.2 0 .5-.5 0-1.6 1.7-2.3-.9 1.9 1.2 4.6-2.8 4.4-1.3 0-2.6 2-4.4.5-1.4-.2.6 2.5-.9 2.7-.8.3-1.1-.6-1.5-1.1-1.4-1.7-3.1-2.2-5.3-1.3.2 1.2 1.4 2.1 1 3.3-.6.8-1.3-.3-1.6-.2-2.4.1-5.1 2.2-3.1 4.7.5.7 1 .2 1.4-.1 3-1.6 5.9-3.5 9.6-2.9.8.1 1.3-.4 1.7-1.1 1.4-2.1 7.3-3.9 8.9-2.5 1.5 1.5 6.3 2.1 7.5 1 .3-1.2.1-2.7-.5-3.9-.2-.4-1.2-.2-.8-1.4 2.4 2 3.2-1.3 5.3-1.5 3.8-.4 7.3-3.1 11.5-1.1 1 .5 1.9-.9 2.2-1.8.5-2.8-3.5-3.1-5.6-3.2-.8.1-2.1.2-2.2-.7-.3-2.6-2.3-2-3.7-2.4-.5-.1-1.2-1.2-1.6 0-.8 1.8 1.9.9 1.8 2.3-3 2.5-5.9-3.6-6 2-.1.9-2.9 3.2-3.8 3-1.6-.4-1-1.2-.3-2.1.2-1.2-2.3-.8-1.5-2.2.5-1.1 1.5-.1 2.2.2 2.1 1.3 4-5.8.4-3.5-2.6.4-5 1.9-7.6 2-.9 0-.9.7-.5 1.2.5.9 3.4 1.9 2 3.1-.6.4-2.1 1.4-2.4.4-.6-2.4-1.7-.9-2.7-.8-1.4-.3-2 1-3.1.8zm-49.4-113.4c4-1.4 5.5 7.2 8.6 3.4 1.4-2.2 3.6-3.3 5.5-5.4-7.7 1.8-4.6-6.7-10-3-3.7 3.3-.6-8.6-7.2-9.5.9-1.3 2.2-1.9 2.3-4.1.2-3.4-2.3-2.1-3.4-2.9-5.6-3.3 4.7-4.2-6.7-8.1 0 1.5-.8 2.4-1.4 3.4-3 3.6 2.8 6.4 4.5 8.9 0 .8-.7.7-1.2 1-4.3 1.4-2.6 2.8-4.5 6-.6 1.1-1 2.7-2.3.3-.6-1.1-4.5-.8-4.7.3-.4 1.9-1.6 1.5-2.8 1.6-2.7-.3-5.7 4.8-2.7 5.8 1.7.1 3.4.7 4.8-1.2 4.8-6.7 7.5 4.1 11.9 2.7.3-.2.5-.3.4-.8-2.9-6 4.5-7.4 6.9-3.2.5 1 .8 2.1-.2 2.9-1.6 1.4-.8 2.9.1 4.1 1.2 1.6 2.4.6 3.9-.2-.6-1-1.8-1-1.8-2zM175.2 93.3c1.3-4.2-2.9-3.5-4.4-5.2-1.8-2-2.7 1.9-4.7 1.5 1.6-.1 2.2.6 2 2.1-.1.5 1.3.1.7 1-2.1 1.8-1.6-4-5.1-.5-1.2 1.1-3.5.9-3.9 3-.9 2.8-.1 8.1 3.7 5.1 2.1 1.7 3.9.9 5.8-.4 1.6-1 3.2 1 4.8.1 1.6 1.4-2.2 3.9-.8 5.4 2.5 1 6.1.3 8.3-1.5.2-.2.9 0 1 .2 2.1 3.4 5.1-.9 7.6.6.7.6 1.9-.8 1.6-1.3-.6-1.1-.1-3.6-1.4-3.2-3.1.8-4.2-1-5.3-3.2 4-.4 7.1-3.4 10.9-4.3.5-.1.4-.6.3-1-1.2-2.4.7-2.4 2-3 0 .2.1.2.2.2-.1-.1-.2-.1-.3-.2-.1-1 .4-1.9 1-2.7-.1-2.9 2.9-.1 4.3 0 2.4 0-1.1 3.2 1.5 3.2.8 0 1.9 1.5 2.5-.2.6-1.4 1.2-.6 1.2.1.1 3.2 2.7 2.2 4.3 3 .3-1.2 1.3-1.7 2.3-2.3 7.2-4-5-5.2.7-10.4 2.8 1 5.7-.9 8.5.5-1.7-1.8-1.8-4.8 1.3-3.7-.4 1.8 1.9 2.8 1.2 4.7-.3.9-.9 2.1.3 2.4 4 .9 2.2-4.1 5.7-4.3 2-.3 2-3.6-.2-3.3-.6 0-1.1-.3-.9-1.4 1.6 1.3 3.3-1.5 4.4-.3 1.8 1.9 3.3-.2 4.7.3 2.7.9 3-.7 3.3-2.7.4-1 2.4.1 2.2-1.4-.1-.7-.9-1.5-1.3-1.3-2.4 1-5-3.7-7.1.4-2.4-.9-5.9 3.2-7.4.8-.1-1.5 2.1-.1 2.2-1.5-3.6-1.9-5.7 3.3-6.7 2.4-1-1.2-1.9-.5-2.9 0-1.5.6-5-.8-3.6-2.8 1.8-2.4-1.8-3.8-3.3-2.1-.3.3 0 1.1-.8 1.3-3.7 2.1-9.1.2-11.8 3.8-1.4 3.5-7.1.9-6.4 6.2 1.3 5.7-12.3.3-6.5 7 .1.1 0 .4-.1.8h-2.4c-1.6-3.8-2.9 1.4-4.8.2-1.3-1-.6-3.1.4-4.1.4-.4 1.6-.1 1.3-1.1-.2-.9-1.2-.8-1.9-1.1-.9-.4-.9.3-1.3.9-1 1.6-2.3 2.7-4.3 2.9-2.7.2-3.7 2.9-2.2 5.1 1 1.4 2.7.1 4.1 1.1-1.3.6 0 3-1.4 2.8-1.4-.3-2 .9-3.1 1.4zm138.1 27.5c3.6 1.1.3-4.3 2.4-5.5 1.2-.8 5.8.4 6.8 1.8 6.7 5.5 2.7-8.8-.4-9-3.7 1.2-6.2 4.9-9.6 5.7-1.3-.1-2.4.4-2.8 1.8-.3 1.1 1.4 3-.4 3.1-1.9.2-.4-1.9-.8-3-3.7-9.3-21.6 3.4-9.7 6.4 1.6-.3 1.9 2.3.4 2-1.6-.2-1.8 1.5-2.8 2.1-.4-.7-1-1.2-1.4-1.8-1.7-2.9-4.6-1.5-6.8-2.4-.8-.3-1.2.4-.9 1.3.9 4.8-5.1.7-6.1 4.7-.5 1.3-1.3.7-1.7-.3-2.1-4.7-4.3 2.6-8-3.6-3.3-3.6-2 3.1-4.1 2.7-1.5-.8-1.2-3.7.4-4.5 1.7-1.8 0-3.3-.9-4.4-1-1.3-1.6.3-2.2 1-.7.8-1.8 1.6-1.8 2.5-.2 3-2.6 1.8-3.1 1.2-1.8-2.3-3.5-1.4-5.2-.2 0-1-.9-1.4-1.4-2.1-.9-1.3-1.6-.3-2.2.4-3.1 2.7 4.1 4.2-1.1 5.9-2 .8-1.7 3.8-3.6 4.8-.2.1 5.2 7.9 5.6 7.9 5.3-.5 1.9 2.7 5.5 2.4.6-.1 1.3-.4 1.9-.4 1 0 2.4 1.9 1.4 2.7-.6.4-6.2-.7-6.6-1.3-.5-.9-.8-2-1.9-.6-.6.7-2.3 1.3-.6 2.6 1.1.8 1 1.7-.1 2.6-1.7 1.2-.5 3.9 1.6 3.6 3.2.6 9.3-1 9.8 3.3 0 1.1 1.4 2.3 1.6 2 1.7-2.3 5.5 3.8 6.1-1.7 5.5.9 2-7.2 7.4-9.4 2.7-1.3 1.8-5.6-1.5-4.1-1.1.7-3.3-.9-2.3-1.9.9-.3 1.7-1 2.6-.5 1.7 1 4.8.7 3.9 4.4-.1.5.3 1.1.5 1.6.4 1 .7 2.3 2.1 1.8.9-.3 2.3-.5 2-2.3-.3-1.3.5-1.1 1.3-.9 2.3.4 4.8 3.8 6.8-.4.1-.2 1.4.7 1.2-.7.7-3.1-5.5-2.3-2.7-4.2 1.3 1 3.1.4 4.3 1.8 2 2.3 4.3 2.1 6-.2.9-1.6 4.1-1.4 3.3-3.7-.4-2.2-3.3.5-3.6-1.5-.1-1-1-2.1-.4-3.1.4-.8 1.3-.3 2-.2 5.7 1.4 3-3.9 5.7-4.3 1.9.7 3.8-.7 5.7.4-.3-2.4-.6-4.4-1.6-6.3zm-35.2-61.6c-3.6-1-4.2-5.5-7.6-6.5-.3-.9 2-1.4.5-2.5-1.2-.9-2.3-1.8-4-1.8-5.1-.2-11.3-2.1-15.9.3-3.8 3.7-7.7-1.5-9.9 1.6-.9 1.4-2.2 2.7-4.4 1.4-1.7-1-5.3-.1-6.3 1.5 1.3 1.6-.3 4.8 3 5.1-5.1 5.2 2.5 8.4 5.8 5.1 1.3-6.7 6.1 2.8 11.4-2.3 4.5-3.7 6.8-.2 10.4 1.4 1.5 1 2.1-.3 2.5-1.2.7-1.4-.7-1.5-1.4-2-.6-.4-1.6.1-1.9-.8 5.2-5.2 11.9 4 17.8.7zm-104.8 55.2c1.5.3 2.2.8 2.1 1.4-.8 3.6 2.4 2.7 3.1 2.3 3.9-1.3 7.7.3 11.3-2 1.2-.4-.7-1.7-.6-2.7 1.8-9-5.6-5.5-10.5-6.5-5-1.8-7.1 2.9-11.2 3.8-1.6.6-2.4-1.6-.4-1.6 9.7-1.9 2.8-10.2-3.4-6-.6.5-1.1 1.5-1.8 1.1-2.4-1.6-3.6.2-5 1.6-.5.5-1.7.3-1.3 1.5.3.9 1.3.4 2 .6 1.4.4 2.8-1.3 4.2.3-2.5.1-6.2 3.8-3 5.2 3.1.5 4.6 5.1 8.4 3.6 1.4.8 2.3 2.6 2.7 4.2 2.8 4.1 1.8-2.8 4.7-.8.1.1.5-.8.2-1-2.4-.9-.1-3.2-1.5-5zm230.2 67.2c-3.7-.5-7.3-.8-10-3.8-1.1-1.2-2.8-.1-2.4.6 1 2.1-.2 3.8 0 5.7.1 1 .4 2.4 2.1 2.1 1.8-.8 2.9 2.6 4.1 1.5 2.8-4.7 7.9 5.6 9.5-1.4.6-1 2.2.8 3.1-1 2.7-2.1 6.5 5.7 12.5-.1 1.3-1.2 1.8-3.9 4.4-3.6 2 .3 1.9-2.4-.2-1.9-5.6-.3 2-5.9-2.7-5-2.9 1.1-4-3-7.6-1.7-4.1.9-7.2-.5-8.9 5.7-1.4 3.8 4.1 2.8 3 5.3-2.4-.6-9.6 1.1-10.8-.8 0-.8.8-.7 1.3-.7.9.2 2.1.7 2.6-.9zM425 389.9c-3.6 4 3 .6 2.6 3.3-.9 4.9 5.3-1.1 5.8-2.6 1-1.3 2.7-1.2 4-1.8 1.4-.6 3.2-4 2.4-4.8-1.7-1.3-3.2 1.1-5 1.2-1.9.9-4.2-2.6-2.2-3.6 1.7-1.2 2.7-3.4 5.1-3.6 1.5.2 3.2-4.2 2-4.8-1.4-.3-.9 1.4-1.7 1.9-3.5.4-5.7 4.1-9.5 3.7-.8-.1-1.8.7-2 1.8 1.3.7 4.8-1.6 5 .9 0 1.1-1.7 1.2-2.5 1.1-3.2-.3-6 1.6-9.1 1.5-1.4 0-2.4 1.1-1.7 2.9 1.4 4 2.5.8 3.9 1.6-.4 4 1.9 0 2.9 1.3zM317.5 141.8c-1.5-.3-3.2-1-4 .8-.9 1.9 1.2 2.5 1.9 3.8.3.8.3 2.1 1.8 1.6 5.5-3.1-2.5-3.1 8.8-5.1 2.2-.5 7.5-4.6 4.1-6.4-5.1-3.2-9.5.2-14.4-4 1.4 3.6-1.1 4-2.2 5.3 1.1 1.7 4.4.3 4 4zm106.3 110.1c11.6-1.6.4-8-6.1-2.5-.7.4-2.2-.5-2 1.2.1 1.2 1.4 1.1 2.2 1.5 2 1 3.9-1.6 5.9-.2zm3.6 68.4c3.5.5 3.7-3.3.5-3.7-2-.5-2.7 1.9-4.4 1.9-2.1 0-3.1 1.4-3.6 3.3-1.2 2.2 1 3.1 2.1 1.2 1.3-2.4 2.7-4.4 5.4-2.7zM116.5 130c2.4-2.6 2.4-6.5 5.8-8 .3-.1 1.3-3.8-.2-3.6-1.2.8-3.2.6-3.9 2-1.5 2.9-2.5 5.9-1.7 9.6zm221.2 80.8c-4.9-2.8-6.3 4.5-11.3.6 3.6 7.7 7.1 2.7 11.3-.6zM413 326.7c4.2.3.1-7.4-1.1-6.9-3.6 2-2.9 6 1.1 6.9zm-71.9-58.3c-.8-2.8-5.4 1.2-4.4 2.8.7 1.2.5 1.9 0 2.9-1 1.8.6 2.9 1.9 1.4 2.9-1-1.3-3 1.1-4.3 1.3-.7.4-2.2 1.4-2.8zm33.1-15.8c-1.5-.6-1.6 2.1-3.1 2.3-.8.1-1.9.6-1.3 2 1.5 3.1 4.4 0 5.7-1.5.7-.4 1.9-.4 1.6-1.6-.3-1.1-1.6-.6-2.9-1.2zM448 383.1c0-2.4-2.3-2.8-3.2-2.8-2.2.1-.7 3.4-2.6 4.4.9 3 5.3.9 5.8-1.6zm-71.9-180.3c.2-2.9-5.1-2.9-6.7-1.8-1 1.2.1 3.4 1.4 3 1.4-.7 2.5-1.1 4 .1.5.6 1.2-.3 1.3-1.3zM68.3 174.3c-2.5-1.1-3.6 3.5-5.4 4.7-.6.7-1 1-.2 1.8 2.7 3.4 5.3-4.4 5.6-6.5zm321 142.1c-3.3-1.1-7.3 2.5-7.7 6.6 4.8-1 3.9-5.8 7.7-6.6zM228.4 68.2c-.8-4.4-1.7-5.1-4.9-4.1-.9.3-2 .3-1.6 1.7.4 1.2 1.4 2.3 2.5 1.6 1.7-1.1 2.8-.7 4 .8zm231.5 121.7c-.4 1.5.5 4.5 2.2 4 .9-1.3.6-6.6-1.4-6.5-1.3.1-.6 1.6-.8 2.5zm-13.7 116.9c.2-2.5-5.1-.4-4.9 1.6.2 2.6 4.7.3 4.9-1.6zm-96.9 5.5c.6-3.1-3.5-3.2-3.4-.1 0 1.6 1.2 1.6 2.3 1.8 1.6.1.8-1.2 1.1-1.7zm114 45.9c1.1-1.7 4.6-4.1 3.2-5.5-.7-.4-1.8-.5-2 .6-.2 1.4-1.7 2.4-1.2 4.9zm-80.7-43.9c1.4-.5.9-2.1 1.3-3.1.3-.7-.1-2-.8-1.7-1.1.4-1.2 2.2-2.5 2.8.6.7.8 1.7 2 2zM73 166.2c-.3-4.6-5.7 4-2.4 3.4.9-1.2 2.3-2.1 2.4-3.4zm247.5-46.5c-1-.8-1.4-2.3-2.7-2.9-2.4-.4.7 7.7 2.7 2.9zm32.9 268.9c.8-.1 1.4-.5 1.4-1.6-.3-3.5-6 1.2-1.4 1.6zm-25.7-274.2c.4 1.8.1 3.6 2.2 3.5.6 0 1.5 1.1 1.8-.3 0-2-2.6-.9-4-3.2zm-77.4-46.7c-1.7-.5-1-2.7-2.9-2-2.3 1.7.6 3.2 2.9 2zm202 118.4c-1.2.7-1.8 1.5-1.1 2.8 2.1 1.3 2.2-1.8 1.1-2.8zm-123.9-56.5c-.6.5-1.8.2-1.9 1.2-.1.8.7 1 1.3 1.1 1.9.2 2.8-2 .6-2.3zm-37.7 298.7c0-1.6-2.3-.8-2 .6 0 .5.1 1.1.6 1 .8-.2 1.5-.5 1.4-1.6zM264.5 349c.9-1.3 2.2-1.6 1.8-3-1.3-1.1-1.6 1.3-1.8 3zm-7.4 56.9c-.1-1-1.1-.9-1.3-.2.1.8 1.1 1.1 1.3.2zM427 130.3c-.1-.5-.3-.5-.6-.2.1.5.3.5.6.2zM224.9 435.9c-.3-.3-.5-.2-.6.2.3.3.6.2.6-.2zm-115-299.8c-.1-.4-.2-.4-.6-.3.1.2.2.4.3.5.1 0 .2-.1.3-.2zm223.4-50c-.1.2-.2.2 0 .4 0-.1.1-.1.1-.2-.1 0-.1-.1-.1-.2z"/><path class="prefix__st1" d="M59.6 194.5c2.5-.3 3.7-1.8 4-5.4 1.5 2.5 5.6 0 4.1-2.2-.6-.9-.6-2.2 0-2.7 2.6-2.1 2.8-5.5 4.5-8.2 1.3-2 3.2-3.3 3.5-6.4.3-2.5 1.7-5.8 4.2-7.9 2.1-3.8 2.5-9 4.9-12.6 6.3-7.7 6.5-.7 8.5-2.9 3-7 7-1.7 9.4 2.7.8-1.2 1.2-2.9 3.2-1.4 1.2.9 4.1-1.5 4.1-3.2-.3-1.4.5-2.6 1-3.8-3-3.4 2.5-3.4 2.2-6.1-.3-.9-1.1-.6-1.7-.6-4 1.4-5.5-5.4-2.3-4.5 3.1.6 6.7 4.6 9.4.6.2-.4 1.1-.8 1.4-.7 3 1.1 3.1-1.2 3.3-3.1.2-1.9 2.1-3.1 1.8-5.5-.1-.9 2.7-1.5 3.6-.4 3.3 3.9 6.3.9 9.3-.1 1.1-.4.5-1.8.4-2.8-1.3.1-.6 2.2-1.9 1.9-1.3-.3-.5-1.7-.9-2.4-.9-1.8-1.4-3.9-3.2-5.1-.4-.2-.9-.4-.7-1 1.3-1.2 3.2-1.1 5.3-.6-1.2-1.9-2.8-1.5-4.3-2.1 1.7-.9 3.6-.8 4.6-2.2.5-2.3 2.1-3 3.9-1.5 1 .9 1.9 1.8-.1 2.7-3.9 1.5 2.1 3.5-.8 3.8-.3 0-.5.4-.3.6 1 .8 2.5 0 3.2-.8 2.3-2.4 4.2 0 6.2.4.6.1.1 1-.2 1.5-.8 1.8-1.4 3.4 1 4.5 1.5 1.8.6 6.6-1.5 7.8-.5.6-.8 1.2-.1 1.7 1.4.9 1.9-3 3.5-1.6 2.6 1.9-1.1 3.5.8 4.7 1 .7.2 3.6-.9 3.1-1.1-.6.4-1.6-.5-2.4-1.2.6-.8 2.1-1.6 3.1-2.3 3.1-8.3 3.1-11 .6-.6-.8-.9 0-1.3.3-1.9 2.2-3.1-2.2-3.9 1.8-.2.8-1.5 1.5-.5 2.2.9.6 1.1-.7 1.4-1.3.2-.5.8-.8 1.2-.6 1.8.9 3.9-.2 5.5.3 4.7.6 10.4 2.2 8.8 8.3-.7.8.4 1.4 1 1.1 1-1.1 2-.6 3.1-.4 0 .7-.1 1.3-.1 2 .1.6-1 1.7.2 1.8 4.5 1.4 2.5-3.2-.1-3.7.7-1.7-2.1-6.1 1.2-5.6.6.7-.3.9-.4 1.4-.4 2 1.4 3 2.2 4.2.9 1.3 1.6 5.2 4.8 2.6 1-.5 1.4 1.6.4 1.8-1.8.3-2.6 3.4-5.1 1.2.6 3.4 4.7 1 4.1 5-.1.4 0 1.6 1 1.4.8-.2.8-.9.6-1.7-.8-3.3 3.5-10.2 7.4-8.7-1.7 2.1-1.8 5.4-4.8 6.4-1.5.5-1 2 .5 2 2.1.5 3.1-.5 3.2-2.9.2-2.3 3.3-2.9 3-5.4 0-3 4.8-.5 3.9-4.7 5.5 1.9-.2-10.9 11.9-6.7 1.4-4.3 3 .2 4.6-.1-.4-2-.8-4 2.2-2.3 3.5-1.1 7-1.9 10.4.7 1.7 1.6 1.1-2.1 4.4-.1-.9 1.3-2.4 1.8-2.9 3.8 2.2-.9 4.3-1.3 4.2-4.3 0-.8 0-1.3-.9-1.5-1-.2-2-.5-1.6-1.8.5-1.4 1.6 0 2.4-.3-.3-1.9-1.2-4.3 2.3-3.2.7.2 1.2-.3 1.8-.7 2.4-1.7 5.3-.8 7.9-1.3 3 2.8 7.7 6.6 10.5.7.4-.7.6-1.2 1.4-.9 2.5 1.3-1.3 4.2 2.8 4.6 5.3 1.3 4 9.6 9.2 11.9 2 2.1-2.5 6.3 2.5 7.4-1.9.3-4.4-1-3.8 2.5-2.3-1.3-2.4 2.6-4.5 2.1-.9-.2-1.1.9-1.6 1.3-.8.5-2.2 1.9-2.8.4-1.3-2.8-1.5-1.1-1.9.3-1.5 6.1-5.6.6-9 4-1.7 2.1-4.5 4.3-7.7 4.1-1.1 1.3-.5 4.1-1.5 4.4-2.3.7-1.5 1.9-1.1 3.5-1.5-.6-2.8-.4-3.6 1-1 1.6-3.3.9-2.3-.9-3.7-7.2-4.5 2.7-11 2.4-.1 1.2 1.4.7 1.6 1.9-4.1 0-.2 4.7-5.6 3.1-5.5-1.6-3.4 3.8-7.4-.6.2 2.3-1 2.8-2.9 2.5-2.9-.7-6.7 4-8.6.2-.3-.9-.9-.5-1.3-.1-1.3 1.4-3.1 1.4-4.4.8-2.5-1.1-4.8.9-7.2-.1-.4-.2-1.4.8-.4 1.3 1.3.6 1.3 2.3 2.6 2.9 1.1.5 1.1 2.4.3 2.8-3.9 1.3-.7 8.5-4.8 7.2-1.6-.4-1.9 1.7-3.1 2-.1 0-.1.7 0 .8 1 1 1.9-.1 2.8-.3 2.1-.5 4.6 0 6.2-2.5.6-1 1.9.9 2.8-.1.4-1.2-1.2-1.2-1.1-2.4 4.7-1.6 4.1 6.4 8.1 4.5 1.6-.3 2.8-1.7 4.9-1-3.3-6.5.7-1.7 2.8-4 1.4-.7 2.6-1.7 4.3-.2.7.6 2.8 1.1 2.9-1.5.1-1.7 2.3-2.3 3.6-1.2.6.5.8 1.8 1.9 1.4 2.6-1.1 1.7.7 1.6 1.9-.1 0-.1 0-.2.1v.2c.1-.1.1-.2.2-.3 2-.5 3.9 1.5 1.5 2.7-3 1-2.6-4.7-7.9-2.8 2.1 1.9 5.3 2.7 3.5 6.7 1.6-.7 2-2.3 3.4-2.7 1 1.3-1.3 2.5-.1 3.5.8.6 1.3-.7 1.8-1.3 1-.7 2-1.4 1.7-3.1-.1-.9-.8-1.8.9-2.4 1.3-.4 2.3-2 3.7-3.2.6 1.6-.7 2.8-.5 4.3 1.2.1 2.2-.7 2.3-1.3.2-2.2 1.9-.9 2.7-1.5.5.9 1.1 1.8.7 3-.1.4-.7.7-.3 1.3 2.3.2 4-3.9 6.2-1.7 2.6 2.1 5.9 3.1 7.8 6.3 4.9 5.7 13.1-1.8 19.1 2.1.4.2 1.2.5 1.1-.1-.3-1.8 3-2.2 1.6-4.1-1.6-2.2-.4-2.7 1.3-3 1.4-.3 3-1.1 4.1 1.1.1-2-1.4-3.5-.2-5.2 1.3-1.6 3.9-4.1 6.1-3.5 3.6 2.1 7.3-1.2 10.9.3 1 .4 1.2-.8 1.6-1.5.9-1.4 1.7-3.9 4-1.6 3.1 1.7-1.2-6.7 5.7-5.5 1.6.2 3.7-1.7 4.6 1.4.1.4.8-.2 1.2-.3 4.3-2 2 2 3 4.3.5.8 1 1.6 1.7 0 .3-1.3 5.3-4.6 5.8-2.9.2 2.4 1.6 2 3.1 1.6 1.3-.3 2.9-.1 3.4-1.9.4-1.6 3.2-1.4 3.3.2.3 2.7 2 1.8 3.3 1.2 3.2-1.7 3.2-1.8 4.8 1.5-.5 1.2-2-.6-2.2.8-.1.9.8 1.4 1.4 1.9 1.2 1 .4 4-1.3 4.5-2.4.3-1.1 3.6.6 1.7 3-.6 5.8.6 8.5-2.6-.3 5 3.3 1.8 5 4.3 1.8 3.6 3.2.2 4.2 2.1 1.1 2.8 1.6.4 2.3-1 .3-.5.8-.3 1.3-.2 3.3.9 6.9-2.9 9.9.7 2.1 2.5-2 2.5-2 4.4.3 1.2 2.7 1.4 3.1 0 .8-5 6.3-1.1 4.6-4-1.4-1.5-.4-2.2.7-2.9 1.5-.3 1.3-1.7 0-2.4-.9-.3-.7.7-1 1-2.3 2.8-5.1 2.2-7.5-.1-1.8-1.7 1.4-2.6 1.3-4.4 1.4-2.4 4.8.4 6.7 1.9-.4-1.9.2-3.4-1.1-5.1-1.8-3 .6-9.9 5-6.8 1.4 1.4 4.5-1.4 4.7 1.3 0 3.7 4.5.6 6.8 1.9 3.8.4-1.1 4.7 2.6 3.8 4.9-2.3.1-5.7 8.5-4.8 1.9-.1 3.8 0 5.6-.8 1.6-.5 8.5 3.1 5.1 5-.9.4-2.1 0-2.5 1.7-.3 1.4-2-.9-2.8.8.7 1.2 2.6.5 3.5 1.9-.8.8-1.9 1.6-2.9.8-3.9-2.7-4.3 3-5.6 5.3-.5.8 2 1.3 3.8-.1.9 1.3-1.4 6.1-2.6 4.4-3.5-4.3-7.8.8-12.8-3.3-.8.7-.4 1.5-.5 2.3-.2 1.3 2.4 3.1-.7 3.7-1.4.3-2.4 1.6-4.2 1-2.2-.8-6 .8-7.7-1.8-.6-1.3-1.8-.8-2.8-.5-2.7.5-.4 6.4-4.5 3.9-.8-.9-4.7-2.1-4.8-.2 0 .9.7 1.5 1.7 1.6.9 0 1.9-.3 2.9.5-.8 2.7-6 2-6-1 0-1-.5-1.7-1.5-1.8-2.2-.2-.4 3.5-2.9 2.8-3.8-1.2-7.5 4.9-9.8 3-1.1-1.9 2.6-1.7 2.3-3.6-.4-2-2.9-1.8-3.6-.1-2.1 3.2-4.6.4-6.6 1.1-.7 1.1.7 1.6 1.2 2.2 1.2 3.2 2.4-1.3 4.8 0-2.4 6.5 3.5 6.3.4 9.3-5.4 1.4-3.2 1.1-8.1-.5-2.2 0-4.7-1.2-4.4 3.1.1 1.6-1.6 3.1-3.7 1.8-1.3-1.2-1.6 2.3-2.8.3-2.7-2.1-.1-3.8 1.5-5.7 1.8-.7 1.4-2.2-.3-2.8-2-1.1-3.8.1-5.7.2-1.8.1-5.5-2.6-5.7-4.4-.1-1.5 1.1-1.6 2-2 1.5-.7 3-5.6 2.1-7.1-1-2.5-4 .7-4.6-1.8-1.6-3.9 5.8-3.4 1.9-6.1.2-1.8 3.1.4 2.5-2.1-.3-1.4-.1-3.5-1.9-3.8-2.1-.3-4.4-.7-6.1 1.2-.8.8.2 1.4.6 2 2.7 4.2-5.3 3.6-2.5 8.5.8 1.6 0 5.4-2.9 7 2.3 1.3 5.7 1.1 5.3 4.5-.3 1.6.8 3.5 3.1 3 3 7.6-7.6 4.4-3.8 9.8 1.2 1.2 1.5 2.7 1.1 3.9-1.1 3.1-8.3-1.2-8.8 2.3.5 2.4-1.5 2.1-2.6 2.6-1.2.6-1.6-.5-2.5-1.4-1.8-2.4-7.1.7-8.1-1.9-.5-2.6-4.1.7-5.2-1.5-.5-2.1 1.5-.7 3.3-.8-3.5-2.2-6.4-3.7-8.1-7-.7-1.3-3.5-2.1-5.3-3.2-1.2-.7-1.5.6-1.5 1.6-.4 7.2-4.5 2.4-6 8 2.3-.8 7-2.1 5.7 1.1-3.7 3.6 2.5 6.1.4 9.7-.8.9.7 1.8 1.2.7 1.5-3.2 4.2 1.7 7.1-1.5.8 1.2-.9 1.8-.6 2.7.7 1.6-.6 4.3 2.4 4.8.6.1 1.5.9 1.2 1.7-.4 1.1-1.8.7-2.6 1.5.7.3 1.7.4 1.9.9 1 4.5 9.1-.9 6.5 4.1-.8 1.2-.5 2 .9 1.5 1.2-.5 3.8 1.7 3.4-1.9.8-1.9 3.7 2.2 5.7.5.4-.2 1.2 0 1.5.4.7.6 1 1.6 1.5-.2.3-1.2 2.1-1 2.3-.4 1 3.2 3.7 1.5 5.4 2.4.9-1.6-2.1-1.1-1.4-2.7 2.4-3.6 3.5 3.4 12.3-3.3 5.9-3.3 3 2.9 6.7 3.3 2.5.9 7.6-2.1 8.1 1.2.4 1.4-.4 1.5-1.6 1.4-1.7 0-.7 1.5-.8 2.2-.1 1.1-2 2.1-.8 3 3.4.7 5.8-4.5 9.6-4.7 1.6-.2 1.3-1.8 1.1-3.2 4.2 2.3 8.7-1.9 7.8 4.7 4.9-3.2 4-9.9 13.2-8.4 1.5-.1 1.9 1.6.5 2.2-1.2.5-5.3 2.1-2 3.1 1 .1 1.1 1.1 1.9 1.6.5-.9.9-1.8 1.4-2.9.4 1.7 1.5 1.7 2.6 1.4 1.4-.4 2.6.6 3.6.7 2.8.3 2.9 2.6 4.1 4.1 1.3 1.6.5 2.9-.7 3.9-1.7 1.6-2.8-2.1-3.7-3.1-5.7 9.9-11.3-3.4-17.2 1.7-.8.6-.3 2.3.8 1.8 2.2-1 3.7 1.6 5.8 1.2 2 .9-2.1 3.7-3.4 3.1-.8-.3-1.2 0-1.9.5-3.8 2.9-4.9 2.7-7.2-1.7-1.9-3.2 0 2.7-6.7 1-1.7-.1-3.6-1.2-3.6 2.1-4.7.4-2.3 5.4-4.3 7.4-4.5 4.3-3.4-2.1-8.4 3.6-.7.5-1.3 1.9-1.9 1.5-2.1-1.4-4.2.8-6.2-.4-1.5-1.7.4-5.3-4-4.2-2.1.9-3.8 2.6-5.8 3.8-2.4 1.4 1 2.2 1 3.7-6.1-1.2-4.3 7.9-9.6 12.2 1.8.7 4.6-.6 5.2 2.5.3 1.5-1.3 1.1-1.9 1.7 2.7 7.1 11.6-3.5 13.8 3.8 1.1-.1 1-1.2 1.7-1.6.6-.4 1.8-.5 1.8-.2.4 2 3.2 3.5 2.6 4.9-1.3 2.9 1.7 2.2 2.2 3.5 2.3 2.3 4.1-3.2 6.8-1.3.4.2.9.6 1.3.5 4.4-1.4 6.6 4.2 10.7 3.7.3 0 .7.5 1.1.8 1.5-2.4-3.3-2.1-2.2-4.5.6-1.3 1.7-2.4 3.4-2.1 6.8 2.6 5.5-2 8.5 1.6 3.8 2.8 2.3-4.8 7.4-2.5 1.6.6 3.1.2 5.2.4-2.5 1.1-2.9 2.8-2.9 4.9.1 1.6-3.6 3 .2 4.7-1.6.5-6.1 6.6-4.4 7.1 2-1.9 2.6.7 3.8 1.2 1.1.5 2.1 1.9 3-.3.4-1 1.3-.7 1.9-.1 1.1 1 .2 2.3.4 3.5-.9 2-3.3-2.3-4.2 1.2-.4.9-1.4-.2-2.1.3.3 1.9 2.5.6 3.1 2.4-3.8-.3-5.4 3.5-8.6 4.7-.2.9 1 .9 1.2 1.7.2.7.2 1.3-.2 1.9-1.3 1.2-2.4-1.3-3.9-.1-.9-1.7-2.7-.3-3.9-1.3-5.3-3 2.2 8.5-4.1 8-.2 0-.4-.1-.5 0-1.3 4-3.3.2-4.9.5-1.5.2-.9-3.4.6-2.1 1.2 1.2 1.7-.9 1.2-1.7-.5-.8-1 .2-1.3.1-2.2-.8-4.9-.2-6.6-2.4-.8-1.1-2.9-.4-3-2.8 0-1.4.2-2.6 1.2-2.9 2.1-.7 2.7-3 4.5-4.1.5-.3.9-.8.4-1.5-.5-.6-.9-.2-1.4.1-5 2.9-7.4 2.5-11.6-1.8-.8-1.4-3.1-.1-3.6-1.8-.4-1.6 1.8-.8 2.1-1.7.5-1.6.5-3.4 1.3-4.9-1.4-1.3-1.4 1.7-2.8.9-.7-1.8.4-4.4-2-5.9-.6-.5-1.1-1.3-1.9-.5-1.6 3 5.5 3.5.4 7.1 4.8 1.4.3 2.3.5 5.4.8 2.1-.8 2.4-2 2.5-3.2.7.2-4.8-2.6-2.8-2.2 3.8-6.2 6.7-6.2 11.5.2 2.5-2 .2-2.8 1.5-.8 2-1.7 1.6-3.1.4-3-1.7-3.7 6.3-7.6 1.1-.6-.7-1.3-2-2.7-.2-1.9 2.2-4.4-1.3-4.3-3.5-.3-1.1-2.7-1.1-2.5.3.6 4.2-2.3 7.5-2.6 11.4.1.9-.2 2.6-1.9 1-1.9-.1-.7 2.6-2.3 2.7-4.1-.2-.2 2.8-2.5 4-1.3.2-1.1-1.5-1.9-2.1-.7-.6-.4-2.2-1.6-2.1-1.5.2-1.2 2-1.9 3-.8 2.6 6 .5 2.1 4.7-.2.2-.1.6-.1.8-.2 0-.2.1-.2.3.1-.1.2-.2.2-.3 2.6-.6 3 2.8 1.1 3.9-2.7.8-2.4-5.1-5-3.7-1.2 1.4 1.9 1.1 1.1 4.3-1.5-1.5-2.9-2.6-2.8.6 0 .8-.3 1.3-1.2 1.2-1.6-.3-1.2 1-1 1.7.4 1.3 1.1.2 1.7 0 2.3-.9 8.4-3.7 6.9 1.2-2 6.6 6.1-1.7 6.4 5.4-1.9.1-.2 1.9 0 0 1 .1 3-.7 3.7-.1-1.3 3.5 5.1 1.9 3.7 6.5-1.8 3.5-.8 14 4.7 9 1.8-2.8 7.6-.6 6.9-4-1.7-4.2 5.8-7.5 7.1-2.4.4 1.4 2.8 2 2.6 4.3.2-.8.2-1.9.7-2.4 1.2-1.3.4-6 4.4-3.1.2.1 1-.2 1.2-.5.9-1.6 1.9-.9 3.2-.5 1.6.6 1.4 1.6 1.4 2.9 0 .9 1 2 .7 2.7-.4 1.2.7 2.8-.2 3.3-3 2-5.5 7.2-9.5 3.6-1.8-.9-2.5 1.6-.6 1.8 1.5.3 3.1.2 4.5 1.3 2.7-4.8 7.4 5.5 8.6-1.8.8-4 9.6-2.5 7.1 2.6-.4 1.1-.3 1.4 1.2 1.9 8.4 3.8 6-5.9 9.6-1 1.5 1.2-.6 6-2.6 4.7-4.3-1.9-4.1 2.6-6.5 4.7 2.6.3 4.2 4.3 5.4 3.2 1.4-1.9-2.4-1.5-1.7-3.5.3-1.1 1.1-1.4 2.1-1.5 1.6-.2 2.4-2.2 4.4-2 1.4-.9-1.6-5.7 3.5-5.2 1.1.1 3.5.8 3.5-.9-.5-2-5.6 2.2-4.7-3.8.7-3.4 4.6 1.7 7.8-.3 3.3-1.1 7.1-.1 10-2.7.4-.4 1.7-.5 2.1-.1 2.3 2 3.9.5 5.6-.8.5-.4 1.1-1.5 1.8-.5.4.6 1 1.5.1 2.4-2.3 2.2.5 4.9-.8 7.3 6.5-8.8 9 .4 4.5 2.8 2.2.2 7.6-1 3.8-3.4-1.3-1.3-1-3-1.7-5.5 3.7 4.1 2.2-.6 5.3.7 3 .8 6.3-3.2 3.3-5.4-1.4-1.1 1.1-4.2 2.3-3.4 3.3 2.6 2.6-2.4 4.3-2.2 1.9.7 1 3.4 1.4 5.1-.1 2.9 2.3 4.9 4.9 4.2.5-.1 1-.2 1.2.3 2.7 4.3 6.6-1.3 10.3-.6 4.3 1.1 4.1-5.1.3-5.7 5.2-7.5 3.7.4 8.8-.5 3-.6 5.6-1.7 7.5-4.4.7-1.1 1.6-2.8 3.3-2.1.8.4 2.3.7 2.3 2.2.6 4.8-5.9 5.1-3.4 8.4.5.6.3 1.5-.5 2-2.7 1.4 1.2 3.3-.8 4.6-1.6 2.5 4.1 5.6-3.2 6.8-.1-1 1.6-2.1.2-3-1.6-1-5.5-4-6.6-1.3.1 1.6 4.6-.5 4.2 3.9-.2 2.9-6.3-.7-6.8 3.7-.2 2.7-3.4 4.1-4.9 2.3 1.4-1.4-1.1-4.3 2-5 .5-.1.8-.8.2-1.8-2.1 1.5-4.9 5.3-7.3 2-1.3-1.8-2.3 0-3.3.5-2.9 1.1-.5 2.3-.6 4.9 1.3-.5 4.6-4.1 5.2-2.8.3.6.4 1.7-.2 1.9-2.5.8-2.5 3.6-3.8 5.3-1.8 3.3-4.7-.2-7-.9-.4-.1-.6-.5-.5-.9.2-.8.7-1.1 1.4-1.1 4 0-.9-4.2.6-6.7.8-2.7-3.9-7-5.9-4.2 0 3 4.1-.3 4.4 3 .2 1.5-.3 2.3-1.6 2.5-1.3.2-2.5-.1-3.7 1-.5.5-1.2-.1-1.4-.8-2.5-6.5-7.6 4.9-12-.4-.7-.7-1.5-.4-1.6.7-.1 1.5-1.7 2-1.7 3.7 0 .8-2.6.8-3.5.2-1.7-1.3-2.3-.3-3.4.8-1.6 1.8-5.1 7.7-7.6 4-.7-1.4-.9.2-1.2.4-1.4 1.9-4.2-.1-2.9-2.1.8-1.6.6-3.2-1.1-3.8-8-2 1.1 9.1-16.2 5.7-1.1-.2-1.7-.1-2 .6-1.4 2.9-5.6 0-6.9 4-.5 1-1.8 3-2.6-.2-.3-1.3-3-1.4-1.2-4.4-4.8 4.9-2.1-2.6-5.8 1.3-.8 1.2-1.9 1.7-3.6 1.7 2.1 2.6 1 3.3-1.4 3.6-5.7-.5-6.8 7.2-10.4 4.6-.4-.3-1.2.3-1.4.9.3 1.5 2.8 0 2.2 1.9-.4 1.1-1.8.4-2.7.1-2.3-.9-4.1 2.9-6.1 1.8-1.8-1.6 2.6-4.9-.8-4.6-1.9-.1-4-3-3.5-5.1.5-2.3-1.4-4.6.5-6.7-2.9-.6-3.9-4.3-3.3-6.9 0-1.2.2-2.7-1.4-2.6s-.6 1.6-.9 2.5c-2.2-.2-1.4-3.6-3.6-3.7.1-1.2.6-2.5 1.8-2.3 4.4.7-.5-4 1.1-8.7-2.6 1.7-7.3 13.7-8.9 7.6-2 3.1-3.5 3.2-5.7.5-2.5 1.2-1 6.2 1.7 4.3 1.4-1 1.4 2.2.7 2.8-1.3 1.4-2.2-.2-3-1.2-.8-1.1-2.7.6-1.5 1.4 2.7 1.9-.6 3.4-.5 5.2 1.6 2.1 0 2.9-1.2 4.1s-1.9 2.8-4.1 1.6c-.7-.4-1.6 1.2-3.1 1.3-6.1.5-3.6-4.1-6.8-4.6-2-.2.4 3.8-2.1 2.4s-4.7.4-7 .5c-.7 0-1 .5-.7 1.2.5 1.5-.2 2.3-1.6 2.2-2.1 0-.9-1.4-1-2.4-.2-1.3-.2-2.1 1.1-2.8 1.2-.6.3-1.9-.3-1.9-1.7.1-2.4-1.4-3-2.2-1.5-2.2-3.2-1.6-4.8-.9-1.7.7.1 1.8-.1 2.9 1.1-.5 1.4-2.5 2.9-1.4 1.8 1.2 3.7 2.9 2.6 5.1-1.9 3.7.6 5.3 2.4 7.3 4.2 4-2.6 3-2.9 6.5-1.7-.8-8.2-.4-8.3-2.2.1-.8.8-.8 1.5-.7 1.5.2 2.2-.5 2.7-2.1.6-1.3 2.5-.3 3.3-1.9-4.8-.6-7.6 3.7-12.1 4.7 1.7.9 3.4.2 3.9 2 0 1-.6 1.5-1.3 1.6-2.6.3-1.9 1.4-.4 2.5-.9 1-2.4.4-3 1.9 1.6 1.1 7.9 1.1 7.5 3.5 0 .8 1.1.1 1.6 0 2-.5 2.6 2.7.3 2.6-1.7.1-2.9 1.7-4.7 1.7-.5 0-1.1 1.5-.6 2.2 2.1 1.7 5.1-3.9 6.5 2.4-1.1.5-1.4-2.3-3-.8-2.3 3.4 6.3 3.4 4.7-.1-.8-1.2-.3-3.8 1.2-3.9 2.2.6-1.6 3.8 2.5 3.9 3.4-.5 2.2 4.9 5.5 4.5 1.1-.2 2.7 0 2.8.7 2.4 9.8-66.1-8.7-73.4-10.2 5.2-13.4-4.5-5.2-6.2-8.1-2.4-4.8-12.1-2.1-5.4-9 2.2-1.7.5-3.9-1.3-1.3-3.4 3.5-2.9-2.7-6.1-3.5 1.2-.8 3.1 0 3-1.5-.1-1.4-1.9-.3-2.5-.9-1.4-1.2-3.7-.2-4.6-2.5-.4-1-.4-3.2-2-2.9-1.4.2.7 2.1-.9 3.1-.6.3-1.5-2.9-2.3-.3-.6 1.7-1.2 1.1-2.1.5-.9-.5-2.3.5-3-.8-2.2-3.8-3.1-3.8-5.5.3-.9.7-1.6 3.2-3 2.3-1.1-.7 0-1.8.1-2.6 1.2-2.3 4.2-3.3 6-5.4.5-.4.9-1 1.7-.5.6.4 1.4 1.2 1.6-.2.1-.8 1.1-1.7-.4-2.7s-3.2-1.8-4.5-3.1c-.4-.4-.2-1.4-1.1-1.3-1.5.3-1.4 2.2 0 2.6.4.3.9.4.8.9-.7 1.6-3.4.4-3.3 2.3.2 1.6 2.8-.3 3.3 1.4-1.3.6-2.5 1.3-3.2 2.9-.6 1.5-3.2 1.3-3.1.1.3-4.1-2.3-1.6-3.7-2 0-.8.1-1.7.1-2.6 1.9.6 3.7 1.2 4.3-1.6 5.1-3.9-3.2-5.8-.4-2.2.6.6.3 1.4.4 2.2-2.8 1.1-5.4-.8-8.2-.7-.5 0-.8-.5-.7-1 .5-2.2 3-.2 3.4-1 .3-2.7 2.8-2 4.2-3-2.2-1.3-8.7 1.4-12.1 5 3.2-.9 4.8 3 1.1 3.3-1.6.2 1.1 2.2-.1 2.6-2.5.5-4.6 3.3-7.6 1.4-2.8-1.8-1.4 1.6-1.6 3.1-8-4.9-16.4-9.7-23.4-15.9 1-.2 1.9-1 3-.3.5.3 1.5.2 1.3-.4-.6-1.5 1-3.1.1-4.2-2-2.5-2.2-6-4.8-8-.8-.7-2.2-2.3-1.5-2.8 2-1.3 2.2-4.3 4.7-4.8 1.8-.4 2.3-1.3 1.1-2.8-2.5-2.8-.5-6.7-2.6-9.6-8.9-13.7-17-28.2-22.4-43.6-1.9-4.2-6.4-6-7-10.9-.3-1.2-1.3-2-2.6-1.6-2.3.9.6 3.9 0 5.7-.3 5.5 4.3 9.6 3.6 14.6-.6 4.7-.7 9.4-.6 14.1 0 3.8 3.8 6.7 1.7 10.5-2 .3-2.4-2.2-4.2-2.8 1.6 5.4-3.1 9.5-.8 11 1.4 1.3 2.2-.3 1.5-1.6-.4-6.7 2.3-.6 3.7-4.9 1.2.7 2 3.3 3.5 2.5.8-.5 1.3-1.3.6-2.2-1.4-1.6-.7-3.5-.7-5.2 0-.6-.3-1.5.5-1.8 4.1 1.1 1.7 7.6 3.7 10.4 3.5 5.3-.5 11.5 2.3 16.6-.1 5.8 6.3 6.5 8.5 10.1.3 3.1 1.6 5.5 3.3 7.8 0 0-.2.3-.3.4-19-15.6-34-36-44.3-58.4 0-1.7 1.8-2.4 1.8-4.2-.1-4.7 2.1-9 3.6-13.1 1.2-3.1.4-7 4.1-9.3-2.3-.6-3.9-.3-4.2-2.7-.7-2.8 3.6-.1 2.4-2.7-1-1.2-.7-2.8-1.6-4-1.7-2.4-2.5.6-3.6 1-5.9 1.4-6.9 8.4-11.5 11-1.8-3.2-1.5-7-2.7-10.4 2-2.3 5.5-1 7.5-3.5 3.3-2.6.3-3.4-2.8-3.2 3.6-2.4.9-4.2.3-6.2 2 .7 2.3-2.5.2-2.4-4.5-.9-2.7 5.7-6.7 5.7-1-3.6-1.3-7.3-1.5-11 1.8 1.8 4.4 2.1 5.9.9 3.2-3.1 5.8 2.3 8.7 1 .3-3.2-6.6-4.1-1.5-6.9-7.4-1.7-5.2-10.2-13.6-8.6-1-8-.5-15.9 1.2-23.8 1.1 4.2 2.5 12.6 6.9 13.7.7-.4 1.2-.9.8-1.6-2.5-7.1-5-14.1-6.1-21.5 1.8-16 7.6-31.3 13.6-46.1.3 6.1-2.8 11.8-1.6 18 .9-.7.6-2.1 1.3-3 .8 1.9-.9 3.6-.1 5.4 2.8-5.2 2.5-11.5 5.8-16.3 1.7-7.2 3.2-15.1 6.2-21.7 1.6-2.3 5.7-9.9 4-12 10.5-17.9 23.7-35.4 39.3-49-.1 3.4 5.2.6 6 3.1 0 .8-.1 1.8-1.1 2.2-2.7 1.1-3.2 4.7-5.9 5.8-.4.2-.4.8-.2 1.3.6 1.9-.6 2.6-2.1 3-6.2 1.6-2.1 5.5-3.7 9.1-2.8 4.1-3.6-3.5-5.8.1-1 2.2-3.1 3.2-4.5 5-6.6 6.3 3.8 11.6-1.7 15.3-3.5 2.6.9 8-2.5 10.7-3.6 11.3-5.9 4.9-7.5 15.5-.8 2.2-1.2 4.1-3.1 5.8-2.1 1.8-2.2 5.2-3.5 7.8-.5 1.9-2.8 7-.8 8.3 2.1 1 .8 1.8-.3 2.2-4.6 1.4-.2 3-.3 5.5.1 1.9-.2 3.9 2.5 4.3 1.3.2.1 1.7.8 2.5 1.9-1.1 1.5-5.6-1.1-4.1-1.5.4-1.1-2.2 0-2.3 2.5-1 3.6-3.7 6-5 5.5-2.2 4.3-11.2 6.8-9.4 1.6.7 1.3-1 1.1-1.6-1.6-3 1.4-3.7 2.4-5.6-.9-2.8 1.8-1.4 2.5-2.3.3.1.3 1.5 0 2.1 0-.1 0-.1.1-.2zm196.5 15.2c-.1-.5.2-1.2-.5-1.5-1 0-.5 1.7.5 1.5.3.9.1 2.3 1.7 1.9.5-.1 1.1-.7.8-1.3-.6-1.1-1.7-.5-2.5-.6zm-68.5 176.6c.1-.6-1.1-1.5-.9-.5.2.3.6.4.9.5-.5 4.4-1 6.7 4.2 6.5 1.6 0 3.1 0 3.8 2.1.7 2.2 4-.4 1.6-1.4-.5-.4-1.6-.9-.6-1.6 2.2-1.3.4-2.8-1.4-3-.8-.2-1.5.9-2.3.2-.5-.9 1.2-1.4.2-2.6-1.7-.2-3.6-.2-5.5-.2zm2.8-163.7c-6.5 1.7-.5-2.1-3.6-3.6-2-2.1-5.6 2.6-6.4 4.2.5 1.6 3.3-.6 3.3 1.4-.1 1.9-5.4-.9-6.1 3.9.1.8.3 2.5-.5 2-2-1.2-3.8 2-5.4-.2-1.3-2.8.9-6.1 4-6.5 1 .1 2.9-.4 2.7-1.8-2-1.8-4.9 3-6.8-1-1.6-1.3-4.7 2.3-6.8 1.3-3.2.2-8.7-2.2-9.5 2.4-1.3-1.5-3-4.6-4.6-2.4-.8 2.1-4.5 5.5-2 7.4 3.1 1.2 2.3-4.7 11.2-1 2.7.1.2 6.1 4 3.6.4-.3.7-.9 1.6-.5-.7 1.9 2.2 2.7 1.5 4.9 2.5 1.4 6.4-1.3 8.9-2.3 1.8-.8 3.6.7 4.8-.3 1.3-1.1 3.3-3.4 4-2.9 3.6 2.3 1.9-1.7 2.9-2.4 1.8-.9 3.9.2 5.8-.9 2.9-3.1 9.5-4.3 9.3-9.4 2.4 3.3 5.4-1.1 5.3-3.4-1.2-1.4-4.7-2-5.9-.6-2.1 2.6-3.9 1.2-5.8.1-.7-.4-.8-1.8-1.9-1.3-1 .5.5 1.6-.5 2.5-.8-.7-1.5-2.4-3-1-.9.8-1.4 2-.6 2.8 1.7 1.8.6 3.3.1 5zm-67.7 160.9c2 2.3 8 7.5 7.2 10.6-.6 1.5.1 2.4 1.5 2.8 4.2.1 4.9 4.6 7.3 3.9 1.7-.8 3.8.1 5.3-1.4.4-.4 1.3-.4 1.5.1 1.2 3.2 3.8 1.7 5.8 2 1.5.3 3-.3 3.5-1.8 2.2-4.6-1.8-5-1.1-7 1.4-.4 1.9-2.7 3.2-2.2 1.7.7 3.7.7 5.2 1.8 1.4 1 .2 2.3.4 3.5 3.2 7.6 11.1 2.4 11.1-3.8-.3-1.3-1-.8-1.7-.7-2.3.2-1.2-2.5-2.6-3.3-.6-2.4 5.4-.5 5.8.6-.2 2.5 2.8 1.7 2.9-.3.4-1.4-.7-4.3 1.1-4.6 1.2 0 1.1 1.1 1.1 2-.1 1.6.3 2.8 2 2.9 2.4.1 1.7-2.4 2.4-3.6 1.5-3.1-3.7-1.2-2.9-3.8.4-4.6-3.2-.7-5.3-1.7-2-1.1-3.9.3-5.4.9-3.4 1.3-5.1 1.5-7.9-.8-3.9-3.6 4.7-5.1 6.4-7.6 1.6-1.2 1-2 .4-3.4-.7-1.7-2.8-1.1-3.5-2.4-1.1-2.2-2.9-2.1-4.2-1-2.5 2.1-4.7.9-7 0-2.5-1.7-6.7-.8-7.9-4.1-6.1 5 2.2 8.7-3.6 8-1.1-.2-3.2-.2-3.2 2.1 0 .6.7 1.3-.1 1.8-.9.7-1.3-.3-1.9-.7-.8-.7-2-.9-2.3-2.3-.8-1.8-3.4-1.1-3.6.9-.1.6.2 1.8-.7 1.6-6.2.5-5-5.7-8.2-2.3-.8.9-2-.4-2.8-1.2-.3-.3-.6-1.1 0-1.1 1.4-.1 2.1-1.2 3-1.9 2-1.7 6.6-1.8 4-6.6-.4-.8 1.3-2.5.5-3.2-2.6-2-4.2-5.4-8-5.6-2.2-.1-5.1-4.9-4-6.3.7-1.6 3.6-5.8 1.9-7-2.4 0-4.1-4.1-6.8-1.2-.6.6-.9 0-1.3-.4-3.2-3.9-8.7-1.3-12-4.9-1.2-2.3-5.4.5-5.2-1.8 0-4.5-5.1-1.6-7-4.5-4.6-5.7-11.9-1.4-17-5.7-3.4-2.4-7.8-5.2-12.1-5.8-3-2.8-6-6-9.3-8.6-1.5-1.4-2.9-3.2-5.3-3.3-.4 2.7 4.2 1.9 3.6 4.5-.3 1.1-2.3.7-3.5 1.1-6.9.4 3.6 8.9 5.1 11.2 8.6 7.9 12.3 22.9 25.1 25.2 3 .3 4.9 2.3 6.3 4.9 1.3 2.5 5.7 4.7 8.5 4.1.7-.1 1.9-.6 1.8.4-.5 3.2 2.2 4.4 3.5 6.5.6 1.4 1.5.6 1.9-.5.5-.8-1.2-2.2.3-2.4 1.7-.3.9 1.4 1.1 2.3 4.6 1.8 5.2 7.9 9.6 10.6 7.8 1.2 7.6 11.3 14.7 13.9.3.8.6 2.7 1.9 2.6.8-.1-.7-1.4.5-2zm77.6-68.8c.1 3.9-1.4 15 3.8 13.6 1.7-.6 3.2-1 4.9.1 1.2.7 3 .2 3.3 2.3.4 1.4 6.9-.6 8-1.5 1.1-.9 2.2-.6 3.6-.1 2.3.9 5 2.3 7.2-.6.4-.5 1-.6 1.5-.1 2.3 2.3 5.2 1.1 7.8 1 5.9.7 5.5-6.2 7.3-2.7.5 1.4 2 1.6 2.8 1 1.3-.9 3.3-.2 4-2.6.6-1.9-1.1-3.5-.1-5.2.3-.6.8-1.4 0-2.1s-1.9-.7-2.6-.1c-3.3 1.9-7-.9-10.6-.2-6.8.5-12-10.3-18.2-7.3-3.3 2.2-5.5-4.3-9.1.5-3.6 2.4-8.2-.5-12.1 1.3-5.9 3.4-6.5-7.8-12.1-4.3-.8.5-1-.6-1.5-.9-1.4-.9-3.1-.6-4.6-.6-1.2 0 .4 3.9-1.5 3.2-4.3-2.2-3.7 5.4-7.5 3.9-3 .1-5.8 2.4-9.1 1.4-1.1-.1-1.9.1-2-1.2-.4-2.2 1-3 2.9-3.2.7-.8 2.7-.5 2.3-2-.3-1.2-1.9-1.3-3.2-1.3-1.2-.1-3.2 1.4-4 .1-1.5-4.5-5.3 2.2-7.6-1.4-2.3-3-8.2-2.5-9 1.5-.2 1.7-2.9 4.3-4.1 3.4-2.7-2-5.2.3-7.7 0-1.1-.1-1.6 1-.7 2 3.2 3.4 5.9-2.8 9.1-.1 1.6 3.7-3.1 9.4-.8 13.5 1.5 2.4 5.3 1 6.7 4 .3.7 1.4-.2 2.1-.2 2.1-.1 3-2.2 4.6-3.1 6.8-2.5 2.5-9.3 6.5-6.8 11.5 9.4 14.6-1.2 22.2 3.6 2 1.8 3.9 3.8 6.8 4.2.7.1.8 1.2 0 1.6-1.2.6-2.3 1.8-3.5-.3-1.7-2.8-8.3-4.6-11.4-4.1-3.3.5-6.1 2.8-9.5 2.4-3.4-.2-3.6 4-6.3 4.8-8.2 4.6 5 10 3.7 5.2 1.9-1.1 6.8 1.8 7.4 3.7.4 1.6 1.2 2 2.7 1.1 1.4-.8 3.1-1.7 4.4-.6 2.5 2 4.8 3.8 8.2 2.8 2.8.5 4.7-.9 4.1-4-1.4-4.4 2.3-4.3 2.6-7.5-1.2-5.8 6.4-1.6 6.7-5.9-.4-3.1 1.7-7.3-3-8.9-.7-.5-2.2-2.1-1.4-3 2-1 2.3 3.4 6-.3zM81.9 250.4c-.1-1.7 1.7-2.8.2-3.6-1.4-.8-2.1.9-3 1.5-1.9 3.4-4.6 5.5-8.2 6.8-3.7 3.5-14.5 7.4-13.8 12.9.3 1.4-1.1 2-2.2 2.7-1.3.8-1.2-.4-1.5-1.1-1.9-2.1-5.4 3.4-7.2 4.4-1.6 1.7 4.1 2.3.3 5.2-1.7 1.4-1.7-2.1-2.7-.7-.7.9 1.7 2.4-.5 3.3-1.2.5-.8 1.5-.5 2.5.9 2.4 6.8-.2 8.2-1.6.6-.7 1.4-1.5 2.7-1.3 4.1.4 7.1-3 9.8-5.2.9-4.9 4 1.1 6.5-.6 4.2-3.4 10.7-1.4 13.8-6.6.4-.7 1.1-.7 1.9-.9 5.2-1.5 10.9-.9 15.3-5 4.2-3.7 14.1-.9 14.9-8.3.1-2.6.7-4.6 3.5-5 2.1.1 1-3 3.1-3 5.4 0 2.5-5.7 5.8-6.9 1.9-.2 3.5-1.8 5.7-.8 2.5 1.1 2.9-4 1.9-5.5-2.2-3 3-2.3 2.3-3.7-1.3-.7-1.8-3.8-2.9-2.6-1.8 2.1-3 2.6-5 .7-2.7.2-5.2-.9-8 1.1-4.6 3.2-10.2 5.3-14.3 9.4-3-.1-4.7 2.1-6.6 3.9-.9.8-1.7 1.3-2.6.2-1.4-1.7-2.8-1.2-4.2-.1-4.1 3-8.1 4.9-12.7 7.9zm108.7 32.7c0 3.3 2.8 3.8 3.8 5.9.9 1.9 3 .3 4.3-1.1.9-1.1 1.5-2.3 3.6-1.2 3.9 2.4 7.7-2.5 11.7-2.1 1.8 0 4.3-.6 4.3-2.4.1-4.4 4.1-1.8 6.4-2.4 3.8-1.4-.6 4.6-.3 6.3-.5 2.2 2.7 3.6 3.4 1.3.2-.6.3-1.8 1-1.5 4.8 1.8 1.5-4.8 4.5-5 3.8-.3 1.2 2.9 3.8 3.2 3.7-.7 1.5-9.2 6.7-6.5 1.4.6 2.4 2.3 4.2 1.9 2.7-.8 2.8 2.6 0 2.1-1 .1-2.3-.2-2.4 1.3-.2 3.3 3.8 2.6 4.7 5 3.4 3.6 11.8-9.5 14.9-6 5.6 3.3 5.5-8.7 14.2-6 1.7.7 4.4-1.8 2.5-3.2-1.3-.9-6.2-.6-7.7 0-1.6.6-3.5-.4-5.1.6-1-1.4-.3-3.2 1.5-2.2 2.2.9 3.6-2.6.9-2.9-1.9-1-3.7-2.6-5.2.5-.1.2-.5.2-.8.2-6-.7-9.2 7.3-12 2.2-1.4-1.3.4-1.4 1-1.8 2.3-1.6.8-3.7.7-5.6s-1.9-1.6-2.8-1.7c-4.4-.3-3.3 6.1-6.9 2.7-2.8-.9 2.3-2.5.5-4.7-.6-1-1.5-.2-2.3 0-2.4.7-2.4 3.6-4.3 4.9-1.4 1-1.5 2.6.6 3.4.5.2.9.3.8.9 0 1.4-7.3-2.2-7.5-3.3-.7-1.1-2.1-2-2.6-.7-.9 2-2.6 1.7-4 2.8-.3-1.2.3-2.9-1-3-.5.1-.9.5-.8 1 .9 4.1-2.8-1.9-10.1 3.7-7.8 6.1-10.3-2.3-10.5 2.3.2 2-1.6 2.1-2.9 2.5-3.6.6-.8-8.2-5.5-4.7-.3.2-.6-.3-.8-.6-2.1-3.9-5.7-2.5-9-1.7-4.4-.5-8.9-1.1-13.2 1-1.6 1.2-3.5-1.1-4.7.4-.3.6 0 1.2.4 1.6.5.5.3 1.6 1.2 1.8.7-.3.5-1.5 1.6-1.4 3.6.1 6.8-1.5 10.5-1.3.7 2.7 2.7 2.1 4.5 1.8.6-.1 1.2.1 1.2.9-.3 2.2-4.9 1.2-6.3.8-4.5-1.3-1.1 6.7-4.2 8-.9-.9 0-2.7-1.7-2.7-.8 0-1.5 0-1.9.8-1 2.9 2.9 4.2 2.4 7.4-.1 1 1.2 2 2.5 1.8 3.8-1.4 2.7 4.4 6.7 2.8 1.6-.8 3-1.8 4.8-.8.1-1.9.2-3.8.4-5.6-.4-.6-.2-.8.3-1.7zm-101 6.4c-.8-1.2-1.9-.7-2.7-.9-.6-.1-1.6.3-1.7-.6.3-2.5 4.5-1.8 6.3-2 2 .2 3.7.7 2.6-2.5.8-1.4 3.3-1.8 4.6-.4.7.7 1.7 1.8 2.7 1.2 4.5-2.5 9.8-1.4 14.5-3.2 2.6-.2 2.7-5.1.5-5-2.1 1.3-4.3.2-6.4 1-2.4.9-4.2 3.4-7.1 2.8-.8-.1-1.7 0-1-1.2 1.2-2.5-.5-2.2-1.9-2.3-8.2-.2-15.2 7.9-23.5 4.8-.4-.2-1.3-.2-1.6.1-2.9 3.1-7.7 1.7-10.4 5-.2.2-.5.2-.7-.1-1-2.1-1.9-.3-2.6.2-1.9 2.2-4.2-.2-6.1 1.4-1.4 1-6.8-1.3-2.9 3.9-2.6 1.7.2 3.9-.3 5.8-.9 0-2-1.3-2.4.2-.3 1.4 1.2.7 1.8 1 .7.4 1.3.8 1.9 1.1 2.4 1.9 2.5-2.2 3.8.2 1.3 1.5 2 4.5 4 4.9 3.6-1.5 6.6 2.7 9.6 1.9 1.3-1.6 2.6-.9 4-.3 5.3 2.1 11-.1 16.2 1.8 3.2 2.7 9.4.9 11.3 3-.9 3.2 5.7 3.2 7.3 4.3 1.7.9 3.7 1.3 5.5 2.3 1.5.9 2.8 3.1 4.7 2.5 3.8-1.2 10.3-.6 7.8-6.3-.8-3.7-3.3-.2-4.4-1.4 1.9-2.7.7-7.3-3.2-5.4-2.9.2-9.3 3.8-11.1 2.8-3.9-3.7-19.7-6.1-25.2-5.3-3.7.8-6.7-2.1-10.3-2.4-1.1-.1-1-1.5.1-1.6 1-.6 2.3.4 3.5-.7-12.3-6.9-7.1 5.4-14.8 0-.9-1.1 3.3-1.4.2-3.1-2.7-.7-2.2-7.9.5-5.8 1.5 2.2 2.5.7 3.5-.2 1.6-2.3 3.3.8 4.9-.8.5-.4 1.2-.6 1.4.1 1.8 3 13.5.2 17.1-.8zM88.1 402c7 4.3 1.5-4 6.7-3.3-.5-1-2.1-1.7-1.5-2 2.2-1.2 4.2-7.1 6.7-3 1.2 4.5-7 .3-2.2 5.9 1.3 1.4-.9 2.9.8 3.9 2 .3-.6-1.8 3.4-2.3 0-2.1-3-.8-1.6-2.9.7-1-.1-2.4.9-3.2 2.4-2.8.5 3.1 5.2.2 2-.2.6 5.1 6.6 5.5.9 1.3 2.4 3.2 4 3.4 1.6.1.5-2.5 2.6-3.3.7-.5.9-1.1.4-1.7-1.7-4.3-1.3-5.5-6.4-7-.1 1.5-1.4 2.9-.6 4.5.4.7.7 1.2 0 1.7-1.1 1.2-3.3.4-2.6-1.4.6-1.3.2-2.2-.7-3.3-3-4 5.1-.7 2.4-4.5-.9-1.5-1.7-3-2.1-4.9-1.2-3.7-6.3-1.4-8-3.8-1.9-2.6-1.1 2.2-2.6.8-.5-2.1-3.1-3.1-3-5-.3-5.1-5.7-5.5-6.7-10.1-5.5 4.7-5.3-1.4-8-3.9-1.3-3-7.6-.9-6-6.5-2.5-.2-4.1-2.2-6.2-3.5-2.9-.7 0 2.9.4 4 1.8 2.5-2.2 1.4 0 3.8 1.5 4.7 8.5 2.6 8.3 8.3.3 1.3 3.3 2.3 2.4 3.7-.8 1.1-1.3-1.2-2.3-1.4-5.3-.2-3.8-9.5-10.3-7 10.4 3.8-.1 4.4 7.9 8.4 3.2 1.8-.6 4.2 1.7 5.2 1.7.5 1.4-3 2.7-3.3 3.1 2.5-1.6 4.3 2 6.4 6 3.7-1.9 3.1.7 6.9.8 2.1 1.1-1.7 2 0 2 4.4 7 4.7 3.6 9.9-2 3.3 4.5 1.8-.6 4.8zM65.7 217.5c-3.5-2.9-10 2.7-10.1-3.8.4-2.3-1.8-3.1-1.6-.4-3.6 5.2-6.7 10.5-9 16.7-3.9 7.1-5.5 14.9-8.8 22.2-.7 1.8-3.2 4.4.4 6.2.4.2.5.7.2.9-2.4 1.7-.4 4.9-2.1 7-.9 1.1.5 1.7 1.6 2.1 3.4.1 3.8-14 9.5-16.8 1.6-1.2 2.7-3.8 4.1-4.4 5.5-2.5 6.4-8.7 10.1-12.5 2.3-2.2-1.3-4.1-1.9-.9-.4 1.7-3.1 4.6-4.6 3.5-.8-.9-.3-1.6.4-2.3 4.2-4.3 6.7-10.1 11.7-13.8 1.6-1.2 2.8-3.7 2.6-6.3 0-2.5-3.9-1.8-2.4.4 0 .6.6 1.1-.1 2.2zM217 152.6c-.4 2.5.9 2.6 2.4 1.6 2.2-1.3 5-1.2 6.8-3.4.3-.4.7-.8 1.1-.3 1.4 1.3 3.1.5 4.6.9 2.2 1 2.5-1.4 1.1-2.7-.4-.6-1.7-.1-1.4-1.4.1-.7.7-1.9-.6-1.6-4.5-.9-1 2.5-4 2.9-2 0-3.7.9-5.6 1.4-2.6.7-4.8-1.5-7.5-.8-.9.2-2.3-1.4-1.5-2.5 4.5-7.4 5.7 0 8.3-6.1.4-.8 2.5-.4 2 .6-2.2.7-1.4 4-3.8 4.4 1.9 2.3 4.8 3.5 5.2-.4.1-1.7-.6-4.3 2.2-4.1 12.7-5.4-2.9-5.6-7.4-2.8-1.8.9-2.8 3.4-5.4 3.2-.3 0-1 .5-1 .9-.1 4.2-5.7 2.5-6.1 5.6.5 2-.4 2.1-1.8 2.1-3.2 0-1.8 5.4.9 3.8 1.1-.3 2-1.4 3.3-1.2-.2 1.1-1.3 1.1-1.5 1.9-.7 2.6-2.6 2-4.3 1.9-3.4.3-2.1-6.4-5.5-4.5-2.5 1.2-7.6 1.5-8.1 4.8.4 1.2 1.2 0 1.8.1 1.1.2 2.6.4 2.8 1.6.2 1-1.4.9-2.2 1.3-1.4.7-3.1-.3-4.7.9 1.9.1 3.1 2.4 2.4 4-.9 1-1.7-.2-2.6 0-1.7.5.9 1.8-.5 2.1-4.6-1.8-5.3 3.8-2.9 2.7 1.6-1.3 3.2-.6 4.5 0 5.5 2.8 8-7 11.1-4.2.2.2.9 0 1-.2 2.3-2.7 5.5-1.6 8.2-1.9 2.2-.3 3.2-2.2 5-3 .6-.3.2-1.5-.8-2-.8-.3-.7-1.6-.1-1.4 5.4 1.6 1.3-4 4.6-4.2zm-68 135.6c.9-1.3 1.4-2.7-.2-3.7-1.9-1.2-1-4.1 1.3-3.6 2.9.2 1.5-5.7-.4-4.4-1.8 2.8-3.7 1.2-5.7.6-2.8 2-4.3.9-5.2-2-.9-2.5-5.2-1.4-3.8 1.2.5 1.3-.3 1.8-1 2.4-2.3 2.4 1.4 2.2 1.6 3.7.2 1.2 1.2-.1 1.7-.7 1.7-2.2 5.9-1.6 6.3 1.2.3 2 1.3 2.5 2.7 3.2-6.1 1.5-6.1-3.1-8.3-.8-.9 1.1 0 1.9.8 2.6 2.9 3.9-3.8 2.8-5.5 1.2-.6-.3-1.1-1-.7-1.9 2.2-4.7 2.2-4.7-2.9-5.4-1.6-1.2-5.1.6-2.9 2.2.4.3.7.9.1 1.2-2.6.9-4.5 3.5-7.5 3.7-1 0-2.6-.5-2.5 1.3 0 4.4 5.4 1.4 6.9 4.9-.8.4-2.2.1-1.7 1.7.2.8 1.5.8 1.3 1.8-.4 1.9.9 2 1.9 2 1 .1 2.4.7 2.8-1 .4-1.6 1.1-.9 2-.6 5.2 1.5 3.8-3.3 7.6-4.7 2.1-1.7 5.5-.5 7.2-3.3.2-.4 1.3-.3 1.4.3 1 4.2 3 2.3 5 1.1 3.2-1.1-.3-3.9-2.3-4.2zM38.5 191.1c-3.7-4.7 2.8-8.1.4-11.6-.8-.3-1.4.6-1.6 1.3-1.1 2.6-4.4 2.7-4.1 6.1.1 4-3.8 6.5-4.4 10-.4 5.7-2.3 11.1-3.7 16.6-1.1 3.1 2.6 3.9 2.4.7-.8-4.9 5.4-6 5.4-10.5.4-.7 2 .6 2.4-.8 4.4-8.2 8.1-16.9 11.2-25.5 2.4-3.9 8.8-7.9 4.6-12.7-.3-.4-.4-.9 0-1.3.5-.7.9-1.3-.1-1.9-2.6-1.3-2.9 2.6-3.9 4.1-.2.6-.3 1.3.6 1.1 2-.4 1.5 1.4 1.7 2.3.4 1.5-.9 1.3-1.8 1.5-4 .6-8.4 16.1-9.1 20.6zm204.8 190.1c2.5-2.1.7-5.8-2.3-5-2 .6-3.8.1-5.5-.6-6.9-2.5-11.1 5.4-2.6 7.3.8.1 1.2.6 1 1.4-.7 2.6-8.7-3.2-7.6.7 1 1.3 2.5 3.1 4.1 2.1 4.8-3.7 6.6 10.1 7 13.2 0 6.2.4 6.2 5.6 3.1 2.7-1.1 4.1-5.1.1-5-2.6-.8-3.2-3.3-3.4-5.4-.3-2.5 2-1.1 3.1-1.5 5.3-3.1-7.7-2.7-7-5.8.4-.8.9-.3 1.3 0 1.3.9 2.5.3 3.7 0 5.4-2.3 9 3.6 13.8 5.4.7.4 1.5.5 2-.3.9-2.1-5.2-2.1-2.4-5.9.3-.4.1-1.2-.5-1.5-2.2 0-2.1 4.9-4.1.1-1.1-3.2-3.9-1.2-6.3-2.3zm33.8-58.9c1.2.1 1.3-.6 1.8-2.4.9-3.2-4-4.5-1.8-7.7-6-7.3-5.3 3.9-8.2 1.5-3.4-2.1-4.3 2.6-6.2 4.4-3 1.3-1.9 4.7-4 6.6-3.6 1.5.6 5 2.5 4 4.5-3.9 14.6 2.7 16.1-.4-.1-1 .7-2.9-1-2.7-3 .5-2.1-4.4.8-3.3zM155.7 174c-1.8-1.5-1.9-3.8-3.7-4.8-.6-.3-.4-1.2-.2-1.9.3-.7 1.5-1.4.6-2.3-.7-.7-1.5.5-2.3.6-3.1.5-4.7 4.3-8.4 3.9-2 0-.5 5.7 1.4 3 .9-1.2 2.3-.5 3.3-.9 2.2-.8 3.7 2.9 6 .9.6.7-.1 2.1-.7 2.7-1.2 1.7.1 2.5 1.1 3.3 1.4 1.1 1.5-.3 1.7-1.2.5-2.2 3.3.8 5.6-1.6 1.1-.7 2.5-.9 2.7 1 .3 2.6 1.9 1.8 2.6.8 1.6-2.2 4.1-3 5.8-5 2.8-3.4 7.4 1.5 9.3-4.2.6-.8 0-1.8-1-1.3-.8.4-1.5 1.4-2.5.4-1-1.5 1.7-2 2.8-1.7.8.3 1.8.6 2.1-.4-2.2-4-10.7 2.9-15.1.5-.8-.2-1.3 0-1.4.9-1 4.1-7.9 1.8-9.7 7.3zM36 286.5c.6-5.2-8.9-9.9-10-3-.5 6.1-1.6 15.2 4 19 2.4-.6 3.9 4.4 5.1 1.4 2-5.7 2.2-11.5.9-17.4zm-10.7-51.2c-.9-1 .1-2.9-1.6-2.6-1.2.2-2 1.5-2.2 2.7-1.5 5 3.6 2.3 2.7 7.9-.4 7 2.2 14.1.4 21-.7 3.1 3.2 0 2.7 2.5 2.7 2 1.1-8.6.4-9.3-1.8-2.9.2-4.2.5-6.7.3-3.3.3-6.5 2-9.5.8-1.5-.6-3.2.1-4.8-1.8.2-2.7-1.5-4.1-2.2-.1-.2-.5.5-.9 1zm139.9 43.5c.5 1-.7 2.1.4 2.6 3.7 1.4 6-4.1 3.8-7.1-1.5-2.4-4.2-1.4-6.1-.4-1.9-1-3.1.1-4.5 1.3-1.1 1.8-5 .4-5.2 2.5-2.2 7 6.6 9.8 9.2 3.3.5-1.2 1.4-1.5 2.4-2.2zM141 180c.5 0 1.7.7 1.3-.3s1.3-2.3 0-2.4c-1.4-.1-2.9-1.1-4.4-.3-4.5 2.4-.3 3.8-1.8 5.8-1.1 1-1.6 0-2.3-.6-1.8-1.4-3.1.2-4.3 1-2.1 1.5 4.1 4.5-.9 6.6-1.4.3-2.7 1.6-2.3 3.1.2.5.8.6 1.2.3 2-1.4 4.4-.7 6.5-1.6 3.7-1.2-1.8-2.1 4.6-6.7.3-.4 1.1-.5.1-1.1-2-1.3.4-4.5 2.3-3.8zM30.3 327c-2.7 6.1-3.5 11.8-4.4 18-1.1 1-.7 3.8 1.2 3.2 2.9-2.6.2-7.4 3-10.4 2.2-2.4 2.4-7 .2-10.8zm21.2-64c2.3-2.4 14.6-10.7 13.7-13.3-.9-1-1.9 0-2.6.8-1 3.4-19.2 10-11.1 12.5zm91.8 66.9c-2.7-1.7-5.6-2.1-11.6-1.8-3.4-.7-1.5 2.9-.3 4.2 1.5-1.4 2.8.4 4.2.3 1.1-.1 2.4.1 1.8-1.8-.3-1 .4-1.4 1-.7 1.8 2.4 3.1.1 4.9-.2zm137.5-10.3c2.8-2.1 7.7-3.9 6.8-7.6-.7-.9-1.9-.7-2.9-.2-3.6 2.2-3.9-.5-5.4.2-1.3 2.4 2.4 3.9 1.5 7.6zm-55.2-105.4c5.1.5 6.1-5.2 1.8-6.9-1.3-.3-1.9.5-2.2 1.6-.3 1.3-1.3 1.5-2.3 1.9-.8.3-1.2.9-1.1 1.8.3 1.8 2.6 1.1 3.8 1.6zm83.3-14.2c3.8 4.3-3.6 5.4-3.1 7.9.5.9 1.9.8 2.5.3 1.6-1.2 2.4-.7 2.7 1.8 1-2.8 1-5.2 3.2-7.6-3.2 1.1-3.3-1.7-5.3-2.4zm-279 123.3c-.6 3.2 2.3 3.5 2.7.3.3-.8-.3-2 .4-2.5 3.3-2 .3-3.6-.3-5.3-1.7-3.5-2.8 6.5-2.8 7.5zm128.8-167.1c-2 2-1-2.6-3.1-2-5.2.6-.6-3.4-3.1-4.8-5-1.2 1.2 9.2 6.1 9.1.7.2 1.2 1.6 2.1.3 1.2-1.3-.7-3-2-2.6zm-88 47.6c-.2-1.3-1.7-1.4-2.6-2s-3.5 2.6-3.8 4.4c-.2 1.5 1.2 1.8 1.9 2.5.4.4 4.4-3.8 4.5-4.9zm305.2-12c-1.9-1.9-.3-3.8-.2-6.4.7-2.3-2.1-2.3-2.2-.2.3 1.6-.4 3-1.2 3.9-2.8 3.2 1.8 2.3 3.6 2.7zM84.8 181.4c3.8-2.1 4.8-5.6 1.9-8.2-1.6 1.9-1.2 5.5-1.9 8.2zm5 24c.2-.1.4-.1.6-.2.1-3.6 2.1-7.2-3.1-4.9-.7.2-1.7 0-1.6 1.1.2 1 .8.5 1.2.2 1.8-.8 1.8 2.7 2.9 3.8zm214.9-11.9c-.2 2.8-1.7 4.1-2.9 5.6-.3.5-1.5.5-.9 1.4 2.8 2.9 3.4-2.1 5.2-3.5.3-.4-.7-1.9-1.4-3.5zm-127.4 17.8c.2-7.3 4.8-2.6 4.6-6.1.1-2.5-4.4.2-5.3.9-.8 1-.6 2.9.7 5.2zm43.8 77c-.6-1.1 0-2.9-1.8-2.6-1.4.2-2.4 1.2-2.5 2.7-.3 3 3.9 2.2 4.3-.1zm104.7 49.1c-1 1.5-4.8 1.1-3.8 3.7.6 1.1 1.2-.2 1.8-.2.8-.1 1.6-.1 2.5-.2.6-.1 1.7.1 1.1-.9-.3-.8-.2-2.2-1.6-2.4zm28 71.6c2.5-2.5.2-7-2.5-5.1-1.1 1.9 1.9 3.3 2.5 5.1zm-226.4-5.2c-.7 1.9-3.3 2.9-1.9 5 3.4 3.8 4-2.9 1.9-5zm164.6 2.6c0 1-.2 2.1 1.2 2.1 2-.1 1.7-2.2 2.5-3.4.6-.8-.4-1.2-1.2-1.3-2.1-.3-2.1 1.3-2.5 2.6zM105.4 153.9c-1.4-.2-1.7-2-3-1.9-1 0-1.9 1-1.8 2.2.3 2 2.3.8 3.4 1.9.4.4.8-1.2 1.4-2.2zm44.9 21.2c-.4-1.6-2.7-1.4-3.7-.2-.6.7-.5 2.2-2 2.1-.5 0-.9.4-.7 1 2.2 2.8 3.8-3 6.3-2.6.1 0 .1-.2.1-.3zm-5.6-46.6c-3.3-.4-2 3.4-.2 3.8 1.5.2 1.4-2.3 2.9-2.6-.6-1.2-2-.5-2.7-1.2zm112.9 217.6c-2.6 1-2.4 3.4.4 3.9 2.4.2 1.6-3.8-.4-3.9zm17.7-159.2c-2.8-.3-1.1 3.1.9 2.8 4.1-.4 1.7-3.1-.9-2.8zm-156.8-37.4c-1.1 0-3.7 2.7-3.7 3.9.1 1.2 2.3 1.6 2 .1.1-1.1.1-2.1 1.7-2 .8.1.6-.9.7-1.3.1-.7-.4-.6-.7-.7zm225.6 250.2c.3 0 1.8-.1 1.4-1-.5-1.3-2.5-1-3.5-2.2-.3-.4-1.3.5-1.1 1.2.4 1.2 1.3 2.1 3.2 2zm-83.9-189.8c1.6 1 3.2-1.2 4.6.5.4.5.7 1.1 1.1.1.8-1.8-4.8-3.2-5.7-.6zM21.6 292.6c-1.7-2.2-8.1-.7-4.6.9 1.8 1.2 2.6-1 4.6-.9zM199 205.1c.4-1.1 2.8-.5 2-2.3-.3-.7-.9-2.2-2-1.5-1.6 1 .4 2.4 0 3.8zM40.4 302.8c.5-3.3-5.2 1.3-2.5 2.1 1.8.4 1.5-1.7 2.5-2.1zm88.3-177.2c.6-2.7-2.3-.2-2.2 1.3-.2.7.4 1 1 1 1.5-.2 1-1.4 1.2-2.3zm133.8 219.1c-.3-.9-2.4-1.7-2.5-.2-.2 1.6 2.3 1.7 2.5.2zM213.1 410c-.7-.5-2.4-1.5-2.3.2.2 1.5 1.8 1.4 2.3-.2zm-3.7-244.2c.3-1-1.6-2.3-1.5-.6-.5 1.3 1.4 2.6 1.5.6zM259.3 388c-.5-2.3-4 0-1.7.7.6 0 1.3.2 1.7-.7zm-44.5 33.8c1.2.8 1.9 1.2 3.5 1-1.3-.9-2.1-1.2-3.5-1zM395.5 404c-.9.1-.9 1.4-.1 1.5 1.2.1 1.2-1.5.1-1.5zm-253 17.6c-.2-.5-.2-.6-.7-.4.1.2.2.4.2.6.2-.1.3-.2.5-.2zm231.3-32.5c-.4-.2-.8-.5-.8.1.1.2.3.3.5.4.1-.1.2-.3.3-.5zm-271.2 8.4c-.2-.6-.2-.3-.7-.3l.3.6c.2-.1.3-.2.4-.3zm245.1.1c-.2 0-.3.1-.1.3.1 0 .2 0 .2-.1-.1 0-.1-.1-.1-.2zM374.5 82.8c2.3-4.7-4.2-3-5.8-1.4-2.5 3.6-5.8 1.3-8.7 1.7-3 1.5-10.7-2.5-10.8.4.1 1.9-1.6 2.2-2.5 2-4.9.5-10.8-3.6-15.2-.4-.6.7-1.2.2-1.4-.1-.8-3.1-5.3-.2-4.8-3.1.6-6.2-7.1 5.6-9-.8-2.4-6.2-12.7-1.5-14.1-9.5-1.2-3.4-4.3-13.9 2.7-12.5-1.7-7.6 5.2-4.1 2.5-7.3-3.2-3.5 0-2.3 1.8-4.8-1.6-1.2-4.4-.7-4.9-3.5 48.8 8.7 96.2 33.5 129.3 70.7-2 .7-2.3-2.4-3.7-1.7-1 1.9.9 7 3.6 7.2 1.7 0 1.8 2.2.1 2.5-.8.5-2.1.5-1.4 2.1.4.9.6 1.2 1.6.6 7.1-3.9 2.7 5.8 7.3 5 5.9 1.4-3.5 5.4-3.2 8.6-.9 1.9-3.9.8-3.1-1.4 0-1.2 1.9-2.7.8-3.4-1.6-1-2.3-2.9-4.1-3.5-2.2-.6-1.4-5.2-5.2-2.5-3.8 4.1-4.3-4.4-7.1-1.1-.4.4-1.5.5-2.3.9-7.3 3.1-6-5.8-8.4-4.5-4 3-1.6-2.1-3.8-2.1-1.1-.1-.5.5-.6 1.1-.3 4.7-8.7 2.2-5.8 7.6.7 3.8-5.9 4.1-8.4 2.9-1.9-.7-4-.7-5.3-2.9-1.2-2.4-4.6 5.7-9-1-.3-.9.3-1.2.8-1.1 1.3.1 2.4-.9 3.8-.3.9.4 1.4-.6 1.4-1.3.1-1.1-.8-.9-1.4-.8-3.8 1.1-3.2-8.5-9.5-2.4-2.9 3.1-5.7-.3-5.5-3.4-.2-.8.5-.8 1.1-.9 3.1-.6-1.4-4 3.5-3.5 3.7-.5 0 3.2 2.4 3.4 1.5-.5 2.7 2.2 3.9.5 1.6-2.9 3.1.4 4.7-.7 2.4-4.9-3.5-1.7-5.1-5-1.9-1.6-1.6-5.3 1.4-3.9 2.9.3.2-3 .1-4.2 0-1.1.2-2.1 1.6-1.3 1.1.9 3.5.4 4.5 1.4 1.2 3.4 4.3 1.6 6.4 2.5 1.8.8 2.4.1 2.1-2.1-.1-1 .5-1.2 1-1.5 2.2-1.2 3.4 4.6 6.1.8 1.4-.9 2.7 2.3 3.2-.8.8-1.5-2-6.1-2.2-3.1.3.7 1.5 1.7-.3 1.7-.8 0-2.6.2-2.4-1.5.1-1.1-.3-1.9-1-2.1-2.4-.5-2.3-3.4-4.1-4.4-.7-.7.4-2.1 1.4-1.6 3.7 3.3 2.4-3.4-2.6-2.7.6-1 2.4-.5 2.1-2.1-.2-1.3-1-2-2-3.2.4 3.9-5.4 1.6-7.8 2.9-2.2.5-4.8 1.7-7-1.3-1.3-1.9-4-2.1-6.1-.4-.8.6-1.2.5-1.2-.5.1-1 1.8-.8 1.6-2.6-.2-1.2 1.8-.5 2.8-.2.4-.1.8-.1 1.2-.1 0 .2.1.2.3.2-.1 0-.2-.1-.3-.2zM325.4 75c5.7-3.1.6-12.9 0-8.6-.5 4.4-3.8.4-5.1 2.8-.7 2.6 2.7 2 3.3 3.9-.5.7-1.7-.1-2.1.9 2.1 1.4 2.9 4.7 6.3 4.3 2.5.8 2.7-.4 1.8-2.5-.9-1.8-2.9 1.2-4.2-.8zm76 46.3c0-.7 0-1.5-.9-1.4-1.5-.2-1.7 3.2-.4 3.2 1-.1 1.3-.8 1.3-1.8zm-17.1 4.5c.1-.3-.3-.1-.3-.3 0 .1 0 .2.1.4 0 0 .1 0 .2-.1z"/><path class="prefix__st2" d="M42.5 359.5c1.9-3.1-.7-5.4-1.2-8.1-1.2-5.3-.5-11 .1-16.5.3-2.3-.1-4.2-1.5-6.5-1.9-2.9-1.8-7.6-2.6-11.2-.3-.9-1.1-2.1.5-2.6 2.9-.7 2.9 3.3 3.9 5.1 1.1 3.1 4.7 4 5.7 7.4 1 3.5 2.6 6.8 4.1 10.2 4.9 11.8 11.4 22.7 18.2 33.4 2.2 2.9 0 6.8 2.6 9.6 1.2 1.5.8 2.4-1.1 2.8-2.5.5-2.8 3.5-4.7 4.8-.7.5.7 2.1 1.5 2.8 2.6 2.1 2.8 5.6 4.8 8 .9 1.1-.6 2.7-.1 4.2.2.6-.8.7-1.3.4-1.1-.6-2 .2-3 .3-1.6-1.1-3.3-1.9-4.5-3.5.1-.1.4-.4.3-.4-1.7-2.3-3.1-4.7-3.3-7.8-2.3-3.7-8.5-4.3-8.5-10.1-2.8-5.1 1.2-11.3-2.3-16.6-2-2.8.4-9.4-3.7-10.4-.8.2-.5 1.2-.5 1.8 0 1.8-.8 3.6.7 5.2.7.8.2 1.6-.6 2.2-1.6.9-2.2-1.8-3.5-2.5.1-.9.1-1.5 0-2z"/><path class="prefix__st0" d="M109 413.8c1.4.3 4-2.1 3.7 2-.1 1.2 2.4 1.3 3.1-.1.7-1.5 1.8-2.2 3.2-2.9-.5-1.7-3.1.3-3.3-1.4-.1-1.9 2.5-.7 3.3-2.3.1-.5-.4-.6-.8-.9-1.3-.4-1.6-2.3 0-2.6.9-.1.7.9 1.1 1.3 1.3 1.3 3 2 4.5 3.1 1.5 1 .5 1.9.4 2.7-.2 1.4-1 .7-1.6.2-.7-.5-1.2 0-1.7.5-1.7 2.1-4.8 3-6 5.4-.1.9-1.2 1.9-.1 2.6 1.4.9 2.1-1.6 3-2.3 4.4-7.7 3.3 1.1 8.5.5 1 .6 1.6 1.2 2.1-.5.8-2.6 1.7.6 2.3.3 1.6-1-.4-2.9.9-3.1 1.5-.2 1.6 1.9 2 2.9.9 2.3 3.2 1.4 4.6 2.5.7.6 2.5-.5 2.5.9.1 1.5-1.8.7-3 1.5 3.2.9 2.6 6.9 6.1 3.5 2.1-2.8 3.3-.2 1.1 1.5-6.3 6.7 3.4 4.1 5.6 8.8 1.6 2.9 11.4-5.2 6.2 8.1-13.6-5.2-28.5-7.9-41-15.3-.7-.5.9-1.6-.5-1.8-3.8-.3-1.1-3.3-2-5.3-.5-.6-.9.4-1.4.5-1.6.2-2.4 2.6-4.4 1.5-.4-.2-.6.8-.6 1.3-4.9-2.6-9.8-5.2-14.8-7.7.2-1.4-1.1-5 1.6-3.1 2.9 1.8 5-.9 7.6-1.4 1.2-.4-1.4-2.2.1-2.6 1.4-.2 2.5-.4 2-2.2-.4-1.7-1.9-1-3.1-1.1 3.4-3.6 9.8-6.3 12.1-5-1.4 1.1-3.9.4-4.2 3-.3 1-3-1.3-3.4 1-.1.5.1 1.1.7 1 2.7 0 5.3 1.8 8.2.7-.6 2.8-2.4 2.1-4.3 1.6-.2 1-.3 1.9-.3 2.7-.5.1-1.1-.1-1.3.5.3 1 1.4.4 1.3-.5zm29.3 17.2c1.2.6 3.5.4 2.7-1.2-1.1-.3-1.9 0-2.7 1.2zm-18.6-7.9c1.4.1 1-1.9-.3-1.6-1.2 0-.8 1.9.3 1.6z"/><path class="prefix__st1" d="M128.6 72.8c1.5 7.3-8.6 7.4-12.7 11.6-1.8 1.5-3.3 3.5-5.9 3.7-3.4.2.3 4.9-5.5 3.5 0 4.4 5 2.1 3.7 5.9-1.2 1.8-1.6 2.6-1.2 4.8.2 1.3-2.4 2.8-4 1.7-2.9-2.1-5.5.3-7.4 2-1.3 4-5.8 3.7-7.8 6.7-1.6-1.4.4-5.4-1.9-5.1-1.1.3-2.6 1.5-1.9 2.7.9 1.5.3 2.1-.7 2.7-1.6.9-2.7 3.5-4.9 2.2-1-.6-1.8.1-2.6-.2 15.1-16.6 33.6-30.7 52.8-42.2zM237.5 460.3c-.3-3.8 3.8-.7 4.7-2.9.1-1.1-.9-1-1.6-1-2.3-.1-2-2.1.1-2.4 1.4-.8 4-.2 3.3-3.3 2.8-2.5 6.2-5.7 10.5-3.8.8.4 2-.5 3-.3 2.6.6 4.3 2.2 3.7 5.3-.4 1.3 1 1.8 1.3.4.5-.6 6.2-2.2 5.9-.3-2.2 1.2.2 3.6-1.1 5-.3.3-.1.9.3.8 3-.3 1 2.2 1.6 3.2-10.4 1.1-21.3-.4-31.7-.7z"/><path class="prefix__st2" d="M10.8 317.3c4.6-2.5 5.5-9.6 11.5-11 3.7-4.3 3.6-.1 5.2 3 .4.4.3 1.4-.4 1.3-3.1-1.1-2.3 4.1.4 3.7.3 0 .7.2 1.8.4-3.7 2.3-3 6.2-4.1 9.3-1.6 4.1-3.7 8.4-3.6 13.1 0 1.7-1.8 2.5-1.8 4.2-3.7-7.7-6.6-15.8-9-24z"/><path class="prefix__st1" d="M175 49.3c1.4 6.5-3.6 3.1-3.2 7.5 0 .9.1 2.2-.8 2.2-3.5-.1-5.4 3.5-9 3.5-2.7 0-5.5 1.3-7.6 3.5-3.8 3.4-8.9-.5-13.4.8-.1 0-.4-.6-.6-.9 10.7-7.1 22.5-12.6 34.6-16.6z"/><path class="prefix__st0" d="M36.5 164c1.8 1.8-2.6 9.9-4 12-3 6.7-4.4 14.5-6.2 21.7-3.3 4.9-3 11-5.8 16.3-.8-1.9.9-3.6.1-5.4-.7.9-.4 2.2-1.3 3-1.2-17.5 8-33.4 17.2-47.6z"/><path class="prefix__st2" d="M4.5 272.7c8.4-1.6 6.2 6.9 13.6 8.6-5.1 2.8 1.9 3.6 1.5 6.9-.9 1-2.8-.6-3.8-.9-3.6-3.2-6.7 3.4-10.8-1-.5-4.5-1.4-9.1-.5-13.6zM13 293.9c.7 2 3.3 3.8-.3 6.2 3.2-.1 6.2.4 2.8 3.2-2 2.5-5.5 1.2-7.5 3.5-.7-3.2-1.9-6.3-1.5-9.6 3.9 0 2.3-6.6 6.7-5.7 2.3.1 1.7 3.3-.4 2.3.1 0 .1.1.2.1zM7.3 239.5c1.1 7.5 3.6 14.4 6.1 21.5-1 6.1-6.9-5.9-6.8-8.2-1.6-4.2-.5-8.2-.2-12.4-.1-.6.4-.8.9-.9z"/><path class="prefix__st1" d="M280.3 460.8c-1.2-2.6 1.4-3.2 2.4-4.7.7-1.1 1.5-1.1 3-.6 1.4 1 8.9-2.4 8.2.8-3.2 2.8-5.3-1.4-7.4 4.5-2.1 1.1-4.1-.7-6.2 0zM482.3 193.8c-2.2-1.2-5.6 1.7-6.7-.1-.4-2.1-4-1.1-3.2-3.6.4-.9 1-.9 1.8-.3 2.1 1.7 4.3-.5 6.4 0 .9 1.2 1.7 2.4 1.7 4zM106.7 427.1c0-.6.2-1.6.6-1.3 2.1 1.1 2.9-1.4 4.4-1.5 1.2-1.2 2-.5 1.6 1.1-.7 2-.6 3.4 1.8 3.7 1.4.2-.2 1.4.5 1.8-3.3-.3-5.9-2.5-8.9-3.8zM197.1 43.2c-3.3 2.9-7.6 2.5-11.4 4.1-1.1.8-1.5-.5-2.2-1.1 4.4-1.6 8.9-2.8 13.6-3zM254.4 122.6c1.8-1.3 3.4-2.1 5.2.2.4.5 2.8 1.8 3.1-1.2.1-.9 1.2-1.7 1.8-2.5.6-.7 1.2-2.3 2.2-1 .9 1.2 2.7 2.7.9 4.4-1.5.9-2.1 3.7-.4 4.5 2.1.4.8-6.3 4.1-2.7 3.6 6.1 6-1.1 8 3.6.4 1 1.3 1.6 1.7.3 1-3.9 7 .1 6.1-4.7-.2-.9.2-1.6.9-1.3 2.2.9 5.1-.5 6.8 2.4.3.6.9 1.1 1.4 1.8 1-.6 1.3-2.3 2.8-2.1 1.5.3 1.3-2.3-.4-2-11.9-2.8 5.8-15.8 9.7-6.4.4 1.1-1.1 3.2.8 3 2.4-.3-2.1-4.9 3.2-4.9 1.3.1 2.1-.4 3.1-1.6 1.8-1.6 4.6-3.6 7-4 2.6 1.1 6.5 14.1-.1 8.9-2.8-2.2-9-3.9-7.4 1.9-.2 1.2 0 2.4-1.8 1.8-.2-.2-.3-.8-.7-.2.2.1.5.1.7.2 1 1.9 1.3 3.9 1.4 6.4-1.9-1.1-3.8.3-5.7-.4-2.6.3-.1 5.9-5.7 4.3-2.7-1.2-2.2 1.6-1.6 3.3.1.8.8 1 1.5.7.9-.4 1.7-.2 2.1.8.6 2.2-2.5 2.2-3.3 3.7-1.7 2.4-4 2.5-6 .2-1.2-1.3-3-.7-4.3-1.8-.1-.1-.5.2-.6.4-.3 2.2 3.7.6 3.3 3.8.2 1.4-1.1.5-1.2.7-2.1 4.2-4.5.8-6.8.4-3-.7.6 2.7-3.3 3.2-1.7.5-2.3-2.3-2.6-3.4.9-3.6-2.2-3.4-3.9-4.4-.9-.6-3.5.4-2.7 1.5 1.1 2.5 4.4-.9 5.4 1.6.9 3.8-4.8 3.8-5.2 8.8-.5 2.2-.2 4.5-3.7 4-.6 5.6-4.4-.6-6.1 1.7-.2.3-1.6-.9-1.6-2-.7-4.3-6.8-2.8-9.8-3.3-2 .3-3.3-2.3-1.6-3.6 1.1-.8 1.2-1.7.1-2.6-1.7-1.4 0-1.9.6-2.6 1.1-1.4 1.4-.3 1.9.6.6.4 7.7 2.7 6.9.3-.4-2-2-1.8-3.6-1.3-3.5.5-.2-3-5.5-2.4-.4 0-5.8-7.8-5.6-7.9 1.9-1.1 1.5-4 3.6-4.8 2.4-1 2.5-1.5.8-3.2-1.7-1.1 1.4-5.1 2.5-3.1.7.5 1.6 1 1.6 2-.1 0-.1.1-.2.1v.2c0-.2.1-.2.2-.3zm19 10.3c-.1-.8 1.8-1.7 2.7-1.3.6.2 1.2.8 1.7.2.7-2-2.5-3.4-3.9-2.1-.7.6-1.4.5-2.1.5-2.6-.4-1 2.9 0 3.9 1.4 2.3 4.1.6 1.6-1.2zm34.1-8.9c-.7-3.6-3.4 1.3-1.2 1.2.6-.1 1.3-.3 1.2-1.2zm.1-3.6c.3-1.2-1-1.5-1-.4-.3.9 1 1.6 1 .4zM198.2 88.6c-1.3.6-3.2.7-2 3 .9 1.1-9.8 5.4-11.2 5.3 1.1 2.2 2.2 4 5.3 3.2 1.3-.3.7 2.1 1.4 3.2.3.5-.9 1.9-1.6 1.3-2.5-1.5-5.5 2.8-7.6-.6-.1-.2-.8-.4-1-.2-2.2 1.7-5.8 2.5-8.3 1.5-1.4-1.5 2.3-4 .8-5.4-1.7.9-3.2-1.1-4.8-.1-1.9 1.2-3.8 2.1-5.8.4-4 3-4.4-2.3-3.7-5.1.3-2.1 2.6-1.9 3.9-3 1.3-1.2 2.7-1.9 3.7.5.3.7 1.1.4 1.4 0 .6-.9-.8-.5-.7-1 .2-1.5-.4-2.2-2-2.1 2 .3 2.9-3.5 4.7-1.5 1.5 1.6 6 1.2 4.3 5.4 0-.1.1-.1.1-.2 1.1-.5 1.7-1.7 3.4-1.5 1.5.2.2-2.2 1.4-2.8-1.4-1-3.1.4-4.1-1.1-1.6-2.2-.5-4.9 2.2-5.1 2.1-.2 3.4-1.3 4.3-2.9.4-.6.4-1.3 1.3-.9.7.3 1.6.2 1.9 1.1.3 1.1-.9.7-1.3 1.1-.9 1-1.8 3.1-.4 4.1 1.5 1.4 3.7-4.4 4.7 0 0-.1.1-.2.1-.2h2.4c0-.5.2-.7.1-.8-5.7-6.7 7.8-1.3 6.5-7-.7-5.3 5-2.7 6.4-6.2.8-1.2 2.2-2.4 3.8-2.2 2.9.4 5.4-.9 8-1.6.8-.2.5-1 .8-1.3 1.5-1.8 5.1-.3 3.3 2.1-1.6 1.9 2.1 3.4 3.6 2.8 1.1-.5 1.9-1.2 2.9 0 1.1.9 3-4.4 6.7-2.4-.2 1.4-2.2 0-2.2 1.5 1.6 2.4 5-1.7 7.4-.8 2.1-4 4.7.6 7.1-.4.5-.2 1.2.6 1.3 1.3.2 1.5-1.8.4-2.2 1.4-.3 2-.6 3.6-3.3 2.7-1.4-.5-2.9 1.6-4.7-.3-1.1-1.2-2.8 1.6-4.4.3-.2 1.1.3 1.3.9 1.4 2.2-.4 2.2 3 .2 3.3-1.5.4-2.5.9-2.7 2.9-.5 2.2-5.3 2-3.3-1 .7-1.9-1.5-2.9-1.2-4.7-3.1-1.2-3 2-1.3 3.7-2.8-1.4-5.7.5-8.5-.5-.3-.8 1.5-1.1.4-2.2-1.6-1.4-2.6.1-4 .7 1.2.9 2.2 1.6 3.7 1.4-4.3 4.6 1 4.4 1.6 8-.6 2.6-3.9 2.3-4.6 4.7-1.6-.8-4.2.2-4.3-3 0-.7-.7-1.6-1.2-.1-.7 1.7-1.7.2-2.5.2-2.6 0 .8-3.1-1.5-3.2-1.4 0-4.5-2.9-4.3 0-.9 1.1-1.3 1.9-1.3 2.9zm15.2-2.9c-.1-.1-.2-.2-.3-.2.1.1.2.2.3.2 0 .9 1.7 1.6 1.4.4-.3-.6-.9-.4-1.4-.4zm-28.1 2.4c3.2.3 1.8 1.7 1.6 2.8 1.2.1 2.1-1 3.2-.1.4.3 1 .9 1.4.1 1.2-2.6-3.4-3.8-6.2-2.8zm18.1-12.2c-1 1.2-3.1-.6-3.7 1.2-.3.8 1.3 1.4 2.4 1.5 1.6.3 4.1-2.6 1.3-2.7zm35.7-2.5c0-.1-.1-.1-.1-.2 0 0-.1.1-.2.1.1.1.1.2.2.3 0 0 0-.1.1-.2zM278.1 59.2c-5.8 3.3-12.6-6.2-17.9-.9.4.9 1.3.4 1.9.8.7.5 2.1.6 1.4 2-.4.9-1 2.2-2.5 1.2-3.6-1.6-6-5.1-10.4-1.4-5.3 5.1-10-4.4-11.4 2.3-3.3 3.3-10.9.1-5.8-5.1-3.3-.2-1.7-3.5-3-5.1.8-1.6 4.6-2.5 6.3-1.5 2.2 1.3 3.5 0 4.4-1.4 2.3-3.1 6.3 2.1 9.9-1.6 4.5-2.4 10.9-.4 15.9-.3 1.7 0 2.8 1 4 1.8 1.5 1.1-.7 1.6-.5 2.5 3.5 1.1 4.2 5.7 7.7 6.7z"/><path class="prefix__st1" d="M345.9 130.7c0 1 1.2 1.1 1.7 1.9-1.4.7-2.7 1.7-3.9.2-.9-1.2-1.7-2.6-.1-4.1 1.9-1.9-1-5.3-3.1-5.2-4-.1-4.9 1.2-3.6 5.5-2.5 5.1-7.5-9.3-12.3-1.9-1.4 1.9-3.1 1.3-4.8 1.2-3-1 0-6.1 2.7-5.8 1.2 0 2.4.3 2.8-1.6.2-1 4.1-1.3 4.7-.3 1.3 2.3 1.7.7 2.3-.3 1.8-3.2.3-4.6 4.5-6 .5-.2 1.2-.2 1.2-1-1.7-2.5-7.5-5.3-4.5-8.9.6-1.1 1.5-1.9 1.4-3.4 11.6 4 1.1 4.6 6.7 8.1 1.2.8 3.7-.4 3.4 2.9-.1 2.1-1.4 2.8-2.3 4.1 6.6.7 3.5 12.7 7.2 9.5 5.4-3.7 2.3 4.8 10 3-12.6 12.6-4.5 3.2-14.2 2 .1.1.1.1.2.1zM173.3 114.4c1.3 1.8-.9 4.1 1.7 5.2.3.1-.1 1-.2 1-3.1-2.1-1.8 4.9-4.7.8-.2-1.6-1.4-3.4-2.7-4.2-3.9 1.5-5.3-3.1-8.4-3.6-3-1.3.5-5.3 3-5.2-1.4-1.7-2.9.1-4.2-.3-.7-.2-1.6.3-2-.6-.5-1.2.8-1 1.3-1.5 1.4-1.5 2.6-3.2 5-1.6.7.4 1.2-.6 1.8-1.1 6.4-4.4 12.8 4.4 3.4 6-2 .3-1.2 2 .4 1.6 4.1-.8 6.2-5.5 11.2-3.8 5.1 1 12.3-2.7 10.5 6.5-.1 1 1.8 2.3.6 2.7-3.6 2.3-7.5.5-11.3 2-.7.4-3.9 1.2-3.1-2.3 0-.7-.8-1.2-2.3-1.6zM395.3 244.2c1.5.2 4.9-3.7 5.5-.4.3 1 1.8 0 2.4-.4 1.4-1.2-1.5-2.1-2-3.1-.4-.5-.4-1.2.5-1.2 2.7-.1 5-1.5 7.6-2 3.6-2.4 1.5 5-.4 3.5-.7-.3-1.6-1.3-2.2-.2-.7 1.2 1.9 1 1.5 2.2-.6.8-1.3 1.7.3 2.1.9.2 3.8-2.1 3.8-3 .3-5.7 3 .6 6-2 .2-1.5-2.6-.4-1.8-2.3.4-1.1 1.1-.1 1.6 0 1.5.4 3.4-.1 3.7 2.4.1.9 1.4.8 2.2.7 2.1.1 6.1.4 5.6 3.2-.3.9-1.2 2.3-2.2 1.8-4.1-2-7.7.7-11.5 1.1-2 .2-2.9 3.6-5.3 1.5-.4 1.2.6 1 .8 1.4.7 1.2.8 2.7.5 3.9-1.1 1.1-6.1.5-7.5-1-1.6-1.4-7.5.5-8.9 2.5-.5.7-.9 1.3-1.7 1.1-3.6-.6-6.6 1.3-9.6 2.9-.5.3-1 .8-1.4.1-1.9-2.6.6-4.6 3.1-4.7.3-.1 1 1.1 1.6.2.4-1-.8-2.1-1-3.3 4-1.6 4.3 1.5 6.8 2.4 1.6-.2-.5-2.7.9-2.7 1.7 1.5 3-.6 4.4-.5 4 .1 1.9-2.5 2.8-4.4-1.7.6-1.1 1.7-1.7 2.3-.8.8-2.2 1-2.2 0 .5-1.9-1.1-2.8-2.2-4.1zM403.5 181.6c-.5 1.5-1.7 1.1-2.7 1.1-.5 0-1.3 0-1.3.7 1.1 1.9 8.4.2 10.8.8 1.1-2.5-4.3-1.7-3-5.3 1.6-6.2 4.9-4.7 8.9-5.7 3.6-1.3 4.7 2.8 7.6 1.7 4.7-1.1-2.9 4.7 2.7 5 2.1-.5 2.3 2.2.2 1.9-2.6-.3-3 2.4-4.4 3.6-6.2 5.7-9.8-2-12.5.1-1 1.7-2.7 0-3.1 1-1.6 7-6.7-3.3-9.5 1.4-1.3.9-2.4-2.3-4.1-1.5-1.7.3-1.9-1.1-2.1-2.1-.2-1.8 1-3.6 0-5.7-.3-.7 1.3-1.9 2.4-.6 2.8 2.8 6.4 3.1 10.1 3.6zM425 389.9c-1-1.3-3.3 2.7-3-1.4-1.5-.7-2.4 2.4-3.9-1.6-.7-1.8.3-2.9 1.7-2.9 3.2.1 5.9-1.8 9.1-1.5.8.1 2.5 0 2.5-1.1-.3-2.5-3.6-.2-5-.9.3-1.1 1.2-1.9 2-1.8 3.9.3 6.1-3.4 9.5-3.7.7-.5.3-2.2 1.7-1.9 1.2.6-.4 4.9-2 4.8-2.4.3-3.4 2.5-5.1 3.6-.5.4-1.3 1.5-.5 2.2.7.6 1.3 2.1 2.7 1.4 1.7-.1 3.5-2.5 5-1.2.8.7-1 4.2-2.4 4.8-1.4.6-3 .5-4 1.8-1.1 1.4-1.8 3.1-3.6 3.8-1.3.5-2.7 1.7-2.2-1.2.4-2.7-6.1.8-2.5-3.2zM317.5 141.8c.4-3.6-2.9-2.2-4.1-4 1.1-1.3 3.6-1.7 2.2-5.3 3.7 4.4 15.2 0 15.4 6.4-3.4 6.1-12.3 3.6-11.7 6.7-.2 2.3-3.8 3.7-4 .8-3.4-2.8-2.3-6 2.2-4.6zM176.4 142.4c-2.9 1-5.1 4.1-7.3-.2-.9-1.1-2.3.1-3.4.1-3.7.4-4.7-1.1-4.2-5.9 2.2 2 2.2 2 3.4 4.8 2.5.6.1-4.8 3.5-3.1 1.8.9 2.7-2.4 5-.5 1.6 1.5 2 3.2 3 4.8-.1.1 0 0 0 0z"/><path class="prefix__st1" d="M423.8 251.9c-1.9-1.4-3.9 1.2-5.9.2-.8-.4-2.1-.3-2.2-1.5-.1-1.7 1.3-.9 2-1.2 6.3-5.4 17.8.8 6.1 2.5zM219.6 433.7c1.7-.7 3.5-1.4 5.3-2.1.3 2.3-3.7 1.5-2.1 4.6 1.3 1.9-2.2 5.7-3 2.8-.4-4.8-3.5.1-6.2-1.8 1.8-.8 2.6-3 4.9-2.4.5.3 1.1-.3 1.1-1.1zM427.4 320.3c-2.7-1.7-4.2.3-5.5 2.7-1.1 1.9-3.3 1-2.1-1.2.5-1.9 1.5-3.3 3.6-3.3 1.7 0 2.4-2.4 4.4-1.9 3.1.2 3.1 4.3-.4 3.7zM116.5 130c-.9-3.7.2-6.7 1.7-9.5.7-1.3 2.6-1.1 3.9-2 1.5-.4.6 3.5.2 3.6-3.4 1.4-3.4 5.4-5.8 7.9zM337.7 210.8c-4 3.4-7.8 8.3-11.3.6 5.3 3.9 6.3-3.5 11.3-.6zM413 326.7c-3.9-.7-4.7-5-1.1-6.9 1.1-.4 5.3 7 1.1 6.9zM341.1 268.4c-.9.6-.1 2.1-1.3 2.7-2.4 1.3 1.8 3.3-1.1 4.3-.6.3-1.1 1.3-1.9.5-1-1.6 1.3-3 0-4.8-.9-1.5 3.5-5.7 4.3-2.7zM374.2 252.6c2.7.2 4.5 1.9 1.3 2.9-1.4 1.4-4.1 4.7-5.7 1.5-.6-1.4.5-1.9 1.3-2 1.5-.2 1.6-2.9 3.1-2.4zM448 383.1c-.6 2.6-4.7 4.7-5.7 1.7 1.9-1 .4-4.3 2.6-4.4.8-.1 3.1.3 3.1 2.7zM376.1 202.8c-.1 1-.8 1.9-1.4 1.4-1.4-1.2-2.6-.8-4-.1-1.2.6-2.5-1.9-1.4-3 1.6-1.1 6.9-1.1 6.8 1.7zM68.3 174.3c-.3 2.2-2.9 9.7-5.6 6.4-.8-.8-.5-1.1.2-1.8 1.8-1.2 3-6 5.4-4.6zM389.3 316.4c-3.8.7-3 5.9-7.6 6.6.3-4.1 4.4-7.7 7.6-6.6zM228.4 68.2c-1.2-1.5-2.3-1.9-4-.8-1 .7-2.1-.4-2.5-1.6-.4-1.4.7-1.4 1.6-1.7 3.2-1 4.1-.3 4.9 4.1zM459.9 189.9c.2-.9-.6-2.4.9-2.6 2.2.2 2.2 5 1.4 6.5-1.6.6-2.8-2.4-2.3-3.9zM446.2 306.8c-.3 1.9-4.6 4.1-4.8 1.6-.1-1.9 4.8-4.1 4.8-1.6zM349.3 312.3c-.2.6.6 1.9-1 1.6-5.8-.1.9-8.1 1-1.6zM463.3 358.2c-.5-2.4 1-3.4 1.2-4.9.2-1.1 1.3-1 2-.6 1.2 1.7-2.1 3.5-3.2 5.5zM382.6 314.3c-1.2-.3-1.4-1.3-2-2 1.3-.6 1.4-2.4 2.5-2.8.7-.3 1.1 1 .8 1.7-.4 1 .1 2.6-1.3 3.1zM73 166.2c-.1.6-2.8 5-3.4 2.9-.8-1.6 3.2-6.6 3.4-2.9zM320.5 119.7c-1.7 3.5-3.6-.1-3.6-2.2.6-2.5 2.8 1.6 3.6 2.2zM353.4 388.6c-1 0-1.7-.4-1.7-1.3-.1-1.7 3.4-2.2 3.1-.3-.1 1.1-.7 1.5-1.4 1.6zM327.7 114.4c1.4 2.3 4.2 1.2 4 3.2-.2 1.4-1.2.3-1.8.3-2.1.1-1.8-1.7-2.2-3.5zM250.3 67.7c-2.3 1.1-5.2-.3-2.9-2 1.9-.7 1.3 1.5 2.9 2zM452.3 186.1c1.2 1 .9 4.3-1.1 2.8-.8-1.3-.1-2.2 1.1-2.8zM328.4 129.6c2.3.1 1.1 2.5-.6 2.2-.7 0-1.4-.3-1.3-1.1.1-.9 1.3-.6 1.9-1.1zM290.7 428.3c.2 1.6-2.4 2.4-2 .6-.3-1.4 2.2-2.2 2-.6zM264.5 349c.1-1.6.3-4.1 1.8-3.1.4 1.5-.9 1.8-1.8 3.1zM257.1 405.9c-.4 1.5-2.2 0-.8-.6.3-.2.7 0 .8.6zM427 130.3c-.1.1-.3.2-.4.1-.1 0-.1-.3-.2-.4.3-.4.7 0 .6.3zM224.9 435.9c-.1.5-.3.5-.6.2.1-.5.3-.5.6-.2zM109.9 136.1l-.3.3c-.1-.2-.2-.4-.3-.5.1-.1.3-.2.4-.1.1-.1.1.1.2.3zM333.3 86.1c.1.2.1.2 0 .4 0-.1-.1-.1-.1-.2-.1-.1 0-.1.1-.2zM267.3 409.1c.1 0 .1.1.2.1-.1 0-.1 0-.2-.1zM294.2 213.8c0-.1.1-.1.1-.2 0 .1 0 .1-.1.2zM198.2 88.7c.1.1.2.1.3.2h-.1c-.1-.1-.1-.2-.2-.2 0-.1 0 0 0 0zM395.3 244.2c-.1 0-.1-.1-.2-.1 0 0 .1.1.2.1z"/><path class="prefix__st2" d="M122.7 383.5c-1.1.5.3 1.8-.8 2-1.2.1-1.6-1.8-1.9-2.6-7.1-2.5-6.9-12.7-14.7-13.9-4.5-2.7-4.9-9-9.6-10.6-.2-.9.6-2.6-1.1-2.3-1.5.2.1 1.6-.3 2.4-.4 1-1.2 1.9-1.9.5-1.3-2.1-4-3.2-3.5-6.5.2-1.6-6.5 1.7-10.3-4.5-1.4-2.6-3.3-4.6-6.3-4.9-6.6-.7-10.2-5.6-13.9-10.5-5.3-8-11.5-15.1-17.7-22.2-3.6-5.2 3.5-2.8 4.9-4.8.5-1.8-1.6-2-2.7-2.7-.6-.4-1-.8-.9-1.8 2.4.1 3.8 2 5.3 3.3 3.3 2.5 6.4 5.9 9.3 8.6 4.4.7 8.7 3.3 12.1 5.8 5.1 4.2 12.4.1 17 5.7 1.8 2.9 7.1 0 7 4.5-.2 2.3 4-.5 5.2 1.8 3.3 3.6 8.8 1 12 4.9.4.4.8 1 1.3.4 2.8-3 4.4 1.2 6.8 1.2 1.7.8-1.2 5.6-1.9 7-1.1 1.3 1.8 6.1 4 6.3 3.8.2 5.4 3.7 8 5.6.8.8-.9 2.4-.5 3.2 2.6 4.8-2 4.9-4 6.6-.9.8-1.6 1.8-3 1.9-.6 0-.3.8 0 1.1.8.8 2.1 2.1 2.8 1.2 3.2-3.3 2 2.8 8.2 2.3.9.2.6-1 .7-1.6.1-2.1 2.8-2.6 3.6-.9.4 1.4 1.5 1.6 2.3 2.3.6.4 1 1.4 1.9.7.7-.5.1-1.2.1-1.8 0-2.3 2.1-2.2 3.2-2.1 5.7.7-2.3-2.9 3.6-8 1.3 3.5 5.2 2.2 7.9 4.1 2.2.9 4.5 2.2 7 0 1.3-1.1 3.1-1.3 4.2 1 .7 1.3 2.7.8 3.5 2.4.6 1.3 1.2 2.2-.4 3.4-1.7 2.5-10.2 4-6.4 7.6 2.7 2.3 4.5 2.1 7.9.8 4.4-2.8 5 .3 8-1.2 1.9-1 2.9-.2 2.7 2-.7 2.6 4.4.6 2.9 3.8-.7 1.2-.1 3.7-2.4 3.6-1.6-.1-2.1-1.3-2-2.9.1-.8.1-2-1.1-2-1.9.4-.5 3.3-1.1 4.6-.2 2-3 2.8-2.9.3-.4-1.1-6.4-3-5.8-.6 1.3.7.3 3.5 2.6 3.3.7-.1 1.5-.6 1.7.7 0 6.3-8 11.4-11.1 3.8-.2-1.2 1-2.5-.4-3.5-1.6-1.1-3.5-1.1-5.2-1.8-1.3-.5-1.8 1.7-3.2 2.2-.3 2.4 3.3 2.5 1.1 7-.5 1.5-1.9 2.1-3.5 1.8-2-.4-4.6 1.2-5.8-2-.2-.5-1.1-.5-1.5-.1-1.5 1.5-3.6.6-5.3 1.4-2.4.8-2.9-3.7-7.3-3.9-1.5-.4-2.1-1.3-1.5-2.8.7-3.2-4.8-8-6.9-10.6zM200.3 314.7c-3.6 3.7-4-.8-5.9.3-.9.8.8 2.6 1.4 3 4.7 1.6 2.7 5.8 3 8.9-.4 4.3-7.9 0-6.7 5.9-.5 3.2-3.9 3.5-2.6 7.5.6 3-1.3 4.4-4.1 4-3.4 1-5.7-.8-8.2-2.8-1.3-1-3-.2-4.4.6-1.5.9-2.2.5-2.7-1.1-.6-1.9-5.5-4.9-7.4-3.7 1.3 4.8-11.9-.7-3.7-5.2 1.2-.9 2.4-1.2 3-3 .3-1 2-1.9 3.3-1.8 3.5.4 6.3-1.9 9.5-2.4 3.1-.5 9.7 1.2 11.4 4.1.9 2.7 5.5-.2 3.5-1.3-5.2-1-8.8-8.5-14.4-4.7-5.8 2.6-10.2-.1-14.6-3.1-1.6-1.1-2.2-.5-2.1.7.3 3.5-2.4 5-4.4 6.1-1.6.9-2.5 3-4.6 3.1-.7 0-1.8.9-2.1.2-1.4-3-5.2-1.6-6.7-4-2.3-4.1 2.5-9.8.8-13.5-3.2-2.6-5.9 3.5-9.1.1-.9-1-.4-2.2.7-2 2.6.3 5-2 7.7 0 1.2.9 3.9-1.7 4.1-3.4.9-4 6.7-4.5 9-1.5 1 1.3 2.3 1.3 3.8.6 1.4-.6 3-2 3.8.8 1.5 1.6 5.9-1.9 7.2 1.2.4 1.5-1.6 1.1-2.3 2-.3.3-1.1.1-1.6.3-2 .8-1.9 4.6.7 4.1 3.4 1 6-1.3 9.1-1.4 3.8 1.5 3.1-6.1 7.5-3.9 1.9.5.2-3.2 1.5-3.2 1.5 0 3.2-.4 4.6.6.5.3.7 1.4 1.5.9 5.6-3.6 6.2 7.7 12.1 4.3 3.8-1.8 8.6 1.2 12.1-1.3 1.5-2.1 4.1-2.3 5.8-.6 2.9 2.1 4.9-2.2 8.3.1 6.9 5.8 10.5 7.4 19.6 7.9 1.5.3 2.8.7 4.2-.4 1.4-1.3 4.1.6 2.6 2.2-.9 1.8.7 3.3.1 5.2-.7 2.3-2.7 1.7-4 2.6-.9.6-2.3.5-2.8-1-.6-1.8-1.6-.9-1.9-.1-.6 3.6-11.2 4.1-13.2 1.8-.5-.5-1.1-.4-1.5.1-2.2 2.9-4.8 1.6-7.2.6-1.4-.6-2.5-.8-3.6.1s-7.5 2.8-8 1.5c-.3-2.1-2.2-1.6-3.3-2.3-1.8-1.1-3.2-.7-4.9-.1-5.2 1.5-3.9-9.7-3.9-13.6zM81.9 250.4c4-1.7 14-11.9 16.6-8.1 2.6 2.4 5.2-5 9.2-4.1.3 0 .7-.3.9-.6 3.7-4.2 9.1-5.6 13.4-8.8 2.6-2 4.9-1.1 7.5-1.1 2.5 1.2 3.2 2.1 5.5-.7 1.1-1.2 1.6 1.9 2.9 2.6 1 1.3-4.4.7-2.3 3.7 1.1 1.4.4 6.7-1.9 5.5-2.1-1-3.8.6-5.7.8-3.3 1.1-.5 6.9-5.8 6.9-.8.1-1.5.5-1.5 1.4-.8 3.1-5.3.3-5.1 6.6-.9 7.4-10.7 4.6-14.9 8.3-5 4.9-12 3-17.2 5.9-3.1 5.1-9.6 3.2-13.8 6.6-1.3.8-2.1 0-3.1-.5-1.5-.7-3-1.7-3.4 1.1-2.7 2.2-5.7 5.6-9.8 5.2-1.2-.2-2 .6-2.7 1.3-1.7 1.8-4 2-6.1 2.5-1.7 1-3.6-2.6-1.6-3.4 2.2-.8-.2-2.4.5-3.3 1.1-1.4 1 2.1 2.7.7 3.7-2.9-1.7-3.6-.3-5.2 1.7-.9 5.4-6.6 7.2-4.4.3.7.2 2 1.5 1.1 1-.6 2.5-1.3 2.2-2.7-1.2-4.6 11.9-11.4 15.6-13.8 3.2-.6 4.6-3.6 6.4-5.9 1-.6 1.6-2.3 3-1.5 1.7 1.1 0 2.2.1 3.9zm17 10.7c1.6-.1 9.3-2.8 4-3.9-1.9-.2-9.5 3.3-4 3.9zM190.6 283.1c-1.4 2.4-.7 4.6-1.1 7-1.8-1-3.2 0-4.8.8-4 1.5-3-4.2-6.7-2.8-1.3.2-2.6-.8-2.5-1.8.6-3.2-3.4-4.5-2.4-7.4.4-.8 1.2-.8 1.9-.8 1.8 0 .9 1.8 1.7 2.7 3.2-1.3-.5-9.1 4.2-8 1.6.4 5.8 1.5 6.3-.8 0-.8-.6-.9-1.2-.9-1.8.3-3.8.9-4.5-1.8-3.7-.1-6.9 1.3-10.5 1.3-1.1-.1-.9 1.1-1.6 1.4-.9-.2-.6-1.3-1.2-1.8-.4-.4-.7-1-.4-1.6 1.3-1.6 3 .8 4.7-.4 4.3-2.1 8.7-1.5 13.2-1 3.2-.8 7-2.1 9 1.7.2.4.5.8.8.6 3.7-2.6 2.6 1.7 3.5 2.8.6.8.4 2.3 2 1.9 1.3-.3 3.1-.4 2.9-2.5 0-4.7 2.5 3.8 10.5-2.3 7.3-5.6 11 .4 10.1-3.7-.1-.5.3-.9.8-1 1.3.2.7 1.7 1 3 1.4-1.1 3.1-.8 4-2.8.6-1.3 1.9-.4 2.6.7.3 1.2 7.4 4.6 7.5 3.3.1-1.5-4.6-1.2-1.4-4.3 1.9-1.3 1.9-4.2 4.3-4.9.7-.2 1.7-1 2.3 0 1.8 2.3-3.4 3.6-.5 4.7 3.6 3.5 2.5-3 6.9-2.7.9.1 2.7-.2 2.8 1.7.1 1.9 1.6 4-.7 5.6-.6.4-2.4.5-1 1.8 3 5 5.7-2.8 12-2.2.3 0 .7 0 .8-.2 1.5-3.1 3.3-1.5 5.2-.5 2.8.4 1.3 3.7-.9 2.9-1.8-1-2.5.9-1.5 2.2 1.6-1 3.6 0 5.1-.6s6.4-.9 7.7 0c1.9 1.4-.8 3.9-2.5 3.2-8.8-2.7-8.6 9.3-14.2 6-2.9-3.5-11.7 9.7-14.9 6-.9-2.4-4.9-1.7-4.7-5 .2-2.7 4.4.1 4.5-2.5-.1-1.1-1.3-1.1-2.1-.9-1.9.4-2.8-1.3-4.2-1.9-3.8-2-3.8 2.3-4.9 4.9-.4 1.9-3.4 2.2-3.2-.2-.1-1.6-1.6-1.2-2.4-1.4-1.1-.3-1.1.9-1.3 1.7-.5 1.6.2 4.5-3.2 3.3-.7-.3-.8.9-1 1.5-.5 1.1-1.2 1.5-2.2 1-2.7-1.2-.3-4.9.3-6.9.5-1.2 1.1-2.5-1.2-1.7-2.2.5-6.3-1.9-6.4 2.4-.9 3.9-7.3 1.3-9.8 4.1-3.8 3.2-7.4-2.3-9.8 1.6-1.3 1.4-3.4 3-4.3 1.1-.7-1.9-3.4-2.3-3.4-5.6zm-4.5-3.2c5.7-.5-3.3-3.7-4.9-1.5-1 .5-.6 1.9.4 1.5 1.6-.9 3.1-.3 4.5 0zm56.2-11.9c.1-.1.3-.3.4-.5-.6-.6-1.5.5-.4.5zM89.6 289.5c-3.3 1-15.7 3.9-17.3.9-1-1.5-2.2 1.5-3.4.2-1.2-.8-2-.4-2.9.5-1 .9-2 2.4-3.5.2-2.7-2.2-3.2 5.1-.5 5.8 3 1.8-1.1 2-.2 3.1 7.9 5.3 2.3-6.9 14.8 0-1.2 1.1-2.5.2-3.5.7-.9.1-1.4 1.5-.1 1.6 3.5.3 6.6 3.2 10.3 2.4 5.6-.8 21.3 1.6 25.2 5.3.8.9 1.9.2 2.6-.2 2.8-1.2 5.7-1.7 8.5-2.6 3.9-1.9 5.1 2.6 3.2 5.4 1.1 1.3 3.4-2.4 4.4 1.4.4 2 1.5 4.2-1.8 5-4.5.8-7.1 2.7-10.7-1.2-2.3-1.9-14.2-3.5-12.8-6.6.2-.7-1.3-1-2.1-1-6.4.1-11.8-3.9-18.4-2.8-2.3-.3-4.7 0-7-1-1.4-.6-2.7-1.3-4 .3-3.1.8-6.1-3.4-9.6-1.9-2.1.6-3.7-7.4-5.5-5.1-1.2 1.4-3-.7-4.2-1.1-.6-.3-2.1.4-1.8-1 .3-1.5 1.5-.2 2.4-.2.6-1.9-2.2-4 .3-5.8-3.8-5.3 1.5-2.9 2.9-3.9 2.1-1.5 4.3.8 6.1-1.4.6-.5 1.6-2.3 2.6-.2.2.3.5.3.7.1 2.7-3.3 7.6-1.9 10.4-5 .3-.3 1.2-.3 1.6-.1 8.4 3 15.3-4.8 23.5-4.8 1.5.1 3.1-.2 1.9 2.3-.6 1.3.3 1.1 1 1.2 2.9.6 4.7-2 7.1-2.8 2.1-.7 4.3.3 6.4-1 2.2-.1 2.2 4.8-.5 5-4.7 1.8-9.9.7-14.5 3.2-1 .5-1.9-.5-2.7-1.2-1-1.3-4.3-.8-4.6.4 1.1 3.2-.7 2.7-2.6 2.5-1.8.2-6.1-.5-6.3 2 .1.9 1.1.5 1.7.6 1 0 2.1-.4 2.9.8z"/><path class="prefix__st0" d="M88.1 402c5.1-3.1-1.9-1.6.1-5 3.4-5.3-1.5-5.4-3.6-9.9-.9-1.6-1.4 2-2 0-2.6-3.8 5.3-3.2-.7-6.9-3.7-2 1.2-4-2-6.4-1.3.3-1 3.8-2.7 3.3-2.3-.9 1.5-3.6-1.7-5.2-7.8-3.8 2.3-4.9-7.9-8.4 6.9-2.3 4.7 6.7 10.3 7 1 .1 1.5 2.4 2.3 1.4 1.1-1.4-2.1-2.4-2.4-3.7.1-5.7-6.7-3.6-8.3-8.3-.4-.8-1.7-1.2.1-2 1.2-1.1-1.2-3.3-1.6-4.6-.8-4.4 5.1 3.1 7.1 2.1.1 0 .2.1.2.2-1.5 5.6 4.8 3.5 6 6.5 2.7 2.5 2.5 8.7 8 3.9 1 4.6 6.5 5 6.7 10.1-.1 1.9 2.5 3 3 5 1.5 1.3.8-3.2 2.6-.8 1.8 2.2 6.7.2 8 3.8.5 1.9 1.2 3.4 2.1 4.9 2.7 3.9-5.4.5-2.4 4.5 1 1.1 1.3 2 .7 3.3-.7 1.7 1.6 2.7 2.6 1.4.7-.5.4-1 0-1.7-.9-1.6.5-3 .6-4.5 4.9 1.2 4.9 2.9 6.4 7 .5.7.3 1.3-.4 1.7-2.2.9-.9 3.4-2.6 3.3-1.8-.3-3.1-2.2-4-3.4-5.9-.2-4.5-5.4-6.6-5.5-4.8 3-2.8-3.1-5.2-.2-1 .8-.2 2.2-.9 3.2-1.4 2.1 1.6.8 1.6 2.9-4.1.4-1.4 2.6-3.4 2.3-1.7-1 .5-2.5-.8-3.9-4.8-5.6 3.4-1.4 2.2-5.9-2.4-4.1-4.6 1.8-6.7 3-.6.3 1 1 1.5 2-5.5-.9.8 7.8-6.2 3.5zm3.8-5.3c-.3-.3-.5-.2-.6.2.3.3.5.2.6-.2z"/><path class="prefix__st2" d="M65.7 217.5c1.2-1.7-2.1-3.4.3-4.2 4 0 1 7.1-.7 7.9-5 3.7-7.5 9.5-11.7 13.8-1.7 1.4-.1 3.7 1.6 2 2.6-.7 2.2-5.6 4.8-4.8 1 .6.2 2-.3 2.5-3.7 3.8-4.6 10-10.1 12.5-1.4.6-2.5 3.2-4.1 4.4-5.7 2.8-6.2 17.1-9.5 16.8-1-.4-2.5-1-1.6-2.1 1.7-2.1-.3-5.2 2.1-7 .3-.2.2-.7-.2-.9-3.6-1.8-1.1-4.5-.4-6.2 1.5-4.1 3.4-8 4.6-12.3 3.4-9.3 7.7-18.6 13.2-26.6.1-.7-.2-1.9 1-1.6 1 .2.6 1.3.6 2-.1 6.5 7.2.9 10.4 3.8zM217 152.6c-3.4.2.7 5.7-4.7 4.1-.6-.2-.7 1.1.1 1.4 1.1.4 1.4 1.7.8 2-1.8.8-2.8 2.7-5 3-2.8.4-5.9-.8-8.2 1.9-.2.2-.8.4-1 .2-3-2.8-5.6 7-11.1 4.2-1.3-.6-2.9-1.3-4.5 0-2.3 1.3-2-4.4 2.9-2.7 1.4-.3-1.2-1.7.5-2.1.9-.2 1.8 1 2.6 0 .7-1.5-.5-3.9-2.4-4 1.6-1.3 3.4-.3 4.7-.9.8-.4 2.4-.3 2.2-1.3-.2-1.1-1.7-1.3-2.8-1.6-.6-.1-1.4 1.1-1.8-.1.6-3.4 5.6-3.6 8.1-4.8 3.4-1.8 2.1 4.8 5.5 4.5 1.7.1 3.6.7 4.3-1.9.2-.7 1.3-.8 1.5-1.9-1.3-.2-2.2.9-3.3 1.2-2.7 1.6-4-3.9-.9-3.8 1.5 0 2.3-.1 1.8-2.1.4-3.1 6-1.4 6.1-5.6 0-.3.7-.9 1-.9 2.6.3 3.7-2.2 5.4-3.2 4.5-2.8 20.2-2.5 7.4 2.8-2.8-.4-2.1 2.5-2.2 4.1-.3 3.9-3.3 2.8-5.2.4 2.4-.4 1.6-3.7 3.8-4.4.5-.9-1.6-1.5-2-.6-2.5 6.1-3.8-1.3-8.3 6.1-.7 1.1.6 2.7 1.5 2.5 2.7-.7 4.9 1.5 7.5.8 1.9-.5 3.6-1.4 5.6-1.4 3-.4-.5-3.8 4-2.9 1.2-.3.7.9.6 1.6-.3 1.3 1 .8 1.4 1.4 1.4 1.3 1.1 3.7-1.1 2.7-1.5-.4-3.2.4-4.6-.9-.5-.4-.8-.1-1.1.3-1.8 2.2-4.6 2.1-6.8 3.4-1.4 1.1-2.7 1-2.3-1.5zM190.4 222.6c.5-1.6 1.7-3.2-.3-4.9-.9-.7-.3-2 .6-2.8 1.5-1.4 2.2.3 3 1 1-.9-.4-2 .5-2.5 1.1-.6 1.2.9 1.9 1.3 1.9 1.1 3.7 2.5 5.8-.1 1.1-1.4 4.7-.8 5.9.6.1.1.3.4.2.5-1.2 2.3-2.7 6-5.5 2.9.3 5.1-6.3 6.1-9.3 9.4-1.8 1.2-3.9-.1-5.8.9-1 .6.7 4.6-2.9 2.4-.7-.5-2.7 1.8-4 2.9-1.2 1.1-3.1-.4-4.8.3-2.5 1-6.2 3.6-8.9 2.3.7-2.2-2.2-3-1.5-4.9-.9-.4-1.2.2-1.6.5-3.8 2.5-1.3-3.5-4-3.6-8.7-3.5-7.8 1.9-11.2 1-2.5-1.9 1.1-5.3 2-7.4 1.7-2.2 3.3.9 4.6 2.4.8-4.5 6.3-2.3 9.5-2.4 2.1 1 5.2-2.6 6.8-1.3 1.9 4 4.8-.8 6.8 1 .1 1.4-1.5 2-2.7 1.8-3 .4-5.3 3.7-4 6.5 1.7 2.2 3.5-1 5.4.2.8.5.6-1.2.5-2 .7-4.8 6-2 6.1-3.9 0-1.9-2.7.2-3.3-1.4.8-1.6 4.4-6.2 6.4-4.2 3.1 1.6-3 5.3 3.8 3.5-.2 1.6-1.7 1.8-2.7 2.7-2.3 4.3 6-1.8 7-2.9-1.7-.7-2.9.6-4.3.2zM149 288.2c2.1.2 5.5 2.7 2.3 3.9-2 1.3-4 3.1-5-1.1-.1-.6-1.2-.7-1.4-.3-1.7 2.8-5.1 1.6-7.2 3.3-4 1.4-2.2 6.1-7.6 4.7-1-.3-1.7-1-2 .6-.4 1.7-1.8 1.1-2.8 1s-2.4-.2-1.9-2c.2-.9-1-1-1.3-1.8-.5-1.6.9-1.3 1.7-1.7-1.4-3.4-6.9-.6-6.9-4.9-.1-1.9 1.5-1.3 2.5-1.3 3-.1 4.8-2.8 7.5-3.7.6-.2.3-.8-.1-1.2-2.3-1.6 1.3-3.4 2.9-2.2 5.1.7 5.1.7 2.9 5.4-.4 1 0 1.6.7 1.9 1.9 1.6 8.3 2.9 5.5-1.2-.8-.7-1.8-1.5-.8-2.6 2.3-2.1 2.3 2.3 8.3.8-1.4-.7-2.5-1.2-2.7-3.2-.4-2.8-4.5-3.4-6.3-1.2-.5.6-1.5 1.9-1.7.7-.2-1.5-3.9-1.3-1.6-3.7.6-.7 1.5-1.2 1-2.4-1.3-2.7 2.8-3.6 3.8-1.2.9 2.9 2.4 4 5.2 2 1.9.6 3.9 2.2 5.7-.6 1.9-1.2 3.3 4.6.4 4.4-2.3-.5-3.2 2.4-1.3 3.6 1.5 1.3 1 2.7.2 4zm-15.5 5.5c-1.5-1.6-2.8-3-2.5-5 .2-1.1-.4-1.2-1.1-1.1-.8.1-2-.4-2.2.6-2 3.8 2 6.6 5.8 5.5zM38.5 191.1c.6-4.2 5.3-20.4 9.1-20.6.9-.2 2.2 0 1.8-1.5-.2-.9.2-2.6-1.7-2.3-2.1.4 1.5-7.1 3.3-5.2 1.1.6.6 1.2.1 1.9 3 8.4-.1 7.3-4.6 14-3.2 8.7-6.7 17.2-11.2 25.5-.3 1.4-2 .1-2.4.8.1 4.5-6.1 5.6-5.4 10.5.3 3.2-3.6 2.5-2.4-.7 1.4-5.5 3.3-10.8 3.7-16.6.7-3.5 4.3-6 4.4-10-.4-3.4 3.2-3.5 4.1-6.1.2-.7.8-1.6 1.6-1.3 2.3 3.6-4.1 6.9-.4 11.6zM243.3 381.2c2.4 1.2 5.3-.6 6.4 2.5 2.1 4.8 2.1-.4 4.1-.1.7.3.8 1.1.5 1.5-2.9 3.9 3.4 3.7 2.4 5.9-4.1 2.4-9.6-8.3-15.8-5.1-3.1 1.8-4.4-1.5-5 0-.6 3.1 12.3 2.7 7 5.8-1.1.4-3.4-1-3.1 1.5.2 2.2.9 4.6 3.4 5.4 4-.1 2.6 4-.1 5-5.2 3.1-5.6 3.1-5.6-3.1-.5-3.1-2.2-17-7-13.2-1.7 1-3.1-.8-4.1-2.1-1.1-3.9 6.9 1.9 7.6-.7.2-.8-.2-1.3-1-1.4-8.4-1.9-4.4-9.8 2.6-7.3 1.7.7 3.5 1.2 5.5.6 3-.6 4.8 2.5 2.2 4.8zM277.1 322.3c-2.8-1.4-3.9 3.9-.8 3.4 1.8-.2 1 1.7 1 2.7-1.5 3.1-11.7-3.4-16.1.4-1.2.7-2.9-.6-3.8-1.8-.8-1.2.7-1.5 1.3-2.2 2.1-1.9.8-5.5 4-6.6 2.1-1.7 2.7-6.7 6.2-4.4 2.8 2.6 2.3-8.9 8.2-1.5-2.2 3.2 2.6 4.5 1.8 7.7-.5 1.7-.5 2.4-1.8 2.3zM155.7 174c1.9-5.6 8.4-2.9 9.5-7.1.1-.9.7-1.1 1.4-.9 4.9 1.7 8.9-2 13.8-1.7 2.3.1 1.3 3.1-.8 1.6-1.1-.3-3.9.2-2.8 1.7 1 .9 1.7 0 2.5-.4 1-.5 1.6.5 1 1.3-1.9 5.8-6.5.7-9.3 4.2-1.7 2-4.2 2.8-5.8 5-3.4 3.6-1.5-4.5-5.3-1.8-2.4 2.2-5.2-.7-5.6 1.6-.2.9-.3 2.3-1.7 1.2-1-.8-2.3-1.6-1.1-3.3.6-.7 1.3-2 .7-2.7-2.3 2-3.8-1.7-6-.9-1.1.4-2.4-.3-3.3.9-1.8 2.6-3.4-3.1-1.4-3 3.7.4 5.3-3.4 8.4-3.9.8-.1 1.5-1.3 2.3-.6.9.8-.3 1.5-.6 2.3-.3.7-.4 1.6.2 1.9 2 .8 2.1 3.1 3.9 4.6z"/><path class="prefix__st0" d="M36 286.5c1.4 5.9 1.4 11.7-.8 17.4-.9 3-3-2-5.1-1.4-5.6-3.8-4.5-13-4-19 1-6.9 10.4-2.3 9.9 3z"/><path class="prefix__st2" d="M25.3 235.3c.3-.5.7-1.2.8-1.2 1.3.8 2.2 2.4 4.1 2.2-.7 1.6.8 3.3-.1 4.8-1.6 3-1.7 6.3-2 9.5-.2 2.7-2.5 3.7-.5 6.7.6.9 2.2 11.2-.4 9.3.5-2.4-3.4.6-2.7-2.5 1.8-7.1-.8-13.9-.4-21 0-1.8.3-3.6-2.1-4.5-1.9-1.1-.5-5.8 1.6-6.1 1.8-.1.9 1.8 1.7 2.8zM165.2 278.8c-1 .6-1.9 1-2.3 2.1-2.7 6.5-11.4 3.7-9.2-3.3.2-2.2 4.1-.7 5.2-2.5 1.3-1.2 2.6-2.3 4.5-1.3.2.1.7-.2 1-.4 5-3.4 8.2 5.3 4 7.6-.9.5-1.8.7-2.7.3-1.2-.4 0-1.4-.5-2.5zM141 180c-1.9-.8-4.2 2.7-2.2 3.8 1.1.5.2.7-.1 1.1-6.4 4.7-.8 5.5-4.6 6.7-2.1.9-4.5.1-6.5 1.6-1 .7-1.8-1-1.1-1.7 1.3-1.9 5.9-2.6 3.6-5.7-.8-.9-1.6-2-.5-2.6 1.2-.8 2.5-2.4 4.3-1 .7.6 1.2 1.6 2.3.6 1-1 .1-1.5-.2-2.4-.6-3.7 3.8-4.1 6.4-3.1 1.3.1-.4 1.4 0 2.4.3 1.1-.9.3-1.4.3zM187.6 386.3h5.6c1 1.2-.7 1.7-.2 2.6.8.7 1.6-.4 2.3-.2 1.8.2 3.6 1.7 1.4 3-1 .7.1 1.2.6 1.6 2.3 1.1-.8 3.6-1.6 1.4-.7-2-2.2-2-3.8-2.1-5.1.2-4.7-1.8-4.3-6.3zM30.3 327c2.2 3.7 2 8.4-.2 10.9-2.8 2.9-.1 7.9-3 10.4-1.8.4-2.3-2.1-1.2-3.2.9-6.1 1.8-12.1 4.4-18.1zM51.5 263c-8.2-2 10.3-9.3 11.3-12.5.7-.8 1.7-1.8 2.6-.8 1.2 2.2-11.7 11.4-13.9 13.3zM143.3 329.9c-1.8.3-3.1 2.6-4.9.1-.6-.8-1.3-.3-1 .7.9 4.2-4.5-.2-6 1.5-1.2-1.2-3-5 .3-4.2 6-.2 8.8.2 11.6 1.9zM280.8 319.6c.9-3.7-2.7-5.2-1.5-7.7 1.6-.8 1.7 2.1 5.4-.2 8-1.5-.9 6.8-3.9 7.9zM225.6 214.2c-1.2-.5-3.5.3-3.8-1.5-.1-.9.3-1.5 1.1-1.8 1-.3 2-.6 2.3-1.9.3-1.1.9-1.9 2.2-1.6 4.3 1.6 3.3 7.4-1.8 6.8z"/><path class="prefix__st0" d="M308.9 200c2 .7 2.1 3.5 5.3 2.4-2.2 2.4-2.2 4.8-3.2 7.6-.4-2.5-1.1-3-2.7-1.8-.6.5-2 .6-2.5-.3-.7-1.1.9-1.2 1.2-1.9 1.6-1.7 4.5-2.7 1.9-6z"/><path class="prefix__st2" d="M29.9 323.2c.2-1 1.1-10.9 2.8-7.4.6 1.6 3.6 3.2.3 5.3-.8.5-.2 1.7-.4 2.5-.5 3.3-3.4 2.9-2.7-.4z"/><path class="prefix__st0" d="M158.7 156.2c1.4-.3 3.1 1.2 1.9 2.5-.9 1.3-1.4-.1-2.1-.3-4.8.2-11.1-10.3-6.1-9.1 2.5 1.5-2.1 5.4 3.1 4.8 2.2-.6 1 4 3.2 2.1zM42.5 359.5c0 .6.1 1.1.1 1.7-1.4 4.4-4-1.9-3.7 4.9.8 1.2-.1 3-1.5 1.6-2.4-1.5 2.6-5.6.8-11 1.9.6 2.3 3.1 4.3 2.8z"/><path class="prefix__st2" d="M70.7 203.8c-.1 1.2-4.1 5.3-4.5 4.9-.7-.7-2.1-1-1.9-2.5.2-1.8 2.8-5 3.8-4.4.8.6 2.4.6 2.6 2z"/><path class="prefix__st0" d="M375.9 191.8c-1.9-.5-6.4.7-3.6-2.7.8-.9 1.5-2.3 1.2-3.9-.1-2 3-2.2 2.2.2-.1 2.6-1.7 4.3.2 6.4zM84.8 181.4c.8-2.6.4-6.3 1.9-8.2 2.8 2.7 1.9 6.1-1.9 8.2zM89.8 205.4c-1-1-1.1-4.7-2.9-3.9-.5.3-1 .8-1.2-.2-.3-1.1 1-.9 1.6-1.1 5.2-2.3 3.2 1.3 3.1 4.9-.3.1-.5.2-.6.3zM304.7 193.5c.8 1.7 1.7 3.2 1.5 3.4-1.9 1.3-2.4 6.5-5.2 3.5-.7-.8.5-.9.9-1.4 1-1.4 2.5-2.7 2.8-5.5zM177.3 211.3c-2.9-4.8.2-6.2 4.1-7.1 1-.1.8 2.9-.3 2.6-2.9-.6-3.5 1.3-3.8 4.5z"/><path class="prefix__st2" d="M221.1 288.3c-.4 2.3-4.6 3.1-4.3.1.1-1.5 1.2-2.5 2.5-2.7 1.9-.3 1.3 1.5 1.8 2.6z"/><path class="prefix__st0" d="M325.8 337.4c1.4.2 1.3 1.6 1.7 2.4.5 1-.6.9-1.1.9-.8.1-1.7.1-2.5.2-.6.1-1.3 1.4-1.8.2-.9-2.5 2.5-2.2 3.7-3.7zM353.8 409c-.7-1.8-3.4-3.4-2.4-5.2 2.7-1.9 4.9 2.7 2.4 5.2zM127.4 403.8c2 2.2 1.5 8.7-1.9 5-1.4-2 1.4-3.2 1.9-5z"/><path class="prefix__st2" d="M292 406.4c.4-1.3.5-3 2.5-2.6.8.1 1.8.5 1.2 1.3-.8 1.2-.5 3.3-2.5 3.4-1.4.1-1.2-1.1-1.2-2.1zM105.4 153.9c-.6 1-1 2.6-1.4 2.2-1-1-3.1.1-3.4-1.9-.2-1.2.7-2.2 1.8-2.2 1.3-.1 1.6 1.8 3 1.9zM150.3 175.1v.3c-2.5-.4-4.2 5.4-6.3 2.6-.1-.6.2-1 .7-1 1.4 0 1.3-1.4 2-2.1.9-1 3.1-1.5 3.6.2z"/><path class="prefix__st0" d="M144.7 128.5c.7.7 2.1 0 2.7 1.3-1.5.3-1.5 2.8-2.9 2.6-1.8-.5-3.1-4.3.2-3.9zM257.6 346.1c2.1.1 2.6 4.1.3 3.9-3-.7-2.9-2.9-.3-3.9zM275.3 186.9c1.1.3 2.8-.1 3 1.6.1 1-1.4 1.1-2.2 1.2-1.9.3-3.8-3.3-.8-2.8zM118.5 149.5c.3.1.9 0 .7.6-.1.5.1 1.4-.7 1.3-1.5-.1-1.6.9-1.7 2 .3 1.5-2 1.3-2-.1-.1-1.1 2.5-3.8 3.7-3.8zM344.1 399.7c-2.5.6-4.3-3.1-2-3.2 1.2 1.2 6.1 2.4 2 3.2zM154.4 145.4c2.7.4 4.4 5.2.1 3.7-1.2-.1-.1-1.2-.2-1.8 0-.6.1-1.3.1-1.9.1 0 0 0 0 0zM260.2 209.9c.9-2.6 6.5-1.2 5.7.6-.4 1-.8.4-1.1-.1-1.4-1.7-3 .5-4.6-.5z"/><path class="prefix__st2" d="M21.6 292.6c-2-.1-2.8 2.1-4.5.9-3.3-1.7 2.7-3.1 4.5-.9z"/><path class="prefix__st0" d="M199 205.1c.4-1.4-1.6-2.8 0-3.8 1.1-.7 1.7.8 2 1.5.8 1.8-1.6 1.2-2 2.3z"/><path class="prefix__st2" d="M40.4 302.8c-1 .4-.7 2.5-2.5 2.1-2.7-.8 2.8-5.4 2.5-2.1z"/><path class="prefix__st0" d="M113.5 409.7c-.1-.7.1-1.6-.4-2.2-.5-.5-1-1-.3-1.7 2.9-1.3 2.9 3 .7 3.9zM128.7 125.6c-.2.9.2 2.1-1.2 2.2-.7 0-1.2-.3-1-1-.1-1.5 2.8-4 2.2-1.2zM262.5 344.7c-.3 1.5-2.6 1.3-2.4-.2 0-1.4 2.1-.7 2.4.2zM256.1 209.7c.9.1 2-.5 2.5.6.3.6-.4 1.2-.8 1.3-1.6.4-1.4-1-1.7-1.9zM213.1 410c-.4 1.5-2.2 1.9-2.4.2-.1-1.7 1.6-.7 2.4-.2zM209.4 165.8c0 .7-.3 1.1-.8 1-1 .1-1-2.6-.2-2.4.8.2.9.8 1 1.4z"/><path class="prefix__st2" d="M259.3 388c-.3.9-1.1.7-1.6.7-2.3-.5 1.1-3.2 1.6-.7z"/><path class="prefix__st0" d="M214.8 421.8c1.4-.3 2.2.1 3.5 1-1.6.3-2.3-.2-3.5-1zM395.5 404c1 0 1.1 1.8-.1 1.5-.9 0-.8-1.4.1-1.5zM256.1 209.7c-.9.2-1.5-1.5-.5-1.5.6.3.4 1 .5 1.5zM142.5 421.6c-.1.1-.3.2-.4.2-.1-.2-.2-.4-.2-.6.2 0 .4-.2.5-.1 0 .1 0 .3.1.5zM260 375.8c.1.4-.4 1.3-.9.7 0-.7.5-.6.9-.7z"/><path class="prefix__st2" d="M187.6 386.3c-.6-.1-1.6-1-.5-.9.3.2.3.6.5.9z"/><path class="prefix__st0" d="M373.8 389.1c-.1.2-.2.4-.3.5-.2-.1-.4-.2-.5-.4l.2-.4.6.3zM102.6 397.5c-.1.1-.3.2-.4.3l-.3-.6c.3-.3.7-.1.7.3zM347.7 397.6c0 .1.1.2.1.2-.1 0-.2.1-.2.1 0-.1-.1-.2-.1-.2 0-.1.1-.1.2-.1zM198.2 192.7c-.1.1-.1.2-.2.3v-.2c.1 0 .2 0 .2-.1.1.1 0 0 0 0zM59.6 194.5c0 .1-.1.2-.1.2s0-.1.1-.2zM252.7 361.2c-.1.1-.2.2-.2.3 0-.2 0-.3.2-.3z"/><path class="prefix__st2" d="M325.4 75c1.3 2 3.3-.9 4.1.9.8 2 .7 3.4-1.8 2.5-3.3.4-4.1-3-6.3-4.3.4-1.1 1.6-.2 2.1-.9-.6-1.9-4-1.3-3.3-3.9 1.3-2.4 4.8 1.6 5.1-2.8.7-4.3 5.7 5.4.1 8.5z"/><path class="prefix__st0" d="M401.4 121.3c0 1-.3 1.8-1.4 1.8-1.3-.1-1-3.3.4-3.2 1.1-.1 1 .7 1 1.4zM384.3 125.8c-.1 0-.2.1-.2.1 0-.1 0-.2-.1-.4.3-.1.1.3.3.3zM374.5 82.8l.3.3h-.2c-.1-.1-.1-.2-.1-.3z"/><path class="prefix__st1" d="M138.3 431c.8-1.2 1.6-1.5 2.7-1.2.8 1.5-1.5 1.8-2.7 1.2zM119.7 423.1c-1.2.2-1.4-1.7-.2-1.6 1.3-.4 1.6 1.6.2 1.6zM109 413.8c.1.9-1 1.5-1.3.5.2-.6.8-.4 1.3-.5zM13 293.9c-.1 0-.1-.1-.2-.1.1 0 .1.1.2.1z"/><path class="prefix__st0" d="M273.4 132.9c2.6 1.6-.3 3.6-1.6 1.2-1-1-2.7-4.1 0-3.9.7 0 1.4.1 2.1-.5 1.4-1.3 4.7.1 3.9 2.1-.6.6-1.2 0-1.7-.2-.9-.3-2.8.6-2.7 1.3zM307.5 124c0 .9-.7 1.1-1.3 1.2-2.2.1.5-4.8 1.3-1.2zM307.6 120.4c0 1-1.3.6-1.1-.4 0-1.1 1.4-.8 1.1.4zM313.3 120.8c-.2-.1-.5-.1-.7-.2.4-.5.5 0 .7.2zM254.4 122.6c-.1.1-.2.2-.2.3 0-.2 0-.3.2-.3zM185.3 88.1c3-.9 7.2.3 6.1 2.9-.4.8-1 .2-1.4-.1-1-.9-1.9.2-3.2.1.3-1.2 1.6-2.6-1.5-2.9zM203.4 75.9c2.8 0 .1 3-1.4 2.6-1-.1-2.6-.6-2.4-1.5.7-1.6 2.9.2 3.8-1.1zM216.2 79.3c-1.4.2-2.5-.5-3.7-1.4 1.3-.6 2.4-2.1 4-.7 1.2 1-.6 1.3-.3 2.1zM213.4 85.7c.5.1 1.1-.2 1.4.5.2 1.2-1.3.3-1.4-.5zM239.1 73.4c0 .1-.1.1-.1.2-.1-.1-.1-.2-.2-.3.1 0 .1-.1.2-.1 0 .1 0 .2.1.2zM213.4 85.8c-.1-.1-.2-.2-.2-.3 0 0 .1.1.2.3 0-.1 0 0 0 0zM175.2 93.3c0 .1-.1.1-.1.2 0 0 .1-.1.1-.2zM188.7 85.1c0 .1-.1.2-.1.2s.1-.1.1-.2zM345.9 130.7c-.1 0-.1-.1-.2-.1.1.1.1.1.2.1 0 .1 0 0 0 0z"/><path class="prefix__st1" d="M98.9 261.1c-5.6-.6 2.1-4 4-3.9 5.3 1.1-2.4 3.8-4 3.9zM186.1 279.9c-1.4-.3-2.9-.9-4.5-.1-.4.2-1 .1-1-.6.7-3.7 11.5-.1 5.5.7zM242.3 268c-1.1.2-.3-1.2.4-.5-.2.1-.3.3-.4.5zM91.9 396.7c-.1.5-.3.5-.6.2.1-.5.3-.5.6-.2zM190.4 222.6c1.4.4 2.7-.9 4.4-.2-.9.9-9.2 7.2-7 2.9.8-.9 2.4-1.1 2.6-2.7zM133.5 293.7c-3.9 1.1-7.8-1.7-5.8-5.5.2-1 1.4-.5 2.2-.6.7 0 1.3 0 1.1 1.1-.2 2 1 3.4 2.5 5z"/></g></g></svg>