<?xml version="1.0" encoding="utf-8"?>
<!-- Generator: Adobe Illustrator 24.2.1, SVG Export Plug-In . SVG Version: 6.00 Build 0)  -->
<svg version="1.1"
	 id="svg2" inkscape:output_extension="org.inkscape.output.svg.inkscape" inkscape:version="0.45.1" sodipodi:docbase="C:\Documents and Settings\skripnik\Рабочий стол" sodipodi:docname="Watermelon.svg" sodipodi:version="0.32" xmlns:cc="http://web.resource.org/cc/" xmlns:dc="http://purl.org/dc/elements/1.1/" xmlns:inkscape="http://www.inkscape.org/namespaces/inkscape" xmlns:rdf="http://www.w3.org/1999/02/22-rdf-syntax-ns#" xmlns:sodipodi="http://sodipodi.sourceforge.net/DTD/sodipodi-0.dtd" xmlns:svg="http://www.w3.org/2000/svg"
	 xmlns="http://www.w3.org/2000/svg" xmlns:xlink="http://www.w3.org/1999/xlink" x="0px" y="0px" viewBox="0 0 100 91.6"
	 style="enable-background:new 0 0 100 91.6;" xml:space="preserve">
<style type="text/css">
	.st0{fill:#D0F4B4;}
	.st1{fill:#AAD38B;}
	.st2{fill:#92A99A;}
	.st3{fill:#9ECF66;}
	.st4{fill:#8EB26D;}
	.st5{fill:#6F8D73;}
	.st6{fill:#6E924E;}
	.st7{fill:#6A9231;}
	.st8{fill:#669313;}
	.st9{fill:#516D4E;}
	.st10{fill:#588911;}
	.st11{fill:#4E6F2E;}
	.st12{fill:#4A7114;}
	.st13{fill:#334A2C;}
	.st14{fill:#324E15;}
	.st15{fill:#283526;}
	.st16{fill:#253219;}
	.st17{fill:#1C2617;}
	.st18{fill:#171B13;}
</style>
<sodipodi:namedview  bordercolor="#666666" borderopacity="1.0" gridtolerance="10.0" guidetolerance="10.0" id="base" inkscape:current-layer="svg2" inkscape:cx="372.04724" inkscape:cy="372.04724" inkscape:pageopacity="0.0" inkscape:pageshadow="2" inkscape:window-height="721" inkscape:window-width="1024" inkscape:window-x="-4" inkscape:window-y="-4" inkscape:zoom="0.508" objecttolerance="10.0" pagecolor="#ffffff">
	</sodipodi:namedview>
<g id="layer1" transform="translate(-72.095026,-101.55837)">
	<g id="g1340" transform="matrix(1.030149,0,0,1.016235,-19.83182,-219.4139)">
		<path id="path1378" class="st0" d="M128.1,404.8c-4.3-0.4-8.5-1.4-12.3-3.4c-5.4-1.7-10.5-4.9-14.3-9.2c-3.4-4.3-5.5-9.5-8.5-14.1
			c-2.5-6.6-4.1-13.8-2.9-20.9c0.4-5.5,1.3-11.1,4.3-15.9c4-7.7,10-14.5,17-19.6c4.3-2.4,8.9-4.2,13.7-5.1
			c10.5-0.7,21.5-0.1,31.1,4.7c7.3,2.6,14.3,6.5,19.3,12.6c5.7,6.3,8.4,14.6,9.9,22.8c0.4,7.5,1.1,15.5-2.4,22.4
			c-2.5,5.5-5.1,11.3-9.3,15.7c-5.3,4.4-11.4,8.2-18.1,9.8C146.6,405.7,137.2,405.9,128.1,404.8z"/>
		<path id="path1376" class="st1" d="M128.1,404.5c-5.8-0.5-11.2-2.7-16.5-5.1c-5.9-2.9-11.2-7.5-13.7-13.7c-2-4.2-5.3-7.8-6-12.6
			c-2.8-7.6-1.6-15.7-0.2-23.5c1.4-5.3,4.2-10.2,7.2-14.7c5.1-5.7,10-12.5,17.7-14.8c5.1-1.8,10.2-4.1,15.8-3.4
			c4.8,0.1,10.1,0.7,13.5,4.4c-2.9,0.4-5.7,0.3-8.9-1c-4.4-2.7-10-2.2-14.2,0.5c-4.3,1.8,1.4,4.3,3.5,4.2c3.2,4.9,9.7,0.5,13.6,3.9
			c3.6-0.3,0.9,3.6,4.7,3.9c1.7,2.3,7.5,0.1,7.5,2.4c1,3.5,6.5,1,8.7,0.2c-0.3-3.9-4.5-6.2-8-8.4c-2.6-1.8-0.4-1,0.7-1
			c4.3-1.6,3.4,4.5,7.2,4.3c0.1-3.1,7.4,1.2,3.8,2.6c3.1,5.6,4.1-3.7,0-4.6c-1.1-1.4-7.7-4.2-4.8-5.1c4.2,1.8,7.8,4.6,11.6,7.2
			c5.9,5.1,10.4,11.9,12.4,19.5c2.5,6.9,1.8,14.3,1.6,21.5c-1,6.3-4.1,12.2-7.3,17.7c-4,7-11.1,11.5-18.5,14.3
			c-7,2.5-14.6,1.9-21.9,2C134.3,405.2,131.2,404.9,128.1,404.5z M120.2,327.4C116.4,325.6,120,332.2,120.2,327.4L120.2,327.4z
			 M157,334.5c-3.4-1-2.2-3,0.8-1.8C160.3,332.5,157.6,335.9,157,334.5z M151.4,321.2C152.2,320,152.2,322.5,151.4,321.2z"/>
		<path id="path1374" class="st2" d="M128.4,404.4c-4.8-0.5-9.4-1.8-13.8-3.9c-6.7-2.3-13.1-6.8-16.1-13.5
			c-2.2-4.6-5.8-8.6-6.4-13.9c-3.1-8.4-1.7-17.7,0.4-26.2c2.1-4.3,3.9-8.9,7-12.6c2.4-1.8,5.2-7.7,7.2-4c5.4-0.5-2-5.9,3.4-6.8
			c1.1-1.7,7.8-1.6,5.2-2.3c1.9-0.6,7.2-3.2,7.6-1.7c-2.9,0.4-7.1,2.4-2.2,3.2c2.2,2.2,5.9,1.5,8.1,4.3c4.3,1,8.8-0.4,12.6,2.3
			c-0.4,4,6.6,4.7,9.9,5.5c0.7,4.2,6.4,4.5,8,7.5c3.2,0.1-2.1-4.1,2.2-4.2c2-1.4-1.9-5.5-3-7.5c-2.5-1.5-10-6.3-3.5-4.7
			c2.4-0.3,3,6.7,5.8,3.1c1.9,0.2,5.4,2,2.7,3.3c1.8,2.4,4.9,6.8,7.6,6.7c1.6-3.6-3.3-7-5.2-10c-1.5-2.3-5.8-3.7-6.5-5.6
			c4.3,1,7.1,4.9,11.1,6.7c3.1,3.1,6,6.6,8.6,10.2c2.6,4.4,4.1,9.4,5.3,14.4c1.4,8.6,1.2,17.9-2.7,25.9c-3.2,8.1-8.5,15.8-16.6,19.6
			c-7.9,5-17.5,4.9-26.4,4.9C135.4,405.1,131.9,404.9,128.4,404.4z M129.1,355.9c0.1-3-5.1,2.2-0.5,0.3L129.1,355.9L129.1,355.9z
			 M147,352.6C145.2,348.3,145.2,353.5,147,352.6z M144.4,349.9c0.8-1.8,1.9-6.8,4.5-5c-3,2.4,0.7,4.1,2,1.3
			c-1.6-4.2-6.3-7.9-10.8-9.5c-2.7,1-4.4,0.9-5.1-2.2c-3.8-0.7-7-5.4-11.1-1.5c-1.8,0.9,3.6,1.4,0.3,3.5c-2,0.9,2.6,2.4-1.2,2.7
			c-2.3,1,3.8-0.2,4.4,1.5c2.7,3.8,8.6-1.3,10.6,0.9c-2.2,1.9-7,3.8-2.5,6.3c3.1,1.7,7.4-1.5,9,2.2L144.4,349.9L144.4,349.9z
			 M132.4,340.5C131.6,338.1,134.6,340.5,132.4,340.5z M129.3,337.8C127.5,335.6,132.2,338,129.3,337.8z M164.8,346.5
			C163.9,345.4,164.7,347.6,164.8,346.5z M163.4,345.2C161.6,343.3,161.1,345,163.4,345.2z M119.3,339.1
			C119,337.8,116.5,340.1,119.3,339.1L119.3,339.1z M122,337.8C121.8,336.8,120.8,338.9,122,337.8z M105.1,334.6
			C104.4,333.4,104.4,335.9,105.1,334.6z M118,332c3.9-2,3-7.5-1.9-4.8c-1.5-0.2-1.7-2.5-2.2,0.7c1.2,2,1.8,2.8,0.7,5.1
			C115.7,333.3,117,332.6,118,332z M137.6,330.3C137.4,326.8,134.5,333.5,137.6,330.3L137.6,330.3z M111.7,328.1
			C113.4,323.7,108.3,329.8,111.7,328.1z M123.1,326.3C122.1,325.6,121.7,327.5,123.1,326.3z M170.2,337.9
			C169.6,335.9,172.1,338.6,170.2,337.9z M156.2,333.5c-2.7-1.8,5,0.3,0.8,0.3L156.2,333.5L156.2,333.5z M145,320.9
			C143.6,319.8,147.3,321.8,145,320.9z M140.7,320.6c-4.6-0.7-8.8-3.5-13.6-3.1c3.9-0.6,8.6-1,12.4,0.4c2.6,0.1,5.9,2.2,1.9,2.9
			L140.7,320.6L140.7,320.6z"/>
		<path id="path1372" class="st3" d="M133,404.6c-5.8-0.6-11.7-1.2-16.9-3.8c-4.8-1.4-9.3-4.3-12.9-7.8c-2-4.2-4.5-7.8-7.1-11.7
			c-3.3-4.5-4.8-10-5.6-15.5c-0.5-6.4,0.5-12.8,2.1-18.9c2.4-4.9,4.8-10,8.6-14c1.7-2.3,4.1-5.5,5.6-2.5c5-0.4-1.2-5.5,3.8-6.7
			c0.9-1.8,7.5-1.8,4.8-2.4c1.9-0.6,7.2-3.2,7.6-1.7c-3.8,0.3-6.5,2.5-2.1,4.9c1.2,1.6-6.8,4.3-6.3,1.6c-2.8,2.4,2.8,4.2-0.3,6.7
			c4.5,1.4,6.3-7,11-2.3c2.1,1.1-4.8,3.5-0.6,3.5c1.5,2.1-2.4,3.1-0.1,4.6c-2.3,0-3.1,2.3-0.2,1.9c2-2.5,4.9,5.4,8.4,2.1
			c0.9-1.4,3.8-2.2,2.8,0.3c-1,1.4-5,1.9-1.6,4.5c2.3,3.5,6.8,0.9,9,1.1c2.3,4.9,1.6-3.9,4.9-4.1c3.1-0.8-2.8,4.5,1.8,3.2
			c1.9-1.2,1.7-5.4-0.7-4.4c-2.3-2.5-0.3-5.7,2.2-2.4c2.6,0.5,0.7,5.5,3.5,4.3c-1-2,1.6-3.5-1.8-5c-1.7-0.9-6.3-4.6-2.2-2.9
			c3.3,0.4,5.4,4.5,8.3,3.8c-1.9,3.4,4.3,0.5,0.8-1c1.1-2.2,4.4-2.4,2.3-5.5c3,0.4,6.8,4.2,9.3,4.5c1.6-3.4-3.3-6.8-4.4-10.1
			c4.2,0.5,6.6,4.6,9.3,7.5c4.5,4.9,6.5,11.4,8.1,17.8c1.2,7.2,1.4,14.8-0.7,21.8c-3.4,8.2-7.2,17.1-15,22.1
			c-4.3,2.7-8.9,5.3-13.9,6.1C147.6,404.8,140.3,405,133,404.6z M101.7,383.6c-1.1-2.1-4.3-6-5.7-5.2
			C97.4,380.7,98,384.7,101.7,383.6z M129.1,355.9c0.1-3-5.1,2.2-0.5,0.3L129.1,355.9L129.1,355.9z M146.5,351.7
			C143,349,147.4,356,146.5,351.7z M131.3,350.9c1.2-0.9,3.6-4.4,0-1.9c-1.5,0.8-4.4,3.8-0.7,2.1L131.3,350.9L131.3,350.9z
			 M128.3,348.5c1.8-3.3-2,1.5-1.9-1.5C125.9,348.2,127.2,349.8,128.3,348.5z M164.8,346.5C163.9,345.4,164.7,347.6,164.8,346.5z
			 M127.9,345.9C126,345.6,128.4,346.5,127.9,345.9z M158.9,345.8C156.7,343,157.3,347.5,158.9,345.8z M163.4,345.2
			C161.6,343.3,161.1,345,163.4,345.2z M119.3,339.3C119,337.2,115.6,341,119.3,339.3z M122,337.8
			C121.8,336.8,120.8,338.9,122,337.8z M105.1,334.6C104.4,333.4,104.4,335.9,105.1,334.6z M111.7,328.2
			C113.3,322.9,107.5,329.7,111.7,328.2z M136.9,341.7C138.9,339.4,138,343.2,136.9,341.7z M132.4,340.5
			C131.6,338.1,134.6,340.5,132.4,340.5z M129.3,337.8C127.5,335.6,132.2,338,129.3,337.8z M170.2,337.9
			C169.6,335.9,172.1,338.6,170.2,337.9z M136.6,335.9C138.4,333.3,137.4,338.3,136.6,335.9z M131.8,332.2
			C131.8,329.9,133.2,334,131.8,332.2L131.8,332.2z M127.2,317.4C133.2,316.3,128.5,318.6,127.2,317.4z"/>
		<path id="path1370" class="st4" d="M133,404.6c-5.8-0.6-11.7-1.2-16.9-3.8c-4.8-1.4-9.3-4.3-12.9-7.8c-2-4.2-4.5-7.8-7.1-11.7
			c-5-7.3-6.7-16.5-5.3-25.2c0.9-4.3,0.7-9.2,3.8-12.7c0.5-2.7,5-2.6,2.4-4.5c0.9-4.3,5.6-6.9,9-3.7c3.8,1.7,7.6,0.5,11.3,1.8
			c-0.1,3.6,1.8,2.1,4.1,1.6c0.8,1.6,2.7,2.6,3.8,0.9c2.5,3.7,7.1,4.4,9.9,1.5c3,3.3-6,2.8-1.2,6.3c2.4,3.6,6.8,0.7,9.1,1.3
			c0.9,2.3,2.3,1.9,2.6,4.1c1.2,1.1,5.8,0.7,2.7-1.6c-1.9-4.3,2-0.7,2.8-1.3c-2.3-1.3,1.8-7.6-2.3-6.6c-2.3-2.5-0.3-5.7,2.2-2.4
			c2.6,0.5,0.7,5.5,3.5,4.3c-1-2,1.6-3.5-1.8-5c-1.7-0.9-6.3-4.6-2.2-2.9c3.3,0.4,5.4,4.5,8.3,3.8c-1.4,2.8,3.1,0.9,3.7,4
			c2.5,1.7,5.6,2.8,6.8,5.8c2.4-0.8-0.5-5-1.3-6.6c-3.4-2.6-5.4-5.6-6.2-9.3c2.4-0.4,6.7,2.6,9.2,4.8c0.3,2.5,6.3,7.4,3,2.3
			c-1.1-4.6-4.2-8-6.3-12c-2.2-2.9,4.6,0.7,5,2.3c2.9,4,6.2,7.5,8.4,11.7c2.7,6.4,4.4,13.4,4.1,20.4c0.1,5.9-1,11.7-3.9,16.8
			c-2.9,6.6-6.8,13-13.1,16.9c-5.1,3.1-10.7,6.1-16.9,6.1C145.3,404.8,139.1,405,133,404.6z M101.7,383.6c-1.1-2.1-4.3-6-5.7-5.2
			C97.4,380.7,98,384.7,101.7,383.6z M141.5,361.7c2.3-0.7-2.4-3.5,1.3-2.9c2.1-1,4.9,3.2,4.9-0.2c-4.3-0.7-8.1-3-12.2-4.4
			c0.7,1.5,4.1,5.3-0.3,3.4c-1.7,1.1-5.6-2.9-3.2,0.7c2.8,1.2,6,0.8,7.6,4C140.3,362.8,141,362,141.5,361.7z M130.1,357.1
			c0.6-2.1,0.1-3.1,2.5-2.9c-0.3-6.5-5,3.2-6.8-1.7c0-3.5-3.5-6.8-6.6-4.4c-0.6,3.6-6.1-2.1-5.1,3.1c1.9,1.9,5.5,1.8,6.6,4.7
			C124,354.7,127.3,359.4,130.1,357.1z M122.6,352.9C123,351.8,123.9,353.5,122.6,352.9z M134.7,356
			C134.1,354.1,133.4,358.8,134.7,356z M154.3,354.1c0.1-2.6-1.5-4.9-2.7-1.2C151.2,354.4,154.6,357,154.3,354.1z M160.5,354.5
			C159.1,352.3,159.3,356.6,160.5,354.5z M131.3,350.9c1.2-0.9,3.6-4.4,0-1.9c-1.5,0.8-4.4,3.8-0.7,2.1L131.3,350.9L131.3,350.9z
			 M112.6,349.6c0-2,2.7-3.7,0.2-4.6c2.3,1.3,7.2,2,4.1-2c-2.4,1.2-6.7,0-5.9,3.9C109.8,348.1,110.9,351,112.6,349.6z M128.3,348.5
			c1.8-3.3-2,1.5-1.9-1.5C125.9,348.2,127.2,349.8,128.3,348.5z M106.7,345.6c2.4-2.7,0.1-7.9-3.3-4.4c-2.1-1.1-5.1,0-3.9,2.2
			c2.1-1.8,4.5-0.8,6.1-1.8c-1.9,1.8-0.8,3.8,1,4.3L106.7,345.6L106.7,345.6z M127.9,345.9C126,345.6,128.4,346.5,127.9,345.9z
			 M158.9,345.8C156.7,343,157.3,347.5,158.9,345.8z M121.5,336.1c-0.7-1.9-3.4-6.9,0.3-7c2.6,0.2,5.6,1.9,2.2,3.5
			C121.8,332.8,123,337.6,121.5,336.1z M136.6,335.9C138.4,333.3,137.4,338.3,136.6,335.9z M115.7,334.3
			C115.8,331.7,118.9,334.8,115.7,334.3z M131.8,332.2C131.8,329.9,133.2,334,131.8,332.2L131.8,332.2z M109.4,329.4
			c-0.6-2.4-2.2-4.6,1.5-5.9c2.8-3.1,11.1-1.4,9.7,2c-2.2,1.8-4.5,1-6.7,0.9C114.7,328.5,109.1,332.4,109.4,329.4z M111.9,328.1
			C113.3,323.7,107.7,329.9,111.9,328.1L111.9,328.1z M127.3,317.4C130.5,316.1,130.1,318.7,127.3,317.4L127.3,317.4z"/>
		<path id="path1368" class="st5" d="M134.4,404.7c-6.4-0.7-13-1.2-18.7-4.2c-5-1.6-10.1-4.4-13.3-8.6c-1-4.2-4.3-6.8-6.3-10.5
			c-1-1.2-4.4-7-0.8-3.5c1.7,2.6,3.6,7.5,7.2,5.4c2.5,0.1,3.8,6.6,5.6,2.9c-3.2,0.1-2.4-1.3,0.1-1.3c1.4-1.5-4.6-2.9-3.3-2.1
			c1-3.2-2.5-1.6-2.6-4.3c-3-3-8.9-2.6-10.3-7.6c-2.4-8-1-16.5,1.1-24.3c1-3.2,4.6-4.9,5.4-7.4c-3.3-2.3,4.3-7.8,6.5-3.8
			c3.9,0.8,7.2,1.4,11,1.5c1.3,1.2,1.3,4.2,4.1,2.3c3.5,1.5,6.8,0.8,9.7,3.9c1.7-0.2,8.7-2.7,4.4,0.3c-4.5,2.4,2.4,6.9,5.3,5.8
			c4.7-1.5,5.7,5.9,10.7,5.1c1.9,1.5,6.5,4,5-0.4c4-0.9-1-5.1-3.1-4.7c0.1-3.8-2.3-6.2-4.3-8.9c0.3-2.9,6,1.6,4.7,3.8
			c2.7,2.9,1-0.1,2-1.3c1.3-2.4-7.9-5.3-5.1-6.2c3.2,1.5,7.2,3.3,9.1,6c3.2,3,7.8,4.5,9.8,8.5c1.7,3.2,2.8,2.3,2.1-0.9
			c0.3-4.5-3.5-6.8-6-9.9c-0.2-1.6-4.8-7.9-0.9-4.9c4.9,0.4,7.5,5.5,9.5,9.4c1.6-0.3,3.4,3.5,2.9,0c-2.3-3.7-3-8.3-6.2-11.5
			c-0.9-1.7-5.1-6.5-0.6-3.7c4.4,2.4,6,7.6,8.6,11.6c2,4.5,5.6,8.1,6.4,13c1,6.7,1.2,13.7-0.3,20.3c-3.2,8.5-6.8,17.7-14.7,23
			c-6.3,4.5-13.8,7.3-21.6,7C143.2,404.7,138.8,404.8,134.4,404.7z M105.8,379.4C104.9,377.2,104.6,381.1,105.8,379.4z M177.5,374.9
			c-0.1-5.1-1.8,5.4-0.1,0.7L177.5,374.9L177.5,374.9z M143.9,363.4c-4.6-0.4,0.3-6.4,2.8-2.8c2.1,0.7,5.3-1.5,2.2-2.7
			c-0.5-2.5-7.4,0.8-5.6-2.5c-5.1,2.1-5.4-6.4-10.1-3.8c-4.2-0.6,2.9-4.2-1.1-3.2c-2.3,0.8-3.7,4.4-4.9,4.9c-2-2.6-0.9-7.1-5.7-6.6
			c-3.1-1.1-3.3,4-6.6,1.5c-2.3,4.4,4,6.6,6.8,8.7c4.2,0.9,8.5,4.4,13.1,3.8C137.7,361,140.6,364.2,143.9,363.4z M160.7,355.2
			c1.8-1.7-5-4.7-2.1-0.9C159,354.9,159.8,355.8,160.7,355.2z M112.6,349.6c-0.7-5.5,7.9-0.2,5.7-5.8c-1.4-2.8-8.2-0.2-7.3,3.2
			C109.8,348.1,110.9,351,112.6,349.6z M113,345.3C112.7,343.7,114.9,346.9,113,345.3z M128.3,348.5
			C130.2,341.7,122.4,350,128.3,348.5z M158.8,345.5C155.2,343.5,161,350.5,158.8,345.5L158.8,345.5z M106.7,345.6
			c2.1-2.3,0.9-8.9-2.9-4.9c-1.6,1.5-4.4-2.9-4.3,1.3c-2,3.9,4.7-3,4.8,1.8C104.9,344.2,106.2,347.1,106.7,345.6z M136.6,335.9
			C138.4,333.3,137.4,338.3,136.6,335.9z M121,333.7c-0.1-2.4-1.6-6.2,2.1-4.1c4.7,0.7,1.4,2.7-0.8,3.9
			C122.2,333.5,121.3,334.4,121,333.7z M131.8,332.2C131.8,329.9,133.2,334,131.8,332.2L131.8,332.2z M109.2,330.5
			C111.3,326.9,111.3,331,109.2,330.5z M112.4,328.3C114.2,326.2,112.3,330.3,112.4,328.3z M108.8,326.4c0.8-4.4,9.8-6,12.4-1.7
			c-0.4,2.1-5.3,2.1-7,0.8C112.8,325.7,109.5,328.2,108.8,326.4z"/>
		<path id="path1366" class="st6" d="M129.2,403.9c-5.2-0.5-10.1-2.2-14.9-4c-3.5-1.8-9.4-4.4-9.7-8.1c2.4-1-5.5-4.4-3.3-6.1
			c2.2,2.2,2.3,0.4,1.1-1.1c1.4,1.1,4.9,5.7,6.4,4c-2.9-0.6,1.7-3.3-2.7-2.7c-1.2-1.4,4.7-0.4,1.5-2.3c-1.3-1.8-3.5,0.9-2.8-2.6
			c-1.1-1.4-4.3-4.6-6.9-4.8c-4.5-1.3-6.9-5.5-7-10.1c-0.6-6.5,0.4-13.2,2.2-19.5c1-3.2,4.6-4.9,5.4-7.4c-2.3-2,4.2-7.8,5.8-3.5
			c3.7-0.4,6.4,2.2,10,0.8c4.1,0.4,1,3.3,0.2,4.1c2.4,0.1,8.6-2.3,5.4,2.2c-0.7,3.1,5.4,0.2,2.2,3.2c-3.7-1.2-3.7,5.1-7.4,2.3
			c-2.3,4.4,4,6.6,6.8,8.7c3.7,0.6,7.1,4.4,11.2,4c4.2-1.6,6.9,3.5,11.1,2.5c-4.8-0.9,0.5-6.2,3-2.8c2.6,0.7,5.2-1.4,2-2.6
			c-0.3-3.1-7,0-4-4c3.6-0.8,8.2,3.8,10.4,1.8c-1.4-2.6,3.3-1.8,1.1-4.7c-1.7-4.3,4.4-0.7,6.2-2.1c0.9,3.3,3.5,1,0.4-0.8
			c1.6-2.9,5.9,4.3,7.7,5c-0.1-4.2-0.7-8.9-4.9-11.1c-2.1-1.9-2.2-6,1.3-4c4.2,1.1,5,6.9,8.3,8.1c1.8-1.4-2.6-6.5-3.1-9.4
			c-0.9-1-4.1-8-0.6-4.9c2.5,4.2,5.3,8.1,7.8,12.3c2.2,3.9,5,7.6,4.9,12.4c1.1,8.2,0.8,16.8-3.2,24.3c-3.3,7.5-8.1,14.8-15.6,18.6
			c-4.5,2.5-9.3,4.9-14.6,4.7C143.9,404.4,136.5,404.9,129.2,403.9z M126.2,394.4C123.9,392.8,125.5,396.3,126.2,394.4z M111.7,388
			c-0.9-2.3-2.7-3.4-1.1-0.2C110.8,388,111.7,388.7,111.7,388z M105.8,379.4C104.9,377.2,104.6,381.1,105.8,379.4z M177.5,374.9
			c-0.1-5.1-1.8,5.4-0.1,0.7L177.5,374.9L177.5,374.9z M160.7,355.2c1.8-1.7-5-4.7-2.1-0.9C159,354.9,159.8,355.8,160.7,355.2z
			 M159.9,350.9C159.2,349.7,159.2,352.2,159.9,350.9z M112.6,349.6c-0.5-5.3,7.6-0.3,6-5.9c-1.5-4.4-4.7,0.3-7.4,1
			C111.8,346.3,108.7,350.9,112.6,349.6z M113,345.3C112.7,343.7,114.9,346.9,113,345.3z M106.7,345.6c2.1-2.3,0.9-8.9-2.9-4.9
			c-1.6,1.5-4.4-2.9-4.3,1.3c-2,3.9,4.7-3,4.8,1.8C104.9,344.2,106.2,347.1,106.7,345.6z M142.8,356.7
			C143.2,355.5,144.1,357.8,142.8,356.7L142.8,356.7z M141.6,355C143.9,351.6,142.4,356.8,141.6,355z M126.9,353.1
			C126.4,350.5,128.6,355,126.9,353.1L126.9,353.1z M138.5,353.5C139.7,352.2,139.7,354.8,138.5,353.5z M125.6,351.3
			C127.5,349.2,126.9,352.6,125.6,351.3z M122.1,343.1C122.8,342,122.8,344.6,122.1,343.1L122.1,343.1z M121,333.5
			c-0.5-2,1.7-4.9,1.8-1.6C122.5,332.3,121.6,335,121,333.5z M109.2,330.5C111.3,326.9,111.3,331,109.2,330.5z M112.4,328.3
			C114.2,326.2,112.3,330.3,112.4,328.3z M116.8,322.8C117.5,321.7,117.7,323.5,116.8,322.8z"/>
		<path id="path1364" class="st7" d="M129.4,403.8c-4.2-1.3-9.5-0.2-12.6-3.8c-3.4-1-9.2-1.8-10.9-6.2c4.6-2.5-5.3-3.5-5-7.7
			c-0.5-1.6,4.1,2.6,1.9-0.5c-1.2-2.9,2.8,3.6,4.6,3.2c2.8,2.2,0.7-5.3,3-1.5c1.2,1.3,6,4.1,3.1,0.4c-0.5-1.9-1.8-3-1.5-4.2
			c-2.9-0.6-3.2-1.7-2.8-4.2c-2.4-1.4-1.4-4-5.2-4c-2-2.2-2.9-0.2-3.5,0c-1.5-2.8-4.1-3.3-6.4-3.7c-0.4-4.3-4.6-5.5-3-10.5
			c0.2-4.9,1-9.8,2.3-14.5c1.6-3.2,3-5,5.3-6.3c-2.1-3.2,2.8-8.3,6-4.5c4.1,0,8,2.1,11.7,1.9c1.2,2.1-4.3,2.4-0.6,2.8
			c2.4-0.6,7-1.5,4.1,2.2c-0.6,3.1,5.4,0.4,2.1,3.1c-4.4,1.6-2.6-6.9-7.6-3.5c-1.3,0.2-3.6,0.5-1.4,1.5c-3-0.5-3.7,7.8-0.3,5.5
			c1.3-4.1,2,0.1,1.3,2.1c3,4.1,7.5,7.4,12.7,8c3.6,1.2,6,5,10,3c2.4,0.5,6.3,3.3,8.1,1.9c-3-0.5-3-5.4,0.7-3.9
			c-3,3.2,7.2,0.8,4.7-2.4c-1-3.1-8.3,0.4-5.5-3.9c4.1-1.1,8.1,4.4,11.2,2.5c-2-4.4,6.9,1.4,5.2-2.8c-1.7-1.2-8.6-4.7-3-4.9
			c2.1,1.8,4.4-1.3,5.5,2c3.1,0.4-4.2-4.8,1.1-2.9c3.6,0.8,0,4.1,3.4,4c1.6,3.3,4.3,2.6,2.3-1c2.1-5.1-4.2-7.5-5.8-11.5
			c-1.8-3.7,5.7-0.5,5.9,1.8c1.5,2.1,2.2,6.2,3.9,7.2c-0.8-4.5,3.8,1.8,2.1-1.9c-1-4.3-3.4-8.2-5.5-12.1c-2.3-1.8-0.3-5.5,1.2-1.6
			c2.6,4.7,5.8,9,7.8,14c0.3,2.3-0.4,5.2,2.4,3.9c2,3.7,2,8.3,2.1,12.5c0.1,5.5-0.2,11.1-2.8,16.1c-3.3,9.2-9.6,17.7-18.8,21.6
			c-6,3.6-13.2,3.7-20,3.7C138.6,404.3,133.9,405,129.4,403.8z M131.5,398.1c-2.5-1.1-3.9-0.2-0.5,0.4l0.4-0.1L131.5,398.1
			L131.5,398.1z M119,396.6c2.2,0.6-4.3-5.3-1.9-1.4C118.3,396.9,116.2,396.8,119,396.6z M126.2,394.4
			C123.9,392.8,125.5,396.3,126.2,394.4z M120.8,391.8c-2.5-2.5,4.8-2.8,0.9-4.9c-1.5-0.6-8.6-1.8-6.8,0.2c2.3,0.4,5.5,2.4,1.4,3
			C112.5,389.7,121.8,393.7,120.8,391.8z M128.7,391.4c1.6-2.8-3.8-1-1.7-3.9c-1.5-5-5.6-0.7-2.8,2.5
			C125.2,391.2,127.2,392.4,128.7,391.4z M131.9,390.1C130,388.1,130.7,391.9,131.9,390.1z M118.4,384.8
			C117.2,382.8,117.3,386,118.4,384.8z M113.2,379.7C111.1,378.1,114.6,381.8,113.2,379.7z M177.9,375.5c1.4-5.6-4.6,1-0.8,1.9
			C177.6,376.9,177.7,376.2,177.9,375.5z M149.4,362.1C149,360.9,148.1,363.3,149.4,362.1L149.4,362.1z M151.6,361.6
			C153.1,359.7,147.6,362.4,151.6,361.6L151.6,361.6z M159.2,358.1C156.7,357.1,160.1,359.6,159.2,358.1z M114.3,353.8
			C113.5,352.5,113.8,355,114.3,353.8z M168.1,353.4C166.7,350.5,167.2,355.2,168.1,353.4z M177.8,353
			C176.3,351.8,178.1,354.9,177.8,353z M159.9,350.9C159.2,349.7,159.2,352.2,159.9,350.9z M106.7,345.6c2.7-2.9,0.4-10-3.4-4.9
			c-1.1,2-3.2-4.3-3.9,0.1c-0.9,2.7-0.4,3.3,1.8,1.5C104.2,340.5,104.9,347.2,106.7,345.6z M92.1,370.5
			C91.1,367.6,94.2,370.3,92.1,370.5z M141.7,354.7C145.5,351.9,141.7,356.4,141.7,354.7z M138.5,353.5
			C139.7,352.2,139.7,354.8,138.5,353.5z M126.2,350.9C127,349.7,127,352.2,126.2,350.9z M181.4,349.5
			C181.8,348,182,350.7,181.4,349.5z M113,345.3C112.7,343.7,114.9,346.9,113,345.3z M122.1,343.1
			C122.8,342,122.8,344.6,122.1,343.1L122.1,343.1z M121.8,333c-1.3-2.6,1.8-3.3,0.8-0.7C122.7,331.3,122,333.5,121.8,333z
			 M116.8,322.8C117.5,321.7,117.7,323.5,116.8,322.8z"/>
		<path id="path1362" class="st8" d="M129.4,403.8c-4.2-1.3-9.5-0.2-12.6-3.8c-3.4-1-9.2-1.8-10.9-6.2c4.6-2.5-5.3-3.5-5-7.7
			c-0.5-1.6,4.1,2.6,1.9-0.5c-1.2-2.9,2.8,3.6,4.6,3.2c2.8,2.1,0.7-5.5,3.2-1.3c2.6,1.6,8.5,5.9,10.2,4c-2-2.6,4.5-1.9,1.2-5
			c2.6-1.9,0.8,5.9,4.9,5.2c3.1,0.8,2.3-3-0.2-2.3c1.4-3.5-3.8-7.4-6.6-6.8c1.4,4.2-3.9,0.8-6.2,2c-2.4-1.3-6.9-2.4-3.2-5.3
			c1.9-0.6,7.6,4.2,4.8-0.7c-2.7-0.3-4.1-5.8-7.9-3.5c-2.4-4.5-8.7,0.9-9.6-4.3c-3.8-3.4-8.6-7.3-6.6-13.1c0.9-3.8,1.7,5.6,2.9,3.2
			c-2.8-4.1-1.7-9.5-1-14.1c1.8,0.1,5.1,1.2,2.7-1.6c2.2-0.4,5.1,1,4,3c2.5,2.1,5.7,1.8,8.2,3.9c3.5,0.7,6.2,2,8.5,4.6
			c4.8,1.1,9.8,2,14,4.6c2.7,3.3,6.8-0.4,10.1,2.4c2.6,1.3,4.8,1.5,6.1-1.6c3.4-0.5,6.1-4.5,1.4-5.6c-2.3,0.9-6.1-1-2.5-2.5
			c4.6,0.4,8.2,3.4,12.7,4.4c2.4,0.3,5.7,6.2,5.9,5c-2.2-1.2-1.8-7.6,0.9-4.8c4.2,2.5-3.1-4.8-4.8-5.6c-2.5-0.4-6.9-4.8-1.6-3.9
			c2,1.5,4.1-1.3,5.2,1.9c3.1,0.4-4.2-4.8,1.1-2.9c3.7,0.7,0,4.1,3.4,4c1.8,1.7,5.3,6,6.8,5.3c-2.5-4.2-3.1-9.6-6.6-13.6
			c-2.8-1.1-6.6-8.1-0.9-5.3c4.6,1.9,4.7,7.9,7.6,11.4c0.6,2.7,4.2,6,3,0.9c-0.5-4.8-3.2-8.9-5.1-13.2c-0.4-1.5-4.9-6.8-1.6-6.1
			c3.1,5.1,6.6,10,8.8,15.6c0.7,2.2-0.3,9.2,2.2,8.4c0.1-1.8,0.8-6.3,1.4-1.9c1.4,6.6,1.3,13.5,0.2,20.2c-3.2,10.3-8.5,21-18.6,26.1
			c-5.2,3-11,4.9-17.1,4.7C142,404.2,135.6,405.2,129.4,403.8z M116.4,398c0.5-2.6,5.3,0.2,2.2-2.6c-1.8-3-7.9-1.1-4.4,2.3
			C114.6,398.5,116.1,399.6,116.4,398z M131.5,398.1c-2.5-1.1-3.9-0.2-0.5,0.4l0.4-0.1L131.5,398.1L131.5,398.1z M126.2,394.4
			C123.9,392.8,125.5,396.3,126.2,394.4z M131.9,390.1C130,388.1,130.7,391.9,131.9,390.1z M128.3,381.9c-2.2-1.2-4.9,1.3-0.6,0.2
			L128.3,381.9L128.3,381.9z M126.5,379.9c0.1-2-4.1,1.9-0.4,0.9l0.2-0.3L126.5,379.9L126.5,379.9z M124.2,378.4
			C122.7,377.7,124.1,380,124.2,378.4z M122,377.8C119.3,375.1,122,379.5,122,377.8z M178,375.8c1.5-4.3-2.7-3.2-2.7,0.1
			C175.8,377.9,177.9,377.9,178,375.8z M112.3,368.6c-1.3-1.1-3.6-3.9-2.2-0.7C111.6,368.7,115.8,371.5,112.3,368.6z M137.3,368
			C135.4,367.7,137.9,368.6,137.3,368z M106.3,366.4C104.5,365.5,107.5,368.3,106.3,366.4z M108.7,365.4
			C110.7,361.5,105.5,367.6,108.7,365.4z M156.4,364.8c0.7-3.5-1.7-0.1-0.9,1.1l0.4-0.3L156.4,364.8L156.4,364.8z M102.3,364.8
			c0.2-2.4-1.2-3.7-1.1-0.4C100.9,365.1,103.1,366.1,102.3,364.8z M152.8,364.3c2.8-6-8.5-2.3-3.2,0.8
			C150.6,365.7,153,366.3,152.8,364.3z M149.9,364.5C153.3,361.1,152.7,366.5,149.9,364.5z M99.7,362.7
			C97.1,360.9,98.1,363.9,99.7,362.7z M168.1,360.9C166.5,358.7,167.4,362.4,168.1,360.9z M100.7,354.8
			C100.1,352.1,97,355.7,100.7,354.8z M168.1,353.4C166.7,350.5,167.2,355.2,168.1,353.4z M96.1,352.3
			C93.8,352,96.3,352.9,96.1,352.3z M159.9,350.9C159.2,349.7,159.2,352.2,159.9,350.9z M99.2,347.1C98,345.2,96.1,348.3,99.2,347.1
			z M109.6,376.1C107.9,374.5,113.4,376.8,109.6,376.1L109.6,376.1z M92.1,370.5C91.1,367.6,94.2,370.3,92.1,370.5z M141.7,354.7
			C145.5,351.9,141.7,356.4,141.7,354.7z M138.5,353.5C139.7,352.2,139.7,354.8,138.5,353.5z M107.6,351.1
			C107.5,348.1,109.9,352.1,107.6,351.1z M126.2,350.9C127,349.7,127,352.2,126.2,350.9z M104.5,349.2c-2.9-0.4-3.2-3.9,0.1-1.3
			c1.7,1,5.2-0.6,1.9,1.5C105.9,349.8,105.1,349.5,104.5,349.2z M108.6,347.1C109.6,345,109.6,349.2,108.6,347.1z M120.7,345.9
			c-2.8-0.2-1.5-6.3-5.7-3.8c-3.3,0.7-7.7,0.6-8-3.2c-3.2,1.5-6.3,1.4-9.1-0.9c1.8-6.1,6.9-1.6,10.9-1.8c2,2.5,8.7-0.7,7.3,3.3
			c-4.4,1.5,3.1,0.7,4.7,0.5c-0.9,2.3-1.1,5.4,2.4,4.5C123.2,345.8,121.8,346.4,120.7,345.9z M122.1,343.1
			C122.8,342,122.8,344.6,122.1,343.1L122.1,343.1z M121.8,333c-1.3-2.6,1.8-3.3,0.8-0.7C122.7,331.3,122,333.5,121.8,333z
			 M116.8,322.8C117.5,321.7,117.7,323.5,116.8,322.8z"/>
		<path id="path1360" class="st9" d="M129.4,403.8c-4.2-1.3-9.5-0.2-12.6-3.8c-3.4-1-9.2-1.8-10.9-6.2c4.6-2.5-5.3-3.5-5-7.7
			c-0.5-1.6,4.1,2.6,1.9-0.5c-1.2-2.9,2.8,3.6,4.6,3.2c2.8,2.1,0.7-5.5,3.2-1.3c2.6,1.6,8.5,5.9,10.2,4c-2-2.6,4.5-1.9,1.2-5
			c2.6-1.9,0.8,5.9,4.9,5.2c3.1,0.8,2.3-3-0.2-2.3c1.7-3.3-4.8-8.6-6.8-6.1c1.4,3.3-4.3,0-6.1,1.3c-2.4-1.3-6.9-2.4-3.2-5.3
			c1.8-0.9,7.1,4.3,5.2-0.4c-2.5-1.9-5-5.5-8.2-3.8c-2.3-4.5-8.7,0.9-9.6-4.3c-3.1-3.3-8.2-6.2-6.8-11.5c-0.4-2.8,1.5-3.5,1.4-0.3
			c0.3,3.5,4,1.3,4.2,3.2c1.8,2.1,5.3-1.6,4.4,2.3c1,1.8,3.3-1,4.4,2.1c1.4,1.6,4.1-2.8,4.5,1.4c1.2-1.7,5.6,1.6,1.7,0.2
			c-2.1-0.1,4.3,3.9,2.2,0.4c3.9,2.5-2.9-5.5,1.2-2c1.9,2.5,6.1,3.6,8.8,3.7c1.1-3.1-4.5-6.4-7.3-4.5c-1.2-2-2.4-4.4-3.6-1.8
			c-2.4-0.9-1.9-4.9-5.8-4.3c-3.2-1.1-7.9-1-6.8-5.4c-2.4-2.1-6.1-1.2-7.9-2.4c0.2-2.7-0.3-7,3.7-4.8c3.6-0.4,5.2,3.5,9,3
			c2.7,3.6,8.6,1.7,10.6,6.3c4.8,1.1,9.7,2.2,14.2,4.5c2.7,3.9,7,0,10.6,2.8c2.6,1.3,4.8,1.5,6.1-1.6c3.4-0.5,6.1-4.5,1.4-5.6
			c-2.3,0.9-6.1-1-2.5-2.5c4.6,0.4,8.2,3.4,12.7,4.4c3.5,1.8,7,8.8,9.6,2.5c-2.6-3.7-5.8-7.4-10.1-9.2c-4.2-2.4,0.6-3.3,2.9-2.1
			c1.5-2.6,4,3.7,3.8,0.4c-5.2-4.1,4.9-1.7,1.9,1.4c3.5,0.8,5.5,5.4,8.8,6.3c-2.4-4.2-3.1-9.4-6.2-13.4c-2-0.7-7.3-8.1-2.4-6
			c5.1,0.6,5.5,7.1,7.9,10.7c0.9,2.3,4.6,7.6,3.6,1.8c-0.5-4.8-3.2-8.9-5.1-13.2c-0.4-1.5-4.9-6.8-1.6-6.1c3.1,5.1,6.6,10,8.8,15.6
			c0.7,2.2-0.3,9.2,2.2,8.4c0.1-1.8,0.8-6.3,1.4-1.9c1.4,6.6,1.3,13.5,0.2,20.2c-3.2,10.3-8.5,21-18.6,26.1c-5.2,3-11,4.9-17.1,4.7
			C142,404.2,135.6,405.2,129.4,403.8z M116.4,398c0.5-2.6,5.3,0.2,2.2-2.6c-1.8-3-7.9-1.1-4.4,2.3
			C114.6,398.5,116.1,399.6,116.4,398z M131.5,398.1c-2.5-1.1-3.9-0.2-0.5,0.4l0.4-0.1L131.5,398.1L131.5,398.1z M126.2,394.4
			C123.9,392.8,125.5,396.3,126.2,394.4z M131.9,390.1C130,388.1,130.7,391.9,131.9,390.1z M128.3,381.9c-2.2-1.2-4.9,1.3-0.6,0.2
			L128.3,381.9L128.3,381.9z M126.5,379.9c-0.2-1.1-6.2-3.1-5.2-1.5C122.3,379.1,125.9,382.4,126.5,379.9z M178,375.8
			c1.5-4.3-2.7-3.2-2.7,0.1C175.8,377.9,177.9,377.9,178,375.8z M141.9,374.8c-1.2-2.2-2.3-2.4-2.7-0.5
			C136.2,375.2,141.4,375.4,141.9,374.8z M144.9,373c-2.5,0.5-0.2-1.3-0.9-1.9C141.6,372,141.7,375.2,144.9,373z M141.3,370.7
			c-2.4-0.6-4-3.5-7.4-2.7c-3.6-0.2-7-0.9-10-2.1c-0.8,1,3.4,1.5,3.7,3.5c2.3,0.9,3.9-1.7,6.4,0.2
			C136.6,368.2,140.2,372.4,141.3,370.7z M156.3,365.1c0.9-3-8.1-6.6-8.2-1.3C149.6,365.6,155.1,367.1,156.3,365.1z M168.1,353.4
			C166.7,350.5,167.2,355.2,168.1,353.4z M159.9,350.9C159.2,349.7,159.2,352.2,159.9,350.9z M92.1,370.5
			C91.1,367.6,94.2,370.3,92.1,370.5z M111.1,364.5C111.9,363.3,112,365.2,111.1,364.5z M94,359.4C92.4,354.5,97.4,360.8,94,359.4
			L94,359.4z M93.2,354.8C94.2,352.8,93.8,356.2,93.2,354.8z M141.7,354.7C145.5,351.9,141.7,356.4,141.7,354.7z M138.5,353.5
			C139.7,352.2,139.7,354.8,138.5,353.5z M126.2,350.9C127,349.7,127,352.2,126.2,350.9z M120.7,345.9c-2.8-0.2-1.5-6.3-5.7-3.8
			c-3.3,0.7-7.7,0.6-8-3.2c-3.2,1.5-6.3,1.4-9.1-0.9c1.8-6.1,6.9-1.6,10.9-1.8c2,2.5,8.7-0.7,7.3,3.3c-4.4,1.5,3.1,0.7,4.7,0.5
			c-0.9,2.3-1.1,5.4,2.4,4.5C123.2,345.8,121.8,346.4,120.7,345.9z M122.1,343.1C122.8,342,122.8,344.6,122.1,343.1L122.1,343.1z
			 M121.8,333c-1.3-2.6,1.8-3.3,0.8-0.7C122.7,331.3,122,333.5,121.8,333z M116.8,322.8C117.5,321.7,117.7,323.5,116.8,322.8z"/>
		<path id="path1358" class="st10" d="M131.6,403.7c-2-1.4,2.6-1.1,0.9-3.5c5.1-1.6-4.8-6.1-5.1-2c-2.6,2.3-4.1-3.3-7.3-2.6
			c-2-2.8-5.3-2.8-7-0.9c-0.5-1.3-5.9-1.5-3.9-3c1.9,1.9,2.9-0.2,1.5-1.8c3.4-1.2,9.1,6.2,11,2.4c-1.4-3,4.8,0.6,1.7,0.8
			c-0.6,5.7,7.1,1.7,9.3,2c-2.1-1.2-5.5-3.1-1.9-3.7c4.9,2.2-0.2-4.2-1.2-5.9c-0.5-3-3.9-3.3-2.5-0.8c-2.2,1.5-6.9-5.4-7.2-0.9
			c0.5,2.2-3.4-0.7-5,0.5c-2,0.8-3.7-2.3-5.3-2.6c0-3.1,2.5-3.6,3.7-0.8c1-1.3,3.1,2.2,2.5-1.1c-1.5-3.4-5.8-5.7-8.7-5.2
			c-2.6-3.9-8.4,1.2-9.3-3.9c-2.9-3.2-8-5.9-6.7-11c-0.3-2.4,1.2-4.6,1.4-0.8c0.3,3.5,4,1.3,4.2,3.2c1.8,2.1,5.3-1.6,4.4,2.3
			c1,1.8,3.3-1,4.4,2.1c1.4,1.6,4.1-2.8,4.5,1.4c1.2-1.7,5.6,1.6,1.7,0.2c-2.1-0.1,4.3,3.9,2.2,0.4c3.9,2.5-2.9-5.5,1.2-2
			c1.9,2.5,6.1,3.6,8.8,3.7c1.1-3.1-4.5-6.4-7.3-4.5c-1.2-2-2.4-4.4-3.6-1.8c-2.4-0.9-1.9-4.9-5.8-4.3c-3.2-1.1-7.9-1-6.8-5.4
			c-2.4-2.1-6.1-1.2-7.9-2.4c0-2.7,0.1-6.7,3.9-4.8c3.6-0.5,5,3.8,8.8,3.2c2.3,3.6,8.4,1.3,10.2,5.8c4.4,2.3,10.5,2.7,14.1,6
			c-0.8,1.9,2.2-0.1,3.5,1.6c3.9-2.8,9,3.1,12.1,0.5c0.5-2.5,4.6-3.6,2.5-0.6c1.9,2.1,9.8,4.5,8.6-0.3c-3.8,0.3-7.2-7.3-1.6-5.5
			c4.1-0.9,7,3.3,9.7,6c3-0.8,4.7-2.8,2.1-5.2c-1.3-1.7-7.3-6-2.7-6.3c1.6,3.8,0.1-2.5,2.5,0.5c0.7,2.5,3.5,3.1,2.3-0.2
			c1.5,2.5,4.6,3.3,6.5,5.3c-1.9-4-3.1-8.8-5.3-12.9c-1.5-2,1.1-4.8,1.8-1c1.8,2.8,4.3,9.1,6.5,9.2c0.9-4.7-3-9.4-2.9-13.4
			c4.3,2.9,5.1,8.2,5.6,12.8c-0.6,2.9,2.1,4.6,1.8,0.7c0.9-5,1.9,6.5,2,8.4c0.5,6.5-0.3,13.2-3.5,19c-2.9,6.7-6.8,13.2-13.1,17.2
			c-5.2,3.2-10.9,6-17.1,6.1C144.5,404.2,137.9,404.7,131.6,403.7z M128.3,381.9c-2.2-1.2-4.9,1.3-0.6,0.2L128.3,381.9L128.3,381.9z
			 M126.5,379.9c-0.2-1.1-6.2-3.1-5.2-1.5C122.3,379.1,125.9,382.4,126.5,379.9z M178,375.9c1.9-3.4-2.5-4.2-2.3-0.5
			C174.6,377.3,177.7,378.8,178,375.9z M141.9,374.8c-1.2-2.2-2.3-2.4-2.7-0.5C136.2,375.2,141.4,375.4,141.9,374.8z M144.9,373
			c-2.5,0.5-0.2-1.3-0.9-1.9C141.6,372,141.7,375.2,144.9,373z M141.3,370.7c-2.4-0.6-4-3.5-7.4-2.7c-3.6-0.2-7-0.9-10-2.1
			c-0.8,1,3.4,1.5,3.7,3.5c2.3,0.9,3.9-1.7,6.4,0.2C136.6,368.2,140.2,372.4,141.3,370.7z M113.1,398.5c-2.6-0.4-3-2.4-1.4-4.1
			C113,394.6,117.1,401.1,113.1,398.5z M126.2,393.1C125.4,391.9,128.1,394,126.2,393.1z M108,390.6
			C108.4,389.5,108.7,391.6,108,390.6z M122.2,386.6C122.1,384.1,124.2,388.1,122.2,386.6z M92.1,370.1
			C91.7,368.5,93.2,370.7,92.1,370.1z M111.1,364.5C111.9,363.3,112,365.2,111.1,364.5z M94,359.4C92.4,354.5,97.4,360.8,94,359.4
			L94,359.4z M93.2,354.8C94.2,352.8,93.8,356.2,93.2,354.8z M108.2,342c0-2.1-0.7-3.7-3-3.6c1-3.7,9.2-0.3,7.7,1.6
			c-4.1,0.1,4.5,2.1-0.7,2.2C110.8,342.1,109.5,342.3,108.2,342z M110,339.5C109.6,336.1,108.1,341.7,110,339.5z M101.5,339.6
			c-2-0.4-3.2-1.1-0.4-2.2c0.9-0.3,1.5,2,2.3,0.2C103.9,339.1,103.2,341.7,101.5,339.6z"/>
		<path id="path1356" class="st11" d="M131.6,403.7c-2-1.4,2.6-1.1,0.9-3.5c5.1-1.6-4.8-6.1-5.1-2c-2.6,2.3-4.1-3.3-7.3-2.6
			c-2-2.8-5.3-2.8-7-0.9c-0.5-1.3-5.9-1.5-3.9-3c1.9,1.9,2.9-0.2,1.5-1.8c3.4-1.2,9.1,6.2,11,2.4c-1.4-3,4.8,0.6,1.7,0.8
			c-0.6,5.7,7.1,1.7,9.3,2c-2.1-1.2-5.5-3.1-1.9-3.7c4.9,2.2-0.2-4.2-1.2-5.9c-0.5-3-3.9-3.3-2.5-0.8c-2.6,1-7.3-3.7-2.2-3.6
			c5.7-1.2-4.5-4.8-5.3-3.5c-3.1,3.8-7.3-3.8-11.2-3.1c-2.9-1.8-7.1-1.3-9.5-1.6c-1.6-5-9.4-6.9-7.8-13.1c-0.2-2.4,1.2-4.6,1.4-0.9
			c0.8,5.5,8.7,1.8,9.6,6.6c2.5,0.6,4.7,1.9,7.3,0.8c1.2,3.6,5.9,3.5,8.9,5.3c3.8,1.1,8-1,12.1-0.2c2.9,0.2,6.4-1.5,6.8,2.8
			c3.2,3.9,7.4-1.5,11,0.7c1.3-2.1-5.6-5.1-8.4-5.6c-4.2-2.7-9.8-1.2-14.2-3.4c-4.2-0.7-8.7,0.3-11.4-3.5c-3.8-2.5-9-3-12.8-5.1
			c0.2-4.4-5.5-4.7-8.8-5.1c-0.4-3.3,0.3-6.9,4.4-4.8c3.1,0.3,4.9,3.4,8.2,3c2.3,3.6,8.4,1.3,10.2,5.8c4.4,2.3,10.5,2.7,14.1,6
			c-0.8,1.9,2.2-0.1,3.5,1.6c3.9-2.8,9,3.1,12.1,0.5c1.3-3,3.7-3.2,2.9-0.2c2.1,1.4,8.4,4.4,9.3,2.5c-0.4-3-2.9-4.5-5.5-5.8
			c-1.8-4.8,5.2-3.3,7.1-1.7c3.5,1.2,4.4,6.5,8.9,4.6c1.3,2.5,4.9,1.7,2.1-0.6c-2-3.6-6.8-6.5-7.8-10.1c1-3,3.6,3.1,2.4-0.7
			c1.8-1.2,4.7,6.2,4,0.7c1,0.9,4.8,4,6.6,4.6c-2-4.3-3.5-8.8-5.5-13.1c-1.2-1.9,1.5-4,1.9-0.5c1.8,2.8,4.3,9.1,6.5,9.2
			c0.9-4.7-3-9.4-2.9-13.4c4.3,2.9,5.1,8.2,5.6,12.8c-0.6,2.9,2.1,4.6,1.8,0.7c0.9-5,1.9,6.5,2,8.4c0.5,6.5-0.3,13.2-3.5,19
			c-2.9,6.7-6.8,13.2-13.1,17.2c-5.2,3.2-10.9,6-17.1,6.1C144.5,404.2,137.9,404.7,131.6,403.7z M131.7,382.7
			c1.9-4.3-8.9-0.9-5.5-0.4C128.7,381.5,130,382.1,131.7,382.7z M134.4,381.7C133.3,379.8,131.9,383.4,134.4,381.7L134.4,381.7z
			 M178,375.9c1.9-3.4-2.5-4.2-2.3-0.5C174.6,377.3,177.7,378.8,178,375.9z M152.3,373.9c-0.3-2.8-4.5,1.7-0.4,0.1L152.3,373.9
			L152.3,373.9z M164.2,368.5C162.2,367.2,163.8,371.4,164.2,368.5L164.2,368.5z M155.8,368.4C154.2,366,153.9,370.9,155.8,368.4z
			 M160.4,368.2C158.3,363.3,157.1,371.3,160.4,368.2z M173.2,365.9C172,360.3,171.5,369.7,173.2,365.9z M113.1,398.5
			c-2.6-0.4-3-2.4-1.4-4.1C113,394.6,117.1,401.1,113.1,398.5z M126.2,393.1C125.4,391.9,128.1,394,126.2,393.1z M108,390.6
			C108.4,389.5,108.7,391.6,108,390.6z M122.2,386.6C122.1,384.1,124.2,388.1,122.2,386.6z M118.3,384.3c-2.7,0.4-7.7-0.5-8.5-3.2
			c0.7-3.6,2.5-1.4,4-0.1c1-1.7,1.6,2.4,2.9-0.7c1.7-0.8,6-1.3,5,0.7C118.1,380.4,122.1,387,118.3,384.3z M92.1,370.1
			C91.7,368.5,93.2,370.7,92.1,370.1z M108.2,342c0-2.1-0.7-3.7-3-3.6c1-3.7,9.2-0.3,7.7,1.6c-4.1,0.1,4.5,2.1-0.7,2.2
			C110.8,342.1,109.5,342.3,108.2,342z M110,339.5C109.6,336.1,108.1,341.7,110,339.5z M101.5,339.6c-2-0.4-3.2-1.1-0.4-2.2
			c0.9-0.3,1.5,2,2.3,0.2C103.9,339.1,103.2,341.7,101.5,339.6z"/>
		<path id="path1354" class="st12" d="M132.1,404.1c-1.1-1.8,4.7-6.1-0.5-7.1c-3.7-2.7-5,4.9-7.6,0.4c-3.9-1.7-7.3-5.7-12.1-3.6
			c-2.4,1-4.8-3.8-1.6-1.3c2.6,0.1-1.5-4.4,2.5-2.4c3.1,1.2,9.5,6.4,9.2,0.9c2.1,1.2,2.6,1.2,1.2,3c0.9,4.7,6.6,0.3,9.5,1.3
			c-1.2-1.8-6.2-2.7-2-4c4.5,2.5,2.9-5.9-0.5-5.8c1.4-1.1,5.3,1.5,1.4-0.9c-2.4-0.2-2.9-4.9-0.6-1.9c2.9-1.1-3.1-4.7-3.9-1.6
			c-0.1-4.1-4.7-2.7-7.1-4.7c-3.2-0.6-1.3,1.3-0.7,1.7c-4.9,2.6-7-6.7-11.6-3.7c-2-4.6-8.7,0.5-9.4-4.1c-3-2.8-7.3-5-7.1-9.9
			c1.9-0.3,4.3,3.8,7.3,2.8c2.5-0.2,1.6-0.5,2.4,2.1c1.2,1.7,3.2-1.5,4.1,1.6c2,2.2,4.4-3.6,4.2,1c3.4,2.7,7.8,3.9,11.9,4.9
			c1.3-1.9,5.8-2.5,8.1-0.6c1.5-1.7,5.3-1.4,7-0.6c0.4,5.3,5.9,4.3,9,2.2c2.5,1.3,5.2,0.6,1.8-1.7c-3.3-2.2-7.3-2.9-10.4-5.1
			c-2.6,1.9-6.9-2.1-8.3-0.7c-2.1,0.1-4.7-2.7-6.1-0.8c-2-1.6-3.7-1.7-5.6-0.9c-1.3-4-4.4-2.4-7-5.2c-2.5-0.4-5.9-1.3-8.3-2.2
			c0.8-4.2-3.6-4.9-6.5-5.9c-3.6,2.8-2-7,1.7-4c3.2,0,4.7,3.7,8,3c3.4,2.9,8.7,2.3,11.3,6.4c4.6,1.1,9.6,2.1,13.5,4.6
			c-0.7,2.2,2.2,0.7,4,1.9c4.4-2.9,10.1,4.8,12.9-0.5c1.3-0.5,2.8,3.5,5.1,3.9c1.5,2.8,0.1-2.6,2.8-0.3c2.3,1.3,4.5,0.4,2.3-1.6
			c1.5-3.8-7.3-3.1-4.4-7.5c4.5-0.3,8.8,2.1,10.9,6c2,2,5-1.7,6.8,1.8c3.1-1.3-3.3-4.5-3.1-7c-1.2-1.5-7-5.4-3.4-6.2
			c1.4,2.1,1.1,1.4,1.3-0.1c2,0.3,2.6,4.3,4.9,2.4c3.8,1,3.5,6.3,6.2,7.4c-0.2-4.4-2.2-8.3-3.7-12.6c-0.9-2-4.4-6.9-1.7-7.1
			c2.6,4,3.6,9.3,7.5,12.3c2.2,2.5,0-6.2-0.5-7.9c-1.2-3,0.5-3.8,1.8-0.7c1.1,3.7,0.2,9.7,2.5,12c0.8-2,1.4-4.5,2-0.8
			c2.2,2.4-2.1,8.9-0.6,8.8c1.8-2.2,0.6,4.4,0.7,5.6c-0.9,4.8-3.1,9.2-5.1,13.6c-2.6,5.1-6.1,9.7-10.9,12.8
			c-5.4,3.5-11.5,6.3-18.1,6.2C144.1,404.1,138.1,404.2,132.1,404.1z M175.3,381.3c-1-4.7-1.2,4.7,0,0.6L175.3,381.3L175.3,381.3z
			 M134.4,381.7C133.3,379.8,131.9,383.4,134.4,381.7L134.4,381.7z M177.8,377.7c2.4-2,0.6-8.7-2-4.2
			C174.4,376.6,173,378.3,177.8,377.7z M116.5,377.1C115,375.8,115.9,378.4,116.5,377.1z M148.7,375.3
			C146.7,375,149.2,375.9,148.7,375.3z M150.5,375C148.6,374.7,151.1,375.6,150.5,375z M152.3,373.9c-0.3-2.8-4.5,1.7-0.4,0.1
			L152.3,373.9L152.3,373.9z M136.6,373.9C135.9,372.7,136.1,375.1,136.6,373.9z M133.9,372.4C131.9,372.1,134.4,373.1,133.9,372.4z
			 M154.7,369.5C151.8,367.3,156.1,371.8,154.7,369.5z M164.2,368.5C162.2,367.2,163.8,371.4,164.2,368.5L164.2,368.5z M155.8,368.4
			C154.2,366,153.9,370.9,155.8,368.4z M160.4,368.2C158.3,363.3,157.1,371.3,160.4,368.2z M172.8,368.8c-2-1.2-4.7-3.7-1.5-0.5
			C171.7,368.5,172.6,369.7,172.8,368.8z M173.2,365.9C172.9,360.3,170.9,369.5,173.2,365.9z M180.2,364.7
			C179.2,363.8,180.2,366.2,180.2,364.7z M181,361.7c-0.7-1.9-2.5-8.7-2.1-2.7C179.2,359.6,180.3,364.2,181,361.7z M104.2,354.1
			C103.4,352.9,103.4,355.4,104.2,354.1z M110.7,397.5C110,394.2,113.8,399,110.7,397.5z M126.2,393.1
			C125.4,391.9,128.1,394,126.2,393.1z M108,390.6C108.4,389.5,108.7,391.6,108,390.6z M125.7,384.5
			C126,381.8,129.5,385.9,125.7,384.5z M116.4,383.9c-2.2,0.3-9.4-2.2-4.9-4c2.4,2.1,4.7,1.8,7.3,1.1
			C120.1,383,118.8,384.7,116.4,383.9z M122.3,381.9C122.7,380.7,123.6,383.1,122.3,381.9L122.3,381.9z M121.6,380.9
			c-1.6-0.7-6.7-0.9-2-1C120.5,377.9,123.2,381.6,121.6,380.9z M175.7,342c-3.5-5.3,4.7,1.5,0.7,0.8L175.7,342L175.7,342z
			 M110.1,341.8c-2.9,0.5-2-4.4-4.8-3.9c1.7-2.7,7.9-0.3,7.8,2.1c-4.8-0.1,3.7,2.1-0.8,2C111.6,341.8,110.9,341.8,110.1,341.8z
			 M110,339.5C109.6,336.1,108.1,341.7,110,339.5z M101.7,339.1c-4-0.7-0.1-1.6,1.2-1.1C104.2,336.5,103.2,341.6,101.7,339.1z"/>
		<path id="path1352" class="st13" d="M132.1,404.1c-1.1-1.8,4.7-6.1-0.5-7.1c-3.7-2.7-5,4.9-7.6,0.4c-3.9-1.7-7.3-5.7-12.1-3.6
			c-2.4,1-4.8-3.8-1.6-1.3c2.6,0.1-1.5-4.4,2.5-2.4c3.1,1.2,9.5,6.4,9.2,0.9c2.1,1.2,2.6,1.2,1.2,3c0.9,4.7,6.6,0.3,9.5,1.3
			c-1.2-1.8-6.2-2.7-2-4c4.5,2.5,2.9-5.9-0.5-5.8c2.9-1.9,6.7,5,7.5-0.8c-0.8-1.7-2.1-2.5,0.2-2.7c-4-2.6-9.8-1.3-13.8-4.2
			c-3.7-2.9-7.8,0.5-11.2-2.3c-3.6-2.2-8.2-3.1-12.5-3.4c-2.6-1.6-6.2-5.6-8.5-8.6c-2.2-3.8,0.9-3.7,2.7-1c2.9,0.9,6,0.9,7.9,3.8
			c3.3,2,6.4-0.8,8.2,2.7c3.7,1.9,8.6,5.1,12.7,2.9c4.3-0.2,8.6,0,12.5,0.8c1.2,5.8,7.9,2.1,11.8,2.7c2.3-0.1,9.6,0.8,6.4-3.1
			c-5,0.6-9.4-1.6-13.7-3.7c-4.2-1.2-8.8-2.2-13-2.3c-3.3-2.1-8.4-0.6-11-2.8c-3.2-3.1-7.5-3.7-11.5-5.3c-4.4,0.6-2.3-5.3-6.7-5.3
			c-1.8-2.2-6.5,0.8-4.9-3c0.1-5,6.9-1,8.9,0.7c3.5,0.7,7.6,2.7,11.1,4.1c2.9,4.1,8.7,3.4,12.9,5.4c2.7-0.6,3.1,3.7,3.9,2.8
			c4.1,1.4,9-0.6,13.1,2.4c2.5,1.4,3.6-5.2,4.7-0.7c3.8,3.1,7.3,6.5,12.6,6.5c2.7,2.6,6.7,1.7,8.5,3.5c3.3-2-4-4.1-4.8-6.6
			c-3.7-0.1-7.4-2.1-8.5-5.5c-2.7,0.1-6.4-4.8-2.2-4.7c5.3-0.5,7.7,4.4,11.2,6.9c4.4-0.3,6.5,6,10.4,4.4c0-4.8-5.2-5.3-7.3-9
			c-1.1-2.9-6.9-5.2-5.2-7.9c1.4,0.6,2.4,2.9,1.6,0.2c2.3-0.7,2.8,4.4,5.2,2.2c3.8,0.6,3.7,7.5,6.4,7.2c-0.3-4.9-2.7-9.3-4.6-13.7
			c-2-1.3-2.8-8.5-0.2-4.4c2.2,3.9,3.5,8.8,7.2,11.5c1.5-0.2-0.8-7.1-1-9.7c-0.6-4.3,3.5,2.6,2.5,4.4c0.1,2.6,1.1,11.8,3.2,5.7
			c1.6,1,1.5,7.3-0.1,9.8c-0.8,1.6-1.5,4.3,1.2,3.3c0.3,4.8-2.6,9-3.9,13.5c-2.3,4.9-4.9,9.8-9.1,13.3c-4.3,3.8-9.6,6.4-15,8
			C148.4,404.6,140.2,404,132.1,404.1z M158.6,385.3C159.1,381.4,157.3,387.5,158.6,385.3z M155,385.5c5.3-2.2-10.6-2.8-3.6,0
			C152.6,385.9,153.8,385.7,155,385.5z M142.4,384.7c4.9-0.9-3.6-2.9-3.3-0.1C140.2,385.3,141.2,384.4,142.4,384.7z M148,384.8
			C147.2,383.6,147.2,386,148,384.8z M175.3,381.3c-0.6-4.6-2.4,3.5-0.1,1.1L175.3,381.3L175.3,381.3z M177.8,377.7
			c2.8-2.7,0.1-8.7-3-4.1C175.7,376.3,172.3,378.4,177.8,377.7z M163.7,376.4c-1.2-2.2-3.4,1.8-0.1,0.2L163.7,376.4L163.7,376.4z
			 M160.1,374.8C155.5,372.9,160.7,379.3,160.1,374.8z M181.1,362.9c-0.2-2.3-2.8-10.2-2.2-3.7C179.5,361,179.2,369.3,181.1,362.9z
			 M104.2,354.1C103.4,352.9,103.4,355.4,104.2,354.1z M110.7,397.5C110,394.2,113.8,399,110.7,397.5z M126.2,393.1
			C125.4,391.9,128.1,394,126.2,393.1z M108,390.6C108.4,389.5,108.7,391.6,108,390.6z M125.7,384.5
			C126,381.8,129.5,385.9,125.7,384.5z M116.4,383.9c-2.2,0.3-9.4-2.2-4.9-4c2.4,2.1,4.7,1.8,7.3,1.1
			C120.1,383,118.8,384.7,116.4,383.9z M175.7,342c-3.5-5.3,4.7,1.5,0.7,0.8L175.7,342L175.7,342z M110.1,341.8
			c-2.9,0.5-2-4.4-4.8-3.9c1.7-2.7,7.9-0.3,7.8,2.1c-4.8-0.1,3.7,2.1-0.8,2C111.6,341.8,110.9,341.8,110.1,341.8z M110,339.5
			C109.6,336.1,108.1,341.7,110,339.5z M101.7,339.1c-4-0.7-0.1-1.6,1.2-1.1C104.2,336.5,103.2,341.6,101.7,339.1z"/>
		<path id="path1350" class="st14" d="M145.9,404c-4-0.6-8.9,1-12.3-1.8c-0.1-2.2,4.8,0.6,2.1-1.9c-2.3-1.1,3.8-1.6-0.5-2.9
			c0.2-1.2,7.1-2.4,1.9-3.1c-3.7,1.2-3.9-6.2-2.3-6.1c4.8,1.1-4.1-2.5,0.2-2c1.8,3.6,4.1-2.7,1.5-3.9c4-0.3-3.4-2.4-5.1-2.1
			c-2.8-0.7-5.1-1-8-3.1c-0.5,1-5.4-3.3-6.2-0.1c-1.5-1.7-3.2,0.9-5-2.3c-2.4-2.3-4.8-0.3-7.2-2.7c-3.6-1.4-5.7,1.8-7.1-2.3
			c-2.4-2.7-7.2-4.9-6.3-9.2c1.8,3,6.2,2.3,7.5,4.5c-2.7,2.3,2.2-0.4,3.1,1.7c2.3,0.1,4.8,1.5,6.8,0.3c0.9,4.3,7.3,4.2,10.8,6.1
			c3-0.5,5-2.2,8.7-1c1.5,0.8,3.9-1,5.7,0.8c2.2-1.7,2.8,4.5,6.2,3.3c4.2-1.6,6-0.3,9.9-0.8c1.5-1,2.7,1.5,4.6-1
			c-0.5-4.6-7.8-0.6-10.5-4c-3.2-0.8-6.2-4.3-9.2-3.1c-1.4-0.6-4.4-0.1-6-2.1c-1.5,2.7-5-1.4-7.3,0.1c-2.5-2.6-6.2,0.7-7-3.9
			c-3,0.6-4.5-2.8-6.5-2.2c-3.2-0.8-7.6-1-7.4-5.5c-3.2-0.1-4.8-3.5-7.7-1.8c0.9-3.5,5.9-4.9,8.2-1c4,0,7.5,3.2,11.4,3.9
			c-0.4,4.2,7.3,2.5,9.7,5.2c-3.6,0.7,1.8,3.5,1.5,0.3c2.6,0.5-3,4.1,1.6,3.3c3.9,1.3,8.2-0.2,12.2,0.4c2.8,2,7.1,1.7,8.9,0.5
			c1.3,1.5-0.3,3.3,2.8,2c2.8,1.6,3.5,4.3,7.5,3.9c3.2-1,7.6,4.3,8.7,3.4c1.4-2.3,4,3.1,4.2-0.7c-3.2-2.2-5.3-5.6-9.2-5.9
			c-3.1-0.8-4.9-2.9-3.9-5.7c-2.3,1.3-4-1-1.5-2.6c5.3-1,5.9,6.3,10.8,6.2c0.8,0.9,3-0.4,3.5,2c1.2,2.5,4.6,2.8,5.8,1.4
			c-0.9-4.9-6.4-4.9-7.9-9.6c1.7,1.1,4.1,1,4.2-1.1c-4.1,1.1,0.1-3.3,1.2,0.2c0,2.4,3.6,6.7,3.2,2c-1.2-4-2.2-7.7-3.2-11.6
			c2.2,4,6.6,7.1,5.7,12.2c2,1.6-0.1,6,1.2,7c0.3-2.9,2.4-5.8,2.4-7.6c-3.1,0.9-2.6-6.2-2.4-8.2c0.6,1.9,0.4,8.7,2.8,6.9
			c-0.6-2.6,2-4.8,0.9-0.9c1.9,3.7-2.6,7.8-1.1,10.7c4.3-0.3-0.4,5.7,0.2,8c-1.6,2.8-2.9,5.8-3.9,7.6c-1.5,4.3-4.2,8.2-7.8,11.1
			c-3.3,3.1-7.3,5.6-11.7,6.5c-3.4,2.4-8.2,1.8-12.2,2.4l-0.8,0L145.9,404L145.9,404z M138.7,392.8c-2.5,0-3-6.2-2.9-1.3
			C136.1,392.1,138.4,393.6,138.7,392.8z M139.8,389.6C138.6,388.3,138.6,390.9,139.8,389.6z M168.1,388.1
			C168.7,386.6,166.5,389.7,168.1,388.1z M158.9,386.5C157.3,386.1,158.8,388.4,158.9,386.5z M174.4,385.4c2.3-2.5,0.8-8.6-0.5-3.6
			C175.2,382.5,172.1,389.7,174.4,385.4z M140.3,386.4C139.3,385.4,140.2,387.5,140.3,386.4z M168.9,385.8
			C168.3,386.4,169.4,387.1,168.9,385.8z M158.6,385.3C159.1,381.4,157.3,387.5,158.6,385.3z M155,385.5c5.3-2.2-10.6-2.8-3.6,0
			C152.6,385.9,153.8,385.7,155,385.5z M172.4,384.6C171.1,384.3,171.6,386.5,172.4,384.6z M142.4,384.7c4.9-0.9-3.6-2.9-3.3-0.1
			C140.2,385.3,141.2,384.4,142.4,384.7z M148,384.8C147.2,383.6,147.2,386,148,384.8z M160.4,381C160.1,380.3,159.1,382,160.4,381z
			 M174.6,378.5c1-2.1,4.5,2.2,3.9-2.1c2.1-3.2-1.1-6.2-3.6-3.4c-1.8-2.1,1.8,3.5-0.9,4.2C173,378.6,172.9,380.9,174.6,378.5
			L174.6,378.5z M161.6,377.9C159.7,377.6,162.1,378.5,161.6,377.9z M163.7,376.4c-1.2-2.2-3.4,1.8-0.1,0.2L163.7,376.4L163.7,376.4
			z M160.1,374.8C155.5,372.9,160.7,379.3,160.1,374.8z M168.5,375.3C166.6,375,169.1,375.9,168.5,375.3z M158.2,373
			C156.6,371.7,157.9,374.3,158.2,373z M107.3,371.5C106.5,370.2,106.3,373.2,107.3,371.5z M158.4,370.9
			C156.2,370.5,158.7,371.4,158.4,370.9z M176.2,363.7C175.3,361.9,175.3,365.6,176.2,363.7z M120.4,361.2
			C119.9,359.2,118.5,362.3,120.4,361.2z M118.6,360.4C117,358.5,117.3,362.2,118.6,360.4z M114.9,358.9
			C113.3,357.6,114.1,360.7,114.9,358.9z M105.6,357.7C102.5,356,105.7,358.5,105.6,357.7z M109.2,356.9c-1.4-1.9-4.2-0.3-0.6,0.6
			l0.4-0.2L109.2,356.9L109.2,356.9z M104.6,353.9C101.5,351.6,104.2,358.7,104.6,353.9L104.6,353.9z M115,383.2
			c-2.4-0.4-3.3-2.7-0.3-1c1.6,1.4,3.9-3,3.7,1C117.4,383.5,116.2,383.3,115,383.2z M111.1,380.6
			C111.6,379.6,111.8,381.7,111.1,380.6z M99.8,364C100.6,362.8,100.6,365.3,99.8,364z M127,362.5C127.8,360,128.8,363.7,127,362.5z
			 M165.6,357.1c-1.8-1.9,1.9-2.3,2.1,0.3C167,357.8,166.1,357.5,165.6,357.1z M93.4,349.3C94.6,346.7,93.3,351.2,93.4,349.3z"/>
		<path id="path1348" class="st15" d="M145.9,404c-4-0.6-8.9,1-12.3-1.8c-0.1-2.2,4.8,0.6,2.1-1.9c-2.3-1.1,3.8-1.6-0.5-2.9
			c0.2-1.2,7.1-2.4,1.9-3.1c-3.7,1.3-3.9-6.7-2.1-6c1.6,0.8-0.4,5.1,3.6,4.4c5.4,1,2.1-4.3-1.2-4c2-5.3,7.6,1.7,11.6,0.2
			c4.7,0.8,8.1-2.5,12.6-2.7c1.8,0.1,5-1.4,4,1.7c3.4,2.9,4.7-6.6,6.1-3.5c-0.3,2.1,3.3-2.7,2,0.9c-0.1,3.7,2.5-3.7,2.9-3.5
			c-0.9-2.3-2.1-5.2,1.4-3.3c4.6-0.4,1.7,3.9,0.5,5.7c-1.3,4.3-4,8-7.5,10.8c-3.3,3.1-7.3,5.6-11.7,6.5c-3.4,2.4-8.2,1.8-12.2,2.4
			l-0.8,0L145.9,404L145.9,404z M159.1,389.1C157.6,387.4,158.4,392.1,159.1,389.1z M167.8,385.5
			C168.9,382.4,169.8,385.7,167.8,385.5L167.8,385.5z M115,383.2c-2.4-0.4-3.3-2.7-0.3-1c1.6,1.4,3.9-3,3.7,1
			C117.4,383.5,116.2,383.3,115,383.2z M164.3,383.1c-3.7,0.5,0.9-3.1-2.9-2.4c-2.5,0.9-4.2,3.5-7.7,2.2c-4.7-1.1-9.1,0.1-13.5-2
			c-4.9-1.3-10.3-0.3-14.7-3c-3.9-2.7-8.2-0.9-12.1-2.7c-3.9-2.6-8.8-3.1-13.4-3.9c-2.2-3.3-7.8-5.7-7.5-9.8
			c1.2,2.9,7.3,0.9,6.2,3.9c-1.8,1.6,2.7-0.9,3.3,1.2c4,1.4,7.3,0.3,10.1,3.8c4.5,1.7,8.7,3.5,13.4,1.6c4.5,0.5,9.7-0.5,12.2,3.7
			c4,1.8,8.2-0.9,12.4-0.1c1.7,0.3,4-0.8,5,1.1c3.1,1.8,8.1,1.7,11.3,0.4c-3.4-2.5-7.8-3.5-11.5-5.4c-4.4-0.4-9-0.1-12.6-3
			c-3.9-2.3-8.8-1.2-12.6-3.6c-3.8,1.3-7.8-1.7-11.9-1.2c-2.6-1.9-5.6-4.7-9.3-5.1c-2.9-1.1-6.8-1.3-7.1-5.1
			c-2.6-1.9-10.7-2.1-4.7-5.5c2.9,0.1,4.5,3.4,7.6,2.8c2.3,2.8,8.9,1.7,8.7,5.6c2.9,1.4,7.2,1.4,9.4,3.5c-3.7,0.2,2.1,3.9,1.3,0.2
			c3.4-0.1-2.9,4.2,2,3.3c3.9,1.3,8.2-0.2,12.2,0.4c2.8,2,7.1,1.7,8.9,0.5c1.3,1.5-0.3,3.3,2.8,2c2.9,3.7,7.8,4.5,12.1,5.9
			c3.3,1.7,7,3.8,10.3,4.3c0.5-3.7,3.1,4.1-1,3.7C167.5,379.5,167.7,384.4,164.3,383.1z M107.3,371.5
			C106.5,370.2,106.3,373.2,107.3,371.5z M120.4,361.2C119.9,359.2,118.5,362.3,120.4,361.2z M118.6,360.4
			C117,358.5,117.3,362.2,118.6,360.4z M114.9,358.9C113.3,357.6,114.1,360.7,114.9,358.9z M109.2,356.9c-1.4-1.9-4.2-0.3-0.6,0.6
			l0.4-0.2L109.2,356.9L109.2,356.9z M104.6,353.9C101.5,351.6,104.2,358.7,104.6,353.9L104.6,353.9z M111.1,380.6
			C111.6,379.6,111.8,381.7,111.1,380.6z M172.8,373.9c-4.3-2-6.9-6.7-11.7-7.4c-3.3-0.5-3.4-3.1-4.4-5.3c-4.7,0.8-0.9-4.8,1.8-1.9
			c3.4,2.6,5.5,6.6,10.3,7.1c1.5,2.6,5.3,3.9,6.8,5.5C173.8,371.8,174.3,374.5,172.8,373.9z M179.8,373.5c-2-2.3,6.1-5.9,3.9-1.3
			C183.8,373.9,180.6,374.9,179.8,373.5z M177.7,371c-2.4-2.7,0.6-8.4-1.3-12.2c-0.2-2.8-4.1-9.4-3-9.8c1,2.7,3.7,4.5,4.9,6.9
			c0.1,4,0.7,8,1.2,12c2-3.1,4.5-7.3,1-9.6c1.6,3.3,3.3-2.9,3.4,1.6c-0.7,4-2.3,8.3-4.7,11.5l-0.6-0.1L177.7,371L177.7,371z
			 M174,364.5c-2-1.8-5.3-2.7-6-5.8c1.8,3.1,6.2-2.1,1.8-0.9c2.6-3.7,5,4.3,5.4,6.5C175.3,365.5,174.3,365.8,174,364.5z M127,362.5
			C127.8,360,128.8,363.7,127,362.5z M166.1,356.9C163.5,352.6,170.7,359.4,166.1,356.9L166.1,356.9z M179.3,353.2
			C179.5,349,180.2,355.5,179.3,353.2z"/>
		<path id="path1346" class="st16" d="M144.9,403c-2.1-1.8,0.3,1.5-2.7,0.6c-4,1.3,1.3-4-2.5-3.7c-0.3,1.3-1.1,3.7-3,3
			c2.7-2.5-0.7-6.5,3.1-7.7c-0.9-1.3-6.4-2.1-1.7-2.1c4.1,1.4,4.9-3.2,1.2-4.3c-3.6,1.9-0.5-4.6,1.6-1.6c4.2,1.9,8.6,2.4,13.2,1.5
			c2-1.7,3.8-2,4.9-1.2c1.4-1.8,5.1-1.5,6.7-1.3c-0.9,2.1,1.9,1.8,2.1,3c0.6-1.3,4.7-8.6,3.6-4c-2.2,5.2,2.8-3.2,2.4-0.8
			c-1.2,2.4,0.2,4,1,0.8c0.4-3,3.9-1.2,1.9-3.7c-0.6-0.5-2.3-6,0.7-2.5c2.9-2.8,3.9,4.1,1.8,2.9c-1.4-4.1-0.4,6.2-3.4,7.5
			c-2.7,4-6.6,7.2-10.8,9.7c-4.8,1.6-8.5,4.2-13.9,4.3C149,403.3,146.6,404.6,144.9,403z M158.7,394.1
			C156.9,390.9,158,395.5,158.7,394.1z M159.1,389.1C157.6,387.4,158.4,392.1,159.1,389.1z M134.4,389.3
			C136.2,386.7,135.2,391.6,134.4,389.3z M167.8,385.5C168.9,382.4,169.8,385.7,167.8,385.5L167.8,385.5z M164.3,383.1
			c-3.6,0.4,0.9-3.3-3.2-2.3c-2.3,0.1-2.7,3.8-6.1,2.3c-4.5-1.2-9.2,0.2-13.3-1.8c-4.8-1.6-10.2-0.6-14.8-2.8
			c-2.6-1.8-8.3-2.3-8.6-5.2c4.1,0.3,7.8-2.1,12.2-1c2.7,0.3,5.5,0.3,6.4,3.3c4.6,1.8,9.4-0.3,14.1,0c4.1,0.7,7,3.5,12,2.4
			c3.2,0.3,4.4-1.7,0.8-2.6c-4.5-1.4-8.4-4.9-13.2-4c-4.2-0.1-9.1-3-11.6-4.8c2-1.1,3.7,1.7,5.7-0.6c2.4,0.6,0,5.6,4,2.6
			c2.2-2.7,5.2,2.9,8.6,2.4c4.8,0.2,8.7,4.1,13.1,5.2c2.2,2.6,1.5-3.7,3,0.6c0.3,2.4-1.5,2.9-2.4,2c0.4,2.8-5.1,0.6-4.4,4.3
			C165.9,383.5,165.1,383.2,164.3,383.1z M130.6,377.1C129.3,375.1,129,379.1,130.6,377.1z M123.9,375.2
			C121.3,373.1,122.9,377.5,123.9,375.2z M116.8,376.2C117.6,374.9,117.6,377.4,116.8,376.2z M113.7,375.6c-1.2-1.7,5.4-4.3,3.2-1.1
			C115.9,374.9,115.1,376.3,113.7,375.6z M172.8,373.9c-4.4-2-6.9-6.7-11.7-7.4c-3.5-0.3-5.5-5.1-0.7-5.1c1.8,2.1,5.1,4.5,8.4,4.8
			C169.4,368.2,177.2,372.3,172.8,373.9z M180.4,373.9c-2.5-1.9,1.5-3.2,3.4-4.3C184.3,371.8,181.7,375.2,180.4,373.9z M108,373
			C108.4,372,108.7,374.1,108,373z M174.6,371.5C175.4,369.8,176.1,373.2,174.6,371.5z M177.6,371c-1.9-3.4,0.4-9.2-1.4-13.5
			c0.1-2.3,1.8,1.2,1.6,1.7c1.4,2.9,0.9,8,1.2,10.4c1.3-1.3,2.4-8.4,3.9-6.6C181.9,365.4,181.1,372,177.6,371z M98.7,370.2
			c0.5-1.2,0.1-4.3,2.6-3.2c1.6-0.2,3.9,0.6,2.7,2c1.8-3.3,5.5,1.8,1.4,1c-1.7,0-3.7,0.3-3.4-1.7C100.6,367.8,99.9,370.8,98.7,370.2
			z M108,368C109,366.3,108.5,369.6,108,368z M96.8,367.8c-3-1.2-5.1-6.2-0.7-3.4C96.5,364.2,98,369.6,96.8,367.8z M132.5,366.4
			c1.3-1,4.4-1.6,1.6-0.1C133.7,366.3,132.9,366.9,132.5,366.4z M127,365.6C127.2,364.6,128.2,366.7,127,365.6z M130.6,365.8
			C131.2,364.8,132,366.5,130.6,365.8L130.6,365.8z M174,364.5c-1.7-1.4-5.5-3.5-5.7-5.2c2.3,2.5,3.9-2.3,5.4,1.2
			C174.4,361,176.2,367.7,174,364.5z M121,364.2c-1.3-0.8-5.7,0.1-4.6-2.4c1,1.9,8.7,0.3,5.5,2.9L121,364.2L121,364.2z M125.5,364.7
			C125.6,363.2,127.2,365.9,125.5,364.7z M98.2,364.4C98.7,363.3,98.9,365.4,98.2,364.4z M111.2,359.3c-2.8,0.8-3.1-2.6-0.6-2.3
			C110.9,357.9,115.6,360.7,111.2,359.3z M106.1,358C107,356.4,108.2,359.4,106.1,358z M102.5,356.8c-0.5-1.7-2.6-8.2,0-3.9
			C102.5,353.6,103.9,357.3,102.5,356.8z M104.8,356C105.5,354.2,105.2,358.2,104.8,356z M107.2,355.4
			C106.2,352.4,110.6,357.5,107.2,355.4z M177,355.4C176.7,353.3,178.8,357.4,177,355.4z M104.4,353.2
			C103,350.2,107.4,354.4,104.4,353.2z M98.9,352.4C99.2,350,101.1,353.9,98.9,352.4z M99.3,350.1
			C99.1,348.3,101.2,351.4,99.3,350.1z"/>
		<path id="path1344" class="st17" d="M145.6,403.4c-2-0.8-2.6-3.3-2.3-4.2c-3-0.7-4.8,1.4-4.9,3c-3.4,2.1,1.4-3.4-0.9-5.2
			c3.9-0.3,2.5-3.7-0.8-3.1c-2.3-2,8.5,2.2,6.5-3.1c-0.3-2.1-7.5-1.8-3.6-3.4c4.1,1.1,7.8,3.4,12.2,3.7c1.8,3.6-0.3-1.3,2.9-1.3
			c1.8-1.1,4.1-3.5,2.6,0.2c-0.8,4.5,4.9,0,2-2.3c1.5-0.6,5.3-2,5.6-0.1c-0.5,2.2,3.7,0.5,1.6,3.4c0,2.3,2.3-5.1,4.7-3.1
			c2.5-4.8-0.3,4,2.8,1.4c2.8,5.5-8.7,1.3-4.9,6.2c-1.7,3-6.2,4.9-9.4,5.3c-2.3,2-7.1,2.5-11,2.7
			C147.6,403.4,146.5,404.2,145.6,403.4z M162.9,394.6c-1,0.5-3.3-3-2.3,0.3C161.3,395.5,162.3,395.1,162.9,394.6z M159,394.4
			c-0.8-3.5-2.7-0.5-0.2,0.3L159,394.4L159,394.4z M141.4,403.2c1-3.2,4.4,1.8,0.3,0.3l-0.2-0.1L141.4,403.2L141.4,403.2z
			 M169.4,393.9C169.7,392.3,169.7,395.2,169.4,393.9z M153.7,382.6c-4.1-2.1-8.5,0.2-12.5-2c-2.8-0.7-6.3-0.8-8-2.5
			c-1.8,3.9-9.5-0.8-5.9-4.7c1.4-1.5,5.5,0,7.6,0.4c0.7,3.3,5.1,1.9,5,5.4c3.3-3,8-3.6,12.6-3c3.2,2.7,7.7,2.1,11.7,2.4
			c3.8,0.1,3.7-2.5,0.2-3.3c-2.5-1.1-7-2.5-8.2-3.9c4.6,0,8.4,3.1,12.4,4.7c1.9,1.1,6.6,1.8,2.1,2.7c-2.8,0.6-3.7,4.5-6.1,3.1
			c1.2-3.6-6.2-1.3-7.5,0.5C155.9,382.8,154.8,382.7,153.7,382.6z M144.8,378.3c5-2.2-4.1-0.8-0.6,0.2L144.8,378.3L144.8,378.3z
			 M130.7,377.7c3-2.9-4.5-5.4-1.1-2.4C130.5,375.7,128.2,379.2,130.7,377.7z M179.2,380.7C178,377.2,181.4,382,179.2,380.7
			L179.2,380.7z M124.7,377c-1.4-0.6-8.3-3.1-5.4-3.2c1.3,0.8,8.1-2.9,5.2,0.6c-2.9-0.2-1.7,2.5,0.4,1.3
			C124.9,376.3,127.3,378.4,124.7,377z M170.6,372.1c-3.6-3.1-6.9-5.3-11.3-6.9c-4.3-1.3,1.7-5.6,2.8-1.4c3.7,2.8,10,3.9,11.4,8.9
			C172.8,374.2,171.4,372.6,170.6,372.1z M161.2,363.9C160.2,362.2,160.3,365.5,161.2,363.9z M180.6,373.1c-1.7-2.5,5.6-1.6,1.1,0.1
			l-0.5,0L180.6,373.1L180.6,373.1z M146.9,370.5c-1.5-0.1-5.8-4-2.2-3.4c0.8,5.9,5.7-1.2,8,2.5
			C156.2,371.8,149.1,370.9,146.9,370.5z M105.8,369.6C104.2,366.9,109.6,369.4,105.8,369.6L105.8,369.6z M102.6,368.5
			C102.3,365.4,105.2,370.2,102.6,368.5z M177.6,366c-0.6-3,1.5-3.4,1.2-0.3C178.7,367.7,177.4,370.6,177.6,366z M180.4,367.8
			C181.1,365.1,181.7,367.5,180.4,367.8L180.4,367.8z M139.7,367C139.4,365.4,141.4,367.8,139.7,367L139.7,367z M121.7,363.7
			C122.4,361.7,123.6,365,121.7,363.7z M173.6,363.4c-2.2,0-5.8-4-1.7-2.6C173.3,358.9,176.2,366,173.6,363.4z M177.3,360
			C178,358,177.9,362.5,177.3,360z"/>
		<path id="path1342" class="st18" d="M145.7,402.7C144.6,399.6,149.5,404.8,145.7,402.7L145.7,402.7z M149.2,402.6
			c1.3-1.3,4.3-4.6,0.4-2.8c-2.9-3.5-9.5,1.3-11.1-2.1c1.8-2.6,7.1-4.7,5-8.7c3.2,1.9,7.4,2,10,4c-1.2-2.6,4.3-5.1,2.8-1
			c0.6,2.9,4.3,3.5,1.7,6.4c-0.2,3.3-4.2,2.1-5.6,1C152.1,400.7,151.1,403.2,149.2,402.6z M153.8,397.6c0.4-2.6,4.1,1.5,1.8-2
			c0.9-2.7-4.1-1.8-1.4,0C152.7,396.1,151.8,401,153.8,397.6z M147.5,396.6C146.1,394.4,144,399.1,147.5,396.6z M149.9,394.1
			c2-3-3.9-1.2-1.2,0.6C148.3,396.3,150,394.5,149.9,394.1z M156.8,401.7C158,400,157.5,402.7,156.8,401.7z M159.4,400.1
			c-2.1-2.7,4.6-5,5.3-4.7c0.9,2,3.1-2.7,3.6,1.1C165.9,398.1,162.2,400.5,159.4,400.1z M161.7,393.5c-1.3-3-2.3-7.5,2.4-6.3
			c-1.3,3,4.7,1.4,1.2,4.6c-1.1,1.7-3.9-2.4-2.4,1C163.3,393.5,162.2,393.9,161.7,393.5z M158.8,393.1
			C160.6,389.2,161.9,393.6,158.8,393.1z M167.5,391.7C168.2,387.4,170.6,392.3,167.5,391.7z M171.7,391.5c-5.3-1.1,2.7-2.6,0.8,0.3
			l-0.5-0.1L171.7,391.5L171.7,391.5z M139.5,388.1C140.6,387.8,140.4,388.7,139.5,388.1z M151.3,381.4c-1.8-1.8-10.4,0.7-4.9-2.3
			c0.5-1,0.6,2.4,2.3,0.2c2.7-0.2,5.4,0.2,7.9-0.7c3.6-0.1,9.8,1.9,11.7-1.9c5.1,0.5-1.3,5.5-3.8,3.1
			C159.6,378.8,156,384.4,151.3,381.4z M151.8,378.2c-0.5-2.2-4.7-0.2-1.3-1.6C153,376,155.9,379.4,151.8,378.2z M170.7,371.6
			c-3.1-1.6,0-3.7,1-0.8C174.5,371.5,172.6,374.2,170.7,371.6z M167.6,369C168,364.8,169.9,369.8,167.6,369z M162.1,365.9
			C164.1,365.1,162,367.3,162.1,365.9z M177.9,365.2C178.2,361.7,178.7,368.6,177.9,365.2z"/>
	</g>
</g>
</svg>
