<?xml version="1.0" encoding="utf-8"?>
<!-- Generator: Adobe Illustrator 24.2.3, SVG Export Plug-In . SVG Version: 6.00 Build 0)  -->
<svg version="1.1" id="Layer_1" xmlns="http://www.w3.org/2000/svg" xmlns:xlink="http://www.w3.org/1999/xlink" x="0px" y="0px"
	 viewBox="0 0 500 500" style="enable-background:new 0 0 500 500;" xml:space="preserve">
<style type="text/css">
	.st0{fill:none;stroke:#CDCFD0;stroke-width:0.25;stroke-miterlimit:10;}
	.st1{fill:#FFFFFF;}
	.st2{fill:none;stroke:#000000;stroke-width:2;stroke-miterlimit:10;}
	.st3{enable-background:new    ;}
</style>
<g id="Border">
	<line class="st0" x1="58.3" y1="0" x2="58.3" y2="500"/>
	<line class="st0" x1="96.7" y1="0" x2="96.7" y2="500"/>
	<line class="st0" x1="20" y1="0" x2="20" y2="500"/>
	<line class="st0" x1="135" y1="0" x2="135" y2="500"/>
	<line class="st0" x1="173.3" y1="0" x2="173.3" y2="500"/>
	<line class="st0" x1="211.7" y1="0" x2="211.7" y2="500"/>
	<line class="st0" x1="288.3" y1="0" x2="288.3" y2="500"/>
	<line class="st0" x1="326.7" y1="0" x2="326.7" y2="500"/>
	<line class="st0" x1="365" y1="0" x2="365" y2="500"/>
	<line class="st0" x1="403.3" y1="0" x2="403.3" y2="500"/>
	<line class="st0" x1="480" y1="0" x2="480" y2="500"/>
	<line class="st0" x1="441.7" y1="0" x2="441.7" y2="500"/>
	<line class="st0" x1="58.3" y1="0" x2="58.3" y2="500"/>
	<line class="st0" x1="96.7" y1="0" x2="96.7" y2="500"/>
	<line class="st0" x1="20" y1="0" x2="20" y2="500"/>
	<line class="st0" x1="135" y1="0" x2="135" y2="500"/>
	<line class="st0" x1="173.3" y1="0" x2="173.3" y2="500"/>
	<line class="st0" x1="211.7" y1="0" x2="211.7" y2="500"/>
	<line class="st0" x1="288.3" y1="0" x2="288.3" y2="500"/>
	<line class="st0" x1="326.7" y1="0" x2="326.7" y2="500"/>
	<line class="st0" x1="365" y1="0" x2="365" y2="500"/>
	<line class="st0" x1="403.3" y1="0" x2="403.3" y2="500"/>
	<line class="st0" x1="480" y1="0" x2="480" y2="500"/>
	<line class="st0" x1="441.7" y1="0" x2="441.7" y2="500"/>
	<line class="st0" x1="500" y1="58.3" x2="0" y2="58.3"/>
	<line class="st0" x1="500" y1="96.7" x2="0" y2="96.7"/>
	<line class="st0" x1="500" y1="20" x2="0" y2="20"/>
	<line class="st0" x1="500" y1="135" x2="0" y2="135"/>
	<line class="st0" x1="500" y1="173.3" x2="0" y2="173.3"/>
	<line class="st0" x1="500" y1="211.7" x2="0" y2="211.7"/>
	<line class="st0" x1="500" y1="288.3" x2="0" y2="288.3"/>
	<line class="st0" x1="500" y1="326.7" x2="0" y2="326.7"/>
	<line class="st0" x1="500" y1="365" x2="0" y2="365"/>
	<line class="st0" x1="500" y1="403.3" x2="0" y2="403.3"/>
	<line class="st0" x1="500" y1="480" x2="0" y2="480"/>
	<line class="st0" x1="500" y1="441.7" x2="0" y2="441.7"/>
</g>
<g id="Layer_3">
	<rect x="456.8" y="229.2" class="st1" width="43.2" height="18"/>
	<rect x="255.9" y="0.7" class="st1" width="51.7" height="18"/>
	<rect x="2.7" y="252.9" class="st1" width="51.7" height="18"/>
	<rect x="171.6" y="481.1" class="st1" width="75.5" height="18.9"/>
</g>
<g id="Layer_1_2_">
	<g id="Layer_1_1_">
		<g id="Axis">
			<g>
				<g>
					<line class="st2" x1="7.1" y1="250" x2="492.9" y2="250"/>
					<g>
						<polygon points="8.1,252.8 2.7,250 8.1,247.2 						"/>
					</g>
					<g>
						<polygon points="491.9,252.8 497.3,250 491.9,247.2 						"/>
					</g>
				</g>
			</g>
			<g>
				<g>
					<line class="st2" x1="250" y1="6.9" x2="250" y2="493.1"/>
					<g>
						<polygon points="247.1,7.7 250,2.7 252.9,7.7 						"/>
					</g>
					<g>
						<polygon points="247.1,492.3 250,497.3 252.9,492.3 						"/>
					</g>
				</g>
			</g>
		</g>
		<g id="Labels">
		</g>
	</g>
	<g id="Labels_1_">
		<g class="st3">
			<path d="M263.2,15h-2.4V5.6h-3.1v-2h8.6v2h-3.1V15z"/>
			<path d="M275,15l-0.8-2.7H270l-0.8,2.7h-2.6l4-11.5h3l4,11.5H275z M273.6,10.3c-0.8-2.5-1.2-3.9-1.3-4.2
				c-0.1-0.3-0.2-0.6-0.2-0.8c-0.2,0.7-0.7,2.3-1.5,4.9L273.6,10.3L273.6,10.3z"/>
			<path d="M285.8,11.9c0,1-0.4,1.8-1.1,2.4s-1.8,0.9-3.1,0.9c-1.2,0-2.3-0.2-3.2-0.7v-2.2c0.8,0.3,1.4,0.6,2,0.7
				c0.5,0.1,1,0.2,1.5,0.2s0.9-0.1,1.2-0.3c0.3-0.2,0.4-0.5,0.4-0.9c0-0.2-0.1-0.4-0.2-0.6s-0.3-0.3-0.6-0.5s-0.7-0.4-1.5-0.8
				c-0.7-0.3-1.2-0.6-1.6-0.9c-0.3-0.3-0.6-0.7-0.8-1.1c-0.2-0.4-0.3-0.9-0.3-1.4c0-1,0.3-1.8,1-2.4s1.6-0.9,2.8-0.9
				c0.6,0,1.2,0.1,1.7,0.2s1.1,0.3,1.7,0.6L285,6.1c-0.6-0.2-1.1-0.4-1.5-0.5s-0.8-0.1-1.2-0.1c-0.5,0-0.8,0.1-1.1,0.3
				c-0.2,0.2-0.4,0.5-0.4,0.8c0,0.2,0,0.4,0.1,0.6s0.3,0.3,0.5,0.5c0.2,0.1,0.7,0.4,1.5,0.8c1.1,0.5,1.8,1,2.2,1.5
				C285.6,10.5,285.8,11.1,285.8,11.9z"/>
			<path d="M292.3,15h-2.4V5.6h-3.1v-2h8.6v2h-3.1V15z"/>
			<path d="M300.7,8.3l2.4-4.7h2.6l-3.8,7V15h-2.4v-4.4l-3.8-7.1h2.6L300.7,8.3z"/>
		</g>
		<g class="st3">
			<path d="M183.3,483.4v7.4c0,0.8-0.2,1.6-0.6,2.2c-0.4,0.6-0.9,1.1-1.6,1.5c-0.7,0.3-1.6,0.5-2.5,0.5c-1.5,0-2.6-0.4-3.4-1.1
				s-1.2-1.8-1.2-3.1v-7.4h2.4v7c0,0.9,0.2,1.5,0.5,1.9c0.4,0.4,0.9,0.6,1.8,0.6c0.8,0,1.4-0.2,1.7-0.6c0.4-0.4,0.5-1.1,0.5-1.9v-7
				H183.3z"/>
			<path d="M196.2,494.8h-3.1l-5-8.6H188c0.1,1.5,0.1,2.6,0.1,3.3v5.4h-2.2v-11.4h3.1l5,8.6h0.1c-0.1-1.5-0.1-2.5-0.1-3.1v-5.4h2.2
				V494.8z"/>
			<path d="M203.5,494.8h-2.4v-9.4H198v-2h8.6v2h-3.1V494.8z"/>
			<path d="M215.3,494.8l-0.8-2.7h-4.2l-0.8,2.7h-2.6l4-11.5h3l4,11.5H215.3z M213.9,490c-0.8-2.5-1.2-3.9-1.3-4.2
				c-0.1-0.3-0.2-0.6-0.2-0.8c-0.2,0.7-0.7,2.3-1.5,4.9h3V490z"/>
			<path d="M226.1,491.6c0,1-0.4,1.8-1.1,2.4s-1.8,0.9-3.1,0.9c-1.2,0-2.3-0.2-3.2-0.7V492c0.8,0.3,1.4,0.6,2,0.7
				c0.5,0.1,1,0.2,1.5,0.2s0.9-0.1,1.2-0.3c0.3-0.2,0.4-0.5,0.4-0.9c0-0.2-0.1-0.4-0.2-0.6s-0.3-0.3-0.6-0.5s-0.7-0.4-1.5-0.8
				c-0.7-0.3-1.2-0.6-1.6-0.9c-0.3-0.3-0.6-0.7-0.8-1.1s-0.3-0.9-0.3-1.4c0-1,0.3-1.8,1-2.4s1.6-0.9,2.8-0.9c0.6,0,1.2,0.1,1.7,0.2
				s1.1,0.3,1.7,0.6l-0.8,1.9c-0.6-0.2-1.1-0.4-1.5-0.5s-0.8-0.1-1.2-0.1c-0.5,0-0.8,0.1-1.1,0.3c-0.2,0.2-0.4,0.5-0.4,0.8
				c0,0.2,0,0.4,0.1,0.6s0.3,0.3,0.5,0.5c0.2,0.1,0.7,0.4,1.5,0.8c1.1,0.5,1.8,1,2.2,1.5C225.9,490.2,226.1,490.9,226.1,491.6z"/>
			<path d="M232.6,494.8h-2.4v-9.4h-3.1v-2h8.6v2h-3.1V494.8z"/>
			<path d="M241,488.1l2.4-4.7h2.6l-3.8,7v4.4h-2.4v-4.4l-3.8-7.1h2.6L241,488.1z"/>
		</g>
		<g class="st3">
			<path d="M467.1,244.7h-6.6v-11.4h6.6v2h-4.2v2.5h3.9v2h-3.9v2.9h4.2V244.7z"/>
			<path d="M476.5,244.7l-0.8-2.7h-4.2l-0.8,2.7H468l4-11.5h3l4,11.5H476.5z M475.1,239.9c-0.8-2.5-1.2-3.9-1.3-4.2
				c-0.1-0.3-0.2-0.6-0.2-0.8c-0.2,0.7-0.7,2.3-1.5,4.9h3V239.9z"/>
			<path d="M487.3,241.5c0,1-0.4,1.8-1.1,2.4s-1.8,0.9-3.1,0.9c-1.2,0-2.3-0.2-3.2-0.7v-2.2c0.8,0.3,1.4,0.6,2,0.7
				c0.5,0.1,1,0.2,1.5,0.2s0.9-0.1,1.2-0.3c0.3-0.2,0.4-0.5,0.4-0.9c0-0.2-0.1-0.4-0.2-0.6s-0.3-0.3-0.6-0.5s-0.7-0.4-1.5-0.8
				c-0.7-0.3-1.2-0.6-1.6-0.9c-0.3-0.3-0.6-0.7-0.8-1.1c-0.2-0.4-0.3-0.9-0.3-1.4c0-1,0.3-1.8,1-2.4c0.7-0.6,1.6-0.9,2.8-0.9
				c0.6,0,1.2,0.1,1.7,0.2s1.1,0.3,1.7,0.6l-0.8,1.9c-0.6-0.2-1.1-0.4-1.5-0.5s-0.8-0.1-1.2-0.1c-0.5,0-0.8,0.1-1.1,0.3
				c-0.2,0.2-0.4,0.5-0.4,0.8c0,0.2,0,0.4,0.1,0.6c0.1,0.2,0.3,0.3,0.5,0.5c0.2,0.1,0.7,0.4,1.5,0.8c1.1,0.5,1.8,1,2.2,1.5
				C487.1,240.1,487.3,240.8,487.3,241.5z"/>
			<path d="M492.9,238l2.4-4.7h2.6l-3.8,7v4.4h-2.4v-4.4l-3.8-7.1h2.6L492.9,238z"/>
		</g>
		<g class="st3">
			<path d="M13.5,266.7h-2.4v-4.9H6.6v4.9H4.1v-11.4h2.4v4.5H11v-4.5h2.4v11.4H13.5z"/>
			<path d="M23.4,266.7l-0.8-2.7h-4.2l-0.8,2.7H15l4-11.5h3l4,11.5H23.4z M22,261.9c-0.8-2.5-1.2-3.9-1.3-4.2
				c-0.1-0.3-0.2-0.6-0.2-0.8c-0.2,0.7-0.7,2.3-1.5,4.9h3V261.9z"/>
			<path d="M29.8,262.3v4.4h-2.4v-11.4h3.3c1.6,0,2.7,0.3,3.4,0.8c0.7,0.6,1.1,1.4,1.1,2.6c0,0.7-0.2,1.3-0.6,1.8
				c-0.4,0.5-0.9,0.9-1.6,1.2c1.7,2.6,2.8,4.2,3.4,5h-2.7l-2.7-4.4H29.8z M29.8,260.3h0.8c0.8,0,1.3-0.1,1.7-0.4s0.5-0.7,0.5-1.2
				s-0.2-0.9-0.6-1.2c-0.4-0.2-0.9-0.3-1.7-0.3h-0.7V260.3z"/>
			<path d="M47.5,260.9c0,1.9-0.5,3.3-1.6,4.3s-2.6,1.5-4.6,1.5H38v-11.4h3.6c1.9,0,3.3,0.5,4.3,1.5S47.5,259.1,47.5,260.9z
				 M44.9,260.9c0-2.5-1.1-3.7-3.2-3.7h-1.3v7.4h1C43.8,264.7,44.9,263.4,44.9,260.9z"/>
		</g>
	</g>
</g>
</svg>
