<svg xmlns="http://www.w3.org/2000/svg" xmlns:xlink="http://www.w3.org/1999/xlink" viewBox="0 0 363 356"><defs><radialGradient id="prefix__k" gradientUnits="userSpaceOnUse" cy="212.82" cx="135.55" gradientTransform="matrix(1.0466 0 0 1.1513 31.325 -7.915)" r="8.312"><stop offset="0" stop-color="#fff"/><stop offset="1" stop-color="#fff" stop-opacity="0"/></radialGradient><radialGradient id="prefix__j" gradientUnits="userSpaceOnUse" cy="290.77" cx="216.89" gradientTransform="matrix(1.0466 0 0 1.237 31.325 -51.132)" r="37.516"><stop offset="0" stop-color="#7b2226"/><stop offset="1" stop-color="#7b2226" stop-opacity="0"/></radialGradient><radialGradient id="prefix__i" gradientUnits="userSpaceOnUse" cy="232.83" cx="290.1" gradientTransform="matrix(1.8271 -.21625 .1697 1.4338 -270.13 -48.455)" r="9.8"><stop offset="0" stop-color="#eaeeee"/><stop offset="1" stop-color="#eaeeee" stop-opacity="0"/></radialGradient><radialGradient id="prefix__h" gradientUnits="userSpaceOnUse" cy="212.09" cx="232.83" gradientTransform="matrix(1.7903 0 0 1.8128 -141.82 -148.14)" r="47.851"><stop offset="0" stop-color="#b20002"/><stop offset="1" stop-color="#b20002" stop-opacity="0"/></radialGradient><radialGradient id="prefix__g" xlink:href="#prefix__a" gradientUnits="userSpaceOnUse" cy="294.69" cx="398.8" gradientTransform="matrix(1.6941 0 0 1.909 -564.4 -265.1)" r="50.11"/><radialGradient id="prefix__f" xlink:href="#prefix__a" gradientUnits="userSpaceOnUse" cy="264.55" cx="507.84" gradientTransform="matrix(1.9532 0 0 1.8894 -766.62 -239.01)" r="54.256"/><radialGradient id="prefix__b" gradientUnits="userSpaceOnUse" cy="337.61" cx="160.05" gradientTransform="matrix(.43326 -.90127 1.6374 .78713 -462.08 188.7)" r="59.521"><stop offset="0"/><stop offset="1" stop-opacity="0"/></radialGradient><radialGradient id="prefix__c" gradientUnits="userSpaceOnUse" cy="333.6" cx="250.64" gradientTransform="matrix(.36601 -.93061 2.4915 .97989 -672.25 215.7)" r="51.389"><stop offset="0"/><stop offset="1" stop-opacity="0"/></radialGradient><linearGradient id="prefix__a"><stop offset="0" stop-color="#520000"/><stop offset="1" stop-color="#a90e0c"/></linearGradient><linearGradient id="prefix__e" y2="211.54" gradientUnits="userSpaceOnUse" x2="9.859" gradientTransform="translate(29.876 -8.659) scale(1.0466)" y1="124.88" x1="154.86"><stop offset="0" stop-color="#596911"/><stop offset="1" stop-color="#a3af68"/></linearGradient><filter id="prefix__d"><feGaussianBlur stdDeviation="2.776"/></filter></defs><path d="M126 264s-27.933-2.759-40 3c-7.023 3.352-15.21 9.258-16 17-.517 5.062 3.88 10.014 8 13 19.706 14.28 71 17 71 17l18 1 22-6z" transform="translate(-7.4 -14.939) scale(1.0466)" opacity=".696" fill="url(#prefix__b)"/><path d="M289.61 298.83s-5.943 6.518-9.847 8.309c-10.576 4.851-22.858 6.362-34.464 5.538-20.355-1.445-58.466-18.156-58.466-18.156l3.077-20.925 47.388-6z" transform="translate(-7.4 -14.939) scale(1.0466)" opacity=".6" fill="url(#prefix__c)"/><path d="M207.16 54.094c-1.966.019-3.297 3.06-4.156 4.969-1.166 2.59-2.199 5.703-2.125 8.594-4.515 3.273-24.884 18.316-32.281 28.75a94.54 94.54 0 00-3.969 6.062l-6.938 2.156-12.625-.468L146.91 108s-3.824-.288-4.594-.75c-.769-.461-.312 2.625-.312 2.625l-6.938.125 1.688 4.313-8.594.625 3.063 3.687-9.375.782 1.219 3.53-5.063 2.157h-2.781v3.219l-7.22.93.75 4.156-5.063.469-1.093 4.75h-4.438l-.781 2.781-2.469.312-1.375 4-5.656-.656v4.344l-3.906.219-.875 3.281-1.97-.656-.218 4.562-3.688-.656-.218 3.062-2.625.22-.438 2.812-2.812.437.437 3.281-3.625-.218-.437 4.78-1.25-.062-1.25-1.25-.438 5.657-6.312 1.312 1.937 3.906-5 5.22 2.625 1.312-3.687 3.906.187 4.594-3.25 1.718.875 4.344-3.906 1.75-.656 4.125-.875-.406-2.625 3.906-1.719 1.313 1.281 3.03-3.906 2.188.875 2.594-3.062 2.188-.844 4.343-3.063 2.188-.44 3.47-4.78 3.937 5.468 1.75s8.375-1.145 12.594-1.53c2.507-.23 5.077-.066 7.562-.47.786-.127 1.508-.436 2.282-.625 2.296-.56 4.606-1.137 6.937-1.53 2.19-.37 4.447-.351 6.625-.782 2.039-.403 3.97-1.244 6-1.688 1.623-.354 3.4-.049 4.906-.75 6.164-2.867 10.026-9.25 15.406-13.406 6.98-5.39 14.657-9.793 21.844-14.906 8.216-5.845 16.596-11.51 24.312-18 5.747-4.833 10.643-10.639 16.312-15.562.332-.287.767-.655 1.188-1a145.408 145.408 0 00-1.781 5.844c-1.413 5.047-2.675 10.152-3.594 15.312-.617 3.464-1.135 8.568-1.406 11.25-6.627 1.136-12.998 4.035-18.812 7.406-.566.328-1.134.682-1.688 1.032-.096.06-.185.126-.281.187-.404.259-.79.512-1.188.781a55.34 55.34 0 00-2.906 2.094c-.3.234-.58.48-.875.719-.236.191-.486.368-.719.563-.12.1-.224.21-.343.312a58.317 58.317 0 00-2.688 2.438c-.122.117-.254.224-.375.343l-.062.063c-.406.398-.794.809-1.188 1.219-.172.179-.361.35-.531.53a59.012 59.012 0 00-1.5 1.657 95.192 95.192 0 00-2.094 2.5l-.125.156c-2.378 2.95-4.583 6.098-6.25 9.469-.363.734-.69 1.464-1 2.219a30.816 30.816 0 00-.844 2.312c-.142.445-.264.891-.375 1.344-.041.166-.087.333-.125.5-.013.061-.018.127-.03.188-.93 4.274-.667 8.805-.47 13.188.196 4.333 1.03 8.654 2.032 12.875 1.367 5.76 2.534 11.73 5.406 16.906 3.299 5.946 8.152 10.992 13.188 15.562 4.98 4.52 10.504 8.58 16.562 11.5 6.283 3.028 13.1 5.575 20.062 6 5.652.345 11.68-.32 16.75-2.844 6.463-3.218 11.925-8.74 15.78-14.844.208-.327.398-.667.595-1 .084-.144.167-.293.25-.438.417-.731.816-1.462 1.187-2.218.119-.242.23-.476.344-.72.11-.234.207-.481.312-.718.12-.266.261-.544.375-.812.93-2.194 1.688-4.466 2.344-6.782.262-.924.49-1.846.719-2.78.028-.116.066-.229.093-.345.234-.969.451-1.962.657-2.937.017-.084.045-.166.062-.25.212-1.017.404-2.045.594-3.063.008-.042.023-.082.031-.125.197-1.06.381-2.103.563-3.156.215-1.248.424-2.519.625-3.781.811-5.09 1.469-10.299 1.5-15.438.003-.632-.016-1.276-.031-1.906v-.094a54.19 54.19 0 00-.22-3.75 44.696 44.696 0 00-.905-5.656c-.575-2.511-1.42-4.985-2.438-7.375-.004-.01.004-.023 0-.031a54.46 54.46 0 00-3.594-6.938c-.005-.007.005-.024 0-.031-1.087-1.785-2.286-3.493-3.531-5.156-.005-.007.005-.025 0-.031-.625-.835-1.283-1.637-1.937-2.438a86.962 86.962 0 00-2.094-2.469c-.005-.006.005-.025 0-.03a75.965 75.965 0 00-2.22-2.376c-.004-.005.006-.026 0-.031a62.55 62.55 0 00-4.812-4.5 45.83 45.83 0 00-6.625-4.719c-.46-.267-.937-.533-1.406-.781-.008-.004-.023.004-.031 0a36.93 36.93 0 00-2.906-1.375c-.18-.075-.351-.147-.532-.219h-.03c-3.602-1.426-7.506-2.187-11.439-2.437-.341-.022-.69-.048-1.03-.063-.095-.004-.188.003-.282 0-.806-.03-1.6-.044-2.406-.031-.929.015-1.861.027-2.782.094.037-1.475.085-2.872.22-4.032 1.028-8.894 3.705-17.546 6.468-26.062 2.402-7.404 5.423-14.619 8.75-21.656 5.542-11.724 12.51-22.735 18.594-34.188 3.336-6.28 6.26-12.777 9.812-18.938 3.02-5.237 3.855-14.472 9.47-15.78.852.181 1.679.21 2.5.062 3.58 1.149 5.616 6.856 8.343 9.969 8.799 10.042 17.076 20.613 24.344 31.812 5.658 8.719 10.495 17.98 14.875 27.406 3.265 7.026 6.498 14.132 8.469 21.625 1.42 5.398 1.816 11.04 2.375 16.594.385 3.821 1.255 7.701.687 11.5-.066.446-.206.949-.343 1.469-1.843-.463-3.69-.994-5.532-1.438-.01-.002-.02.002-.03 0-1.378-.331-2.76-.612-4.157-.781H262a22.15 22.15 0 00-2.094-.156c-6.606-.172-13.674.002-19.625 2.875-6.502 3.138-12.017 8.65-15.781 14.812-5.71 9.345-8.166 20.68-9.094 31.594-.856 10.072.064 20.563 3.344 30.125 1.866 5.44 5.07 10.385 8.625 14.969.014.018.017.044.031.062.768.989 1.552 1.95 2.344 2.906 1.759 2.125 3.536 4.322 5.437 6.406a58.09 58.09 0 001.938 2.032 40.759 40.759 0 002.625 2.406c.16.134.307.276.469.406.006.005.025-.005.03 0 .354.284.7.577 1.063.844.007.005.025-.005.032 0 .363.266.719.534 1.093.781.39.258.786.483 1.188.719a22.968 22.968 0 002.437 1.25c.325.14.638.256.97.375.342.124.68.241 1.03.344.338.099.658.2 1 .28.01.003.022-.001.032 0 .062.015.125.018.187.032.968.217 1.938.373 2.938.469.23.022.456.014.687.031.483.036.95.078 1.438.094.312.01.624-.003.937 0 .784.008 1.557.024 2.344 0h.062c1.783-.056 3.573-.17 5.313-.25 1.325-.061 2.635-.136 3.969-.25a58.404 58.404 0 003.937-.469c2.622-.402 5.212-1.023 7.656-2 7.929-3.168 15.221-8.237 21.312-14.219 7.343-7.21 13.516-15.927 17.594-25.375 3.883-8.995 6.616-18.968 6.063-28.75-.544-9.612-3.397-19.637-9.125-27.375-3.366-4.548-8.328-8.094-13.625-10.219-.53-.221-1.055-.44-1.594-.625a18.004 18.004 0 00-1-.313c-.118-.032-.226-.063-.344-.093-.031-.008-.062-.024-.093-.031a21.42 21.42 0 00-2.563-.47c-2.652-.337-5.38-.21-8.125-.062-1.662.087-3.309.175-4.969.22-1.118.03-2.236.02-3.343-.032-.701-5.858-1.89-14.918-3.188-20.5-2.39-10.17-5.44-20.21-9.59-29.79-4.37-10.07-10.31-19.43-16.03-28.81-3.59-5.89-7.56-11.53-11.47-17.22-4.764-6.927-9.775-13.673-14.594-20.562-1.61-2.302-4.781-6.938-4.781-6.938l-.844-5.468a20.677 20.677 0 000-4.625c-1.038-8.875-6.644-4.052-8.875-7.125-1.03-1.419-.155-4.57-1.875-4.907-.137-.026-.244-.063-.375-.062zm-5.875 17.25l.375 6.375s-1.007 6.638-2.156 9.781c-2.878 7.872-7.8 14.841-11.72 22.25-4.053 7.662-8.152 15.297-12.187 22.97-.065.123-.123.25-.188.374l-2.03-5.531 3.687-.156-7.375-18.312.468-8.313-1.53.469c.442-.657.881-1.317 1.343-1.969 6.828-9.632 25.41-23.607 31.312-27.938zm-26.688 63.219c-.282.53-.56 1.065-.844 1.594l-.218-.906 1.062-.688z" transform="translate(-7.4 -14.939) scale(1.0466)" opacity=".5" filter="url(#prefix__d)"/><path d="M84.57 136.89v4.555l-4.1.227-.91 3.416-2.05-.683-.227 4.782-3.872-.683-.227 3.188-2.733.228-.456 2.96-2.96.456.455 3.416-3.774-.233-.456 5.01-1.331-.056-1.31-1.31-.455 5.921-6.604 1.367 2.05 4.099-5.238 5.465 2.733 1.367-3.872 4.099.228 4.782-3.416 1.822.91 4.554-4.098 1.822-.683 4.327-.911-.455-2.733 4.099-1.822 1.366 1.367 3.188-4.1 2.278.911 2.732-3.188 2.278-.91 4.554-3.189 2.278-.455 3.643-5.01 4.1 5.713 1.844s8.789-1.206 13.204-1.61c2.624-.24 5.29-.06 7.89-.483.823-.133 1.606-.446 2.416-.644 2.403-.587 4.806-1.199 7.246-1.61 2.291-.387 4.645-.355 6.924-.806 2.134-.422 4.155-1.307 6.28-1.77 1.699-.372 3.577-.073 5.153-.806 6.45-3.001 10.472-9.66 16.103-14.01 7.306-5.642 15.345-10.269 22.866-15.62 8.6-6.117 17.367-12.047 25.443-18.84 6.014-5.059 11.136-11.111 17.07-16.264 2.22-1.93 6.923-5.475 6.923-5.475l10.306-23.349-1.449-5.797 2.254-1.45-2.415-6.601 3.865-.161-7.73-19.162.483-8.696-13.043 4.026-13.204-.483 1.933 4.025s-4.026-.322-4.831-.805c-.805-.483-.322 2.738-.322 2.738l-7.247.16 1.772 4.51-9.018.644 3.22 3.864-9.822.805 1.288 3.704-5.314 2.255h-2.898v3.381l-7.569.966.805 4.348-5.314.483-1.127 4.992h-4.67l-.805 2.899-2.576.322-1.45 4.186z" fill="url(#prefix__e)"/><path d="M204.72 54.506s-26.998 19.218-35.676 31.458c-10.655 15.03-16.158 33.089-26.853 47.598-11.907 16.153-26.378 30.482-41.427 43.846-11.672 10.365-25.159 18.602-37.799 28.032-9.793 7.306-29.303 21.985-29.303 21.985l1.054 1.426s19.548-14.685 29.334-21.985c12.552-9.363 26.063-17.62 37.892-28.125 15.1-13.407 29.66-27.823 41.675-44.125 10.938-14.838 16.453-30.93 26.884-45.644 8.467-11.942 35.49-31.24 35.49-31.24z" style="block-progression:tb;text-indent:0;text-transform:none" color="#000" fill="#c1be7b"/><path d="M221.55 273.93c-3.432-10.007-4.401-21.003-3.505-31.544.971-11.422 3.537-23.265 9.513-33.046 3.94-6.448 9.718-12.237 16.523-15.522 6.229-3.006 13.615-3.184 20.53-3.004 5.955.155 11.61 2.794 17.523 3.505 7.817.94 16.151-1.563 23.6.988 6.164 2.111 12.054 6.092 15.931 11.33 5.995 8.099 8.99 18.618 9.56 28.678.58 10.237-2.31 20.68-6.373 30.094-4.268 9.889-10.725 19.007-18.41 26.554-6.376 6.26-14.007 11.555-22.305 14.87-5.117 2.044-10.782 2.578-16.286 2.832-5.913.274-12.271.938-17.702-1.416-7.063-3.062-12.174-9.611-17.082-15.542-4.681-5.656-9.134-11.831-11.516-18.776z" fill="url(#prefix__f)"/><path d="M117.9 214.34c4.274-4.92 9.383-9.248 15.021-12.517 6.624-3.841 13.929-7.083 21.53-8.011 7.336-.896 15.214-.353 22.031 2.503 8.318 3.486 15.319 10.043 21.029 17.024 5.482 6.703 10.086 14.591 12.017 23.032 2.382 10.418.815 21.513-1.001 32.045-1.58 9.155-3.55 18.684-8.512 26.537-4.037 6.389-9.759 12.154-16.523 15.522-5.306 2.642-11.61 3.366-17.524 3.004-7.287-.444-14.4-3.129-20.976-6.299-6.34-3.056-12.137-7.306-17.348-12.038-5.27-4.783-10.355-10.062-13.808-16.286-3.006-5.417-4.234-11.674-5.665-17.702-1.05-4.417-1.92-8.918-2.124-13.454-.24-5.317-.565-10.864 1.062-15.932 2.088-6.506 6.31-12.269 10.792-17.427z" fill="url(#prefix__g)"/><path d="M262.2 190.75l10.499 12.003-4.35-7.097 20.638 3.86 12.788-5.103c-6.377-.873-13.193.679-19.657-.098-5.915-.711-11.543-3.345-17.498-3.5-.8-.02-1.61-.058-2.42-.065z" opacity=".197"/><path d="M175.92 196.08s-23.002 2.4-33.935 5.906c-8.034 2.576-22.81 10.97-22.81 10.97-.427.463-.864.9-1.276 1.374-4.48 5.158-8.705 10.927-10.793 17.433-.895 2.79-1.157 5.738-1.21 8.7 0 0 9.615 24.807 20.77 28.618 8.673 2.964 17.32-6.42 26.393-7.719 11.267-1.614 22.796-.86 34.146 0 2.815.213 6.738-1.026 8.373 1.276 3.417 4.809-4.252 11.588-3.238 17.4.931 5.338 8.21 14.03 8.21 14.03 4.57-7.68 6.459-16.823 7.98-25.641 1.816-10.531 3.396-21.634 1.014-32.052-1.93-8.442-6.554-16.322-12.036-23.025-5.71-6.981-12.712-13.554-21.03-17.04-.188-.079-.367-.154-.556-.23z" opacity=".381" fill="#c90401"/><path d="M160.03 193.43c-1.877.03-3.726.168-5.56.392-7.601.929-14.93 4.172-21.554 8.014-4.736 2.746-9.079 6.24-12.886 10.204l12.428-.295 6.443-3.86 10.957 7.098-5.168-10.303 15.47-6.443 3.762-4.71a48.761 48.761 0 00-3.892-.098z" opacity=".201"/><path d="M203.76 59.784c2.24 4.353 8.16 8.986 12.753 7.287 4.233-1.566 5.08-8.27 4.555-12.753-1.087-9.288-6.983-4.223-9.317-7.44-1.078-1.484-.132-4.8-1.932-5.152-2.293-.448-3.792 3.022-4.75 5.153-1.775 3.942-3.288 9.06-1.309 12.905z" fill="#a26c3e"/><path d="M273.25 202.83l13.269 1.252-1.502-3.755s-1.924-18.333-4.006-27.288c-2.473-10.638-5.682-21.173-10.028-31.193-4.574-10.548-10.773-20.329-16.76-30.143-3.76-6.164-7.924-12.075-12.017-18.025-4.986-7.25-10.228-14.32-15.27-21.53-1.686-2.409-5.008-7.26-5.008-7.26l-1.001-6.509s-4.579 3.333-7.26 3.505c-3.687.236-10.515-3.505-10.515-3.505l.5 8.011s-1.05 6.975-2.253 10.264c-3.012 8.24-8.165 15.53-12.267 23.283-4.242 8.019-8.545 16.005-12.768 24.034-3.196 6.079-6.58 12.065-9.513 18.276-1.82 3.855-3.51 7.776-5.007 11.766a150.094 150.094 0 00-4.006 12.267c-1.478 5.283-2.793 10.622-3.755 16.022-.84 4.719-1.752 14.27-1.752 14.27l-2.253 12.517-.751 5.258 6.008 1.001s4.906 1.951 7.26 1.252c1.528-.454 3.744-1.678 3.505-3.255-.347-2.288-6.259-3.004-6.259-3.004l-2.253-1.001s-1.017-13.396-.25-20.028c1.077-9.31 3.868-18.374 6.76-27.288 2.513-7.75 5.685-15.291 9.167-22.656 5.8-12.27 13.106-23.772 19.473-35.76 3.491-6.572 6.55-13.378 10.267-19.826 3.287-5.701 4.08-15.927 10.621-16.64 4.978-.543 7.322 6.855 10.621 10.62 9.21 10.51 17.885 21.56 25.491 33.28 5.922 9.126 10.994 18.813 15.578 28.679 3.418 7.353 6.79 14.817 8.852 22.659 1.485 5.65 1.893 11.536 2.478 17.348.402 4 1.302 8.062.708 12.038-.581 3.89-4.106 11.064-4.106 11.064z" fill="#c1be7b"/><path d="M205.76 66.262c-.771 6.02-2.187 12.01-5.102 17.367 4.031-6.222 4.081-17.839 13.442-18.61 8.098.846 9.452 10.96 15.176 15.339 2.189 2.416 10.087 12.615 4.795 5.391-4.61-7.23-10.978-13.81-14.365-21.57.338-4.693-4.121.922-6.849-.207-3.07.545-8.823-4.707-7.184.975l.069 1.044.018.27zm-8.242 23.222c-11.221 20.039-22.465 40.035-31.987 60.867-4.702 11.631-8.22 23.908-9.976 36.435 4.82-29.963 19.516-56.966 34.647-82.881 2.817-5.177 5.298-10.513 8.036-15.729l-.505.917-.215.391zm67.931 45.625c.062-.063-.141-.194 0 0zm1.766 3.728c4.016 8.956 1.185 1.945-1.3-2.858-1.384-2.76 1.204 2.603 1.3 2.858zm2.551 5.528c-.03.048.113.123 0 0zm.524 1.243c-.44-1.42-.638-1.324 0 0zm7.064 21.75c.744 10.982 4.992 22.802-.742 33.177 5.32 3.206 8.02-.007 5.583-6.227-1.068-9.388-2.416-18.877-5.037-28.029l.187 1.03.01.05zm-122.35 24.072c-.557 7.141-2.401 14.095-3.303 21.194 3.864-.34 8.874 3.862 12.069.98-3.83-1.532-10.07-1.495-8.463-7.39-.261-5.258-.513-10.537-.172-15.798l-.13 1.014z" fill="#d4d1af"/><path d="M257.23 200.59c9.027-.205 17.9 5.158 26.824 3.78 5.84-.903 10.092-8.024 15.989-7.656 7.204.45 14.151 5.743 18.218 11.706 6.106 8.954 7.735 21.13 6.376 31.882-1.14 9.027-4.922 18.686-11.842 24.595-9.643 8.234-23.798 11.956-36.437 10.93-13.129-1.064-25.566-8.685-35.526-17.306-6.94-6.008-13.622-13.784-15.486-22.773-1.318-6.356.568-13.413 3.644-19.13 3.011-5.595 8.023-10.368 13.664-13.295 4.388-2.276 9.633-2.62 14.575-2.733z" opacity=".508" fill="url(#prefix__h)"/><path d="M289.43 219.52c-1.692 6.123 4.742 16.434 11.031 15.54 8.412-1.196 10.647-19.462 8.373-24.074-1.33-2.699-17.522 1.724-19.404 8.534z" opacity=".692" fill="url(#prefix__i)"/><path d="M261.74 252.73c-4.923.036-9.886 4.313-13.344 7.98-4.487 4.76-4.46 12.37-7.751 18.021-2.393 4.11-7.247 7.101-10.074 10.86a125.609 125.609 0 002.485 3.106c4.909 5.931 10.01 12.474 17.073 15.536 5.432 2.355 11.814 1.713 17.727 1.44 5.505-.255 11.171-.802 16.288-2.846 8.298-3.315 15.93-8.62 22.306-14.88.906-.89 1.78-1.784 2.65-2.716-.06-.05-.103-.115-.164-.163-4.714-3.755-12.506 3.705-18.021 1.276-6.015-2.65-8.381-10.168-12.265-15.47-5.208-7.11-6.29-19.647-14.816-21.881a7.967 7.967 0 00-2.093-.262z" opacity=".636" fill="url(#prefix__j)"/><path d="M301.55 194.35l-12.559 8.406 20.082-6.084c-1.1-.508-2.207-.987-3.336-1.374a21.12 21.12 0 00-4.186-.948z" opacity=".254" fill="#fff"/><path d="M119.47 212.6a61.847 61.847 0 00-1.57 1.733 98.602 98.602 0 00-2.322 2.78l26.525.458-18.087-2.093-4.546-2.878z" opacity=".428" fill="#fff"/><path d="M173.43 227.55c-2.988-.133-6.696 1.058-8.198 3.644-1.533 2.638-.396 6.351.91 9.109 1.288 2.716 3.371 6.376 6.377 6.376s4.796-3.82 6.377-6.376c1.514-2.45 3.777-5.514 2.732-8.198-1.133-2.914-5.075-4.416-8.198-4.555z" fill="url(#prefix__k)"/><path d="M268.15 219.21s-5.297 32.27-7.293 49.583c-1.253 10.859-2.643 28.703-3.566 41.047 1.654.121 3.326.151 5.005.098a8927.364 8927.364 0 002.845-41.537c1.17-17.915 3.01-49.19 3.01-49.19z" opacity=".512" fill="#6b363a"/></svg>