<svg version="1.1" id="prefix__Icons" xmlns="http://www.w3.org/2000/svg" x="0" y="0" viewBox="0 0 48 48" xml:space="preserve"><style>.prefix__st3{fill:none;stroke:#45413c;stroke-linecap:round;stroke-linejoin:round;stroke-miterlimit:10}.prefix__st58{fill:#6dd627}.prefix__st67{fill:#9ceb60}.prefix__st78{fill:#9f5ae5}.prefix__st79{fill:#803ec2}.prefix__st81{fill:#bf8df2}</style><g id="prefix__XMLID_12524_"><path id="prefix__XMLID_12555_" class="prefix__st3" d="M17.2 18.1c-2.9-.6-6.8-.6-8.2 2-1.9 3.3 1.1 4.9 2.9 3.2 1.8-1.7-1.6-6-8-3.8"/><circle id="prefix__XMLID_12554_" transform="rotate(-33.812 34.675 38.799)" class="prefix__st78" cx="34.7" cy="38.8" r="5.1"/><path id="prefix__XMLID_12553_" class="prefix__st79" d="M39.4 37c-.2.2-.4.3-.6.5-1.1.7-2.4 1.1-3.6 1.1-.3 1.6-1.2 3.1-2.7 4.2-.2.2-.5.3-.8.4-.5-.4-1-.8-1.4-1.4-1.2-1.8-1.1-4 0-5.7.4-.5.8-1 1.4-1.4.7-.5 1.5-.8 2.3-.8 1.8-.2 3.7.6 4.8 2.2.3.2.5.5.6.9z"/><circle id="prefix__XMLID_12552_" transform="rotate(-33.812 34.675 38.799)" class="prefix__st3" cx="34.7" cy="38.8" r="5.1"/><circle id="prefix__XMLID_12551_" transform="rotate(-33.812 27.22 18.473)" cx="27.2" cy="18.5" fill="#803ec2" stroke="#45413c" stroke-linecap="round" stroke-linejoin="round" stroke-miterlimit="10" r="5.7"/><ellipse id="prefix__XMLID_12550_" cx="26.7" cy="44.3" rx="13.1" ry="1.7" opacity=".15" fill="#45413c"/><circle id="prefix__XMLID_12549_" transform="rotate(-33.812 18.717 24.159)" class="prefix__st78" cx="18.7" cy="24.2" r="5.7"/><path id="prefix__XMLID_12548_" class="prefix__st81" d="M15.6 22.4c2.6-1.7 6.1-1 7.9 1.6.4.5.6 1.1.8 1.7.4-1.5.2-3.2-.8-4.7-1.7-2.6-5.3-3.3-7.9-1.6-2.1 1.4-2.9 3.9-2.3 6.2.3-1.2 1.1-2.4 2.3-3.2z"/><circle id="prefix__XMLID_12547_" transform="rotate(-33.812 18.717 24.159)" class="prefix__st3" cx="18.7" cy="24.2" r="5.7"/><circle id="prefix__XMLID_12546_" transform="rotate(-33.812 17.946 32.212)" class="prefix__st78" cx="17.9" cy="32.2" r="5.7"/><path id="prefix__XMLID_12545_" class="prefix__st81" d="M14.8 30.8c2.6-1.7 6.1-1 7.9 1.6.3.5.6 1 .7 1.5.5-1.6.3-3.3-.7-4.8-1.7-2.6-5.3-3.3-7.9-1.6-2.1 1.4-3 4-2.3 6.4.4-1.3 1.1-2.4 2.3-3.1z"/><circle id="prefix__XMLID_12544_" transform="rotate(-33.812 17.946 32.212)" class="prefix__st3" cx="17.9" cy="32.2" r="5.7"/><circle id="prefix__XMLID_12543_" transform="rotate(-33.812 33.69 20.982)" class="prefix__st78" cx="33.7" cy="21" r="5.7"/><path id="prefix__XMLID_12542_" class="prefix__st81" d="M30.5 19.4c2.6-1.7 6.1-1 7.9 1.6.3.5.6 1 .7 1.6.5-1.6.2-3.3-.7-4.8-1.7-2.6-5.3-3.3-7.9-1.6-2.1 1.4-3 4-2.3 6.3.4-1.2 1.2-2.3 2.3-3.1z"/><circle id="prefix__XMLID_12541_" transform="rotate(-33.812 33.69 20.982)" class="prefix__st3" cx="33.7" cy="21" r="5.7"/><circle id="prefix__XMLID_12540_" transform="rotate(-33.812 34.813 29.81)" class="prefix__st78" cx="34.8" cy="29.8" r="5.7"/><path id="prefix__XMLID_12539_" class="prefix__st81" d="M31.6 27.5c2.6-1.7 6.1-1 7.9 1.6.4.6.7 1.3.8 2 .3-1.5.1-3-.8-4.4-1.7-2.6-5.3-3.3-7.9-1.6-2 1.3-2.9 3.7-2.4 5.9.4-1.4 1.2-2.7 2.4-3.5z"/><circle id="prefix__XMLID_12538_" transform="rotate(-33.812 34.813 29.81)" class="prefix__st3" cx="34.8" cy="29.8" r="5.7"/><circle id="prefix__XMLID_12537_" transform="rotate(-33.812 26.47 36.766)" class="prefix__st78" cx="26.5" cy="36.8" r="5.7"/><path id="prefix__XMLID_12536_" class="prefix__st79" d="M31.9 35.3c-.3.3-.7.7-1.1.9-3 2-6.9 1.5-8.7-1.2-.2-.3-.4-.7-.5-1 .4-.7 1-1.4 1.8-1.9 2.6-1.7 6.1-1 7.9 1.6.3.4.5 1 .6 1.6z"/><circle id="prefix__XMLID_12535_" transform="rotate(-33.812 26.47 36.766)" class="prefix__st3" cx="26.5" cy="36.8" r="5.7"/><path id="prefix__XMLID_12534_" class="prefix__st58" d="M25.6 22.3s-1.7-3.7-6.8-7.1c-3-2-5.8-2.6-7.2-2.7-.5-.1-1 .2-1.2.7l-.6 1.4c-.3.7.2 1.5 1 1.6 1.6.1 4.1.5 6.6 2 5.5 3.3 7 6.3 7 6.3l1.2-2.2z"/><path id="prefix__XMLID_12533_" class="prefix__st67" d="M18.1 16.7c4 2.4 6.1 5.2 6.9 6.5l.5-.9s-1.7-3.7-6.8-7.1c-3-2-5.8-2.6-7.2-2.7-.5-.1-1 .2-1.2.7l-.3.9c1.6.1 4.8.6 8.1 2.6z"/><path id="prefix__XMLID_12532_" class="prefix__st3" d="M25.6 22.3s-1.7-3.7-6.8-7.1c-3-2-5.8-2.6-7.2-2.7-.5-.1-1 .2-1.2.7l-.6 1.4c-.3.7.2 1.5 1 1.6 1.6.1 4.1.5 6.6 2 5.5 3.3 7 6.3 7 6.3l1.2-2.2z"/><circle id="prefix__XMLID_12531_" transform="rotate(-33.812 27.554 27.145)" class="prefix__st78" cx="27.6" cy="27.1" r="6.8"/><path id="prefix__XMLID_12530_" class="prefix__st81" d="M23.8 25.4c3.1-2.1 7.4-1.3 9.5 1.9.4.6.7 1.2.9 1.8.6-1.9.3-4-.9-5.8-2.1-3.1-6.3-4-9.5-1.9-2.6 1.7-3.6 4.8-2.7 7.6.4-1.3 1.3-2.7 2.7-3.6z"/><circle id="prefix__XMLID_12529_" transform="rotate(-33.812 27.554 27.145)" class="prefix__st3" cx="27.6" cy="27.1" r="6.8"/><path id="prefix__XMLID_12528_" class="prefix__st58" d="M16.4 5.3c.1-.5.7-.7 1.1-.4l2.1 1.8c.3.3.8.2 1-.2l.1-.2c.8-1.3 2-2.2 3.3-2.7l1-.3c.3-.1.7.1.8.4l.4.9c.6 1.1.8 2.4.7 3.7v.3c0 .5.3.9.7.8l2.2-.1c.5 0 .9.6.7 1.1l-.3.7c-1.2 2.6-3.5 4.4-6.2 4.7l-3.6.5-2.3-3c-1.8-2.2-2.4-5.2-1.7-8z"/><path id="prefix__XMLID_12527_" class="prefix__st67" d="M16.4 7.6c.1-.5.7-.7 1.1-.4L19.6 9c.3.3.8.2 1-.2l.1-.2c.8-1.3 1.9-2.2 3.3-2.7l1-.3c.3-.1.7.1.8.4l.4.9c.5 1.2.7 2.4.6 3.7v.3c0 .5.3.9.7.8l2.2-.1h.1c.1-.2.2-.3.2-.5l.3-.7c.2-.5-.1-1.1-.7-1.1l-2.2.1c-.4 0-.8-.4-.7-.8v-.3c.3-1.3.1-2.6-.4-3.7l-.4-.9c-.2-.3-.5-.5-.8-.4l-1 .3c-1.3.4-2.5 1.4-3.3 2.7l-.1.2c-.2.4-.7.4-1 .2l-2.1-1.8c-.4-.3-1-.1-1.1.4-.3 1.1-.3 2.3-.2 3.4-.1-.4 0-.7.1-1.1z"/><path id="prefix__XMLID_12526_" class="prefix__st3" d="M16.4 5.3c.1-.5.7-.7 1.1-.4l2.1 1.8c.3.3.8.2 1-.2l.1-.2c.8-1.3 2-2.2 3.3-2.7l1-.3c.3-.1.7.1.8.4l.4.9c.6 1.1.8 2.4.7 3.7v.3c0 .5.3.9.7.8l2.2-.1c.5 0 .9.6.7 1.1l-.3.7c-1.2 2.6-3.5 4.4-6.2 4.7l-3.6.5-2.3-3c-1.8-2.2-2.4-5.2-1.7-8z"/><path id="prefix__XMLID_12525_" class="prefix__st3" d="M20.3 16.3c-.1-2 .9-4.9 2.9-7.5"/></g></svg>