<?xml version="1.0" encoding="utf-8"?>
<!-- Generator: Adobe Illustrator 24.3.0, SVG Export Plug-In . SVG Version: 6.00 Build 0)  -->
<svg version="1.1" id="Layer_1" xmlns="http://www.w3.org/2000/svg" xmlns:xlink="http://www.w3.org/1999/xlink" x="0px" y="0px"
	 viewBox="0 0 500 500" style="enable-background:new 0 0 500 500;" xml:space="preserve">
<style type="text/css">
	.st0{fill:none;stroke:#CDCFD0;stroke-width:0.75;stroke-miterlimit:10;}
</style>
<g id="Border">
	<line class="st0" x1="58.3" y1="0" x2="58.3" y2="500"/>
	<line class="st0" x1="96.7" y1="0" x2="96.7" y2="500"/>
	<line class="st0" x1="20" y1="0" x2="20" y2="500"/>
	<line class="st0" x1="135" y1="0" x2="135" y2="500"/>
	<line class="st0" x1="173.3" y1="0" x2="173.3" y2="500"/>
	<line class="st0" x1="211.7" y1="0" x2="211.7" y2="500"/>
	<line class="st0" x1="288.3" y1="0" x2="288.3" y2="500"/>
	<line class="st0" x1="326.7" y1="0" x2="326.7" y2="500"/>
	<line class="st0" x1="365" y1="0" x2="365" y2="500"/>
	<line class="st0" x1="403.3" y1="0" x2="403.3" y2="500"/>
	<line class="st0" x1="480" y1="0" x2="480" y2="500"/>
	<line class="st0" x1="441.7" y1="0" x2="441.7" y2="500"/>
	<line class="st0" x1="58.3" y1="0" x2="58.3" y2="500"/>
	<line class="st0" x1="96.7" y1="0" x2="96.7" y2="500"/>
	<line class="st0" x1="20" y1="0" x2="20" y2="500"/>
	<line class="st0" x1="135" y1="0" x2="135" y2="500"/>
	<line class="st0" x1="173.3" y1="0" x2="173.3" y2="500"/>
	<line class="st0" x1="211.7" y1="0" x2="211.7" y2="500"/>
	<line class="st0" x1="250.1" y1="0" x2="250.1" y2="500"/>
	<line class="st0" x1="288.3" y1="0" x2="288.3" y2="500"/>
	<line class="st0" x1="326.7" y1="0" x2="326.7" y2="500"/>
	<line class="st0" x1="365" y1="0" x2="365" y2="500"/>
	<line class="st0" x1="403.3" y1="0" x2="403.3" y2="500"/>
	<line class="st0" x1="480" y1="0" x2="480" y2="500"/>
	<line class="st0" x1="441.7" y1="0" x2="441.7" y2="500"/>
	<line class="st0" x1="500" y1="58.3" x2="0" y2="58.3"/>
	<line class="st0" x1="500" y1="96.7" x2="0" y2="96.7"/>
	<line class="st0" x1="500" y1="20" x2="0" y2="20"/>
	<line class="st0" x1="500" y1="135" x2="0" y2="135"/>
	<line class="st0" x1="500" y1="173.3" x2="0" y2="173.3"/>
	<line class="st0" x1="500" y1="211.7" x2="0" y2="211.7"/>
	<line class="st0" x1="500" y1="288.3" x2="0" y2="288.3"/>
	<line class="st0" x1="500" y1="326.7" x2="0" y2="326.7"/>
	<line class="st0" x1="500" y1="249.9" x2="0" y2="249.9"/>
	<line class="st0" x1="500" y1="365" x2="0" y2="365"/>
	<line class="st0" x1="500" y1="403.3" x2="0" y2="403.3"/>
	<line class="st0" x1="500" y1="480" x2="0" y2="480"/>
	<line class="st0" x1="500" y1="441.7" x2="0" y2="441.7"/>
</g>
</svg>
