<svg version="1.1" id="prefix__Icons" xmlns="http://www.w3.org/2000/svg" x="0" y="0" viewBox="0 0 48 48" xml:space="preserve"><style>.prefix__st3{fill:none;stroke:#45413c;stroke-linecap:round;stroke-linejoin:round;stroke-miterlimit:10}</style><g id="prefix__XMLID_12943_"><ellipse id="prefix__XMLID_12952_" cx="21.4" cy="45.4" rx="12.6" ry="1.6" opacity=".15" fill="#45413c"/><path d="M37.8 23.5c-.4-1.4-.6-2.8-.5-4.2.1-1.5-.5-3-1.7-4.2l-.9-.9c-1.1-1.1-2.7-1.7-4.2-1.7-1.4.1-2.8-.2-4.2-.5-5.6-1.5-11.7.8-16.2 5.2-4.4 4.4-6.7 10.6-5.2 16.2.4 1.4.6 2.8.5 4.2-.1 1.5.5 3 1.7 4.2l.9.9c1.1 1.1 2.7 1.7 4.2 1.7 1.4-.1 2.8.2 4.2.5 5.6 1.5 11.7-.8 16.2-5.2 4.4-4.4 6.7-10.6 5.2-16.2z" fill="#ffe500"/><path id="prefix__XMLID_12951_" d="M10.1 22.2c4.4-4.4 10.6-6.7 16.2-5.2 1.4.4 2.8.6 4.2.5 1.5-.1 3 .5 4.2 1.7l.9.9c1.1 1.1 1.7 2.7 1.7 4.2-.1 1.4.2 2.8.5 4.2.1.4.2.7.2 1.1.3-2 .3-4.1-.2-6.1-.4-1.4-.6-2.8-.5-4.2.1-1.5-.5-3-1.7-4.2l-.9-.9c-1.1-1.1-2.7-1.7-4.2-1.7-1.4.1-2.8-.2-4.2-.5-5.6-1.5-11.7.8-16.2 5.2C6 21.4 3.7 27 4.7 32.3c.6-3.7 2.6-7.2 5.4-10.1z" fill="#fff48c"/><path class="prefix__st3" d="M37.8 23.5c-.4-1.4-.6-2.8-.5-4.2.1-1.5-.5-3-1.7-4.2l-.9-.9c-1.1-1.1-2.7-1.7-4.2-1.7-1.4.1-2.8-.2-4.2-.5-5.6-1.5-11.7.8-16.2 5.2-4.4 4.4-6.7 10.6-5.2 16.2.4 1.4.6 2.8.5 4.2-.1 1.5.5 3 1.7 4.2l.9.9c1.1 1.1 2.7 1.7 4.2 1.7 1.4-.1 2.8.2 4.2.5 5.6 1.5 11.7-.8 16.2-5.2 4.4-4.4 6.7-10.6 5.2-16.2z"/><path id="prefix__XMLID_12950_" d="M33.3 15s2.8-3.2 6.6-4.3c2.5-.7 3 .8 3.1 2 0 .6-.4 1.1-1 1.2-1.5.2-4.5.7-7.2 2.6-1.4.2-1.5-1.5-1.5-1.5z" fill="#debb7e"/><path id="prefix__XMLID_12949_" d="M33.9 16.3c1-1 3.2-2.9 6-3.6 1.7-.5 2.5.1 2.9.9.2-.2.3-.5.3-.8-.1-1.1-.7-2.6-3.1-2-3.8 1-6.6 4.3-6.6 4.3s0 .7.5 1.2z" fill="#f0d5a8"/><path id="prefix__XMLID_12948_" class="prefix__st3" d="M33.3 15s2.8-3.2 6.6-4.3c2.5-.7 3 .8 3.1 2 0 .6-.4 1.1-1 1.2-1.5.2-4.5.7-7.2 2.6-1.4.2-1.5-1.5-1.5-1.5z"/><path id="prefix__XMLID_12947_" d="M33.3 15s2.2-5.3-2.7-9.8C26.2 1 21.7 2.3 20.1 3c-.4.2-.6.6-.6 1 0 1.6.4 5.4 3.8 7.9 3.9 3 7.9-.4 10 3.1z" fill="#6dd627"/><path id="prefix__XMLID_12946_" d="M20.1 6c1.6-.7 6.1-2.1 10.5 2.1 2 1.8 2.8 3.8 3.1 5.5.3-1.9.3-5.3-3.1-8.5C26.2 1 21.7 2.3 20.1 3c-.4.2-.6.6-.6 1 0 .5.1 1.3.3 2.3 0-.1.1-.2.3-.3z" fill="#9ceb60"/><path id="prefix__XMLID_12945_" class="prefix__st3" d="M33.3 15s2.2-5.3-2.7-9.8C26.2 1 21.7 2.3 20.1 3c-.4.2-.6.6-.6 1 0 1.6.4 5.4 3.8 7.9 3.9 3 7.9-.4 10 3.1z"/><path id="prefix__XMLID_12944_" class="prefix__st3" d="M33.3 15s0-5.9-5.6-8.4"/></g></svg>